<?xml version="1.0" encoding="UTF-8"?>
<svg width="210px" height="146px" viewBox="0 0 210 146" version="1.1" xmlns="http://www.w3.org/2000/svg" xmlns:xlink="http://www.w3.org/1999/xlink">
    <!-- Generator: Sketch 42 (36781) - http://www.bohemiancoding.com/sketch -->
    <title>Full Lockup Without Text@1x</title>
    <desc>Created with Sketch.</desc>
    <defs>
        <path d="M55.8666667,41.25 C64.4268817,50.85 73.137276,55.65 83.3494624,55.65 C100.019355,55.65 112.183871,43.95 112.183871,27.9 C112.183871,11.85 100.019355,0 83.3494624,0 C73.7379928,0 64.8774194,5.4 56.3172043,14.85 C47.9071685,5.25 38.8964158,0 28.8344086,0 C12.1645161,0 -2.84217094e-14,11.85 -2.84217094e-14,27.9 C-2.84217094e-14,43.95 12.1645161,55.65 28.8344086,55.65 C39.046595,55.65 47.0060932,50.85 55.8666667,41.25 Z" id="path-1"></path>
        <mask id="mask-2" maskContentUnits="userSpaceOnUse" maskUnits="objectBoundingBox" x="-5" y="-5" width="122.183871" height="65.65">
            <rect x="-5" y="-5" width="122.183871" height="65.65" fill="white"></rect>
            <use xlink:href="#path-1" fill="black"></use>
        </mask>
    </defs>
    <g id="Main" stroke="none" stroke-width="1" fill="none" fill-rule="evenodd">
        <g id="Superset" transform="translate(-177.000000, -466.000000)">
            <g id="Full-Lockup-Without-Text" transform="translate(177.000000, 466.000000)">
                <path d="M0.5,81.35 C9.06021505,81.35 15.5179211,85.1 15.5179211,95.3 L15.5179211,116.6 C15.5179211,136.4 26.4810036,145.7 44.6526882,145.7 L49.3082437,145.7 L49.3082437,130.55 L44.8028674,130.55 C37.444086,130.55 32.3379928,127.1 32.3379928,117.05 L32.3379928,92 C32.3379928,82.4 26.781362,75.5 17.1698925,73.1 C26.781362,70.55 32.3379928,63.8 32.3379928,54.2 L32.3379928,29 C32.3379928,18.95 37.444086,15.65 44.8028674,15.65 L49.3082437,15.65 L49.3082437,0.5 L44.6526882,0.5 C26.4810036,0.5 15.5179211,9.65 15.5179211,29.45 L15.5179211,50.75 C15.5179211,60.95 9.06021505,64.7 0.5,64.7 L0.5,81.35 Z" id="{-copy-4" fill="#484848"></path>
                <path d="M161.191756,81.35 C169.751971,81.35 176.209677,85.1 176.209677,95.3 L176.209677,116.6 C176.209677,136.4 187.17276,145.7 205.344444,145.7 L210,145.7 L210,130.55 L205.494624,130.55 C198.135842,130.55 193.029749,127.1 193.029749,117.05 L193.029749,92 C193.029749,82.4 187.473118,75.5 177.861649,73.1 C187.473118,70.55 193.029749,63.8 193.029749,54.2 L193.029749,29 C193.029749,18.95 198.135842,15.65 205.494624,15.65 L210,15.65 L210,0.5 L205.344444,0.5 C187.17276,0.5 176.209677,9.65 176.209677,29.45 L176.209677,50.75 C176.209677,60.95 169.751971,64.7 161.191756,64.7 L161.191756,81.35 Z" id="{-copy-5" fill="#484848" transform="translate(185.595878, 73.100000) rotate(-180.000000) translate(-185.595878, -73.100000) "></path>
                <path d="M105.366667,86.75 C96.5060932,96.35 88.546595,101.15 78.3344086,101.15 C61.6645161,101.15 49.5,89.45 49.5,73.4 C49.5,57.35 61.6645161,45.5 78.3344086,45.5 C88.3964158,45.5 97.4071685,50.75 105.817204,60.35 C114.377419,50.9 123.237993,45.5 132.849462,45.5 C149.519355,45.5 161.683871,57.35 161.683871,73.4 C161.683871,89.45 149.519355,101.15 132.849462,101.15 C122.637276,101.15 113.926882,96.35 105.366667,86.75 Z M78.634767,62.6 C71.5763441,62.6 67.3713262,67.4 67.3713262,73.55 C67.3713262,79.7 71.5763441,84.35 78.634767,84.35 C84.4917563,84.35 89.7480287,79.85 94.7039427,73.85 C89.4476703,67.4 84.6419355,62.6 78.634767,62.6 Z M132.549104,84.35 C126.692115,84.35 121.736201,79.7 116.479928,73.55 C121.88638,67.1 126.541935,62.6 132.549104,62.6 C139.607527,62.6 143.812545,67.4 143.812545,73.55 C143.812545,79.7 139.607527,84.35 132.549104,84.35 Z" id="∞" fill="#484848"></path>
                <rect id="Bottom" fill="#FFFFFF" transform="translate(117.815969, 86.222742) rotate(-320.000000) translate(-117.815969, -86.222742) " x="108.805216" y="73.9117829" width="18.0215054" height="24.6219184"></rect>
                <polygon id="Top" fill="#FFFFFF" transform="translate(93.488745, 61.141018) rotate(-320.000000) translate(-93.488745, -61.141018) " points="84.477992 50.894853 102.499497 50.894853 102.499497 71.3871824 84.5471936 70.9586997"></polygon>
                <g id="Group-10" transform="translate(49.500000, 45.500000)">
                    <g id="WORK-SPACE">
                        <path d="M55.8666667,41.25 C64.4268817,50.85 73.137276,55.65 83.3494624,55.65 C100.019355,55.65 112.183871,43.95 112.183871,27.9 C112.183871,11.85 100.019355,0 83.3494624,0 C73.7379928,0 64.8774194,5.4 56.3172043,14.85 C47.9071685,5.25 38.8964158,0 28.8344086,0 C12.1645161,0 -2.84217094e-14,11.85 -2.84217094e-14,27.9 C-2.84217094e-14,43.95 12.1645161,55.65 28.8344086,55.65 C39.046595,55.65 47.0060932,50.85 55.8666667,41.25 Z" id="∞-copy-2" fill="#484848"></path>
                        <path d="M35.3031737,7.82736301 L54.6231734,7.82736301 C54.6231734,7.82736301 54.1382597,11.9130391 54.1201021,16.2068622 C54.1019446,20.5006853 53.079701,24.1223631 53.079701,24.1223631 L35.3031737,24.1223631 L35.3031737,7.82736301 Z" id="Path" fill="#00D1C1" transform="translate(44.963174, 15.974863) rotate(-50.000000) translate(-44.963174, -15.974863) "></path>
                        <rect id="Path-Copy" fill="#00D1C1" transform="translate(67.518574, 40.130521) rotate(-50.000000) translate(-67.518574, -40.130521) " x="57.8585742" y="31.9830205" width="19.3199997" height="16.2950001"></rect>
                        <path d="M29.134767,17.1 C35.1419355,17.1 39.9476703,21.9 45.2039427,28.35 C40.2480287,34.35 34.9917563,38.85 29.134767,38.85 C22.0763441,38.85 17.8713262,34.2 17.8713262,28.05 C17.8713262,21.9 22.0763441,17.1 29.134767,17.1 Z" id="Path" fill="#FFFFFF"></path>
                        <path d="M83.0491039,38.85 C77.1921147,38.85 72.2362007,34.2 66.9799283,28.05 C72.3863799,21.6 77.0419355,17.1 83.0491039,17.1 C90.1075269,17.1 94.3125448,21.9 94.3125448,28.05 C94.3125448,34.2 90.1075269,38.85 83.0491039,38.85 Z" id="Path" fill="#FFFFFF"></path>
                    </g>
                    <use id="∞-copy-2" stroke="#FFFFFF" mask="url(#mask-2)" stroke-width="10" xlink:href="#path-1"></use>
                </g>
            </g>
        </g>
    </g>
</svg>