<?xml version="1.0" encoding="UTF-8"?>
<svg width="210px" height="202px" viewBox="0 0 210 202" version="1.1" xmlns="http://www.w3.org/2000/svg" xmlns:xlink="http://www.w3.org/1999/xlink">
    <!-- Generator: Sketch 42 (36781) - http://www.bohemiancoding.com/sketch -->
    <title>Full Lockup With Text</title>
    <desc>Created with Sketch.</desc>
    <defs>
        <path d="M55.8666667,41.25 C64.4268817,50.85 73.137276,55.65 83.3494624,55.65 C100.019355,55.65 112.183871,43.95 112.183871,27.9 C112.183871,11.85 100.019355,0 83.3494624,0 C73.7379928,0 64.8774194,5.4 56.3172043,14.85 C47.9071685,5.25 38.8964158,0 28.8344086,0 C12.1645161,0 -2.84217094e-14,11.85 -2.84217094e-14,27.9 C-2.84217094e-14,43.95 12.1645161,55.65 28.8344086,55.65 C39.046595,55.65 47.0060932,50.85 55.8666667,41.25 Z" id="path-1"></path>
        <mask id="mask-2" maskContentUnits="userSpaceOnUse" maskUnits="objectBoundingBox" x="-5" y="-5" width="122.183871" height="65.65">
            <rect x="-5" y="-5" width="122.183871" height="65.65" fill="white"></rect>
            <use xlink:href="#path-1" fill="black"></use>
        </mask>
    </defs>
    <g id="Main" stroke="none" stroke-width="1" fill="none" fill-rule="evenodd">
        <g id="Superset" transform="translate(-177.000000, -812.000000)">
            <g id="Full-Lockup-With-Text" transform="translate(177.000000, 812.000000)">
                <g id="Group-7" transform="translate(0.500000, 0.500000)">
                    <g id="Group-17">
                        <g id="Group-6-Copy">
                            <g id="Group" fill="#484848">
                                <path d="M0,80.85 C8.56021505,80.85 15.0179211,84.6 15.0179211,94.8 L15.0179211,116.1 C15.0179211,135.9 25.9810036,145.2 44.1526882,145.2 L48.8082437,145.2 L48.8082437,130.05 L44.3028674,130.05 C36.944086,130.05 31.8379928,126.6 31.8379928,116.55 L31.8379928,91.5 C31.8379928,81.9 26.281362,75 16.6698925,72.6 C26.281362,70.05 31.8379928,63.3 31.8379928,53.7 L31.8379928,28.5 C31.8379928,18.45 36.944086,15.15 44.3028674,15.15 L48.8082437,15.15 L48.8082437,0 L44.1526882,0 C25.9810036,0 15.0179211,9.15 15.0179211,28.95 L15.0179211,50.25 C15.0179211,60.45 8.56021505,64.2 0,64.2 L0,80.85 Z" id="{-copy-4"></path>
                                <path d="M160.691756,80.85 C169.251971,80.85 175.709677,84.6 175.709677,94.8 L175.709677,116.1 C175.709677,135.9 186.67276,145.2 204.844444,145.2 L209.5,145.2 L209.5,130.05 L204.994624,130.05 C197.635842,130.05 192.529749,126.6 192.529749,116.55 L192.529749,91.5 C192.529749,81.9 186.973118,75 177.361649,72.6 C186.973118,70.05 192.529749,63.3 192.529749,53.7 L192.529749,28.5 C192.529749,18.45 197.635842,15.15 204.994624,15.15 L209.5,15.15 L209.5,0 L204.844444,0 C186.67276,0 175.709677,9.15 175.709677,28.95 L175.709677,50.25 C175.709677,60.45 169.251971,64.2 160.691756,64.2 L160.691756,80.85 Z" id="{-copy-5" transform="translate(185.095878, 72.600000) rotate(-180.000000) translate(-185.095878, -72.600000) "></path>
                                <path d="M104.67491,86.25 C95.8143369,95.85 87.8548387,100.65 77.6426523,100.65 C60.9727599,100.65 48.8082437,88.95 48.8082437,72.9 C48.8082437,56.85 60.9727599,45 77.6426523,45 C87.7046595,45 96.7154122,50.25 105.125448,59.85 C113.685663,50.4 122.546237,45 132.157706,45 C148.827599,45 160.992115,56.85 160.992115,72.9 C160.992115,88.95 148.827599,100.65 132.157706,100.65 C121.94552,100.65 113.235125,95.85 104.67491,86.25 Z M77.9430108,62.1 C70.8845878,62.1 66.6795699,66.9 66.6795699,73.05 C66.6795699,79.2 70.8845878,83.85 77.9430108,83.85 C83.8,83.85 89.0562724,79.35 94.0121864,73.35 C88.755914,66.9 83.9501792,62.1 77.9430108,62.1 Z M131.857348,83.85 C126.000358,83.85 121.044444,79.2 115.788172,73.05 C121.194624,66.6 125.850179,62.1 131.857348,62.1 C138.915771,62.1 143.120789,66.9 143.120789,73.05 C143.120789,79.2 138.915771,83.85 131.857348,83.85 Z" id="∞"></path>
                            </g>
                            <rect id="Bottom" fill="#FFFFFF" transform="translate(116.947287, 85.695730) rotate(-320.000000) translate(-116.947287, -85.695730) " x="107.936535" y="73.3847709" width="18.0215054" height="24.6219184"></rect>
                            <rect id="Top" fill="#FFFFFF" transform="translate(91.942412, 61.695730) rotate(-320.000000) translate(-91.942412, -61.695730) " x="82.9316592" y="49.3847709" width="18.0215054" height="24.6219184"></rect>
                        </g>
                        <text id="Superset-Copy" font-family="Roboto-Black, Roboto" font-size="37.5" font-weight="700" letter-spacing="0.500625014" fill="#484848">
                            <tspan x="26.281362" y="192.625">Superset</tspan>
                        </text>
                    </g>
                </g>
                <g id="Group-10" transform="translate(49.500000, 45.500000)">
                    <g id="WORK-SPACE">
                        <path d="M55.8666667,41.25 C64.4268817,50.85 73.137276,55.65 83.3494624,55.65 C100.019355,55.65 112.183871,43.95 112.183871,27.9 C112.183871,11.85 100.019355,0 83.3494624,0 C73.7379928,0 64.8774194,5.4 56.3172043,14.85 C47.9071685,5.25 38.8964158,0 28.8344086,0 C12.1645161,0 -2.84217094e-14,11.85 -2.84217094e-14,27.9 C-2.84217094e-14,43.95 12.1645161,55.65 28.8344086,55.65 C39.046595,55.65 47.0060932,50.85 55.8666667,41.25 Z" id="∞-copy-2" fill="#484848"></path>
                        <path d="M35.3031737,7.82736301 L54.6231734,7.82736301 C54.6231734,7.82736301 54.1382597,11.9130391 54.1201021,16.2068622 C54.1019446,20.5006853 53.079701,24.1223631 53.079701,24.1223631 L35.3031737,24.1223631 L35.3031737,7.82736301 Z" id="Path" fill="#00D1C1" transform="translate(44.963174, 15.974863) rotate(-50.000000) translate(-44.963174, -15.974863) "></path>
                        <rect id="Path-Copy" fill="#00D1C1" transform="translate(67.518574, 40.130521) rotate(-50.000000) translate(-67.518574, -40.130521) " x="57.8585742" y="31.9830205" width="19.3199997" height="16.2950001"></rect>
                        <path d="M29.134767,17.1 C35.1419355,17.1 39.9476703,21.9 45.2039427,28.35 C40.2480287,34.35 34.9917563,38.85 29.134767,38.85 C22.0763441,38.85 17.8713262,34.2 17.8713262,28.05 C17.8713262,21.9 22.0763441,17.1 29.134767,17.1 Z" id="Path" fill="#FFFFFF"></path>
                        <path d="M83.0491039,38.85 C77.1921147,38.85 72.2362007,34.2 66.9799283,28.05 C72.3863799,21.6 77.0419355,17.1 83.0491039,17.1 C90.1075269,17.1 94.3125448,21.9 94.3125448,28.05 C94.3125448,34.2 90.1075269,38.85 83.0491039,38.85 Z" id="Path" fill="#FFFFFF"></path>
                    </g>
                    <use id="∞-copy-2" stroke="#FFFFFF" mask="url(#mask-2)" stroke-width="10" xlink:href="#path-1"></use>
                </g>
            </g>
        </g>
    </g>
</svg>