<?xml version="1.0" encoding="UTF-8"?>
<svg width="350px" height="66px" viewBox="0 0 350 66" version="1.1" xmlns="http://www.w3.org/2000/svg" xmlns:xlink="http://www.w3.org/1999/xlink">
    <!-- Generator: Sketch 42 (36781) - http://www.bohemiancoding.com/sketch -->
    <title>Horizontal</title>
    <desc>Created with Sketch.</desc>
    <defs>
        <path d="M55.8666667,41.25 C64.4268817,50.85 73.137276,55.65 83.3494624,55.65 C100.019355,55.65 112.183871,43.95 112.183871,27.9 C112.183871,11.85 100.019355,0 83.3494624,0 C73.7379928,0 64.8774194,5.4 56.3172043,14.85 C47.9071685,5.25 38.8964158,0 28.8344086,0 C12.1645161,0 -2.84217094e-14,11.85 -2.84217094e-14,27.9 C-2.84217094e-14,43.95 12.1645161,55.65 28.8344086,55.65 C39.046595,55.65 47.0060932,50.85 55.8666667,41.25 Z" id="path-1"></path>
        <mask id="mask-2" maskContentUnits="userSpaceOnUse" maskUnits="objectBoundingBox" x="-5" y="-5" width="122.183871" height="65.65">
            <rect x="-5" y="-5" width="122.183871" height="65.65" fill="white"></rect>
            <use xlink:href="#path-1" fill="black"></use>
        </mask>
    </defs>
    <g id="Main" stroke="none" stroke-width="1" fill="none" fill-rule="evenodd">
        <g id="Superset" transform="translate(-319.000000, -195.000000)">
            <g id="Horizontal" transform="translate(324.000000, 200.000000)">
                <g id="Group-3">
                    <text id="Superset" font-family="Roboto-Black, Roboto" font-size="50" font-weight="700" letter-spacing="0.670000017" fill="#484848">
                        <tspan x="137" y="46">Superse</tspan>
                        <tspan x="328.335508" y="46">t</tspan>
                    </text>
                    <g id="Group-10-Copy-8">
                        <g id="WORK-SPACE">
                            <path d="M55.8666667,41.25 C64.4268817,50.85 73.137276,55.65 83.3494624,55.65 C100.019355,55.65 112.183871,43.95 112.183871,27.9 C112.183871,11.85 100.019355,0 83.3494624,0 C73.7379928,0 64.8774194,5.4 56.3172043,14.85 C47.9071685,5.25 38.8964158,0 28.8344086,0 C12.1645161,0 -2.84217094e-14,11.85 -2.84217094e-14,27.9 C-2.84217094e-14,43.95 12.1645161,55.65 28.8344086,55.65 C39.046595,55.65 47.0060932,50.85 55.8666667,41.25 Z" id="∞-copy-2" fill="#484848"></path>
                            <path d="M35.3031737,7.82736301 L54.6231734,7.82736301 C54.6231734,7.82736301 54.1382597,11.9130391 54.1201021,16.2068622 C54.1019446,20.5006853 53.079701,24.1223631 53.079701,24.1223631 L35.3031737,24.1223631 L35.3031737,7.82736301 Z" id="Path" fill="#00D1C1" transform="translate(44.963174, 15.974863) rotate(-50.000000) translate(-44.963174, -15.974863) "></path>
                            <rect id="Path-Copy" fill="#00D1C1" transform="translate(67.518574, 40.130521) rotate(-50.000000) translate(-67.518574, -40.130521) " x="57.8585742" y="31.9830205" width="19.3199997" height="16.2950001"></rect>
                            <path d="M29.134767,17.1 C35.1419355,17.1 39.9476703,21.9 45.2039427,28.35 C40.2480287,34.35 34.9917563,38.85 29.134767,38.85 C22.0763441,38.85 17.8713262,34.2 17.8713262,28.05 C17.8713262,21.9 22.0763441,17.1 29.134767,17.1 Z" id="Path" fill="#FFFFFF"></path>
                            <path d="M83.0491039,38.85 C77.1921147,38.85 72.2362007,34.2 66.9799283,28.05 C72.3863799,21.6 77.0419355,17.1 83.0491039,17.1 C90.1075269,17.1 94.3125448,21.9 94.3125448,28.05 C94.3125448,34.2 90.1075269,38.85 83.0491039,38.85 Z" id="Path" fill="#FFFFFF"></path>
                        </g>
                        <use id="∞-copy-2" stroke="#FFFFFF" mask="url(#mask-2)" stroke-width="10" xlink:href="#path-1"></use>
                    </g>
                </g>
            </g>
        </g>
    </g>
</svg>