<svg width="187" height="119" viewBox="0 0 187 119" fill="none" xmlns="http://www.w3.org/2000/svg">
<rect width="187" height="119" fill="black" fill-opacity="0"/>
<rect width="187" height="119" fill="black" fill-opacity="0"/>
<rect width="70" height="35" fill="black" fill-opacity="0" transform="translate(59)"/>
<rect width="70" height="35" fill="black" fill-opacity="0" transform="translate(59)"/>
<rect width="70" height="35" fill="black" fill-opacity="0" transform="translate(59)"/>
<rect width="70" height="35" fill="black" fill-opacity="0" transform="translate(59)"/>
<path fill-rule="evenodd" clip-rule="evenodd" d="M93.8595 25.9433C99.2007 31.9811 104.636 35 111.008 35C121.409 35 129 27.6414 129 17.5472C129 7.45278 121.409 0 111.008 0C105.011 0 99.4821 3.39627 94.1405 9.33961C88.8928 3.30187 83.2703 0 76.9921 0C66.5903 0 59 7.45278 59 17.5472C59 27.6414 66.5903 35 76.9921 35C83.3642 35 88.3308 31.9811 93.8595 25.9433ZM77.1793 10.7547C80.9276 10.7547 83.9265 13.7736 87.2061 17.8301C84.1137 21.6037 80.8341 24.4339 77.1793 24.4339C72.7749 24.4339 70.1513 21.5093 70.1513 17.6414C70.1513 13.7736 72.7749 10.7547 77.1793 10.7547ZM100.794 17.6414C104.074 21.5093 107.166 24.4339 110.821 24.4339C115.225 24.4339 117.849 21.5093 117.849 17.6414C117.849 13.7736 115.225 10.7547 110.821 10.7547C107.072 10.7547 104.167 13.5848 100.794 17.6414Z" fill="url(#paint0_linear)"/>
<path d="M23.625 81.6094C23.625 79.7188 22.9609 78.2266 21.6328 77.1328C20.3047 76.0234 17.875 74.9766 14.3438 73.9922C10.8125 72.9922 8.23438 71.9062 6.60938 70.7344C4.29688 69.0781 3.14062 66.9062 3.14062 64.2188C3.14062 61.6094 4.21094 59.4922 6.35156 57.8672C8.50781 56.2266 11.2578 55.4062 14.6016 55.4062C16.8672 55.4062 18.8906 55.8438 20.6719 56.7188C22.4688 57.5938 23.8594 58.8125 24.8438 60.375C25.8281 61.9375 26.3203 63.6797 26.3203 65.6016H23.4141C23.4141 63.2734 22.6172 61.4062 21.0234 60C19.4297 58.5781 17.2891 57.8672 14.6016 57.8672C11.9922 57.8672 9.91406 58.4531 8.36719 59.625C6.82031 60.7812 6.04688 62.2969 6.04688 64.1719C6.04688 65.9062 6.74219 67.3203 8.13281 68.4141C9.52344 69.5078 11.75 70.4766 14.8125 71.3203C17.875 72.1484 20.1953 73.0156 21.7734 73.9219C23.3516 74.8125 24.5391 75.8828 25.3359 77.1328C26.1328 78.3828 26.5312 79.8594 26.5312 81.5625C26.5312 84.25 25.4531 86.4062 23.2969 88.0312C21.1562 89.6562 18.3281 90.4688 14.8125 90.4688C12.4062 90.4688 10.1953 90.0391 8.17969 89.1797C6.17969 88.3203 4.65625 87.1172 3.60938 85.5703C2.57812 84.0234 2.0625 82.25 2.0625 80.25H4.94531C4.94531 82.6562 5.84375 84.5547 7.64062 85.9453C9.4375 87.3359 11.8281 88.0312 14.8125 88.0312C17.4688 88.0312 19.6016 87.4453 21.2109 86.2734C22.8203 85.1016 23.625 83.5469 23.625 81.6094ZM48.4219 86.7891C46.7344 89.2422 44.0391 90.4688 40.3359 90.4688C37.6328 90.4688 35.5781 89.6875 34.1719 88.125C32.7656 86.5469 32.0469 84.2188 32.0156 81.1406V64.6406H34.8047V80.7891C34.8047 85.6172 36.7578 88.0312 40.6641 88.0312C44.7266 88.0312 47.2969 86.3516 48.375 82.9922V64.6406H51.1875V90H48.4688L48.4219 86.7891ZM78.8906 77.5781C78.8906 81.5312 78.0156 84.6719 76.2656 87C74.5156 89.3125 72.1719 90.4688 69.2344 90.4688C65.7656 90.4688 63.1094 89.25 61.2656 86.8125V99.75H58.4766V64.6406H61.0781L61.2188 68.2266C63.0469 65.5234 65.6953 64.1719 69.1641 64.1719C72.1953 64.1719 74.5703 65.3203 76.2891 67.6172C78.0234 69.9141 78.8906 73.1016 78.8906 77.1797V77.5781ZM76.0781 77.0859C76.0781 73.8516 75.4141 71.2969 74.0859 69.4219C72.7578 67.5469 70.9062 66.6094 68.5312 66.6094C66.8125 66.6094 65.3359 67.0234 64.1016 67.8516C62.8672 68.6797 61.9219 69.8828 61.2656 71.4609V83.625C61.9375 85.0781 62.8984 86.1875 64.1484 86.9531C65.3984 87.7188 66.875 88.1016 68.5781 88.1016C70.9375 88.1016 72.7734 87.1641 74.0859 85.2891C75.4141 83.3984 76.0781 80.6641 76.0781 77.0859ZM94.9453 90.4688C92.7891 90.4688 90.8359 89.9375 89.0859 88.875C87.3516 87.8125 86 86.3359 85.0312 84.4453C84.0625 82.5391 83.5781 80.4062 83.5781 78.0469V77.0391C83.5781 74.6016 84.0469 72.4062 84.9844 70.4531C85.9375 68.5 87.2578 66.9688 88.9453 65.8594C90.6328 64.7344 92.4609 64.1719 94.4297 64.1719C97.5078 64.1719 99.9453 65.2266 101.742 67.3359C103.555 69.4297 104.461 72.2969 104.461 75.9375V77.5078H86.3672V78.0469C86.3672 80.9219 87.1875 83.3203 88.8281 85.2422C90.4844 87.1484 92.5625 88.1016 95.0625 88.1016C96.5625 88.1016 97.8828 87.8281 99.0234 87.2812C100.18 86.7344 101.227 85.8594 102.164 84.6562L103.922 85.9922C101.859 88.9766 98.8672 90.4688 94.9453 90.4688ZM94.4297 66.5625C92.3203 66.5625 90.5391 67.3359 89.0859 68.8828C87.6484 70.4297 86.7734 72.5078 86.4609 75.1172H101.672V74.8125C101.594 72.375 100.898 70.3906 99.5859 68.8594C98.2734 67.3281 96.5547 66.5625 94.4297 66.5625ZM121.641 67.0312C121.047 66.9219 120.414 66.8672 119.742 66.8672C117.992 66.8672 116.508 67.3594 115.289 68.3438C114.086 69.3125 113.227 70.7266 112.711 72.5859V90H109.922V64.6406H112.664L112.711 68.6719C114.195 65.6719 116.578 64.1719 119.859 64.1719C120.641 64.1719 121.258 64.2734 121.711 64.4766L121.641 67.0312ZM141.281 83.5547C141.281 82.1641 140.719 81.0469 139.594 80.2031C138.484 79.3594 136.805 78.7031 134.555 78.2344C132.305 77.75 130.555 77.2031 129.305 76.5938C128.07 75.9688 127.148 75.2109 126.539 74.3203C125.945 73.4297 125.648 72.3516 125.648 71.0859C125.648 69.0859 126.484 67.4375 128.156 66.1406C129.828 64.8281 131.969 64.1719 134.578 64.1719C137.406 64.1719 139.672 64.875 141.375 66.2812C143.094 67.6719 143.953 69.4922 143.953 71.7422H141.141C141.141 70.2578 140.516 69.0234 139.266 68.0391C138.031 67.0547 136.469 66.5625 134.578 66.5625C132.734 66.5625 131.25 66.9766 130.125 67.8047C129.016 68.6172 128.461 69.6797 128.461 70.9922C128.461 72.2578 128.922 73.2422 129.844 73.9453C130.781 74.6328 132.477 75.2656 134.93 75.8438C137.398 76.4219 139.242 77.0391 140.461 77.6953C141.695 78.3516 142.609 79.1406 143.203 80.0625C143.797 80.9844 144.094 82.1016 144.094 83.4141C144.094 85.5547 143.227 87.2656 141.492 88.5469C139.773 89.8281 137.523 90.4688 134.742 90.4688C131.789 90.4688 129.391 89.7578 127.547 88.3359C125.719 86.8984 124.805 85.0859 124.805 82.8984H127.617C127.727 84.5391 128.414 85.8203 129.68 86.7422C130.961 87.6484 132.648 88.1016 134.742 88.1016C136.695 88.1016 138.273 87.6719 139.477 86.8125C140.68 85.9531 141.281 84.8672 141.281 83.5547ZM160.242 90.4688C158.086 90.4688 156.133 89.9375 154.383 88.875C152.648 87.8125 151.297 86.3359 150.328 84.4453C149.359 82.5391 148.875 80.4062 148.875 78.0469V77.0391C148.875 74.6016 149.344 72.4062 150.281 70.4531C151.234 68.5 152.555 66.9688 154.242 65.8594C155.93 64.7344 157.758 64.1719 159.727 64.1719C162.805 64.1719 165.242 65.2266 167.039 67.3359C168.852 69.4297 169.758 72.2969 169.758 75.9375V77.5078H151.664V78.0469C151.664 80.9219 152.484 83.3203 154.125 85.2422C155.781 87.1484 157.859 88.1016 160.359 88.1016C161.859 88.1016 163.18 87.8281 164.32 87.2812C165.477 86.7344 166.523 85.8594 167.461 84.6562L169.219 85.9922C167.156 88.9766 164.164 90.4688 160.242 90.4688ZM159.727 66.5625C157.617 66.5625 155.836 67.3359 154.383 68.8828C152.945 70.4297 152.07 72.5078 151.758 75.1172H166.969V74.8125C166.891 72.375 166.195 70.3906 164.883 68.8594C163.57 67.3281 161.852 66.5625 159.727 66.5625ZM179.578 58.1484V64.6406H184.828V66.9375H179.578V83.8359C179.578 85.2422 179.828 86.2891 180.328 86.9766C180.844 87.6641 181.695 88.0078 182.883 88.0078C183.352 88.0078 184.109 87.9297 185.156 87.7734L185.273 90.0703C184.539 90.3359 183.539 90.4688 182.273 90.4688C180.352 90.4688 178.953 89.9141 178.078 88.8047C177.203 87.6797 176.766 86.0312 176.766 83.8594V66.9375H172.102V64.6406H176.766V58.1484H179.578Z" fill="#6D6E71"/>
<path d="M75.5752 114.672H73.2266L72.8164 116H70.9854L73.5928 108.891H75.2041L77.8311 116H75.9902L75.5752 114.672ZM73.6367 113.349H75.165L74.3984 110.883L73.6367 113.349ZM81.0674 113.588V116H79.3535V108.891H82.1904C82.734 108.891 83.2142 108.992 83.6309 109.193C84.0508 109.392 84.3747 109.677 84.6025 110.048C84.8337 110.416 84.9492 110.834 84.9492 111.303C84.9492 111.996 84.7002 112.551 84.2021 112.968C83.7074 113.381 83.027 113.588 82.1611 113.588H81.0674ZM81.0674 112.265H82.1904C82.5225 112.265 82.7747 112.182 82.9473 112.016C83.123 111.85 83.2109 111.615 83.2109 111.312C83.2109 110.98 83.1214 110.715 82.9424 110.517C82.7633 110.318 82.5192 110.217 82.21 110.214H81.0674V112.265ZM90.0361 114.672H87.6875L87.2773 116H85.4463L88.0537 108.891H89.665L92.292 116H90.4512L90.0361 114.672ZM88.0977 113.349H89.626L88.8594 110.883L88.0977 113.349ZM99.459 113.593C99.4362 114.088 99.3027 114.525 99.0586 114.906C98.8145 115.284 98.471 115.577 98.0283 115.785C97.5889 115.993 97.0859 116.098 96.5195 116.098C95.5853 116.098 94.8496 115.793 94.3125 115.185C93.7754 114.576 93.5068 113.716 93.5068 112.606V112.255C93.5068 111.558 93.6273 110.95 93.8682 110.429C94.1123 109.905 94.4622 109.501 94.918 109.218C95.3737 108.931 95.901 108.788 96.5 108.788C97.3626 108.788 98.056 109.016 98.5801 109.472C99.1042 109.924 99.402 110.549 99.4736 111.347H97.7646C97.7516 110.914 97.6426 110.603 97.4375 110.414C97.2324 110.225 96.9199 110.131 96.5 110.131C96.0736 110.131 95.7611 110.29 95.5625 110.609C95.3639 110.928 95.2598 111.438 95.25 112.138V112.641C95.25 113.399 95.3444 113.941 95.5332 114.267C95.7253 114.592 96.054 114.755 96.5195 114.755C96.9134 114.755 97.2145 114.662 97.4229 114.477C97.6312 114.291 97.7419 113.996 97.7549 113.593H99.459ZM107.212 116H105.508V113.031H102.983V116H101.27V108.891H102.983V111.713H105.508V108.891H107.212V116ZM113.71 112.987H111.015V114.682H114.198V116H109.301V108.891H114.208V110.214H111.015V111.713H113.71V112.987Z" fill="#A3A3A3"/>
<defs>
<linearGradient id="paint0_linear" x1="59" y1="35" x2="129" y2="5.2154e-07" gradientUnits="userSpaceOnUse">
<stop stop-color="#872675"/>
<stop offset="0.256722" stop-color="#AF2052"/>
<stop offset="0.515346" stop-color="#CB2137"/>
<stop offset="0.759838" stop-color="#E1612A"/>
<stop offset="1" stop-color="#E97826"/>
</linearGradient>
</defs>
</svg>
