<svg width="269" height="69" viewBox="0 0 269 69" fill="none" xmlns="http://www.w3.org/2000/svg">
<rect width="269" height="69" fill="black" fill-opacity="0"/>
<rect width="269" height="69" fill="black" fill-opacity="0"/>
<rect width="70" height="35" fill="black" fill-opacity="0" transform="translate(0 23)"/>
<rect width="70" height="35" fill="black" fill-opacity="0" transform="translate(0 23)"/>
<rect width="70" height="35" fill="black" fill-opacity="0" transform="translate(0 23)"/>
<rect width="70" height="35" fill="black" fill-opacity="0" transform="translate(0 23)"/>
<path fill-rule="evenodd" clip-rule="evenodd" d="M34.8595 48.9433C40.2007 54.9811 45.6358 58 52.0079 58C62.4094 58 70 50.6414 70 40.5472C70 30.4528 62.4094 23 52.0079 23C46.0107 23 40.4821 26.3963 35.1405 32.3396C29.8928 26.3019 24.2703 23 17.9921 23C7.59033 23 0 30.4528 0 40.5472C0 50.6414 7.59033 58 17.9921 58C24.3642 58 29.3308 54.9811 34.8595 48.9433ZM18.1793 33.7547C21.9276 33.7547 24.9265 36.7736 28.2061 40.8301C25.1137 44.6037 21.8341 47.4339 18.1793 47.4339C13.7749 47.4339 11.1513 44.5093 11.1513 40.6414C11.1513 36.7736 13.7749 33.7547 18.1793 33.7547ZM41.7939 40.6414C45.0738 44.5093 48.1659 47.4339 51.8207 47.4339C56.225 47.4339 58.8489 44.5093 58.8489 40.6414C58.8489 36.7736 56.225 33.7547 51.8207 33.7547C48.0724 33.7547 45.1674 36.5848 41.7939 40.6414Z" fill="url(#paint0_linear)"/>
<path d="M105.625 48.6094C105.625 46.7188 104.961 45.2266 103.633 44.1328C102.305 43.0234 99.875 41.9766 96.3438 40.9922C92.8125 39.9922 90.2344 38.9062 88.6094 37.7344C86.2969 36.0781 85.1406 33.9062 85.1406 31.2188C85.1406 28.6094 86.2109 26.4922 88.3516 24.8672C90.5078 23.2266 93.2578 22.4062 96.6016 22.4062C98.8672 22.4062 100.891 22.8438 102.672 23.7188C104.469 24.5938 105.859 25.8125 106.844 27.375C107.828 28.9375 108.32 30.6797 108.32 32.6016H105.414C105.414 30.2734 104.617 28.4062 103.023 27C101.43 25.5781 99.2891 24.8672 96.6016 24.8672C93.9922 24.8672 91.9141 25.4531 90.3672 26.625C88.8203 27.7812 88.0469 29.2969 88.0469 31.1719C88.0469 32.9062 88.7422 34.3203 90.1328 35.4141C91.5234 36.5078 93.75 37.4766 96.8125 38.3203C99.875 39.1484 102.195 40.0156 103.773 40.9219C105.352 41.8125 106.539 42.8828 107.336 44.1328C108.133 45.3828 108.531 46.8594 108.531 48.5625C108.531 51.25 107.453 53.4062 105.297 55.0312C103.156 56.6562 100.328 57.4688 96.8125 57.4688C94.4062 57.4688 92.1953 57.0391 90.1797 56.1797C88.1797 55.3203 86.6562 54.1172 85.6094 52.5703C84.5781 51.0234 84.0625 49.25 84.0625 47.25H86.9453C86.9453 49.6562 87.8438 51.5547 89.6406 52.9453C91.4375 54.3359 93.8281 55.0312 96.8125 55.0312C99.4688 55.0312 101.602 54.4453 103.211 53.2734C104.82 52.1016 105.625 50.5469 105.625 48.6094ZM130.422 53.7891C128.734 56.2422 126.039 57.4688 122.336 57.4688C119.633 57.4688 117.578 56.6875 116.172 55.125C114.766 53.5469 114.047 51.2188 114.016 48.1406V31.6406H116.805V47.7891C116.805 52.6172 118.758 55.0312 122.664 55.0312C126.727 55.0312 129.297 53.3516 130.375 49.9922V31.6406H133.188V57H130.469L130.422 53.7891ZM160.891 44.5781C160.891 48.5312 160.016 51.6719 158.266 54C156.516 56.3125 154.172 57.4688 151.234 57.4688C147.766 57.4688 145.109 56.25 143.266 53.8125V66.75H140.477V31.6406H143.078L143.219 35.2266C145.047 32.5234 147.695 31.1719 151.164 31.1719C154.195 31.1719 156.57 32.3203 158.289 34.6172C160.023 36.9141 160.891 40.1016 160.891 44.1797V44.5781ZM158.078 44.0859C158.078 40.8516 157.414 38.2969 156.086 36.4219C154.758 34.5469 152.906 33.6094 150.531 33.6094C148.812 33.6094 147.336 34.0234 146.102 34.8516C144.867 35.6797 143.922 36.8828 143.266 38.4609V50.625C143.938 52.0781 144.898 53.1875 146.148 53.9531C147.398 54.7188 148.875 55.1016 150.578 55.1016C152.938 55.1016 154.773 54.1641 156.086 52.2891C157.414 50.3984 158.078 47.6641 158.078 44.0859ZM176.945 57.4688C174.789 57.4688 172.836 56.9375 171.086 55.875C169.352 54.8125 168 53.3359 167.031 51.4453C166.062 49.5391 165.578 47.4062 165.578 45.0469V44.0391C165.578 41.6016 166.047 39.4062 166.984 37.4531C167.938 35.5 169.258 33.9688 170.945 32.8594C172.633 31.7344 174.461 31.1719 176.43 31.1719C179.508 31.1719 181.945 32.2266 183.742 34.3359C185.555 36.4297 186.461 39.2969 186.461 42.9375V44.5078H168.367V45.0469C168.367 47.9219 169.188 50.3203 170.828 52.2422C172.484 54.1484 174.562 55.1016 177.062 55.1016C178.562 55.1016 179.883 54.8281 181.023 54.2812C182.18 53.7344 183.227 52.8594 184.164 51.6562L185.922 52.9922C183.859 55.9766 180.867 57.4688 176.945 57.4688ZM176.43 33.5625C174.32 33.5625 172.539 34.3359 171.086 35.8828C169.648 37.4297 168.773 39.5078 168.461 42.1172H183.672V41.8125C183.594 39.375 182.898 37.3906 181.586 35.8594C180.273 34.3281 178.555 33.5625 176.43 33.5625ZM203.641 34.0312C203.047 33.9219 202.414 33.8672 201.742 33.8672C199.992 33.8672 198.508 34.3594 197.289 35.3438C196.086 36.3125 195.227 37.7266 194.711 39.5859V57H191.922V31.6406H194.664L194.711 35.6719C196.195 32.6719 198.578 31.1719 201.859 31.1719C202.641 31.1719 203.258 31.2734 203.711 31.4766L203.641 34.0312ZM223.281 50.5547C223.281 49.1641 222.719 48.0469 221.594 47.2031C220.484 46.3594 218.805 45.7031 216.555 45.2344C214.305 44.75 212.555 44.2031 211.305 43.5938C210.07 42.9688 209.148 42.2109 208.539 41.3203C207.945 40.4297 207.648 39.3516 207.648 38.0859C207.648 36.0859 208.484 34.4375 210.156 33.1406C211.828 31.8281 213.969 31.1719 216.578 31.1719C219.406 31.1719 221.672 31.875 223.375 33.2812C225.094 34.6719 225.953 36.4922 225.953 38.7422H223.141C223.141 37.2578 222.516 36.0234 221.266 35.0391C220.031 34.0547 218.469 33.5625 216.578 33.5625C214.734 33.5625 213.25 33.9766 212.125 34.8047C211.016 35.6172 210.461 36.6797 210.461 37.9922C210.461 39.2578 210.922 40.2422 211.844 40.9453C212.781 41.6328 214.477 42.2656 216.93 42.8438C219.398 43.4219 221.242 44.0391 222.461 44.6953C223.695 45.3516 224.609 46.1406 225.203 47.0625C225.797 47.9844 226.094 49.1016 226.094 50.4141C226.094 52.5547 225.227 54.2656 223.492 55.5469C221.773 56.8281 219.523 57.4688 216.742 57.4688C213.789 57.4688 211.391 56.7578 209.547 55.3359C207.719 53.8984 206.805 52.0859 206.805 49.8984H209.617C209.727 51.5391 210.414 52.8203 211.68 53.7422C212.961 54.6484 214.648 55.1016 216.742 55.1016C218.695 55.1016 220.273 54.6719 221.477 53.8125C222.68 52.9531 223.281 51.8672 223.281 50.5547ZM242.242 57.4688C240.086 57.4688 238.133 56.9375 236.383 55.875C234.648 54.8125 233.297 53.3359 232.328 51.4453C231.359 49.5391 230.875 47.4062 230.875 45.0469V44.0391C230.875 41.6016 231.344 39.4062 232.281 37.4531C233.234 35.5 234.555 33.9688 236.242 32.8594C237.93 31.7344 239.758 31.1719 241.727 31.1719C244.805 31.1719 247.242 32.2266 249.039 34.3359C250.852 36.4297 251.758 39.2969 251.758 42.9375V44.5078H233.664V45.0469C233.664 47.9219 234.484 50.3203 236.125 52.2422C237.781 54.1484 239.859 55.1016 242.359 55.1016C243.859 55.1016 245.18 54.8281 246.32 54.2812C247.477 53.7344 248.523 52.8594 249.461 51.6562L251.219 52.9922C249.156 55.9766 246.164 57.4688 242.242 57.4688ZM241.727 33.5625C239.617 33.5625 237.836 34.3359 236.383 35.8828C234.945 37.4297 234.07 39.5078 233.758 42.1172H248.969V41.8125C248.891 39.375 248.195 37.3906 246.883 35.8594C245.57 34.3281 243.852 33.5625 241.727 33.5625ZM261.578 25.1484V31.6406H266.828V33.9375H261.578V50.8359C261.578 52.2422 261.828 53.2891 262.328 53.9766C262.844 54.6641 263.695 55.0078 264.883 55.0078C265.352 55.0078 266.109 54.9297 267.156 54.7734L267.273 57.0703C266.539 57.3359 265.539 57.4688 264.273 57.4688C262.352 57.4688 260.953 56.9141 260.078 55.8047C259.203 54.6797 258.766 53.0312 258.766 50.8594V33.9375H254.102V31.6406H258.766V25.1484H261.578Z" fill="#6D6E71"/>
<path d="M86.5752 7.67188H84.2266L83.8164 9H81.9854L84.5928 1.89062H86.2041L88.8311 9H86.9902L86.5752 7.67188ZM84.6367 6.34863H86.165L85.3984 3.88281L84.6367 6.34863ZM92.0674 6.58789V9H90.3535V1.89062H93.1904C93.734 1.89062 94.2142 1.99154 94.6309 2.19336C95.0508 2.39193 95.3747 2.67676 95.6025 3.04785C95.8337 3.41569 95.9492 3.83398 95.9492 4.30273C95.9492 4.99609 95.7002 5.55111 95.2021 5.96777C94.7074 6.38118 94.027 6.58789 93.1611 6.58789H92.0674ZM92.0674 5.26465H93.1904C93.5225 5.26465 93.7747 5.18164 93.9473 5.01562C94.123 4.84961 94.2109 4.61523 94.2109 4.3125C94.2109 3.98047 94.1214 3.71517 93.9424 3.5166C93.7633 3.31803 93.5192 3.21712 93.21 3.21387H92.0674V5.26465ZM101.036 7.67188H98.6875L98.2773 9H96.4463L99.0537 1.89062H100.665L103.292 9H101.451L101.036 7.67188ZM99.0977 6.34863H100.626L99.8594 3.88281L99.0977 6.34863ZM110.459 6.59277C110.436 7.08757 110.303 7.52539 110.059 7.90625C109.814 8.28385 109.471 8.57682 109.028 8.78516C108.589 8.99349 108.086 9.09766 107.52 9.09766C106.585 9.09766 105.85 8.79329 105.312 8.18457C104.775 7.57585 104.507 6.71647 104.507 5.60645V5.25488C104.507 4.55827 104.627 3.94954 104.868 3.42871C105.112 2.90462 105.462 2.50098 105.918 2.21777C106.374 1.93132 106.901 1.78809 107.5 1.78809C108.363 1.78809 109.056 2.01595 109.58 2.47168C110.104 2.92415 110.402 3.54915 110.474 4.34668H108.765C108.752 3.91374 108.643 3.60286 108.438 3.41406C108.232 3.22526 107.92 3.13086 107.5 3.13086C107.074 3.13086 106.761 3.29036 106.562 3.60938C106.364 3.92839 106.26 4.43783 106.25 5.1377V5.64062C106.25 6.39909 106.344 6.94108 106.533 7.2666C106.725 7.59212 107.054 7.75488 107.52 7.75488C107.913 7.75488 108.215 7.66211 108.423 7.47656C108.631 7.29102 108.742 6.99642 108.755 6.59277H110.459ZM118.212 9H116.508V6.03125H113.983V9H112.27V1.89062H113.983V4.71289H116.508V1.89062H118.212V9ZM124.71 5.9873H122.015V7.68164H125.198V9H120.301V1.89062H125.208V3.21387H122.015V4.71289H124.71V5.9873Z" fill="#A3A3A3"/>
<defs>
<linearGradient id="paint0_linear" x1="0" y1="58" x2="70" y2="23" gradientUnits="userSpaceOnUse">
<stop stop-color="#872675"/>
<stop offset="0.256722" stop-color="#AF2052"/>
<stop offset="0.515346" stop-color="#CB2137"/>
<stop offset="0.759838" stop-color="#E1612A"/>
<stop offset="1" stop-color="#E97826"/>
</linearGradient>
</defs>
</svg>
