<svg width="188" height="69" viewBox="0 0 188 69" fill="none" xmlns="http://www.w3.org/2000/svg">
<rect width="187" height="69" fill="black" fill-opacity="0" transform="translate(1)"/>
<path d="M24.625 48.6094C24.625 46.7188 23.9609 45.2266 22.6328 44.1328C21.3047 43.0234 18.875 41.9766 15.3438 40.9922C11.8125 39.9922 9.23438 38.9062 7.60938 37.7344C5.29688 36.0781 4.14062 33.9062 4.14062 31.2188C4.14062 28.6094 5.21094 26.4922 7.35156 24.8672C9.50781 23.2266 12.2578 22.4062 15.6016 22.4062C17.8672 22.4062 19.8906 22.8438 21.6719 23.7188C23.4688 24.5938 24.8594 25.8125 25.8438 27.375C26.8281 28.9375 27.3203 30.6797 27.3203 32.6016H24.4141C24.4141 30.2734 23.6172 28.4062 22.0234 27C20.4297 25.5781 18.2891 24.8672 15.6016 24.8672C12.9922 24.8672 10.9141 25.4531 9.36719 26.625C7.82031 27.7812 7.04688 29.2969 7.04688 31.1719C7.04688 32.9062 7.74219 34.3203 9.13281 35.4141C10.5234 36.5078 12.75 37.4766 15.8125 38.3203C18.875 39.1484 21.1953 40.0156 22.7734 40.9219C24.3516 41.8125 25.5391 42.8828 26.3359 44.1328C27.1328 45.3828 27.5312 46.8594 27.5312 48.5625C27.5312 51.25 26.4531 53.4062 24.2969 55.0312C22.1562 56.6562 19.3281 57.4688 15.8125 57.4688C13.4062 57.4688 11.1953 57.0391 9.17969 56.1797C7.17969 55.3203 5.65625 54.1172 4.60938 52.5703C3.57812 51.0234 3.0625 49.25 3.0625 47.25H5.94531C5.94531 49.6562 6.84375 51.5547 8.64062 52.9453C10.4375 54.3359 12.8281 55.0312 15.8125 55.0312C18.4688 55.0312 20.6016 54.4453 22.2109 53.2734C23.8203 52.1016 24.625 50.5469 24.625 48.6094ZM49.4219 53.7891C47.7344 56.2422 45.0391 57.4688 41.3359 57.4688C38.6328 57.4688 36.5781 56.6875 35.1719 55.125C33.7656 53.5469 33.0469 51.2188 33.0156 48.1406V31.6406H35.8047V47.7891C35.8047 52.6172 37.7578 55.0312 41.6641 55.0312C45.7266 55.0312 48.2969 53.3516 49.375 49.9922V31.6406H52.1875V57H49.4688L49.4219 53.7891ZM79.8906 44.5781C79.8906 48.5312 79.0156 51.6719 77.2656 54C75.5156 56.3125 73.1719 57.4688 70.2344 57.4688C66.7656 57.4688 64.1094 56.25 62.2656 53.8125V66.75H59.4766V31.6406H62.0781L62.2188 35.2266C64.0469 32.5234 66.6953 31.1719 70.1641 31.1719C73.1953 31.1719 75.5703 32.3203 77.2891 34.6172C79.0234 36.9141 79.8906 40.1016 79.8906 44.1797V44.5781ZM77.0781 44.0859C77.0781 40.8516 76.4141 38.2969 75.0859 36.4219C73.7578 34.5469 71.9062 33.6094 69.5312 33.6094C67.8125 33.6094 66.3359 34.0234 65.1016 34.8516C63.8672 35.6797 62.9219 36.8828 62.2656 38.4609V50.625C62.9375 52.0781 63.8984 53.1875 65.1484 53.9531C66.3984 54.7188 67.875 55.1016 69.5781 55.1016C71.9375 55.1016 73.7734 54.1641 75.0859 52.2891C76.4141 50.3984 77.0781 47.6641 77.0781 44.0859ZM95.9453 57.4688C93.7891 57.4688 91.8359 56.9375 90.0859 55.875C88.3516 54.8125 87 53.3359 86.0312 51.4453C85.0625 49.5391 84.5781 47.4062 84.5781 45.0469V44.0391C84.5781 41.6016 85.0469 39.4062 85.9844 37.4531C86.9375 35.5 88.2578 33.9688 89.9453 32.8594C91.6328 31.7344 93.4609 31.1719 95.4297 31.1719C98.5078 31.1719 100.945 32.2266 102.742 34.3359C104.555 36.4297 105.461 39.2969 105.461 42.9375V44.5078H87.3672V45.0469C87.3672 47.9219 88.1875 50.3203 89.8281 52.2422C91.4844 54.1484 93.5625 55.1016 96.0625 55.1016C97.5625 55.1016 98.8828 54.8281 100.023 54.2812C101.18 53.7344 102.227 52.8594 103.164 51.6562L104.922 52.9922C102.859 55.9766 99.8672 57.4688 95.9453 57.4688ZM95.4297 33.5625C93.3203 33.5625 91.5391 34.3359 90.0859 35.8828C88.6484 37.4297 87.7734 39.5078 87.4609 42.1172H102.672V41.8125C102.594 39.375 101.898 37.3906 100.586 35.8594C99.2734 34.3281 97.5547 33.5625 95.4297 33.5625ZM122.641 34.0312C122.047 33.9219 121.414 33.8672 120.742 33.8672C118.992 33.8672 117.508 34.3594 116.289 35.3438C115.086 36.3125 114.227 37.7266 113.711 39.5859V57H110.922V31.6406H113.664L113.711 35.6719C115.195 32.6719 117.578 31.1719 120.859 31.1719C121.641 31.1719 122.258 31.2734 122.711 31.4766L122.641 34.0312ZM142.281 50.5547C142.281 49.1641 141.719 48.0469 140.594 47.2031C139.484 46.3594 137.805 45.7031 135.555 45.2344C133.305 44.75 131.555 44.2031 130.305 43.5938C129.07 42.9688 128.148 42.2109 127.539 41.3203C126.945 40.4297 126.648 39.3516 126.648 38.0859C126.648 36.0859 127.484 34.4375 129.156 33.1406C130.828 31.8281 132.969 31.1719 135.578 31.1719C138.406 31.1719 140.672 31.875 142.375 33.2812C144.094 34.6719 144.953 36.4922 144.953 38.7422H142.141C142.141 37.2578 141.516 36.0234 140.266 35.0391C139.031 34.0547 137.469 33.5625 135.578 33.5625C133.734 33.5625 132.25 33.9766 131.125 34.8047C130.016 35.6172 129.461 36.6797 129.461 37.9922C129.461 39.2578 129.922 40.2422 130.844 40.9453C131.781 41.6328 133.477 42.2656 135.93 42.8438C138.398 43.4219 140.242 44.0391 141.461 44.6953C142.695 45.3516 143.609 46.1406 144.203 47.0625C144.797 47.9844 145.094 49.1016 145.094 50.4141C145.094 52.5547 144.227 54.2656 142.492 55.5469C140.773 56.8281 138.523 57.4688 135.742 57.4688C132.789 57.4688 130.391 56.7578 128.547 55.3359C126.719 53.8984 125.805 52.0859 125.805 49.8984H128.617C128.727 51.5391 129.414 52.8203 130.68 53.7422C131.961 54.6484 133.648 55.1016 135.742 55.1016C137.695 55.1016 139.273 54.6719 140.477 53.8125C141.68 52.9531 142.281 51.8672 142.281 50.5547ZM161.242 57.4688C159.086 57.4688 157.133 56.9375 155.383 55.875C153.648 54.8125 152.297 53.3359 151.328 51.4453C150.359 49.5391 149.875 47.4062 149.875 45.0469V44.0391C149.875 41.6016 150.344 39.4062 151.281 37.4531C152.234 35.5 153.555 33.9688 155.242 32.8594C156.93 31.7344 158.758 31.1719 160.727 31.1719C163.805 31.1719 166.242 32.2266 168.039 34.3359C169.852 36.4297 170.758 39.2969 170.758 42.9375V44.5078H152.664V45.0469C152.664 47.9219 153.484 50.3203 155.125 52.2422C156.781 54.1484 158.859 55.1016 161.359 55.1016C162.859 55.1016 164.18 54.8281 165.32 54.2812C166.477 53.7344 167.523 52.8594 168.461 51.6562L170.219 52.9922C168.156 55.9766 165.164 57.4688 161.242 57.4688ZM160.727 33.5625C158.617 33.5625 156.836 34.3359 155.383 35.8828C153.945 37.4297 153.07 39.5078 152.758 42.1172H167.969V41.8125C167.891 39.375 167.195 37.3906 165.883 35.8594C164.57 34.3281 162.852 33.5625 160.727 33.5625ZM180.578 25.1484V31.6406H185.828V33.9375H180.578V50.8359C180.578 52.2422 180.828 53.2891 181.328 53.9766C181.844 54.6641 182.695 55.0078 183.883 55.0078C184.352 55.0078 185.109 54.9297 186.156 54.7734L186.273 57.0703C185.539 57.3359 184.539 57.4688 183.273 57.4688C181.352 57.4688 179.953 56.9141 179.078 55.8047C178.203 54.6797 177.766 53.0312 177.766 50.8594V33.9375H173.102V31.6406H177.766V25.1484H180.578Z" fill="url(#paint0_linear)"/>
<path d="M5.5752 7.67188H3.22656L2.81641 9H0.985352L3.59277 1.89062H5.2041L7.83105 9H5.99023L5.5752 7.67188ZM3.63672 6.34863H5.16504L4.39844 3.88281L3.63672 6.34863ZM11.0674 6.58789V9H9.35352V1.89062H12.1904C12.734 1.89062 13.2142 1.99154 13.6309 2.19336C14.0508 2.39193 14.3747 2.67676 14.6025 3.04785C14.8337 3.41569 14.9492 3.83398 14.9492 4.30273C14.9492 4.99609 14.7002 5.55111 14.2021 5.96777C13.7074 6.38118 13.027 6.58789 12.1611 6.58789H11.0674ZM11.0674 5.26465H12.1904C12.5225 5.26465 12.7747 5.18164 12.9473 5.01562C13.123 4.84961 13.2109 4.61523 13.2109 4.3125C13.2109 3.98047 13.1214 3.71517 12.9424 3.5166C12.7633 3.31803 12.5192 3.21712 12.21 3.21387H11.0674V5.26465ZM20.0361 7.67188H17.6875L17.2773 9H15.4463L18.0537 1.89062H19.665L22.292 9H20.4512L20.0361 7.67188ZM18.0977 6.34863H19.626L18.8594 3.88281L18.0977 6.34863ZM29.459 6.59277C29.4362 7.08757 29.3027 7.52539 29.0586 7.90625C28.8145 8.28385 28.471 8.57682 28.0283 8.78516C27.5889 8.99349 27.0859 9.09766 26.5195 9.09766C25.5853 9.09766 24.8496 8.79329 24.3125 8.18457C23.7754 7.57585 23.5068 6.71647 23.5068 5.60645V5.25488C23.5068 4.55827 23.6273 3.94954 23.8682 3.42871C24.1123 2.90462 24.4622 2.50098 24.918 2.21777C25.3737 1.93132 25.901 1.78809 26.5 1.78809C27.3626 1.78809 28.056 2.01595 28.5801 2.47168C29.1042 2.92415 29.402 3.54915 29.4736 4.34668H27.7646C27.7516 3.91374 27.6426 3.60286 27.4375 3.41406C27.2324 3.22526 26.9199 3.13086 26.5 3.13086C26.0736 3.13086 25.7611 3.29036 25.5625 3.60938C25.3639 3.92839 25.2598 4.43783 25.25 5.1377V5.64062C25.25 6.39909 25.3444 6.94108 25.5332 7.2666C25.7253 7.59212 26.054 7.75488 26.5195 7.75488C26.9134 7.75488 27.2145 7.66211 27.4229 7.47656C27.6312 7.29102 27.7419 6.99642 27.7549 6.59277H29.459ZM37.2119 9H35.5078V6.03125H32.9834V9H31.2695V1.89062H32.9834V4.71289H35.5078V1.89062H37.2119V9ZM43.71 5.9873H41.0146V7.68164H44.1982V9H39.3008V1.89062H44.208V3.21387H41.0146V4.71289H43.71V5.9873Z" fill="#6D6E71"/>
<defs>
<linearGradient id="paint0_linear" x1="1" y1="69" x2="140.745" y2="-45.6155" gradientUnits="userSpaceOnUse">
<stop stop-color="#872675"/>
<stop offset="0.256722" stop-color="#AF2052"/>
<stop offset="0.515346" stop-color="#CB2137"/>
<stop offset="0.759838" stop-color="#E1612A"/>
<stop offset="1" stop-color="#E97826"/>
</linearGradient>
</defs>
</svg>
