<?xml version="1.0" encoding="UTF-8"?>
<!--
  Licensed to the Apache Software Foundation (ASF) under one
  or more contributor license agreements.  See the NOTICE file
  distributed with this work for additional information
  regarding copyright ownership.  The ASF licenses this file
  to you under the Apache License, Version 2.0 (the
  "License"); you may not use this file except in compliance
  with the License.  You may obtain a copy of the License at

    http://www.apache.org/licenses/LICENSE-2.0

  Unless required by applicable law or agreed to in writing,
  software distributed under the License is distributed on an
  "AS IS" BASIS, WITHOUT WARRANTIES OR CONDITIONS OF ANY
  KIND, either express or implied.  See the License for the
  specific language governing permissions and limitations
  under the License.
-->
<svg id="Layer_1" data-name="Layer 1" xmlns="http://www.w3.org/2000/svg" width="512" height="270" viewBox="0 0 512 270">
  <g id="Page-1">
    <path id="Path" d="M108.65,67.02c-1.34,1.34-1.42,2.85-.18,4.41,1.83,2.36,4.85,1.02,4.85-2.09s-2.63-4.41-4.68-2.32Z"/>
    <path id="Path-2" data-name="Path" d="M85.98,75.08c-1.74,1.74-1.25,4.72,.94,5.57,2.63,.98,4.99-3.25,2.98-5.43-.94-1.02-2.98-1.11-3.92-.13Z"/>
    <path id="Path-3" data-name="Path" d="M108.51,79.09c-.98,.67-.98,.76-.98,13.67,0,14.43-.09,15.01-2.67,15.01-2.45,0-2.67-.71-2.67-8.28,0-6.81,0-6.9-1.16-8.01-.85-.89-1.38-1.07-2.32-.85-2.36,.58-2.32,.22-2.32,15.14v13.89l2.49-1.29c2.09-1.02,3.12-1.25,5.79-1.25,6.28,0,10.95,3.7,12.47,9.88,.67,2.63,.67,3.12,0,5.7-1.2,4.63-4.59,8.24-8.91,9.39-2.85,.76-6.95,.31-9.57-1.02l-2.27-1.2v6.46c0,6.28-.04,6.5-1.11,7.52-.58,.62-1.38,1.11-1.78,1.11s-1.2-.49-1.78-1.11l-1.11-1.07V86.97l-1.11-.49c-1.2-.53-2.23-.36-3.43,.71-.62,.49-.8,1.38-.8,3.52v2.81h-10.29l-.8,1.87c-.8,1.96-7.7,26.4-9.48,33.53-.76,3.16-.94,5.3-.94,10.24,0,7.26,.85,11.13,3.65,16.92,4.01,8.33,9.66,13.71,19.9,18.83,5.57,2.81,6.81,3.83,8.37,6.99,1.65,3.38,2.36,7.04,2.98,15.5,.45,5.92,.4,7.17-.09,7.61-.36,.31-4.63,1.83-9.53,3.34-4.9,1.56-8.99,2.89-9.08,2.98-.09,.09,9.31,.18,20.93,.13,12.47,0,20.66-.18,19.99-.4-.62-.22-4.99-1.65-9.75-3.12l-8.64-2.76,.27-6.32c.31-7.39,.85-11.04,2.18-14.87,1.51-4.32,3.12-5.83,9.53-9.08,12.02-6.06,18.88-13.27,22-23.29,1.42-4.45,1.69-12.65,.67-19.15-1.42-9.22-9.31-37.36-10.78-38.38-.49-.4-2.67-.58-6.9-.58h-6.14v-6.68c0-6.1-.09-6.77-.89-7.57-1.07-1.07-2.54-1.16-3.92-.18Z"/>
    <path id="Path-4" data-name="Path" d="M97.16,79.62c-1.02,1.11-.98,3.78,.04,4.68,.85,.8,2.63,.98,3.47,.4,.89-.58,1.6-2.4,1.34-3.43-.58-2.36-3.38-3.29-4.85-1.65Z"/>
    <path id="Path-5" data-name="Path" d="M101.3,123.88c-2.45,1.69-3.34,3.25-3.34,5.92,0,3.78,2.49,6.46,6.32,6.77,4.05,.31,7.26-2.76,7.26-6.99,0-5.17-6.1-8.5-10.24-5.7Z"/>
    <path id="Path-6" data-name="Path" d="M245.9,93.12c-2.99,1.57-4.49,4.01-4.76,7.53-.22,3.52,1.05,5.91,4.27,8.02,2.66,1.79,7.37,1.73,10.08-.05,5.26-3.47,5.15-11.27-.17-15.12-2.16-1.57-6.81-1.79-9.42-.38Z"/>
    <polygon id="Path-7" data-name="Path" points="421.11 115.18 421.11 126.15 418.38 126.15 415.65 126.15 415.65 132.74 415.65 139.32 418.38 139.32 421.11 139.32 421.21 162.76 421.38 186.25 428.36 186.41 435.28 186.57 435.28 162.92 435.28 139.32 438.83 139.32 442.37 139.32 442.37 132.74 442.37 126.15 438.83 126.15 435.28 126.15 435.28 115.18 435.28 104.2 428.19 104.2 421.11 104.2 421.11 115.18"/>
    <path id="Path-8" data-name="Path" d="M298.58,125.87c-2.74,.98-6.37,3.05-8.27,4.74l-1.28,1.09v-5.06h-14.52v59.89h14.41l.22-19.22c.28-21.45,.56-23.3,4.08-26.73,2.23-2.18,6.37-3.32,10.45-2.89,5.36,.65,7.82,3.21,8.83,9.42,.34,1.8,.56,11.38,.56,21.34v18.13l7.15-.16,7.09-.16,.17-19.06c.11-11.65-.11-20.85-.45-23.68-1.12-8.44-4.69-13.67-11.45-16.71-2.85-1.25-4.25-1.52-8.94-1.63-4.08-.11-6.26,.05-8.04,.71Z"/>
    <path id="Shape" d="M365.13,125.82c-5.39,1.32-10.07,4.08-14.47,8.54-6.6,6.66-9.36,13.16-9.36,22.36,0,19,15.25,33.27,34.12,32,5.56-.39,9.63-1.49,13.76-3.75,6.88-3.86,12.16-9.97,14.75-17.13,1.27-3.47,1.49-4.79,1.49-10.85s-.22-7.49-1.27-10.57c-3.47-9.97-12.11-17.9-22.4-20.54-3.91-.99-12.6-.99-16.62-.06Zm13.49,12.58c3.77,1.12,7.09,3.41,9.03,6.21,5.32,7.72,4.49,20.31-1.72,26.8-3.16,3.3-7.31,4.92-12.58,4.92-4.71-.06-7.26-.84-10.91-3.41-5.93-4.14-8.64-15.27-5.71-23.66,3.16-9.01,12.58-13.65,21.88-10.85Z"/>
    <polygon id="Path-9" data-name="Path" points="243.34 156.49 243.34 186.57 250.57 186.41 257.75 186.25 257.92 156.33 258.03 126.46 250.68 126.46 243.34 126.46 243.34 156.49"/>
    <path id="Shape-2" data-name="Shape" d="M190.61,127.46c-3.09,.49-7.94,2.25-9.76,3.52-1.65,1.15-1.98,1.04-1.98-.82v-1.65h-14.33v83h14.33v-25.78l3.2,1.65c4.47,2.25,8.93,3.24,14.72,3.24,9.59,0,17.04-2.97,23.38-9.34,6.34-6.32,8.93-12.75,8.93-22.37,.06-9.51-2.59-16-9.15-22.54-7.72-7.7-17.92-10.83-29.33-8.9Zm11.8,12.74c7.73,1.93,12.49,9.84,11.95,19.79-.38,6.25-1.86,9.73-5.64,13.27-3.78,3.43-7.62,4.7-13.15,4.37-6.74-.44-11.67-3.81-14.47-9.78-1.26-2.76-1.42-3.76-1.42-9.18s.16-6.41,1.42-9.12c1.92-4.09,3.67-6.14,7.07-7.96,4.33-2.38,8.66-2.82,14.25-1.38Z"/>
  </g>
</svg>
