<?xml version="1.0" encoding="utf-8"?>
<!-- Generator: Adobe Illustrator 18.0.0, SVG Export Plug-In . SVG Version: 6.00 Build 0)  -->
<!DOCTYPE svg PUBLIC "-//W3C//DTD SVG 1.1//EN" "http://www.w3.org/Graphics/SVG/1.1/DTD/svg11.dtd">
<svg version="1.1" id="Layer_1" xmlns="http://www.w3.org/2000/svg" xmlns:xlink="http://www.w3.org/1999/xlink" x="0px" y="0px"
	 viewBox="0 0 207.3 107.8" enable-background="new 0 0 207.3 107.8" xml:space="preserve">
<g>
	<path fill="#FFFFFF" d="M43.1,73.3c-2.3-1.2-5-2.1-7.9-2.6c-2.8-0.5-5.7-0.7-8.6-0.7c-2.3,0-4.7-0.2-7-0.6
		c-2.3-0.4-4.3-1.1-6.1-2.1c-1.7-1-3.2-2.4-4.3-4.1c-1.1-1.7-1.6-4-1.6-6.7C7.8,54,8.3,52,9.4,50.3c1.1-1.7,2.5-3.1,4.1-4.1
		c1.7-1,3.7-1.8,5.9-2.3c3.8-0.8,7.7-0.9,11.7-0.4c1.6,0.2,3.1,0.6,4.6,1.2c1.5,0.5,2.9,1.3,4.1,2.2c1.2,0.9,2.3,2.1,3.2,3.4
		l0.5,0.8l3.8-1.6l-0.8-1.1c-1-1.5-2.2-2.8-3.4-3.9c-1.2-1.2-2.7-2.1-4.4-2.9c-1.6-0.8-3.5-1.4-5.5-1.8c-2-0.4-4.4-0.6-7-0.6
		c-2.5,0-5.1,0.3-7.7,0.9c-2.6,0.6-5.1,1.5-7.3,2.8c-2.2,1.3-4.1,3.1-5.5,5.3c-1.4,2.2-2.1,5-2.1,8.1c0,3.3,0.7,6.2,2,8.4
		c1.3,2.3,3.1,4.1,5.2,5.4c2.1,1.3,4.6,2.3,7.3,2.8c2.7,0.5,5.5,0.8,8.4,0.8c2.3,0,4.7,0.2,7.2,0.5c2.4,0.3,4.7,1,6.7,2
		c2,1,3.6,2.3,4.9,4c1.2,1.6,1.8,3.8,1.8,6.6c0,2.4-0.6,4.5-1.8,6.2c-1.2,1.7-2.8,3.1-4.7,4.2c-1.9,1.1-4.1,1.9-6.5,2.4
		c-2.4,0.5-4.8,0.8-7.1,0.8c-3.9,0-7.7-0.7-11.4-2.2c-3.7-1.5-6.9-3.6-9.6-6.5l-0.7-0.8l-3,2.6l0.8,0.8c2.7,2.7,6.1,5.1,10,7
		c4,2,8.7,3,13.9,3c2.5,0,5.2-0.3,7.9-0.9c2.8-0.6,5.4-1.6,7.8-2.9c2.4-1.4,4.4-3.2,6-5.4c1.6-2.3,2.4-5.1,2.4-8.4
		c0-3.4-0.8-6.2-2.2-8.5C47.4,76.3,45.5,74.6,43.1,73.3z"/>
	<path fill="#FFFFFF" d="M95.3,63.7c-2-2.3-4.4-4.2-7.2-5.7c-2.8-1.5-6-2.2-9.4-2.2c-3.1,0-6.1,0.7-8.9,2c-2.7,1.3-5.2,3.1-7.2,5.4
		c-2,2.2-3.7,4.9-4.9,7.9c-1.2,3-1.8,6.2-1.8,9.4c0,3.1,0.6,6.1,1.6,9c1.1,2.9,2.6,5.5,4.6,7.8c2,2.3,4.4,4.2,7.2,5.6
		c2.8,1.4,5.9,2.2,9.3,2.2h0h0c3.2-0.1,6.2-0.8,9-2.1c2.7-1.3,5.2-3.2,7.2-5.4c2-2.2,3.7-4.9,4.8-7.8c1.2-2.9,1.7-6,1.7-9.3
		c0-2.9-0.5-5.9-1.6-8.8C98.8,68.7,97.3,66,95.3,63.7z M78.7,101.1c-2.7,0-5.2-0.6-7.4-1.7c-2.2-1.1-4.2-2.7-5.8-4.6
		c-1.7-1.9-3-4.1-3.9-6.6c-0.9-2.5-1.5-5.1-1.6-7.8c0-2.4,0.4-4.9,1.3-7.4c0.9-2.5,2.2-4.7,3.8-6.7c1.7-2,3.7-3.6,6-4.8
		c2.3-1.2,4.8-1.8,7.6-1.8c2.6,0,5.1,0.6,7.3,1.7c2.3,1.2,4.3,2.7,6,4.6c1.7,1.9,3,4.1,4,6.6c1,2.5,1.5,5.1,1.5,7.7
		c0,2.4-0.4,4.9-1.3,7.4c-0.9,2.5-2.2,4.7-3.8,6.7c-1.7,2-3.7,3.6-6,4.8C84.1,100.5,81.5,101.1,78.7,101.1z"/>
	<path fill="#FFFFFF" d="M122.1,100c-0.7,0.2-1.3,0.3-1.8,0.4c-0.5,0.1-1.1,0.2-1.7,0.3c-0.6,0.1-1.1,0.1-1.6,0.1
		c-1.3,0-2.3-0.4-3-1.4c-0.8-1-1.1-2-1.1-3V38h-4v58.3c0,2.2,0.7,4.1,2.1,5.8c1.4,1.7,3.4,2.5,6,2.5c0.8,0,1.6,0,2.4-0.1
		c0.7-0.1,1.4-0.2,2-0.3c0.6-0.1,1.3-0.2,2.1-0.4l1.4-0.3l-1.8-3.7L122.1,100z"/>
	<path fill="#FFFFFF" d="M139.3,59.8c-2.1,1.5-3.9,3.3-5.5,5.5v-8.8h-4v47.7h4V74.5c0.6-1.9,1.3-3.8,2.3-5.4c1-1.7,2.1-3.1,3.5-4.4
		c1.4-1.2,3-2.2,4.8-3c1.8-0.7,3.8-1.2,6-1.3l1.1-0.1v-3.9h-1.1C146.2,56.5,142.4,57.6,139.3,59.8z"/>
</g>
<g>
	<path fill="#262130" d="M196.2,13l-33,35.7l41.5-19.1C203.5,23.2,200.5,17.5,196.2,13z"/>
	<path fill="#262130" d="M171.7,2.4c-4.6,0-8.9,0.9-12.9,2.6l-4.4,37.3l22.1-39.5C175,2.5,173.4,2.4,171.7,2.4z"/>
	<path fill="#262130" d="M205,31.6l-39.3,22l36.9-4.4c1.7-4.1,2.7-8.5,2.7-13.2C205.3,34.5,205.2,33,205,31.6z"/>
	<path fill="#262130" d="M190.5,63.8c4.4-3,8-7,10.6-11.6L166.6,59L190.5,63.8z"/>
	<path fill="#262130" d="M178.6,3.1l-19.2,41.7l35.7-33C190.5,7.5,184.9,4.4,178.6,3.1z"/>
	<path fill="#262130" d="M174.6,69.4c3.7-0.3,7.3-1.2,10.5-2.6l-19.4-2.3L174.6,69.4z"/>
	<path fill="#262130" d="M141.1,22.2c-1.5,3.3-2.5,7-2.8,10.8l5.2,9.3L141.1,22.2z"/>
	<path fill="#262130" d="M155.9,6.3c-4.7,2.5-8.8,6.2-11.8,10.6l4.9,24.5L155.9,6.3z"/>
</g>
</svg>
