<?xml version="1.0" encoding="utf-8"?>
<!-- Generator: Adobe Illustrator 24.1.0, SVG Export Plug-In . SVG Version: 6.00 Build 0)  -->
<svg version="1.1"
	 id="Õ_xBA__x2264__x201E__1" xmlns:cc="http://creativecommons.org/ns#" xmlns:dc="http://purl.org/dc/elements/1.1/" xmlns:rdf="http://www.w3.org/1999/02/22-rdf-syntax-ns#" xmlns:svg="http://www.w3.org/2000/svg"
	 xmlns="http://www.w3.org/2000/svg" xmlns:xlink="http://www.w3.org/1999/xlink" x="0px" y="0px" viewBox="0 0 107.7 107.7"
	 style="enable-background:new 0 0 107.7 107.7;" xml:space="preserve">
<style type="text/css">
	.st0{fill-rule:evenodd;clip-rule:evenodd;fill:#9E2878;}
</style>
<g>
	<g id="g1133" transform="translate(-244.51235,-228.78793)">
		<path id="path1119" class="st0" d="M340.8,253.8c2.6-1,5.5,0.4,6.2,3c0.7,2.6-1.1,5.7-3.7,6.4c-3.2,0.6-6.2-1.4-9.3,0.2
			c-3.1,1.7-4,5.2-4.7,8.3c-1.4,5-8.5,7.3-12.1,4.2c-3.3-2.4-3.4-7.8-0.2-11c2.2-2.5,5.9-3.3,8.8-2c2.7,1.2,6,1.7,8.6-0.4
			C337.5,260.1,336.7,255.1,340.8,253.8L340.8,253.8z"/>
		<path id="path1121" class="st0" d="M280.5,244.7c4.2-2.2,9.5,1.5,8.2,6.1c-1.4,5.4-0.7,11.5,2.9,15.5c3.4,4,9.8,4.8,14.6,1.9
			c3.7-2.1,6-5.8,7.4-9.6c1-3.1,0.6-6.2,1.1-9.3c1-3.8,5.8-6,9.1-4.2c3.2,1.4,4,5.9,1.7,8.8c-1.4,2.2-4.2,2.7-6.3,3.8
			c-3.6,1.9-6.5,4.9-8.4,8.6c-1.2,2.1-1.1,4.5-1.7,6.7c-0.9,1.9-3,2.7-4.8,2.9c-4.8,0.6-9.5,3-13,6.7c-1.7,1.7-3.1,4.2-5.6,4.2
			c-2.7-0.2-4.7-2.6-7.4-2.7c-4.9-0.7-10.2,0.7-14.4,4c-3.7,3.1-9.4,0.8-9.6-3.7c-0.9-5.1,6.2-9.5,10.1-6.2c4.3,4,10.8,5.6,16.9,3.7
			c5.6-1.9,9.7-8.3,8.6-14c-0.9-4.9-4.2-9.3-8.6-11.4c-1.7-0.8-3.6-1.6-4.2-3.5C275.6,250.2,277.3,246.2,280.5,244.7L280.5,244.7z"
			/>
		<path id="path1123" class="st0" d="M277.8,235.9c2.2-0.8,4.2,1.3,3.3,3.4c-0.6,2.1-3.7,2.7-4.8,1.1
			C275,238.9,276,236.4,277.8,235.9z"/>
		<path id="path1125" class="st0" d="M246.9,278.8c2.2-0.8,4.2,1.2,3.3,3.4c-0.6,2.1-3.7,2.7-4.8,1C244,281.9,245,279.3,246.9,278.8
			L246.9,278.8z"/>
		<path id="path1127" class="st0" d="M328.2,236.2c2.2-0.7,4.2,1.3,3.3,3.5c-0.6,2-3.7,2.7-4.8,1
			C325.4,239.2,326.3,236.8,328.2,236.2z"/>
		<path id="path1129" class="st0" d="M253.6,257.7c0.4-3.7,5.5-5.9,8.1-3.6c1.9,1.1,1.6,3.6,2.2,5.4c0.4,2.4,2.7,4.3,5.2,4.3
			c3.2,0.3,6.4-2.3,9.5-1.2c4.8,1.2,6.5,7.5,3.2,11.5c-2.9,4.1-9.3,4.5-12,0.7c-2.4-2.8-0.5-7.1-2.7-10.1c-1.7-2.9-5.4-2.7-8.3-1.9
			C255.8,263.8,253,260.7,253.6,257.7L253.6,257.7z"/>
		<path id="path1131" class="st0" d="M300.8,230c3.3-1.9,7.5,0.9,6.7,4.6c0,2.3-2.2,3.6-3.5,5.2c-1.9,1.9-2.3,4.9-1.2,7
			c1.3,2.9,4.9,4,5.5,7.2c1.2,4.8-3.3,10.1-8.2,9.8c-4.8,0.1-8.3-5-6.3-9.5c1.2-3.8,5.8-4.9,7.2-8.5c1.7-3.2-0.4-6.1-2.4-8.1
			C296.7,235.6,297.9,231.4,300.8,230z"/>
	</g>
	<g id="g1149" transform="translate(-244.51235,-228.78793)">
		<path id="path1135" class="st0" d="M256,311.5c-2.6,1-5.5-0.4-6.2-3c-0.7-2.6,1.1-5.7,3.7-6.4c3.2-0.6,6.2,1.4,9.3-0.2
			c3.1-1.6,4-5.1,4.7-8.2c1.4-5,8.5-7.3,12.1-4.2c3.3,2.4,3.4,7.8,0.2,10.9c-2.2,2.5-5.9,3.3-8.8,2c-2.7-1.2-6-1.7-8.6,0.4
			C259.1,305,259.9,310.2,256,311.5L256,311.5z"/>
		<path id="path1137" class="st0" d="M316.1,320.5c-4.2,2.2-9.5-1.5-8.2-6c1.4-5.4,0.7-11.6-2.9-15.6c-3.4-4-9.8-4.7-14.6-1.9
			c-3.7,2-6,5.7-7.4,9.5c-1,3.1-0.6,6.2-1.1,9.3c-1,3.8-5.8,6-9.1,4.3c-3.2-1.4-4-5.9-1.7-8.9c1.4-2.2,4.2-2.7,6.3-3.8
			c3.6-1.9,6.5-4.9,8.4-8.6c1.2-2,1.1-4.5,1.7-6.6c0.9-1.9,3-2.7,4.8-2.9c4.8-0.6,9.5-3,13-6.7c1.7-1.6,3.1-4.2,5.6-4.1
			c2.7,0.1,4.7,2.5,7.4,2.7c4.9,0.6,10.2-0.8,14.4-4c3.7-3.2,9.4-0.9,9.6,3.6c0.9,5.1-6.2,9.5-10.1,6.2c-4.3-4-10.8-5.6-16.9-3.7
			c-5.6,1.9-9.7,8.3-8.6,14c0.9,4.8,4.2,9.3,8.6,11.3c1.7,0.8,3.6,1.6,4.2,3.5C321.2,314.9,319.4,319.1,316.1,320.5L316.1,320.5z"/>
		<path id="path1139" class="st0" d="M318.9,329.4c-2.2,0.8-4.2-1.3-3.3-3.4c0.6-2.1,3.7-2.7,4.8-1.1
			C321.7,326.3,320.7,328.8,318.9,329.4z"/>
		<path id="path1141" class="st0" d="M349.9,286.5c-2.2,0.7-4.2-1.3-3.3-3.5c0.6-2.1,3.7-2.7,4.8-1
			C352.8,283.5,351.8,285.9,349.9,286.5z"/>
		<path id="path1143" class="st0" d="M268.5,329c-2.2,0.7-4.2-1.3-3.3-3.5c0.6-2,3.7-2.7,4.8-1C271.3,325.9,270.3,328.5,268.5,329z"
			/>
		<path id="path1145" class="st0" d="M343.1,307.4c-0.4,3.7-5.5,5.9-8.1,3.6c-1.9-1.1-1.6-3.6-2.2-5.4c-0.4-2.4-2.7-4.3-5.2-4.3
			c-3.2-0.3-6.4,2.3-9.5,1.2c-4.8-1.2-6.5-7.5-3.2-11.5c2.9-4.1,9.3-4.5,12-0.7c2.4,2.8,0.5,7,2.7,10c1.7,2.9,5.4,2.7,8.3,1.9
			C341,301.4,343.8,304.4,343.1,307.4L343.1,307.4z"/>
		<path id="path1147" class="st0" d="M295.8,335.2c-3.3,2-7.5-0.9-6.7-4.6c0-2.3,2.2-3.6,3.5-5.2c1.9-1.9,2.3-4.9,1.2-7
			c-1.3-2.9-4.9-4-5.5-7.2c-1.2-4.8,3.3-10.1,8.2-9.8c4.8-0.1,8.3,5,6.3,9.6c-1.2,3.7-5.8,4.8-7.2,8.4c-1.7,3.2,0.4,6.1,2.4,8.2
			C300,329.6,298.8,333.8,295.8,335.2L295.8,335.2z"/>
	</g>
</g>
</svg>
