<!--
Licensed to the Apache Software Foundation (ASF) under one
or more contributor license agreements.  See the NOTICE file
distributed with this work for additional information
regarding copyright ownership.  The ASF licenses this file
to you under the Apache License, Version 2.0 (the
"License"); you may not use this file except in compliance
with the License.  You may obtain a copy of the License at

  http://www.apache.org/licenses/LICENSE-2.0

Unless required by applicable law or agreed to in writing,
software distributed under the License is distributed on an
"AS IS" BASIS, WITHOUT WARRANTIES OR CONDITIONS OF ANY
KIND, either express or implied.  See the License for the
specific language governing permissions and limitations
under the License.
-->
<svg xmlns="http://www.w3.org/2000/svg" width="2500" height="575" viewBox="0.6 0.1 575.509 132.4"><title>logo</title><path d="M199.3 96.9c-20.3 0-30.5-14.601-30.5-30.8 0-16.1 10.6-30.6 30.7-30.6 7.7 0 13.2 1.7 17.9 4.7l-5.8 9.5c-3.3-2.1-6.9-3.4-12.3-3.4-10.9 0-16.7 8.7-16.7 19.5 0 11.101 5.6 20.3 16.9 20.3 6.4 0 10.2-2.199 13.3-4.5l5.3 9.101c-3 2.699-10.1 6.199-18.8 6.199zm43.1-36.4c-6.5 0-8.6 5.5-8.6 13.5s2.6 13.7 9.1 13.7c6.6 0 8.8-5.4 8.8-13.4-.1-8-2.7-13.8-9.3-13.8zm.2 36.4c-15.2 0-21.8-11.4-21.8-22.601 0-11.2 6.6-22.9 21.8-22.9 15.2 0 22.1 11.3 22.1 22.5C264.6 85 257.9 96.9 242.6 96.9zm41.2-44.4v27.8c0 4.3 1.5 6.4 5.601 6.4 4.399 0 7.699-4.2 8.6-5.2v-29h12.2v30.6c0 5.7.6 10.101 1.2 12.7H299.3c-.399-1.2-.8-4-.899-5.8-2.301 3-6.801 6.8-14 6.8-9.6 0-13-6.1-13-14.1V52.4h12.4v.1h-.001zm56.5 44.4c-14 0-22.6-9.101-22.6-22.7 0-14.6 9.7-22.8 23-22.8 7 0 11.2 2.1 13.3 3.4l-3.9 8.4c-1.899-1.2-4.699-2.5-9-2.5-6.8 0-10.399 5.3-10.399 13.2 0 7.899 3.399 13.6 10.7 13.6 5 0 7.899-1.8 9.199-2.6l3.7 8.199c-2 1.301-6 3.801-14 3.801zm46.8-1V68c0-4.3-1.5-6.4-5.6-6.4-4.4 0-7.8 4.1-8.7 5.2v29h-12.2v-64h12.2v25.8c2.2-2.4 6.4-6.2 13.5-6.2 9.601 0 13 6.1 13 14.1v30.3h-12.2v.1zm34.4-9.5c.8.3 2.6.899 5.8.899 6.3 0 10.2-4.6 10.2-13.5 0-8-2.7-12.8-8.9-12.8-3.6 0-6.399 2.3-7.1 3.2V86.4zm0-54.5v24c2-2 5.8-4.5 10.6-4.5 10.801 0 18.4 7.4 18.4 22.4 0 14.9-10 23.101-23.2 23.101-9.899 0-15.899-2.5-18.1-3.5V31.8h12.3v.1zm58.1 44.9h-1.5c-6.699 0-11.399 2-11.399 6.9 0 3.1 2.5 4.399 5.2 4.399 4.1 0 6.5-2.399 7.699-3.6V76.8zm1.3 19.1c-.4-1.101-.601-3.301-.7-4.601-1.9 2.3-6 5.7-12.101 5.7C460.7 97 455 92.6 455 84.8c0-11.3 11.6-15.399 23.1-15.399h1.5V67c0-3.6-1.5-5.8-6.899-5.8-5.601 0-9.4 2.9-11 4l-5.3-7.4c2.6-2.4 8.399-6.3 17.699-6.3 12 0 17.7 4.6 17.7 16.2v15.2c0 6 .601 10.199 1.2 13h-12.1zm32.9 1c-7.8 0-12.8-2.301-15.5-4.101l4.101-8.5C504.1 85.5 508.3 87.9 513.1 87.9c4.5 0 7-1.301 7-3.7 0-2.8-4.899-3.601-11.1-6.601-6-2.899-9.5-6.199-9.5-12.8 0-8.2 6.5-13.4 16.4-13.4 7.399 0 12 2.3 14 3.4l-4.2 8.3c-1.7-1-5.101-2.7-9.2-2.7s-5.9 1.4-5.9 3.7c0 2.8 4 3.5 9 5.5 6.801 2.801 11.7 6 11.7 13.2-.2 9.301-6.8 14.101-17.5 14.101zm50.3-28c-.1-4.8-2-8.7-7.199-8.7-4.801 0-7.601 3.1-8.4 8.7H564.1zm-4.6 19c5.9 0 9.1-1.9 11.3-3l3.9 7.8c-2.9 1.6-7.3 4.2-16.3 4.2-14.601 0-22.9-9.101-22.9-23 0-13.8 9.5-22.5 21.6-22.5 13.7 0 20.301 9.5 18.801 25.7H548.6c.5 6.5 3.9 10.8 10.9 10.8z"/><path d="M66.8.1C30.3.1.6 29.7.6 66.3c0 36.5 29.6 66.2 66.2 66.2 36.5 0 66.2-29.6 66.2-66.2S103.3.1 66.8.1zm44.7 77.8c0 4-2.3 7.5-6.8 8.3-7.8 1.399-24.2 2.2-37.9 2.2s-30.1-.801-37.9-2.2c-4.5-.8-6.8-4.3-6.8-8.3V52.1c0-4 3.1-7.7 6.8-8.3 2.3-.4 7.7-.8 11.9-.8 1.6 0 2.9 1.2 2.9 3.1v18.1l23.2-.5 23.2.5V46.1c0-1.9 1.3-3.1 2.9-3.1 4.2 0 9.6.4 11.9.8 3.8.6 6.8 4.3 6.8 8.3-.2 8.5-.2 17.2-.2 25.8z" fill="#ed2226"/></svg>
