<svg version="1.2" xmlns="http://www.w3.org/2000/svg" viewBox="0 0 436 58" width="436" height="58"><style>.a{fill:#009dc7}</style><title>CrateDB</title><path class="a" d="m3.6 0h14.5v14.5h-14.5z"/><path class="a" d="m25.4 0h14.5v14.5h-14.5z"/><path class="a" d="m47.2 0h14.5v36.2h-14.5z"/><path class="a" d="m3.6 21.7h36.3v14.5h-36.3z"/><path class="a" d="m3.6 43.4h58.1v14.5h-58.1z"/><path  d="m249.5 16.9h12.1v8.4h-12.1v19.3h12.1v8.4h-10.4c-1.5 0.1-2.9-0.2-4.3-0.7-1.3-0.6-2.6-1.3-3.6-2.3-1.1-1-1.9-2.2-2.5-3.6-0.6-1.3-1-2.7-1-4.2v-16.9h-9.7v-8.4h9.7v-12.1h9.7z"/><path  d="m159.8 22.9q0-1.2 0.5-2.3 0.4-1.1 1.3-2 0.9-0.8 2-1.3 1.1-0.4 2.3-0.4h12.1v8.4h-13.3q-1 0-1.9 0.4-0.8 0.4-1.5 1-0.7 0.7-1.1 1.6-0.3 0.9-0.3 1.9v22.9h-9.7v-36.2h7.2l1.2 6h1.2z"/><path  d="m90.8 16.9c0-1.6 0.3-3.2 0.9-4.6 0.6-1.5 1.5-2.8 2.7-3.9 1.1-1.2 2.4-2 3.9-2.7 1.5-0.6 3-0.9 4.6-0.9h36.4v9.7h-38.8v28.9h38.8v9.7h-36.4c-1.6 0-3.1-0.3-4.6-0.9-1.5-0.6-2.8-1.5-3.9-2.6-1.2-1.2-2.1-2.5-2.7-4-0.6-1.4-0.9-3-0.9-4.6v-24.1z"/><path fill-rule="evenodd" d="m358.9 6.1c2.1 0.9 4 2.1 5.5 3.7 1.6 1.5 2.9 3.4 3.7 5.5 0.9 2 1.3 4.2 1.3 6.4v14.5c0 2.2-0.4 4.4-1.3 6.5-0.8 2-2.1 3.9-3.7 5.4-1.5 1.6-3.4 2.8-5.5 3.7-2 0.8-4.2 1.3-6.4 1.3h-34v-48.3h34c2.2 0 4.4 0.5 6.4 1.3zm0.3 12.8q-0.6-1.3-1.6-2.3-1-1-2.4-1.6-1.3-0.5-2.7-0.5h-24.3v28.9h24.3q1.4 0 2.7-0.5 1.4-0.6 2.4-1.6 1-1 1.6-2.3 0.5-1.4 0.5-2.8v-14.5q0-1.4-0.5-2.8z"/><path fill-rule="evenodd" d="m212.7 16.9c1.3 0 2.5 0.2 3.7 0.7 1.2 0.5 2.3 1.2 3.2 2.1 0.9 0.9 1.7 1.9 2.2 3.1 0.4 1.2 0.7 2.5 0.7 3.7v26.6h-7.3l-1.2-4.8h-1.2q0 0.9-0.4 1.8-0.3 0.9-1 1.6-0.7 0.7-1.6 1-0.9 0.4-1.8 0.4h-14c-1.5 0.1-2.9-0.2-4.3-0.7-1.4-0.5-2.6-1.3-3.7-2.3-1.1-1-1.9-2.2-2.5-3.5-0.6-1.3-1-2.8-1-4.2 0-1.4 0.3-2.8 0.9-4.1 0.6-1.2 1.4-2.4 2.4-3.4 1-0.9 2.2-1.7 3.5-2.2 1.3-0.5 2.6-0.7 4-0.7h19.4v-7.3h-25.4v-7.8zm-3.6 28.9q0.7 0 1.3-0.2 0.7-0.3 1.2-0.8 0.5-0.5 0.8-1.2 0.3-0.7 0.3-1.4v-3.6h-17.6c-0.9 0-1.8 0.4-2.5 1.1-0.7 0.6-1.1 1.6-1.1 2.5 0 1 0.4 1.9 1.1 2.6 0.6 0.7 1.6 1 2.5 1.1h14z"/><path fill-rule="evenodd" d="m296.7 16.9c1.6 0 3.2 0.3 4.7 0.9 1.4 0.6 2.8 1.5 3.9 2.6 1.1 1.1 2 2.5 2.6 3.9 0.6 1.5 0.9 3.1 0.9 4.7v9.6h-30.2v6.6h27.8v7.9h-25.4c-1.6 0-3.2-0.3-4.6-0.9-1.5-0.6-2.8-1.5-4-2.6-1.1-1.2-2-2.5-2.6-4-0.6-1.4-0.9-3-0.9-4.6v-12c0-1.6 0.3-3.2 0.9-4.7 0.6-1.4 1.5-2.8 2.6-3.9 1.2-1.1 2.5-2 4-2.6 1.4-0.6 3-0.9 4.6-0.9h15.7zm3.7 15.1v-3.7q0-0.7-0.3-1.4-0.3-0.6-0.8-1.1-0.5-0.5-1.2-0.8-0.6-0.3-1.3-0.3h-14.6q-0.7 0-1.4 0.3-0.6 0.3-1.1 0.8-0.6 0.5-0.8 1.2-0.3 0.6-0.3 1.4v3.6z"/><path fill-rule="evenodd" d="m427.3 27.7q0 0 0 0 0 0 0 0.1zm0 0c2.3 1.9 3.9 4.4 4.6 7.3 0.8 2.9 0.6 5.9-0.4 8.7-1.1 2.7-2.9 5.1-5.3 6.8-2.5 1.7-5.4 2.6-8.3 2.6h-38.8v-48.2h36.3c2.7 0 5.3 0.7 7.6 2.1 2.3 1.3 4.1 3.3 5.3 5.7 1.3 2.3 1.8 5 1.6 7.6-0.2 2.6-1.1 5.2-2.6 7.4zm-38.5-3.7h26.6c1.3 0 2.5-0.5 3.4-1.4 0.9-0.9 1.4-2.1 1.4-3.4 0-1.2-0.5-2.5-1.4-3.4-0.9-0.9-2.1-1.4-3.4-1.4h-26.6zm32.5 17.5c0.9-1 1.3-2.3 1.3-3.6 0-1.4-0.4-2.6-1.3-3.6-0.9-1-2.1-1.7-3.4-1.9h-29.1v10.9h29.1c1.3-0.2 2.5-0.8 3.4-1.8z"/></svg>