<?xml version="1.0" encoding="UTF-8"?>
<svg id="Layer_1" data-name="Layer 1" xmlns="http://www.w3.org/2000/svg" width="512" height="270" viewBox="0 0 512 270">
  <path d="M108.37,196.31l-30.16-52.22c-1.61-2.79-1.61-6.23,0-9.02l30.16-52.24c1.61-2.79,4.58-4.5,7.83-4.51h60.36c3.21,.02,6.17,1.73,7.77,4.51l30.19,52.25c1.61,2.79,1.61,6.23,0,9.02l-30.22,52.22c-1.61,2.79-4.58,4.5-7.83,4.51h-60.35c-3.21,0-6.17-1.73-7.78-4.51h.04Z" style="fill: #4386fa;"/>
  <path d="M165.17,122.69s8.39,20.11-3.05,31.51c-11.43,11.4-32.25,4.1-32.25,4.1l42.34,42.5h4.3c3.22,0,6.19-1.72,7.83-4.51l19.97-34.58-39.15-39.03Z" style="isolation: isolate; opacity: .1;"/>
  <path d="M175.08,163.88l-9.27-9.23c-.1-.1-.21-.19-.34-.26,8.5-11.02,6.46-26.84-4.55-35.34-10.05-7.76-24.31-6.82-33.27,2.18-9.38,9.45-9.79,24.59-.94,34.5,8.86,9.93,23.9,11.27,34.38,3.07,.07,.12,.15,.23,.24,.33l9.27,9.27c.27,.27,.64,.42,1.02,.42,.38,0,.75-.15,1.02-.42l2.46-2.46c.27-.27,.42-.64,.42-1.02,0-.38-.15-.75-.42-1.02h-.03Zm-29.53-6.01c-7.67,0-14.58-4.62-17.51-11.7-2.94-7.08-1.31-15.24,4.11-20.66,7.41-7.4,19.42-7.39,26.82,.01,3.55,3.55,5.54,8.37,5.55,13.39,0,10.47-8.49,18.95-18.96,18.96h0Zm-12.11-19.97v7.83c1.21,2.13,2.95,3.9,5.07,5.15v-13l-5.07,.02Zm9.46-6.49v21.17c1.67,.31,3.39,.31,5.07,0v-21.2l-5.07,.03Zm14.66,14.32v-4.63h-5.07v9.77c2.11-1.24,3.85-3,5.07-5.13h0Z" style="fill: #fff;"/>
  <path d="M287.8,105.46h-22.88v6.8h16.26c-.81,9.54-8.75,13.61-16.23,13.61-4.75,.03-9.32-1.83-12.7-5.17s-5.29-7.89-5.3-12.64v-.31c-.08-4.81,1.78-9.45,5.15-12.88s7.99-5.35,12.8-5.34c4.58,0,8.98,1.79,12.27,4.98l4.77-4.91c-4.62-4.46-10.82-6.91-17.24-6.8-13.8-.29-25.23,10.66-25.52,24.47-.1,4.7,1.13,9.34,3.55,13.37,4.68,7.8,13.23,12.45,22.33,12.12,13.33-.03,23.17-9.19,23.17-22.74,.03-1.52-.11-3.03-.42-4.51v-.07Zm18.82-4.91c-8.76-.18-16.01,6.77-16.19,15.53v.41c-.05,8.91,7.13,16.17,16.04,16.23,8.91,.05,16.17-7.13,16.23-16.04,0-10.64-8.36-16.13-16.05-16.13h-.03Zm.09,6.33c4.62,0,8.98,3.68,8.98,9.81s-4.37,9.74-9.02,9.74c-5.12,0-9.14-4.08-9.14-9.81s3.95-9.72,9.15-9.72l.04-.02Zm34.96-6.33c-8.76-.15-15.98,6.82-16.14,15.58v.36c-.05,8.91,7.13,16.17,16.04,16.23,8.91,.05,16.17-7.13,16.23-16.04,0-10.61-8.36-16.11-16.11-16.11l-.02-.02Zm.1,6.33c4.62,0,8.98,3.68,8.98,9.81s-4.37,9.74-9.02,9.74c-5.12,0-9.14-4.08-9.14-9.81s3.95-9.72,9.14-9.72l.04-.02Zm34.33-6.33c-8.58,0-15.41,7.55-15.41,16.06-.13,8.62,6.65,15.76,15.27,16.08,3.39,.18,6.67-1.28,8.81-3.93v3.18c0,5.55-3.36,8.88-8.44,8.88-3.65-.05-6.9-2.31-8.22-5.71l-6.14,2.55c2.18,4.62,6.55,9.5,14.39,9.5,8.58,0,15.14-5.41,15.14-16.74v-28.88h-6.74v2.7c-2.22-2.42-5.38-3.76-8.66-3.68h0Zm.63,6.27c4.23,0,8.58,3.62,8.58,9.81s-4.34,9.68-8.68,9.68c-4.62,0-8.88-3.68-8.88-9.66s4.45-9.81,8.99-9.81l-.02-.02Zm44.71-6.27c-8.14,0-14.96,6.48-14.96,16.04-.31,8.57,6.39,15.77,14.97,16.08,.26,0,.53,.01,.79,0,5.39,.02,10.43-2.61,13.49-7.05l-5.55-3.68c-1.63,2.77-4.62,4.45-7.83,4.42-3.38,.13-6.5-1.81-7.87-4.91l21.53-8.93-1.09-2.61c-2.12-5.57-7.43-9.29-13.39-9.37h-.08Zm.28,6.13c2.48-.1,4.8,1.23,5.95,3.43l-14.42,6.04c-.63-4.66,3.79-9.45,8.44-9.45l.03-.03Zm-25.54,25.05h7.07v-47.33h-7.08v47.33Zm-155.67,54.5v-31.03h11.23c2.35-.05,4.63,.83,6.33,2.45,1.74,1.52,2.71,3.73,2.65,6.04,.15,2.84-1.55,5.45-4.21,6.46v.17c1.52,.48,2.86,1.43,3.81,2.71,.95,1.27,1.46,2.82,1.43,4.41,.06,2.41-.93,4.72-2.72,6.33-1.81,1.65-4.19,2.53-6.64,2.45h-11.89Zm3.98-27.2v9.52h7.24c1.33,.04,2.62-.48,3.55-1.43,1.83-1.76,1.91-4.67,.16-6.51l-.12-.12c-.89-.94-2.13-1.46-3.42-1.44h-7.35l-.06-.02Zm0,13.23v10.18h8.03c2.82,.03,5.13-2.23,5.16-5.06,0-1.34-.55-2.63-1.52-3.55-1.01-1.01-2.39-1.56-3.81-1.52h-7.87v-.05Zm26.26-14.58c0,1.55-1.26,2.8-2.82,2.8-1.14,0-2.16-.69-2.59-1.74-.59-1.43,.09-3.07,1.52-3.67,1.05-.44,2.26-.19,3.07,.62,.54,.52,.84,1.25,.82,2h0Zm-.82,7.35v21.21h-4v-21.21h4Zm14.36,31.27c-1.13,0-2.28-.14-3.34-.46-1-.27-1.96-.68-2.85-1.23-.84-.55-1.58-1.22-2.21-2-.6-.73-1.07-1.57-1.38-2.45l3.81-1.57c.41,1.22,1.2,2.27,2.26,2.99,1.08,.75,2.37,1.14,3.68,1.13,1.89,.11,3.74-.6,5.08-1.95,1.28-1.48,1.94-3.41,1.83-5.37v-2.1h-.17c-.77,1.14-1.82,2.06-3.05,2.66-1.3,.65-2.73,.99-4.18,.98-2.75,.01-5.36-1.17-7.16-3.25-1.96-2.22-3.02-5.09-2.96-8.05-.07-2.95,.98-5.82,2.94-8.03,1.79-2.1,4.41-3.31,7.16-3.3,1.45,0,2.89,.33,4.18,.98,1.23,.6,2.29,1.52,3.05,2.66h.17v-2.98h3.81v20.33c.16,2.96-.88,5.86-2.9,8.02-2.08,1.98-4.87,3.03-7.74,2.92l-.04,.05Zm.14-13.01c1.84,.05,3.6-.73,4.81-2.12,2.59-3.22,2.59-7.81,0-11.04-1.19-1.41-2.96-2.21-4.81-2.17-1.84-.03-3.61,.77-4.81,2.17-1.36,1.52-2.03,3.53-1.95,5.53-.08,2.02,.62,3.99,1.95,5.51,1.21,1.39,2.96,2.18,4.81,2.15v-.03Zm51.94,2.95l-3.14,2.03-2.13-3.17c-2.31,1.16-4.87,1.77-7.45,1.78-4.24,.09-8.39-1.61-11.36-4.7-6.14-6.47-6.14-16.6,0-23.07,6.24-6.28,16.39-6.3,22.66-.06l.06,.06c3.04,3.04,4.71,7.19,4.6,11.49,.01,2.34-.47,4.65-1.41,6.8-.92,2.11-2.27,4-3.97,5.55l2.14,3.29Zm-12.7-3.17c1.81,0,3.6-.42,5.23-1.23l-3.62-5.44,3.14-2.12,3.59,5.42c2.4-2.37,3.7-5.64,3.55-9.01,.12-3.3-1.09-6.51-3.42-8.88-2.19-2.31-5.26-3.59-8.45-3.51-3.2-.08-6.28,1.19-8.5,3.51-4.5,5.06-4.5,12.73,0,17.75,2.22,2.33,5.32,3.61,8.53,3.53l-.06-.03Zm38.63,3.14h-3.82v-2.97h-.17c-.68,1.11-1.64,2.01-2.8,2.61-1.2,.68-2.55,1.04-3.93,1.04-2.23,.14-4.41-.67-6.01-2.23-1.49-1.76-2.25-4.05-2.08-6.35v-13.34h3.98v13.05c.09,3.48,1.83,5.22,5.22,5.22,1.55,0,3.02-.71,3.97-1.94,1.08-1.3,1.65-2.94,1.61-4.62v-11.7h3.98v21.21l.04,.02Zm14.18,.7c-2.91,.08-5.72-1.09-7.72-3.21-2.04-2.2-3.13-5.11-3.03-8.11-.09-2.97,.97-5.87,2.96-8.08,4.07-4.21,10.79-4.32,15-.24l.07,.07c2.01,2.39,3.02,5.47,2.8,8.58v.43h-16.7c-.02,1.89,.73,3.71,2.08,5.03,2.66,2.59,6.92,2.54,9.51-.12,.51-.52,.93-1.12,1.25-1.78l3.56,1.73c-.91,1.74-2.28,3.2-3.96,4.21-1.75,1.02-3.74,1.53-5.76,1.49h-.06Zm-6.38-13.87h12.17c-.08-1.42-.73-2.74-1.8-3.68-1.22-.98-2.77-1.53-4.35-1.45-1.42-.03-2.8,.46-3.88,1.38-1.11,.97-1.86,2.28-2.15,3.73h0Zm24.07,13.19h-3.98v-21.21h3.81v3.47h.17c.47-1.21,1.36-2.23,2.45-2.88,1.09-.75,2.36-1.17,3.68-1.22,1.01-.02,2.01,.16,2.94,.53l-1.22,3.86c-.75-.26-1.55-.36-2.34-.31-1.51,0-2.95,.67-3.93,1.83-1.08,1.15-1.68,2.67-1.67,4.24v11.72l.08-.02Zm31.18-21.21l-13.28,30.66h-4.12l4.91-10.7-8.7-19.95h4.34l6.33,15.27h.09l6.14-15.27h4.31Z" style="fill: #767677;"/>
</svg>
