<?xml version="1.0" encoding="UTF-8"?>
<svg id="Layer_1" data-name="Layer 1" xmlns="http://www.w3.org/2000/svg" width="512" height="270" viewBox="0 0 512 270">
  <g transform="matrix(.037376 0 0 .037376 1.069994 -1.319339)">
    <path d="M112.02,197.65h9.53v-37.77l14.89,32.93c1.69,3.96,4.11,5.42,8.8,5.42s6.97-1.47,8.71-5.42l14.82-32.93v37.77h9.61v-37.77c0-3.67-1.47-5.43-4.55-6.38-7.26-2.2-12.1-.29-14.3,4.62l-14.59,32.56-14.08-32.56c-2.13-4.91-7.04-6.82-14.37-4.62-3.01,.95-4.47,2.72-4.47,6.38v37.77h.01Zm74.3-30.73h9.61v20.76c-.07,1.17,.37,3.81,5.59,3.88,2.71,.07,20.68,0,20.83,0v-24.79h9.61v33.96c0,8.36-10.36,10.19-15.18,10.27h-30.21v-6.38h30.29c6.16-.66,5.43-3.74,5.43-4.77v-2.5h-20.32c-9.46-.07-15.55-4.25-15.62-9.02v-21.42h-.02Zm206.09-24.05c-5.86-.15-10.41,.44-14.23,2.05-1.1,.44-2.86,.44-3,1.83,.59,.58,.66,1.54,1.17,2.35,.88,1.47,2.42,3.45,3.81,4.47,1.54,1.18,3.08,2.35,4.69,3.37,2.86,1.76,6.09,2.79,8.87,4.55,1.61,1.03,3.23,2.35,4.84,3.45,.82,.59,1.32,1.54,2.35,1.91v-.22c-.51-.66-.66-1.61-1.17-2.35-.73-.73-1.47-1.39-2.2-2.13-2.13-2.86-4.77-5.36-7.63-7.41-2.35-1.61-7.48-3.81-8.43-6.53l-.14-.15c1.61-.15,3.52-.73,5.06-1.18,2.5-.66,4.77-.51,7.33-1.17,1.18-.3,2.35-.66,3.52-1.03v-.66c-1.32-1.32-2.27-3.08-3.67-4.33-3.74-3.23-7.85-6.38-12.1-9.02-2.27-1.47-5.21-2.42-7.63-3.67-.88-.44-2.35-.66-2.86-1.39-1.32-1.61-2.05-3.74-3.01-5.65-2.13-4.03-4.18-8.51-6.01-12.76-1.32-2.86-2.13-5.72-3.74-8.36-7.55-12.47-15.77-20.02-28.38-27.43-2.71-1.54-5.94-2.2-9.37-3.01l-5.5-.3c-1.18-.51-2.35-1.91-3.37-2.57-4.18-2.64-14.96-8.36-18.04-.81-1.98,4.77,2.93,9.46,4.6,11.88,1.25,1.69,2.86,3.59,3.74,5.5,.49,1.25,.66,2.57,1.17,3.89,1.17,3.23,2.27,6.82,3.81,9.83,.82,1.54,1.68,3.16,2.71,4.55,.59,.81,1.61,1.17,1.83,2.49-1.03,1.47-1.1,3.67-1.68,5.5-2.64,8.29-1.61,18.55,2.13,24.64,1.18,1.83,3.95,5.87,7.7,4.33,3.3-1.32,2.56-5.5,3.52-9.17,.22-.88,.07-1.47,.51-2.05v.15l3.01,6.09c2.27,3.59,6.23,7.33,9.53,9.83,1.76,1.32,3.15,3.59,5.35,4.4v-.22h-.14c-.44-.66-1.1-.95-1.69-1.47-1.32-1.32-2.79-2.93-3.81-4.4-3.08-4.11-5.79-8.65-8.21-13.35-1.18-2.27-2.2-4.77-3.15-7.04-.44-.88-.44-2.2-1.18-2.64-1.1,1.61-2.71,3.01-3.52,4.99-1.39,3.15-1.54,7.04-2.05,11.07-.3,.07-.16,0-.3,.15-2.34-.59-3.15-3.01-4.03-5.06-2.2-5.21-2.57-13.57-.66-19.58,.51-1.54,2.72-6.38,1.84-7.85-.44-1.39-1.91-2.2-2.72-3.3-.95-1.39-1.98-3.15-2.64-4.69-1.76-4.11-2.64-8.65-4.55-12.76-.88-1.91-2.42-3.89-3.67-5.65-1.39-1.98-2.93-3.37-4.03-5.72-.37-.81-.88-2.13-.29-3.01,.14-.59,.44-.81,1.02-.95,.95-.81,3.67,.22,4.62,.66,2.71,1.1,4.99,2.13,7.26,3.67,1.03,.73,2.13,2.13,3.45,2.5h1.54c2.35,.51,4.99,.15,7.18,.81,3.89,1.25,7.41,3.08,10.56,5.06,9.61,6.09,17.53,14.74,22.88,25.08,.88,1.69,1.25,3.23,2.05,4.99,1.54,3.59,3.45,7.26,4.99,10.78,1.54,3.45,3.01,6.97,5.21,9.83,1.1,1.54,5.5,2.35,7.48,3.15,1.47,.66,3.74,1.25,5.06,2.05,2.49,1.54,4.99,3.3,7.33,4.99,1.17,.88,4.84,2.71,5.06,4.18h0Zm-74.79-63.74c-1.01,0-2.02,.11-3,.37v.15h.14c.59,1.17,1.61,1.98,2.35,3.01l1.69,3.52,.14-.15c1.03-.73,1.54-1.91,1.54-3.67-.44-.51-.51-1.03-.88-1.54-.44-.73-1.39-1.1-1.98-1.69h0Z" style="fill: #00678c; fill-rule: evenodd;"/>
    <path d="M239.26,197.65h27.58c3.23,0,6.31-.66,8.8-1.83,4.18-1.91,6.16-4.47,6.16-7.85v-7.04c0-2.71-2.27-5.28-6.82-7.04-2.35-.88-5.28-1.39-8.14-1.39h-11.59c-3.89,0-5.72-1.18-6.23-3.74-.07-.29-.07-.59-.07-.88v-4.33c0-.22,0-.51,.07-.81,.51-1.98,1.54-2.5,4.93-2.86h28.23v-6.38h-26.84c-3.89,0-5.94,.22-7.78,.81-5.65,1.76-8.14,4.55-8.14,9.46v5.58c0,4.32,4.84,7.99,13.05,8.87,.88,.07,1.83,.07,2.79,.07h9.9c.37,0,.73,0,1.02,.07,3.01,.29,4.33,.81,5.21,1.9,.59,.59,.73,1.1,.73,1.76v5.57c0,.66-.44,1.54-1.32,2.27-.88,.73-2.28,1.25-4.11,1.32-.37,0-.58,.07-.95,.07h-26.49v6.38Zm102.23-11.07c0,6.53,4.93,10.19,14.74,10.93,.95,.07,1.83,.14,2.79,.14h24.94v-6.38h-25.15c-5.58,0-7.7-1.39-7.7-4.77v-33h-9.63v33.08h.02Zm-53.61,.29v-22.73c0-5.79,4.11-9.32,12.1-10.41,.88-.07,1.76-.15,2.56-.15h18.19c.95,0,1.76,.07,2.72,.15,7.99,1.1,12.03,4.62,12.03,10.41v22.73c0,4.69-1.68,7.19-5.65,8.88l9.39,8.5h-11.07l-7.63-6.89-7.7,.44h-10.27c-1.88,0-3.75-.26-5.57-.73-6.08-1.69-9.09-4.91-9.09-10.2Zm10.34-.51c0,.29,.16,.58,.22,.95,.51,2.64,3,4.11,6.82,4.11h8.66l-7.92-7.19h11.07l6.97,6.31c1.32-.73,2.13-1.76,2.42-3.08,.07-.29,.07-.66,.07-.95v-21.78c0-.29,0-.58-.07-.88-.51-2.49-3-3.88-6.75-3.88h-14.45c-4.25,0-7.04,1.83-7.04,4.76v21.64Z" style="fill: #ce8b2c; fill-rule: evenodd;"/>
  </g>
</svg>