<?xml version="1.0" encoding="UTF-8"?>
<svg id="Layer_1" data-name="Layer 1" xmlns="http://www.w3.org/2000/svg" width="512" height="270" viewBox="0 0 512 270">
  <path d="M155.78,136.57h-15.51v-15.6h16.35c5.98,0,8.98,2.64,8.98,7.92s-3.27,7.68-9.82,7.68m11.15-15.78c-2.14-1.9-5.1-2.85-8.92-2.85l-22.21,.12v37.31h4.47l-.04-15.88h16.53c4.14,0,7.41-.95,9.79-2.85,2.38-1.9,3.57-4.54,3.57-7.92s-1.06-6.02-3.19-7.92h0Zm28.96,26.74c-.43,1.22-1.16,2.31-2.12,3.17-2,1.96-5.06,2.93-9.18,2.93-3.72,0-6.56-.94-8.55-2.85s-2.98-4.45-2.98-7.63c0-1.66,.26-3.13,.78-4.42s1.27-2.37,2.26-3.26c2.06-1.87,4.89-2.81,8.49-2.81,7.99,0,11.98,3.5,11.98,10.49,0,1.66-.23,3.12-.67,4.38m.81-13.76c-2.73-2.49-6.76-3.74-12.11-3.74-5.05,0-8.96,1.27-11.71,3.81-2.49,2.3-3.74,5.4-3.74,9.3s1.28,7,3.85,9.38c1.42,1.28,3.07,2.21,4.95,2.79s4.1,.86,6.64,.86c5.32,0,9.35-1.23,12.15-3.69,2.49-2.25,3.74-5.35,3.74-9.34s-1.26-7.14-3.77-9.38h0Zm33.83,14.86c0,5.02-4.5,7.53-13.5,7.53-2.75,0-5.07-.17-6.95-.52s-3.41-.93-4.59-1.73c-.91-.61-1.65-1.44-2.16-2.41-.53-.99-.88-2.23-1.04-3.74l4.19-.04c0,1.98,.73,3.43,2.2,4.37,1.57,1.12,4.36,1.68,8.36,1.68,6.29,0,9.43-1.58,9.43-4.73,0-1.84-1.07-3.11-3.16-3.81-.43-.13-2.97-.49-7.62-1.06s-7.56-1.09-8.71-1.54c-2.48-.99-3.72-2.77-3.72-5.33s1.11-4.38,3.34-5.61c1.1-.51,2.47-.9,4.11-1.18,1.65-.28,3.55-.42,5.71-.42,8.66,0,12.99,2.72,12.99,8.15h-3.98c0-3.82-3.05-5.75-9.13-5.75-3.1,0-5.41,.4-6.93,1.16s-2.28,1.96-2.28,3.57c0,1.5,1.03,2.58,3.08,3.25,1.2,.35,3.97,.75,8.29,1.2,3.87,.35,6.53,.84,7.97,1.47,2.75,1.07,4.13,2.89,4.13,5.45l-.03,.04Zm16.45,6.81l-1.7,.24-1.06,.08c-2.73,0-4.68-.39-5.9-1.19s-1.81-2.17-1.81-4.14v-17.05h-4.95v-2.5h4.93l.04-8.04h3.82v8.04h6.65v2.54l-6.65-.04v16.57c0,1.23,.33,2.08,.98,2.54s1.82,.7,3.51,.7c.24,.03,.51,.02,.8-.03,.45-.08,.89-.18,1.32-.3l.04,2.54v.03Zm26.39-5.65c-1.04,.86-2.23,1.51-3.56,1.96s-2.87,.67-4.61,.67c-7.98,0-11.97-3.3-11.97-9.89,0-3.07,1.02-5.47,3.06-7.21s4.92-2.6,8.63-2.6,6.57,.88,8.51,2.62,2.9,4.09,2.9,7.03c0,3.2-.99,5.67-2.96,7.41m6.78-18.89h-3.82l-.04,4.21c-1.68-1.71-2.89-2.79-3.61-3.24-2.14-1.18-4.9-1.76-8.29-1.76-4.97,0-8.76,1.14-11.38,3.4-2.49,2.08-3.73,5.1-3.73,9.05,0,1.95,.31,3.69,.94,5.21s1.54,2.84,2.75,3.9c2.62,2.19,6.33,3.28,11.12,3.28,5.75,0,9.83-1.57,12.24-4.72v4.36c0,2.78-.88,4.93-2.62,6.45s-4.63,2.27-8.64,2.27c-3.77,0-6.45-.53-8.05-1.56-1.2-.8-2.03-2.18-2.49-4.15h-3.93c.43,2.75,1.6,4.74,3.47,5.96,2.19,1.41,5.88,2.12,11.09,2.12,9.97,0,14.97-3.71,14.97-11.12v-23.67h.01Zm20.65,2.47c-1.15-.19-2.22-.27-3.2-.27-6.27,0-9.41,3.44-9.41,10.32v11.97h-3.78l-.04-24.48,3.82,.04v4.37h.2c.64-1.72,1.66-3.03,3.04-3.92,1.52-.86,3.79-1.29,6.81-1.29h2.56v3.26Zm3.55,8.23c.48-2.78,1.56-4.94,3.24-6.46,1.1-.88,2.34-1.55,3.73-1.99s2.94-.66,4.69-.66c3.39,0,6.15,.93,8.31,2.79s3.22,3.97,3.22,6.32h-23.19m23.56-7.55c-1.34-1.34-2.99-2.33-4.97-2.97s-4.28-.96-6.95-.96c-4.94,0-8.78,1.15-11.51,3.45s-4.09,5.43-4.09,9.38,1.31,7.08,3.93,9.42c2.83,2.57,6.82,3.85,11.98,3.85,2.06,0,3.96-.23,5.71-.7s3.28-1.13,4.59-1.98c2.3-1.65,3.75-3.69,4.37-6.11h-4.13c-1.42,4.19-4.94,6.28-10.58,6.28-3.98,0-7.04-1.02-9.17-3.07-1.84-1.75-2.76-4.03-2.76-6.82h27.21c0-4.15-1.2-7.41-3.65-9.76h.01Z" style="fill: #231f20;"/>
  <path d="M371.91,145.36c0,7.27-5.86,10.9-17.59,10.9-7.03,0-12.15-1.25-15.39-3.74-2.65-2.06-3.97-5.2-3.97-9.42h4.72c0,6.79,4.88,10.18,14.63,10.18,4.68,0,8.06-.69,10.16-2.08,1.76-1.23,2.65-3.15,2.65-5.76s-1.2-4.4-3.61-5.45c-1.36-.56-4.68-1.27-9.98-2.12-6.65-1.02-10.97-2.03-12.95-3.04-2.86-1.5-4.28-4.03-4.28-7.61,0-3.34,1.2-5.82,3.65-7.45,2.62-1.79,7.11-2.68,13.47-2.68,11.49,0,17.24,3.82,17.24,11.45h-4.76c0-5.72-4.27-8.58-12.8-8.58-4.28,0-7.41,.57-9.39,1.74-1.87,1.23-2.81,3.03-2.81,5.41s1.2,4.24,3.61,5.25c1.28,.59,5.05,1.4,11.31,2.45,5.88,.88,9.85,1.91,11.89,3.07,2.81,1.44,4.21,3.94,4.21,7.48h-.01Zm38.35,3.71c-1.76,1.41-3.76,2.47-5.98,3.18s-4.71,1.06-7.46,1.06c-5.62,0-10.16-1.51-13.62-4.54s-5.19-7.06-5.19-12.1,1.72-9.35,5.15-12.28,7.99-4.4,13.66-4.4,10.27,1.53,13.56,4.6c1.74,1.5,3.02,3.24,3.85,5.24s1.24,4.28,1.24,6.84c0,5.23-1.74,9.36-5.22,12.4m2.51,2.47c2.46-1.73,4.28-3.84,5.46-6.3s1.77-5.32,1.77-8.55c0-5.79-1.92-10.42-5.77-13.94-2.06-1.92-4.54-3.35-7.46-4.28s-6.24-1.4-9.98-1.4c-7.27,0-12.96,1.76-17.11,5.29s-6.21,8.3-6.21,14.33,2.09,10.61,6.27,14.21c4.18,3.6,9.89,5.41,17.13,5.41,2.83,0,5.3-.19,7.41-.57s3.9-.97,5.37-1.76l6.97,4.83,2.91-2.68-6.75-4.58h-.01Zm42.56,3.82h-32.27v-37.36l4.43-.08v34.31h27.86l-.04,3.12h.01Z" style="fill: #367faf;"/>
  <path d="M105.2,149.09c.45-3.17,.31-3.63,3.1-3.12l.71,.05c2.14,.08,4.94-.29,6.59-.94,3.54-1.39,5.64-3.72,2.15-3.11-7.96,1.39-8.51-.9-8.51-.9,8.41-10.58,11.93-24,8.89-27.29-8.29-8.96-22.6-4.72-22.86-4.61h-.08c-1.57-.26-3.34-.43-5.31-.45-3.6-.05-6.34,.8-8.41,2.13,0,0-25.56-8.93-24.37,11.23,.25,4.29,7.25,32.44,15.59,23.93,3.05-3.11,6-5.74,6-5.74,1.54,.86,3.3,1.24,5.05,1.09l.14-.1c-.04,.39-.03,.76,.06,1.21-2.15,2.04-1.52,2.39-5.82,3.14-4.35,.76-1.79,2.11-.13,2.47,2.02,.43,6.7,1.04,9.86-2.71l-.13,.43c.84,.57,.79,4.11,.91,6.64s.32,4.89,.93,6.28,1.33,4.97,6.97,3.95c4.72-.86,8.33-2.09,8.66-13.57" style="fill: #231f20; stroke: #231f20; stroke-width: 4.11px;"/>
  <path d="M117.74,141.98c-7.96,1.39-8.51-.9-8.51-.9,8.41-10.58,11.93-24.01,8.89-27.29-8.28-8.96-22.6-4.72-22.86-4.61h-.08c-1.57-.26-3.34-.43-5.31-.45-3.6-.05-6.34,.8-8.41,2.13,0,0-25.56-8.93-24.37,11.23,.25,4.29,7.25,32.44,15.59,23.93,3.05-3.11,6-5.74,6-5.74,1.54,.86,3.3,1.24,5.05,1.09l.14-.1c-.04,.39-.02,.76,.06,1.21-2.15,2.04-1.52,2.39-5.81,3.14-4.35,.76-1.79,2.11-.13,2.47,2.02,.43,6.7,1.04,9.86-2.71l-.13,.43c.84,.57,1.43,3.72,1.34,6.57s-.17,4.81,.5,6.34,1.33,4.97,6.98,3.95c4.72-.86,7.17-3.08,7.51-6.79,.24-2.64,.79-2.25,.82-4.6l.44-1.11c.51-3.57,.08-4.72,2.99-4.19l.71,.05c2.14,.08,4.94-.29,6.59-.94,3.54-1.39,5.64-3.72,2.15-3.11h0Z" style="fill: #417ba2;"/>
  <g>
    <g>
      <path d="M88.2,144.03c-.22,6.65,.05,13.34,.82,14.97s2.41,4.79,8.06,3.76c4.72-.86,6.44-2.52,7.18-6.18,.53-2.7,1.61-10.18,1.74-11.72m-24.58-34.15s-25.59-8.86-24.39,11.3c.27,4.29,7.25,32.44,15.6,23.92,3.05-3.11,5.81-5.55,5.81-5.55m16.82-31.29c-.89,.24,14.23-4.68,22.82,4.62,3.03,3.29-.48,16.71-8.89,27.29" style="fill: none; stroke: #fff; stroke-linecap: round; stroke-linejoin: round; stroke-width: 1.37px;"/>
      <path d="M109.17,141s.53,2.29,8.51,.89c3.49-.61,1.39,1.71-2.15,3.11-2.91,1.14-9.42,1.44-9.52-.14-.27-4.08,3.43-2.84,3.16-3.86-.24-.92-1.9-1.82-2.99-4.07-.96-1.96-13.11-17.03,3.37-14.79,.6-.11-4.3-13.29-19.72-13.5s-14.91,16.08-14.91,16.08" style="fill: none; stroke: #fff; stroke-linecap: round; stroke-linejoin: bevel; stroke-width: 1.37px;"/>
    </g>
    <g>
      <path d="M83.89,142.4c-2.15,2.04-1.52,2.39-5.82,3.14-4.35,.76-1.79,2.11-.13,2.47,2.02,.43,6.7,1.04,9.86-2.72,.96-1.14,0-2.97-1.33-3.43-.64-.22-1.49-.51-2.59,.53h0Z" style="fill: none; stroke: #fff; stroke-linejoin: round; stroke-width: 1.37px;"/>
      <path d="M83.75,142.36c-.22-1.2,.46-2.62,1.19-4.29,1.1-2.5,3.62-5,1.6-12.93-1.51-5.91-11.62-1.23-11.63-.43s.46,4.06-.17,7.86c-.82,4.96,3.72,9.14,8.94,8.72" style="fill: none; stroke: #fff; stroke-linecap: round; stroke-linejoin: round; stroke-width: 1.37px;"/>
    </g>
  </g>
  <g>
    <path d="M81.34,124.59c-.05,.27,.59,1,1.42,1.1s1.54-.47,1.58-.75-.59-.57-1.42-.67-1.54,.05-1.58,.32Z" style="fill: #fff; stroke: #fff; stroke-width: .46px;"/>
    <path d="M106.58,124.04c.05,.27-.59,1-1.42,1.1s-1.54-.47-1.58-.75,.59-.57,1.42-.67,1.54,.04,1.58,.32h0Z" style="fill: #fff; stroke: #fff; stroke-width: .23px;"/>
  </g>
  <path d="M109.55,122.14c.14,2.15-.55,3.61-.63,5.9-.13,3.32,1.87,7.12-1.14,10.93" style="fill: none; stroke: #fff; stroke-linecap: round; stroke-linejoin: round; stroke-width: 1.37px;"/>
</svg>
