<svg width="1180" height="283" viewBox="0 0 1180 283" fill="none" xmlns="http://www.w3.org/2000/svg">
<path d="M984.576 210.875C1029.15 210.875 1055.57 183.155 1055.57 137.195C1055.57 91.3788 1029.15 63.8027 985.576 63.8027H935.006V210.875H984.576ZM961.505 187.823V86.8546H984.076C1013.79 86.8546 1029.29 103.515 1029.29 137.195C1029.29 171.019 1013.79 187.823 983.29 187.823H961.505Z" fill="black"/>
<path d="M1070.41 210.875H1129.62C1163.12 210.875 1179.55 193.712 1179.55 170.804C1179.55 148.542 1163.83 135.472 1148.26 134.682V133.246C1162.55 129.87 1173.83 119.817 1173.83 101.935C1173.83 80.0324 1158.12 63.8027 1126.4 63.8027H1070.41V210.875ZM1096.91 188.613V145.526H1126.12C1142.48 145.526 1152.62 155.579 1152.62 168.721C1152.62 180.427 1144.62 188.613 1125.4 188.613H1096.91ZM1096.91 126.352V85.7774H1123.69C1139.26 85.7774 1147.33 94.0359 1147.33 105.382C1147.33 118.309 1136.9 126.352 1123.12 126.352H1096.91Z" fill="black"/>
<path d="M504.66 137.488C504.66 90.9291 476.401 63.5 438.839 63.5C401.207 63.5 373.018 90.9291 373.018 137.488C373.018 183.977 401.207 211.477 438.839 211.477C447.932 211.477 456.466 209.859 464.23 206.764L476.051 221.886H501.232L481.367 196.285C495.777 183.626 504.66 163.581 504.66 137.488ZM430.025 161.12L449.401 186.72C446.043 187.634 442.546 188.056 438.839 188.056C415.546 188.056 399.108 170.263 399.108 137.488C399.108 104.714 415.546 86.9203 438.839 86.9203C462.201 86.9203 478.569 104.714 478.569 137.488C478.569 155.212 473.813 168.504 465.699 177.014L453.528 161.12H430.025Z" fill="black"/>
<path d="M588.255 162.147C588.255 178.605 576.574 186.763 565.382 186.763C553.211 186.763 545.097 178.113 545.097 164.398V99.5528H519.776V168.337C519.776 194.289 534.259 209.752 555.383 209.752C571.471 209.752 583.009 200.478 587.906 188.381H589.025V209.752H613.577V99.5528H588.255V162.147Z" fill="black"/>
<path d="M680.708 211.617C705.749 211.617 722.957 199.309 727.433 180.531L703.791 177.858C700.363 187.001 691.97 191.784 681.058 191.784C664.69 191.784 653.848 180.953 653.638 162.456H728.483V154.649C728.483 116.741 705.819 100.072 679.379 100.072C648.602 100.072 628.527 122.789 628.527 156.126C628.527 190.026 648.322 211.617 680.708 211.617ZM653.708 145.295C654.477 131.51 664.62 119.906 679.729 119.906C694.278 119.906 704.071 130.596 704.211 145.295H653.708Z" fill="black"/>
<path d="M831.393 130.033C827.896 111.747 813.347 100.072 788.165 100.072C762.285 100.072 744.658 112.872 744.728 132.846C744.658 148.601 754.311 159.01 774.945 163.3L793.272 167.168C803.134 169.348 807.751 173.357 807.751 179.476C807.751 186.861 799.777 192.417 787.746 192.417C776.134 192.417 768.58 187.353 766.412 177.647L741.72 180.039C744.868 199.872 761.445 211.617 787.816 211.617C814.676 211.617 833.632 197.621 833.702 177.155C833.632 161.753 823.769 152.328 803.484 147.897L785.158 143.959C774.246 141.497 769.909 137.699 769.979 131.44C769.909 124.125 777.953 119.062 788.515 119.062C800.197 119.062 806.352 125.462 808.31 132.565L831.393 130.033Z" fill="black"/>
<path d="M908.483 101.479H887.289V75.597H861.968V101.479H846.719V121.171H861.968V181.234C861.828 201.56 876.517 211.547 895.543 210.984C902.748 210.773 907.714 209.367 910.442 208.452L906.175 188.549C904.776 188.9 901.908 189.533 898.761 189.533C892.395 189.533 887.289 187.283 887.289 177.014V121.171H908.483V101.479Z" fill="black"/>
<g clip-path="url(#clip0)">
<path d="M54.3733 141.617C54.3733 92.7218 94.5908 53.3338 144.516 53.3338C162.545 53.3338 179.186 58.3139 193.054 67.3686L231.885 29.7915C207.847 11.6821 177.337 0.816406 144.516 0.816406C65.0055 0.816406 0.75 63.7467 0.75 141.617C0.75 219.488 65.0055 282.418 144.516 282.418V229.901C94.5908 229.901 54.3733 190.513 54.3733 141.617Z" fill="url(#paint0_linear)"/>
<path d="M234.656 141.618H288.28C288.28 104.494 273.487 70.5387 249.449 45.1855L211.543 82.3099C225.873 98.1556 234.656 118.981 234.656 141.618Z" fill="url(#paint1_linear)"/>
<path d="M188.431 146.146H109.383L248.988 282.873L327.574 282.42L188.431 146.146Z" fill="url(#paint2_linear)"/>
<path opacity="0.6" d="M19.7028 71.4473C-14.9674 170.144 88.5811 211.343 88.5811 211.343C77.4866 203.193 63.6185 184.179 59.4581 170.596C50.6749 142.527 53.4485 120.343 67.7789 95.895" fill="url(#paint3_linear)"/>
</g>
<defs>
<linearGradient id="paint0_linear" x1="324.34" y1="283.316" x2="72.659" y2="22.6459" gradientUnits="userSpaceOnUse">
<stop stop-color="#892C6C"/>
<stop offset="1" stop-color="#D14671"/>
</linearGradient>
<linearGradient id="paint1_linear" x1="58.5308" y1="17.5099" x2="319.201" y2="279.464" gradientUnits="userSpaceOnUse">
<stop stop-color="#C34170"/>
<stop offset="1" stop-color="#8B2C6C"/>
</linearGradient>
<linearGradient id="paint2_linear" x1="312.783" y1="276.898" x2="46.9766" y2="17.5118" gradientUnits="userSpaceOnUse">
<stop stop-color="#882B6B"/>
<stop offset="1" stop-color="#CF4671"/>
</linearGradient>
<linearGradient id="paint3_linear" x1="35.2576" y1="192.381" x2="71.5179" y2="89.5761" gradientUnits="userSpaceOnUse">
<stop stop-color="white" stop-opacity="0.38"/>
<stop offset="0.8598" stop-color="white" stop-opacity="0.01"/>
<stop offset="1" stop-color="white" stop-opacity="0"/>
</linearGradient>
<clipPath id="clip0">
<rect width="326.825" height="282.054" fill="white" transform="translate(0.75 0.816406)"/>
</clipPath>
</defs>
</svg>
