<svg xmlns="http://www.w3.org/2000/svg" xmlns:xlink="http://www.w3.org/1999/xlink" viewBox="0 0 95 23"><defs><path id="reuse-0" fill-opacity=".6" d="M0 0h95v23H0z"/></defs><defs><linearGradient id="e" x1="323.795" x2="72.114" y1="283.316" y2="22.646" gradientTransform="scale(.08058 .08127)" gradientUnits="userSpaceOnUse"><stop offset="0" stop-color="#892c6c"/><stop offset="1" stop-color="#d14671"/></linearGradient><linearGradient id="f" x1="57.988" x2="318.658" y1="17.51" y2="279.464" gradientTransform="scale(.08058 .08127)" gradientUnits="userSpaceOnUse"><stop offset="0" stop-color="#c34170"/><stop offset="1" stop-color="#8b2c6c"/></linearGradient><linearGradient id="h" x1="312.238" x2="46.432" y1="276.898" y2="17.512" gradientTransform="scale(.08058 .08127)" gradientUnits="userSpaceOnUse"><stop offset="0" stop-color="#882b6b"/><stop offset="1" stop-color="#cf4671"/></linearGradient><linearGradient id="c" x1="34.713" x2="70.973" y1="192.381" y2="89.576" gradientTransform="scale(.08058 .08127)" gradientUnits="userSpaceOnUse"><stop offset="0" stop-color="#fff" stop-opacity=".38"/><stop offset=".86" stop-color="#fff" stop-opacity=".012"/><stop offset="1" stop-color="#fff" stop-opacity="0"/></linearGradient><clipPath id="d"><path d="M.016.066H19v22.922H.016zm0 0"/></clipPath><clipPath id="g"><path d="M8 11h18.352v11.988H8zm0 0"/></clipPath><clipPath id="i"><path d="M.016.066h26.336v22.922H.016zm0 0"/></clipPath><clipPath id="b"><use xlink:href="#reuse-0"/></clipPath><filter id="a" width="100%" height="100%" x="0%" y="0%" filterUnits="objectBoundingBox"><feColorMatrix in="SourceGraphic" values="0 0 0 0 1 0 0 0 0 1 0 0 0 0 1 0 0 0 1 0"/></filter><mask id="k"><g filter="url(#a)"><use fill-opacity=".6" xlink:href="#reuse-0"/></g></mask><g id="j" clip-path="url(#b)"><path fill="url(#c)" d="M1.543 5.809c-2.793 8.02 5.55 11.367 5.55 11.367-.894-.66-2.011-2.207-2.347-3.313-.707-2.281-.484-4.082.672-6.07"/></g></defs><path fill="#fff" d="M79.29 17.137c3.593 0 5.722-2.25 5.722-5.989 0-3.722-2.13-5.964-5.64-5.964h-4.075v11.953zm-1.86-1.871V7.059h1.82c2.395 0 3.64 1.355 3.64 4.09 0 2.75-1.245 4.117-3.703 4.117zm8.777 1.87h4.77c2.699 0 4.023-1.394 4.023-3.253 0-1.809-1.266-2.871-2.52-2.938v-.117c1.149-.273 2.06-1.09 2.06-2.543 0-1.781-1.267-3.101-3.821-3.101h-4.512zm2.133-1.808v-3.5h2.355c1.317 0 2.133.817 2.133 1.883 0 .953-.644 1.617-2.191 1.617zm0-5.058V6.973h2.16c1.254 0 1.906.668 1.906 1.593 0 1.047-.844 1.704-1.953 1.704zm-47.719.906c0-3.785-2.277-6.016-5.305-6.016-3.03 0-5.304 2.23-5.304 6.016 0 3.777 2.273 6.012 5.304 6.012.735 0 1.422-.133 2.047-.383l.953 1.226h2.028l-1.602-2.078c1.16-1.031 1.88-2.66 1.88-4.777zm-6.016 1.918l1.563 2.082a3.2 3.2 0 01-.852.11c-1.879 0-3.203-1.45-3.203-4.11 0-2.664 1.325-4.113 3.203-4.113 1.883 0 3.204 1.449 3.204 4.113 0 1.437-.387 2.52-1.04 3.21l-.98-1.292zm12.75.086c0 1.336-.94 2-1.843 2-.98 0-1.633-.703-1.633-1.82V8.09h-2.04v5.59c0 2.11 1.165 3.367 2.868 3.367 1.297 0 2.227-.754 2.621-1.738h.09v1.738h1.977V8.09h-2.04zm7.45 4.02c2.02 0 3.406-1 3.765-2.528l-1.906-.219c-.273.746-.953 1.133-1.832 1.133-1.316 0-2.191-.879-2.207-2.383h6.031v-.633c0-3.082-1.828-4.437-3.957-4.437-2.48 0-4.097 1.847-4.097 4.554 0 2.758 1.593 4.512 4.203 4.512zm-2.176-5.391c.062-1.121.879-2.063 2.098-2.063 1.171 0 1.96.867 1.972 2.063zm14.316-1.243c-.28-1.484-1.453-2.433-3.48-2.433-2.086 0-3.508 1.039-3.5 2.664-.008 1.281.77 2.125 2.433 2.476l1.477.313c.797.176 1.168.504 1.168 1 0 .602-.645 1.05-1.613 1.05-.934 0-1.543-.41-1.72-1.198l-1.987.195c.254 1.61 1.59 2.566 3.715 2.566 2.164 0 3.69-1.136 3.695-2.8-.004-1.254-.801-2.02-2.434-2.38l-1.476-.32c-.88-.199-1.23-.508-1.223-1.015-.008-.594.64-1.008 1.492-1.008.942 0 1.438.52 1.594 1.097zm6.215-2.32h-1.71V6.145h-2.04v2.101h-1.226v1.602h1.226v4.882c-.012 1.653 1.172 2.461 2.707 2.418.578-.02.98-.132 1.2-.207l-.344-1.617a2.604 2.604 0 01-.598.078c-.512 0-.926-.18-.926-1.015v-4.54h1.711zm0 0"/><g clip-path="url(#d)"><path fill="url(#e)" d="M4.336 11.508c0-3.973 3.242-7.172 7.266-7.172 1.453 0 2.793.402 3.91 1.14l3.129-3.054A11.63 11.63 0 0011.6.066C5.196.066.017 5.18.017 11.508c0 6.332 5.18 11.445 11.586 11.445v-4.27c-4.024 0-7.266-3.199-7.266-7.175zm0 0"/></g><path fill="url(#f)" d="M18.863 11.508h4.32c0-3.016-1.19-5.774-3.128-7.836L17 6.692a7.192 7.192 0 011.863 4.816zm0 0"/><g clip-path="url(#g)"><path fill="url(#h)" d="M15.14 11.879H8.77l11.25 11.11 6.332-.036zm0 0"/></g><g clip-path="url(#i)"><use mask="url(#k)" xlink:href="#j"/></g></svg>
