<?xml version="1.0" encoding="UTF-8" standalone="no"?>
<!-- Created with Inkscape (http://www.inkscape.org/) -->

<svg
   width="1100"
   height="300"
   viewBox="0 0 291.04166 79.375002"
   version="1.1"
   id="svg93"
   inkscape:version="1.1.2 (b8e25be8, 2022-02-05)"
   sodipodi:docname="rwreadme.svg"
   xmlns:inkscape="http://www.inkscape.org/namespaces/inkscape"
   xmlns:sodipodi="http://sodipodi.sourceforge.net/DTD/sodipodi-0.dtd"
   xmlns="http://www.w3.org/2000/svg"
   xmlns:svg="http://www.w3.org/2000/svg">
  <sodipodi:namedview
     id="namedview95"
     pagecolor="#ffffff"
     bordercolor="#666666"
     borderopacity="1.0"
     inkscape:pageshadow="2"
     inkscape:pageopacity="0.0"
     inkscape:pagecheckerboard="0"
     inkscape:document-units="mm"
     showgrid="false"
     units="px"
     inkscape:zoom="0.39692378"
     inkscape:cx="578.19665"
     inkscape:cy="137.30596"
     inkscape:window-width="1584"
     inkscape:window-height="1027"
     inkscape:window-x="336"
     inkscape:window-y="25"
     inkscape:window-maximized="0"
     inkscape:current-layer="g19" />
  <defs
     id="defs90">
    <style
       id="style97">.cls-1{fill:#3a7ceb;}.cls-2{fill:#e23e2b;}.cls-3{fill:#f0b400;}.cls-4{fill:#4acfd2;}</style>
    <clipPath
       clipPathUnits="userSpaceOnUse"
       id="clipPath23">
      <path
         d="M 0,1080 H 1920 V 0 H 0 Z"
         id="path21" />
    </clipPath>
    <clipPath
       clipPathUnits="userSpaceOnUse"
       id="clipPath91">
      <path
         d="M 0,1080 H 1920 V 0 H 0 Z"
         id="path89" />
    </clipPath>
  </defs>
  <g
     inkscape:label="Layer 1"
     inkscape:groupmode="layer"
     id="layer1">
    <g
       id="g19"
       clip-path="url(#clipPath23)"
       transform="matrix(0.35277777,0,0,-0.35277777,-280.32591,259.26734)">
      <g
         id="g355"
         transform="matrix(1.7,0,0,1.7,-756.33217,-454.30518)">
        <g
           id="g25"
           transform="translate(1074.2552,637.33841)">
          <path
             d="m 0,0 h 1.913 c 1.998,0 3.532,0.414 4.601,1.241 1.068,0.827 1.602,2.016 1.602,3.567 0,1.55 -0.534,2.739 -1.602,3.567 -1.069,0.827 -2.603,1.24 -4.601,1.24 H 0 Z M 22.28,-21.557 H 9.667 L 0,-6.565 v -8.311 c 0,-3.689 -2.991,-6.681 -6.681,-6.681 h -3.451 V 17.421 H 5.635 c 2.171,0 4.066,-0.319 5.686,-0.956 1.62,-0.638 2.955,-1.508 4.007,-2.611 1.05,-1.103 1.843,-2.378 2.378,-3.825 0.533,-1.448 0.801,-2.999 0.801,-4.653 0,-2.964 -0.716,-5.368 -2.146,-7.211 -1.43,-1.844 -3.541,-3.094 -6.332,-3.748 z"
             style="fill:#3a7ceb;fill-opacity:1;fill-rule:nonzero;stroke:none"
             id="path27" />
        </g>
        <g
           id="g29"
           transform="translate(1108.2186,638.84481)">
          <path
             d="m 0,0 v -17.487 c 0,-3.079 -2.497,-5.576 -5.576,-5.576 h -3.78 V 3.456 h 5.9 C -1.547,3.456 0,1.909 0,0 m -9.977,13.64 c 0,0.724 0.138,1.404 0.414,2.042 0.275,0.637 0.654,1.197 1.137,1.68 0.482,0.482 1.042,0.861 1.68,1.138 0.638,0.275 1.318,0.413 2.042,0.413 0.724,0 1.404,-0.138 2.042,-0.413 0.637,-0.277 1.197,-0.656 1.68,-1.138 0.482,-0.483 0.861,-1.043 1.137,-1.68 0.276,-0.638 0.414,-1.318 0.414,-2.042 0,-0.723 -0.138,-1.405 -0.414,-2.042 C -0.121,10.96 -0.5,10.4 -0.982,9.918 -1.465,9.435 -2.025,9.056 -2.662,8.781 -3.3,8.504 -3.98,8.367 -4.704,8.367 c -0.724,0 -1.404,0.137 -2.042,0.414 -0.638,0.275 -1.198,0.654 -1.68,1.137 -0.483,0.482 -0.862,1.042 -1.137,1.68 -0.276,0.637 -0.414,1.319 -0.414,2.042"
             style="fill:#3a7ceb;fill-opacity:1;fill-rule:nonzero;stroke:none"
             id="path31" />
        </g>
        <g
           id="g33"
           transform="translate(1131.1708,635.47761)">
          <path
             d="m 0,0 c -1.724,0.896 -3.412,1.344 -5.066,1.344 -0.862,0 -1.56,-0.173 -2.094,-0.517 -0.534,-0.345 -0.801,-0.81 -0.801,-1.396 0,-0.31 0.043,-0.56 0.129,-0.749 0.086,-0.19 0.276,-0.371 0.569,-0.543 0.292,-0.173 0.723,-0.328 1.292,-0.466 0.569,-0.137 1.319,-0.31 2.249,-0.516 2.585,-0.517 4.514,-1.44 5.79,-2.766 1.274,-1.327 1.912,-3.024 1.912,-5.092 0,-1.551 -0.31,-2.946 -0.93,-4.187 -0.62,-1.241 -1.482,-2.284 -2.585,-3.128 -1.103,-0.845 -2.429,-1.499 -3.98,-1.964 -1.551,-0.465 -3.257,-0.698 -5.118,-0.698 -3.585,0 -7.117,1.016 -10.597,3.05 l 3.412,6.617 c 2.618,-1.793 5.099,-2.688 7.443,-2.688 0.861,0 1.568,0.189 2.12,0.569 0.551,0.378 0.827,0.86 0.827,1.447 0,0.344 -0.044,0.628 -0.129,0.853 -0.087,0.224 -0.268,0.43 -0.543,0.62 -0.276,0.189 -0.681,0.362 -1.215,0.517 -0.535,0.155 -1.232,0.318 -2.094,0.491 -2.894,0.586 -4.919,1.456 -6.073,2.611 -1.156,1.154 -1.732,2.748 -1.732,4.781 0,1.482 0.275,2.818 0.827,4.007 0.551,1.189 1.344,2.197 2.378,3.024 1.033,0.827 2.282,1.465 3.748,1.913 1.464,0.447 3.093,0.672 4.885,0.672 2.929,0 5.772,-0.569 8.529,-1.706 z"
             style="fill:#3a7ceb;fill-opacity:1;fill-rule:nonzero;stroke:none"
             id="path35" />
        </g>
        <g
           id="g37"
           transform="translate(1148.2289,638.84481)">
          <path
             d="m 0,0 v -17.487 c 0,-3.079 -2.497,-5.576 -5.576,-5.576 h -3.78 V 3.456 h 5.9 C -1.547,3.456 0,1.909 0,0 m -9.977,13.64 c 0,0.724 0.138,1.404 0.414,2.042 0.275,0.637 0.654,1.197 1.137,1.68 0.482,0.482 1.042,0.861 1.68,1.138 0.638,0.275 1.318,0.413 2.042,0.413 0.724,0 1.404,-0.138 2.042,-0.413 0.637,-0.277 1.197,-0.656 1.68,-1.138 0.482,-0.483 0.861,-1.043 1.137,-1.68 0.276,-0.638 0.414,-1.318 0.414,-2.042 0,-0.723 -0.138,-1.405 -0.414,-2.042 C -0.121,10.96 -0.5,10.4 -0.982,9.918 -1.465,9.435 -2.025,9.056 -2.662,8.781 -3.3,8.504 -3.98,8.367 -4.704,8.367 c -0.724,0 -1.404,0.137 -2.042,0.414 -0.638,0.275 -1.198,0.654 -1.68,1.137 -0.483,0.482 -0.862,1.042 -1.137,1.68 -0.276,0.637 -0.414,1.319 -0.414,2.042"
             style="fill:#3a7ceb;fill-opacity:1;fill-rule:nonzero;stroke:none"
             id="path39" />
        </g>
        <g
           id="g41"
           transform="translate(1153.6049,642.30081)">
          <path
             d="m 0,0 h 9.356 v -3.36 c 1.275,1.551 2.568,2.593 3.878,3.128 1.309,0.534 2.843,0.801 4.6,0.801 1.862,0 3.455,-0.302 4.782,-0.905 1.326,-0.603 2.456,-1.456 3.386,-2.559 0.758,-0.896 1.275,-1.896 1.551,-2.998 0.276,-1.103 0.414,-2.361 0.414,-3.774 v -11.276 c 0,-3.079 -2.497,-5.576 -5.576,-5.576 H 18.61 v 13.389 c 0,1.309 -0.095,2.369 -0.284,3.179 -0.19,0.809 -0.526,1.455 -1.008,1.939 -0.414,0.413 -0.879,0.705 -1.396,0.878 -0.517,0.173 -1.069,0.259 -1.654,0.259 -1.586,0 -2.801,-0.474 -3.645,-1.422 -0.845,-0.948 -1.267,-2.3 -1.267,-4.058 v -8.588 c 0,-3.079 -2.496,-5.576 -5.575,-5.576 H 0 Z"
             style="fill:#3a7ceb;fill-opacity:1;fill-rule:nonzero;stroke:none"
             id="path43" />
        </g>
        <g
           id="g45"
           transform="translate(1195.58,629.17041)">
          <path
             d="m 0,0 c 0,-0.862 0.155,-1.663 0.465,-2.404 0.31,-0.741 0.732,-1.388 1.267,-1.938 0.534,-0.552 1.171,-0.982 1.913,-1.292 0.74,-0.311 1.542,-0.466 2.403,-0.466 0.827,0 1.611,0.155 2.352,0.466 0.741,0.31 1.378,0.74 1.913,1.292 0.534,0.55 0.964,1.197 1.292,1.938 0.328,0.741 0.492,1.526 0.492,2.353 0,0.861 -0.164,1.654 -0.492,2.378 C 11.277,3.05 10.838,3.688 10.287,4.239 9.736,4.79 9.089,5.221 8.349,5.532 7.607,5.842 6.841,5.997 6.048,5.997 5.221,5.997 4.446,5.833 3.722,5.506 2.999,5.178 2.36,4.747 1.81,4.213 1.258,3.679 0.818,3.05 0.491,2.327 0.163,1.603 0,0.827 0,0 m 16.926,13.13 c 2.243,0 4.062,-1.818 4.062,-4.062 V -11.58 c 0,-1.482 -0.086,-2.808 -0.259,-3.98 -0.172,-1.171 -0.413,-2.205 -0.723,-3.102 -0.414,-1.137 -1.06,-2.196 -1.939,-3.179 -0.879,-0.982 -1.938,-1.835 -3.179,-2.558 -1.241,-0.725 -2.645,-1.293 -4.213,-1.706 -1.569,-0.414 -3.266,-0.621 -5.092,-0.621 -2.068,0 -3.963,0.259 -5.687,0.776 -1.723,0.516 -3.23,1.232 -4.522,2.145 -1.293,0.913 -2.353,1.982 -3.18,3.205 -0.827,1.224 -1.379,2.559 -1.654,4.006 H 1.085 c 0.655,-1.758 2.137,-2.636 4.446,-2.636 1.965,0 3.472,0.551 4.524,1.654 1.05,1.103 1.576,2.637 1.576,4.601 v 2.533 c -0.69,-0.655 -1.353,-1.198 -1.99,-1.628 -0.638,-0.432 -1.284,-0.785 -1.938,-1.06 -0.656,-0.276 -1.345,-0.474 -2.068,-0.595 -0.724,-0.12 -1.517,-0.181 -2.378,-0.181 -1.896,0 -3.636,0.328 -5.221,0.983 -1.586,0.654 -2.956,1.568 -4.11,2.739 -1.155,1.172 -2.051,2.576 -2.688,4.213 -0.638,1.637 -0.956,3.455 -0.956,5.454 0,2.033 0.343,3.92 1.033,5.661 0.689,1.74 1.629,3.256 2.818,4.549 1.189,1.292 2.601,2.308 4.239,3.05 1.636,0.74 3.42,1.111 5.35,1.111 3.136,0 5.772,-1.172 7.909,-3.515 v 2.791 z"
             style="fill:#3a7ceb;fill-opacity:1;fill-rule:nonzero;stroke:none"
             id="path47" />
        </g>
        <g
           id="g49"
           transform="translate(1230.2025,651.31941)">
          <path
             d="M 0,0 5.803,-21.735 14.074,3.44 h 8.064 L 30.409,-21.735 36.211,0 c 0.541,2.029 2.379,3.44 4.479,3.44 h 7.037 L 36.096,-35.538 H 25.757 l -7.651,22.591 -7.651,-22.591 H 0.116 L -11.515,3.44 h 7.036 C -2.379,3.44 -0.542,2.029 0,0"
             style="fill:#3a7ceb;fill-opacity:1;fill-rule:nonzero;stroke:none"
             id="path51" />
        </g>
        <g
           id="g53"
           transform="translate(1287.0272,629.11921)">
          <path
             d="m 0,0 c 0,-0.862 0.155,-1.664 0.465,-2.404 0.31,-0.742 0.732,-1.388 1.267,-1.939 0.534,-0.551 1.171,-0.982 1.913,-1.292 0.74,-0.31 1.542,-0.465 2.403,-0.465 0.827,0 1.611,0.155 2.352,0.465 0.741,0.31 1.378,0.741 1.913,1.292 0.534,0.551 0.964,1.189 1.292,1.913 0.328,0.724 0.492,1.499 0.492,2.326 0,0.828 -0.164,1.611 -0.492,2.353 -0.328,0.74 -0.758,1.386 -1.292,1.938 C 9.778,4.738 9.141,5.169 8.4,5.479 7.659,5.79 6.875,5.945 6.048,5.945 5.187,5.945 4.385,5.79 3.645,5.479 2.903,5.169 2.266,4.738 1.732,4.187 1.197,3.635 0.775,3.006 0.465,2.3 0.155,1.593 0,0.827 0,0 m 11.787,13.182 h 6.423 c 1.648,0 2.985,-1.336 2.985,-2.984 v -23.535 h -9.408 v 2.946 c -2,-2.516 -4.705,-3.774 -8.117,-3.774 -1.93,0 -3.705,0.354 -5.324,1.06 -1.62,0.706 -3.033,1.697 -4.239,2.973 -1.207,1.274 -2.146,2.774 -2.817,4.497 -0.672,1.723 -1.008,3.601 -1.008,5.635 0,1.895 0.327,3.696 0.982,5.402 0.654,1.706 1.568,3.196 2.739,4.472 1.172,1.274 2.567,2.282 4.188,3.023 1.619,0.741 3.412,1.112 5.376,1.112 3.308,0 6.048,-1.155 8.22,-3.464 z"
             style="fill:#3a7ceb;fill-opacity:1;fill-rule:nonzero;stroke:none"
             id="path55" />
        </g>
        <g
           id="g57"
           transform="translate(1322.8539,639.17391)">
          <path
             d="M 0,0 4.856,-10.468 9.806,0.03 c 0.892,1.891 2.794,3.097 4.884,3.097 h 7.018 L 7.906,-23.392 H 1.651 L -11.996,3.127 h 7.099 C -2.795,3.127 -0.884,1.907 0,0"
             style="fill:#3a7ceb;fill-opacity:1;fill-rule:nonzero;stroke:none"
             id="path59" />
        </g>
        <g
           id="g61"
           transform="translate(1364.8783,632.89261)">
          <path
             d="M 0,0 C -0.31,1.31 -0.948,2.36 -1.913,3.153 -2.878,3.946 -4.05,4.342 -5.428,4.342 -6.875,4.342 -8.056,3.963 -8.969,3.205 -9.882,2.447 -10.46,1.378 -10.701,0 Z m -10.959,-5.428 c 0,-4.032 1.895,-6.048 5.687,-6.048 2.032,0 3.566,0.827 4.6,2.481 h 9.047 c -1.828,-6.066 -6.394,-9.098 -13.699,-9.098 -2.241,0 -4.291,0.336 -6.152,1.008 -1.861,0.672 -3.456,1.628 -4.782,2.869 -1.327,1.241 -2.352,2.722 -3.075,4.446 -0.724,1.723 -1.086,3.652 -1.086,5.79 0,2.205 0.344,4.195 1.034,5.97 0.689,1.775 1.671,3.283 2.947,4.524 1.274,1.24 2.817,2.196 4.626,2.869 1.809,0.672 3.851,1.008 6.126,1.008 2.24,0 4.256,-0.336 6.048,-1.008 C 2.153,8.71 3.67,7.736 4.911,6.462 6.152,5.187 7.099,3.627 7.754,1.784 8.409,-0.061 8.736,-2.137 8.736,-4.446 v -0.982 z"
             style="fill:#3a7ceb;fill-opacity:1;fill-rule:nonzero;stroke:none"
             id="path63" />
        </g>
      </g>
      <g
         id="g65"
         transform="translate(834.46932,615.63096)"
         style="fill:#3a7ceb;fill-opacity:1">
        <path
           d="m 0,0 c 2.631,-2.663 5.385,-5.128 8.245,-7.398 7.412,-5.887 15.531,-10.457 24.042,-13.707 7.92,-3.025 16.177,-4.907 24.518,-5.645 25.774,-2.28 52.344,6.361 72.192,25.97 18.539,18.316 27.468,42.562 26.977,66.71 -1.092,5.997 -3.509,5.222 -3.427,8.318 0.575,-0.466 3.148,-2.951 5.036,-5.649 23.639,-35.608 19.594,-84.095 -11.954,-115.265 -28.918,-28.57 -72.105,-33.857 -106.307,-16.006 -8.184,4.272 -15.854,9.866 -22.69,16.786 -3.119,3.157 -5.96,6.485 -8.524,9.952 C 1.179,-26.566 -3.725,-16.178 -6.608,-5.365 -8.059,0.073 -8.999,5.618 -9.426,11.195 -6.631,7.278 -3.49,3.532 0,0"
           style="fill:#3a7ceb;fill-opacity:1;fill-rule:nonzero;stroke:none"
           id="path67" />
      </g>
      <g
         id="g69"
         transform="translate(893.24962,688.94836)">
        <path
           d="m 0,0 c 1.724,-1.745 2.919,-3.811 3.592,-6.004 0.215,-1.013 0.411,-2.032 0.592,-3.05 3.02,-17.13 1.122,-34.95 -5.679,-51.195 -2.925,13.93 -9.133,27.311 -18.638,38.906 -0.867,1.063 -1.768,2.11 -2.691,3.141 -4.817,5.221 -2.949,13.376 2.064,18.329 C -14.993,5.825 -5.698,5.767 0,0"
           style="fill:#e23e2b;fill-opacity:1;fill-rule:nonzero;stroke:none"
           id="path71" />
      </g>
      <g
         id="g73"
         transform="translate(903.34482,697.22136)">
        <path
           d="m 0,0 c 7.721,7.628 20.162,7.553 27.791,-0.168 4.886,-4.947 7.056,-11 5.637,-17.315 l -0.199,-0.886 C 29.492,-34.683 21.223,-50.161 8.436,-62.794 c -5.719,-5.651 -11.999,-10.39 -18.655,-14.22 -2.539,-1.463 -5.133,-2.791 -7.773,-3.99 2.476,4.025 4.608,8.199 6.402,12.483 6.8,16.244 8.698,34.064 5.678,51.194 -0.022,0.255 -0.235,1.283 -0.235,1.283 C -6.915,-10.163 -4.545,-4.491 0,0"
           style="fill:#f0b400;fill-opacity:1;fill-rule:nonzero;stroke:none"
           id="path75" />
      </g>
      <g
         id="g77"
         transform="translate(885.35312,616.21746)">
        <path
           d="m 0,0 c 2.64,1.199 5.234,2.527 7.773,3.99 6.656,3.83 12.935,8.569 18.655,14.22 12.786,12.633 21.056,28.111 24.792,44.425 0.2,0.873 0.296,1.518 0.473,2.409 1.024,5.123 3.642,9.917 7.64,13.867 10.654,10.527 27.456,11.077 38.355,-0.233 2.733,-2.837 7.101,-6.227 7.53,-15.069 0.007,-3.738 -0.219,-7.479 -0.674,-11.198 C 102.142,32.716 93.324,13.662 78.114,-1.365 58.267,-20.975 31.695,-29.616 5.922,-27.337 c -8.342,0.739 -16.599,2.622 -24.518,5.645 -8.512,3.249 -16.631,7.821 -24.044,13.707 C -28.138,-8.771 -13.481,-6.109 0,0"
           style="fill:#4acfd2;fill-opacity:1;fill-rule:nonzero;stroke:none"
           id="path79" />
      </g>
    </g>
  </g>
</svg>
