<svg width="143" height="28" viewBox="0 0 143 28" fill="none" xmlns="http://www.w3.org/2000/svg">
<path d="M42.7171 16.3421L41.1484 18.301C42.736 19.7324 44.8906 20.58 47.0074 20.58C50.3905 20.58 52.5829 18.9225 52.5829 16.361C52.5829 14.3268 51.2599 13.0837 48.6328 12.6505L46.138 12.2361C44.7772 12.0289 44.248 11.6146 44.248 10.8047C44.248 9.90058 45.2119 9.3167 46.6672 9.3167C48.1036 9.3167 49.4266 9.82524 50.8441 10.8988L52.3183 8.86466C50.863 7.71573 48.7651 7.01883 46.8562 7.01883C43.6621 7.01883 41.6398 8.54447 41.6398 11.0118C41.6398 12.9142 42.8305 14.1573 45.0985 14.534L47.7256 14.986C49.2943 15.2309 49.8991 15.7017 49.8991 16.6058C49.8991 17.6041 48.8407 18.2633 47.1964 18.2633C45.6088 18.2633 44.248 17.6794 42.7171 16.3421Z" fill="#0065FD"/>
<path d="M56.9646 14.8918H62.7101L63.1826 12.594H56.9646V9.58039H63.9197L64.3922 7.20718H54.2241V20.3917H63.9953L64.4678 18.0184H56.9646V14.8918Z" fill="#0065FD"/>
<path d="M69.1462 7.20718H66.4057V20.3917H75.9123L76.3848 17.9808H69.1462V7.20718Z" fill="#0065FD"/>
<path d="M81.014 14.8918H86.7596L87.2321 12.594H81.014V9.58039H87.9692L88.4417 7.20718H78.2735V20.3917H88.0448L88.5173 18.0184H81.014V14.8918Z" fill="#0065FD"/>
<path d="M97.0701 18.0561C94.5942 18.0561 92.7609 16.1915 92.7609 13.7994C92.7609 11.332 94.6131 9.50505 96.9945 9.50505C98.412 9.50505 99.716 10.1454 100.642 11.2944L102.494 9.46738C101.266 7.96058 99.1113 7 96.9945 7C93.0255 7 89.9448 9.97592 89.9448 13.7994C89.9448 17.6794 93.0633 20.58 96.9945 20.58C99.0546 20.58 101.152 19.6383 102.419 18.1503L100.623 16.3798C99.6972 17.4534 98.4498 18.0561 97.0701 18.0561Z" fill="#0065FD"/>
<path d="M110.371 20.3917V9.61806H114.529L115.002 7.20718H103.17V9.61806H107.631V20.3917H110.371Z" fill="#0065FD"/>
<path d="M121.508 7.20718H116.424V20.3917H121.508C125.477 20.3917 128.501 17.5099 128.501 13.8371C128.501 10.0889 125.477 7.20718 121.508 7.20718ZM119.165 17.9619V9.63689H121.489C123.814 9.63689 125.666 11.4262 125.666 13.8371C125.666 16.135 123.871 17.9619 121.489 17.9619H119.165Z" fill="#0065FD"/>
<path d="M136.596 7.20718H130.377V20.3917H136.898C139.676 20.3917 141.528 18.8472 141.528 16.5682C141.528 15.2874 140.716 14.195 139.449 13.5922C140.451 12.9707 141.075 11.9724 141.075 10.8235C141.075 8.69515 139.242 7.20718 136.596 7.20718ZM133.118 18.1315V14.7223H136.69C137.956 14.7223 138.769 15.4192 138.769 16.4175C138.769 17.4722 137.956 18.1315 136.69 18.1315H133.118ZM133.118 12.594V9.46738H136.425C137.578 9.46738 138.353 10.0701 138.353 11.0307C138.353 11.9913 137.578 12.594 136.425 12.594H133.118Z" fill="#0065FD"/>
<path d="M28.1562 14C28.1562 21.732 21.8882 28 14.1562 28C6.42426 28 0.15625 21.732 0.15625 14C0.15625 6.26801 6.42426 0 14.1562 0C21.8882 0 28.1562 6.26801 28.1562 14Z" fill="white"/>
<path d="M17.6008 27.5731C23.6672 26.0383 28.1562 20.5434 28.1562 14C28.1562 6.26801 21.8882 0 14.1562 0C6.42426 0 0.15625 6.26801 0.15625 14C0.15625 19.8293 3.71902 24.8266 8.78586 26.933C12.0951 24.5152 21.9283 16.9922 20.5512 13.9227C19.8563 12.3736 17.9151 13.7235 15.5913 15.3395C12.3918 17.5644 8.46682 20.2939 6.07059 16.6553C3.52207 12.7855 12.6465 4.51517 12.6465 4.51517L17.1208 5.79347C17.1208 5.79347 6.51706 13.4187 9.19561 15.4276C10.3182 16.2696 12.2252 15.1514 14.3604 13.8994C17.3198 12.1641 20.7177 10.1718 23.0729 12.7855C26.3996 16.4773 20.0038 24.7297 17.6008 27.5731Z" fill="#0065FD"/>
</svg>
