<?xml version="1.0" encoding="UTF-8"?>
<svg id="Layer_1" data-name="Layer 1" xmlns="http://www.w3.org/2000/svg" width="512" height="270" viewBox="0 0 512 270">
  <path d="M333.06,132.98l-.3-.36v.36h.3Zm-.3-3.6l.3-.32h-.3v.32Zm-30.78,13.99l-.11,.27,.16,.41,.17-.41-.12-.29h-.1v.02Zm34.42-10.43v-.36l-.3,.36h.3Zm0-3.53v-.32h-.3l.3,.32Zm-43.05,27.08h.09l.08-.2,.04-.11-.15-.43-.17,.43,.12,.31Zm17.35,0h.09l.02-.06,.09-.27-.18-.43-.15,.43,.13,.32Zm96.8-12.13l-.18-.23-.02,.43,.2-.21Zm-8.7,9.01v-.17l-.09,.23,.09-.06Zm5.86-6.53l-.02,.02,.2,.24,.22-.23-.02-.02-.37-.02Zm-6.17,1.68h.09l.22-.22v-.44l-.31,.31v.35Zm-65.44-15.57v-.36h-.3l.3,.36Z" style="fill: #29b5e8;"/>
  <path d="M310.75,156.6l.04-.12h-.09l.05,.12Zm-17.28-.11h-.09l.04,.12,.05-.12Zm42.96-27.08l-.3-.32v.32h.3Zm68.25,17.44h0Zm.01-.01l.37,.02-.18-.22-.19,.2Zm-6.11,1.75l-.09-.04v.13l.09-.1Zm-62.49-15.61l.3-.36h-.3v.36Zm-3.04-3.6v-.32l-.3,.32h.3Zm65.53,19.18l.18-.18-.18,.18Z" style="fill: #29b5e8;"/>
  <path d="M310.81,156.43l.1-.27-.1,.27Zm114.69-13.15v-.06c1.02-5.78,5.97-10.05,11.84-10.18,5.82,.17,10.69,4.44,11.64,10.18v.06l.06,.26h-23.59l.05-.25h0Zm-.22,3.65l-.02-.3h25.56c.36,.02,.78-.13,1.07-.4s.45-.65,.45-1.05v-.2c.02-8.33-6.72-15.1-15.05-15.12-2.92,0-5.78,.84-8.23,2.42-4.65,3-7.28,8.3-6.86,13.82-.25,8.58,6.45,15.76,15.02,16.1h1.44c5.3-.34,10.06-3.37,12.59-8.04,.42-.77,.2-1.73-.51-2.24-.34-.21-.75-.27-1.13-.17s-.71,.35-.9,.7c-1.98,3.78-5.78,6.28-10.08,6.59h-1.47c-6.55-.26-11.77-5.54-11.96-12.09v-.02m-90.09-28.44c-1.57,2.18-2.29,4.85-2.05,7.51v3.45h-4.12c-.41-.01-.81,.14-1.1,.43-.3,.29-.46,.72-.46,1.09-.02,.9,.66,1.66,1.56,1.73h4.11v28.03c-.06,.83,.56,1.56,1.39,1.62,.32,.02,.64-.05,.91-.22,.49-.29,.77-.83,.73-1.4v-28.03h4.4c.91-.05,1.6-.82,1.57-1.72,0-.41-.16-.81-.45-1.1-.29-.28-.68-.44-1.08-.42h-4.4v-3.45c-.17-1.88,.28-3.77,1.27-5.38,1.06-.97,2.49-1.42,3.92-1.22,.06,0,.12,0,.18-.01,.07,.01,.14,.01,.21,.01h.49c.88-.03,1.57-.75,1.57-1.62,0-.88-.69-1.59-1.57-1.62h-.49c-.07,0-.13,0-.2,.01-.06,0-.13-.01-.19-.01-2.3-.18-4.56,.67-6.16,2.33m-134.43,25.27c-3.67-1.27-7.63-2.23-7.63-5.35,0-3.95,4.68-5.57,7.19-5.57,6.15,0,7.47,5.04,9.2,3.51,1.72-1.53-4.36-6.45-8.75-6.45-2.7-.12-5.4,.61-7.63,2.07-2.21,1.38-3.5,3.84-3.37,6.44-.18,6.61,7.64,7.73,11,8.9s7.26,2.54,7.3,5.82c.04,4.54-5.34,5.94-7.76,5.94-6.89,0-8.75-4.04-10.08-2.77s.37,2.86,3.55,4.41c2.04,.94,4.25,1.46,6.5,1.53,2.78,.11,5.52-.73,7.76-2.37,2.11-1.6,3.35-4.09,3.37-6.73,0-6.07-5.25-7.49-10.66-9.37" style="fill: #29b5e8;"/>
  <path d="M373.6,159.04c-6.81-.39-12.03-6.19-11.7-13-.73-6.46,3.92-12.29,10.38-13.02,6.46-.73,12.29,3.92,13.02,10.38,.1,.87,.1,1.76,0,2.63,.35,6.82-4.88,12.63-11.7,13m11.7-22.84l-.17-.24-.11-.14c-2.65-3.68-6.89-5.89-11.42-5.95-8.53,.42-15.11,7.64-14.75,16.2-.36,8.53,6.23,15.75,14.75,16.2,4.54-.08,8.79-2.31,11.42-6.01l.12-.15,.17-.23v4.81c-.02,.56,.27,1.08,.75,1.37,.48,.29,1.08,.29,1.56,0,.48-.29,.77-.81,.75-1.37v-29.24c.02-.56-.27-1.08-.75-1.37-.48-.29-1.08-.29-1.56,0-.48,.29-.77,.81-.75,1.37v4.76Zm13.32,12.39l-.09,.09v-31.09c.03-.85-.64-1.57-1.5-1.6-.3,0-.59,.07-.85,.22-.49,.29-.78,.81-.77,1.38v43.03c-.03,.85,.64,1.57,1.5,1.6,.3,0,.59-.07,.85-.22,.49-.29,.78-.81,.77-1.38v-7.43l6.36-6.6,.18,.22,.02,.02,11.76,14.74c.26,.41,.73,.64,1.21,.59,.37,.01,.73-.11,1.02-.33,.64-.62,.69-1.63,.13-2.31l-12.08-15.25,12.01-12.07c.62-.59,.64-1.57,.05-2.19-.02-.02-.04-.04-.05-.05-.27-.31-.67-.5-1.08-.5s-.81,.18-1.08,.5l-18.17,18.39-.18,.23Zm-47.35-32.58c-.85,.03-1.53,.73-1.53,1.58v43.03c-.03,.85,.64,1.57,1.5,1.6,.3,0,.59-.07,.85-.22,.49-.29,.78-.81,.77-1.38v-43.06c0-.87-.72-1.58-1.59-1.58m-40.47,40.41l-.02,.05-.04,.12-.04-.12-.13-.32-7.01-17.28c-.27-.6-.87-.99-1.53-.99-.64,.03-1.2,.41-1.47,.99l-7.18,17.75-.04-.12-9.05-25.56c-.28-.77-1.12-1.17-1.89-.89-.03,.01-.06,.02-.08,.03-.74,.38-1.07,1.27-.76,2.05l10.43,29.11c.1,.32,.33,.59,.63,.73,.06,.08,.15,.13,.25,.13,.18,.07,.38,.12,.57,.13,.6-.04,1.13-.42,1.33-.99,0-.05,.03-.1,.06-.13l7.19-17.82,7.27,17.82c.21,.55,.69,.95,1.27,1.05h.19c.36,0,.65-.12,.89-.33s.46-.48,.58-.79l10.37-28.98c.31-.79-.05-1.69-.83-2.05-.78-.31-1.66,.08-1.97,.86l-8.88,25.2-.14,.34Zm-90.19-24.9c.04-.55-.24-1.08-.72-1.37s-1.07-.29-1.55,0c-.48,.28-.76,.81-.72,1.37v29.5s.06,.08,.06,.13c-.01,.07,.01,.14,.06,.2,.21,.41,.58,.72,1.02,.86h.38c.46,0,.89-.22,1.15-.59,.17-.21,.28-.46,.32-.73v-17.82c0-5.39,4.28-9.81,9.66-9.97,5.4,.1,9.7,4.56,9.6,9.96v17.55c-.02,.56,.27,1.08,.75,1.37,.48,.29,1.08,.29,1.56,0,.48-.29,.77-.81,.75-1.37v-17.55c.11-7.11-5.54-12.98-12.66-13.13-3.76,.02-7.32,1.75-9.66,4.69v-3.1Zm42.68,27.52c-6.8-.41-12.01-6.2-11.7-13-.73-6.46,3.92-12.29,10.38-13.02,6.46-.73,12.29,3.92,13.02,10.38,.1,.87,.1,1.76,0,2.63,.31,6.8-4.9,12.59-11.7,13m0-29.17c-8.5,.47-15.06,7.66-14.75,16.17-.51,5.6,2.18,11,6.96,13.95s10.82,2.95,15.59,0c4.77-2.95,7.47-8.36,6.96-13.95,.33-8.52-6.24-15.73-14.75-16.2m-188.6-20.97l23.62,14.16c2.69,1.62,6.15,1.17,8.33-1.09,1.43-1.38,2.24-3.29,2.23-5.28v-28.39c.15-3.81-2.82-7.03-6.63-7.18-1.34-.05-2.66,.28-3.81,.97-2.18,1.29-3.48,3.68-3.38,6.21v16.16l-13.42-8.04c-3.23-1.92-7.41-.86-9.33,2.36-.05,.09-.11,.18-.16,.27-1.92,3.43-.8,7.77,2.54,9.85m56.78,14.13l23.62-14.16c3.35-2.08,4.46-6.42,2.54-9.85-1.77-3.31-5.9-4.56-9.21-2.79-.09,.05-.18,.1-.27,.15l-13.24,7.94v-16.05c.15-3.81-2.82-7.03-6.63-7.18-1.34-.05-2.66,.28-3.81,.97-2.18,1.29-3.48,3.68-3.38,6.21v27.83c-.14,1.49,.17,2.99,.9,4.3,1.77,3.31,5.89,4.57,9.21,2.79,.09-.05,.18-.1,.27-.16m-21.03,16.14c.02-.45,.2-.89,.49-1.23l2.76-2.87c.33-.3,.75-.48,1.2-.51h.11c.44,.03,.87,.21,1.19,.51l2.76,2.87c.3,.35,.47,.78,.49,1.23v.11c-.02,.46-.19,.89-.49,1.24l-2.76,2.87c-.33,.3-.75,.48-1.19,.51h-.11c-.45-.03-.87-.21-1.2-.51l-2.76-2.87c-.3-.35-.47-.78-.49-1.24v-.11Zm-8.36-1.18v2.48c.03,.62,.27,1.22,.67,1.69l9.37,9.73c.44,.42,1.02,.67,1.63,.7h2.38c.61-.04,1.18-.28,1.63-.7l9.37-9.73c.41-.47,.65-1.07,.67-1.69v-2.48c-.03-.62-.27-1.22-.67-1.69l-9.37-9.72c-.44-.42-1.02-.67-1.63-.7h-2.38c-.61,.04-1.18,.28-1.63,.7l-9.37,9.73c-.41,.47-.65,1.07-.67,1.69m-39.62-6.69l13.38,8.02-13.38,8.02c-3.34,2.08-4.46,6.42-2.54,9.85,1.77,3.31,5.9,4.56,9.21,2.79,.09-.05,.18-.1,.27-.15l23.62-14.16c3.5-2.24,4.53-6.89,2.29-10.39-.59-.92-1.37-1.7-2.29-2.29l-23.62-14.17c-3.23-1.92-7.41-.86-9.33,2.36-.05,.09-.11,.18-.16,.27-1.92,3.43-.8,7.77,2.54,9.85m70.81,8.01c-.04,2.57,1.28,4.97,3.47,6.32l23.63,14.16c3.23,1.92,7.41,.86,9.33-2.37,.05-.09,.1-.18,.15-.27,1.92-3.43,.8-7.78-2.54-9.85l-13.38-8.02,13.38-8.02c3.35-2.07,4.46-6.41,2.54-9.85-1.77-3.31-5.9-4.56-9.21-2.79-.09,.05-.18,.1-.27,.15l-23.63,14.17c-2.21,1.35-3.53,3.78-3.47,6.37m-30.23,15.38c-1.63-.32-3.32-.01-4.74,.84l-23.62,14.17c-3.34,2.08-4.46,6.41-2.54,9.85,1.77,3.31,5.9,4.56,9.21,2.79,.09-.05,.18-.1,.27-.15l13.42-8.04v16.03c-.15,3.81,2.82,7.03,6.63,7.18,1.34,.05,2.66-.28,3.81-.97,2.18-1.29,3.48-3.68,3.38-6.21v-28.43c.05-3.47-2.41-6.47-5.82-7.09m52.04,15.01l-23.62-14.16c-3.23-1.92-7.41-.87-9.33,2.36-.05,.09-.11,.18-.15,.27-.73,1.31-1.04,2.81-.9,4.3v27.69c-.15,3.81,2.82,7.03,6.63,7.18,1.34,.05,2.66-.28,3.81-.97,2.18-1.29,3.48-3.68,3.38-6.21v-15.92l13.24,7.94c3.23,1.92,7.41,.86,9.33-2.36,.05-.09,.11-.18,.16-.27,1.92-3.43,.8-7.77-2.54-9.85" style="fill: #29b5e8;"/>
</svg>
