<svg width="78" height="29" viewBox="0 0 78 29" fill="none" xmlns="http://www.w3.org/2000/svg">
<path d="M0.667969 7.76758H3.36028L7.66797 21.2291H4.97566L0.667969 7.76758Z" fill="#1D1D1D"/>
<path d="M4.97461 21.2314H7.66692L11.9746 7.76991H9.2823L4.97461 21.2314Z" fill="#1D1D1D"/>
<rect x="23.6836" y="7.9082" width="2.42308" height="9.42308" transform="rotate(90 23.6836 7.9082)" fill="#0BA2FF"/>
<rect x="23.2793" y="13.1582" width="2.42308" height="8.61538" transform="rotate(90 23.2793 13.1582)" fill="#0BA2FF"/>
<rect x="23.8184" y="18.543" width="2.69231" height="9.69231" transform="rotate(90 23.8184 18.543)" fill="#0BA2FF"/>
<rect x="26.5117" y="7.76953" width="2.69231" height="13.4615" fill="#1D1D1D"/>
<rect x="36.2051" y="18.5391" width="2.69231" height="9.69231" transform="rotate(90 36.2051 18.5391)" fill="#1D1D1D"/>
<rect x="38.6313" y="8.84615" width="9.69231" height="11.3077" rx="4.84615" stroke="#1D1D1D" stroke-width="2.69231" stroke-linejoin="round"/>
<path fill-rule="evenodd" clip-rule="evenodd" d="M56.9376 10.4618H54.5146V18.5388H56.9376C58.8706 18.5388 60.4376 16.9718 60.4376 15.0388V13.9618C60.4376 12.0288 58.8706 10.4618 56.9376 10.4618ZM51.8223 7.76953V21.2311H56.9376C60.3576 21.2311 63.13 18.4587 63.13 15.0388V13.9618C63.13 10.5419 60.3576 7.76953 56.9376 7.76953H51.8223Z" fill="#1D1D1D"/>
<path fill-rule="evenodd" clip-rule="evenodd" d="M67.9755 7.70215H65.2832V21.2983H67.9755V21.2947H72.6266L72.8307 21.2888C74.9261 21.1823 76.5924 19.4498 76.5924 17.3279C76.5923 16.1264 76.0592 15.0532 75.2197 14.3271C75.8591 13.6687 76.2684 12.7857 76.3179 11.8079L76.3228 11.6077C76.3228 9.51915 74.6831 7.81302 72.6206 7.70825L72.4194 7.70337H67.9755V7.70215ZM67.9789 10.3958H67.9771V12.8186H67.9789V13.0894H72.2866C72.3314 13.0894 72.3757 13.0872 72.4194 13.0829C73.1006 13.0162 73.6328 12.4419 73.6328 11.7432V11.474C73.6328 10.7305 73.0301 10.1278 72.2866 10.1278H67.9789V10.3958ZM67.979 16.2184V15.511H72.4194L72.4984 15.5091C73.2804 15.5492 73.9021 16.1959 73.9021 16.9879V17.2571C73.9021 17.2841 73.9014 17.3109 73.9 17.3376C73.8978 17.6282 73.7983 17.8958 73.6325 18.1092C73.4018 18.4366 73.0417 18.6662 72.6266 18.7238C72.5595 18.7331 72.491 18.7379 72.4213 18.7379H67.979V18.6023H67.9771V16.2185L67.979 16.2184Z" fill="#1D1D1D"/>
</svg>
