<svg width="753" height="274" viewBox="0 0 753 274" fill="none" xmlns="http://www.w3.org/2000/svg">
<g clip-path="url(#clip0_28_1297)">
<path fill-rule="evenodd" clip-rule="evenodd" d="M5 53.8669C5 37.6466 29.6243 29 60 29C90.3757 29 115 37.6466 115 53.8669V138.133C115 154.353 90.3757 163 60 163C29.6243 163 5 154.353 5 138.133V53.8669Z" fill="#2399FF"/>
<path fill-rule="evenodd" clip-rule="evenodd" d="M175 53.8669C175 37.6466 199.624 29 230 29C260.376 29 285 37.6466 285 53.8669V138.133C285 154.353 260.376 163 230 163C199.624 163 175 154.353 175 138.133V53.8669Z" fill="#2399FF"/>
<path d="M177 85H113V103H177V85Z" fill="#2399FF"/>
<path d="M173 157H115L81 111H59L105 173H183L229 111H207L173 157Z" fill="white"/>
<path fill-rule="evenodd" clip-rule="evenodd" d="M89 145.867C89 129.647 113.624 121 144 121C174.376 121 199 129.647 199 145.867V230.133C199 246.353 174.376 255 144 255C113.624 255 89 246.353 89 230.133V145.867Z" fill="#2399FF"/>
<path fill-rule="evenodd" clip-rule="evenodd" d="M108.783 136.779C100.111 140.552 99 144.237 99 146C99 147.763 100.111 151.448 108.783 155.221C117.076 158.829 129.435 161 144 161C158.565 161 170.924 158.829 179.217 155.221C187.889 151.448 189 147.763 189 146C189 144.237 187.889 140.552 179.218 136.779C170.924 133.171 158.565 131 144 131C129.435 131 117.076 133.171 108.783 136.779Z" fill="white"/>
<path fill-rule="evenodd" clip-rule="evenodd" d="M24.7825 44.7792C16.1105 48.5515 15 52.2365 15 54C15 55.7635 16.1105 59.4485 24.7825 63.2208C33.0763 66.8287 45.4354 69 60 69C74.5646 69 86.9237 66.8287 95.2175 63.2208C103.889 59.4485 105 55.7635 105 54C105 52.2365 103.889 48.5515 95.2175 44.7792C86.9237 41.1713 74.5646 39 60 39C45.4354 39 33.0763 41.1713 24.7825 44.7792Z" fill="white"/>
<path fill-rule="evenodd" clip-rule="evenodd" d="M194.783 44.7792C186.111 48.5515 185 52.2365 185 54C185 55.7635 186.111 59.4485 194.783 63.2208C203.076 66.8287 215.435 69 230 69C244.565 69 256.924 66.8287 265.217 63.2208C273.889 59.4485 275 55.7635 275 54C275 52.2365 273.889 48.5515 265.218 44.7792C256.924 41.1713 244.565 39 230 39C215.435 39 203.076 41.1713 194.783 44.7792Z" fill="white"/>
<path fill-rule="evenodd" clip-rule="evenodd" d="M694.131 64H634.75V210H705.026C730.974 210 750.243 191.821 750.243 166.963C750.243 150.15 740.93 137.39 726.201 130.891C733.027 124.143 737.168 115.224 737.168 104.858C737.168 81.2033 718.875 64 694.131 64ZM660.899 85.791V123.925H691.951C702.482 123.925 711.019 115.389 711.019 104.858C711.019 94.3277 702.482 85.791 691.951 85.791H660.899ZM660.899 188.209V145.716H702.847C714.581 145.716 724.093 155.229 724.093 166.963C724.093 178.697 714.581 188.209 702.847 188.209H660.899Z" fill="black"/>
<path d="M352.716 64.0039H382.134L419.179 128.287L456.223 64.0039H485.641L432.308 155.472V210.004H406.049V155.472L352.716 64.0039Z" fill="black"/>
<path fill-rule="evenodd" clip-rule="evenodd" d="M496.008 64.0039H546.127C589.713 64.0039 619.127 92.3289 619.127 137.004C619.127 181.679 589.713 210.004 546.127 210.004H496.008V64.0039ZM522.157 188.213V85.7949H543.948C573.32 85.7949 592.978 104.364 592.978 137.004C592.978 169.644 573.32 188.213 543.948 188.213H522.157Z" fill="black"/>
</g>
<defs>
<clipPath id="clip0_28_1297">
<rect width="753" height="274" fill="white"/>
</clipPath>
</defs>
</svg>
