<!--
Licensed to the Apache Software Foundation (ASF) under one
or more contributor license agreements.  See the NOTICE file
distributed with this work for additional information
regarding copyright ownership.  The ASF licenses this file
to you under the Apache License, Version 2.0 (the
"License"); you may not use this file except in compliance
with the License.  You may obtain a copy of the License at

  http://www.apache.org/licenses/LICENSE-2.0

Unless required by applicable law or agreed to in writing,
software distributed under the License is distributed on an
"AS IS" BASIS, WITHOUT WARRANTIES OR CONDITIONS OF ANY
KIND, either express or implied.  See the License for the
specific language governing permissions and limitations
under the License.
-->
<svg viewBox="0 0 119 79" fill="none" xmlns="http://www.w3.org/2000/svg">
<path d="M99.3193 1H20.6639C19.0349 1 17.7143 2.32057 17.7143 3.94958V59.0084C17.7143 60.6374 19.0349 61.958 20.6639 61.958H99.3193C100.948 61.958 102.269 60.6374 102.269 59.0084V3.94958C102.269 2.32057 100.948 1 99.3193 1Z" stroke="currentColor" stroke-width="2"/>
<path d="M95.3866 4.93277H24.5966C22.9676 4.93277 21.647 6.25335 21.647 7.88235V15.7479C21.647 17.3769 22.9676 18.6975 24.5966 18.6975H95.3866C97.0156 18.6975 98.3361 17.3769 98.3361 15.7479V7.88235C98.3361 6.25335 97.0156 4.93277 95.3866 4.93277Z" stroke="currentColor" stroke-width="2"/>
<path d="M56.0588 22.6303H24.5966C22.9676 22.6303 21.647 23.9508 21.647 25.5798V55.0756C21.647 56.7046 22.9676 58.0252 24.5966 58.0252H56.0588C57.6878 58.0252 59.0084 56.7046 59.0084 55.0756V25.5798C59.0084 23.9508 57.6878 22.6303 56.0588 22.6303Z" stroke="currentColor" stroke-width="2"/>
<path d="M95.3865 36.395H65.8907C64.2617 36.395 62.9412 37.7155 62.9412 39.3445V55.0756C62.9412 56.7046 64.2617 58.0252 65.8907 58.0252H95.3865C97.0155 58.0252 98.3361 56.7046 98.3361 55.0756V39.3445C98.3361 37.7155 97.0155 36.395 95.3865 36.395Z" stroke="currentColor" stroke-width="2"/>
<path d="M95.3865 22.6303H65.8907C64.2617 22.6303 62.9412 23.9508 62.9412 25.5798V29.5126C62.9412 31.1416 64.2617 32.4622 65.8907 32.4622H95.3865C97.0155 32.4622 98.3361 31.1416 98.3361 29.5126V25.5798C98.3361 23.9508 97.0155 22.6303 95.3865 22.6303Z" stroke="currentColor" stroke-width="2"/>
<path d="M17.2227 59.0086C17.2228 60.9091 18.7637 62.45 20.6641 62.45H99.3193C101.22 62.45 102.761 60.9091 102.761 59.0086V53.9891L103.374 54.1453C107.981 55.3221 111.718 56.6931 114.315 58.2137C116.877 59.7134 118.491 61.4572 118.491 63.4324C118.491 64.5056 118.01 65.513 117.177 66.4373C116.346 67.3587 115.143 68.2232 113.635 69.032C110.618 70.6501 106.286 72.0925 100.975 73.2977C90.343 75.7099 75.6797 77.1971 59.5 77.1971C43.3203 77.1971 28.657 75.7099 18.0254 73.2977C12.7137 72.0925 8.38162 70.6501 5.36523 69.032C3.85742 68.2232 2.65424 67.3587 1.82324 66.4373C0.989641 65.513 0.508789 64.5056 0.508789 63.4324C0.508977 61.389 2.23587 59.5926 4.96484 58.0535C7.73449 56.4916 11.717 55.0896 16.6152 53.8992L17.2227 53.7518V59.0086Z" fill="currentColor" fill-opacity="0.25" stroke="currentColor"/>
</svg>
