<!--
Licensed to the Apache Software Foundation (ASF) under one
or more contributor license agreements.  See the NOTICE file
distributed with this work for additional information
regarding copyright ownership.  The ASF licenses this file
to you under the Apache License, Version 2.0 (the
"License"); you may not use this file except in compliance
with the License.  You may obtain a copy of the License at

  http://www.apache.org/licenses/LICENSE-2.0

Unless required by applicable law or agreed to in writing,
software distributed under the License is distributed on an
"AS IS" BASIS, WITHOUT WARRANTIES OR CONDITIONS OF ANY
KIND, either express or implied.  See the License for the
specific language governing permissions and limitations
under the License.
-->
<svg viewBox="0 0 119 76" fill="none" xmlns="http://www.w3.org/2000/svg">
<path fill-rule="evenodd" clip-rule="evenodd" d="M82.7969 1.34302L102.269 23.5966V60.958C102.269 63.13 100.508 64.8908 98.3361 64.8908H20.6639C18.4919 64.8908 16.7311 63.13 16.7311 60.958V23.5966L36.203 1.34302C36.9498 0.489553 38.0286 0 39.1627 0H79.8372C80.9713 0 82.0502 0.489554 82.7969 1.34302ZM100.303 25.563V60.958C100.303 62.044 99.4225 62.9244 98.3361 62.9244H20.6639C19.5778 62.9244 18.6975 62.044 18.6975 60.958V25.563H35.6575C38.2369 25.563 40.3277 27.6539 40.3277 30.2332C40.3277 33.8984 43.299 36.8698 46.9643 36.8698H72.0357C75.7009 36.8698 78.6723 33.8984 78.6723 30.2332C78.6723 27.6539 80.7631 25.563 83.3424 25.563H100.303ZM99.6556 23.5966L81.3171 2.6379C80.9437 2.21116 80.4043 1.96639 79.8372 1.96639H39.1627C38.5956 1.96639 38.0562 2.21116 37.6828 2.6379L19.3439 23.5966H35.6575C39.3228 23.5966 42.2941 26.568 42.2941 30.2332C42.2941 32.8125 44.385 34.9034 46.9643 34.9034H72.0357C74.615 34.9034 76.7059 32.8125 76.7059 30.2332C76.7059 26.568 79.6772 23.5966 83.3424 23.5966H99.6556Z" fill="currentColor"/>
<path d="M102.385 51.9159C107.283 53.1063 111.266 54.5083 114.035 56.0702C116.764 57.6093 118.491 59.4058 118.491 61.4492C118.491 62.5223 118.01 63.5298 117.177 64.454C116.346 65.3754 115.143 66.2399 113.635 67.0488C110.618 68.6668 106.286 70.1092 100.975 71.3144C90.343 73.7266 75.6797 75.2138 59.5 75.2138C43.3203 75.2138 28.657 73.7266 18.0254 71.3144C12.7137 70.1092 8.38162 68.6668 5.36523 67.0488C3.85743 66.2399 2.65424 65.3754 1.82324 64.454C0.989642 63.5298 0.508789 62.5223 0.508789 61.4492C0.508976 59.4057 2.23587 57.6093 4.96484 56.0702C7.73449 54.5083 11.717 53.1063 16.6152 51.9159L17.2227 51.7685V60.9579C17.2227 62.8584 18.7636 64.3993 20.6641 64.3993H98.3359C100.236 64.3993 101.777 62.8584 101.777 60.9579V51.7685L102.385 51.9159Z" fill="currentColor" stroke="currentColor" fill-opacity="0.25" />
</svg>
