<!--
Licensed to the Apache Software Foundation (ASF) under one
or more contributor license agreements.  See the NOTICE file
distributed with this work for additional information
regarding copyright ownership.  The ASF licenses this file
to you under the Apache License, Version 2.0 (the
"License"); you may not use this file except in compliance
with the License.  You may obtain a copy of the License at

  http://www.apache.org/licenses/LICENSE-2.0

Unless required by applicable law or agreed to in writing,
software distributed under the License is distributed on an
"AS IS" BASIS, WITHOUT WARRANTIES OR CONDITIONS OF ANY
KIND, either express or implied.  See the License for the
specific language governing permissions and limitations
under the License.
-->
<svg viewBox="0 0 119 78" fill="none" xmlns="http://www.w3.org/2000/svg">
<rect x="17" y="1" width="86" height="62" rx="3" stroke="currentColor" stroke-width="2"/>
<rect x="21" y="5" width="78" height="14" rx="3" stroke="currentColor" stroke-width="2"/>
<rect x="21" y="23" width="38" height="36" rx="3" stroke="currentColor" stroke-width="2"/>
<rect x="63" y="37" width="36" height="22" rx="3" stroke="currentColor" stroke-width="2"/>
<rect x="63" y="23" width="36" height="10" rx="3" stroke="currentColor" stroke-width="2"/>
<path fill-rule="evenodd" clip-rule="evenodd" d="M16 55.2892C6.07439 57.7013 0 60.9397 0 64.5C0 71.9559 26.6391 78 59.5 78C92.3609 78 119 71.9559 119 64.5C119 61.0609 113.332 57.9221 104 55.5383V60C104 62.2092 102.209 64 100 64H20C17.7909 64 16 62.2092 16 60V55.2892Z" fill="currentColor" fill-opacity="0.25" stroke="currentColor"/>
</svg>
