<!--
Licensed to the Apache Software Foundation (ASF) under one
or more contributor license agreements.  See the NOTICE file
distributed with this work for additional information
regarding copyright ownership.  The ASF licenses this file
to you under the Apache License, Version 2.0 (the
"License"); you may not use this file except in compliance
with the License.  You may obtain a copy of the License at

  http://www.apache.org/licenses/LICENSE-2.0

Unless required by applicable law or agreed to in writing,
software distributed under the License is distributed on an
"AS IS" BASIS, WITHOUT WARRANTIES OR CONDITIONS OF ANY
KIND, either express or implied.  See the License for the
specific language governing permissions and limitations
under the License.
-->
<svg viewBox="0 0 119 78" fill="none" xmlns="http://www.w3.org/2000/svg">
<path d="M59.2172 1.54918C59.4582 0.816949 60.525 0.81693 60.7662 1.54918L67.4261 21.777C67.8015 22.9173 68.8726 23.6776 70.0684 23.6776H91.6205C92.4352 23.6776 92.71 24.6673 92.1034 25.1023L74.6673 37.6038C73.6922 38.3029 73.2776 39.5495 73.6539 40.6922L80.3138 60.9201C80.5391 61.6042 79.7302 62.2787 79.0563 61.7956L61.6204 49.2941C60.6483 48.5971 59.3349 48.5971 58.3629 49.2941L40.9269 61.7956C40.253 62.2787 39.4441 61.6042 39.6694 60.9201L46.3294 40.6922C46.7056 39.5495 46.291 38.3029 45.3159 37.6038L27.8798 25.1023C27.2732 24.6673 27.548 23.6776 28.3628 23.6776H49.9149C51.1106 23.6776 52.1817 22.9173 52.5571 21.777L59.2172 1.54918Z" stroke="currentColor" stroke-width="2"/>
<path d="M59.5 49.6685C60.052 49.6685 60.6021 49.6699 61.1504 49.6733L61.3066 49.6743L61.4336 49.7651L78.7695 62.1948C79.8103 62.9411 81.1618 61.9247 80.7803 60.7661L77.5625 50.9927L77.333 50.2935L78.0674 50.3491C89.7005 51.2299 99.7327 52.9176 106.87 55.1284C110.435 56.2328 113.307 57.4759 115.298 58.8335C117.27 60.1787 118.491 61.7173 118.491 63.4331C118.491 64.5061 118.01 65.5129 117.177 66.437C116.346 67.3584 115.143 68.2239 113.635 69.0327C110.618 70.6507 106.286 72.0922 100.975 73.2974C90.343 75.7096 75.6797 77.1978 59.5 77.1978C43.3203 77.1978 28.657 75.7096 18.0254 73.2974C12.7139 72.0922 8.3816 70.6507 5.36523 69.0327C3.85739 68.2239 2.65424 67.3584 1.82324 66.437C0.989783 65.5129 0.508887 64.5061 0.508789 63.4331C0.508789 61.6928 1.7644 60.135 3.78906 58.7749C5.83338 57.4017 8.78191 56.1452 12.4404 55.0327C19.7642 52.8057 30.0482 51.1211 41.9424 50.2749L42.6738 50.2231L42.4443 50.9194L39.2021 60.7661C38.8207 61.9247 40.1722 62.9409 41.2129 62.1948L58.5557 49.7612L58.6836 49.6694L58.8408 49.6685C59.0602 49.668 59.2799 49.6685 59.5 49.6685Z" fill="currentColor" fill-opacity="0.25" stroke="currentColor"/>
</svg>
