<!--
Licensed to the Apache Software Foundation (ASF) under one
or more contributor license agreements.  See the NOTICE file
distributed with this work for additional information
regarding copyright ownership.  The ASF licenses this file
to you under the Apache License, Version 2.0 (the
"License"); you may not use this file except in compliance
with the License.  You may obtain a copy of the License at

  http://www.apache.org/licenses/LICENSE-2.0

Unless required by applicable law or agreed to in writing,
software distributed under the License is distributed on an
"AS IS" BASIS, WITHOUT WARRANTIES OR CONDITIONS OF ANY
KIND, either express or implied.  See the License for the
specific language governing permissions and limitations
under the License.
-->
<svg viewBox="0 0 118 150" fill="none" xmlns="http://www.w3.org/2000/svg">
<path d="M12.1212 11.5536H11.6212V12.0536V46.875V47.375H12.1212H105.871H106.371V46.875V12.0536V11.5536H105.871H12.1212ZM105.871 92.9107H106.371V92.4107V57.5893V57.0893H105.871H12.1212H11.6212V57.5893V92.4107V92.9107H12.1212H105.871ZM105.871 138.446H106.371V137.946V103.125V102.625H105.871H12.1212H11.6212V103.125V137.946V138.446H12.1212H105.871ZM5.42477 0.5H112.568C115.255 0.5 117.425 2.67012 117.425 5.35714V144.643C117.425 147.33 115.255 149.5 112.568 149.5H5.42477C2.73774 149.5 0.567627 147.33 0.567627 144.643V5.35714C0.567627 2.67012 2.73774 0.5 5.42477 0.5ZM26.4897 33.8458C25.3276 32.6838 24.6748 31.1077 24.6748 29.4643C24.6748 27.8209 25.3276 26.2448 26.4897 25.0828C27.6517 23.9207 29.2278 23.2679 30.8712 23.2679C32.5146 23.2679 34.0907 23.9207 35.2527 25.0828C36.4148 26.2448 37.0676 27.8209 37.0676 29.4643C37.0676 31.1077 36.4148 32.6838 35.2527 33.8458C34.0907 35.0079 32.5146 35.6607 30.8712 35.6607C29.2278 35.6607 27.6517 35.0079 26.4897 33.8458ZM26.4897 79.3815C25.3276 78.2195 24.6748 76.6434 24.6748 75C24.6748 73.3566 25.3276 71.7805 26.4897 70.6185C27.6517 69.4564 29.2278 68.8036 30.8712 68.8036C32.5146 68.8036 34.0907 69.4564 35.2527 70.6185C36.4148 71.7805 37.0676 73.3566 37.0676 75C37.0676 76.6434 36.4148 78.2195 35.2527 79.3815C34.0907 80.5436 32.5146 81.1964 30.8712 81.1964C29.2278 81.1964 27.6517 80.5436 26.4897 79.3815ZM26.4897 124.917C25.3276 123.755 24.6748 122.179 24.6748 120.536C24.6748 118.892 25.3276 117.316 26.4897 116.154C27.6517 114.992 29.2278 114.339 30.8712 114.339C32.5146 114.339 34.0907 114.992 35.2527 116.154C36.4148 117.316 37.0676 118.892 37.0676 120.536C37.0676 122.179 36.4148 123.755 35.2527 124.917C34.0907 126.079 32.5146 126.732 30.8712 126.732C29.2278 126.732 27.6517 126.079 26.4897 124.917Z" fill="currentColor" stroke="CurrentColor" fill-opacity="0.5"/>
</svg>
