<svg version="1.2" xmlns="http://www.w3.org/2000/svg" viewBox="0 0 1537 540" width="1537" height="540">
	<title>akkkttti-svg</title>
	<style>
		.s0 { fill: #000000 } 
	</style>
	<path id="Layer" fill-rule="evenodd" class="s0" d="m1105.2 168.6h81.5v363.2h-81.5zm-775.9 223.9h-192.1l-51.6 139.2h-85.6l193-502.3h81.5l192.9 502.3h-86.5zm-96-258.9l-68.8 185.4h137.2zm592.9 397.6h-98.7l-120.1-154.6-33.5 34.5v120.6h-81.5v-531.8h81.5v317.3l142.2-148.6h104.2v0.4l-154 156.4zm51.2-97.5v-197.2h-57.1v-67.5l0.5-0.5h56.6v-97.4h81.5v97h81.5v68h-81.5v188.1c0 29.5 16.3 42.6 43.5 42.6 16.3 0 35.3-6.3 46.6-14.5v74.4c-13.5 8.1-35.7 13.1-61.1 13.1-64.3 0-110.1-34.4-110.5-106.1zm268.6-325c-28.1 0-50.8-22.3-50.8-49.9 0-27.5 22.7-49.8 50.8-49.8 28 0 50.7 22.3 50.7 49.8 0 27.6-22.7 49.9-50.7 49.9zm390.9 422.5h-78.4v-20.4c-12.2 12.7-48.9 27.2-89.7 27.2-74.3 0-135.4-44.4-135.4-118.8 0-68.9 61.1-116.9 141.3-116.9 32.6 0 69.8 11.8 84.3 22.2v-29.5c0-36.7-22.7-65.3-69.3-65.3-32.7 0-53 14.1-62.1 39.5h-78.4c10.9-62.1 68-108.8 142.3-108.8 91.5 0 145.4 50.8 145.4 133.3zm-77.5-126.5c-9-22.7-41.7-36.7-74.3-36.7-36.7 0-75.2 15.8-75.2 51.7 0 36.7 38.5 52.1 75.2 52.1 32.6 0 65.3-13.6 74.3-36.7z"/>
</svg>