<svg width="126" height="32" viewBox="0 0 126 32" fill="none" xmlns="http://www.w3.org/2000/svg">
<path d="M125.536 13.0511C125.536 8.42703 122.641 5.87762 117.339 5.87762H107.984C107.802 5.86331 107.62 5.88697 107.449 5.947C107.278 6.00702 107.123 6.10202 106.993 6.22559C106.863 6.34915 106.761 6.4984 106.696 6.66325C106.63 6.82811 106.602 7.00474 106.612 7.18121V24.7282C106.612 25.5294 107.16 26.0318 107.984 26.0318H112.159C112.34 26.0461 112.523 26.0224 112.694 25.9624C112.864 25.9024 113.02 25.8074 113.15 25.6838C113.28 25.5602 113.381 25.411 113.447 25.2461C113.513 25.0813 113.541 24.9047 113.53 24.7282V20.3703C113.528 20.3307 113.534 20.291 113.548 20.2539C113.563 20.2168 113.585 20.1831 113.614 20.155C113.643 20.127 113.677 20.1052 113.716 20.0912C113.754 20.0773 113.794 20.0714 113.835 20.0739H114.964C115.33 23.9269 117.288 26.0318 120.968 26.0318H123.894C124.075 26.0461 124.257 26.0224 124.428 25.9624C124.599 25.9024 124.755 25.8074 124.885 25.6838C125.014 25.5602 125.116 25.411 125.181 25.2461C125.247 25.0813 125.275 24.9047 125.265 24.7282V22.0909C125.265 21.2896 124.717 20.7873 123.894 20.7873H122.156C121.272 20.7873 120.722 20.403 120.632 19.6319C123.829 18.803 125.536 16.6078 125.536 13.0511ZM116.973 15.3117H113.835C113.794 15.3143 113.754 15.3084 113.716 15.2944C113.677 15.2804 113.643 15.2587 113.614 15.2306C113.585 15.2026 113.563 15.1689 113.548 15.1317C113.534 15.0946 113.528 15.0549 113.53 15.0153V11.6873C113.528 11.6477 113.534 11.608 113.548 11.5709C113.563 11.5337 113.585 11.5 113.614 11.4719C113.643 11.4439 113.677 11.4221 113.716 11.4082C113.754 11.3942 113.794 11.3883 113.835 11.3909H116.973C118.313 11.3909 118.984 12.3403 118.984 13.3475C118.996 13.6074 118.951 13.8668 118.854 14.1091C118.757 14.3515 118.61 14.5716 118.42 14.7556C118.231 14.9395 118.005 15.0832 117.756 15.1777C117.507 15.2721 117.24 15.3152 116.973 15.3042V15.3117Z" fill="#00004E"/>
<path d="M95.0948 10.9488H102.896C103.077 10.9631 103.26 10.9395 103.431 10.8795C103.601 10.8194 103.757 10.7244 103.887 10.6009C104.017 10.4773 104.118 10.328 104.184 10.1632C104.25 9.99834 104.278 9.82171 104.267 9.64523V7.18625C104.267 6.385 103.72 5.88266 102.896 5.88266H89.4678C89.2867 5.86835 89.1045 5.892 88.9335 5.95203C88.7626 6.01206 88.6069 6.10706 88.4769 6.23062C88.3469 6.35418 88.2457 6.50343 88.1801 6.66829C88.1145 6.83314 88.086 7.00977 88.0966 7.18625V24.7332C88.0966 25.5345 88.644 26.0368 89.4678 26.0368H103.322C103.503 26.0511 103.686 26.0275 103.857 25.9674C104.028 25.9074 104.183 25.8124 104.313 25.6888C104.443 25.5653 104.544 25.416 104.61 25.2512C104.676 25.0863 104.704 24.9097 104.694 24.7332V22.2742C104.694 21.473 104.146 20.9706 103.322 20.9706H95.0948C95.0541 20.9732 95.0133 20.9673 94.9752 20.9533C94.937 20.9394 94.9023 20.9176 94.8735 20.8896C94.8446 20.8615 94.8223 20.8278 94.8079 20.7907C94.7935 20.7535 94.7875 20.7138 94.7901 20.6743V18.5996C94.7875 18.56 94.7935 18.5203 94.8079 18.4831C94.8223 18.446 94.8446 18.4123 94.8735 18.3842C94.9023 18.3562 94.937 18.3344 94.9752 18.3205C95.0133 18.3065 95.0541 18.3006 95.0948 18.3032H101.494C101.675 18.3175 101.857 18.2938 102.028 18.2338C102.199 18.1738 102.355 18.0788 102.485 17.9552C102.615 17.8316 102.716 17.6824 102.782 17.5175C102.847 17.3527 102.876 17.1761 102.865 16.9996V14.739C102.865 13.9378 102.318 13.4354 101.494 13.4354H95.0948C95.0541 13.438 95.0133 13.4321 94.9752 13.4182C94.937 13.4042 94.9023 13.3824 94.8735 13.3544C94.8446 13.3263 94.8223 13.2926 94.8079 13.2555C94.7935 13.2183 94.7875 13.1786 94.7901 13.1391V11.2502C94.7871 11.2103 94.7929 11.1703 94.8071 11.1327C94.8213 11.0952 94.8435 11.061 94.8724 11.0325C94.9012 11.0039 94.936 10.9817 94.9743 10.9673C95.0127 10.9529 95.0538 10.9466 95.0948 10.9488Z" fill="#00004E"/>
<path d="M69.3148 5.88015C69.1337 5.86584 68.9515 5.8895 68.7805 5.94953C68.6096 6.00955 68.4538 6.10456 68.3239 6.22812C68.1939 6.35168 68.0927 6.50093 68.0271 6.66578C67.9615 6.83064 67.933 7.00727 67.9436 7.18374V24.7307C67.9436 25.532 68.491 26.0343 69.3148 26.0343H73.4905C73.6717 26.0486 73.8539 26.025 74.0248 25.9649C74.1958 25.9049 74.3515 25.8099 74.4815 25.6863C74.6114 25.5628 74.7127 25.4135 74.7783 25.2487C74.8439 25.0838 74.8723 24.9072 74.8618 24.7307V21.8849C74.8625 21.6413 74.9623 21.4079 75.1394 21.2356C75.3165 21.0634 75.5565 20.9663 75.8069 20.9656H78.0304C83.332 20.9656 86.2269 18.2982 86.2269 13.4078C86.2269 8.51747 83.332 5.87262 78.0304 5.87262L69.3148 5.88015ZM79.6753 13.6163C79.6753 14.9802 78.7612 15.8392 77.3512 15.8392H75.1562C75.1155 15.8418 75.0747 15.8359 75.0365 15.8219C74.9983 15.8079 74.9636 15.7862 74.9348 15.7581C74.9059 15.7301 74.8836 15.6963 74.8692 15.6592C74.8548 15.6221 74.8488 15.5824 74.8514 15.5428V11.6898C74.8488 11.6502 74.8548 11.6105 74.8692 11.5734C74.8836 11.5363 74.9059 11.5025 74.9348 11.4745C74.9636 11.4464 74.9983 11.4247 75.0365 11.4107C75.0747 11.3967 75.1155 11.3908 75.1562 11.3934H77.3512C78.7612 11.3934 79.6753 12.2524 79.6753 13.6163Z" fill="#00004E"/>
<path d="M59.9589 26.0343H63.7679C63.949 26.0486 64.1312 26.025 64.3022 25.9649C64.4731 25.9049 64.6289 25.8099 64.7588 25.6863C64.8888 25.5628 64.99 25.4135 65.0556 25.2487C65.1212 25.0838 65.1497 24.9072 65.1391 24.7307V7.18373C65.1391 6.38249 64.5917 5.88014 63.7679 5.88014H58.3733C57.4591 5.88014 56.8497 6.32472 56.514 7.30178L54.7476 12.3202C54.7024 12.5071 54.5937 12.6736 54.439 12.7928C54.2843 12.912 54.0927 12.9768 53.8954 12.9768C53.6981 12.9768 53.5065 12.912 53.3518 12.7928C53.1971 12.6736 53.0884 12.5071 53.0432 12.3202L51.2769 7.29676C50.9412 6.3197 50.3317 5.87512 49.4175 5.87512H44.0229C43.8418 5.86081 43.6596 5.88446 43.4886 5.94449C43.3177 6.00452 43.162 6.09952 43.032 6.22308C42.902 6.34665 42.8008 6.49589 42.7352 6.66075C42.6696 6.82561 42.6411 7.00223 42.6517 7.17871V24.7257C42.6517 25.5269 43.1992 26.0293 44.0229 26.0293H47.832C48.0131 26.0436 48.1953 26.0199 48.3663 25.9599C48.5372 25.8999 48.6929 25.8049 48.8229 25.6813C48.9529 25.5577 49.0541 25.4085 49.1197 25.2436C49.1853 25.0788 49.2138 24.9022 49.2032 24.7257V15.0982C49.2032 14.95 49.2652 14.8897 49.3556 14.8897C49.3986 14.8914 49.4399 14.9069 49.473 14.9336C49.5062 14.9604 49.5293 14.9971 49.5389 15.0379L51.7339 21.2017C52.0077 22.003 52.4338 22.327 53.0742 22.327H54.7192C55.3596 22.327 55.7857 22.0005 56.0595 21.2017L58.2545 15.0379C58.2637 14.9969 58.2867 14.96 58.3199 14.9331C58.3532 14.9063 58.3947 14.891 58.4378 14.8897C58.5282 14.8897 58.5902 14.95 58.5902 15.0982V24.7307C58.5797 24.907 58.6081 25.0834 58.6735 25.248C58.739 25.4127 58.84 25.5618 58.9697 25.6853C59.0993 25.8088 59.2547 25.9039 59.4254 25.9641C59.596 26.0243 59.7779 26.0482 59.9589 26.0343Z" fill="#00004E"/>
<path d="M27.2968 5.88012H22.9068C22.7256 5.86581 22.5434 5.88947 22.3725 5.9495C22.2015 6.00952 22.0458 6.10453 21.9158 6.22809C21.7859 6.35165 21.6847 6.5009 21.6191 6.66575C21.5534 6.83061 21.525 7.00724 21.5355 7.18371V17.9138C21.5355 23.4397 24.7971 26.4537 30.8605 26.4537C36.924 26.4537 40.1855 23.4397 40.1855 17.9138V7.18371C40.1855 6.38247 39.6381 5.88012 38.8143 5.88012H34.4242C34.2431 5.86581 34.0609 5.88947 33.8899 5.9495C33.719 6.00952 33.5633 6.10453 33.4333 6.22809C33.3033 6.35165 33.2021 6.5009 33.1365 6.66575C33.0709 6.83061 33.0424 7.00724 33.053 7.18371V17.9415C33.053 19.4485 32.2008 20.4306 30.8579 20.4306C29.5151 20.4306 28.6629 19.4535 28.6629 17.9415V7.18371C28.6734 7.00769 28.645 6.83153 28.5797 6.66705C28.5144 6.50258 28.4137 6.3536 28.2843 6.23012C28.1549 6.10664 27.9998 6.01152 27.8295 5.95116C27.6592 5.89079 27.4776 5.86657 27.2968 5.88012Z" fill="#00004E"/>
<path d="M19.2191 11.1847C19.2191 7.9546 16.7813 5.87991 12.9413 5.87991H1.90935C1.7282 5.8656 1.546 5.88926 1.37505 5.94928C1.2041 6.00931 1.04838 6.10431 0.918407 6.22788C0.788432 6.35144 0.687224 6.50069 0.621617 6.66554C0.55601 6.8304 0.52753 7.00703 0.5381 7.1835V24.7305C0.5381 25.5317 1.08557 26.0341 1.90935 26.0341H13.0627C17.2074 26.0341 19.8879 23.7735 19.8879 20.3149C19.8879 17.9438 18.7594 16.2534 16.6264 15.3642C18.3333 14.7112 19.2191 13.2594 19.2191 11.1847ZM7.36335 10.8883C7.36065 10.8485 7.36676 10.8086 7.38129 10.7713C7.39581 10.7339 7.41841 10.7001 7.44754 10.672C7.47667 10.6439 7.51166 10.6222 7.55015 10.6084C7.58865 10.5946 7.62974 10.589 7.67065 10.5919H11.0536C12.1201 10.5919 12.7915 11.245 12.7915 12.222C12.7915 13.1991 12.1201 13.8522 11.0536 13.8522H7.67065C7.62994 13.8547 7.58914 13.8489 7.55096 13.8349C7.51279 13.8209 7.47812 13.7991 7.44928 13.7711C7.42043 13.743 7.39808 13.7093 7.3837 13.6722C7.36933 13.6351 7.36327 13.5954 7.36593 13.5558L7.36335 10.8883ZM11.3557 21.3221H7.67065C7.62994 21.3246 7.58914 21.3188 7.55096 21.3048C7.51279 21.2908 7.47812 21.269 7.44928 21.241C7.42043 21.2129 7.39808 21.1792 7.3837 21.1421C7.36933 21.105 7.36327 21.0653 7.36593 21.0257V18.2979C7.36327 18.2583 7.36933 18.2187 7.3837 18.1815C7.39808 18.1444 7.42043 18.1107 7.44928 18.0826C7.47812 18.0546 7.51279 18.0328 7.55096 18.0188C7.58914 18.0049 7.62994 17.999 7.67065 18.0015H11.3583C12.4248 18.0015 13.0962 18.6546 13.0962 19.6618C13.0962 20.669 12.4222 21.3221 11.3557 21.3221Z" fill="#00004E"/>
</svg>
