<?xml version="1.0" encoding="UTF-8"?> <svg xmlns="http://www.w3.org/2000/svg" id="Layer_1" data-name="Layer 1" viewBox="0 0 447.83 91.8"><defs><style>.cls-1{fill:#464361;}.cls-2{fill:#e76a25;}</style></defs><rect class="cls-1" x="101.34" y="1.8" width="19.98" height="88.02"></rect><path class="cls-1" d="M196.19,2l-2.34,19.44a26.92,26.92,0,0,0-10.8-2.16c-9.71,0-20.51,8.1-20.51,23.58v47h-20V1.8h20V14.4C166.5,5.94,176.4,0,185,0A28.16,28.16,0,0,1,196.19,2Z"></path><path class="cls-1" d="M263.87,2l-2.34,19.44a26.92,26.92,0,0,0-10.8-2.16c-9.72,0-20.52,8.1-20.52,23.58v47h-20V1.8h20V14.4c4-8.46,13.86-14.4,22.5-14.4A28.16,28.16,0,0,1,263.87,2Z"></path><path class="cls-1" d="M359.81,1.8v88H339.65V76c-5.58,9.9-14.76,15.66-26.46,15.66-22.67,0-36.53-15.12-36.53-39.78V1.8h20V49.5c0,13.86,8.46,22.86,21.42,22.86s21.6-9,21.6-22.86V1.8Z"></path><path class="cls-1" d="M375.29,79l7.92-15.12c6.84,6.48,19.8,11,29.7,11,8.82,0,14.58-4.14,14.58-9.72,0-16.2-49-4.86-49-37.44,0-16.38,14-27.72,34.2-27.72,12.24,0,25,3.42,32.94,10.62L437.75,26.1c-7-6.12-19.62-9.36-27-9.36s-12.24,3.6-12.24,9.36c0,14.94,49.32,5.76,49.32,38.34,0,15.84-14.22,27.36-34.38,27.36C399.23,91.8,383.93,86.76,375.29,79Z"></path><path class="cls-1" d="M45.76,19.26h.14c9.54,0,17.46,4.68,21.06,11.7l16.92-9.54C77.4,8.46,63,0,45.9,0h-.14Z"></path><path class="cls-1" d="M68.76,59.4c-4,8.1-12.42,13-22.68,13C31,72.36,19.8,60.84,19.8,45.9v-.09H0v.09C0,72,20,91.62,46.08,91.62c18.36,0,33.84-9.54,40.5-24.12Z"></path><path class="cls-2" d="M32.36,19.08,27,25.41l-5,6-.54.65-.68-.57L18,29.11l-5.82-4.88L5.94,19l-.63-.52.53-.65,2.75-3.27,1.55-1.86c.18-.2.55-.65.55-.65s.47.36.68.54L14.18,15l6.23,5.22,1-1.17c1.72-2.05,3.44-4.09,5.15-6.14l5.73-6.82L37.36,0H9.65A9.65,9.65,0,0,0,0,9.65V37.36H27.81l9.55,8V13.12C35.69,15.11,34,17.09,32.36,19.08Z"></path></svg> 