<svg xmlns="http://www.w3.org/2000/svg" viewBox="0 0 169.45 102.64"><defs><style>.cls-1{fill:#3a126c}</style></defs><title>Asset 2</title><g id="Layer_2" data-name="Layer 2"><g id="Layer_1-2" data-name="Layer 1"><path class="cls-1" d="M33.58,38.7c.73-3.61,2.7-5,6.22-5.75q34.28-7.6,68.46-15.64C117.32,15.2,121.69,9.14,121.13,0c-5.08,3.27-10.86,4.65-16.53,6.26C79.71,13.38,53.66,16.38,29.28,25c-11.35,4-19.14,7-26.06,18.24C.64,47.47-.73,52,.4,57c.57,2.49,2.06,4.18,4.95,3.67,3.13-.55,2.45-2.46,2-4.76C6,49.53,8.74,43.93,14.7,40.56c3.56-2,7.43-3.28,12.88-4.6-7,5.7-6.39,13.09-8.34,19.55-.49,1.63-.09,3.94-2.41,4.45-5.78,1.26-5.11,5.92-5.91,10.48,2.07-.61,3.2-2.62,5.49-1.73-.89,4.47-1.85,9-2.68,13.47-.78,4.21-1.83,8.41-1.2,12.75.77,5.27,4.64,8.49,9.11,7.58,1.31-.27,2.92-.65,2.41-2.41-3-10.41,1-20.21,2.39-30.24.51-3.72,2-6,5.82-6.75,5.83-1.21,8.39-5.24,8.75-11.64a49,49,0,0,1-11.61,4.62C30.93,49.83,32.44,44.3,33.58,38.7Z"/><path class="cls-1" d="M108.16,30.66a70.15,70.15,0,0,1-6.5,13c-1.37,2.15-2.66,4.16-4.5,6.56a51.83,51.83,0,0,1-4.62,4.94,62.39,62.39,0,0,1,4.38-19.69c.72-1.93.71-3.91-1.61-3.12-5.67,1.94-12.39,1.31-16.64,7-2.82,3.77-7.19,13.34-8,16.43-.48,1.83-3.92,4.93-6.29,7.19a62.39,62.39,0,0,1,4.38-19.69c.72-1.93.71-3.91-1.61-3.12-5.67,1.94-12.39,1.31-16.64,7a45.12,45.12,0,0,0-6.88,12.05A32.22,32.22,0,0,0,42,69.86c.21,3.56,3.21,5.25,7.06,3.06,2.84-1.62,4.8-4.23,7-7.14,1.6,4.1,3.65,5.82,7.39,3.48,2.74-1.72,6.72-7,6.72-7,.87,3.88,3.24,5,7,2.85,2.84-1.62,4.8-4.23,7-7.14,1.6,4.1,3.65,5.82,7.39,3.48,2.49-1.56,7.91-8.42,10.5-12.63s4.9-8.44,7.34-12.66c1,4.5,1.27,13.39.71,15.16-.49,1.56-1.71,4.07-5.57,5.9-2.88,1.37,1,3.11,1,3.11,3,1.32,10.73,3.49,12.8-8.49a34.16,34.16,0,0,0-.12-10c-1.08-7.43-4.53-13.68,1.93-20.66C115,23.07,110.32,25.29,108.16,30.66ZM59.75,48.87a68,68,0,0,1-6.59,16.45c-.47.8-.94,1.93-2.12,1.75-1.41-.22-1.06-2.44-1-2.61s2.91-12,6.62-17.16c.62-.86,1.47-2.15,2.78-1.5S60,47.82,59.75,48.87Zm28.15-7.82A68,68,0,0,1,81.32,57.5c-.47.8-.94,1.93-2.12,1.75-1.41-.22-1.08-2.35-1-2.61s2.91-12,6.62-17.16c.62-.86,1.47-2.15,2.78-1.5S88.2,40,87.91,41.06Z"/><path class="cls-1" d="M169.45,10.2C164,12.36,159,14.7,156.9,20.4c-1.62,4.33-3.22,15.13-15.66,24.35,3.61-4.51,4.79-10.15,5.36-16.69.65-7.31-3.51-10.13-10.25-6.91-9.56,4.56-13.79,12.72-14.57,21.65-.34,7.27,3,9.57,7.29,9.39s11.28-1.76,21.35-11.57c4-3.91,5.83-7.36,7.71-12.28.88,4.93,2.29,8.49,1.76,16.12-.46,6.71-4.33,13.68-20.63,18.78C95.45,77,98.77,74.34,53.91,86c-9.29,2.42-11.83,5.26-12.5,15.1C52.88,98,103.69,84.62,141.29,72.17c24.12-8,26.07-15.49,27.33-23.23C170.74,36,159.55,19.74,169.45,10.2ZM138.84,27.77a44.56,44.56,0,0,1-4.89,16.89c-.66,1.25-1.52,3-3.23,2.45s-1.32-2.4-1.21-4c1-5.68,2.39-11.39,5.5-16.54.58-1,1.38-2.2,2.63-1.75S139,26.59,138.84,27.77Z"/></g></g></svg>