<svg version="1.1" id="Layer_1" xmlns:x="ns_extend;" xmlns:i="ns_ai;" xmlns:graph="ns_graphs;" xmlns="http://www.w3.org/2000/svg" xmlns:xlink="http://www.w3.org/1999/xlink" x="0px" y="0px" viewBox="0 0 337.3 56" style="enable-background:new 0 0 337.3 56;" xml:space="preserve">
 <style type="text/css">
  .st0{fill:#1E0046;}
 </style>
 <metadata>
  <sfw xmlns="ns_sfw;">
   <slices>
   </slices>
   <sliceSourceBounds bottomLeftOrigin="true" height="56" width="337.3" x="-217.1" y="11.6">
   </sliceSourceBounds>
  </sfw>
 </metadata>
 <g>
  <path class="st0" d="M14.6,52.1c-0.5,0-1.1-0.2-1.5-0.4C1.6,44.4-3,30.1,2,17.5C7.1,5,20.4-2.1,33.7,0.6C35.3,0.9,36.3,2.4,36,4
		c-0.3,1.6-1.9,2.5-3.4,2.2C22,4.1,11.4,9.7,7.4,19.7c-4,9.9-0.4,21.3,8.7,27.1c1.4,0.8,1.8,2.6,0.9,4
		C16.5,51.6,15.6,52.1,14.6,52.1L14.6,52.1z">
  </path>
  <path class="st0" d="M28.1,56c-1.9,0-3.8-0.2-5.7-0.6c-1.6-0.3-2.6-1.8-2.3-3.4c0.3-1.6,1.9-2.6,3.4-2.3
		c10.5,2.2,21.1-3.5,25.1-13.5c4-10,0.4-21.4-8.7-27.1c-1.4-0.9-1.8-2.6-0.9-4c0.8-1.3,2.6-1.8,4-0.9c11.5,7.2,16.1,21.6,11,34.1
		C49.8,49.2,39.4,56,28.1,56L28.1,56z">
  </path>
  <path class="st0" d="M37.7,41.8c-0.8,0-1.6-0.3-2.2-1c-1.1-1.2-0.9-3,0.3-4.1c3.8-3.3,5-8.7,3.1-13.3c-2-4.6-6.7-7.5-11.7-7
		c-1.6,0.1-3-1-3.1-2.6c-0.1-1.6,1-3,2.6-3.1c7.6-0.6,14.6,3.6,17.6,10.5c2.9,6.9,1.1,14.9-4.6,19.9C39.1,41.6,38.4,41.8,37.7,41.8
		L37.7,41.8z">
  </path>
  <path class="st0" d="M28.1,45.4c-7,0-13.3-4.1-16.1-10.6c-3-6.9-1.1-14.9,4.6-19.9c1.2-1.1,3-0.9,4.1,0.3c1.1,1.2,0.9,3-0.3,4.1
		c-3.8,3.3-5,8.7-3.1,13.3c2,4.6,6.7,7.5,11.7,7.1c1.6-0.2,3,1,3.1,2.6c0.1,1.6-1,3-2.6,3.1C29.1,45.4,28.6,45.4,28.1,45.4
		L28.1,45.4z">
  </path>
  <path class="st0" d="M114,22c0,1.6-1.3,3-3,3c-5,0-9,4-9,9v11.9c0,1.6-1.3,3-2.9,3c-1.6,0-3-1.4-3-3V33.9c0-8.2,6.7-14.8,14.9-14.8
		C112.7,19.1,114,20.4,114,22L114,22z">
  </path>
  <path class="st0" d="M143.6,33.8c0,1.6-1.3,2.9-3,2.9h-20.5c1.2,3.5,4.6,6.1,8.5,6.1c1.4,0,3.8-0.1,6.6-2c1.4-0.9,3.2-0.1,3.9,1.4
		c0.7,1.5-0.1,3-1.4,3.9c-3.9,2.6-6.9,2.5-9.1,2.5c-8.2,0-14.9-6.7-14.9-14.8S120.5,19,128.7,19C135.9,19,143.6,24.2,143.6,33.8
		L143.6,33.8z M120.2,30.9h17.1c-1.2-4.1-5-6-8.6-6C124.8,24.8,121.4,27.4,120.2,30.9z">
  </path>
  <path class="st0" d="M177,33.8c0,1.6-1.3,2.9-3,2.9h-20.5c1.2,3.5,4.6,6.1,8.5,6.1c1.4,0,3.8-0.1,6.6-2c1.4-0.9,3.2-0.1,3.9,1.4
		c0.7,1.5-0.1,3-1.4,3.9c-3.9,2.6-6.9,2.5-9.1,2.5c-8.2,0-14.9-6.7-14.9-14.8S153.8,19,162.1,19C169.3,19,177,24.2,177,33.8
		L177,33.8z M153.5,30.9h17.1c-1.2-4.1-5-6-8.6-6C158.1,24.8,154.8,27.4,153.5,30.9z">
  </path>
  <path class="st0" d="M203.4,45.8c0,1.6-1.2,2.8-2.8,2.8h-18.9c-1.6,0-2.8-1.2-2.8-2.8c0-0.8,0.3-1.3,0.8-2L197,21.9
		c2.6-5.5-3.4-11.1-8.8-8c-1.8,1.1-3,3-3,5.1c0,1.6-1.3,2.9-3,2.9c-1.7,0-3-1.3-3-2.9c0-3.2,1.4-6.1,3.4-8.2v-0.1
		c3.7-3.7,9.1-4.5,13.6-2.5c2.9,1.3,5.2,3.6,6.3,6.5c1.3,3.1,1.5,7.3-0.7,10l-14.3,18.1h13C202.2,42.9,203.4,44.2,203.4,45.8
		L203.4,45.8z">
  </path>
  <path class="st0" d="M248.6,31.2c0.1,0.1,0.1,0.2,0.1,0.3v14.4c0,1.7-1.4,3-3,3s-2.9-1.3-2.9-3V30.9c0-3.3-2.7-6-6.1-6
		c-3.3,0-6.1,2.7-6.1,6v14.9c0,1.7-1.3,3-2.9,3c-1.6,0-3-1.3-3-3V30.9c0-3.3-2.7-6-6-6s-6.1,2.7-6.1,6v14.9c0,1.7-1.3,3-2.9,3
		c-1.6,0-3-1.3-3-3V30.9c0-6.5,5.3-11.8,11.9-11.8c3.6,0,6.8,1.5,9,4.1c2.2-2.5,5.4-4.1,9-4.1c6.6,0,11.9,5.3,11.9,11.8
		C248.6,31.1,248.6,31.1,248.6,31.2L248.6,31.2z">
  </path>
  <path class="st0" d="M251.9,33.8c0-8.2,6.7-14.8,14.9-14.8c8.2,0,14.9,6.6,14.9,14.8c0,8.2-6.6,14.8-14.9,14.8
		C258.6,48.7,251.9,42,251.9,33.8z M257.8,33.8c0,4.9,4,9,9,9s9-4.1,9-9c0-4.9-4-9-9-9S257.8,28.9,257.8,33.8z">
  </path>
  <path class="st0" d="M306.4,23.1l-8.9,23.6c-0.5,1.2-1.6,2-2.8,2h-0.1c-1.2,0-2.4-0.8-2.8-2l-8.9-23.6c-0.6-1.5,0.2-3.3,1.7-3.8
		c1.5-0.6,3.2,0.2,3.8,1.7l6.2,16.5l6.2-16.5c0.6-1.5,2.3-2.3,3.8-1.7C306.2,19.8,306.9,21.5,306.4,23.1z">
  </path>
  <path class="st0" d="M337.3,33.8c0,1.6-1.3,2.9-3,2.9h-20.5c1.2,3.5,4.6,6.1,8.5,6.1c1.4,0,3.8-0.1,6.6-2c1.4-0.9,3.2-0.1,3.9,1.4
		c0.7,1.5-0.1,3-1.4,3.9c-3.9,2.6-6.9,2.5-9.1,2.5c-8.2,0-14.9-6.7-14.9-14.8S314.2,19,322.4,19C329.6,19,337.3,24.2,337.3,33.8
		L337.3,33.8z M313.9,30.9H331c-1.2-4.1-5-6-8.6-6C318.5,24.8,315.1,27.4,313.9,30.9z">
  </path>
  <path class="st0" d="M93.9,7.4H81.4c-2.2,0-5.2,1-6.8,2.6c-2.8,2.8-4.3,6.5-4.3,10.7h0v25.1c0,1.7,1.3,3,3,3s3-1.3,3-3V31.1h13.5
		c1.6,0,3-1.3,3-3c0-1.7-1.4-3-3-3H76.2v-4.2c0-2.7,0.2-4.5,2-6.3c1.4-1.4,5.7-1.3,7-1.3h8.6c1.6,0,3-1.3,3-3S95.5,7.3,93.9,7.4
		L93.9,7.4z">
  </path>
 </g>
</svg>