<?xml version="1.0" encoding="UTF-8" standalone="no"?>
<svg xmlns:dc="http://purl.org/dc/elements/1.1/" xmlns:cc="http://creativecommons.org/ns#" xmlns:rdf="http://www.w3.org/1999/02/22-rdf-syntax-ns#" xmlns:svg="http://www.w3.org/2000/svg" xmlns="http://www.w3.org/2000/svg" viewBox="0 0 362.97333 70.279999" height="70.279999" width="362.97333" xml:space="preserve" id="svg2" version="1.1"><metadata id="metadata8"><rdf:RDF><cc:Work rdf:about=""><dc:format>image/svg+xml</dc:format><dc:type rdf:resource="http://purl.org/dc/dcmitype/StillImage"/></cc:Work></rdf:RDF></metadata><defs id="defs6"/><g transform="matrix(1.3333333,0,0,-1.3333333,0,70.28)" id="g10"><g transform="scale(0.1)" id="g12"><path id="path14" style="fill:#2abade;fill-opacity:1;fill-rule:nonzero;stroke:none" d="m 322.336,101.387 v 146.75 H 238.48 V 145.93 c -10.484,-2.61 -22.019,-4.184 -33.019,-4.184 -84.391,0 -118.4532,78.098 -118.4532,150.949 0,84.907 47.1722,124.207 131.5542,124.207 27.778,0 56.079,-3.664 82.809,-12.047 l 9.434,60.274 c -31.446,4.719 -64.465,7.332 -96.961,7.332 C 96.4336,472.461 0,420.055 0,291.113 0,161.133 88.5781,89.3359 213.844,89.3359 c 36.16,0 72.855,4.1875 108.492,12.0511 m 305.441,191.484 c 0,73.707 -51.422,119.984 -125.121,119.984 -93.136,0 -150.84,-65.125 -150.84,-157.691 0,-101.121 73.715,-165.6913 171.977,-165.6913 41.715,0 92.57,10.8473 92.57,63.4183 0,3.425 0,6.855 -0.578,10.285 l -4,2.859 c -18.851,-14.863 -46.277,-18.855 -69.129,-18.855 -64.558,0 -102.844,38.843 -109.703,95.41 l 193.117,26.859 c 1.137,8 1.707,15.422 1.707,23.422 M 547.223,307.727 431.812,290.02 c 3.43,41.136 18.282,74.273 63.415,74.273 35.425,0 51.996,-26.289 51.996,-56.566 m 55.992,219.402 h -82.27 c -13.148,-21.715 -41.707,-60.563 -65.14,-82.84 v -5.723 c 39.422,0 63.414,6.289 87.984,30.852 z M 967.031,263.164 c 0,93.129 -53.711,150.266 -146.265,150.266 -96.563,0 -158.262,-61.715 -158.262,-158.828 0,-92.563 50.273,-166.8481 148.555,-166.8481 100.55,0 155.972,78.8481 155.972,175.4101 m -87.984,-10.281 c 0,-42.844 -11.434,-109.707 -62.277,-109.707 -57.141,0 -65.711,78.855 -65.711,119.988 0,40.57 10.855,94.832 62.847,94.832 54.856,0 65.141,-63.418 65.141,-105.113"/><path id="path16" style="fill:#3a1713;fill-opacity:1;fill-rule:nonzero;stroke:none" d="m 1163.75,336.301 c 0,-36.731 -21.67,-55.106 -51.82,-55.106 h -50.4 v 98.907 c 13.67,3.777 32.5,7.07 46.17,7.07 36.74,0 56.05,-17.899 56.05,-50.871 m 8.95,-142.239 c 0,-39.578 -21.67,-59.832 -63.59,-59.832 -12.25,0 -29.2,0.958 -47.58,2.832 v 109.747 h 53.7 c 36.27,0 57.47,-19.309 57.47,-52.747 m 48.04,-2.824 c 0,40.032 -22.14,64.055 -57.46,74.407 v 3.3 c 24.96,10.828 45.68,35.328 45.68,72.071 0,56.988 -36.73,82.906 -91.84,82.906 -23.09,0 -45.22,-5.195 -62.18,-15.074 -9.89,10.832 -24.49,15.074 -41.44,15.074 -21.203,0 -33.922,-8.949 -33.922,-30.625 v -11.301 h 22.142 c 11.78,0 15.07,-2.82 15.07,-16.023 V 104.082 c 33.91,-4.2265 69.71,-6.5937 93.26,-6.5937 60.76,0 110.69,26.3787 110.69,93.7497 m 151.15,158.735 c -5.66,1.879 -13.67,2.351 -18.84,2.351 -15.08,0 -32.03,-2.828 -58.88,-34.859 h -2.36 v 31.086 c -12.71,0 -30.61,-0.953 -41.92,-2.828 V 101.746 h 41.92 v 182.746 c 21.2,20.723 37.68,24.028 54.64,24.028 8,0 16.01,-1.418 21.2,-2.821 2.35,14.121 4.24,30.125 4.24,44.274 m 193.6,-97.5 c 0,63.097 -30.65,99.851 -90.45,99.851 -57.45,0 -100.79,-40.054 -100.79,-130.945 0,-83.359 39.1,-124.3478 112.57,-124.3478 23.56,0 55.58,5.6568 74.41,16.0038 -1.88,12.727 -6.11,28.266 -10.34,39.574 -14.6,-8.937 -40.51,-15.547 -63.13,-15.547 -52.28,0 -67.82,24.969 -67.82,76.305 v 3.774 h 144.1 c 0.97,11.304 1.45,24.949 1.45,35.332 m -91.38,66.875 c 31.55,0 49.44,-17.43 49.44,-57.934 0,-3.301 0,-11.305 -0.45,-15.066 h -102.7 c 1.42,51.8 21.2,73 53.71,73 m 250.75,-212.422 c -0.92,12.246 -3.32,26.355 -6.13,37.215 -9.41,-4.258 -24.48,-7.547 -35.79,-7.547 -24.01,0 -32.98,7.547 -32.98,36.758 v 137.515 h 59.36 c 1.88,12.254 2.83,24.957 2.83,36.731 h -62.19 v 60.297 c -12.22,-0.942 -31.07,-4.247 -42.38,-7.52 v -52.777 h -29.18 v -36.731 h 29.18 V 176.633 c 0,-54.184 20.72,-79.6018 71.62,-79.6018 13.16,0 32.95,3.7578 45.66,9.8948 m 164.98,44.258 c -15.53,-10.344 -32.03,-15.996 -52.27,-15.996 -35.81,0 -54.17,17.898 -54.17,87.117 0,71.14 22.61,92.343 64.55,92.343 13.16,0 29.17,-2.378 41.89,-8.488 z m 42.41,198.312 c -4.71,0.93 -9.91,1.406 -15.54,1.406 -9.89,0 -20.27,-1.879 -26.87,-5.652 -15.53,4.723 -29.21,7.074 -43.79,7.074 -65.47,0 -107.88,-42.875 -107.88,-135.183 0,-83.86 33.45,-120.1098 88.09,-120.1098 24.5,0 45.22,8.9378 66.88,29.1988 h 1.41 c 10.37,-24.011 27.79,-29.1988 46.66,-29.1988 18.35,0 32.49,7.9958 32.49,29.1988 v 12.708 h -27.32 c -11.31,0 -14.13,4.246 -14.13,16.023 z M 2188.08,85.7031 c 0,49.0039 -26.36,65.0119 -67.85,65.0119 h -73.46 c -9.43,0 -14.16,4.246 -14.16,15.074 0,7.082 3.8,19.328 14.16,32.492 8.47,-2.336 21.18,-4.707 33.91,-4.707 45.7,0 82.43,24.492 82.43,78.199 0,25.907 -9.43,48.047 -28.74,63.129 v 11.77 c 0,21.652 9.44,31.551 30.62,31.551 h 23.09 v 13.656 c 0,16.016 -8.04,24.019 -26.36,24.019 -34.43,0 -58.91,-19.3 -58.91,-66.402 -8.48,1.875 -16.97,2.828 -26.38,2.828 -53.22,0 -85.27,-33.453 -85.27,-81.957 0,-25.445 10.38,-47.105 28.28,-59.351 -12.24,-15.547 -22.6,-40.977 -26.36,-55.118 2.33,-11.757 8,-24.011 13.64,-32.957 -16.47,-16.972 -23.54,-31.5816 -23.54,-51.3472 C 1983.18,32.0312 2005.31,0 2080.21,0 c 72.99,0 107.87,35.7891 107.87,85.7031 m -40.52,-3.75 c 0,-32.5 -22.62,-46.6211 -65.47,-46.6211 -46.63,0 -60.76,13.1836 -60.76,44.7266 0,8.957 1.88,22.1604 10.83,31.5744 h 86.19 c 21.68,0 29.21,-6.125 29.21,-29.6799 m -24.02,191.2379 c 0,-34.863 -17.43,-48.043 -46.16,-48.043 -28.74,0 -45.22,14.598 -45.22,48.043 0,32.508 15.54,48.508 45.22,48.508 28.73,0 46.16,-13.179 46.16,-48.508 m 271.91,-171.445 v 175.68 c 0,56.992 -32.49,74.898 -69.71,74.898 -25.45,0 -48.03,-6.601 -72.54,-27.801 h -2.34 v 24.028 c -12.72,0 -30.62,-0.953 -41.92,-2.828 V 101.746 h 41.92 v 193.102 c 18.84,12.718 37.67,19.324 61.22,19.324 30.62,0 40.97,-14.602 40.97,-38.629 V 101.746 Z m 215.03,150.727 c 0,63.097 -30.62,99.851 -90.42,99.851 -57.49,0 -100.82,-40.054 -100.82,-130.945 0,-83.359 39.1,-124.3478 112.58,-124.3478 23.56,0 55.59,5.6568 74.4,16.0038 -1.85,12.727 -6.11,28.266 -10.34,39.574 -14.61,-8.937 -40.5,-15.547 -63.13,-15.547 -52.28,0 -67.84,24.969 -67.84,76.305 v 3.774 h 144.16 c 0.93,11.304 1.41,24.949 1.41,35.332 m -91.38,66.875 c 31.55,0 49.45,-17.43 49.45,-57.934 0,-3.301 0,-11.305 -0.47,-15.066 H 2465.4 c 1.43,51.8 21.19,73 53.7,73 m 203.16,40.75 c 0,32.824 -22.09,53.222 -50.34,53.222 -29.24,0 -50.15,-21.601 -50.15,-53.222 0,-32.813 21.1,-53.727 50.15,-53.727 29.24,0 50.34,21.262 50.34,53.727 m -6.97,-0.504 c 0,-28.571 -17.34,-47.11 -43.37,-47.11 -26,0 -43.35,19.911 -43.35,47.11 0,28.058 16.33,47.261 43.35,47.261 24.99,0 43.37,-18.867 43.37,-47.261 m -24.83,-17.86 c -3.05,6.289 -6.8,11.227 -10.35,14.457 6.95,2.207 12.39,8.5 12.39,17.172 0,13.61 -9.51,18.703 -21.09,18.703 -5.78,0 -12.55,-0.347 -20.22,-1.187 v -63.766 h 10.87 v 25.332 h 8.51 c 2.91,-2.879 6.78,-8.492 10.21,-15.644 l 4.92,-10.024 c 3.57,0.172 7.99,0.172 11.57,1.012 z m -9,30.957 c 0,-8 -4.79,-11.398 -12.08,-11.398 h -7.32 v 21.422 c 2.56,0.172 5.79,0.347 8.51,0.347 6.62,0 10.89,-3.234 10.89,-10.371"/></g></g></svg>