<?xml version="1.0" encoding="UTF-8" standalone="no"?>
<!-- Created with Inkscape (http://www.inkscape.org/) -->

<svg
   width="76.919907mm"
   height="26.149284mm"
   viewBox="0 0 76.919907 26.149284"
   version="1.1"
   id="svg855"
   inkscape:version="1.1 (c68e22c387, 2021-05-23)"
   sodipodi:docname="georchestra-logo.svg"
   xmlns:inkscape="http://www.inkscape.org/namespaces/inkscape"
   xmlns:sodipodi="http://sodipodi.sourceforge.net/DTD/sodipodi-0.dtd"
   xmlns="http://www.w3.org/2000/svg"
   xmlns:svg="http://www.w3.org/2000/svg">
  <sodipodi:namedview
     id="namedview857"
     pagecolor="#ffffff"
     bordercolor="#666666"
     borderopacity="1.0"
     inkscape:pageshadow="2"
     inkscape:pageopacity="0.0"
     inkscape:pagecheckerboard="0"
     inkscape:document-units="mm"
     showgrid="false"
     fit-margin-top="2"
     fit-margin-right="2"
     fit-margin-bottom="2"
     fit-margin-left="2"
     inkscape:zoom="4.0920134"
     inkscape:cx="120.47859"
     inkscape:cy="47.775992"
     inkscape:window-width="2400"
     inkscape:window-height="1271"
     inkscape:window-x="2391"
     inkscape:window-y="-9"
     inkscape:window-maximized="1"
     inkscape:current-layer="layer1" />
  <defs
     id="defs852" />
  <g
     inkscape:label="Calque 1"
     inkscape:groupmode="layer"
     id="layer1"
     transform="translate(-73.097929,-135.79112)">
    <g
       id="g53648"
       transform="matrix(1.1048988,0,0,1.1048988,-54.141498,96.632368)">
      <path
         id="path164290-3-6-4"
         style="fill:#85127e;fill-opacity:0.4;stroke-width:0.606168;stroke-linecap:round;stroke-linejoin:round;paint-order:markers stroke fill"
         d="m 126.99257,37.251152 a 10.023325,10.023325 0 0 0 -10.0231,10.023355 10.023325,10.023325 0 0 0 10.0231,10.023083 10.023325,10.023325 0 0 0 9.62187,-7.232846 3.0318022,3.5371027 0 0 1 -2.01469,-3.330589 3.0318022,3.5371027 0 0 1 1.70117,-3.175791 10.023325,10.023325 0 0 0 -9.30835,-6.307212 z"
         inkscape:export-filename="C:\Users\Agathe\Desktop\georchestra_univers.png"
         inkscape:export-xdpi="200"
         inkscape:export-ydpi="200" />
      <path
         id="path20251-5-9-8-2"
         style="fill:#85127e;fill-opacity:1;stroke-width:0.337452;stroke-linecap:round;stroke-linejoin:round;paint-order:markers stroke fill"
         d="m 138.54037,41.724815 a 4.988567,4.988567 0 0 0 -4.9887,4.988712 4.988567,4.988567 0 0 0 4.9887,4.98844 4.988567,4.988567 0 0 0 4.98844,-4.98844 4.988567,4.988567 0 0 0 -4.98844,-4.988712 z m 0,2.683748 a 2.3048444,2.3048444 0 0 1 2.30472,2.304964 2.3048444,2.3048444 0 0 1 -2.30472,2.304704 2.3048444,2.3048444 0 0 1 -2.30496,-2.304704 2.3048444,2.3048444 0 0 1 2.30496,-2.304964 z"
         inkscape:export-filename="C:\Users\Agathe\Desktop\georchestra_univers.png"
         inkscape:export-xdpi="200"
         inkscape:export-ydpi="200" />
      <g
         aria-label="ge     rchestra"
         id="text10089-26-6-9"
         style="font-size:9.62958px;line-height:1.25;font-family:Roboto;-inkscape-font-specification:'Roboto, Normal';letter-spacing:0px;fill:#85127e;stroke-width:0.601849">
        <path
           d="m 123.84851,51.576041 q -0.66682,0 -1.14556,-0.177819 -0.47875,-0.177819 -0.76941,-0.475324 -0.29067,-0.297505 -0.40351,-0.653142 l 1.11478,-0.270148 q 0.0752,0.140203 0.21886,0.287245 0.14362,0.150463 0.38641,0.249631 0.24621,0.102588 0.61895,0.102588 0.52662,0 0.872,-0.25305 0.34537,-0.25305 0.34537,-0.817283 v -0.995103 h -0.0615 q -0.0957,0.191498 -0.28041,0.393254 -0.18123,0.201756 -0.48216,0.33854 -0.2975,0.136784 -0.74889,0.136784 -0.60527,0 -1.09769,-0.283827 -0.489,-0.287246 -0.77967,-0.854899 -0.28724,-0.571072 -0.28724,-1.42939 0,-0.865158 0.28724,-1.460167 0.29067,-0.59843 0.78309,-0.906193 0.49242,-0.311183 1.09769,-0.311183 0.46165,0 0.75915,0.157301 0.30092,0.153882 0.47874,0.372736 0.17782,0.215434 0.27015,0.406932 h 0.0684 v -0.868577 h 1.2208 v 5.337987 q 0,0.659982 -0.32144,1.09769 -0.32144,0.441128 -0.87884,0.656563 -0.55739,0.218854 -1.26525,0.218854 z m 0.0103,-3.104992 q 0.39325,0 0.67024,-0.191498 0.27699,-0.191497 0.42061,-0.550555 0.14362,-0.359057 0.14362,-0.861738 0,-0.495841 -0.14362,-0.868577 -0.1402,-0.372736 -0.41719,-0.577911 -0.27357,-0.208596 -0.67366,-0.208596 -0.41377,0 -0.69076,0.215435 -0.27699,0.215434 -0.41719,0.59159 -0.1402,0.372736 -0.1402,0.848059 0,0.482163 0.1402,0.84464 0.14362,0.359058 0.42061,0.560814 0.28041,0.198337 0.68734,0.198337 z"
           id="path1811" />
        <path
           d="m 129.91145,49.620032 q -0.78993,0 -1.36442,-0.328281 -0.57107,-0.3317 -0.87883,-0.936969 -0.30777,-0.608688 -0.30777,-1.43281 0,-0.810444 0.30777,-1.422552 0.31118,-0.615527 0.86857,-0.957486 0.5574,-0.345379 1.30971,-0.345379 0.48558,0 0.91645,0.157301 0.43429,0.153882 0.76599,0.478743 0.33512,0.324862 0.52662,0.827542 0.19149,0.499261 0.19149,1.19002 v 0.379575 h -4.30527 v -0.834382 h 3.11867 q -0.003,-0.355638 -0.15388,-0.632625 -0.15046,-0.280406 -0.42061,-0.441127 -0.26673,-0.160721 -0.62236,-0.160721 -0.37958,0 -0.66683,0.184658 -0.28724,0.181238 -0.44796,0.478743 -0.1573,0.294085 -0.16072,0.646303 v 0.728374 q 0,0.458226 0.16756,0.786507 0.16756,0.324862 0.46848,0.499261 0.30093,0.17098 0.70444,0.17098 0.27015,0 0.489,-0.07523 0.21885,-0.07865 0.37957,-0.229113 0.16073,-0.150462 0.2428,-0.372736 l 1.15582,0.129944 q -0.10943,0.458226 -0.41719,0.800186 -0.30435,0.33854 -0.77967,0.526617 -0.47532,0.184658 -1.08743,0.184658 z"
           id="path1813" />
        <path
           d="m 145.2449,49.517445 v -5.252498 h 1.20027 v 0.875416 h 0.0547 q 0.14362,-0.454806 0.49242,-0.701017 0.35222,-0.24963 0.8036,-0.24963 0.10259,0 0.22912,0.01026 0.12994,0.0068 0.21543,0.02394 v 1.138725 q -0.0787,-0.02736 -0.24963,-0.04787 -0.16756,-0.02394 -0.32486,-0.02394 -0.33854,0 -0.60869,0.147043 -0.26673,0.143623 -0.42061,0.400092 -0.15388,0.25647 -0.15388,0.59159 v 3.087895 z"
           style="font-weight:600;font-family:inter;-inkscape-font-specification:'inter Semi-Bold'"
           id="path1815" />
        <path
           d="m 151.13685,49.620032 q -0.7865,0 -1.35074,-0.345379 -0.56081,-0.345379 -0.86516,-0.954067 -0.30092,-0.612107 -0.30092,-1.408873 0,-0.800185 0.30776,-1.412293 0.30777,-0.615527 0.86858,-0.957486 0.56423,-0.345379 1.33364,-0.345379 0.63947,0 1.13189,0.235952 0.49584,0.232532 0.78993,0.659982 0.29408,0.424029 0.33512,0.991682 h -1.18318 q -0.0718,-0.379575 -0.34196,-0.632625 -0.26673,-0.256469 -0.7147,-0.256469 -0.37957,0 -0.66682,0.205175 -0.28725,0.201756 -0.44797,0.581331 -0.1573,0.379575 -0.1573,0.909613 0,0.536876 0.1573,0.92329 0.1573,0.382995 0.44113,0.59159 0.28725,0.205176 0.67366,0.205176 0.27357,0 0.489,-0.102588 0.21886,-0.106007 0.3659,-0.304344 0.14704,-0.198336 0.20176,-0.482163 h 1.18318 q -0.0445,0.557394 -0.32829,0.988263 -0.28382,0.42745 -0.77282,0.670241 -0.48901,0.239371 -1.14899,0.239371 z"
           style="font-weight:600;font-family:inter;-inkscape-font-specification:'inter Semi-Bold'"
           id="path1817" />
        <path
           d="m 155.64387,46.439809 v 3.077636 h -1.2379 v -7.003331 h 1.21054 v 2.643347 h 0.0615 q 0.18466,-0.444547 0.57107,-0.701017 0.38984,-0.259889 0.99169,-0.259889 0.54713,0 0.95406,0.229113 0.40694,0.229113 0.62921,0.67024 0.22569,0.441128 0.22569,1.077173 v 3.344364 h -1.23789 v -3.152867 q 0,-0.530037 -0.27357,-0.824122 -0.27015,-0.297505 -0.75915,-0.297505 -0.32828,0 -0.58817,0.143623 -0.25647,0.140203 -0.40351,0.406932 -0.14362,0.266728 -0.14362,0.646303 z"
           style="font-weight:600;font-family:inter;-inkscape-font-specification:'inter Semi-Bold'"
           id="path1819" />
        <path
           d="m 162.6335,49.620032 q -0.78992,0 -1.36441,-0.328281 -0.57108,-0.3317 -0.87884,-0.936969 -0.30776,-0.608688 -0.30776,-1.43281 0,-0.810444 0.30776,-1.422552 0.31118,-0.615527 0.86858,-0.957486 0.55739,-0.345379 1.3097,-0.345379 0.48558,0 0.91645,0.157301 0.43429,0.153882 0.76599,0.478743 0.33512,0.324862 0.52662,0.827542 0.1915,0.499261 0.1915,1.19002 v 0.379575 h -4.30527 v -0.834382 h 3.11867 q -0.003,-0.355638 -0.15388,-0.632625 -0.15047,-0.280406 -0.42061,-0.441127 -0.26673,-0.160721 -0.62237,-0.160721 -0.37958,0 -0.66682,0.184658 -0.28725,0.181238 -0.44797,0.478743 -0.1573,0.294085 -0.16072,0.646303 v 0.728374 q 0,0.458226 0.16756,0.786507 0.16756,0.324862 0.46849,0.499261 0.30092,0.17098 0.70443,0.17098 0.27015,0 0.489,-0.07523 0.21886,-0.07865 0.37958,-0.229113 0.16072,-0.150462 0.24279,-0.372736 l 1.15582,0.129944 q -0.10942,0.458226 -0.41719,0.800186 -0.30434,0.33854 -0.77967,0.526617 -0.47532,0.184658 -1.08743,0.184658 z"
           style="font-weight:600;font-family:inter;-inkscape-font-specification:'inter Semi-Bold'"
           id="path1821" />
        <path
           d="m 170.16686,45.653302 -1.12846,0.123106 q -0.0479,-0.17098 -0.16756,-0.321442 -0.11627,-0.150462 -0.31461,-0.242792 -0.19833,-0.09233 -0.48558,-0.09233 -0.38641,0 -0.64972,0.167561 -0.25989,0.16756 -0.25647,0.434288 -0.003,0.229113 0.16756,0.372736 0.1744,0.143623 0.57449,0.235952 l 0.89593,0.191497 q 0.74548,0.160721 1.10795,0.50952 0.3659,0.348799 0.36932,0.913032 -0.003,0.495841 -0.29067,0.875416 -0.28382,0.376156 -0.78992,0.588171 -0.5061,0.212014 -1.16267,0.212014 -0.96432,0 -1.55249,-0.403512 -0.58817,-0.406932 -0.70102,-1.131886 l 1.20712,-0.116266 q 0.0821,0.355638 0.3488,0.536876 0.26673,0.181239 0.69417,0.181239 0.44113,0 0.70786,-0.181239 0.27015,-0.181238 0.27015,-0.447966 0,-0.225694 -0.1744,-0.372736 -0.17098,-0.147043 -0.53346,-0.225694 l -0.89593,-0.188077 q -0.75573,-0.157302 -1.11821,-0.530038 -0.36248,-0.376155 -0.35906,-0.950647 -0.003,-0.485582 0.26331,-0.84122 0.27015,-0.359058 0.74889,-0.553975 0.48217,-0.198336 1.11137,-0.198336 0.92329,0 1.45333,0.393253 0.53346,0.393254 0.65998,1.063495 z"
           style="font-weight:600;font-family:inter;-inkscape-font-specification:'inter Semi-Bold'"
           id="path1823" />
        <path
           d="m 173.925,44.264947 v 0.957486 h -3.01951 v -0.957486 z m -2.27403,-1.258411 h 1.23789 v 4.931056 q 0,0.24963 0.0752,0.382994 0.0787,0.129945 0.20518,0.177819 0.12652,0.04788 0.2804,0.04788 0.11627,0 0.21202,-0.0171 0.0992,-0.0171 0.15046,-0.03078 l 0.2086,0.967746 q -0.0992,0.0342 -0.28383,0.07523 -0.18124,0.04104 -0.44455,0.04787 -0.46506,0.01368 -0.8378,-0.140203 -0.37274,-0.157302 -0.59159,-0.485583 -0.21543,-0.328281 -0.21201,-0.820703 z"
           style="font-weight:600;font-family:inter;-inkscape-font-specification:'inter Semi-Bold'"
           id="path1825" />
        <path
           d="m 174.96112,49.517445 v -5.252498 h 1.20028 v 0.875416 h 0.0547 q 0.14363,-0.454806 0.49242,-0.701017 0.35222,-0.24963 0.80361,-0.24963 0.10259,0 0.22911,0.01026 0.12995,0.0068 0.21544,0.02394 v 1.138725 q -0.0787,-0.02736 -0.24963,-0.04787 -0.16756,-0.02394 -0.32487,-0.02394 -0.33853,0 -0.60868,0.147043 -0.26673,0.143623 -0.42061,0.400092 -0.15388,0.25647 -0.15388,0.59159 v 3.087895 z"
           style="font-weight:600;font-family:inter;-inkscape-font-specification:'inter Semi-Bold'"
           id="path1827" />
        <path
           d="m 180.19309,49.623452 q -0.49926,0 -0.89936,-0.177819 -0.39667,-0.181238 -0.6292,-0.533457 -0.22911,-0.352218 -0.22911,-0.868577 0,-0.444547 0.16414,-0.735213 0.16414,-0.290665 0.44796,-0.465065 0.28383,-0.174399 0.63947,-0.263309 0.35905,-0.09233 0.74205,-0.133364 0.46164,-0.04787 0.74889,-0.08549 0.28725,-0.04104 0.41719,-0.123105 0.13337,-0.08549 0.13337,-0.263309 v -0.02052 q 0,-0.386415 -0.22912,-0.59843 -0.22911,-0.212014 -0.65998,-0.212014 -0.45481,0 -0.72153,0.198336 -0.26331,0.198337 -0.35564,0.468485 L 178.6064,45.64646 q 0.13678,-0.478743 0.45138,-0.800185 0.3146,-0.324862 0.76941,-0.485583 0.45481,-0.16414 1.00536,-0.16414 0.37958,0 0.75573,0.08891 0.37616,0.08891 0.68734,0.294085 0.31118,0.201757 0.49926,0.550555 0.1915,0.348799 0.1915,0.871997 v 3.515344 h -1.19002 V 48.79591 h -0.041 q -0.11284,0.218854 -0.31802,0.410351 -0.20175,0.188078 -0.50952,0.304344 -0.30434,0.112847 -0.71469,0.112847 z m 0.32144,-0.909612 q 0.37274,0 0.6463,-0.147043 0.27357,-0.150462 0.42061,-0.396673 0.15047,-0.246211 0.15047,-0.536876 v -0.618947 q -0.0581,0.04787 -0.19834,0.08891 -0.13679,0.04104 -0.30776,0.07181 -0.17098,0.03078 -0.33854,0.05471 -0.16756,0.02394 -0.29067,0.04104 -0.27699,0.03761 -0.49584,0.123105 -0.21886,0.08549 -0.34538,0.239372 -0.12653,0.150462 -0.12653,0.389834 0,0.341959 0.24963,0.516358 0.24964,0.1744 0.63605,0.1744 z"
           style="font-weight:600;font-family:inter;-inkscape-font-specification:'inter Semi-Bold'"
           id="path1829" />
      </g>
    </g>
  </g>
</svg>
