<?xml version="1.0" encoding="UTF-8"?>
<svg version="1.1" xmlns="http://www.w3.org/2000/svg" width="10174" height="1670">
<path d="M0 0 C23.10783904 1.15539195 23.10783904 1.15539195 30.43359375 1.9453125 C31.30354477 2.03560226 32.17349579 2.12589203 33.06980896 2.21891785 C35.86000713 2.5126465 38.64883048 2.81711246 41.4375 3.125 C42.41744934 3.2322641 43.39739868 3.3395282 44.40704346 3.45004272 C110.21996734 10.71906887 175.06755286 24.36454179 238 45 C238.67466309 45.22065125 239.34932617 45.44130249 240.04443359 45.66864014 C279.22716826 58.51088013 317.12948077 74.59765495 354 93 C354.60177063 93.29970703 355.20354126 93.59941406 355.82354736 93.90820312 C391.87812342 111.88556739 426.514673 132.87575038 459.08642578 156.60595703 C460.45290398 157.60143937 461.82128128 158.59431699 463.19091797 159.58544922 C473.81692642 167.280145 484.17650887 175.21243948 494.28076172 183.58056641 C496.69305718 185.57220029 499.12995367 187.53318419 501.5625 189.5 C512.51996568 198.48610754 523.09100618 207.89064722 533.44677734 217.56005859 C534.9285503 218.93376134 536.42679138 220.28963653 537.92578125 221.64453125 C545.28678383 228.29960161 552.35069723 235.2432816 559.375 242.25 C559.8494455 242.7218573 560.32389099 243.1937146 560.81271362 243.67987061 C565.85747903 248.7029031 570.7826624 253.76758726 575.41748047 259.17236328 C577.98228508 262.13443167 580.68693517 264.96275634 583.375 267.8125 C588.04683901 272.80545284 592.49800315 277.90568757 596.7734375 283.24609375 C598.76706588 285.71189727 600.81026579 288.12591321 602.87866211 290.52905273 C609.40079305 298.11943371 615.45836239 306.03003783 621.48925781 314.01318359 C622.83038844 315.77693942 624.18610115 317.52705275 625.5546875 319.26953125 C680.89898427 389.94692007 721.43062659 472.82846164 789.25 745.9375 C789.32713226 746.7035556 789.40426453 747.46961121 789.48373413 748.25888062 C792.24539826 776.11139759 793.38858909 803.99767771 793.31785583 831.97522736 C793.31238123 834.2365587 793.31003752 836.49787948 793.3079834 838.75921631 C793.27106763 864.9237681 792.39068804 890.9336232 790 917 C789.89108429 918.20456848 789.89108429 918.20456848 789.77996826 919.43347168 C782.09988813 1003.64121666 762.07148716 1086.6964505 708 1216 C707.69535828 1216.62777344 707.39071655 1217.25554687 707.07684326 1217.90234375 C698.64067824 1235.28149234 689.74269528 1252.30942281 680 1269 C678.95438914 1270.80987391 677.90881625 1272.61976976 676.86328125 1274.4296875 C666.15891021 1292.84893544 654.95376643 1311.08269878 642.29541016 1328.23339844 C640.80019243 1330.27248541 639.32711958 1332.3266543 637.85546875 1334.3828125 C627.84827671 1348.35414951 617.38371029 1361.87128595 606.49707031 1375.16650391 C605.16580047 1376.79694039 603.84393831 1378.43504819 602.5234375 1380.07421875 C597.9713327 1385.71207293 593.23300382 1391.12335167 588.328125 1396.45703125 C586.39305738 1398.57067054 584.49791703 1400.70659848 582.625 1402.875 C573.00051877 1413.91136749 562.80130344 1424.35938513 552.43505859 1434.6953125 C550.23547928 1436.88948502 548.04135993 1439.08901723 545.84765625 1441.2890625 C544.4248 1442.71125856 543.00163391 1444.13314471 541.578125 1445.5546875 C540.93522522 1446.19961151 540.29232544 1446.84453552 539.62994385 1447.50900269 C535.79748421 1451.32201988 531.85279051 1454.95189894 527.75709534 1458.48101807 C525.35202697 1460.56016273 523.02259088 1462.71785539 520.6875 1464.875 C516.19986568 1468.96757435 511.59069772 1472.85270834 506.86328125 1476.6640625 C504.3462336 1478.71753384 501.8749594 1480.81512778 499.41430664 1482.93554688 C492.19775444 1489.13907598 484.67178515 1494.85149924 477.01757812 1500.50146484 C475.07880447 1501.9414688 473.15426864 1503.39823152 471.234375 1504.86328125 C453.78477294 1518.15617111 435.71341362 1530.55643328 417 1542 C416.21093262 1542.48388184 415.42186523 1542.96776367 414.60888672 1543.46630859 C359.1632065 1577.36776437 300.66478977 1604.51328334 239 1625 C238.31437988 1625.2281842 237.62875977 1625.45636841 236.92236328 1625.69146729 C170.36016033 1647.78088858 100.8922834 1661.29018458 31.1875 1668.375 C30.35728333 1668.4606723 29.52706665 1668.5463446 28.67169189 1668.63461304 C26.29618143 1668.87669893 23.91991345 1669.10840712 21.54296875 1669.3359375 C20.8685524 1669.40435349 20.19413605 1669.47276947 19.49928284 1669.54325867 C12.93461235 1670.14429752 6.68935183 1670 0 1670 C0 1589.15 0 1508.3 0 1425 C11.88 1423.68 23.76 1422.36 36 1421 C58.50130379 1417.61693684 80.39739182 1413.35778302 102.46484375 1407.953125 C103.15586685 1407.78562241 103.84688995 1407.61811981 104.55885315 1407.44554138 C108.22165226 1406.53283388 111.4668562 1405.41325752 115 1404 C5.44 1294.44 -104.12 1184.88 -217 1072 C-215.05946117 1068.11892233 -212.92234914 1065.64304013 -209.90363121 1062.65474224 C-209.3769477 1062.12545145 -208.8502642 1061.59616066 -208.30762058 1061.05083075 C-206.5326688 1059.26955755 -204.75064486 1057.49553165 -202.96859741 1055.72135925 C-201.68520917 1054.43638346 -200.4022589 1053.15097011 -199.11971056 1051.86515599 C-195.58688156 1048.32589802 -192.04781874 1044.79293089 -188.50772834 1041.26093805 C-184.6934798 1037.45325516 -180.88498471 1033.63982532 -177.07577515 1029.82710266 C-169.60849333 1022.3547726 -162.1358703 1014.88780584 -154.66144459 1007.4226224 C-145.9586147 998.73016755 -137.26100523 990.03249707 -128.56360491 981.33461014 C-113.04244645 965.81295071 -97.51645752 950.29613204 -81.98779297 934.78198242 C-66.91971752 919.72798412 -51.85514061 904.67050132 -36.79443359 889.60913086 C-35.86753965 888.68219696 -34.9406457 887.75526305 -33.98566405 886.80024024 C-33.06037547 885.8749113 -32.13508688 884.94958235 -31.18175924 883.99621314 C-14.04180444 866.8555681 3.10144065 849.7182172 20.24621458 832.58239254 C26.30961592 826.52200615 32.37204166 820.46064487 38.43416214 814.39897728 C45.826059 807.00776326 53.21984829 799.61844817 60.61599024 792.23148199 C64.38928064 788.46280278 68.16178871 784.69334952 71.93214417 780.92173386 C75.38568581 777.4670939 78.84153832 774.01478309 82.29922979 770.56429676 C83.54781319 769.31752043 84.79556534 768.06991095 86.04238673 766.82137253 C91.68906978 761.16777669 97.32694958 755.55880233 103.40800512 750.36602753 C105.42216479 748.63775717 107.31408519 746.80895933 109.18896484 744.93128967 C109.91516525 744.20646393 110.64136566 743.48163818 111.38957214 742.73484802 C112.15562271 741.96520218 112.92167328 741.19555634 113.7109375 740.40258789 C114.54115921 739.57251221 115.37138092 738.74243652 116.22676086 737.88720703 C118.94522027 735.16805608 121.66012956 732.44539011 124.375 729.72265625 C126.26906859 727.82672079 128.16333372 725.93098377 130.05786133 724.0355072 C134.5184793 719.57179501 138.97654449 715.10554245 143.4336729 710.63834614 C148.51278213 705.54801612 153.59476918 700.4605633 158.67698669 695.37333691 C169.12117101 684.9187315 179.56178 674.46056046 190 664 C192.84932051 665.29524967 194.9077794 666.65838803 197.11590958 668.86981392 C197.70908423 669.45900647 198.30225888 670.04819903 198.91340852 670.6552459 C199.55543647 671.30309953 200.19746441 671.95095316 200.85894775 672.61843872 C201.8931295 673.65005719 201.8931295 673.65005719 202.9482038 674.70251644 C205.26224374 677.01325643 207.56905286 679.33108287 209.87597656 681.64892578 C211.53128842 683.30480164 213.18704051 684.9602375 214.84320068 686.61526489 C219.34317791 691.11466718 223.83695254 695.62021898 228.32966328 700.1268754 C232.54855021 704.3569819 236.77203406 708.58249152 240.99550459 712.80802046 C249.36062098 721.17751382 257.72126152 729.55146353 266.07910156 737.92822266 C274.19785138 746.06533122 282.31869966 754.20033603 290.44238281 762.33251953 C290.94314718 762.83380934 291.44391154 763.33509915 291.95985058 763.85157956 C294.47205759 766.36639665 296.98430595 768.88117243 299.49657488 771.39592767 C320.33746446 792.25754981 341.17102364 813.12648329 362 834 C360.54356041 837.34789337 358.70604312 839.54283071 356.13067436 842.1154213 C354.91247956 843.33958925 354.91247956 843.33958925 353.66967475 844.58848786 C352.77280043 845.4795365 351.87592611 846.37058514 350.95187378 847.28863525 C349.99276667 848.24861442 349.03409914 849.20903294 348.07583439 850.16985297 C345.43967085 852.81049399 342.79730248 855.44484919 340.15389514 858.0782361 C337.30502732 860.91847752 334.46193078 863.76448555 331.61813354 866.60980225 C326.68971607 871.53926908 321.75764615 876.46505703 316.82308578 881.38837433 C309.68852164 888.50669341 302.55947797 895.63052016 295.43177523 902.7557089 C283.86776718 914.31533829 272.29929864 925.87049308 260.72802734 937.42285156 C249.48675417 948.64577038 238.24758075 959.87078512 227.01123047 971.09863281 C226.31877294 971.79056489 225.62631541 972.48249697 224.91287433 973.19539669 C221.43907669 976.66658428 217.96532035 980.1378132 214.49158454 983.60906267 C185.66745707 1012.4124523 156.83609119 1041.20858799 128 1070 C129.45857497 1073.04485296 130.915297 1075.16397679 133.31298828 1077.5559082 C133.987742 1078.23373856 134.66249573 1078.91156891 135.35769653 1079.60993958 C136.0878598 1080.33291733 136.81802307 1081.05589508 137.5703125 1081.80078125 C138.32537079 1082.55538132 139.08042908 1083.30998138 139.85836792 1084.08744812 C141.45822751 1085.68428739 143.06051605 1087.27869627 144.66503906 1088.87084961 C147.10011349 1091.28779873 149.52722151 1093.71252165 151.953125 1096.13867188 C153.5125524 1097.69317839 155.07243411 1099.24722932 156.6328125 1100.80078125 C157.70983932 1101.87613884 157.70983932 1101.87613884 158.80862427 1102.97322083 C161.99041218 1106.12574492 165.18802406 1109.19732889 168.60302734 1112.09643555 C174.58440346 1117.26434123 180.07023192 1122.96078611 185.63905334 1128.56388855 C187.75658088 1130.69431126 189.8773315 1132.82147922 191.99890137 1134.94787598 C197.2646852 1140.22694934 202.52498392 1145.51147737 207.78546143 1150.7958374 C212.24155061 1155.27173302 216.69973385 1159.74552329 221.16065979 1164.21659851 C223.23870342 1166.30107178 225.31368535 1168.38855921 227.3885498 1170.47619629 C234.49466269 1177.68634341 234.49466269 1177.68634341 241.98632812 1184.48632812 C247.93543848 1189.54023221 253.32556431 1195.21708798 258.82424927 1200.74908447 C260.97538337 1202.91311041 263.12973789 1205.07388478 265.28491211 1207.23388672 C270.63417053 1212.59643673 275.97794525 1217.96444046 281.32189941 1223.33227539 C285.84844978 1227.87862986 290.37709261 1232.42288075 294.90847778 1236.9644165 C297.01975925 1239.08212905 299.12798008 1241.20285548 301.23608398 1243.32373047 C309.59511712 1251.72179584 309.59511712 1251.72179584 318.40893555 1259.63601685 C320.8517174 1261.73015784 323.10793786 1263.99611247 325.375 1266.27734375 C326.29667969 1267.20224609 327.21835938 1268.12714844 328.16796875 1269.08007812 C329.11203607 1270.03249568 330.05604582 1270.98497031 331 1271.9375 C331.97502386 1272.9175531 332.9502828 1273.8973724 333.92578125 1274.87695312 C336.28616618 1277.24902313 338.64416905 1279.6234086 341 1282 C345.5177821 1279.11326008 349.58133411 1275.95216811 353.625 1272.4375 C354.23327637 1271.9122876 354.84155273 1271.3870752 355.46826172 1270.84594727 C360.4141938 1266.55479427 365.26420871 1262.16575834 370.06640625 1257.71484375 C372.0449562 1255.88382881 374.02867752 1254.06252905 376.02734375 1252.25390625 C384.81224318 1244.29431053 393.42914613 1236.17905118 401.1328125 1227.1484375 C403.0277202 1224.96810437 404.97909863 1222.84643522 406.94458008 1220.72973633 C412.55281826 1214.68310028 417.88176954 1208.46992931 423 1202 C423.51433594 1201.35289063 424.02867187 1200.70578125 424.55859375 1200.0390625 C485.74021245 1122.89087819 524.33150867 1031.13338861 541 907 C541.11859375 905.82244141 541.2371875 904.64488281 541.359375 903.43164062 C544.70112666 868.32335684 544.3993841 832.08847963 541 797 C540.93683594 796.34545837 540.87367188 795.69091675 540.80859375 795.01654053 C533.62039168 721.32205347 514.49970274 649.08412303 483 582 C482.55720703 581.04883301 482.11441406 580.09766602 481.65820312 579.11767578 C460.03907537 532.78779604 433.06541363 489.13596584 400.43261719 449.73681641 C398.37117868 447.23765595 396.34583293 444.70954629 394.3125 442.1875 C390.54395302 437.58226644 386.59211696 433.17126466 382.5546875 428.80078125 C380.59991996 426.65771041 378.69584123 424.49243441 376.80297852 422.29589844 C373.2172254 418.19394083 369.45520048 414.31016295 365.59765625 410.46484375 C364.91626083 409.78249161 364.23486542 409.10013947 363.53282166 408.39710999 C362.10294259 406.96655563 360.67182089 405.53724233 359.23950195 404.10913086 C357.06802289 401.94300926 354.90193675 399.77159826 352.73632812 397.59960938 C351.33625798 396.20020013 349.93587762 394.80110116 348.53515625 393.40234375 C347.89844498 392.76360825 347.2617337 392.12487274 346.60572815 391.46678162 C342.23095298 387.11433965 337.67832871 383.02254192 333 379 C331.91695677 378.05063239 330.8347425 377.10031695 329.75390625 376.1484375 C321.51983759 368.96620802 313.00077738 362.23540335 304.25488281 355.68847656 C302.73870241 354.55314702 301.22506577 353.41441322 299.71386719 352.27246094 C278.37763308 336.15555023 255.85342092 322.06765869 232.37890625 309.29589844 C230.8061055 308.43912233 229.2357376 307.57786344 227.66796875 306.71191406 C157.12997071 267.84582808 79.39735866 252.2179417 0 245 C0 164.15 0 83.3 0 0 Z " fill="#070102" transform="translate(884,0)"/>
<path d="M0 0 C0 80.85 0 161.7 0 245 C-13.53 246.65 -27.06 248.3 -41 250 C-66.35087182 254.12063641 -91.26527174 259.0800349 -116 266 C-110.4297419 272.78780006 -104.22663744 278.91300644 -98.01907349 285.10791016 C-96.79019476 286.33794201 -95.56153396 287.56819162 -94.33307159 288.7986393 C-90.96664914 292.16922874 -87.59712404 295.53670135 -84.22706771 298.90365696 C-80.58919825 302.53926181 -76.95421002 306.17774547 -73.31884766 309.81585693 C-66.20033355 316.93881648 -59.07911996 324.05907126 -51.95693339 331.17835855 C-46.16774079 336.96529214 -40.37952575 342.75320181 -34.59200668 348.54180908 C-33.76807176 349.36589724 -32.94413683 350.1899854 -32.09523418 351.03904593 C-30.421381 352.71321884 -28.74753006 354.38739399 -27.07368134 356.06157136 C-11.37934787 371.75875607 4.31804866 387.45287479 20.01649441 403.14594674 C33.48229633 416.60728178 46.9454754 430.07123537 60.40673828 443.53710938 C76.04237825 459.1781028 91.67964173 474.81747014 107.31949341 490.45425224 C108.98778942 492.12222971 110.65608334 493.79020926 112.32437515 495.45819092 C113.14518439 496.27884588 113.96599363 497.09950084 114.81167587 497.94502413 C120.59176222 503.72424759 126.37068843 509.50462955 132.14916611 515.28546143 C139.19338357 522.33248568 146.23938444 529.37772095 153.28766595 536.42068052 C156.88277732 540.01316665 160.4770898 543.60644238 164.06923294 547.20189667 C167.35977805 550.49542898 170.65263653 553.78663005 173.94732811 557.07601428 C175.136578 558.26415033 176.3249928 559.453123 177.5124694 560.64303136 C183.0022134 566.14315122 188.48461017 571.60217628 194.4121505 576.6375227 C196.77495512 578.66496149 198.96284456 580.85075801 201.15625 583.05859375 C202.47109375 584.37827148 202.47109375 584.37827148 203.8125 585.72460938 C204.699375 586.61986328 205.58625 587.51511719 206.5 588.4375 C207.87671875 589.82098633 207.87671875 589.82098633 209.28125 591.23242188 C211.52315055 593.48599899 213.762666 595.74189075 216 598 C214.71077131 600.83110876 213.36044098 602.89018884 211.16574585 605.08840448 C210.2918905 605.9709234 210.2918905 605.9709234 209.40038151 606.87127098 C208.75862336 607.50920434 208.11686522 608.14713769 207.45565987 608.80440235 C206.7724476 609.49142029 206.08923532 610.17843824 205.38531965 610.8862749 C203.07795249 613.2040085 200.76347982 615.51451499 198.44900513 617.82514954 C196.78328985 619.49531443 195.11800686 621.16591056 193.45312107 622.83690232 C189.82367405 626.4775971 186.19109703 630.11513868 182.55575562 633.74994659 C177.15003684 639.15487294 171.75000042 644.56544988 166.35101584 649.97710194 C155.58685322 660.76601737 144.81470352 671.54693803 134.04066473 682.32598954 C133.48260844 682.884307 132.92455215 683.44262447 132.34958506 684.01786065 C131.79043499 684.57727099 131.23128493 685.13668133 130.65519093 685.71304349 C124.4637876 691.90752699 118.27409718 698.10372126 112.08446884 704.29997826 C93.39892674 723.00516723 74.71176527 741.70873451 56.01780891 760.40551472 C55.41976628 761.00365142 54.82172364 761.60178812 54.20555849 762.21805017 C51.78184896 764.6421382 49.35813217 767.06621898 46.93441364 769.490298 C45.11008264 771.31490073 43.28575411 773.13950593 41.46142578 774.96411133 C40.85859814 775.56702699 40.2557705 776.16994265 39.63467536 776.79112849 C20.6807885 795.74792273 1.73653012 814.71429454 -17.20068359 833.68774414 C-38.46279451 854.99053829 -59.73336065 876.28484251 -81.0156728 897.56745595 C-83.28275925 899.83463922 -85.54981074 902.10185744 -87.81683731 904.36910057 C-88.37506741 904.92737479 -88.93329751 905.485649 -89.50844368 906.06084062 C-98.50914733 915.06266623 -107.50166708 924.0726249 -116.49136113 933.08544371 C-125.51747064 942.13434137 -134.55278229 951.17396783 -143.59761654 960.20414982 C-148.97705582 965.57540888 -154.34938612 970.95356012 -159.71195218 976.34166631 C-163.70717654 980.35438728 -167.71522774 984.35408213 -171.72858776 988.3486568 C-173.35746496 989.97400858 -174.98205673 991.60366779 -176.60207556 993.23784903 C-178.79145746 995.44514417 -180.99540787 997.63673312 -183.20397758 999.82480335 C-183.84105339 1000.47444253 -184.4781292 1001.12408172 -185.13451034 1001.79340693 C-186.91504753 1003.53834134 -186.91504753 1003.53834134 -190 1006 C-193.24335042 1005.58079212 -194.84546414 1004.52876703 -197.13152695 1002.23761654 C-197.72818499 1001.64693164 -198.32484304 1001.05624674 -198.93958163 1000.44766229 C-199.58550053 999.79300487 -200.23141943 999.13834745 -200.89691162 998.46385193 C-201.59044967 997.77287715 -202.28398772 997.08190238 -202.99854207 996.36998898 C-205.32881453 994.04467174 -207.64817865 991.70876794 -209.96777344 989.37280273 C-211.63272267 987.70700761 -213.29833213 986.04187217 -214.96455383 984.37734985 C-219.49364277 979.84912376 -224.01340462 975.31168911 -228.53159237 970.77258945 C-232.7734265 966.51250486 -237.02358445 962.26072994 -241.27300778 958.00821842 C-249.69000006 949.58465909 -258.10027007 941.15442106 -266.50634766 932.7199707 C-274.6724298 924.52635454 -282.84165463 916.33589291 -291.01513672 908.1496582 C-291.51888808 907.64511867 -292.02263944 907.14057914 -292.54165599 906.62075054 C-295.06882986 904.08966157 -297.59606576 901.55863455 -300.1233325 899.02763832 C-321.09184603 878.02802101 -342.04935595 857.01744551 -363 836 C-361.54356041 832.65210663 -359.70604312 830.45716929 -357.13067436 827.8845787 C-355.91247956 826.66041075 -355.91247956 826.66041075 -354.66967475 825.41151214 C-353.77280043 824.5204635 -352.87592611 823.62941486 -351.95187378 822.71136475 C-350.99276667 821.75138558 -350.03409914 820.79096706 -349.07583439 819.83014703 C-346.43967085 817.18950601 -343.79730248 814.55515081 -341.15389514 811.9217639 C-338.30502732 809.08152248 -335.46193078 806.23551445 -332.61813354 803.39019775 C-327.68971607 798.46073092 -322.75764615 793.53494297 -317.82308578 788.61162567 C-310.68852164 781.49330659 -303.55947797 774.36947984 -296.43177523 767.2442911 C-284.86776718 755.68466171 -273.29929864 744.12950692 -261.72802734 732.57714844 C-250.48675417 721.35422962 -239.24758075 710.12921488 -228.01123047 698.90136719 C-227.31877294 698.20943511 -226.62631541 697.51750303 -225.91287433 696.80460331 C-222.43907669 693.33341572 -218.96532035 689.8621868 -215.49158454 686.39093733 C-186.66745707 657.5875477 -157.83609119 628.79141201 -129 600 C-130.61531615 596.5803033 -132.41251026 594.34800823 -135.125 591.6875 C-135.84945312 590.96949219 -136.57390625 590.25148438 -137.3203125 589.51171875 C-139.34393064 587.61494548 -141.38588469 585.81078601 -143.49365234 584.01293945 C-148.30837182 579.80706351 -152.80603519 575.3081722 -157.30552673 570.76963806 C-158.81812332 569.24406023 -160.33401202 567.72181914 -161.85070801 566.20031738 C-165.61395801 562.42383018 -169.37168668 558.64186489 -173.12957764 554.86004639 C-176.31735668 551.65240132 -179.50727042 548.44690705 -182.69993591 545.24412537 C-184.17970556 543.75796311 -185.65638565 542.26878004 -187.13293457 540.77941895 C-190.99154591 536.90687085 -194.83425751 533.07243913 -198.98632812 529.51367188 C-203.72706873 525.44816851 -208.0963995 521.01604704 -212.49072266 516.58444214 C-214.0369274 515.02526273 -215.58641896 513.46941379 -217.13671875 511.91430664 C-220.98344225 508.05434197 -224.82464716 504.18890098 -228.66601562 500.3236084 C-231.92425696 497.04550558 -235.1846299 493.76955008 -238.44775391 490.49630737 C-239.96076052 488.97690534 -241.4706797 487.45448297 -242.98046875 485.93188477 C-247.49790816 481.39068544 -252.07550173 477.00465324 -256.93920898 472.8359375 C-260.89020438 469.31603638 -264.58122896 465.52625198 -268.30552673 461.76963806 C-269.81812332 460.24406023 -271.33401202 458.72181914 -272.85070801 457.20031738 C-276.61395801 453.42383018 -280.37168668 449.64186489 -284.12957764 445.86004639 C-287.31735668 442.65240132 -290.50727042 439.44690705 -293.69993591 436.24412537 C-295.17970556 434.75796311 -296.65638565 433.26878004 -298.13293457 431.77941895 C-302.6774846 427.21845465 -307.26732224 422.80768736 -312.15539551 418.61752319 C-315.28306705 415.8748858 -318.19745757 412.92567697 -321.125 409.97265625 C-321.75736572 409.33887558 -322.38973145 408.70509491 -323.04125977 408.05210876 C-325.02989986 406.05794022 -327.01500527 404.06029647 -329 402.0625 C-330.36044318 400.69703255 -331.72111831 399.33179614 -333.08203125 397.96679688 C-336.3907031 394.64719114 -339.69621322 391.32446727 -343 388 C-347.45722611 391.23832516 -351.68489511 394.4389766 -355.5 398.4375 C-358.09035824 401.14243178 -360.74830582 403.6669412 -363.58984375 406.1015625 C-368.48204686 410.34447414 -373.0518938 414.90134779 -377.6184082 419.48803711 C-379.06025221 420.93524385 -380.50737116 422.37702026 -381.95507812 423.81835938 C-387.18341138 429.04294371 -392.19676317 434.3828476 -397 440 C-398.45445517 441.60768373 -399.91220895 443.21239715 -401.375 444.8125 C-406.10513275 450.06198855 -410.58548951 455.48368606 -415 461 C-415.61415771 461.76473633 -415.61415771 461.76473633 -416.24072266 462.54492188 C-470.14297169 529.80439108 -509.78417642 608.28124356 -545.15234375 902.01171875 C-534.45412287 996.5478761 -499.78277916 1085.40823792 -413 1209 C-412.51934082 1209.57975586 -412.03868164 1210.15951172 -411.54345703 1210.75683594 C-405.78117329 1217.69862753 -399.84746279 1224.44467574 -393.703125 1231.05078125 C-391.74777929 1233.15756439 -389.87531658 1235.31970902 -388.01171875 1237.5078125 C-383.06686398 1243.17969384 -377.70325842 1248.44587919 -372.37573242 1253.75463867 C-370.56639067 1255.55862085 -368.76245681 1257.36788665 -366.95898438 1259.17773438 C-361.14049908 1264.99957534 -355.28397711 1270.67646025 -349 1276 C-347.39231627 1277.45445517 -345.78760285 1278.91220895 -344.1875 1280.375 C-338.93819023 1285.10576093 -333.50376055 1289.56997052 -328 1294 C-326.86686303 1294.92538408 -325.73406551 1295.85118393 -324.6015625 1296.77734375 C-299.20545578 1317.45171704 -271.55124579 1335.97828917 -243 1352 C-242.05527832 1352.53141602 -241.11055664 1353.06283203 -240.13720703 1353.61035156 C-214.8928749 1367.72843156 -188.91017438 1379.49290703 -162 1390 C-161.00436035 1390.39171387 -160.0087207 1390.78342773 -158.98291016 1391.18701172 C-107.81267496 1411.15970204 -54.43501677 1419.41692136 0 1425 C0 1505.85 0 1586.7 0 1670 C-14.67256058 1670 -14.67256058 1670 -21.296875 1669.37109375 C-22.03225494 1669.3016304 -22.76763489 1669.23216705 -23.52529907 1669.16059875 C-25.93452652 1668.92860314 -28.34228384 1668.68466714 -30.75 1668.4375 C-31.5995929 1668.35141479 -32.44918579 1668.26532959 -33.32452393 1668.17663574 C-121.45653518 1659.15379461 -208.21171526 1639.37112256 -351 1579 C-352.41273193 1578.31405762 -352.41273193 1578.31405762 -353.85400391 1577.61425781 C-368.22742152 1570.62749418 -382.19227879 1563.0454826 -396 1555 C-396.84240234 1554.50918945 -397.68480469 1554.01837891 -398.55273438 1553.51269531 C-418.57769209 1541.78515267 -438.20457723 1529.39694842 -456.85400391 1515.57666016 C-459.0685817 1513.94961313 -461.30205812 1512.35227347 -463.54296875 1510.76171875 C-473.09439398 1503.97280019 -482.28304992 1496.86612246 -491.30761719 1489.39257812 C-493.55554533 1487.54286922 -495.83883383 1485.73962447 -498.125 1483.9375 C-507.24420398 1476.66055945 -516.03181357 1468.95809091 -524.66796875 1461.1171875 C-526.18480687 1459.74009159 -527.70794468 1458.36989217 -529.23828125 1457.0078125 C-543.47011442 1444.3307174 -557.93943117 1431.40749235 -570.32421875 1416.89453125 C-572.13977378 1414.84198069 -574.04759536 1412.92253994 -576 1411 C-579.8799727 1407.16445447 -583.45857014 1403.14755921 -587 1399 C-587.90594952 1397.94635615 -588.81222583 1396.89299323 -589.71875 1395.83984375 C-592.30957591 1392.82762101 -594.89136705 1389.80777905 -597.47119141 1386.78613281 C-598.89627954 1385.12117836 -600.32803478 1383.46223918 -601.76171875 1381.8046875 C-608.58560237 1373.87913463 -614.97121008 1365.65879907 -621.26123047 1357.30517578 C-623.03257796 1354.95680973 -624.81446888 1352.61672831 -626.59765625 1350.27734375 C-640.63871112 1331.79122415 -653.87584999 1312.79957454 -666 1293 C-666.39203613 1292.36223633 -666.78407227 1291.72447266 -667.18798828 1291.06738281 C-712.53155546 1217.09713259 -746.06171081 1137.23361185 -780 994 C-780.12914795 993.27411682 -780.2582959 992.54823364 -780.39135742 991.800354 C-790.17402213 936.54278232 -794.93908166 880.12608467 -794 824 C-793.98211426 822.85853516 -793.96422852 821.71707031 -793.94580078 820.54101562 C-792.402557 734.16442204 -778.58045677 648.75710892 -711 460 C-710.52981445 458.99114746 -710.05962891 457.98229492 -709.57519531 456.94287109 C-691.13044171 417.46210703 -669.12060826 379.61450906 -644 344 C-643.35853027 343.08831055 -643.35853027 343.08831055 -642.70410156 342.15820312 C-636.94931072 333.99432877 -631.04620862 325.95117847 -625 318 C-624.5978125 317.47019531 -624.195625 316.94039063 -623.78125 316.39453125 C-615.01757503 304.86482136 -605.82674364 293.71483004 -596.43701172 282.69140625 C-595.00600998 281.00707393 -593.58262965 279.3165372 -592.16015625 277.625 C-579.76331987 262.94413438 -566.38225562 249.2127283 -552.78149414 235.65112305 C-550.5360842 233.41114814 -548.29617161 231.16577304 -546.05664062 228.91992188 C-544.60188354 227.46582458 -543.14681682 226.01203697 -541.69140625 224.55859375 C-541.03604385 223.90120712 -540.38068146 223.2438205 -539.70545959 222.56651306 C-535.84644986 218.72676008 -531.87782596 215.06821186 -527.75311279 211.51499939 C-525.34908929 209.43749807 -523.02121854 207.28087684 -520.6875 205.125 C-516.19986568 201.03242565 -511.59069772 197.14729166 -506.86328125 193.3359375 C-504.3462336 191.28246616 -501.8749594 189.18487222 -499.41430664 187.06445312 C-492.20740945 180.86922371 -484.69216764 175.16311508 -477.04833984 169.52050781 C-475.01823918 168.01353917 -473.00136453 166.49054634 -470.98828125 164.9609375 C-462.46524289 158.49147997 -453.80152115 152.28652276 -444.93066406 146.30273438 C-443.08298614 145.05599571 -441.24051245 143.80187066 -439.3984375 142.546875 C-416.66907966 127.14435595 -392.87408883 113.44756348 -368.70263672 100.45556641 C-366.969975 99.52240207 -365.23960844 98.58495605 -363.51220703 97.64208984 C-339.22947601 84.38848195 -313.68029392 73.24448634 -288 63 C-286.9780957 62.5889502 -285.95619141 62.17790039 -284.90332031 61.75439453 C-249.5270416 47.6200366 -212.96747406 36.15856429 -176 27 C-175.21963379 26.80662048 -174.43926758 26.61324097 -173.63525391 26.41400146 C-125.4222546 14.52131456 -76.42580855 6.36832782 -27 1.5625 C-26.14119232 1.47860016 -25.28238464 1.39470032 -24.39755249 1.30825806 C-21.97394621 1.07494071 -19.54977956 0.84966788 -17.125 0.62890625 C-16.43030106 0.5636676 -15.73560211 0.49842896 -15.01985168 0.43121338 C-9.95663716 -0.00944345 -5.13297578 0 0 0 Z " fill="#070102" transform="translate(794,0)"/>
<path d="M0 0 C63.03 0 126.06 0 191 0 C198.00128891 12.38689577 204.88364078 24.59104015 211.43359375 37.17578125 C214.19109499 42.41471135 217.12394045 47.54860439 220.0625 52.6875 C225.39842363 62.02856535 230.48260408 71.48580489 235.5 81 C240.88375453 91.20754723 246.38159388 101.32417148 252.1171875 111.33984375 C256.92853946 119.78060265 261.47993096 128.35046833 266.0249939 136.93624878 C271.02950475 146.38369388 276.18495206 155.72768241 281.48828125 165.01171875 C285.20966937 171.54502857 288.7451072 178.155151 292.20825195 184.828125 C295.35737326 190.86158794 298.68429993 196.77976964 302.0625 202.6875 C307.39842363 212.02856535 312.48260408 221.48580489 317.5 231 C322.88375453 241.20754723 328.38159388 251.32417148 334.1171875 261.33984375 C338.56694171 269.14623638 342.79607962 277.05968981 347 285 C351.71465806 293.90461242 356.49636316 302.75299396 361.5 311.5 C366.86843783 320.88472549 371.97235915 330.39308192 377.03076172 339.94677734 C381.40398863 348.2008536 385.86126907 356.3908968 390.5 364.5 C395.86633645 373.88105199 400.96897258 383.38537024 406.02471924 392.93569946 C410.97004177 402.27142629 416.0300641 411.52677544 421.3125 420.67773438 C426.47328406 429.66680497 431.15703073 438.79835838 436 448 C436.33 300.16 436.66 152.32 437 0 C500.03 0 563.06 0 628 0 C628 245.52 628 491.04 628 744 C564.97 744 501.94 744 437 744 C422.33108108 718.0472973 422.33108108 718.0472973 417.5 709 C413.2585104 701.11259016 408.92932225 693.283437 404.5 685.5 C399.43714305 676.60162221 394.51870058 667.63341555 389.65966797 658.62231445 C385.30836928 650.55513022 380.88001844 642.53428227 376.41210938 634.53125 C365.20677812 614.44534501 354.09135413 594.31001042 342.98962402 574.16674805 C340.63940764 569.90256088 338.28877586 565.63860307 335.9375 561.375 C335.44021896 560.47325043 335.44021896 560.47325043 334.93289185 559.55328369 C330.13800127 550.85989103 325.32525701 542.17658567 320.5 533.5 C315.33770192 524.21736046 310.19164376 514.92598447 305.0625 505.625 C304.73105988 505.02399475 304.39961975 504.4229895 304.05813599 503.80377197 C301.36791538 498.92515896 298.67874901 494.04596503 295.98962402 489.16674805 C293.63940764 484.90256088 291.28877586 480.63860307 288.9375 476.375 C288.44021896 475.47325043 288.44021896 475.47325043 287.93289185 474.55328369 C283.13800127 465.85989103 278.32525701 457.17658567 273.5 448.5 C266.30869887 435.5688877 259.1584647 422.61540943 252.01611328 409.65722656 C250.01032535 406.01839165 248.00339358 402.38018858 245.99609375 398.7421875 C245.50139587 397.84560425 245.50139587 397.84560425 244.9967041 396.9309082 C243.99782211 395.12059477 242.99891591 393.31029471 242 391.5 C238.32375058 384.83768257 234.64752812 378.1753518 230.97441101 371.51130676 C223.50228446 357.9549134 216.01735503 344.40597551 208.48608398 330.88232422 C202.95397152 320.94127368 197.482938 310.96897818 192 301 C191.67 447.19 191.34 593.38 191 744 C127.97 744 64.94 744 0 744 C0 498.48 0 252.96 0 0 Z " fill="#070102" transform="translate(6687,463)"/>
<path d="M0 0 C118.3978125 -4.1146875 118.3978125 -4.1146875 239.1875 -8.3125 C263.81914795 -9.52333252 288.4507959 -10.73416504 313.82885742 -11.98168945 C501.57151741 -17.60311151 501.57151741 -17.60311151 568.04548454 43.84324074 C628.85430957 101.52250672 643.6888798 176.21231522 646.06179143 257.36343756 C646.76439491 286.23914586 646.09192324 315.08676735 645.21855844 343.9502928 C644.6374328 363.34873783 644.69213435 382.65210302 645.27907279 402.04962463 C651.61288253 612.10290275 651.61288253 612.10290275 580.54345822 687.69450402 C526.65516414 743.78307256 460.7290717 755.311045 385.60181385 756.8232025 C336.72992427 757.71288412 288.00653525 754.71232625 239.1875 752.3125 C120.7896875 748.1978125 120.7896875 748.1978125 0 744 C0 498.48 0 252.96 0 0 Z M191 167 C191 302.3 191 437.6 191 577 C224.350625 577.804375 257.70125 578.60875 292.0625 579.4375 C302.51429932 579.79255615 312.96609863 580.1476123 323.73461914 580.51342773 C333.26988621 580.64402019 333.26988621 580.64402019 342.8056488 580.7223053 C346.9949638 580.75807735 351.16419207 580.90137911 355.3480072 581.1174469 C379.00443672 582.27826539 399.04226154 580.26719492 417.6653049 564.3280251 C436.90007666 546.48429224 441.14716896 526.46820936 442.15852273 501.440189 C442.50328597 491.34890239 442.45280669 481.26416026 442.30848711 471.16964335 C442.221218 464.90688664 442.21371374 458.64825123 442.25775337 452.38508415 C442.26401818 451.4832726 442.27028299 450.58146106 442.27673765 449.65232189 C442.28978334 447.8185228 442.30299345 445.98472487 442.31636591 444.15092813 C442.43191456 427.07599665 442.31057093 410.00928362 442.1043675 392.93561988 C441.93426448 378.38400573 441.97153078 363.84493279 442.15991211 349.29370117 C442.3802307 332.2695024 442.46648569 315.25277245 442.34968287 298.22730488 C442.33751513 296.40111492 442.32551745 294.57492382 442.31369209 292.74873161 C442.30781606 291.85094412 442.30194003 290.95315663 442.29588593 290.02816345 C442.26392204 283.79582074 442.32408906 277.56853392 442.42124748 271.33700752 C443.69256646 224.87442423 443.69256646 224.87442423 422.3160001 185.12316024 C406.41114322 169.35629238 389.53791001 162.4955233 367.27915287 162.34890652 C361.91276332 162.41048873 356.56410547 162.66313455 351.20562744 162.9487915 C346.09691461 163.18208176 340.99592502 163.18757022 335.88183594 163.21582031 C321.08315125 163.42314759 306.29105561 163.98161116 291.5 164.5 C258.335 165.325 225.17 166.15 191 167 Z " fill="#070102" transform="translate(7438,463)"/>
<path d="M0 0 C0.6290625 0.42345703 1.258125 0.84691406 1.90625 1.28320312 C15.4134376 10.46750849 28.000868 20.9358653 40 32 C40.9178125 32.8146875 41.835625 33.629375 42.78125 34.46875 C54.96820536 45.37286795 65.83970586 57.29145297 75.71630859 70.31787109 C76.97821684 71.97145569 78.26040657 73.6068471 79.55078125 75.23828125 C103.40744001 105.5075729 121.54901436 140.6020216 134 177 C134.34224609 177.98323242 134.68449219 178.96646484 135.03710938 179.97949219 C149.55036271 221.98079287 156.24803713 266.01361681 156.1875 310.375 C156.18659363 311.61573273 156.18659363 311.61573273 156.18566895 312.88153076 C155.99632093 409.04492444 122.13106144 503.9802711 43.26367188 586.92163086 C37.7651729 592.34729798 32.10535593 597.26279105 26 602 C24.83872009 602.94755571 23.68003411 603.89829595 22.5234375 604.8515625 C-41.96553836 657.78749692 -127.33749153 682.19494513 -209.875 682.25 C-210.79285278 682.25067474 -211.71070557 682.25134949 -212.65637207 682.25204468 C-266.95906367 682.18919162 -322.03701819 671.68267031 -371.59277344 649.09423828 C-373.9100605 648.04088325 -376.2386501 647.01713867 -378.5703125 645.99609375 C-399.69625829 636.56036772 -419.69848852 624.10923022 -438 610 C-438.93199219 609.28714844 -439.86398438 608.57429688 -440.82421875 607.83984375 C-443.25419707 605.93420858 -445.63405332 603.98458125 -448 602 C-448.54640137 601.54238281 -449.09280273 601.08476563 -449.65576172 600.61328125 C-455.83272678 595.42496404 -461.96570431 590.25816752 -467.5625 584.4375 C-469.19257862 582.75811554 -469.19257862 582.75811554 -472 580.5625 C-474.97641202 578.02014807 -477.38092269 575.37624894 -479.90625 572.40234375 C-481.91620337 570.09614725 -484.00235258 567.87844296 -486.11108398 565.6628418 C-549.65911059 498.48701299 -578.96123722 401.40638012 -579.08398438 292.46380615 C-576.25431969 209.45139747 -546.62982168 126.674203 -493 63 C-492.16726562 61.98164062 -491.33453125 60.96328125 -490.4765625 59.9140625 C-478.43839484 45.35085788 -465.0072495 31.50701638 -450 20 C-448.8539217 19.06859908 -447.71091115 18.13341583 -446.5703125 17.1953125 C-388.59206759 -30.33736626 -314.42498726 -56.10233468 -240 -61 C-239.23719727 -61.05494629 -238.47439453 -61.10989258 -237.68847656 -61.16650391 C-155.62332468 -67.05809359 -68.35759834 -46.0699023 0 0 Z M-344.08496094 183.71606445 C-371.79244332 212.23944433 -388.79866793 254.19477257 -389.23828125 293.9609375 C-389.2480751 294.7005069 -389.25786896 295.44007629 -389.26795959 296.20205688 C-389.5361489 321.76231644 -387.09845922 345.60748174 -379 370 C-378.76023437 370.72364746 -378.52046875 371.44729492 -378.2734375 372.19287109 C-374.75514284 382.58585553 -370.15195661 392.32582547 -365 402 C-364.53255371 402.89283691 -364.53255371 402.89283691 -364.05566406 403.80371094 C-356.14968158 418.80416236 -345.73722672 431.83531738 -334 444 C-333.26394531 444.78761719 -332.52789063 445.57523438 -331.76953125 446.38671875 C-304.64979897 474.6920131 -263.54377444 491.30927121 -224.5859375 492.203125 C-175.84747753 492.74094269 -124.51802061 480.56076285 -88.2578125 446.140625 C-86.47128673 444.44682548 -84.68247649 442.8926517 -82.75 441.375 C-79.0895099 438.21366764 -76.07003398 434.72920628 -73 431 C-71.88818359 429.67935547 -71.88818359 429.67935547 -70.75390625 428.33203125 C-50.6951063 403.52330748 -39.45860387 373.36064712 -35 342 C-34.85643066 341.03767456 -34.85643066 341.03767456 -34.70996094 340.0559082 C-33.71746683 332.50992926 -33.75632494 324.91057606 -33.75 317.3125 C-33.74932526 316.58212524 -33.74865051 315.85175049 -33.74795532 315.09924316 C-33.76631615 302.53220378 -34.55970354 290.35623281 -37 278 C-37.17160645 277.13020508 -37.34321289 276.26041016 -37.52001953 275.36425781 C-46.43935667 231.79580668 -68.86187808 189.02809397 -105 162 C-106.51207031 160.82244141 -106.51207031 160.82244141 -108.0546875 159.62109375 C-177.99429999 106.32127198 -284.22787827 123.68375613 -344.08496094 183.71606445 Z " fill="#070102" transform="translate(3310,525)"/>
<path d="M0 0 C63.03 0 126.06 0 191 0 C191 92.4 191 184.8 191 280 C270.86 280 350.72 280 433 280 C433 187.6 433 95.2 433 0 C496.36 0 559.72 0 625 0 C625 245.52 625 491.04 625 744 C561.97 744 498.94 744 434 744 C434 645.99 434 547.98 434 447 C353.81 447 273.62 447 191 447 C191 545.01 191 643.02 191 744 C127.97 744 64.94 744 0 744 C0 498.48 0 252.96 0 0 Z " fill="#070102" transform="translate(2012,463)"/>
<path d="M0 0 C57.42 0 114.84 0 174 0 C214.83333333 106.16666667 255.66666667 212.33333333 296.5 318.5 C296.91251007 319.57252518 297.32502014 320.64505035 297.75003052 321.75007629 C298.58326485 323.9164876 299.41649646 326.08289995 300.24972534 328.24931335 C302.33455099 333.66989566 304.41942417 339.09045968 306.50439453 344.51098633 C310.236634 354.21423578 313.96856177 363.91760439 317.69866943 373.62167358 C326.78269169 397.25413874 335.87993404 420.88141888 345 444.5 C354.53199474 469.18536873 364.03793585 493.88067503 373.53222656 518.58056641 C377.2693717 528.30258676 381.00877885 538.02373713 384.74798584 547.7449646 C386.8320804 553.16327518 388.91603312 558.58164031 391 564 C391.83333265 566.16666693 392.66666599 568.3333336 393.5 570.5 C418.49999992 635.49999978 418.49999992 635.49999978 419.7497406 638.74932861 C420.58393587 640.91823428 421.41813388 643.0871389 422.25233459 645.25604248 C424.32250254 650.63844382 426.39262462 656.02086279 428.46264648 661.40332031 C432.36958319 671.56196464 436.27700833 681.7204204 440.1859436 691.8782959 C442.03339407 696.67921496 443.88059825 701.48022877 445.7277832 706.28125 C446.60884481 708.57101099 447.49002723 710.86072549 448.37133789 713.15039062 C449.5929162 716.32410128 450.81407894 719.49797156 452.03515625 722.671875 C452.39360123 723.60279968 452.7520462 724.53372437 453.12135315 725.49285889 C453.78035659 727.20623825 454.43762774 728.92028534 455.09280396 730.63513184 C455.69181924 732.19663797 456.29803392 733.75540362 456.91183472 735.31115723 C458.09509774 738.34989658 459 740.70808299 459 744 C395.97 744 332.94 744 268 744 C249.61357517 696.88478638 249.61357517 696.88478638 241.75 676.375 C240.06311646 671.9776278 238.37560923 667.58049556 236.6875 663.18359375 C236.28392273 662.13226761 235.88034546 661.08094147 235.46453857 659.99775696 C233.0167617 653.62748506 230.54972117 647.26512422 228.0625 640.91015625 C227.77167542 640.16564209 227.48085083 639.42112793 227.18121338 638.65405273 C225.87637554 635.31371314 224.56742179 631.97514756 223.24902344 628.64013672 C222.81106445 627.52010254 222.37310547 626.40006836 221.921875 625.24609375 C221.54643555 624.29404053 221.17099609 623.3419873 220.78417969 622.36108398 C220 620 220 620 220 617 C132.55 617.33 45.1 617.66 -45 618 C-60.43151797 657.77179331 -60.43151797 657.77179331 -75.74438477 697.58886719 C-76.13875732 698.61915039 -76.53312988 699.64943359 -76.93945312 700.7109375 C-77.28407593 701.61183105 -77.62869873 702.51272461 -77.98376465 703.44091797 C-83.20416363 717.01577243 -88.59620671 730.49051677 -94 744 C-157.36 744 -220.72 744 -286 744 C-283.96360572 737.21201908 -281.83855698 730.69849821 -279.25390625 724.1328125 C-278.89115601 723.2016713 -278.52840576 722.27053009 -278.15466309 721.31117249 C-277.37105874 719.30082366 -276.58573705 717.29114354 -275.79885864 715.28207397 C-273.64964648 709.79400476 -271.51361728 704.30079813 -269.375 698.80859375 C-268.93043961 697.66806046 -268.48587921 696.52752716 -268.02784729 695.35243225 C-263.33629066 683.31144619 -258.69623945 671.2508287 -254.0625 659.1875 C-253.22667673 657.01251993 -252.39082045 654.83755254 -251.55493164 652.66259766 C-249.8750467 648.29128546 -248.19548594 643.91984887 -246.51611328 639.54833984 C-242.76322614 629.78013518 -239.00594453 620.01362072 -235.24899292 610.24697876 C-233.16581516 604.83138845 -231.08292199 599.41568869 -229 594 C-228.16666803 591.83333281 -227.3333347 589.66666614 -226.5 587.5 C-225.88125 585.89125 -225.88125 585.89125 -225.25 584.25 C-201.50000006 522.50000015 -201.50000006 522.50000015 -200.24996948 519.24992371 C-199.41673515 517.0835124 -198.58350354 514.91710005 -197.75027466 512.75068665 C-195.66544901 507.33010434 -193.58057583 501.90954032 -191.49560547 496.48901367 C-187.763366 486.78576422 -184.03143823 477.08239561 -180.30133057 467.37832642 C-170.75482664 442.54269579 -161.19143795 417.71367791 -151.60705566 392.89263916 C-142.53971358 369.40959953 -133.49958373 345.91615809 -124.46777344 322.41943359 C-120.7306283 312.69741324 -116.99122115 302.97626287 -113.25201416 293.2550354 C-111.1679196 287.83672482 -109.08396688 282.41835969 -107 277 C-106.16666735 274.83333307 -105.33333401 272.6666664 -104.5 270.5 C-104.0875 269.4275 -103.675 268.355 -103.25 267.25 C-39.5 101.49999999 -39.5 101.49999999 -38.25027466 98.25073242 C-37.41600944 96.08163064 -36.58176061 93.91252256 -35.74752808 91.7434082 C-33.67858612 86.3639473 -31.60936988 80.98459223 -29.53955078 75.60546875 C-25.61747318 65.4117373 -21.69841743 55.21686899 -17.78826904 45.01855469 C-15.93228839 40.17832167 -14.07484585 35.33865026 -12.21728516 30.49902344 C-11.32853036 28.18224757 -10.44049929 25.86519393 -9.55322266 23.54785156 C-8.32635082 20.34370473 -7.09703432 17.14050589 -5.8671875 13.9375 C-5.32177811 12.51014526 -5.32177811 12.51014526 -4.76535034 11.05395508 C-4.42883453 10.17892334 -4.09231873 9.3038916 -3.74560547 8.40234375 C-3.45507294 7.64429443 -3.16454041 6.88624512 -2.86520386 6.10522461 C-2.01065943 4.02593667 -1.00535412 2.01070824 0 0 Z M86 273 C85.76435333 273.62225967 85.52870667 274.24451935 85.28591919 274.88563538 C75.20631341 301.50020447 65.12624763 328.11447519 54.9375 354.6875 C54.22118704 356.55623205 53.50487847 358.42496578 52.78857422 360.29370117 C51.31931987 364.12635834 49.84988527 367.95894636 48.38037109 371.79150391 C47.58690513 373.86099918 46.79344855 375.93049805 46 378 C45.56093323 379.14515076 45.12186646 380.29030151 44.66949463 381.47015381 C41.82552815 388.8886483 38.9841628 396.30812796 36.14553833 403.72866821 C35.22991592 406.12105188 34.31349977 408.51313195 33.39620972 410.90487671 C32.11102359 414.25610686 30.82866488 417.60840712 29.546875 420.9609375 C29.17569046 421.92690353 28.80450592 422.89286957 28.42207336 423.8881073 C25.11846635 432.54369254 22.0871445 441.25309059 19 450 C63.88 450 108.76 450 155 450 C152.96360572 443.21201908 150.83855698 436.69849821 148.25390625 430.1328125 C147.89115601 429.2016713 147.52840576 428.27053009 147.15466309 427.31117249 C146.37105874 425.30082366 145.58573705 423.29114354 144.79885864 421.28207397 C142.64964648 415.79400476 140.51361728 410.30079813 138.375 404.80859375 C137.70815941 403.09779381 137.70815941 403.09779381 137.02784729 401.35243225 C132.3362907 389.3114463 127.69622199 377.25083536 123.0625 365.1875 C122.23766239 363.04108464 121.41279252 360.89468167 120.58789062 358.74829102 C118.91899802 354.40554096 117.25043162 350.06266574 115.58203125 345.71972656 C111.51810905 335.14210197 107.44930636 324.56635399 103.381073 313.99038696 C101.69594635 309.6095725 100.01085548 305.22874437 98.32640076 300.84767151 C97.56280993 298.86297075 96.79832789 296.8786126 96.03285217 294.89463806 C94.46665845 290.83299746 92.90746039 286.77009987 91.39794922 282.68701172 C90.95596191 281.49994629 90.51397461 280.31288086 90.05859375 279.08984375 C89.69950928 278.10749756 89.3404248 277.12515137 88.97045898 276.11303711 C88.19108479 273.83464483 88.19108479 273.83464483 86 273 Z " fill="#070102" transform="translate(6138,463)"/>
<path d="M0 0 C63.03 0 126.06 0 191 0 C195.83735051 9.67470103 200.57257012 19.25197867 204.9375 29.125 C205.48561899 30.35702295 206.03413621 31.5888688 206.58300781 32.82055664 C207.76442207 35.47261496 208.94406006 38.1254534 210.12255859 40.77880859 C213.12694508 47.53892527 216.15388663 54.28896891 219.17703247 61.04071045 C220.98882577 65.08788535 222.79905246 69.13576081 224.609375 73.18359375 C228.5529064 82.0006496 232.49711555 90.81740213 236.44152832 99.63406372 C238.21104844 103.58936259 239.98052181 107.54468237 241.75 111.5 C242.45833311 113.08333343 243.16666644 114.66666677 243.875 116.25 C265.125 163.75 265.125 163.75 266.18728638 166.1245575 C266.896297 167.70938141 267.60534246 169.29418974 268.31442261 170.87898254 C270.07517814 174.81438352 271.83534581 178.75004525 273.59423828 182.6862793 C276.90109784 190.08503485 280.21395599 197.48094155 283.54644775 204.86819458 C285.1144608 208.34497999 286.67929768 211.82319072 288.24389648 215.30151367 C288.98824295 216.95392106 289.73413272 218.60563427 290.48168945 220.2565918 C297.61101688 236.00328933 297.61101688 236.00328933 300 244 C300.66 244 301.32 244 302 244 C302.17400833 243.44520966 302.34801666 242.89041931 302.52729797 242.31881714 C304.25080693 236.96926437 306.2755166 231.90192311 308.66796875 226.8203125 C309.01959579 226.06291779 309.37122284 225.30552307 309.73350525 224.525177 C310.48797457 222.90142401 311.24460787 221.27867502 312.00323486 219.65686035 C313.62703619 216.18530819 315.24013775 212.7088169 316.85406494 209.23266602 C317.68566401 207.44188119 318.51782079 205.65135524 319.3505249 203.86108398 C323.31252072 195.34095558 327.22489125 186.79859404 331.125 178.25 C331.78274797 176.80938552 332.44054429 175.36879311 333.09838867 173.92822266 C334.40997626 171.05580467 335.72121313 168.18322695 337.03222656 165.31054688 C340.01775439 158.76947621 343.0080866 152.23060163 345.99798584 145.69152832 C347.66551394 142.04443909 349.33274202 138.39721272 351 134.75 C351.66666522 133.29166601 352.33333189 131.83333267 353 130.375 C353.33 129.653125 353.66 128.93125 354 128.1875 C360.33333333 114.33333333 366.66666667 100.47916667 373 86.625 C373.32996475 85.90320053 373.6599295 85.18140106 373.99989319 84.43772888 C374.66691109 82.97863041 375.3339338 81.51953414 376.0009613 80.06044006 C377.6622935 76.4263313 379.32354347 72.79218501 380.98461914 69.15795898 C384.04810593 62.4556551 387.11232601 55.75368993 390.1794281 49.05303955 C391.58790203 45.97589526 392.99602777 42.89859174 394.40402222 39.82122803 C395.08811201 38.32610853 395.77229441 36.83103141 396.45657349 35.33599854 C400.85880842 25.71633472 405.24087297 16.08836115 409.52709961 6.41625977 C411.89383246 1.10616754 411.89383246 1.10616754 413 0 C415.46631271 -0.09770695 417.90458998 -0.12996098 420.37135315 -0.12025452 C421.15216608 -0.12110894 421.932979 -0.12196337 422.73745292 -0.12284368 C425.3739009 -0.12450086 428.01028632 -0.11897326 430.64672852 -0.11352539 C432.52862547 -0.11324354 434.41052254 -0.1134012 436.29241943 -0.1139679 C441.41823935 -0.11425597 446.54403608 -0.10835767 451.66985059 -0.10139394 C457.02037264 -0.09516202 462.37089517 -0.09455673 467.72142029 -0.09336853 C477.86098358 -0.09025474 488.00053614 -0.0820407 498.1400947 -0.07201904 C509.68040474 -0.06085939 521.22071528 -0.05534783 532.76102936 -0.05032361 C556.50735886 -0.03985813 580.25367883 -0.02225776 604 0 C602.51742468 4.55344067 600.77707311 8.88281926 598.76171875 13.22265625 C598.44504745 13.91150909 598.12837616 14.60036194 597.80210876 15.31008911 C597.12150595 16.79003614 596.439565 18.26936838 595.75640869 19.74813843 C593.92578138 23.71174499 592.1060118 27.6803348 590.28515625 31.6484375 C589.73374969 32.84919167 589.73374969 32.84919167 589.17120361 34.07420349 C585.94990075 41.09459064 582.77650018 48.13546796 579.625 55.1875 C578.85216675 56.91589111 578.85216675 56.91589111 578.0637207 58.67919922 C577.25279242 60.4928169 576.44186706 62.30643591 575.63114929 64.12014771 C571.89233358 72.48187404 568.13363798 80.83466985 564.375 89.1875 C563.9966803 90.02832123 563.6183606 90.86914246 563.22857666 91.73544312 C556.93875647 105.712618 550.62541486 119.67907613 544.30389404 133.64193726 C538.51890326 146.42033321 532.75185646 159.20665716 527 172 C520.87049528 185.63241013 514.72506552 199.25750185 508.5625 212.875 C507.97252731 214.17869537 507.97252731 214.17869537 507.37063599 215.50872803 C504.18184721 222.55472648 500.99200695 229.6002488 497.80212402 236.64575195 C495.01342449 242.80527889 492.22514142 248.96499411 489.4375 255.125 C489.04410431 255.99429138 488.65070862 256.86358276 488.24539185 257.75921631 C482.10716685 271.32471086 475.99060256 284.89984652 469.88497925 298.4800415 C463.71114007 312.21112997 457.51171691 325.93050052 451.30224609 339.64550781 C445.14742414 353.24085912 439.01427571 366.84580616 432.89532471 380.45733643 C428.58418017 390.04674263 424.26512369 399.63248556 419.9296875 409.2109375 C419.50608948 410.14681702 419.08249146 411.08269653 418.64605713 412.04693604 C416.61280757 416.53830634 414.57852522 421.02920604 412.54296875 425.51953125 C411.79687053 427.16666464 411.05077658 428.81379997 410.3046875 430.4609375 C409.98756805 431.15963959 409.67044861 431.85834167 409.34371948 432.57821655 C408.67452688 434.05604215 408.01982853 435.54049275 407.37762451 437.03024483 C406 440 406 440 404.05403328 443.45674896 C396.89774511 456.7473147 396.85335835 469.43568711 396.98693204 484.26847625 C397.00945437 487.76521626 396.98512436 491.26170086 396.96690369 494.75842285 C396.94166236 500.79553678 396.9451465 506.83206265 396.96896362 512.86917496 C397.00335456 521.59736035 396.99314602 530.32506188 396.97256029 539.05327021 C396.94033828 553.21902367 396.94345725 567.38453493 396.96923828 581.55029297 C396.9941837 595.29903836 397.00212197 609.0476239 396.98779297 622.79638672 C396.98648268 624.08365959 396.98648268 624.08365959 396.98514593 625.39693797 C396.97818144 632.10994271 396.97024056 638.8229462 396.96199155 645.53594947 C396.92190936 678.35745107 396.96687608 711.17833285 397 744 C333.64 744 270.28 744 205 744 C205.1134375 723.84421875 205.226875 703.6884375 205.34375 682.921875 C205.37992889 670.09760322 205.41210939 657.27350512 205.42578125 644.44921875 C205.43318103 637.70361134 205.44158186 630.95800631 205.45166016 624.21240234 C205.4528812 623.36720083 205.45410225 622.52199931 205.45536029 621.65118563 C205.47640815 608.08802224 205.55373541 594.52575317 205.65263933 580.96295938 C205.75321034 566.99569017 205.7914747 553.02920243 205.77444887 539.06157804 C205.76662973 531.23587489 205.7859583 523.412352 205.87687683 515.58712006 C206.51719884 469.10907266 206.51719884 469.10907266 189.90006256 426.27992916 C187.06404385 421.38433221 184.88511482 416.2546454 182.6953125 411.046875 C181.93288853 409.31932148 181.16744883 407.59309199 180.39746094 405.86889648 C180.02713745 405.03462128 179.65681396 404.20034607 179.27526855 403.34078979 C172.10566016 387.19243193 164.89400423 371.06381472 157.63156128 354.95700073 C151.60269354 341.58504586 145.62643176 328.19050406 139.67773438 314.78271484 C135.7216214 305.86700912 131.74703986 296.95995916 127.75 288.0625 C122.66997603 276.75307459 117.63188061 265.42537894 112.60229492 254.09344482 C105.32218067 237.69113934 98.00408519 221.30692464 90.62734985 204.94784546 C85.05200976 192.58229037 79.52171658 180.19760131 74.0234375 167.79760742 C68.63987936 155.6590297 63.20582297 143.54375697 57.75 131.4375 C51.37935161 117.29936501 45.04409458 103.14670848 38.76025391 88.96972656 C35.3811275 81.34748559 31.99551826 73.72812094 28.61016846 66.10864258 C27.3195981 63.20347833 26.02966426 60.298032 24.73974609 57.39257812 C20.49158166 47.8279221 16.22884498 38.27017465 11.93359375 28.7265625 C11.13564795 26.95158456 10.33771472 25.17660096 9.53979492 23.40161133 C8.04018647 20.06623091 6.53569967 16.73310796 5.02856445 13.40112305 C4.35741198 11.90942012 3.68642234 10.41764391 3.015625 8.92578125 C2.70729233 8.24782501 2.39895966 7.56986877 2.08128357 6.87136841 C0 2.22727212 0 2.22727212 0 0 Z " fill="#070102" transform="translate(4592,463)"/>
<path d="M0 0 C148.83 0 297.66 0 451 0 C451 14.62507071 451 14.62507071 450.67482853 19.80185699 C450.60229392 20.98811125 450.52975931 22.17436551 450.45502669 23.39656687 C450.37399889 24.65486606 450.2929711 25.91316525 450.20948792 27.20959473 C450.12323665 28.59491298 450.03734028 29.98025337 449.95176357 31.36561346 C449.71789918 35.13494911 449.47902607 38.90395244 449.23925626 42.67291641 C448.98067202 46.75171078 448.726807 50.83079936 448.47232056 54.90985107 C447.97408986 62.88366217 447.47150232 70.85719284 446.96734709 78.83063132 C446.55778303 85.30949513 446.1498668 91.78846078 445.74311638 98.26750183 C445.65612558 99.65315034 445.65612558 99.65315034 445.5673774 101.06679174 C445.44956163 102.94358086 445.33175038 104.82037026 445.21394359 106.69715995 C444.11088072 124.26730358 443.00294039 141.83713699 441.8932467 159.40686291 C440.94113438 174.4832586 439.99291889 189.55989517 439.04760742 204.63671875 C437.94900067 222.15840265 436.84821551 239.67994728 435.74378055 257.20126486 C435.6260849 259.06851788 435.50839117 260.93577103 435.39069939 262.80302429 C435.33279378 263.72169872 435.27488818 264.64037315 435.21522786 265.5868862 C434.80721734 272.06226807 434.40074402 278.53774539 433.99484444 285.01325989 C433.50056143 292.89796907 433.00382289 300.782519 432.50393576 308.66687495 C432.24894054 312.68965885 431.99504024 316.71250391 431.74408913 320.7355423 C431.51443869 324.41658359 431.28164559 328.09741206 431.0463227 331.77809495 C430.92151185 333.74304687 430.8000584 335.70821117 430.67871672 337.67338037 C430.60357436 338.83877265 430.52843201 340.00416493 430.45101261 341.20487213 C430.38759932 342.21053931 430.32418602 343.21620648 430.25885111 344.25234842 C430 347 430 347 429 352 C458.7 352 488.4 352 519 352 C518.95875 361.508125 518.9175 371.01625 518.875 380.8125 C518.80859346 414.67578395 519.36137935 448.51861711 520 482.375 C521.20456535 546.56566535 521.20456535 546.56566535 521.1875 573.5 C521.1882251 574.57465515 521.1889502 575.6493103 521.18969727 576.75653076 C521.18801597 598.08080112 520.71079388 619.45041809 518.6875 640.6875 C518.62341949 641.37036072 518.55933899 642.05322144 518.49331665 642.7567749 C514.8708448 680.97827857 507.07771359 720.38719361 481 750 C480.14259035 751.08076847 479.28781671 752.16364219 478.4375 753.25 C440.41148119 796.15114942 371.99284782 803.36343357 318.33984375 806.62890625 C296.26171572 807.82059754 274.10683301 808.31922106 252 808 C251.01939606 807.9870993 251.01939606 807.9870993 250.01898193 807.97393799 C226.77849371 807.66363402 203.58493094 806.7191805 180.375 805.5 C178.48057663 805.40143204 178.48057663 805.40143204 176.54788208 805.3008728 C172.93531617 805.11119639 169.32308534 804.91621423 165.7109375 804.71875 C164.09007988 804.63280327 164.09007988 804.63280327 162.43647766 804.54512024 C161.42667343 804.48833603 160.4168692 804.43155182 159.37646484 804.37304688 C158.50307465 804.32498901 157.62968445 804.27693115 156.72982788 804.22741699 C153.46288043 803.95525355 150.24099269 803.48828868 147 803 C145.0953723 793.23691133 143.19138045 783.47369888 141.28816509 773.71033478 C140.40408315 769.17515748 139.51979517 764.64002058 138.63500977 760.10498047 C137.77861887 755.7154361 136.92280388 751.32577979 136.06736183 746.93605042 C135.74348607 745.27458324 135.41941464 743.61315419 135.09512901 741.95176697 C134.05755915 736.63563461 133.02605382 731.31836656 132 726 C131.85293736 725.24065155 131.70587471 724.4813031 131.55435562 723.69894409 C131.12539958 721.4789032 130.70040334 719.25814114 130.27661133 717.03710938 C130.03042557 715.75300171 129.78423981 714.46889404 129.53059387 713.14587402 C129 710 129 710 129 707 C138.36842532 706.94824074 147.72781373 706.98282734 157.09375 707.21875 C181.49010972 707.82796405 205.88053033 708.13288332 230.28393555 708.17724609 C233.45958788 708.18301921 236.63516773 708.19331067 239.81079102 708.20800781 C310.11547394 710.31234327 310.11547394 710.31234327 371.25 681.3125 C419.92426197 629.94266973 395 470.17541395 395 446 C272.24 446 149.48 446 23 446 C24.14868667 424.17495322 24.14868667 424.17495322 24.94873047 414.50097656 C25.03871748 413.38586102 25.12870449 412.27074549 25.22141838 411.12183857 C25.51746475 407.46122266 25.81730291 403.8009283 26.1171875 400.140625 C26.33268842 397.48577173 26.54797539 394.8309019 26.76300049 392.17601013 C27.28303554 385.76115977 27.80589335 379.3465426 28.3297267 372.93200141 C28.94096993 365.44555169 29.54920298 357.95885828 30.15730166 350.47215259 C31.24268805 337.11032836 32.33054737 323.74870666 33.41992188 310.38720703 C34.47484584 297.44820429 35.52833454 284.50908587 36.58007812 271.56982422 C36.6449639 270.7715596 36.70984968 269.97329498 36.77670169 269.15084052 C37.03758553 265.94124259 37.29846521 262.73164432 37.55933797 259.52204549 C38.68648282 245.65487211 39.81479468 231.78779364 40.94327259 217.92072868 C41.12523382 215.68462658 41.30716874 213.44852234 41.4890976 211.2124176 C42.12608418 203.38348278 42.76343192 195.5545776 43.40174723 187.72575098 C43.66541095 184.49195082 43.92887196 181.2581344 44.19199371 178.02429008 C44.4779293 174.51053804 44.76451475 170.99683957 45.05126953 167.4831543 C45.17427838 165.96898611 45.17427838 165.96898611 45.29977226 164.42422867 C45.37778131 163.47004421 45.45579037 162.51585976 45.53616333 161.53276062 C45.60207232 160.72400325 45.6679813 159.91524588 45.73588753 159.08198071 C46.1382852 154.38632259 46.57331694 149.69351367 47 145 C86.27 145 125.54 145 166 145 C164.85130352 159.93305419 164.85130352 159.93305419 164.05126953 166.615448 C163.96128252 167.38524085 163.87129551 168.15503371 163.77858162 168.94815361 C163.48245423 171.47598589 163.18265664 174.00336785 162.8828125 176.53076172 C162.66732 178.36363669 162.45205545 180.19653848 162.23699951 182.02946472 C161.65673369 186.9693711 161.07324449 191.90889177 160.4890976 196.84834051 C159.87652982 202.03248317 159.26681329 207.21696122 158.65673828 212.40139771 C157.63293422 221.09820903 156.60717476 229.79478788 155.58007812 238.49121094 C154.26276847 249.64495391 152.94870035 260.79907629 151.63565063 271.95332146 C150.50437103 281.56322426 149.3716096 291.17295231 148.23860931 300.78265238 C147.87542076 303.86361813 147.51243445 306.94460767 147.1494751 310.02560043 C146.57905312 314.86683147 146.00770565 319.70795245 145.43564606 324.54899025 C145.22613564 326.32306407 145.01691434 328.09717206 144.80800629 329.87131691 C144.52238574 332.2964584 144.23569458 334.72147103 143.94873047 337.14645386 C143.86672457 337.84480374 143.78471867 338.54315363 143.70022774 339.26266563 C143.194858 343.52098198 142.60676703 347.75263078 142 352 C197.77 352 253.54 352 311 352 C312.794375 329.993125 314.58875 307.98625 316.4375 285.3125 C317.53600782 271.86194217 318.63468719 258.41139883 319.734375 244.9609375 C320.289772 238.16764801 320.84512285 231.37435474 321.40039062 224.58105469 C321.46841086 223.74890513 321.53643109 222.91675557 321.60651255 222.05938935 C322.60892908 209.79515906 323.60879608 197.530723 324.60693538 185.26614392 C325.50606396 174.21863959 326.40802765 163.17136943 327.31310368 152.12435055 C327.79833774 146.20063512 328.28212725 140.27680989 328.76242065 134.35269165 C329.20747387 128.86365673 329.65629998 123.37494427 330.10822296 117.88647079 C330.27120372 115.8987789 330.4327617 113.91096975 330.59279633 111.92303848 C330.8083078 109.24841277 331.02884047 106.57424924 331.25073242 103.90014648 C331.31246863 103.11871434 331.37420485 102.3372822 331.43781185 101.5321703 C331.88584832 96.22830336 331.88584832 96.22830336 333 94 C223.11 94 113.22 94 0 94 C0 62.98 0 31.96 0 0 Z " fill="#070102" transform="translate(9653,434)"/>
<path d="M0 0 C63.36 0 126.72 0 192 0 C192 190.08 192 380.16 192 576 C281.76 576 371.52 576 464 576 C464 631.44 464 686.88 464 744 C310.88 744 157.76 744 0 744 C0 498.48 0 252.96 0 0 Z " fill="#070102" transform="translate(5298,463)"/>
<path d="M0 0 C63.03 0 126.06 0 191 0 C191 190.08 191 380.16 191 576 C281.09 576 371.18 576 464 576 C464 631.44 464 686.88 464 744 C310.88 744 157.76 744 0 744 C0 498.48 0 252.96 0 0 Z " fill="#070102" transform="translate(4113,463)"/>
<path d="M0 0 C63.03 0 126.06 0 191 0 C191 190.08 191 380.16 191 576 C281.09 576 371.18 576 464 576 C464 631.44 464 686.88 464 744 C310.88 744 157.76 744 0 744 C0 498.48 0 252.96 0 0 Z " fill="#070102" transform="translate(3560,463)"/>
<path d="M0 0 C174.57 0 349.14 0 529 0 C529 76.89 529 153.78 529 233 C543.52 233 558.04 233 573 233 C573 264.35 573 295.7 573 328 C369.39 328 165.78 328 -44 328 C-44 296.65 -44 265.3 -44 233 C-29.48 233 -14.96 233 0 233 C0 156.11 0 79.22 0 0 Z M104 92 C104 138.53 104 185.06 104 233 C118.85 233 133.7 233 149 233 C149 186.47 149 139.94 149 92 C134.15 92 119.3 92 104 92 Z M241 92 C241 138.53 241 185.06 241 233 C255.85 233 270.7 233 286 233 C286 186.47 286 139.94 286 92 C271.15 92 256.3 92 241 92 Z M378 92 C378 138.53 378 185.06 378 233 C392.85 233 407.7 233 423 233 C423 186.47 423 139.94 423 92 C408.15 92 393.3 92 378 92 Z " fill="#070102" transform="translate(8643,887)"/>
<path d="M0 0 C0.8545021 0.00092179 1.70900419 0.00184359 2.58940029 0.00279331 C3.56681683 0.00141865 4.54423336 0.00004398 5.55126858 -0.00137234 C6.63235897 0.00222294 7.71344936 0.00581821 8.82730007 0.00952244 C10.52464039 0.0093034 10.52464039 0.0093034 12.25627041 0.00907993 C16.01686389 0.00977964 19.77740855 0.01757472 23.53799343 0.02539158 C26.13731261 0.02725555 28.73663215 0.02867955 31.33595181 0.0296793 C37.49122295 0.03311442 43.64647378 0.04100527 49.80173725 0.05102879 C56.80767064 0.06219089 63.81360485 0.06770062 70.81954491 0.07272422 C85.23481851 0.08318791 99.65007722 0.10078675 114.06533718 0.12304783 C113.74902623 1.72618858 113.43152682 3.32909488 113.11352444 4.93190098 C112.9368442 5.82454434 112.76016396 6.71718771 112.57812977 7.63688087 C104.41251664 47.22613788 87.34706518 86.86034242 70.06533718 123.12304783 C69.6057864 124.09274509 69.14623562 125.06244236 68.67275906 126.06152439 C57.99969933 148.43932348 45.828796 172.84825327 29.62148952 191.81250095 C26.90683924 195.1257377 26.05314369 196.46730917 26.13564968 200.90429783 C26.4223347 202.31546266 26.73387513 203.72172438 27.06533718 205.12304783 C27.36190514 206.73626942 27.65044753 208.35097948 27.93252468 209.96679783 C28.09446316 210.85987644 28.25640163 211.75295506 28.42324734 212.67309666 C40.09899296 279.28217803 36.37991029 349.60662372 36.26793766 416.95919645 C36.25521725 424.70543301 36.24748257 432.45166217 36.24258327 440.19790745 C36.20746962 493.92119793 36.08958239 547.64093929 35.41714382 601.36059666 C35.36984694 605.16292 35.32290284 608.96524747 35.27627468 612.76757908 C35.25952474 614.11830478 35.25952474 614.11830478 35.24243641 615.49631786 C35.0763363 629.18932343 35.05144379 642.87844691 35.10439968 656.57226658 C35.11041189 658.38545306 35.11637359 660.1986397 35.12228298 662.01182652 C35.14872068 669.52482264 35.18299093 677.03737076 35.25724792 684.55005932 C35.39790662 699.63174832 35.36187387 714.32551977 32.06533718 729.12304783 C31.84071804 730.1320615 31.6160989 731.14107517 31.38467312 732.18066502 C30.79079018 734.58954074 30.12197164 736.94431482 29.37783718 739.31054783 C29.12437527 740.13168064 28.87091335 740.95281345 28.60977077 741.79882908 C17.72441959 775.54537672 -8.0012789 801.28810792 -38.84872532 817.60742283 C-82.94727142 839.96281431 -146.23978452 851.2967674 -194.93466282 839.12304783 C-194.93466282 808.43304783 -194.93466282 777.74304783 -194.93466282 746.12304783 C-186.02466282 746.12304783 -177.11466282 746.12304783 -167.93466282 746.12304783 C-143.17548629 744.33126532 -121.34693431 738.82229108 -104.01669407 720.04492283 C-84.98995979 697.36404754 -83.72586571 665.66671651 -83.80966282 637.49804783 C-83.81054905 636.63157627 -83.81143528 635.76510471 -83.81234837 634.87237644 C-83.82561324 623.7673849 -84.03179869 612.70233083 -84.57650852 601.60937595 C-85.3890944 583.13805435 -85.01355257 564.60752295 -84.93466282 546.12304783 C-89.79294417 549.31011227 -94.55676838 552.52299117 -99.12216282 556.12304783 C-127.01954113 577.18769262 -159.01343654 593.02469079 -190.37216282 608.18554783 C-191.45449192 608.70947117 -192.53682102 609.23339451 -193.65194798 609.77319431 C-213.18006563 619.12304783 -213.18006563 619.12304783 -217.93466282 619.12304783 C-218.16646121 605.55401148 -218.34409533 591.98544673 -218.45278454 578.41483307 C-218.50495364 572.11316485 -218.57569896 565.81285195 -218.68905735 559.51196384 C-218.79779217 553.42994047 -218.85752111 547.34921963 -218.88343525 541.26629925 C-218.90189928 538.9469009 -218.93795785 536.62757316 -218.99196339 534.30873013 C-219.39900297 516.1060367 -219.39900297 516.1060367 -215.77577305 511.19950962 C-213.19711581 509.36782777 -210.88149132 508.23567881 -207.93466282 507.12304783 C-206.64178418 506.29242638 -205.36633846 505.43269472 -204.12606907 504.52539158 C-203.53438938 504.12400974 -202.94270969 503.72262791 -202.33310032 503.30908298 C-186.63489857 492.63347079 -171.51637486 481.27707238 -156.93466282 469.12304783 C-156.35490696 468.64238865 -155.7751511 468.16172947 -155.17782688 467.66650486 C-148.19468754 461.86989893 -141.40837747 455.89642245 -134.75497532 449.72461033 C-132.23987414 447.40458625 -129.68921368 445.13510255 -127.12216282 442.87304783 C-118.13844261 434.80514376 -109.33226498 426.24414576 -101.54013157 417.00976658 C-98.86338186 413.86409721 -96.04050511 410.84902698 -93.24325657 407.81054783 C-92.48142063 406.92367283 -91.71958469 406.03679783 -90.93466282 405.12304783 C-90.43504221 404.57171429 -89.9354216 404.02038074 -89.42066097 403.45234013 C-84.93961103 398.11893577 -84.08322763 394.2613569 -84.25351048 387.4023447 C-84.25263432 386.46483372 -84.25175816 385.52732273 -84.25085545 384.56140232 C-84.25500892 381.48732934 -84.3015549 378.41548575 -84.34872532 375.34179783 C-84.35992542 373.20090012 -84.36846176 371.05998696 -84.37445164 368.91906834 C-84.39728561 363.30286791 -84.4561628 357.68760863 -84.52267551 352.0717783 C-84.5842149 346.3337893 -84.61149157 340.5956472 -84.64169407 334.85742283 C-84.70591067 323.61221921 -84.80822486 312.36771199 -84.93466282 301.12304783 C-86.43162693 302.12754978 -86.43162693 302.12754978 -87.95883274 303.1523447 C-89.2983849 304.04889998 -90.6379872 304.94538034 -91.97763157 305.84179783 C-92.6317905 306.28104588 -93.28594944 306.72029392 -93.95993137 307.17285252 C-113.69050924 320.3630754 -134.85106828 331.29189591 -155.93466282 342.12304783 C-157.2722263 342.8133408 -157.2722263 342.8133408 -158.63681126 343.51757908 C-170.0279576 349.37998587 -181.56793397 354.86345778 -193.24716282 360.12304783 C-194.17459293 360.54262257 -194.17459293 360.54262257 -195.12075901 360.97067356 C-196.90663059 361.77670722 -198.69599915 362.57497863 -200.48544407 363.37304783 C-201.51322971 363.83195408 -202.54101536 364.29086033 -203.59994602 364.76367283 C-206.27004401 365.85212042 -208.90830882 366.80628689 -211.64308262 367.70800877 C-212.44830451 367.97418003 -213.2535264 368.2403513 -214.08314896 368.51458836 C-214.69414853 368.71537998 -215.30514811 368.91617161 -215.93466282 369.12304783 C-216.56355563 356.00719701 -217.04153662 342.89498744 -217.33359146 329.76706982 C-217.47387656 323.66835877 -217.66353634 317.58003326 -217.97152805 311.48730564 C-219.97320524 270.85432252 -219.97320524 270.85432252 -213.3323679 262.17596531 C-207.48128608 255.93731134 -199.99313163 252.45336538 -192.11544895 249.41681004 C-187.81454433 247.66744757 -184.26504297 245.25422058 -180.55966282 242.49804783 C-179.33503158 241.646306 -178.10869986 240.79699894 -176.87997532 239.95117283 C-159.67727078 227.74625039 -142.81894232 214.68295937 -127.33700657 200.34179783 C-125.09107536 198.26750689 -122.80804974 196.24940311 -120.49716282 194.24804783 C-117.87046749 191.96654449 -115.34621144 189.63507764 -112.93466282 187.12304783 C-121.56002436 156.91170295 -157.81083709 132.00461541 -183.54061985 117.44824314 C-193.42155589 111.97876314 -203.48507377 107.47704327 -213.93466282 103.12304783 C-213.93466282 69.79304783 -213.93466282 36.46304783 -213.93466282 2.12304783 C-202.65792965 3.25072115 -202.65792965 3.25072115 -198.40341282 4.25195408 C-197.44144993 4.47802341 -196.47948704 4.70409275 -195.48837376 4.93701267 C-194.48064915 5.18402927 -193.47292454 5.43104588 -192.43466282 5.68554783 C-191.35732883 5.94803318 -190.27999485 6.21051853 -189.17001438 6.48095798 C-133.75937436 20.28953952 -79.98121629 44.44932063 -39.93466282 86.12304783 C-36.04189069 81.24062425 -33.62510453 75.66363903 -30.93466282 70.06054783 C-30.50581287 69.16843601 -30.50581287 69.16843601 -30.06829929 68.25830173 C-20.89782595 49.11947961 -13.25162722 29.37635228 -6.01791477 9.43750095 C-5.626926 8.3617783 -5.23593723 7.28605564 -4.83310032 6.17773533 C-4.31755589 4.74663425 -4.31755589 4.74663425 -3.79159641 3.28662205 C-2.55419632 0.16245121 -2.55419632 0.16245121 0 0 Z " fill="#070102" transform="translate(8552.934662818909,397.8769521713257)"/>
<path d="M0 0 C104.61 0 209.22 0 317 0 C317 31.02 317 62.04 317 94 C285.65 94 254.3 94 222 94 C222 154.39 222 214.78 222 277 C250.38 277 278.76 277 308 277 C308 308.02 308 339.04 308 371 C279.62 371 251.24 371 222 371 C222 433.37 222 495.74 222 560 C254.82070945 551.77501763 254.82070945 551.77501763 287.64013672 543.54492188 C293.97875977 541.95800781 293.97875977 541.95800781 296.94338989 541.21643066 C299.02018546 540.69646243 301.09674732 540.17556027 303.17312622 539.65393066 C306.31262969 538.86541267 309.45285478 538.07983271 312.59326172 537.29492188 C313.52290174 537.06071281 314.45254177 536.82650375 315.41035271 536.58519745 C316.25276072 536.37528419 317.09516872 536.16537094 317.96310425 535.94909668 C319.06649045 535.67255878 319.06649045 535.67255878 320.19216728 535.39043427 C322 535 322 535 324 535 C324 572.95 324 610.9 324 650 C299.8784321 656.89187654 299.8784321 656.89187654 290.17831421 659.29393005 C289.05236111 659.57588275 287.92640802 659.85783546 286.76633513 660.14833218 C283.08121504 661.07024994 279.39487447 661.98718056 275.70849609 662.90405273 C273.02985251 663.57266747 270.35147977 664.24236439 267.6730957 664.91201782 C261.94624999 666.34327387 256.21877761 667.77199757 250.49085617 669.19894218 C242.18021888 671.2693233 233.87064797 673.34395876 225.56132264 675.41959823 C212.03455066 678.79844157 198.50703878 682.17431242 184.97900391 685.5480957 C171.92015309 688.80487865 158.86149986 692.06245102 145.80322266 695.3215332 C144.99959496 695.52210173 144.19596726 695.72267027 143.3679872 695.92931663 C134.56133803 698.1273055 125.75477428 700.32563631 116.94831276 702.52437687 C116.17033664 702.7186163 115.39236051 702.91285574 114.59080935 703.11298122 C111.47726643 703.8903532 108.36372456 704.66772937 105.25019355 705.44514907 C96.20812089 707.70286228 87.16579603 709.95955867 78.1229796 712.2142911 C72.43909805 713.63153782 66.75542293 715.04961029 61.07189767 716.46828514 C57.81193707 717.28196762 54.55184626 718.09511782 51.29153824 718.90740776 C47.72193153 719.79681103 44.15264765 720.68749184 40.58358765 721.5790863 C39.46421271 721.85858466 38.34483778 722.13808302 37.19154239 722.42605102 C31.24065334 723.9176921 25.29838874 725.43823678 19.36348343 726.99232674 C18.1186096 727.31807814 16.87373576 727.64382954 15.59113848 727.97945219 C13.20458611 728.60588608 10.81890915 729.23566744 8.43424737 729.86926025 C7.37105677 730.14869085 6.30786616 730.42812144 5.21245766 730.71601963 C3.80726212 731.08876305 3.80726212 731.08876305 2.3736788 731.46903664 C0 732 0 732 -3 732 C-3 694.05 -3 656.1 -3 617 C30.49601182 607.69555227 64.29770974 599.52708549 98 591 C98.33 518.4 98.66 445.8 99 371 C68.64 371 38.28 371 7 371 C7 339.98 7 308.96 7 277 C37.36 277 67.72 277 99 277 C99 216.61 99 156.22 99 94 C66.33 94 33.66 94 0 94 C0 62.98 0 31.96 0 0 Z " fill="#070102" transform="translate(9305,461)"/>
<path d="M0 0 C146.19 0 292.38 0 443 0 C443 29.37 443 58.74 443 89 C426.76968085 101.75239362 426.76968085 101.75239362 418.625 107.9375 C417.7278125 108.62005859 416.830625 109.30261719 415.90625 110.00585938 C409.98887398 114.50289656 404.05108442 118.97182739 398.09814453 123.42163086 C392.54014784 127.58139379 387.01843085 131.78794087 381.5 136 C374.72073828 141.17441497 367.9230531 146.32171938 361.09106445 151.42626953 C355.59485479 155.53894818 350.14084581 159.70572834 344.6875 163.875 C335.49210286 170.90121788 326.20653002 177.79773757 316.86499023 184.62817383 C314.9007687 186.07299132 312.95069856 187.53697608 311 189 C373.04 189.33 435.08 189.66 499 190 C499 221.68 499 253.36 499 286 C435.64 286.33 372.28 286.66 307 287 C307.66 292.28 308.32 297.56 309 303 C309.29562742 308.22169994 309.33078206 313.42604584 309.31567383 318.65405273 C309.31250589 320.93326435 309.33613305 323.21118067 309.36132812 325.49023438 C309.46794861 350.19103393 303.22106584 373.56895731 286 392 C268.23968916 409.35094197 242.87130948 415.16920945 219 418 C218.25921204 418.08814468 217.51842407 418.17628937 216.75518799 418.2671051 C208.15060472 419.16807323 199.56871923 419.14486108 190.9296875 419.1328125 C189.26099119 419.13382944 187.59229505 419.13516965 185.92359924 419.1368103 C181.48744764 419.1394913 177.05133143 419.13507848 172.61518478 419.12857056 C169.87212774 419.12499626 167.12907593 419.123381 164.38601685 419.12231445 C135.58074379 419.10838313 106.79495031 418.82277539 78 418 C76.52853823 413.0810365 75.35999819 408.16897087 74.39599609 403.12451172 C74.24940048 402.37074249 74.10280487 401.61697327 73.95176697 400.84036255 C73.47242726 398.37075006 72.9977093 395.90027787 72.5234375 393.4296875 C72.19013299 391.70286386 71.8566855 389.97606782 71.52310181 388.2492981 C70.82673754 384.64040259 70.13279188 381.03105206 69.44042969 377.42138672 C68.55354222 372.79913672 67.65956342 368.17829041 66.76364708 363.55778313 C66.07410972 359.99648673 65.38886316 356.43437483 64.70485306 352.87201309 C64.37697177 351.16771766 64.04763582 349.46370141 63.71680832 347.75997543 C63.25516805 345.37971133 62.7994517 342.99838564 62.34521484 340.61669922 C62.20809586 339.91631531 62.07097687 339.2159314 61.92970276 338.49432373 C61.260057 334.94816242 60.85004327 331.60990221 61 328 C62.112612 328.00444122 63.225224 328.00888245 64.37155151 328.01345825 C74.93212342 328.05426011 85.49267903 328.08410591 96.0533123 328.10362434 C101.48072508 328.11399674 106.90807348 328.12803416 112.33544922 328.15087891 C117.58746078 328.17284348 122.839411 328.18461762 128.091465 328.18975449 C130.08059783 328.19340837 132.06972786 328.20054129 134.05883408 328.21146011 C143.72241036 328.26232597 153.30964568 328.16554558 162.93017578 327.17529297 C163.6459976 327.10596117 164.36181942 327.03662937 165.09933281 326.96519661 C169.92992647 326.39559875 173.71183667 325.20084745 178 323 C180.82665878 317.87970952 180.67757565 311.37550317 181.125 305.625 C181.21136719 304.62210938 181.29773438 303.61921875 181.38671875 302.5859375 C181.84726996 297.00084024 182 291.63608865 182 286 C99.5 286 17 286 -68 286 C-68 254.32 -68 222.64 -68 190 C14.5 190 97 190 182 190 C182 178.45 182 166.9 182 155 C192.41379271 144.58620729 192.41379271 144.58620729 197.1328125 142.20703125 C202.72809525 139.20988519 207.6530325 135.72327287 212.6875 131.875 C214.25223335 130.72428423 215.81863203 129.5758294 217.38671875 128.4296875 C222.73702271 124.47810425 227.96775227 120.37889978 233.20043945 116.27368164 C241.03713385 110.14659147 249.05086422 104.26480639 257.08740234 98.40356445 C259.06858707 96.94966721 261.03406448 95.47445164 263 94 C132.815 93.505 132.815 93.505 0 93 C0 62.31 0 31.62 0 0 Z " fill="#070102" transform="translate(8692,434)"/>
<path d="M0 0 C109.56 0 219.12 0 332 0 C332 31.35 332 62.7 332 95 C222.44 95 112.88 95 0 95 C0 63.65 0 32.3 0 0 Z " fill="#070102" transform="translate(9672,958)"/>
</svg>
