<svg xmlns="http://www.w3.org/2000/svg" xmlns:xlink="http://www.w3.org/1999/xlink" viewBox="0 0 673.17 134.68"><defs><style>.cls-1{fill:none;}.cls-2{clip-path:url(#clip-path);}.cls-3{fill:#dce0fb;}.cls-4{clip-path:url(#clip-path-2);}.cls-5{fill:#014fff;}.cls-6{clip-path:url(#clip-path-3);}.cls-7{fill:#101923;}.cls-8{clip-path:url(#clip-path-4);}</style><clipPath id="clip-path" transform="translate(3.95 3.95)"><path class="cls-1" d="M28.7,5c-6.79,0-12.77,5-12.77,11.82A13.12,13.12,0,0,0,28.7,29.63H68.2a4.89,4.89,0,1,1,0,9.78l-55.9-.48a12.3,12.3,0,0,0,0,24.6L58.11,64a4.89,4.89,0,0,1,0,9.78H50.65a12.3,12.3,0,1,0,0,24.59h90.53L140.9,5Z"/></clipPath><clipPath id="clip-path-2" transform="translate(3.95 3.95)"><path class="cls-1" d="M109.16,13.15a44.87,44.87,0,0,0,0,63.47L127.52,95a18.91,18.91,0,0,0,26.75,0l18.37-18.36a44.88,44.88,0,1,0-63.48-63.47"/></clipPath><clipPath id="clip-path-3" transform="translate(3.95 3.95)"><path class="cls-1" d="M645.78,43.12l-14,38.71L617.7,43.12h-20l24.4,60.13-9.57,23.53h18.68l34-83.66ZM311.46,84.33a14.76,14.76,0,0,1-4.23-10.76,14.69,14.69,0,0,1,4.23-10.75,15.49,15.49,0,0,1,21.4,0,14.67,14.67,0,0,1,4.26,10.75,14.74,14.74,0,0,1-4.26,10.76,15.41,15.41,0,0,1-21.4,0M298.64,50.8a30.47,30.47,0,0,0-9.39,22.77,30.56,30.56,0,0,0,9.39,22.79q9.41,9.17,23.5,9.17t23.5-9.17A30.57,30.57,0,0,0,355,73.57a30.48,30.48,0,0,0-9.4-22.77q-9.4-9.13-23.5-9.14t-23.5,9.14m67.58-4q-6.56,5.13-6.56,14.12-.06,14.77,19.2,19.33,9.81,2.16,9.81,6.71a4.08,4.08,0,0,1-1.72,3.3,6.55,6.55,0,0,1-4.23,1.37,6.48,6.48,0,0,1-4.56-1.78,5.64,5.64,0,0,1-1.92-4.29H358.78a17.93,17.93,0,0,0,6.83,14.16q6.83,5.81,17,5.81t16.78-5.37q6.75-5.37,6.75-14.72a18.48,18.48,0,0,0-1.55-7.79,14.1,14.1,0,0,0-4.47-5.52,29.17,29.17,0,0,0-5.89-3.41,43.29,43.29,0,0,0-7-2.19q-10.15-2.4-10.16-6.83a3.72,3.72,0,0,1,1.49-2.89,5.45,5.45,0,0,1,3.65-1.26,5.56,5.56,0,0,1,4,1.55,5,5,0,0,1,1.6,3.71h17.46a17.14,17.14,0,0,0-6.57-13.6q-6.57-5.55-16.38-5.55-9.57,0-16.14,5.14m109.12,3V43.12H457.89v61h17.45V71a12,12,0,0,1,3.53-9A12.66,12.66,0,0,1,488,58.53a11.24,11.24,0,0,1,8.49,3.36,12.21,12.21,0,0,1,3.25,8.84v33.34H517.2V64.84q0-10.52-6.42-16.85t-16.93-6.33q-11.5,0-18.51,8.11M422,29V43.12H410.8V60.49H422v43.58h17.46V60.49H451.2V43.12H439.41v-18ZM264.81,21.58v34a33.72,33.72,0,0,0-15.56-3.79H231.71V21.58H213.15v82.49h18.56V70.2h17.54a15.64,15.64,0,0,1,15.56,14.43v19.44h18.51V21.58ZM576,104.07h17.46V21.58H576ZM524.43,21.58v82.49h18.45V86.61l0-3.5a12.48,12.48,0,0,1,.35-2,12.91,12.91,0,0,1,2-4.32,13.12,13.12,0,0,1,1.6-1.82,13.31,13.31,0,0,1,1.92-1.49,12.91,12.91,0,0,1,4.48-1.78l.3-.06.3,0,.3,0h.16l.15,0c.2,0,.41,0,.61,0l.31,0h.4l4.09,0,5.72-.08V54L559.93,54l-4.09,0H554.5c-.48,0-1,0-1.43.08l-.35,0-.36,0-.71.08-.71.09-.71.12a30.65,30.65,0,0,0-5.54,1.49c-.57.21-1.14.45-1.7.69V39h27.27V21.58Z"/></clipPath><clipPath id="clip-path-4" transform="translate(3.95 3.95)"><path class="cls-1" d="M136.7,109.16a6.51,6.51,0,1,0,0,13h9a6.51,6.51,0,1,0,0-13Z"/></clipPath></defs><g id="Calque_2"><g id="Calque_1-2"><g class="cls-2"><rect class="cls-3" y="5.04" width="149.08" height="101.23"/></g><g class="cls-4"><rect class="cls-5" x="96.01" width="97.67" height="108.42"/></g><g class="cls-6"><rect class="cls-7" x="213.14" y="21.58" width="460.03" height="113.1"/></g><g class="cls-8"><rect class="cls-7" x="130.19" y="109.16" width="29.89" height="20.93"/></g></g></g></svg>
