<svg id="b15ad3ef-d677-4364-b93e-31d04123e89b" data-name="Calque 1" xmlns="http://www.w3.org/2000/svg" xmlns:xlink="http://www.w3.org/1999/xlink" viewBox="0 0 340.67 138"><defs><style>.a148f676-a214-4e86-a78c-77a70bdfe042{fill:#353535;}.a54f8afd-dbdd-4fa8-9118-3c896a429ba1{fill:#3f4f9d;}.aad790e2-7e23-45bd-b4fa-1cc1f574ba75{fill:url(#ad353c59-1aff-46e4-801c-3900631d5b84);}.a835afa8-f649-46d3-ad28-bbae2c9ab964{fill:url(#ae578511-348a-4510-835a-9a7e01d8ed56);}</style><linearGradient id="ad353c59-1aff-46e4-801c-3900631d5b84" x1="67.76" y1="14.33" x2="67.76" y2="70.06" gradientUnits="userSpaceOnUse"><stop offset="0" stop-color="#3f4e9c"/><stop offset="0.7" stop-color="#14b1d3"/></linearGradient><linearGradient id="ae578511-348a-4510-835a-9a7e01d8ed56" x1="41.09" y1="47.97" x2="41.09" y2="94.33" xlink:href="#ad353c59-1aff-46e4-801c-3900631d5b84"/></defs><title>jDev.logo_large.color</title><path class="a148f676-a214-4e86-a78c-77a70bdfe042" d="M149.57,108,145.9,96.68l0-.06q0-.12.15-.12h.58a.19.19,0,0,1,.2.13L150,106.78a.06.06,0,0,0,.1,0l3.26-10.15a.19.19,0,0,1,.2-.13h.55c.12,0,.16.06.13.18L150.59,108a.19.19,0,0,1-.2.13h-.62A.2.2,0,0,1,149.57,108Z"/><path class="a148f676-a214-4e86-a78c-77a70bdfe042" d="M156.63,107.66A3,3,0,0,1,155.5,106a8,8,0,0,1-.19-2.08,7.87,7.87,0,0,1,.19-2.06,3,3,0,0,1,1.12-1.64,3.33,3.33,0,0,1,2-.6,3.28,3.28,0,0,1,2,.61,3,3,0,0,1,1.13,1.63,5.2,5.2,0,0,1,.13.86c0,.31,0,.72,0,1.2s0,.93,0,1.23a4.91,4.91,0,0,1-.13.85,3,3,0,0,1-1.13,1.65,3.32,3.32,0,0,1-2,.62A3.25,3.25,0,0,1,156.63,107.66Zm3.5-.66a2.19,2.19,0,0,0,.8-1.29,8.21,8.21,0,0,0,.12-1.76,9.35,9.35,0,0,0-.1-1.76,2.15,2.15,0,0,0-.81-1.3,2.4,2.4,0,0,0-1.52-.48,2.37,2.37,0,0,0-1.51.48,2.18,2.18,0,0,0-.8,1.3,13,13,0,0,0,0,3.52,2.18,2.18,0,0,0,.8,1.3,2.59,2.59,0,0,0,3,0Z"/><path class="a148f676-a214-4e86-a78c-77a70bdfe042" d="M165.58,107.93a2.5,2.5,0,0,1-1.07-.79,1.7,1.7,0,0,1-.38-1.09v-.22c0-.11.05-.17.16-.17h.52a.15.15,0,0,1,.17.17V106a1.27,1.27,0,0,0,.61,1.06,2.65,2.65,0,0,0,1.57.44,2.4,2.4,0,0,0,1.51-.45,1.35,1.35,0,0,0,.58-1.11,1,1,0,0,0-.3-.77,2,2,0,0,0-.71-.46c-.27-.1-.67-.24-1.22-.4a12.46,12.46,0,0,1-1.49-.54,2.59,2.59,0,0,1-1-.7,1.73,1.73,0,0,1-.39-1.16,1.94,1.94,0,0,1,.8-1.62,3.49,3.49,0,0,1,2.13-.61,4,4,0,0,1,1.55.29,2.6,2.6,0,0,1,1.05.79,1.84,1.84,0,0,1,.37,1.13v0c0,.12-.05.17-.16.17h-.52a.15.15,0,0,1-.17-.17v0a1.23,1.23,0,0,0-.59-1.05,3,3,0,0,0-3,0,1.2,1.2,0,0,0-.56,1.05,1,1,0,0,0,.52.95,7.56,7.56,0,0,0,1.64.65,14,14,0,0,1,1.54.53,2.91,2.91,0,0,1,1,.71,1.72,1.72,0,0,1,.41,1.19,2,2,0,0,1-.8,1.68,3.37,3.37,0,0,1-2.16.65A4,4,0,0,1,165.58,107.93Z"/><path class="a148f676-a214-4e86-a78c-77a70bdfe042" d="M176.84,107.93a2.5,2.5,0,0,1-1.07-.79,1.7,1.7,0,0,1-.38-1.09v-.22c0-.11.05-.17.16-.17h.52a.15.15,0,0,1,.17.17V106a1.27,1.27,0,0,0,.61,1.06,2.65,2.65,0,0,0,1.57.44,2.4,2.4,0,0,0,1.51-.45,1.35,1.35,0,0,0,.58-1.11,1,1,0,0,0-.3-.77,2,2,0,0,0-.71-.46c-.27-.1-.67-.24-1.22-.4a12.46,12.46,0,0,1-1.49-.54,2.59,2.59,0,0,1-1-.7,1.73,1.73,0,0,1-.39-1.16,1.94,1.94,0,0,1,.8-1.62,3.49,3.49,0,0,1,2.13-.61,4,4,0,0,1,1.55.29,2.6,2.6,0,0,1,1.05.79,1.84,1.84,0,0,1,.37,1.13v0c0,.12-.05.17-.16.17h-.52a.15.15,0,0,1-.17-.17v0a1.23,1.23,0,0,0-.59-1.05,3,3,0,0,0-3.05,0,1.2,1.2,0,0,0-.56,1.05,1,1,0,0,0,.52.95,7.56,7.56,0,0,0,1.64.65A14,14,0,0,1,180,104a2.91,2.91,0,0,1,1,.71,1.72,1.72,0,0,1,.41,1.19,2,2,0,0,1-.81,1.68,3.32,3.32,0,0,1-2.15.65A4,4,0,0,1,176.84,107.93Z"/><path class="a148f676-a214-4e86-a78c-77a70bdfe042" d="M184.79,107.66a3,3,0,0,1-1.14-1.65,8.63,8.63,0,0,1-.18-2.08,8.44,8.44,0,0,1,.18-2.06,3,3,0,0,1,1.13-1.64,3.33,3.33,0,0,1,2-.6,3.3,3.3,0,0,1,2,.61,2.92,2.92,0,0,1,1.12,1.63,4.29,4.29,0,0,1,.14.86c0,.31,0,.72,0,1.2s0,.93,0,1.23a4.07,4.07,0,0,1-.14.85,2.9,2.9,0,0,1-1.12,1.65,3.32,3.32,0,0,1-2,.62A3.23,3.23,0,0,1,184.79,107.66Zm3.5-.66a2.19,2.19,0,0,0,.8-1.29,8.21,8.21,0,0,0,.12-1.76,9.35,9.35,0,0,0-.1-1.76,2.15,2.15,0,0,0-.81-1.3,2.4,2.4,0,0,0-1.52-.48,2.37,2.37,0,0,0-1.51.48,2.18,2.18,0,0,0-.8,1.3,13,13,0,0,0,0,3.52,2.18,2.18,0,0,0,.8,1.3,2.59,2.59,0,0,0,3,0Z"/><path class="a148f676-a214-4e86-a78c-77a70bdfe042" d="M192.72,108V96.67c0-.11.05-.17.16-.17h.55a.15.15,0,0,1,.17.17V108c0,.11-.06.16-.17.16h-.55A.14.14,0,0,1,192.72,108Z"/><path class="a148f676-a214-4e86-a78c-77a70bdfe042" d="M201.78,99.76h.54c.11,0,.16.06.16.17v8a.14.14,0,0,1-.16.16h-.54a.14.14,0,0,1-.16-.16v-.82a.05.05,0,0,0,0-.06.05.05,0,0,0-.05,0,2.19,2.19,0,0,1-.94.84,3.27,3.27,0,0,1-1.38.28,2.93,2.93,0,0,1-2.05-.73,2.59,2.59,0,0,1-.82-2V99.93a.15.15,0,0,1,.17-.17H197a.15.15,0,0,1,.17.17v5.35a2.19,2.19,0,0,0,.59,1.6,2.1,2.1,0,0,0,1.57.6,2.19,2.19,0,0,0,1.63-.61,2.12,2.12,0,0,0,.62-1.59V99.93C201.62,99.82,201.67,99.76,201.78,99.76Z"/><path class="a148f676-a214-4e86-a78c-77a70bdfe042" d="M208.7,100.51h-1.95a.05.05,0,0,0-.06.06v5.26a1.56,1.56,0,0,0,.38,1.19,1.83,1.83,0,0,0,1.23.34h.38a.15.15,0,0,1,.17.17V108c0,.11-.06.16-.17.16l-.49,0a2.87,2.87,0,0,1-1.76-.45,2,2,0,0,1-.61-1.65v-5.49a.05.05,0,0,0-.06-.06h-1a.15.15,0,0,1-.17-.17v-.41a.15.15,0,0,1,.17-.17h1s.06,0,.06-.07V97.8a.15.15,0,0,1,.17-.17h.53a.15.15,0,0,1,.17.17v1.89s0,.07.06.07h1.95a.15.15,0,0,1,.17.17v.41A.15.15,0,0,1,208.7,100.51Z"/><path class="a148f676-a214-4e86-a78c-77a70bdfe042" d="M211.43,97.85a.81.81,0,0,1-.23-.6.79.79,0,0,1,.83-.83.79.79,0,0,1,.83.83.79.79,0,0,1-.83.83A.81.81,0,0,1,211.43,97.85Zm.12,10.11v-8c0-.11,0-.17.16-.17h.55a.15.15,0,0,1,.17.17v8a.15.15,0,0,1-.17.17h-.55C211.6,108.13,211.55,108.07,211.55,108Z"/><path class="a148f676-a214-4e86-a78c-77a70bdfe042" d="M216.64,107.66A3,3,0,0,1,215.5,106a8.63,8.63,0,0,1-.18-2.08,8.44,8.44,0,0,1,.18-2.06,3,3,0,0,1,1.13-1.64,3.33,3.33,0,0,1,2-.6,3.3,3.3,0,0,1,2,.61,2.92,2.92,0,0,1,1.12,1.63,4.29,4.29,0,0,1,.14.86c0,.31,0,.72,0,1.2s0,.93,0,1.23a4.07,4.07,0,0,1-.14.85,2.9,2.9,0,0,1-1.12,1.65,3.32,3.32,0,0,1-2,.62A3.25,3.25,0,0,1,216.64,107.66Zm3.5-.66a2.19,2.19,0,0,0,.8-1.29,8.21,8.21,0,0,0,.12-1.76,9.35,9.35,0,0,0-.1-1.76,2.15,2.15,0,0,0-.81-1.3,2.4,2.4,0,0,0-1.52-.48,2.37,2.37,0,0,0-1.51.48,2.18,2.18,0,0,0-.8,1.3,13,13,0,0,0,0,3.52,2.18,2.18,0,0,0,.8,1.3,2.59,2.59,0,0,0,3,0Z"/><path class="a148f676-a214-4e86-a78c-77a70bdfe042" d="M229.93,100.42a2.78,2.78,0,0,1,.79,2.07V108a.14.14,0,0,1-.16.16H230c-.11,0-.17,0-.17-.16v-5.33a2.2,2.2,0,0,0-.6-1.6,2.06,2.06,0,0,0-1.56-.63,2.2,2.2,0,0,0-1.61.61,2.12,2.12,0,0,0-.62,1.59V108c0,.11-.06.16-.17.16h-.55a.14.14,0,0,1-.16-.16v-8c0-.11.05-.17.16-.17h.55a.15.15,0,0,1,.17.17v.81a.08.08,0,0,0,0,.06s0,0,.05,0a2.44,2.44,0,0,1,1-.84,3.18,3.18,0,0,1,1.38-.29A2.81,2.81,0,0,1,229.93,100.42Z"/><path class="a148f676-a214-4e86-a78c-77a70bdfe042" d="M234.52,107.93a2.5,2.5,0,0,1-1.07-.79,1.7,1.7,0,0,1-.38-1.09v-.22c0-.11.05-.17.16-.17h.52a.15.15,0,0,1,.17.17V106a1.27,1.27,0,0,0,.61,1.06,2.64,2.64,0,0,0,1.56.44,2.43,2.43,0,0,0,1.52-.45,1.35,1.35,0,0,0,.58-1.11,1,1,0,0,0-.3-.77,2,2,0,0,0-.71-.46c-.27-.1-.68-.24-1.22-.4a13.41,13.41,0,0,1-1.5-.54,2.64,2.64,0,0,1-1-.7,1.73,1.73,0,0,1-.39-1.16,1.94,1.94,0,0,1,.8-1.62,3.48,3.48,0,0,1,2.12-.61,4,4,0,0,1,1.56.29,2.6,2.6,0,0,1,1.05.79,1.84,1.84,0,0,1,.37,1.13v0c0,.12-.05.17-.16.17h-.52a.15.15,0,0,1-.17-.17v0a1.23,1.23,0,0,0-.59-1.05,3,3,0,0,0-3.05,0,1.2,1.2,0,0,0-.56,1.05,1,1,0,0,0,.52.95,7.35,7.35,0,0,0,1.64.65,14,14,0,0,1,1.54.53,2.91,2.91,0,0,1,1,.71,1.72,1.72,0,0,1,.41,1.19,2,2,0,0,1-.81,1.68,3.32,3.32,0,0,1-2.15.65A4,4,0,0,1,234.52,107.93Z"/><path class="a148f676-a214-4e86-a78c-77a70bdfe042" d="M250.12,100.42a2.78,2.78,0,0,1,.79,2.07V108a.14.14,0,0,1-.16.16h-.55c-.11,0-.17,0-.17-.16v-5.33a2.2,2.2,0,0,0-.6-1.6,2.06,2.06,0,0,0-1.56-.63,2.2,2.2,0,0,0-1.61.61,2.16,2.16,0,0,0-.62,1.59V108c0,.11-.06.16-.17.16h-.54c-.12,0-.17,0-.17-.16v-8a.15.15,0,0,1,.17-.17h.54a.15.15,0,0,1,.17.17v.81a.06.06,0,0,0,0,.06,0,0,0,0,0,0,0,2.44,2.44,0,0,1,1-.84,3.18,3.18,0,0,1,1.38-.29A2.8,2.8,0,0,1,250.12,100.42Z"/><path class="a148f676-a214-4e86-a78c-77a70bdfe042" d="M259,99.76h.53a.15.15,0,0,1,.17.17v8c0,.11-.06.16-.17.16H259c-.11,0-.17,0-.17-.16v-.82a.06.06,0,0,0,0-.06.05.05,0,0,0-.05,0,2.31,2.31,0,0,1-.94.84,3.35,3.35,0,0,1-1.39.28,3,3,0,0,1-2.05-.73,2.59,2.59,0,0,1-.81-2V99.93c0-.11.05-.17.16-.17h.54c.11,0,.16.06.16.17v5.35a2.19,2.19,0,0,0,.59,1.6,2.12,2.12,0,0,0,1.57.6,2.19,2.19,0,0,0,1.63-.61,2.12,2.12,0,0,0,.62-1.59V99.93A.15.15,0,0,1,259,99.76Z"/><path class="a148f676-a214-4e86-a78c-77a70bdfe042" d="M272.85,100.37a2.72,2.72,0,0,1,.73,2V108a.14.14,0,0,1-.16.16h-.54a.14.14,0,0,1-.16-.16v-5.43a2.07,2.07,0,0,0-.58-1.55,2,2,0,0,0-1.48-.58,2.16,2.16,0,0,0-1.56.57,2,2,0,0,0-.59,1.53V108c0,.11-.05.16-.17.16h-.53a.14.14,0,0,1-.16-.16v-5.43a2.1,2.1,0,0,0-.57-1.55,2,2,0,0,0-1.48-.58A2.14,2.14,0,0,0,264,101a2.07,2.07,0,0,0-.57,1.53V108c0,.11-.05.16-.17.16h-.54c-.12,0-.17,0-.17-.16v-8a.15.15,0,0,1,.17-.17h.54a.15.15,0,0,1,.17.17v.74a0,0,0,0,0,0,0s0,0,.05,0a2.21,2.21,0,0,1,.94-.8,3.21,3.21,0,0,1,1.34-.27,2.82,2.82,0,0,1,1.49.38,2.34,2.34,0,0,1,.94,1c0,.05.05.05.08,0a2.43,2.43,0,0,1,1-1.08,3.2,3.2,0,0,1,1.55-.37A2.66,2.66,0,0,1,272.85,100.37Z"/><path class="a148f676-a214-4e86-a78c-77a70bdfe042" d="M280.68,107.14a2.47,2.47,0,0,0,.87-1c.06-.1.13-.13.22-.09l.43.22a.15.15,0,0,1,.08.22,2.87,2.87,0,0,1-1.15,1.29,3.53,3.53,0,0,1-1.86.49,3.4,3.4,0,0,1-2-.57,2.84,2.84,0,0,1-1.11-1.55,4,4,0,0,1-.18-.93,11.8,11.8,0,0,1-.05-1.3c0-.54,0-1,0-1.23a4.34,4.34,0,0,1,.11-.76,3,3,0,0,1,1.09-1.68,3.65,3.65,0,0,1,4.2.07,3.15,3.15,0,0,1,1,2,4.9,4.9,0,0,1,.07.74c0,.28,0,.63,0,1a.15.15,0,0,1-.17.17h-5.42c-.05,0-.07,0-.07.07a8.09,8.09,0,0,0,.08,1.41,2.18,2.18,0,0,0,.83,1.29,2.6,2.6,0,0,0,1.62.47A2.5,2.5,0,0,0,280.68,107.14Zm-3.87-3.7s0,.06.07.06h4.64a.05.05,0,0,0,.06-.06,6.56,6.56,0,0,0-.08-1.25,2.25,2.25,0,0,0-.8-1.29,2.32,2.32,0,0,0-1.51-.49,2.38,2.38,0,0,0-1.5.47,2.12,2.12,0,0,0-.76,1.26A6.56,6.56,0,0,0,276.81,103.44Zm1.78-4.85a.12.12,0,0,1,0-.14l1-1.83a.19.19,0,0,1,.2-.12h.48a.16.16,0,0,1,.14.06s0,.08,0,.14l-1.11,1.83a.26.26,0,0,1-.2.12h-.39A.14.14,0,0,1,278.59,98.59Z"/><path class="a148f676-a214-4e86-a78c-77a70bdfe042" d="M289.15,99.89a.17.17,0,0,1,.1.22l-.15.53c0,.11-.1.14-.21.1a2.1,2.1,0,0,0-.84-.12,2,2,0,0,0-1.53.71,2.44,2.44,0,0,0-.61,1.69v5c0,.11-.06.16-.17.16h-.55A.14.14,0,0,1,285,108v-8c0-.11.05-.17.16-.17h.55a.15.15,0,0,1,.17.17v1.13s0,0,0,0,0,0,.05,0a2.68,2.68,0,0,1,.9-1,2.37,2.37,0,0,1,1.31-.37A2.16,2.16,0,0,1,289.15,99.89Z"/><path class="a148f676-a214-4e86-a78c-77a70bdfe042" d="M291.08,97.85a.85.85,0,0,1-.23-.6.83.83,0,1,1,1.66,0,.85.85,0,0,1-1.43.6ZM291.2,108v-8c0-.11.05-.17.16-.17h.55a.15.15,0,0,1,.17.17v8a.15.15,0,0,1-.17.17h-.55C291.25,108.13,291.2,108.07,291.2,108Z"/><path class="a148f676-a214-4e86-a78c-77a70bdfe042" d="M300.64,99.76h.55a.15.15,0,0,1,.17.17v11.31c0,.11-.06.16-.17.16h-.55a.14.14,0,0,1-.16-.16v-4.1s0,0,0,0,0,0-.05,0a2.48,2.48,0,0,1-.94.85,2.78,2.78,0,0,1-1.31.3,3.11,3.11,0,0,1-1.95-.61,2.8,2.8,0,0,1-1-1.64,4.18,4.18,0,0,1-.14-.86c0-.31,0-.73,0-1.24s0-.92,0-1.24a3.58,3.58,0,0,1,.15-.85,2.94,2.94,0,0,1,1.07-1.61,3,3,0,0,1,1.91-.6,2.78,2.78,0,0,1,1.31.3,2.46,2.46,0,0,1,.94.84.05.05,0,0,0,.05,0,.06.06,0,0,0,0-.06v-.81C300.48,99.82,300.53,99.76,300.64,99.76Zm-.23,5.47a10,10,0,0,0,0-1.28c0-.58,0-1,0-1.26a2.94,2.94,0,0,0-.16-.72,2.21,2.21,0,0,0-.72-1.13,2,2,0,0,0-1.31-.43,2.23,2.23,0,0,0-1.39.43,1.93,1.93,0,0,0-.75,1.13,3.16,3.16,0,0,0-.17.72,15.78,15.78,0,0,0,0,2.51,2.39,2.39,0,0,0,.18.7l.07.18a1.93,1.93,0,0,0,.76,1,2.24,2.24,0,0,0,1.32.39,2,2,0,0,0,1.29-.42,2.1,2.1,0,0,0,.71-1.11A3.74,3.74,0,0,0,300.41,105.23Z"/><path class="a148f676-a214-4e86-a78c-77a70bdfe042" d="M309.68,99.76h.53c.11,0,.16.06.16.17v8a.14.14,0,0,1-.16.16h-.53c-.12,0-.17,0-.17-.16v-.82a.06.06,0,0,0,0-.06s0,0-.05,0a2.31,2.31,0,0,1-.94.84,3.35,3.35,0,0,1-1.39.28,2.94,2.94,0,0,1-2.05-.73,2.59,2.59,0,0,1-.81-2V99.93c0-.11.05-.17.16-.17h.54c.11,0,.16.06.16.17v5.35a2.19,2.19,0,0,0,.59,1.6,2.12,2.12,0,0,0,1.57.6,2.19,2.19,0,0,0,1.63-.61,2.12,2.12,0,0,0,.62-1.59V99.93A.15.15,0,0,1,309.68,99.76Z"/><path class="a148f676-a214-4e86-a78c-77a70bdfe042" d="M317.73,107.14a2.42,2.42,0,0,0,.88-1q.08-.15.21-.09l.44.22a.15.15,0,0,1,.08.22,2.89,2.89,0,0,1-1.16,1.29,3.47,3.47,0,0,1-1.85.49,3.35,3.35,0,0,1-2-.57,2.79,2.79,0,0,1-1.11-1.55,4,4,0,0,1-.19-.93c0-.34-.05-.77-.05-1.3s0-1,0-1.23a4.37,4.37,0,0,1,.1-.76,3,3,0,0,1,1.09-1.68,3.25,3.25,0,0,1,2-.63,3.2,3.2,0,0,1,2.17.7,3.12,3.12,0,0,1,1,2c0,.21.05.45.07.74s0,.63,0,1c0,.11,0,.17-.16.17h-5.43s-.06,0-.06.07a7.16,7.16,0,0,0,.08,1.41,2.17,2.17,0,0,0,.82,1.29,2.65,2.65,0,0,0,1.63.47A2.46,2.46,0,0,0,317.73,107.14Zm-3.86-3.7a.05.05,0,0,0,.06.06h4.64c.05,0,.07,0,.07-.06a7.52,7.52,0,0,0-.08-1.25,2.25,2.25,0,0,0-.8-1.29,2.34,2.34,0,0,0-1.51-.49,2.38,2.38,0,0,0-1.5.47,2.13,2.13,0,0,0-.77,1.26A7.83,7.83,0,0,0,313.87,103.44Z"/><path class="a148f676-a214-4e86-a78c-77a70bdfe042" d="M322.94,107.93a2.44,2.44,0,0,1-1.07-.79,1.71,1.71,0,0,1-.39-1.09v-.22a.15.15,0,0,1,.17-.17h.52c.11,0,.16.06.16.17V106a1.29,1.29,0,0,0,.62,1.06,2.64,2.64,0,0,0,1.56.44,2.43,2.43,0,0,0,1.52-.45,1.38,1.38,0,0,0,.58-1.11,1,1,0,0,0-.3-.77,2.12,2.12,0,0,0-.71-.46c-.27-.1-.68-.24-1.22-.4a13.41,13.41,0,0,1-1.5-.54,2.68,2.68,0,0,1-1-.7,1.73,1.73,0,0,1-.39-1.16,1.92,1.92,0,0,1,.81-1.62,3.48,3.48,0,0,1,2.12-.61A4,4,0,0,1,326,100a2.5,2.5,0,0,1,1,.79,1.85,1.85,0,0,1,.38,1.13v0a.15.15,0,0,1-.17.17h-.51a.15.15,0,0,1-.17-.17v0a1.26,1.26,0,0,0-.59-1.05,3,3,0,0,0-3.05,0,1.21,1.21,0,0,0-.57,1.05,1,1,0,0,0,.53.95,7.43,7.43,0,0,0,1.63.65,12.65,12.65,0,0,1,1.54.53,2.73,2.73,0,0,1,1,.71,1.68,1.68,0,0,1,.42,1.19,2,2,0,0,1-.81,1.68,3.34,3.34,0,0,1-2.15.65A4,4,0,0,1,322.94,107.93Z"/><path class="a148f676-a214-4e86-a78c-77a70bdfe042" d="M147.75,126a3,3,0,0,1-1.14-1.65,8.69,8.69,0,0,1-.18-2.08,8.44,8.44,0,0,1,.18-2.06,3,3,0,0,1,1.13-1.64,3.59,3.59,0,0,1,4,0,2.88,2.88,0,0,1,1.12,1.63,4.19,4.19,0,0,1,.14.85c0,.32,0,.72,0,1.21s0,.92,0,1.23a4.31,4.31,0,0,1-.14.85,2.9,2.9,0,0,1-1.12,1.65,3.32,3.32,0,0,1-2,.61A3.23,3.23,0,0,1,147.75,126Zm3.5-.66a2.25,2.25,0,0,0,.8-1.29,8.27,8.27,0,0,0,.12-1.76,9.48,9.48,0,0,0-.1-1.77,2.15,2.15,0,0,0-.81-1.29,2.35,2.35,0,0,0-1.52-.49,2.32,2.32,0,0,0-1.51.49,2.19,2.19,0,0,0-.8,1.29,8.92,8.92,0,0,0-.12,1.77,8.8,8.8,0,0,0,.12,1.76,2.21,2.21,0,0,0,.8,1.3,2.59,2.59,0,0,0,3,0Z"/><path class="a148f676-a214-4e86-a78c-77a70bdfe042" d="M162.13,121c0,.32,0,.73,0,1.24s0,.92,0,1.24a4.44,4.44,0,0,1-.13.86,2.83,2.83,0,0,1-1,1.63,3.1,3.1,0,0,1-2,.61,2.89,2.89,0,0,1-1.3-.29,2.25,2.25,0,0,1-.92-.84s-.05,0-.06,0,0,0,0,0v4.06c0,.11-.05.17-.16.17H156a.15.15,0,0,1-.17-.17V118.22c0-.11.06-.16.17-.16h.55a.14.14,0,0,1,.16.16v.8a.06.06,0,0,0,0,.06.08.08,0,0,0,.06,0,2.4,2.4,0,0,1,.92-.84,2.89,2.89,0,0,1,1.3-.29,3.06,3.06,0,0,1,1.92.6,3,3,0,0,1,1.06,1.61A3.76,3.76,0,0,1,162.13,121Zm-1.08,3.2a2.31,2.31,0,0,0,.18-.7,9.55,9.55,0,0,0,.05-1.24,9.72,9.72,0,0,0-.05-1.26,3.8,3.8,0,0,0-.16-.72,1.9,1.9,0,0,0-.75-1.13,2.29,2.29,0,0,0-1.4-.44,1.92,1.92,0,0,0-1.3.45,2.11,2.11,0,0,0-.71,1.12,3.12,3.12,0,0,0-.17.7,12.3,12.3,0,0,0-.05,1.28,12.58,12.58,0,0,0,.05,1.28,3.9,3.9,0,0,0,.17.73,2.06,2.06,0,0,0,.71,1.1,2,2,0,0,0,1.3.43,2.24,2.24,0,0,0,1.32-.39,1.94,1.94,0,0,0,.74-1Z"/><path class="a148f676-a214-4e86-a78c-77a70bdfe042" d="M169.13,125.43a2.47,2.47,0,0,0,.87-1,.15.15,0,0,1,.21-.08l.44.21c.1.06.13.13.08.22a2.89,2.89,0,0,1-1.15,1.3,3.53,3.53,0,0,1-1.86.48,3.42,3.42,0,0,1-2-.56,2.88,2.88,0,0,1-1.11-1.55,4.93,4.93,0,0,1-.19-.93c0-.35-.05-.78-.05-1.3s0-1,0-1.23a4.46,4.46,0,0,1,.11-.77,3,3,0,0,1,1.09-1.68,3.63,3.63,0,0,1,4.2.08,3.13,3.13,0,0,1,1,2,6.92,6.92,0,0,1,.07.74c0,.29,0,.64,0,1.06,0,.11,0,.17-.16.17h-5.42c-.05,0-.07,0-.07.06a8.31,8.31,0,0,0,.08,1.42,2.14,2.14,0,0,0,.83,1.29,2.66,2.66,0,0,0,1.62.47A2.44,2.44,0,0,0,169.13,125.43Zm-3.87-3.7s0,.07.07.07H170s.06,0,.06-.07a7.6,7.6,0,0,0-.08-1.25,2.25,2.25,0,0,0-.8-1.29,2.38,2.38,0,0,0-1.51-.49,2.33,2.33,0,0,0-1.5.48,2.07,2.07,0,0,0-.76,1.25A6.65,6.65,0,0,0,165.26,121.73Z"/><path class="a148f676-a214-4e86-a78c-77a70bdfe042" d="M178.84,118.72a2.76,2.76,0,0,1,.79,2.06v5.49a.15.15,0,0,1-.17.17h-.55c-.11,0-.16-.06-.16-.17V121a2.25,2.25,0,0,0-.6-1.61,2.09,2.09,0,0,0-1.56-.62,2.19,2.19,0,0,0-1.62.61,2.12,2.12,0,0,0-.61,1.59v5.35a.15.15,0,0,1-.17.17h-.55c-.11,0-.16-.06-.16-.17v-8a.14.14,0,0,1,.16-.16h.55c.11,0,.17,0,.17.16V119a.08.08,0,0,0,0,.06s0,0,0,0a2.39,2.39,0,0,1,1-.84,3.18,3.18,0,0,1,1.38-.29A2.83,2.83,0,0,1,178.84,118.72Z"/><path class="a148f676-a214-4e86-a78c-77a70bdfe042" d="M181.52,121.43V121c0-.11.06-.16.17-.16h4.77c.12,0,.17.05.17.16v.45a.15.15,0,0,1-.17.17h-4.77A.15.15,0,0,1,181.52,121.43Z"/><path class="a148f676-a214-4e86-a78c-77a70bdfe042" d="M189.8,126.23a2.52,2.52,0,0,1-1.07-.79,1.74,1.74,0,0,1-.39-1.1v-.21a.15.15,0,0,1,.17-.17H189c.11,0,.16.06.16.17v.18a1.27,1.27,0,0,0,.62,1,2.57,2.57,0,0,0,1.56.45,2.38,2.38,0,0,0,1.51-.45,1.36,1.36,0,0,0,.59-1.12,1,1,0,0,0-.3-.76,2.12,2.12,0,0,0-.71-.46c-.27-.11-.68-.24-1.22-.41a13.65,13.65,0,0,1-1.5-.53,2.62,2.62,0,0,1-1-.71,1.7,1.7,0,0,1-.39-1.15,1.91,1.91,0,0,1,.81-1.62,3.42,3.42,0,0,1,2.12-.61,4,4,0,0,1,1.56.29,2.49,2.49,0,0,1,1,.79,1.83,1.83,0,0,1,.38,1.13v0a.15.15,0,0,1-.17.17h-.51a.15.15,0,0,1-.17-.17v0a1.26,1.26,0,0,0-.59-1,3,3,0,0,0-3.05,0,1.22,1.22,0,0,0-.57,1.06,1.05,1.05,0,0,0,.53,1,7.51,7.51,0,0,0,1.63.64,12.43,12.43,0,0,1,1.54.54,2.7,2.7,0,0,1,1,.7,1.7,1.7,0,0,1,.42,1.19,2.05,2.05,0,0,1-.81,1.69,3.34,3.34,0,0,1-2.15.64A4.14,4.14,0,0,1,189.8,126.23Z"/><path class="a148f676-a214-4e86-a78c-77a70bdfe042" d="M197.74,126a3.07,3.07,0,0,1-1.13-1.65,8.69,8.69,0,0,1-.18-2.08,8.44,8.44,0,0,1,.18-2.06,3,3,0,0,1,1.12-1.64,3.61,3.61,0,0,1,4,0,2.93,2.93,0,0,1,1.12,1.63,4.22,4.22,0,0,1,.13.85c0,.32,0,.72,0,1.21s0,.92,0,1.23a4.33,4.33,0,0,1-.13.85,3,3,0,0,1-1.12,1.65,3.34,3.34,0,0,1-2,.61A3.26,3.26,0,0,1,197.74,126Zm3.5-.66a2.21,2.21,0,0,0,.81-1.29,8.27,8.27,0,0,0,.12-1.76,10.49,10.49,0,0,0-.1-1.77,2.25,2.25,0,0,0-.81-1.29,2.6,2.6,0,0,0-3,0,2.24,2.24,0,0,0-.8,1.29,10,10,0,0,0-.11,1.77,9.9,9.9,0,0,0,.11,1.76,2.26,2.26,0,0,0,.8,1.3,2.4,2.4,0,0,0,1.52.48A2.33,2.33,0,0,0,201.24,125.3Z"/><path class="a148f676-a214-4e86-a78c-77a70bdfe042" d="M211,118.06h.53c.11,0,.17,0,.17.16v8a.15.15,0,0,1-.17.17H211a.15.15,0,0,1-.17-.17v-.81s0-.06,0-.06,0,0-.05,0a2.22,2.22,0,0,1-.94.83,3.16,3.16,0,0,1-1.39.28,2.92,2.92,0,0,1-2-.73,2.55,2.55,0,0,1-.82-2v-5.59c0-.11.06-.16.17-.16h.53c.11,0,.17,0,.17.16v5.36a2.13,2.13,0,0,0,.59,1.59,2.09,2.09,0,0,0,1.57.6,2.23,2.23,0,0,0,1.63-.6,2.15,2.15,0,0,0,.61-1.59v-5.36C210.81,118.11,210.87,118.06,211,118.06Z"/><path class="a148f676-a214-4e86-a78c-77a70bdfe042" d="M218.7,118.19c.09,0,.12.1.1.21l-.15.54a.15.15,0,0,1-.22.1,2.05,2.05,0,0,0-.83-.12,2,2,0,0,0-1.54.71,2.49,2.49,0,0,0-.61,1.69v5c0,.11,0,.17-.16.17h-.55a.15.15,0,0,1-.17-.17v-8c0-.11.06-.16.17-.16h.55a.14.14,0,0,1,.16.16v1.13s0,.06,0,.06,0,0,0,0a2.71,2.71,0,0,1,.91-1,2.26,2.26,0,0,1,1.3-.37A2.21,2.21,0,0,1,218.7,118.19Z"/><path class="a148f676-a214-4e86-a78c-77a70bdfe042" d="M221.53,126a3,3,0,0,1-1.1-1.65,7.92,7.92,0,0,1-.22-2.08,8,8,0,0,1,.22-2.06,2.81,2.81,0,0,1,1.1-1.63,3.27,3.27,0,0,1,2-.62,3.48,3.48,0,0,1,2,.6,2.57,2.57,0,0,1,1.08,1.5,2.52,2.52,0,0,1,.1.46v0q0,.11-.15.15l-.53.06h0q-.12,0-.15-.15l-.05-.23a2,2,0,0,0-.78-1.17,2.45,2.45,0,0,0-1.53-.48,2.31,2.31,0,0,0-1.52.49,2.12,2.12,0,0,0-.78,1.28,8.1,8.1,0,0,0-.15,1.78,7.78,7.78,0,0,0,.15,1.76,2.14,2.14,0,0,0,.78,1.3,2.36,2.36,0,0,0,1.52.48,2.56,2.56,0,0,0,1.54-.47,1.93,1.93,0,0,0,.77-1.19l0-.09a.16.16,0,0,1,.2-.15l.51.09q.16,0,.15.18l-.07.3a2.52,2.52,0,0,1-1.08,1.52,3.55,3.55,0,0,1-2,.59A3.27,3.27,0,0,1,221.53,126Z"/><path class="a148f676-a214-4e86-a78c-77a70bdfe042" d="M233.51,125.43a2.47,2.47,0,0,0,.87-1,.16.16,0,0,1,.22-.08l.43.21c.1.06.13.13.08.22a2.89,2.89,0,0,1-1.15,1.3,3.53,3.53,0,0,1-1.86.48,3.47,3.47,0,0,1-2-.56,2.88,2.88,0,0,1-1.11-1.55,4.26,4.26,0,0,1-.18-.93,12,12,0,0,1-.05-1.3c0-.54,0-1,0-1.23a4.46,4.46,0,0,1,.11-.77,3,3,0,0,1,1.09-1.68,3.63,3.63,0,0,1,4.2.08,3.13,3.13,0,0,1,1,2,5,5,0,0,1,.07.74c0,.29,0,.64,0,1.06a.15.15,0,0,1-.17.17h-5.42c-.05,0-.07,0-.07.06a8.31,8.31,0,0,0,.08,1.42,2.18,2.18,0,0,0,.83,1.29,2.68,2.68,0,0,0,1.62.47A2.42,2.42,0,0,0,233.51,125.43Zm-3.87-3.7s0,.07.07.07h4.64a.06.06,0,0,0,.07-.07,6.46,6.46,0,0,0-.09-1.25,2.25,2.25,0,0,0-.8-1.29,2.38,2.38,0,0,0-1.51-.49,2.33,2.33,0,0,0-1.5.48,2.07,2.07,0,0,0-.76,1.25A6.65,6.65,0,0,0,229.64,121.73Z"/><path class="a148f676-a214-4e86-a78c-77a70bdfe042" d="M238.71,126.23a2.59,2.59,0,0,1-1.07-.79,1.79,1.79,0,0,1-.38-1.1v-.21a.15.15,0,0,1,.17-.17h.51a.15.15,0,0,1,.17.17v.18a1.26,1.26,0,0,0,.61,1,2.58,2.58,0,0,0,1.57.45,2.4,2.4,0,0,0,1.51-.45,1.35,1.35,0,0,0,.58-1.12,1,1,0,0,0-.3-.76,2.08,2.08,0,0,0-.7-.46c-.28-.11-.68-.24-1.23-.41a12.68,12.68,0,0,1-1.49-.53,2.62,2.62,0,0,1-1-.71,1.7,1.7,0,0,1-.39-1.15,1.91,1.91,0,0,1,.81-1.62,3.38,3.38,0,0,1,2.12-.61,4,4,0,0,1,1.55.29,2.52,2.52,0,0,1,1.05.79,1.82,1.82,0,0,1,.37,1.13v0c0,.11-.05.17-.16.17h-.52c-.11,0-.16-.06-.16-.17v0a1.26,1.26,0,0,0-.59-1,3.06,3.06,0,0,0-3.06,0,1.23,1.23,0,0,0-.56,1.06,1,1,0,0,0,.52,1,7.63,7.63,0,0,0,1.64.64,13.05,13.05,0,0,1,1.54.54,2.88,2.88,0,0,1,1,.7,1.74,1.74,0,0,1,.41,1.19,2,2,0,0,1-.8,1.69,3.37,3.37,0,0,1-2.16.64A4.17,4.17,0,0,1,238.71,126.23Z"/><path class="a148f676-a214-4e86-a78c-77a70bdfe042" d="M253.42,125.43a2.47,2.47,0,0,0,.87-1,.16.16,0,0,1,.22-.08l.43.21c.1.06.13.13.08.22a2.89,2.89,0,0,1-1.15,1.3,3.53,3.53,0,0,1-1.86.48,3.47,3.47,0,0,1-2-.56,2.88,2.88,0,0,1-1.11-1.55,4.26,4.26,0,0,1-.18-.93,12,12,0,0,1-.05-1.3c0-.54,0-1,0-1.23a4.46,4.46,0,0,1,.11-.77,3,3,0,0,1,1.09-1.68,3.63,3.63,0,0,1,4.2.08,3.13,3.13,0,0,1,1,2,5,5,0,0,1,.07.74c0,.29,0,.64,0,1.06a.15.15,0,0,1-.17.17h-5.42c-.05,0-.07,0-.07.06a8.31,8.31,0,0,0,.08,1.42,2.18,2.18,0,0,0,.83,1.29,2.66,2.66,0,0,0,1.62.47A2.42,2.42,0,0,0,253.42,125.43Zm-3.87-3.7s0,.07.07.07h4.64s.06,0,.06-.07a6.62,6.62,0,0,0-.08-1.25,2.25,2.25,0,0,0-.8-1.29,2.38,2.38,0,0,0-1.51-.49,2.33,2.33,0,0,0-1.5.48,2.07,2.07,0,0,0-.76,1.25A6.65,6.65,0,0,0,249.55,121.73Z"/><path class="a148f676-a214-4e86-a78c-77a70bdfe042" d="M261,118.8h-1.95s-.06,0-.06.07v5.26a1.57,1.57,0,0,0,.38,1.19,1.88,1.88,0,0,0,1.23.34H261c.11,0,.17,0,.17.16v.45a.15.15,0,0,1-.17.17h-.49a2.87,2.87,0,0,1-1.76-.44,2,2,0,0,1-.61-1.65v-5.49s0-.07-.06-.07h-1c-.11,0-.17,0-.17-.16v-.42c0-.11.06-.16.17-.16h1s.06,0,.06-.07v-1.9c0-.11.06-.16.17-.16h.53c.11,0,.17,0,.17.16V118s0,.07.06.07H261c.11,0,.17,0,.17.16v.42C261.18,118.75,261.12,118.8,261,118.8Z"/><path class="a148f676-a214-4e86-a78c-77a70bdfe042" d="M267.55,125.75a2.66,2.66,0,0,1-1.07-2.21V123c0-.11.06-.16.17-.16h.51c.11,0,.17,0,.17.16v.5a2,2,0,0,0,.85,1.67,3.82,3.82,0,0,0,2.33.63,3.38,3.38,0,0,0,2.11-.57,1.92,1.92,0,0,0,.73-1.59,1.88,1.88,0,0,0-.32-1.08,3.21,3.21,0,0,0-1-.85,15.87,15.87,0,0,0-1.91-.92c-.86-.36-1.51-.67-1.95-.91a3.2,3.2,0,0,1-1.06-.93,2.44,2.44,0,0,1-.4-1.43,2.54,2.54,0,0,1,1-2.11,4.1,4.1,0,0,1,2.6-.74,4.43,4.43,0,0,1,2.84.83,2.72,2.72,0,0,1,1,2.23v.39a.14.14,0,0,1-.16.16h-.55c-.11,0-.17,0-.17-.16v-.34a2,2,0,0,0-.8-1.69,3.53,3.53,0,0,0-2.24-.64,3.16,3.16,0,0,0-1.95.53,1.79,1.79,0,0,0-.68,1.5,1.71,1.71,0,0,0,.32,1.08,2.69,2.69,0,0,0,.9.73c.4.2,1,.47,1.82.8a15.65,15.65,0,0,1,2,1,3.89,3.89,0,0,1,1.19,1.07,2.51,2.51,0,0,1,.43,1.48,2.68,2.68,0,0,1-1,2.17,4.34,4.34,0,0,1-2.8.81A4.6,4.6,0,0,1,267.55,125.75Z"/><path class="a148f676-a214-4e86-a78c-77a70bdfe042" d="M276.91,126.27V115c0-.11.06-.16.17-.16h.55a.14.14,0,0,1,.16.16v11.31c0,.11-.05.17-.16.17h-.55A.15.15,0,0,1,276.91,126.27Z"/><path class="a148f676-a214-4e86-a78c-77a70bdfe042" d="M282.63,126.12a3.3,3.3,0,0,1-1.34-1.25,3.67,3.67,0,0,1-.47-1.86v-4.79a3.68,3.68,0,0,1,.47-1.87,3.24,3.24,0,0,1,1.34-1.25,4.4,4.4,0,0,1,2-.44,4.3,4.3,0,0,1,2,.44,3.29,3.29,0,0,1,1.33,1.23,3.35,3.35,0,0,1,.47,1.79v.24a.14.14,0,0,1-.16.16h-.55c-.11,0-.17,0-.17-.16v-.22a2.53,2.53,0,0,0-.8-2,2.93,2.93,0,0,0-2.09-.75,3,3,0,0,0-2.12.76,2.61,2.61,0,0,0-.81,2v4.86a2.57,2.57,0,0,0,.81,2,3.38,3.38,0,0,0,4.22,0,2.49,2.49,0,0,0,.79-1.92v-1.68s0-.07-.06-.07h-2.6a.15.15,0,0,1-.17-.17v-.45c0-.11.06-.16.17-.16h3.38a.14.14,0,0,1,.16.16v2.16a3.47,3.47,0,0,1-1,2.66,3.82,3.82,0,0,1-2.74,1A4.27,4.27,0,0,1,282.63,126.12Z"/><path class="a54f8afd-dbdd-4fa8-9118-3c896a429ba1" d="M38.06,20.79a21.33,21.33,0,0,0,.47-4.5h0A40.1,40.1,0,0,0,13.41,40.43c5.78,0,12.51-2.71,17.55-7.44A23.52,23.52,0,0,0,38.06,20.79Z"/><path class="aad790e2-7e23-45bd-b4fa-1cc1f574ba75" d="M50.93,14.33C48.22,23.73,39.86,36,48.22,44.38s20.32-17,27-10.32-2.12,33.16,12.45,36h0A40,40,0,0,0,50.93,14.33Z"/><path class="a835afa8-f649-46d3-ad28-bbae2c9ab964" d="M61,71.59c-10.16-3.28-19.18,12.3-25.57,5.9s2.3-15.08-2.29-24.58a8.15,8.15,0,0,0-5.54-4.67c-5.75-1.4-13.37,2.79-16.67,6.09A40,40,0,0,0,48.36,94.25l.51,0,.36,0h1.7a39.79,39.79,0,0,0,20.32-5.54h0S71.17,74.87,61,71.59Z"/><path class="a148f676-a214-4e86-a78c-77a70bdfe042" d="M107.25,106.47v-4.13a.89.89,0,0,1,1-1Q119,101.23,119,91V36.68a.88.88,0,0,1,1-1h5.13a.89.89,0,0,1,1,1V91q0,8.55-4.23,12.47t-13.67,4A.89.89,0,0,1,107.25,106.47Zm11.32-81.65a5.5,5.5,0,0,1-1.56-4,5.35,5.35,0,0,1,5.63-5.63,5.54,5.54,0,0,1,4,1.56,5.41,5.41,0,0,1,1.61,4.07,5.5,5.5,0,0,1-5.63,5.63A5.4,5.4,0,0,1,118.57,24.82Z"/><path class="a148f676-a214-4e86-a78c-77a70bdfe042" d="M144.86,85.55V17.18a.89.89,0,0,1,1-1h23.73q10,0,15.84,5.23t5.88,14.18V67.15q0,9-5.88,14.18t-15.84,5.23H145.86A.89.89,0,0,1,144.86,85.55Zm7.54-5.23h17.5q6.53,0,10.4-3.82t3.87-10.25V36.58q0-6.53-3.82-10.35T169.9,22.41H152.4a.35.35,0,0,0-.4.4V79.92A.35.35,0,0,0,152.4,80.32Z"/><path class="a148f676-a214-4e86-a78c-77a70bdfe042" d="M245,59.61v3.22a.89.89,0,0,1-1,1H211.52a.36.36,0,0,0-.4.41,45.45,45.45,0,0,0,.6,7.13,12,12,0,0,0,4.73,7.14,15.36,15.36,0,0,0,9.25,2.62,14.3,14.3,0,0,0,7.44-1.91,13.21,13.21,0,0,0,5-5.43c.4-.61.87-.74,1.41-.4l3.92,2.31a1,1,0,0,1,.4,1.41,18.2,18.2,0,0,1-7.54,7.59,23.64,23.64,0,0,1-11.56,2.76,21.15,21.15,0,0,1-12-3.42,18.31,18.31,0,0,1-6.94-9.25q-1.8-4.83-1.81-13.87c0-2.82,0-5.11.15-6.89a21.45,21.45,0,0,1,.76-4.78,18.58,18.58,0,0,1,6.89-10.45,20.08,20.08,0,0,1,12.51-3.93q9.15,0,14.08,4.63t6.13,13.07A50.7,50.7,0,0,1,245,59.61ZM216.2,43.67a11.83,11.83,0,0,0-4.27,6.89,31.74,31.74,0,0,0-.81,6.84.35.35,0,0,0,.4.4h26a.35.35,0,0,0,.4-.4,47.72,47.72,0,0,0-.6-6.44,12.74,12.74,0,0,0-4.48-7.19,13.32,13.32,0,0,0-8.5-2.66A12.86,12.86,0,0,0,216.2,43.67Z"/><path class="a148f676-a214-4e86-a78c-77a70bdfe042" d="M269.64,85.75l-16.49-49-.1-.4c0-.47.3-.7.91-.7h5.73a1.17,1.17,0,0,1,1.2.8L273.46,75.9a.33.33,0,0,0,.3.2.34.34,0,0,0,.31-.2l12.56-39.42a1.19,1.19,0,0,1,1.21-.8l5.73.1q1.11,0,.81,1.11L277.89,85.75a1.18,1.18,0,0,1-1.21.81h-5.83A1.18,1.18,0,0,1,269.64,85.75Z"/></svg>