<svg width="756" height="177" viewBox="0 0 756 177" fill="none" xmlns="http://www.w3.org/2000/svg">
<path fill-rule="evenodd" clip-rule="evenodd" d="M148.784 108V61.1465H158.176V107.688C158.176 117.404 163.965 123.985 175.237 123.985C186.505 123.985 192.297 117.562 192.297 107.688V61.1465H201.532V108C201.532 123.357 190.576 133.076 175.079 133.076C159.74 133.076 148.784 123.357 148.784 108Z" fill="#1E2533"/>
<path fill-rule="evenodd" clip-rule="evenodd" d="M250.445 117.981C250.445 127.318 242.198 133.076 231.42 133.076C221.27 133.076 214.138 128.252 211.123 121.404L218.734 117.047C220.321 121.871 225.077 124.83 231.42 124.83C236.811 124.83 241.566 122.961 241.566 117.981C241.566 107.246 213.027 113.314 213.027 95.2628C213.027 86.3925 220.797 80.3276 231.1 80.3276C239.503 80.3276 246.162 84.2174 249.493 90.7526L242.042 94.7958C240.138 90.2822 235.539 88.4174 231.1 88.4174C226.504 88.4174 222.065 90.5958 222.065 95.1094C221.745 105.845 250.445 99.4662 250.445 117.981Z" fill="#1E2533"/>
<path fill-rule="evenodd" clip-rule="evenodd" d="M265.094 102.967H298.726C297.163 92.9558 290.123 88.4182 282.456 88.4182C273.073 88.4182 266.503 94.2068 265.094 102.967ZM283.395 124.868C290.28 124.868 295.442 121.584 297.944 117.516L305.453 121.742C301.073 128.621 293.406 133.162 283.241 133.162C266.972 133.162 256.176 121.742 256.176 106.724C256.176 91.86 266.814 80.2861 282.614 80.2861C297.789 80.2861 307.643 92.8024 307.643 106.878C307.643 108.129 307.485 109.538 307.331 110.789H265.093C266.814 119.706 274.011 124.868 283.395 124.868Z" fill="#1E2533"/>
<path fill-rule="evenodd" clip-rule="evenodd" d="M342.515 80.3276V89.6151C334.843 89.3012 326.529 93.2362 326.529 105.2V132.117H317.579V81.4312H326.529V89.9323C329.727 82.69 335.963 80.3276 342.515 80.3276Z" fill="#1E2533"/>
<path fill-rule="evenodd" clip-rule="evenodd" d="M423.076 101.147C423.076 119.056 409.755 133.076 388.445 133.076C366.661 133.076 351.146 116.719 351.146 96.6298C351.146 76.5404 366.661 60.187 388.129 60.187C401.292 60.187 412.89 67.0415 418.689 77.1647L410.538 81.8357C406.466 74.3635 398.003 69.2218 387.975 69.2218C371.677 69.2218 360.396 81.2113 360.396 96.6298C360.396 111.895 371.519 123.884 388.445 123.884C403.019 123.884 411.795 115.788 413.518 105.354H387.659V96.9403H422.918V101.147H423.076Z" fill="#1E2533"/>
<path fill-rule="evenodd" clip-rule="evenodd" d="M477.743 81.4438V131.675H468.886V124.498C465.091 130.424 459.554 133.076 452.436 133.076C440.575 133.076 432.667 125.274 432.667 112.328V81.4438H441.524V111.706C441.524 119.973 446.268 124.498 454.176 124.498C462.402 124.498 468.886 119.819 468.886 107.964V81.2866H477.743V81.4438Z" fill="#1E2533"/>
<path fill-rule="evenodd" clip-rule="evenodd" d="M488.719 131.751H497.479V81.3779H488.719V131.751ZM487.311 66.3627C487.311 63.076 489.971 60.4165 493.254 60.4165C496.541 60.4165 499.043 63.076 499.043 66.3627C499.043 69.6461 496.383 72.148 493.254 72.148C489.813 72.3056 487.311 69.6461 487.311 66.3627Z" fill="#1E2533"/>
<path fill-rule="evenodd" clip-rule="evenodd" d="M554.418 106.566C554.418 96.2431 546.597 88.5798 536.429 88.5798C526.418 88.5798 518.593 96.4007 518.593 106.566C518.593 116.892 526.418 124.556 536.429 124.556C546.752 124.556 554.418 116.892 554.418 106.566ZM563.336 61.2026V131.752H554.573V123.147C550.508 129.251 544.092 133.161 535.49 133.161C521.411 133.161 509.991 121.587 509.991 106.723C509.991 91.8628 521.411 80.2856 535.49 80.2856C544.092 80.2856 550.508 84.0384 554.573 90.2965V61.5145H563.336V61.2026Z" fill="#1E2533"/>
<path fill-rule="evenodd" clip-rule="evenodd" d="M576.634 131.751H585.394V81.3779H576.634V131.751ZM575.068 66.3627C575.068 63.076 577.728 60.4165 581.015 60.4165C584.298 60.4165 586.803 63.076 586.803 66.3627C586.803 69.6461 584.144 72.148 581.015 72.148C577.728 72.3056 575.068 69.6461 575.068 66.3627Z" fill="#1E2533"/>
<path fill-rule="evenodd" clip-rule="evenodd" d="M643.661 100.982V131.963H634.804V101.606C634.804 93.3136 630.06 88.7747 622.149 88.7747C613.926 88.7747 607.439 93.4713 607.439 105.364V132.117H598.585V81.7366H607.439V88.9324C611.237 82.9879 616.771 80.3276 623.888 80.3276C635.909 80.3276 643.661 88.1507 643.661 100.982Z" fill="#1E2533"/>
<path fill-rule="evenodd" clip-rule="evenodd" d="M697.397 106.255C697.397 96.2439 689.576 88.4229 679.408 88.4229C669.239 88.4229 661.418 96.2439 661.418 106.255C661.418 116.423 669.239 124.244 679.408 124.244C689.576 124.244 697.397 116.423 697.397 106.255ZM706 81.3816V129.562C706 145.204 693.487 153.182 680.347 153.182C669.085 153.182 660.637 148.806 656.411 140.827L664.078 136.447C666.425 141.136 670.648 144.892 680.501 144.892C690.982 144.892 697.398 138.949 697.398 129.404V122.21C693.329 128.311 686.917 132.221 678.469 132.221C664.232 132.221 652.816 120.644 652.816 105.941C652.816 91.3926 664.232 79.8154 678.469 79.8154C686.917 79.8154 693.329 83.5716 697.398 89.8298V81.224H706V81.3816Z" fill="#1E2533"/>
<path fill-rule="evenodd" clip-rule="evenodd" d="M83.0878 75.5321C89.1786 75.5321 94.1171 70.5962 94.1171 64.5046C94.1171 58.4129 89.1786 53.4736 83.0878 53.4736C76.9971 53.4736 72.0586 58.4129 72.0586 64.5046C72.0586 70.5962 76.9971 75.5321 83.0878 75.5321Z" fill="#5478F0"/>
<path fill-rule="evenodd" clip-rule="evenodd" d="M114.152 111.977L51.1011 132.339L50 153.216L115.216 132.155L114.152 111.977Z" fill="#5478F0"/>
<path fill-rule="evenodd" clip-rule="evenodd" d="M112.236 76.4912L53.0173 95.7661L51.918 116.772L113.298 96.7966L112.236 76.4912Z" fill="#5478F0"/>
<path fill-rule="evenodd" clip-rule="evenodd" d="M110.421 46.7603H55.7544V34.7049L83.0877 22.7837L110.421 34.7049V46.7603Z" fill="#5478F0"/>
</svg>
