<?xml version="1.0" encoding="utf-8"?>
<!-- Generator: Adobe Illustrator 24.1.0, SVG Export Plug-In . SVG Version: 6.00 Build 0)  -->
<svg version="1.1" id="Layer_1" xmlns="http://www.w3.org/2000/svg" xmlns:xlink="http://www.w3.org/1999/xlink" x="0px" y="0px"
	 viewBox="0 0 673.1 286.2" style="enable-background:new 0 0 673.1 286.2;" xml:space="preserve">
<style type="text/css">
	.st0{fill-rule:evenodd;clip-rule:evenodd;fill:#446CB3;}
	.st1{fill:#446CB3;}
	.st2{fill:#D24D57;}
</style>
<title>xendit_blue_logo</title>
<desc>Created with Sketch.</desc>
<g>
	<g id="xendit_logotype" transform="translate(197.378462, 28.200000)">
		<polygon id="Fill-1" class="st0" points="107.6,86.3 90.8,110.7 73.9,86.3 60.5,86.3 83.9,119.1 59.3,153.5 72.7,153.5 
			90.8,127.6 108.7,153.5 122.1,153.5 97.5,119.1 120.9,86.3 		"/>
		<path id="Fill-2" class="st0" d="M158.4,95.1c4.9,0,8.7,1.6,11.3,4.7c2.5,3,3.9,7.4,4,13h-32.5c0.6-5.4,2.4-9.7,5.2-12.8
			C149.4,96.7,153.4,95.1,158.4,95.1 M158.5,85.1c-9,0-16.3,3.2-21.6,9.6c-5.3,6.3-8,15-8,25.7c0,10.7,2.9,19.1,8.6,25.1
			c5.7,6,13.7,9.1,23.6,9.1c4.5,0,8.3-0.3,11.5-1c3.2-0.7,6.6-1.8,10.1-3.3l0.5-0.2v-10.7l-1.2,0.5c-6.8,2.9-13.7,4.4-20.6,4.4
			c-6.4,0-11.5-1.9-15-5.7c-3.4-3.7-5.3-9.1-5.6-16.1H186v-7.1c0-9-2.5-16.4-7.4-21.9C173.7,87.9,166.9,85.1,158.5,85.1"/>
		<path id="Fill-5" class="st0" d="M233.1,85.1c-4.6,0-8.9,0.9-12.6,2.7c-3.3,1.6-6.1,3.8-8.1,6.6l-1.5-8.2h-9.6v67.2h11.6v-35.2
			c0-8.3,1.5-14.3,4.6-17.8c3-3.5,7.9-5.3,14.4-5.3c4.9,0,8.5,1.2,10.8,3.7c2.3,2.5,3.4,6.3,3.4,11.4v43.2h11.6v-43.6
			c0-8.6-2.1-14.9-6.2-18.9C247.4,87.1,241.2,85.1,233.1,85.1"/>
		<path id="Fill-7" class="st0" d="M302.1,144.6c-5.7,0-9.9-2-12.8-6c-2.9-4.1-4.4-10.3-4.4-18.4c0-8,1.5-14.3,4.5-18.7
			c2.9-4.3,7.1-6.4,12.7-6.4c6.5,0,11.2,1.9,14.1,5.6c3,3.8,4.5,10.3,4.5,19.3v2.1c0,8-1.5,13.8-4.4,17.3
			C313.3,142.9,308.6,144.6,302.1,144.6L302.1,144.6z M320.5,86.3l0.2,4.6l0.3,3c-4.8-5.9-11.6-8.9-20.2-8.9
			c-8.8,0-15.7,3.1-20.6,9.3c-4.9,6.1-7.4,14.7-7.4,25.7c0,10.9,2.5,19.5,7.3,25.5c4.9,6,11.9,9.1,20.7,9.1c8.9,0,15.8-3.1,20.5-9.3
			l1.2,8.1h9.7V58.8h-11.6L320.5,86.3z"/>
		<path id="Fill-10" class="st0" d="M357.4,61.9c-1.9,0-3.5,0.6-4.8,1.8c-1.3,1.2-1.9,3.1-1.9,5.6c0,2.5,0.6,4.3,1.9,5.6
			c1.3,1.3,2.9,1.9,4.8,1.9c1.8,0,3.4-0.6,4.7-1.9c1.3-1.3,2-3.1,2-5.6c0-2.5-0.7-4.3-2-5.6C360.8,62.5,359.2,61.9,357.4,61.9"/>
		<polygon id="Fill-12" class="st0" points="351.5,153.5 363.2,153.5 363.2,86.3 351.5,86.3 		"/>
		<path id="Fill-14" class="st0" d="M413.3,143.6c-0.9,0.3-2.2,0.5-3.8,0.8c-1.6,0.2-3.2,0.4-5,0.4c-3,0-5.4-0.9-7.1-2.9
			c-1.7-1.9-2.6-4.8-2.6-8.5V95.7h19v-9.4h-19V71.1h-7.2l-4.3,14.2l-9.5,4.2v6.2h9.4v38.1c0,13.8,6.7,20.9,19.9,20.9
			c1.7,0,3.6-0.2,5.8-0.5c2.2-0.4,3.8-0.8,5-1.4l0.5-0.2v-9.3L413.3,143.6z"/>
	</g>
	<g>
		<polygon class="st1" points="151.9,63.4 107.3,63.4 61.3,143.1 107.3,222.8 116.4,207.1 79.5,143.1 116.4,79.2 142.8,79.2 		"/>
		<polygon class="st2" points="120.5,117.5 129.5,101.9 116.4,79.2 107.3,94.8 		"/>
		<polygon class="st2" points="172.1,79.2 181.2,94.9 116.4,207.1 107.3,191.4 		"/>
		<polygon class="st1" points="136.7,222.8 145.7,207.1 172.1,207.1 209,143.1 172.1,79.2 181.2,63.4 227.2,143.1 181.2,222.8 		"/>
		<polygon class="st2" points="167.8,168.4 158.7,184.1 172.1,207.1 181.2,191.5 		"/>
	</g>
</g>
</svg>
