<!--
Licensed to the Apache Software Foundation (ASF) under one
or more contributor license agreements.  See the NOTICE file
distributed with this work for additional information
regarding copyright ownership.  The ASF licenses this file
to you under the Apache License, Version 2.0 (the
"License"); you may not use this file except in compliance
with the License.  You may obtain a copy of the License at

  http://www.apache.org/licenses/LICENSE-2.0

Unless required by applicable law or agreed to in writing,
software distributed under the License is distributed on an
"AS IS" BASIS, WITHOUT WARRANTIES OR CONDITIONS OF ANY
KIND, either express or implied.  See the License for the
specific language governing permissions and limitations
under the License.
-->
<svg width="119" height="78" viewBox="0 0 119 78" fill="none" xmlns="http://www.w3.org/2000/svg">
<rect x="16" y="1" width="86" height="62" rx="3" stroke="#D1D1D1" stroke-width="2"/>
<mask id="path-2-inside-1" fill="white">
<path fill-rule="evenodd" clip-rule="evenodd" d="M58 10.6416C58 9.53706 57.1014 8.63294 56.0006 8.72373C43.6813 9.73974 34 20.0601 34 32.6416C34 45.8965 44.7452 56.6416 58 56.6416C70.5815 56.6416 80.9019 46.9604 81.9179 34.641C82.0087 33.5402 81.1046 32.6416 80 32.6416L60 32.6416C58.8954 32.6416 58 31.7462 58 30.6416V10.6416Z"/>
</mask>
<path d="M60 32.6416V30.6416V32.6416ZM81.9179 34.641L83.9111 34.8054L81.9179 34.641ZM36 32.6416C36 21.1096 44.8743 11.6481 56.165 10.717L55.8362 6.7305C42.4882 7.83135 32 19.0106 32 32.6416H36ZM58 54.6416C45.8497 54.6416 36 44.7919 36 32.6416H32C32 47.001 43.6406 58.6416 58 58.6416V54.6416ZM79.9247 34.4766C78.9935 45.7673 69.5321 54.6416 58 54.6416V58.6416C71.631 58.6416 82.8103 48.1535 83.9111 34.8054L79.9247 34.4766ZM80 30.6416L60 30.6416V34.6416L80 34.6416V30.6416ZM60 30.6416V10.6416H56V30.6416H60ZM60 30.6416H56C56 32.8508 57.7909 34.6416 60 34.6416V30.6416ZM83.9111 34.8054C84.1069 32.4312 82.1629 30.6416 80 30.6416V34.6416C80.0053 34.6416 79.9929 34.6429 79.9743 34.6238C79.9641 34.6133 79.9495 34.594 79.9382 34.5638C79.926 34.5312 79.9228 34.499 79.9247 34.4766L83.9111 34.8054ZM56.165 10.717C56.1426 10.7188 56.1104 10.7156 56.0778 10.7034C56.0477 10.6922 56.0283 10.6775 56.0178 10.6673C55.9987 10.6487 56 10.6363 56 10.6416H60C60 8.47875 58.2104 6.53469 55.8362 6.7305L56.165 10.717Z" fill="#D1D1D1" mask="url(#path-2-inside-1)"/>
<mask id="path-4-inside-2" fill="white">
<path fill-rule="evenodd" clip-rule="evenodd" d="M83.6717 28.1985C83.8558 29.3482 82.9306 30.3418 81.7663 30.3418H62C60.8954 30.3418 60 29.4464 60 28.3418V8.57554C60 7.41119 60.9937 6.48606 62.1434 6.67017C73.1842 8.43829 81.9035 17.1576 83.6717 28.1985Z"/>
</mask>
<path d="M83.6717 28.1985L81.6968 28.5147L83.6717 28.1985ZM81.7663 28.3418H62V32.3418H81.7663V28.3418ZM62 28.3418V8.57554H58V28.3418H62ZM61.8271 8.64501C72.0149 10.2765 80.0653 18.327 81.6968 28.5147L85.6465 27.8822C83.7418 15.9883 74.3535 6.60007 62.4596 4.69534L61.8271 8.64501ZM62 8.57554C62 8.56963 62.0009 8.58353 61.9803 8.60208C61.9692 8.61217 61.9483 8.62667 61.9159 8.63672C61.8805 8.64767 61.8474 8.64825 61.8271 8.64501L62.4596 4.69534C59.9821 4.29857 58 6.29722 58 8.57554H62ZM62 28.3418H62H58C58 30.551 59.7909 32.3418 62 32.3418V28.3418ZM81.7663 32.3418C84.0446 32.3418 86.0433 30.3597 85.6465 27.8822L81.6968 28.5147C81.6936 28.4945 81.6942 28.4613 81.7051 28.426C81.7152 28.3936 81.7297 28.3727 81.7398 28.3615C81.7583 28.3409 81.7722 28.3418 81.7663 28.3418V32.3418Z" fill="#D1D1D1" mask="url(#path-4-inside-2)"/>
<path fill-rule="evenodd" clip-rule="evenodd" d="M15 55.5384C5.66793 57.9222 0 61.061 0 64.5001C0 71.956 26.6391 78.0001 59.5 78.0001C92.3609 78.0001 119 71.956 119 64.5001C119 60.9398 112.926 57.7014 103 55.2893V60C103 62.2092 101.209 64 99 64H19C16.7909 64 15 62.2092 15 60V55.5384Z" fill="#F2F2F2"/>
</svg>
