<?xml version="1.0" encoding="utf-8"?>
<!-- Generator: Adobe Illustrator 16.0.4, SVG Export Plug-In . SVG Version: 6.00 Build 0)  -->
<!DOCTYPE svg PUBLIC "-//W3C//DTD SVG 1.1//EN" "http://www.w3.org/Graphics/SVG/1.1/DTD/svg11.dtd">
<svg version="1.1" id="Layer_1" xmlns="http://www.w3.org/2000/svg" xmlns:xlink="http://www.w3.org/1999/xlink" x="0px" y="0px"
	 width="28px" height="28px" viewBox="0 0 28 28" enable-background="new 0 0 28 28" xml:space="preserve">
<g>
	<circle fill="#25373E" cx="14" cy="14" r="14"/>
	<g>
		<circle fill="#FFFFFF" cx="14" cy="14" r="8"/>
		<g>
			<path fill="#24373E" d="M16.271,13.147l-1.154,1.62c-0.165,0.225-0.27,0.57-0.27,0.811v0.449h-1.53v-0.524
				c0-0.615,0.149-1.006,0.509-1.486l1.17-1.575c0.27-0.359,0.465-0.72,0.465-1.139c0-0.841-0.6-1.5-1.47-1.5
				c-0.931,0-1.455,0.704-1.455,1.514h-1.53c0-1.695,1.29-2.879,2.985-2.879c1.634,0,3,1.094,3,2.865
				C16.992,12.022,16.677,12.593,16.271,13.147z M13.228,19.207v-1.635h1.694v1.635H13.228z"/>
		</g>
	</g>
</g>
</svg>
