<?xml version="1.0" encoding="UTF-8"?>
<svg width="358px" height="100px" viewBox="0 0 358 100" version="1.1" xmlns="http://www.w3.org/2000/svg" xmlns:xlink="http://www.w3.org/1999/xlink">
    <!-- Generator: Sketch 51.1 (57501) - http://www.bohemiancoding.com/sketch -->
    <title>guavusLogoWhite</title>
    <desc>Created with Sketch.</desc>
    <defs></defs>
    <g id="Page-1" stroke="none" stroke-width="1" fill="none" fill-rule="evenodd">
        <g id="GSI_loginLegalMessage" transform="translate(-536.000000, -113.000000)" fill-rule="nonzero">
            <g id="guavusLogoWhite" transform="translate(485.000000, 76.000000)">
                <path d="M213.999996,90.4930431 C214.002778,92.7183881 212.66428,94.7261152 210.609037,95.5794295 C208.553795,96.4327439 206.186872,95.9634674 204.612662,94.390562 C203.038453,92.8176565 202.567215,90.4511232 203.418825,88.3951739 C204.270435,86.3392246 206.277052,84.9990626 208.502398,85.0000005 C211.534933,85.0046488 213.992834,87.4605134 213.999996,90.4930431 Z" id="Orange-Dot" fill="#FF8300"></path>
                <g id="ThalesCompany" transform="translate(192.000000, 114.000000)" fill="#FFFFFF">
                    <path d="M8.88870124,7.35382136 L11.1579253,7.35382136 L9.95398435,17.0929414 L7.68428933,17.0929414 L7.79999451,16.0746686 C7.43448013,16.4793814 6.99398445,16.8095856 6.50281959,17.0470564 C5.93606014,17.2751013 5.3308739,17.392793 4.71986083,17.3937918 C3.68810983,17.4252602 2.68685454,17.041932 1.94046642,16.3297073 C1.04998404,15.3780336 0.567890534,14.1159467 0.597396684,12.813645 C0.575347653,11.199611 1.18149131,9.64006598 2.28807389,8.46370727 C3.23524282,7.53341413 4.52750132,7.0391771 5.85447285,7.09970273 C6.4747607,7.08348239 7.08883642,7.22654792 7.63793399,7.51520818 C8.07664125,7.75219494 8.45652476,8.08448564 8.74959337,8.48759591 L8.88870124,7.35382136 Z M4.02512736,9.89845773 C3.32151011,10.6329596 2.9311398,11.6118134 2.93642062,12.6283905 C2.92283126,13.3793204 3.19622395,14.1072034 3.70095399,14.6638905 C4.12330333,15.1211514 4.72257063,15.3742409 5.34521306,15.3583127 C6.14202798,15.3724656 6.91062311,15.0637238 7.47577927,14.5024723 C8.12623442,13.7692255 8.48113008,12.8209539 8.47173347,11.8413095 C8.49363911,11.0821128 8.21952253,10.3440887 7.70718964,9.78287227 C7.24043739,9.34001969 6.61323099,9.10618134 5.97013617,9.135255 C5.24661573,9.12462263 4.54795697,9.39876584 4.02512736,9.89844727 L4.02512736,9.89845773 Z" id="Shape"></path>
                    <polygon id="Shape" points="29.1782825 3.88361273 27.5569342 17.0929309 25.1945285 17.0929309 26.8158768 3.88361273 23.2724305 3.88361273 23.5502276 1.66279545 32.9995782 1.66279545 32.7217811 3.88361273"></polygon>
                    <path d="M36.4740829,0.229059091 L38.7437779,0.229059091 L37.7483052,8.18674545 C38.0251003,7.88940977 38.3548965,7.64614855 38.7208358,7.46939636 C39.239206,7.21533817 39.8108215,7.08860595 40.3881207,7.09974455 C41.2413987,7.0501796 42.0779558,7.35068397 42.7042025,7.93171727 C43.2956582,8.57298835 43.6115574,9.42049337 43.5839701,10.2919877 C43.5531375,10.9662842 43.4835333,11.6382534 43.3755019,12.3045714 L42.7740128,17.0929414 L40.5038678,17.0929414 L41.1292619,12.0734214 C41.1971415,11.644468 41.2357987,11.2114075 41.244967,10.777225 C41.2770874,10.3179911 41.1179156,9.86589358 40.8050885,9.52783364 C40.4803101,9.25959413 40.0681928,9.11988477 39.6470528,9.135255 C39.1092079,9.11112657 38.5840093,9.30267487 38.1882675,9.66729727 C37.5809055,10.4488035 37.2472876,11.4079185 37.2386895,12.39723 L36.6596717,17.0929414 L34.3899767,17.0929414 L36.4740829,0.229059091 Z" id="Shape"></path>
                    <path d="M56.3462882,7.35382136 L58.6155018,7.35382136 L57.4115713,17.0929414 L55.1414262,17.0929414 L55.2571314,16.0746686 C54.8917955,16.4793717 54.4514589,16.8095793 53.9604379,17.0470564 C53.3935173,17.2751492 52.7881574,17.3928416 52.1769768,17.3937918 C51.1454009,17.4250713 50.1443656,17.0417609 49.3980638,16.3297073 C48.5074264,15.3780969 48.02516,14.1160097 48.0545126,12.813645 C48.0326888,11.1996515 48.6388008,9.6401878 49.7451898,8.46370727 C50.6925892,7.5334734 51.9849617,7.03925801 53.3120598,7.09970273 C53.932353,7.08342991 54.5464418,7.22649849 55.0955209,7.51520818 C55.5341694,7.75208769 55.9139177,8.08440404 56.2066989,8.48759591 L56.3462882,7.35382136 Z M51.4827143,9.89845773 C50.7792446,10.6330176 50.3890458,11.6118742 50.394489,12.6283905 C50.3809661,13.3792193 50.6541529,14.1070225 51.1585305,14.6638905 C51.5808678,15.1209068 52.1798886,15.3739598 52.8023499,15.3583127 C53.5991835,15.3725664 54.3678164,15.0638094 54.9329162,14.5024723 C55.583884,13.769503 55.9389918,12.8210832 55.9293099,11.8413095 C55.9511594,11.0822135 55.6772522,10.3442681 55.1652685,9.78287227 C54.6982152,9.34018976 54.070939,9.1063902 53.4277336,9.135255 C52.7042091,9.12461761 52.0055453,9.39876135 51.4827143,9.89844727 L51.4827143,9.89845773 Z" id="Shape"></path>
                    <polygon id="Shape" points="66.9551503 0.229059091 64.8704893 17.0929414 62.6012653 17.0929414 64.6849738 0.229059091"></polygon>
                    <path d="M79.1369853,14.8721241 C78.6895187,15.6165207 78.0701211,16.2430792 77.3305924,16.6994009 C76.4995246,17.1742393 75.554786,17.4142889 74.5975848,17.3938336 C73.4280062,17.4498988 72.2902824,17.0035263 71.4715458,16.1673691 C70.5846308,15.2334792 70.1090328,13.9837243 70.1509473,12.6971605 C70.1244533,11.1374079 70.7348729,9.63410987 71.8416245,8.53348091 C72.7845756,7.58888565 74.0734098,7.07083441 75.4085467,7.09974455 C76.505304,7.04486836 77.5740331,7.45646947 78.3500226,8.23259909 C79.1703414,9.17151557 79.6009594,10.3877767 79.5539635,11.6330759 C79.5547714,12.013992 79.5159952,12.3939632 79.4382583,12.7668818 L72.4670709,12.7668818 C72.4607567,13.4875911 72.7158609,14.1862178 73.185228,14.7336223 C73.6071947,15.1555631 74.1865572,15.3820583 74.7831526,15.3583127 C75.3309259,15.3550424 75.8674648,15.2028169 76.335172,14.9179777 C76.7548765,14.6303392 77.1032198,14.2506947 77.3535974,13.8080395 L79.1369853,14.8721241 Z M77.3535241,10.9166782 C77.2865412,10.4250755 77.0865047,9.96105642 76.7749773,9.57463864 C76.3953214,9.21421365 75.8859584,9.0223396 75.3625787,9.04259636 C74.764044,9.04023311 74.1830486,9.24436642 73.7177963,9.62049227 C73.3178919,9.97462124 73.0084093,10.419002 72.8150865,10.9166782 L77.3535241,10.9166782 Z" id="Shape"></path>
                    <path d="M88.7034646,9.92136364 C88.6072442,9.68196968 88.4467606,9.47373706 88.2396809,9.31958955 C88.0452364,9.158725 87.7976118,9.0762788 87.5454289,9.08843955 C87.2564667,9.07441876 86.9735353,9.17422395 86.7574719,9.36639455 C86.6258613,9.50356062 86.5513435,9.68555336 86.5490037,9.87553091 C86.5432126,10.0953182 86.6475967,10.3034986 86.8272718,10.4305 C87.1258874,10.631618 87.444018,10.8021904 87.7768497,10.9396364 L88.4251965,11.263445 C88.8778644,11.4711941 89.2928036,11.7526731 89.6530425,12.0963691 C90.1541379,12.6445662 90.4201973,13.3670904 90.3941522,14.1089632 C90.4205948,14.9977601 90.0669203,15.8557598 89.4216217,16.4682823 C88.6654214,17.1194454 87.685356,17.4513624 86.688614,17.393865 C85.9150262,17.4201392 85.1529191,17.2014903 84.5112005,16.7691641 C83.9368667,16.3123731 83.5166487,15.6905824 83.3072596,14.9877095 L85.2752524,14.1089423 C85.3619838,14.4680646 85.5463041,14.7962922 85.807894,15.0574414 C86.0701502,15.2871013 86.4087634,15.4107449 86.7574719,15.4041768 C87.0856497,15.419473 87.4077799,15.312217 87.6611341,15.103295 C87.9143731,14.8935108 88.0519193,14.5754188 88.0312127,14.2474441 C88.0398842,13.9442911 87.9225367,13.6510765 87.7070394,13.4374364 C87.4299422,13.2045292 87.1174735,13.0171962 86.781377,12.8824777 L86.1559724,12.5586691 C85.7545708,12.361339 85.3806972,12.1124746 85.0438421,11.8183932 C84.5895623,11.3766173 84.3453826,10.7623393 84.3725427,10.1296182 C84.3659553,9.32391132 84.6828152,8.54915658 85.2522998,7.97852227 C85.8994146,7.366077 86.7711832,7.04804694 87.6611341,7.099755 C88.2588123,7.07713624 88.8490128,7.23852375 89.3518218,7.56206545 C89.8156562,7.88518812 90.1964111,8.31330311 90.4629997,8.81145682 L88.7034646,9.92136364 Z" id="Shape"></path>
                    <path d="M110.590489,10.3846464 C110.252994,10.0326192 109.862216,9.73575196 109.432453,9.50490682 C108.994367,9.25900304 108.499607,9.13158545 107.997102,9.135255 C107.072855,9.10799174 106.177539,9.45888218 105.518457,10.1066809 C104.909003,10.7583467 104.577063,11.6211652 104.592785,12.512805 C104.538349,13.2826996 104.82082,14.0383419 105.367098,14.5841858 C105.913376,15.1300297 106.669776,15.4124322 107.440555,15.3583127 C107.984368,15.3560204 108.521388,15.2374685 109.015517,15.0106259 C109.432611,14.8008398 109.809154,14.5188321 110.127658,14.1777018 L109.826437,16.7223382 C108.953766,17.2384573 107.942888,17.472965 106.931819,17.3938441 C105.701383,17.4580048 104.500204,17.0049514 103.619312,16.1444527 C102.689919,15.2065947 102.194601,13.9238162 102.252808,12.6054741 C102.227494,11.106866 102.812873,9.66230551 103.874638,8.60322318 C104.939481,7.57740868 106.379578,7.03379213 107.857481,7.099755 C108.929693,7.06553585 109.987263,7.35551596 110.89172,7.93172773 L110.590489,10.3846464 Z" id="Shape"></path>
                    <path d="M123.538333,8.395 C124.406098,9.30355524 124.880562,10.5170308 124.858942,11.77255 C124.895661,13.3207381 124.282669,14.8137474 123.168265,15.8903759 C122.102803,16.9305365 120.649059,17.4760333 119.161506,17.3938545 C117.866147,17.4822362 116.596884,17.000297 115.687389,16.0747314 C114.799866,15.1678943 114.315554,13.9421192 114.343837,12.6742545 C114.309975,11.1611785 114.90654,9.7019751 115.991073,8.64510362 C117.075605,7.58823213 118.550745,7.02857013 120.064226,7.09976545 C121.351224,7.03644974 122.607608,7.50486123 123.538333,8.395 Z M121.616246,14.4327614 C122.231273,13.7383004 122.562077,12.8380448 122.54286,11.9110518 C122.563196,11.159068 122.28909,10.4288158 121.778819,9.87555182 C121.294623,9.37669804 120.620623,9.10747273 119.925579,9.13528636 C119.114711,9.10896061 118.325463,9.39915537 117.725202,9.94433227 C117.033616,10.6092509 116.648065,11.5302235 116.65993,12.4889686 C116.653593,13.2238283 116.908017,13.9371825 117.378076,14.5025141 C117.916943,15.0746559 118.676823,15.3866181 119.462737,15.3583545 C120.281131,15.3770959 121.067193,15.0392333 121.616246,14.4327405 L121.616246,14.4327614 Z" id="Shape"></path>
                    <path d="M130.140405,7.35382136 L132.409618,7.35382136 L132.293913,8.25552591 C132.568257,7.94643365 132.888516,7.68127972 133.243481,7.46934409 C133.735547,7.21121641 134.285834,7.08391705 134.841405,7.09969227 C135.331991,7.07349483 135.818312,7.202876 136.230862,7.46934409 C136.642776,7.72599858 136.972333,8.09530043 137.180429,8.53342864 C137.477898,8.12193512 137.856339,7.77543572 138.29257,7.51515591 C138.788131,7.2192787 139.359585,7.07483313 139.93639,7.09965045 C140.774718,7.04890833 141.599099,7.33151323 142.229561,7.88576955 C142.840281,8.50532393 143.159908,9.35415487 143.109328,10.2221618 C143.089858,10.8810025 143.028211,11.5379242 142.924765,12.1889023 L142.322313,17.0928473 L140.0531,17.0928473 L140.654589,12.1889023 C140.725445,11.7367236 140.772051,11.2810847 140.794209,10.8239359 C140.831169,10.3577083 140.690449,9.89474248 140.400226,9.52773955 C140.130991,9.27376515 139.774145,9.13316823 139.403832,9.13516091 C139.00821,9.13128474 138.626445,9.28053173 138.338559,9.55161773 C137.735011,10.2544962 137.398789,11.147372 137.388981,12.0733273 L136.76454,17.0928473 L134.494395,17.0928473 L135.119799,11.9806686 C135.1848,11.5747666 135.223449,11.1650899 135.235504,10.7542041 C135.269407,10.3026864 135.128364,9.85541373 134.841521,9.50481273 C134.580329,9.25593441 134.229757,9.12268325 133.869,9.13516091 C133.417865,9.12412933 132.982201,9.29971939 132.665059,9.62039818 C132.128624,10.3263292 131.836015,11.1870813 131.831197,12.0733273 L131.205793,17.0928473 L128.936579,17.0928473 L130.140405,7.35382136 Z" id="Shape"></path>
                    <path d="M149.132801,22.3904268 L146.862656,22.3904268 L148.715906,7.35382136 L150.985057,7.35382136 L150.846399,8.41790591 C151.141817,8.01073621 151.541951,7.69092446 152.004445,7.49232318 C152.545081,7.22897075 153.139543,7.09458358 153.741017,7.09974455 C154.899742,7.09226211 156.014833,7.54074505 156.845067,8.34817409 C157.666603,9.25136622 158.106278,10.4371244 158.07195,11.6569541 C158.069712,13.2576917 157.485565,14.8031465 156.42813,16.0059405 C155.015657,17.4836423 152.791652,17.8427012 150.985057,16.8847077 C150.584847,16.6321765 150.225611,16.3200514 149.919784,15.9591355 L149.132801,22.3904268 Z M151.263367,9.85260409 C150.554614,10.6191127 150.172526,11.6311731 150.198084,12.6742859 C150.158922,13.3737415 150.391127,14.0613673 150.846431,14.5942214 C151.332727,15.0926161 152.003026,15.3689977 152.699681,15.358365 C153.422838,15.3785591 154.120895,15.0927138 154.621769,14.5712945 C155.324548,13.8344837 155.721615,12.8589812 155.732957,11.8413618 C155.75026,11.1233004 155.503237,10.4238484 155.038705,9.87557273 C154.569743,9.36839191 153.898523,9.09691628 153.208407,9.13530727 C152.487861,9.09011927 151.781648,9.35055832 151.263367,9.85260409 Z" id="Shape"></path>
                    <path d="M170.534052,7.35382136 L172.803276,7.35382136 L171.599335,17.0929414 L169.32919,17.0929414 L169.444895,16.0746686 C169.079559,16.4793717 168.639223,16.8095793 168.148202,17.0470564 C167.581281,17.2751502 166.975921,17.3928426 166.36474,17.3937918 C165.333168,17.425072 164.332135,17.0417613 163.585838,16.3297073 C162.695193,15.3781009 162.212922,14.1160119 162.242276,12.813645 C162.220456,11.1996503 162.826572,9.64018676 163.932964,8.46370727 C164.880363,7.5334734 166.172736,7.03925801 167.499834,7.09970273 C168.120127,7.08342991 168.734216,7.22649849 169.283295,7.51520818 C169.721941,7.75209064 170.101689,8.08440646 170.394473,8.48759591 L170.534052,7.35382136 Z M165.670488,9.89845773 C164.967012,10.6330141 164.576809,11.6118721 164.582253,12.6283905 C164.568725,13.3792201 164.841913,14.1070247 165.346294,14.6638905 C165.768629,15.1209103 166.367651,15.3739639 166.990114,15.3583127 C167.786945,15.3725695 168.555576,15.0638119 169.120669,14.5024723 C169.771641,13.7695051 170.126749,12.821084 170.117063,11.8413095 C170.138913,11.0822135 169.865005,10.3442681 169.353022,9.78287227 C168.885968,9.34018976 168.258692,9.1063902 167.615487,9.135255 C166.891965,9.1246136 166.193303,9.39875811 165.670478,9.89844727 L165.670488,9.89845773 Z" id="Shape"></path>
                    <path d="M177.969012,7.35382136 L180.238236,7.35382136 L180.122531,8.23259909 C180.38445,7.90770884 180.717043,7.64670779 181.095051,7.46941727 C181.613629,7.21550441 182.185351,7.088782 182.762776,7.09976545 C183.616054,7.05020051 184.452611,7.35070488 185.078858,7.93173818 C185.669846,8.55446734 185.98667,9.38759755 185.958625,10.2452036 C185.928813,10.9350977 185.859208,11.6227013 185.750157,12.3045923 L185.148658,17.0929623 L182.878513,17.0929623 L183.503907,12.0734423 C183.571786,11.6444889 183.610443,11.2114284 183.619612,10.7772459 C183.651269,10.3180746 183.49216,9.86615533 183.179733,9.52785455 C182.854955,9.25961503 182.442838,9.11990567 182.021698,9.13527591 C181.483713,9.11117687 180.958376,9.30271244 180.562431,9.66731818 C179.955473,10.4490435 179.621904,11.4080179 179.612853,12.3972509 L179.034306,17.0929623 L176.764161,17.0929623 L177.969012,7.35382136 Z" id="Shape"></path>
                    <polygon id="Shape" points="193.602054 15.2885914 190.244605 7.35382136 192.930755 7.35382136 195.131131 12.8366136 198.535438 7.35382136 201.128825 7.35382136 191.518356 22.3904268 188.970853 22.3904268"></polygon>
                </g>
                <g id="Guavus" transform="translate(51.000000, 37.000000)" fill="#FFFFFF">
                    <path d="M68.1393795,1.96049465 C69.0791965,1.79486872 70.027045,1.68000175 70.9789081,1.61638057 C72.0390102,1.54028133 72.9474727,1.50171809 73.7042955,1.50069086 C74.5359901,1.50069086 75.4818815,1.5392541 76.5419697,1.61638057 C77.4941611,1.68030061 78.4423513,1.79516557 79.3825714,1.96049465 L79.3825714,34.2868705 C79.3110591,37.3689092 79.6552261,40.4464113 80.4055397,43.4341353 C80.9306708,45.5653714 81.9855178,47.5249952 83.4696732,49.1264761 C84.8520675,50.5199312 86.577888,51.5125706 88.4674982,52.001073 C90.6938262,52.5720321 92.9846577,52.8436498 95.2809667,52.8089274 C98.6173024,52.8790355 101.945708,52.4522571 105.159579,51.5422612 L105.159579,1.96049465 C106.080891,1.7971663 107.009939,1.68230762 107.942985,1.61638057 C108.965068,1.54028133 109.892249,1.50171809 110.724527,1.50069086 C111.556218,1.50069086 112.485923,1.54027781 113.507047,1.61638057 C114.4398,1.68230492 115.368553,1.79716371 116.289568,1.96049465 L116.289568,59.1364851 C113.637427,59.9038801 110.477148,60.6320154 106.80873,61.3208908 C103.043594,62.0197684 99.222979,62.3663345 95.3951704,62.3562092 C91.870775,62.3734788 88.3529328,62.0467786 84.8903856,61.3806353 C81.7212002,60.7853278 78.7409213,59.4231462 76.2032237,57.4100363 C73.5390728,55.1861753 71.5018325,52.2891125 70.2975092,49.0117996 C68.8587561,45.4084062 68.1393587,40.6530443 68.139317,34.7457139 L68.1393795,1.96049465 Z" id="Shape"></path>
                    <path d="M182.84857,1.96049465 C183.906811,1.80818359 185.004977,1.6934789 186.14307,1.61638057 C187.277419,1.54028133 188.298796,1.50171809 189.207203,1.50069086 C190.189343,1.50069086 191.270288,1.54027781 192.442747,1.61638057 C193.452496,1.67438596 194.458277,1.78926825 195.455425,1.96049465 L216.084399,50.6225692 L236.829316,1.96049465 C237.768527,1.79498 238.715752,1.68011352 239.66699,1.61638057 C240.725231,1.54028133 241.747251,1.50171809 242.733051,1.50069086 C243.566691,1.50069086 244.512582,1.5392541 245.570726,1.61638057 C246.630828,1.6934789 247.69093,1.80818359 248.751032,1.96049465 L221.308662,60.975753 C220.322814,61.1299427 219.338202,61.244978 218.354826,61.3208592 C217.368988,61.3960754 216.463046,61.4365489 215.629511,61.4365489 C214.795976,61.4365489 213.907079,61.3960754 212.961184,61.3208592 C212.0153,61.2437679 211.087796,61.1287325 210.178674,60.975753 L182.84857,1.96049465 Z" id="Shape"></path>
                    <path d="M255.931802,1.96049465 C256.870389,1.79497127 257.816998,1.68010453 258.767622,1.61638057 C259.827724,1.54028133 260.736815,1.50171809 261.494895,1.50069086 C262.326576,1.50069086 263.273117,1.5392541 264.334518,1.61638057 C265.285734,1.68034803 266.232948,1.79521302 267.172192,1.96049465 L267.172192,34.2868705 C267.101398,37.3688188 267.44523,40.4461792 268.194212,43.4341353 C268.721576,45.5649047 269.776878,47.524141 271.260273,49.1264761 C272.64225,50.5195103 274.367358,51.512108 276.256244,52.001073 C278.483257,52.5717859 280.77468,52.8433984 283.071598,52.8089274 C286.408231,52.8789628 289.736929,52.4521866 292.951127,51.5422612 L292.951127,1.96049465 C293.87215,1.79721938 294.8009,1.68236094 295.733648,1.61638057 C296.753695,1.54028133 297.68182,1.50171809 298.518023,1.50069086 C299.347765,1.50069086 300.276606,1.54027781 301.298626,1.61638057 C302.230739,1.68235706 303.158851,1.79721573 304.07923,1.96049465 L304.07923,59.1364851 C301.43002,59.9038801 298.270064,60.6320154 294.599361,61.3208908 C290.833602,62.01999 287.012324,62.3665574 283.183864,62.3562092 C279.659801,62.373202 276.142306,62.046504 272.680048,61.3806353 C269.511107,60.7854957 266.531108,59.4232885 263.993865,57.4100363 C261.330003,55.1859048 259.292826,52.2889262 258.088161,49.0117996 C256.64938,45.4084062 255.930597,40.6530443 255.931813,34.7457139 L255.931802,1.96049465 Z" id="Shape"></path>
                    <path d="M319.196451,50.2784446 C323.68059,52.0758162 328.455881,53.0117304 333.278214,53.0383438 C334.960052,53.0465523 336.636971,52.853683 338.274184,52.4637368 C339.742252,52.1319174 341.143529,51.5483371 342.417481,50.7382062 C343.550311,50.0121905 344.518677,49.0515779 345.258958,47.9194807 C345.976528,46.8086799 346.351497,45.5066621 346.336111,44.1792479 C346.386141,42.8599433 346.09205,41.5505827 345.483469,40.3830805 C344.913347,39.3852963 344.13923,38.5225194 343.213022,37.8525977 C342.19257,37.1229355 341.086582,36.5245306 339.92047,36.0711325 C338.671918,35.5717417 337.324455,35.0917487 335.889397,34.6319027 L331.913676,33.13677 C327.06807,31.2955919 323.547778,29.2249727 321.3528,26.9249125 C319.069729,24.3893382 317.883968,21.0332619 318.060259,17.6059917 C317.869222,12.8181972 319.908719,8.21741448 323.568094,5.18118966 C327.239407,2.11578185 332.633111,0.582420099 339.749206,0.581104404 C342.666351,0.576600047 345.57671,0.865931804 348.437337,1.44483011 C350.961376,1.93462572 353.447611,2.60662979 355.87702,3.45570124 C355.718599,5.01091901 355.433411,6.55019048 355.024378,8.05776004 C354.6352,9.51833615 354.122603,10.9422554 353.492264,12.3137418 C351.536989,11.614053 349.546618,11.019404 347.529458,10.5322765 C345.093088,9.9412843 342.595047,9.65126573 340.089859,9.6685508 C337.53317,9.61869783 334.996035,10.1290696 332.652135,11.1647283 C330.565777,12.0447209 329.264045,14.1726979 329.414737,16.4569888 C329.379877,17.6211774 329.655365,18.7733684 330.212226,19.7923709 C330.753565,20.7275661 331.489384,21.5321747 332.368574,22.1503112 C333.336873,22.8357024 334.38606,23.3956093 335.491664,23.8169733 C336.662163,24.2797321 337.933521,24.7395359 339.296184,25.1984531 L344.292144,26.9249336 C346.066086,27.5217641 347.793328,28.252573 349.459326,29.1112073 C351.029719,29.9120087 352.451459,30.9820781 353.661611,32.2740469 C354.881306,33.6159903 355.843606,35.1763201 356.499285,36.8752192 C358.132369,41.531394 357.909137,46.6490975 355.877009,51.1412099 C354.739068,53.4818331 353.087412,55.5275849 351.048542,57.121783 C348.786327,58.864382 346.227104,60.1707745 343.49851,60.9758058 C340.329131,61.9276711 337.036824,62.3929807 333.731288,62.3562303 C330.535481,62.3922692 327.342789,62.1419489 324.190516,61.6081943 C321.605818,61.1469808 319.062372,60.473851 316.585268,59.5954446 C316.745007,58.0128282 317.06841,56.451587 317.550155,54.9374195 C318.039301,53.3660926 318.588066,51.813101 319.196451,50.2784446 Z" id="Shape"></path>
                    <path d="M190.765925,60.0580557 C189.70592,60.2084038 188.608403,60.322813 187.473374,60.4012833 C186.335326,60.4764045 185.31713,60.516878 184.405437,60.516878 C183.423402,60.516878 182.344301,60.4764045 181.169998,60.4012833 C180.161575,60.3425246 179.157079,60.2279444 178.161008,60.0580557 L157.529325,11.3941236 L136.785283,60.0580557 C135.845914,60.2222828 134.89874,60.3368471 133.947609,60.4012833 C132.888385,60.4764045 131.865417,60.516878 130.883382,60.516878 C130.047846,60.516878 129.101993,60.4764045 128.042884,60.4012833 C126.982775,60.3240935 125.922999,60.2096843 124.863557,60.0580557 L152.307875,1.04187913 C153.290792,0.887591009 154.274717,0.772228469 155.259649,0.695791507 C156.244622,0.620578776 157.153084,0.582346223 157.985036,0.58109385 C158.817696,0.58109385 159.707135,0.619326403 160.653353,0.695791507 C161.602071,0.772886316 162.526129,0.887594527 163.434894,1.04187913 L190.765925,60.0580557 Z" id="Shape"></path>
                    <path d="M43.4091246,1.271285 C39.796367,0.772584241 36.152473,0.541899606 32.5065332,0.581072743 C28.0269697,0.514404212 23.576002,1.31436296 19.3924816,2.93802094 C15.6429725,4.40937234 12.2524352,6.68574913 9.45393348,9.61067429 C6.67890796,12.5691239 4.53369762,16.0737468 3.15143345,19.9070475 C1.63930597,24.107531 0.889425575,28.5503849 0.937983398,33.0211858 C0.79666252,37.7582036 1.60801606,42.474839 3.32269737,46.8842256 C6.08118724,53.8164126 11.9498425,58.9912399 19.1079412,60.8032422 C22.7771339,61.7770499 26.5562303,62.2608872 30.3492161,62.2424614 C32.3416744,62.2542465 34.3328896,62.1389833 36.3110532,61.8973553 C37.9723794,61.6846243 39.621793,61.3853931 41.2527452,61.0008498 L41.2527452,63.4377634 C41.3237676,66.5194841 40.9796074,69.5966227 40.2297769,72.5841311 C39.7040903,74.7153592 38.6489368,76.6749262 37.1646641,78.276472 C35.7828917,79.670483 34.0572755,80.6634885 32.1677142,81.1519659 C29.9412977,81.7224383 27.6505299,81.9940484 25.3542457,81.9598203 C19.1864435,82.0295973 13.1028926,80.5054317 7.67824358,77.531296 C7.24855972,78.3723331 6.86200475,79.2352713 6.52012062,80.1166686 C6.14329622,81.0816782 5.82991487,81.9663038 5.57997657,82.7705453 C5.32876378,83.5754446 5.08992774,84.4854694 4.85391503,85.4956911 C4.63742224,86.4169039 4.46748607,87.34871 4.34476974,88.287473 C6.99690367,89.0557827 10.1575092,89.7839179 13.8265863,90.4718787 C17.5917829,91.1703112 21.4123568,91.5168735 25.2401462,91.5071971 C28.764298,91.5242343 32.2818555,91.1968692 35.7439517,90.5296497 C38.9132342,89.9352372 41.8936419,88.573337 44.4311137,86.5600427 C47.0950784,84.336392 49.1322672,81.4396571 50.3367239,78.1626925 C51.7755812,74.5602911 52.4950134,69.8049609 52.4950203,63.8967017 L52.4950203,3.22717133 C49.5077486,2.39163413 46.4736605,1.73849747 43.4091246,1.271285 Z M36.4252569,52.3481421 C34.5679629,52.6614276 32.6879062,52.8155683 30.8050518,52.8089274 C28.3440186,52.8364321 25.8929911,52.4873672 23.5348413,51.7735351 C21.3882081,51.112446 19.4247065,49.9502056 17.8022868,48.3803081 C16.0959475,46.686796 14.794618,44.6203327 13.9978606,42.3390196 C13.0255047,39.4927034 12.5639736,36.4930447 12.6351044,33.4819711 C12.5986904,30.2928057 13.0192556,27.1151608 13.8836569,24.0483421 C14.6321136,21.3753516 15.8853721,18.8748397 17.5739731,16.6853921 C19.2252314,14.5963256 21.3474716,12.9393956 23.7622694,11.8539063 C26.5214446,10.651132 29.5034367,10.0626689 32.5065332,10.1283229 C33.3401587,10.1283229 34.07859,10.1476045 34.7218273,10.1861678 C35.364179,10.2267362 36.0083852,10.2633576 36.6526851,10.3018575 C37.2959223,10.3404489 37.9775783,10.4172446 38.6976528,10.5322448 C39.3885323,10.6412224 40.2421432,10.8069683 41.2527452,11.0249234 L41.2527452,51.339799 C39.7663256,51.7128302 38.1609307,52.0502321 36.4252569,52.3481421 Z" id="Shape"></path>
                </g>
            </g>
        </g>
    </g>
</svg>