<?xml version="1.0" encoding="utf-8"?>
<!-- Generator: Adobe Illustrator 16.0.4, SVG Export Plug-In . SVG Version: 6.00 Build 0)  -->
<!DOCTYPE svg PUBLIC "-//W3C//DTD SVG 1.1//EN" "http://www.w3.org/Graphics/SVG/1.1/DTD/svg11.dtd">
<svg version="1.1" id="Layer_1" xmlns="http://www.w3.org/2000/svg" xmlns:xlink="http://www.w3.org/1999/xlink" x="0px" y="0px"
	 width="986.4px" height="871.933px" viewBox="18.8 76.034 986.4 871.933" enable-background="new 18.8 76.034 986.4 871.933"
	 xml:space="preserve">
<g>
	<path fill="#FFFFFF" d="M506.691,76.034h13.612c9.238,1.683,17.203,8.719,19.062,18.084c4.596,21.248-2.017,42.572-5.824,63.379
		c-1.793,13.158-0.723,26.474-1.369,39.694c-1.305,22.018-0.77,44.085-1.604,66.104c-1.701,23.734-0.05,47.61-2.222,71.298
		c-11.049,2.045-21.734,5.666-32.832,7.443c-0.755-24.694-0.802-49.388-1.888-74.051c0.062-33.052-1.746-66.041-1.967-99.077
		c-0.079-10.781-3.558-21.137-5.052-31.745c-2.361-15.424-4.392-31.903,1.745-46.744C491.362,82.707,498.854,77.828,506.691,76.034z
		"/>
	<path fill="#FFFFFF" d="M175.655,207.562c22.05-23.23,50.427-41.944,82.299-47.784c-9.113,7.508-17.312,16.164-23.861,26.017
		c-13.205,19.374-21.404,42.526-39.126,58.58c-19.894,17.675-44.258,29.715-62.956,48.854
		C137.661,261.217,154.124,231.66,175.655,207.562z"/>
	<path fill="#FFFFFF" d="M766.637,159.875c20.838,3.478,40.103,13.425,57.195,25.576c25.873,18.934,46.285,45.139,58.641,74.713
		c4.359,10.638,8.674,21.562,9.869,33.098c-13.299-13.284-28.896-23.749-44.287-34.373c-11.567-8.059-22.948-16.919-31.071-28.614
		c-10.435-14.607-17.326-31.383-27.699-46.037C782.973,175.046,775.086,167.065,766.637,159.875z"/>
	<path fill="#FFFFFF" d="M543.631,183.893c5.697,0.487,11.271-0.315,16.574-2.439c7.395-0.095,15.25-0.426,22.188,2.675
		c-1.163,1.086-2.045,2.676-3.682,3.054c-11.506,1.196-23.025,0.188-34.484-0.772C544.072,185.781,543.789,184.521,543.631,183.893z
		"/>
	<path fill="#FFFFFF" d="M542.404,197.79c14.512-0.552,28.723,3.368,42.289,8.152c22.271,8.373,43.549,22.491,55.274,43.739
		c12.812,21.074,12.857,47.751,5.179,70.604c-6.5,19.186-21.593,34.327-39.097,43.896c-24.897,13.818-53.135,19.421-80.473,26.269
		c-14.622,3.32-29.181,7.35-42.825,13.662c-8.783,4.483-17.486,10.732-21.296,20.177c-4.832,10.844-2.501,24.238,5.414,33.02
		c5.541,6.043,12.639,10.403,20.021,13.867c0.409,13.914,0.881,27.857,0.347,41.772c-22.57-7.083-46.083-16.257-61.509-35.082
		c-14.826-18.494-16.715-44.526-10.166-66.655c5.933-20.54,23.45-35.491,42.321-44.132c31.006-14.385,65.396-18.383,97.627-29.069
		c13.332-4.485,26.836-10.356,36.689-20.713c10.891-11.819,14.039-29.873,8.403-44.84c-3.635-10.718-11.897-19.391-21.594-24.977
		c-11.19-6.815-24.143-9.947-36.985-11.853C542.355,223.02,542.672,210.396,542.404,197.79z"/>
	<path fill="#FFFFFF" d="M882.945,215.086c12.778,9.853,24.961,20.964,33.557,34.767c16.227,24.79,22.602,54.944,22.111,84.282
		c0.41,23.451-3.713,46.65-4.484,70.055c-11.238-25.184-28.393-47.769-50.145-64.781c-12.797-10.466-26.851-19.249-39.584-29.793
		c-9.818-8.689-19.17-18.195-25.89-29.559c-6.344-10.057-10.688-21.185-14.731-32.311c0.031-0.3,0.127-0.883,0.156-1.182
		c8.985,11.756,22.428,18.808,34.815,26.395c22.238,13.016,44.242,27.527,60.656,47.736c5.901,7.554,12.149,15.108,15.631,24.159
		c-3.717-18.083-6.832-36.293-8.832-54.661C902.715,264.24,899.205,236.618,882.945,215.086z"/>
	<path fill="#FFFFFF" d="M90.287,291.546c6.658-30.109,24.899-56.928,49.483-75.359c-5.288,10.121-10.906,20.178-13.881,31.273
		c-8.453,32.013-8.5,65.521-16.794,97.567c4.375-10.404,11.883-19.013,18.839-27.749c16.495-18.604,37.396-32.437,58.707-44.918
		c11.867-7.586,25.623-13.914,33.366-26.236c-2.801,15.188-10.45,29.132-19.312,41.628c-14.872,20.478-36.875,33.619-56.66,48.745
		c-23.089,17.626-42.039,40.888-53.544,67.629C88.304,366.714,80.906,328.611,90.287,291.546z"/>
	<path fill="#FFFFFF" d="M665.121,231.597c1.76-1.29,3.522-2.565,5.287-3.856c3.854,2.109,7.365,4.785,10.451,7.917
		c-0.236,2.125-0.429,4.265-0.771,6.389c-2.047,0.332-3.398-1.479-4.928-2.455c-3.115-2.549-6.656-4.501-10.324-6.138
		C664.914,232.981,665.057,232.052,665.121,231.597z"/>
	<path fill="#FFFFFF" d="M481.1,202.4c-9.285,3.306-18.65,6.5-27.385,11.143c-10.152,5.714-22.302,5.871-32.598,11.253
		c-16.336,7.397-27.51,22.16-37.442,36.514c-6.027,8.404-5.745,19.327-10.466,28.314c-1.779,3.589-3.652,7.271-3.903,11.333
		c0,13.943-13.488,24.63-26.725,25.386c5.225,1.715,10.687,0.299,15.802-1.085c-1.165,4.344-2.172,8.735-2.565,13.22
		c4.833-9.27,9.555-18.949,17.125-26.347c2.014-2.219,5.177-1.904,7.868-2.203c8.562-0.41,16.163-4.926,23.468-9.003
		c13.866-8.419,28.077-16.494,40.433-27.086c6.296-5.21,10.688-12.245,16.762-17.691c5.997-5.713,13.536-9.349,20.854-13.047
		C481.745,229.536,482.69,215.889,481.1,202.4z M408.637,267.433c-2.062,0.111-4.106,0.206-6.169,0.299
		c2.472-5.272,5.557-10.229,8.72-15.124c3.698,0.017,7.412,0.142,11.128,0.298C417.923,257.912,413.265,262.648,408.637,267.433z"/>
	<path fill="#FFFFFF" d="M541.098,281.3c17.281,2.093,34.043,7.223,50.283,13.409c-0.596,3.808-2.061,7.381-3.807,10.812
		c-15.205-5.917-31.055-9.711-46.967-13.063C540.797,288.745,540.955,285.029,541.098,281.3z"/>
	<path fill="#FFFFFF" d="M42.724,387.71c-1.323-33.114,12.811-64.875,31.981-91.175c-10.324,29.385-6.059,61.115-0.96,91.097
		c3.856,22.9,8.704,45.77,9.286,69.078c6.469-27.968,20.288-54.126,39.725-75.232c9.129-9.836,19.611-18.288,29.967-26.771
		c8.012-6.611,16.07-13.488,21.721-22.302c-2.944,16.588-10.388,32.013-17.549,47.154c-11.915,24.931-30.455,45.69-47.091,67.488
		c-12.969,17.03-22.065,36.689-27.92,57.227c-1.511-9.884-6.406-18.634-9.491-28.015c-0.048,0.599-0.126,1.795-0.174,2.393
		c-2.171-5.824-5.052-11.316-8.058-16.729C52.466,438.91,42.204,413.979,42.724,387.71z"/>
	<path fill="#FFFFFF" d="M950.041,297.841c0.08-0.252,0.221-0.771,0.299-1.023c3.84,6.831,8.769,13,12.467,19.925
		c13.865,24.71,21.781,53.513,18.508,81.921c-2.346,26.363-14.307,50.475-26.44,73.547c-5.021,10.324-10.717,20.682-12.166,32.25
		c-4.016-11.994-7.965-24.098-14.006-35.256c-12.576-24.143-32.582-43.155-47.344-65.835
		c-10.312-15.502-18.824-32.202-25.168-49.718c-2.47-6.878-5.179-13.756-6.171-21.044c8.847,13.032,22.021,22.066,33.777,32.218
		c28.896,22.978,49.312,56.078,57.572,91.994c0.865-33.586,10.465-66.135,13.535-99.486
		C957.232,337.457,956.539,316.917,950.041,297.841z"/>
	<path fill="#FFFFFF" d="M346.201,330.5c2.488-0.252,4.975-0.472,7.477-0.662c-0.299,1.967-0.613,3.919-0.913,5.887
		C350.466,334.121,348.278,332.373,346.201,330.5z"/>
	<path fill="#FFFFFF" d="M650.576,382.941c0.74-6.468,6.688-12.009,13.143-12.134c3.588,0.614,3.195,5.115,1.023,7.145
		c0.787,2.109,1.494,4.249,2.156,6.406c-3.134-1.841-6.027-4.123-9.304-5.713c-2.83-0.598-3.271,2.627-4.438,4.406
		c1.955,2,3.92,4.029,5.936,6.012c-0.205,3.006-1.086,5.902-2.252,8.672c-3.318,0.865-6.641,1.794-10.072,1.999
		c-2.455-4.14,3.447-5.162,6.013-6.815C652.104,389.567,651.189,386.278,650.576,382.941z"/>
	<path fill="#FFFFFF" d="M496.713,410.595c9.506-4.769,20.193-6.012,30.141-9.538c1.339,7.004,0.677,14.15,0.173,21.201
		c-1.306,26.253,0.049,52.584-1.857,78.805c0.016,17.849-0.66,35.683-0.676,53.527c0,3.336-0.457,6.645-0.978,9.947
		c-7.979,2.062-15.707,4.959-23.718,6.863c-0.222-25.576-0.237-51.184-1.463-76.744
		C498.098,466.625,497.719,438.594,496.713,410.595z"/>
	<path fill="#FFFFFF" d="M32.083,516.045c-12.543-31.933-10.402-67.629-1.936-100.288c0.677,30.062,18.226,55.433,32.375,80.693
		c11.867,21.137,22.145,43.389,27.843,67.032c0.85-6.641,1.385-13.33,1.621-20.033c1.259-19.725,5.242-39.71,15.094-57.072
		c10.56-19.327,26.961-34.799,36.797-54.566c2.298,10.893,0.567,22.004-0.205,32.958c-2.439,21.577-10.136,42.181-19.469,61.649
		c-8.782,18.744-17.707,37.93-20.256,58.705c-1.542,9.145-1.07,18.432-1.637,27.654c-6.72-15.346-17.816-28.141-29.227-40.182
		C56.746,555.943,40.913,537.938,32.083,516.045z"/>
	<path fill="#FFFFFF" d="M469.972,434.772c0.63-9.099,7.935-16.165,16.007-19.471c-0.049,8.06,0.203,16.116,0.63,24.174
		c-2.738,2.125-4.816,4.911-6.406,7.98c3.147,3.084,7.192,6.058,6.957,11.002C477.306,455.104,469.154,445.537,469.972,434.772z"/>
	<path fill="#FFFFFF" d="M994.299,415.79c7.775,30.408,10.262,63.254,0.521,93.52c-8.168,25.152-25.937,45.503-44.162,64.011
		c-8.17,9.189-16.904,18.133-22.886,28.977c-1.637,2.867-3.479,5.602-5.524,8.199c-0.678-10.244-0.346-20.604-2.629-30.674
		c-3.998-23.061-15.14-43.883-24.646-64.988c-6.58-15.487-12.104-31.572-13.93-48.379c-0.943-11.521-3.225-23.263-0.471-34.706
		c10.778,21.973,29.854,38.703,40.006,61.068c11.332,22.98,12.53,49.105,12.276,74.255c7.398-30.705,21.802-59.131,37.869-86.123
		C982.416,460.914,993.59,439.506,994.299,415.79z"/>
	<path fill="#FFFFFF" d="M536.139,527.865c0.188-13-0.645-26.109,1.148-39.017c17.69,6.531,36.672,13.553,48.76,28.851
		c10.482,13.174,12.701,32.09,7.021,47.75c-6.548,16.512-23.39,25.277-39.111,31.18c-16.824,5.73-33.965,10.654-50.365,17.535
		c-5.162,2.406-11.364,4.986-13.268,10.889c-0.834,11.662,0.425,23.373-0.079,35.051c-12.48-5.758-24.63-15.723-27.669-29.762
		c-1.746-8.295-0.676-17.502,4.171-24.602c4.91-6.516,11.347-11.867,18.604-15.564c16.511-9.178,35.238-12.969,52.662-19.957
		c7.697-3.4,15.801-8.326,18.697-16.715c2.393-5.586,0.158-12.215-4.139-16.209C548.055,532.715,542.104,530.021,536.139,527.865z"
		/>
	<path fill="#FFFFFF" d="M128.847,571.902c5.287-15.85,9.867-31.92,12.418-48.459c5.24,15.486,9.963,31.289,11.095,47.689
		c3.558,32.391-6.437,64.277-5.492,96.652c0.33,13.219,0.724,26.863,5.099,39.471c0.315,4.031,0.74,8.076,1.841,11.979
		c-15.108-17.801-36.655-27.922-55.165-41.566c-16.746-11.127-31.823-24.662-44.651-40.119
		c-22.491-27.322-33.745-62.686-35.192-97.768v-10.939c8.83,25.826,28.566,45.75,47.107,64.986
		c15.565,16.006,30.674,32.609,43.518,50.93c5.414,7.414,9.758,15.535,15.582,22.648c-1.558-12.998-4.581-25.842-4.643-38.984
		C119.483,609.236,123.039,590.111,128.847,571.902z"/>
	<path fill="#FFFFFF" d="M871.676,574.814c1.215-17.328,5.178-34.469,11.586-50.615c1.838,7.945,2.707,16.086,4.957,23.938
		c4.564,16.354,10.971,32.219,13.66,49.045c4.359,23.324,1.637,47.199-2.723,70.305l-2.029-0.961
		c0.125,2.393,0.205,4.814,0.549,7.209c2.818-3.432,3.592-8.012,5.953-11.727c15.484-25.797,35.553-48.477,56.547-69.896
		c14.432-15.393,29.67-30.596,39.584-49.449c2.346-4.234,3.855-8.848,5.1-13.506c1.857,26.143-4.012,52.52-14.51,76.396
		c-12.373,27.561-33.84,50.096-58.205,67.52c-20.176,15.424-43.721,26.521-61.237,45.297c3.762-17.137,6.702-34.547,6.655-52.158
		C877.941,635.615,869.475,605.473,871.676,574.814z"/>
	<path fill="#FFFFFF" d="M535.697,540.109c4.344,1.275,9.381,3.146,10.971,7.869c0.096,6.25-5.918,9.586-11.002,11.477
		C535.494,553,535.479,546.549,535.697,540.109z"/>
	<path fill="#FFFFFF" d="M501.167,626.344c7.099-3.305,14.433-6.092,21.925-8.389c-0.363,34.484-1.842,68.936-1.779,103.451
		c-1.495,20.965-0.739,42.008-1.559,63.004c-0.299,6.422-1.242,13.125-5.635,18.148c-1.589-0.145-3.163-0.252-4.721-0.363
		c-3.023-4.314-5.053-9.285-5.162-14.605c-1.118-26.254-1.291-52.555-1.573-78.838c-0.221-11.551,0.14-23.119-0.93-34.641
		C501.419,658.184,501.419,642.271,501.167,626.344z"/>
	<path fill="#FFFFFF" d="M165.755,623.621c19.122,27.762,32.831,59.57,37.726,93.049c3.258,19.139,4.816,38.812,11.962,57.039
		c3.51,9.207,8.499,17.75,13.631,26.141c-11.317-7.256-24.16-11.725-37.191-14.795c-24.995-6.186-50.727-11.285-73.454-23.955
		c-26.993-14.211-47.264-38.828-60.123-66.119c-5.635-11.33-9.853-23.275-13.85-35.254c-2.581-1.795-3.919-4.549-1.495-7.176
		c-0.629-2.223-1.229-4.455-1.795-6.688c8.201,15.471,19.532,29.43,33.304,40.291c29.181,23.779,65.332,36.527,95.677,58.516
		c4.753,3.369,9.05,7.287,13.094,11.475c-12.827-19.518-18.257-43.203-17.721-66.371
		C164.983,667.691,169.013,645.625,165.755,623.621z"/>
	<path fill="#FFFFFF" d="M858.629,623.592c-1.322,12.115-1.951,24.346-0.566,36.496c0.679,22.381,2.818,45.424-3.795,67.172
		c-1.979,8.123-6.547,15.332-8.071,23.594c27.623-22.771,61.838-35.096,91.112-55.354c18.998-12.525,35.443-29.289,46.035-49.545
		c-6.672,27.842-17.58,55.133-34.736,78.238c-16.967,23.23-42.146,39.662-69.36,48.381c-27.699,10.01-58.453,11.473-84.045,27.117
		c7.791-11.818,14.307-24.662,17.77-38.449c4.611-16.619,5.744-33.9,9.035-50.789C827.373,679.164,840.828,649.732,858.629,623.592z
		"/>
	<path fill="#FFFFFF" d="M230.929,632.168c1.716,0.236,3.448,0.488,5.179,0.74c2.409,4.5,4.549,9.176,6.028,14.086
		c-0.708-0.236-2.125-0.725-2.832-0.961C236.548,641.389,233.637,636.842,230.929,632.168z"/>
	<path fill="#FFFFFF" d="M796.866,297.209c-48.744-73.768-127.328-127.218-213.986-145.003c-11.931-2.314-23.908-4.958-36.119-5.084
		c-0.82,3.668-1.416,7.382-1.701,11.144c73.438,6.5,143.508,40.009,196.656,90.783c0.191,0.707,0.553,2.14,0.742,2.849
		c-11.584,11.913-24.049,22.994-35.131,35.396c0.048-1.449,0.174-4.36,0.235-5.808c-3.808-1.37-7.743-2.393-11.662-3.352
		c0.52-0.505,1.525-1.512,2.029-2.016c-2.562-7.035-2.972-15.33-8.576-20.838c-7.838-9.852-20.586-13.001-30.832-19.532
		c-4.155-3.305-8.575,0.803-12.606,2.219c5.445,8.972,10.451,18.384,12.748,28.708c2.472,9.035,2.548,18.431,2.942,27.701
		c3.825,6.547,9.539,11.804,13.476,18.304c-1.435,0.158-4.281,0.488-5.717,0.646c1.088,2.737,2.852,5.318,3.182,8.294
		c-3.289,4.422-7.635,7.885-11.994,11.19c-1.369-2.534-2.707-5.084-4.026-7.634c-0.476,0.126-1.416,0.394-1.875,0.521
		c-2.22,7.223-8.767,13.394-7.207,21.436c-13.002,12.26-25.216,25.324-38.041,37.773c-1.561-1.354-3.134-2.66-4.738-3.935
		c-4.187-4.313-9.506,1.37-13.961,2.487c0.142,1.07,0.457,3.212,0.615,4.281c-2.125,1.748-4.156,3.573-6.123,5.477
		c-3.573,0.063-7.084,0.662-10.515,1.638c0.125,1.18,0.362,3.509,0.472,4.674c3.229-0.582,6.471-1.196,9.713-1.746
		c4.343-3.84,10.511-8.893,16.272-4.423c-4.611,4.753-9.396,9.333-14.055,14.041c-8.752,0.834-18.432,0.629-25.168,7.159
		c2.834-3.287,5.998-6.278,8.705-9.693c-0.631-0.724-1.873-2.204-2.486-2.943c-3.496,4.108-6.832,8.326-10.198,12.529
		c1.053,1.762,2.188,3.524,3.352,5.256c1.104,1.716,2.25,3.4,3.479,5.037c-4.674,0.095-9.459,0.865-14.055-0.189
		c-4.217-1.526-7.965-4.077-11.789-6.375c-0.676,3.399-1.289,6.831-1.211,10.325c0.252,16.354-0.787,32.69-0.457,49.043
		c18.068,5.587,36.025,13.22,50.412,25.812c22.207,19.294,26.754,56.898,7.35,79.654c-15.202,18.115-38.937,24.615-60.735,31.037
		c-0.22,10.562-0.74,21.154-0.08,31.715c16.919,7.619,33.431,18.84,42.229,35.666c8.291,14.777,9.726,32.328,8.058,48.898
		c-0.567,5.572-4.267,10.924-9.963,12.119c-14.181,3.387-28.677,5.43-43.203,6.723c0.031,3.664,0.064,7.33,0.094,11.031
		c31.211-0.865,61.76-9.572,90.467-21.436c27.449-12.17,53.058-28.6,75.25-48.855c1.652-1.291,4.186-4.566,6.312-2.125
		c12.166,11.631,23.368,24.316,36.086,35.381c-0.394,2.25-1.134,4.516-3.004,5.982c-29.937,27.416-64.642,49.797-102.509,64.561
		c-47.722,19.186-100.052,26.582-151.219,21.844c-73.596-6.119-144.185-38.842-197.65-89.584
		c12.875-13.016,25.654-26.207,38.922-38.812c5.177,2.867,9.05,7.541,13.63,11.223c43.406,35.854,98.101,58.613,154.462,61.885
		c0-3.744-0.017-7.49-0.08-11.236c-20.885-1.873-41.692-5.697-61.586-12.434c-36.074-11.695-69.031-31.871-97.078-57.275
		c2.015-4.502,5.603-8.279,9.727-10.873c4.801-0.252,9.555,0.77,14.354,0.629c3.227-2.283,5.289-6.25,9.082-7.65
		c6.484-0.031,12.937,0.787,19.422,0.566c0.896-3.023,1.747-6.043,2.533-9.098c20.335,15.031,43.251,26.664,67.646,33.414
		c11.553,3.211,23.419,6.201,35.506,6.029c-0.298-3.715-0.646-7.414-1.102-11.098c-41-4.297-79.891-22.775-110.455-50.225
		c11.506-12.166,23.75-23.607,35.318-35.727c1.4-1.291,3.494-3.9,5.54-2.158c9.711,7.322,19.358,15.156,30.88,19.502
		c1.212-3.65,2.455-7.289,3.746-10.891c-9.774-5.004-19.878-10.529-27.229-18.824c11.535-12.482,23.986-24.16,35.932-36.277
		c2.299-2.85,5.854-0.473,8.168,1.039c4.91,3.4,10.31,5.982,15.99,7.855c-0.015-4.125-0.046-8.248-0.094-12.373
		c-4.484-2.234-8.797-4.783-12.969-7.523c3.652-3.824,7.414-7.551,10.907-11.518c-4.202-1.607-8.545-2.881-12.984-3.67
		c-2.061,2.408-4.17,4.785-6.264,7.178c-3.889-4.406-7.194-9.27-10.184-14.322c-13.613-5.98-26.52-14.054-36.688-25.024
		c-10.907-12.546-18.178-28.709-18.587-45.472c-0.6-12.669-0.126-25.652,4.375-37.662c2.36-7.681,7.288-14.134,10.924-21.2
		c-13.378-12.623-26.049-25.938-39.112-38.875c28.833-27.89,66.496-45.833,105.97-52.348c0-3.855-0.188-7.728-1.007-11.521
		c-42.18,6.516-82.299,25.765-113.115,55.37c-2.439-2.235-4.896-4.596-8.091-5.698c-1.242,3.084-3.068,6.028-3.557,9.365
		c0.488,2.094,1.763,4.045,1.747,6.248c-1.4,2.141-3.211,3.951-4.925,5.84c-31.258,35.994-48.508,83.227-49.688,130.757
		c-18.573-0.078-37.13,0.174-55.701-0.187c1.48-65.177,26.804-130.382,72.935-176.907c5.949,6.312,11.804,12.781,18.666,18.132
		c3.966-1.086,7.917-2.282,11.789-3.667c-6.359-7.067-13.394-13.488-20.004-20.318c-0.881-0.913-2.393-2.456-1.212-3.714
		c10.624-10.845,22.899-19.91,35.287-28.63c2.69-1.621,3.115-4.973,4.407-7.586c1.778-4.753,5.352-8.468,8.138-12.607
		c-1.984,0.662-3.968,1.291-5.776,2.33c-15,8.781-29.18,18.965-42.133,30.548c-3.259,2.913-6.597,5.746-10.121,8.311
		c-10.529-10.654-21.137-21.232-31.762-31.776c-2.219-2.425-5.335-4.391-6.264-7.696c52.663-50.964,122.667-84.047,195.729-91.098
		c-0.614-3.635-1.228-7.288-1.746-10.939c-18.352,0.708-36.405,4.895-54.126,9.476c-92.041,24.38-171.869,89.742-214.983,174.51
		c-18.54,36.153-30.532,75.688-35.114,116.059c-7.695,65.299,4.078,132.758,33.446,191.588
		c25.466,51.248,64.168,95.773,111.054,128.523c49.94,34.928,109.434,56.174,170.266,60.172
		c56.786,4.266,114.641-6.012,166.408-29.762c55.445-25.387,103.844-65.854,138.689-115.902
		c38.985-55.936,61.069-123.77,61.02-192.061C855.29,421.83,834.704,353.712,796.866,297.209z M372.029,622.883
		c-3.746-4.268-7.855-8.297-10.955-13.082c-0.362-4.83,0.818-9.631,0.488-14.447c-0.646-5.227-4.598-9.365-5.226-14.59
		c-0.565-5.619-0.756-11.254-1.37-16.855c-0.205-7.383-7.35-12.812-6.106-20.445c0.709-6.531-3.336-12.119-6.438-17.469
		c-1.323-2.613-4.187-3.652-6.705-4.707c2.629-7.082-0.802-14.054,0.315-21.2c3.131-0.52,6.264-1.039,9.413-1.512
		c0.33-0.867,0.991-2.629,1.337-3.494c4.814-0.833,9.726-0.898,14.574-0.126c0.457,5.776-0.314,11.521-1.668,17.123
		c-1.196,4.816,2.297,9.128,3.367,13.648c-2.046-0.711-4.075-1.434-6.092-2.189c1.953,5.24,2.189,13.709,8.799,15.174
		c0.661-6.939-2.204-13.555-1.81-20.461c-0.204-8.012,2.786-15.819,1.526-23.845c2.551-0.032,5.115-0.062,7.666-0.096
		c0.44,30.707,13.361,60.423,33.005,83.732c1.589,1.779,3.383,3.367,5.146,4.99C398.47,596.582,384.73,609.219,372.029,622.883z
		 M354.953,463.007c5.744-3.967,12.716-2.126,18.886-0.426c-0.141,6.893-0.598,13.771-1.809,20.57
		c-4.281-0.049-8.562-0.096-12.845-0.125c-1.873-2.897-4.013-5.666-5.336-8.861C353.111,470.434,354.448,466.673,354.953,463.007z
		 M409.079,515.572c3.101,0.992,6.217,1.967,9.192,3.307c-0.174,1.889-0.348,3.791-0.521,5.697c2.502,1.434,5.005,2.896,7.478,4.375
		c-0.348-4.658,1.258-8.971,4.106-12.59c3.148,3.43,7.412,6.703,7.603,11.773c-2.299,0.17-4.58,0.361-6.861,0.549
		c0.896,2.643,1.794,5.289,2.644,7.965c2.282-0.6,4.533-1.229,6.8-1.857c0.141-0.928,0.425-2.77,0.565-3.682
		c1.259-1.023,2.535-2.047,3.81-3.072c0.739-3.35,1.573-6.689,2.439-9.994c3.479,6.328,7.477,12.355,12.166,17.865
		c-12.559,12.781-25.276,25.418-37.884,38.135c-0.55,0.031-1.668,0.098-2.235,0.109c-16.007-17.373-27.133-39.047-31.887-62.198
		c-0.411-2.974-0.63-5.95-0.661-8.939c2.046,2.093,4.076,4.248,6.043,6.419c2.628,0.158,5.256,0.237,7.87,0.646
		C403.114,511.435,405.584,514.439,409.079,515.572z M364.537,358.768c1.747-1.354,2.771-5.1,5.368-4.58
		c5.729,4.25,9.898,10.184,15.108,14.999c6.563,6.013,12.639,12.544,19.106,18.667c1.464,1.668,3.855,3.289,3.006,5.855
		c-3.415,5.791-8.452,10.467-11.913,16.258c-2.866,4.029-4.581,8.908-8.122,12.418c-3.022,0.692-6.153,0.852-9.145,1.668
		c-2.408,1.621-4.36,3.81-6.452,5.791c4.768-0.487,9.506-1.321,14.259-1.981c-5.052,4.911-12.718,5.588-17.408,11.049
		c-3.1,0.047-6.231-0.079-9.316,0.268c-4.093,6.422-7.381,13.348-10.985,20.067c-1.621,2.407,0.487,5.146-0.062,7.647
		c-1.638,2.505-3.92,4.533-5.431,7.146c-0.566,2.927-0.708,5.901-0.93,8.877c-8.214,0.235-16.446,0.188-24.662,0.044
		C317.479,437.667,335.012,393.031,364.537,358.768z M333.295,494.988c-1.29,4.125-2.533,8.278-3.762,12.434
		c1.245,2.014,3.447,3.683,3.715,6.186c-0.457,2.787-2.282,5.084-3.542,7.557c-3.228-0.064-6.453-0.127-9.68-0.174
		c-1.589-8.58-2.438-17.268-3.226-25.956C322.247,494.028,327.819,494.076,333.295,494.988z M317.949,652.895
		c5.21,2.455,10.262,5.273,14.969,8.609c-2.708,3.039-5.713,5.791-9.082,8.074c-3.667-4.375-8.546-7.916-10.781-13.314
		C314.692,655.131,316.312,654.014,317.949,652.895z M303.989,494.531c3.793,4.092,1.401,11.11,2.251,16.385
		c-1.983,0.204-3.982,0.409-5.965,0.63c-1.701,10.402-10.278,17.312-16.085,25.482c-0.143,8.496,0.346,17.029-0.236,25.527
		c-7.146,2.029-14.196,5.004-21.798,4.359c-7.476-23.246-11.316-47.453-12.67-71.787
		C267.601,493.54,285.842,494.625,303.989,494.531z M261.982,272.091c4.092-4.406,8.09-8.908,11.852-13.614
		c12.041,10.435,22.555,22.476,34.201,33.32c2.188,2.267,7.036,5.697,2.896,8.53c-45.548,49.216-72.336,115.446-72.745,182.589
		c-18.461,0.235-36.923,0.17-55.385,0.155C182.674,406.284,212.026,330.232,261.982,272.091z M182.863,494.467
		c18.461,0.126,36.97-0.709,55.401,0.441c0.33,24.378,5.005,48.474,11.505,71.91c-0.74-0.234-2.251-0.723-3.007-0.975
		c-0.457-0.771-1.385-2.312-1.841-3.084c-5.587-0.82-11.221-1.182-16.856-1.275c1.228,1.73,2.471,3.479,3.714,5.225
		c-3.542-0.203-7.083-0.457-10.608-0.693c-0.047-2.502,0.22-5.033-0.614-7.443c-4.486-0.484-8.657,1.969-12.261,4.359
		c-4.785,4.189-4.234,11.02-3.337,16.719c0.536,10.041,6.296,18.613,9.554,27.887c3.1,6.5,5.478,14.273,12.024,18.146
		c-1.26-6.564-5.824-11.727-8.168-17.863c-1.779-5.146-0.725-10.672-0.519-15.959c7.759,1.479,8.356,11.287,14.983,14.447
		c0.377-3.273,0.77-6.531,1.258-9.773c0.961,2.629,1.874,5.258,2.754,7.934c4.391,1.338,8.987,1.652,13.521,0.85
		c-0.08,4.076,0.346,8.279,3.715,11.033c1.873,0.678,4.328,0.709,5.539,2.582c3.698,5.115,6.484,10.812,9.585,16.303
		c2.362,0.348,4.721,0.695,7.083,1.041c0.55-2.125,1.101-4.252,1.637-6.373c11.205,17.391,24.018,33.648,38.072,48.805
		c-13.096,12.955-26.048,26.047-39.159,38.984C219.031,658.625,183.649,577.348,182.863,494.467z M716.729,293.938
		c11.58-10.954,22.332-22.791,34.105-33.524c4.768,1.07,7.129,6.389,10.529,9.585c51.215,58.391,80.725,135.276,81.307,212.962
		c-18.445,0.111-36.893,0.206-55.338,0.016c-0.943-27.227-4.957-54.408-13.363-80.394c-4.153-13.189-10.01-25.733-15.422-38.435
		c1.178-0.251,3.541-0.771,4.719-1.022c-5.348-12.481-13.047-23.766-21.278-34.5c-5.304-6.25-12.92-10.074-17.83-16.716
		c-3.117-4.218-7.035-7.758-10.279-11.851C712.242,297.589,715.279,295.56,716.729,293.938z M679.395,331.492
		c4.863-0.11,9.744-0.031,14.605,0.299c0.598,0.96,1.793,2.896,2.393,3.856c-0.582,1.685-1.133,3.368-1.698,5.068
		c7.428,4.438,14.133,11.096,23.041,12.245c5.916,6.17,11.19,12.921,16.92,19.264c2.233,2.266,3.729,5.651,6.752,6.925
		c3.43-0.251,6.674-1.432,9.994-2.282c15.141,33.21,23.905,69.612,23.75,106.176c-18.384,0.093-36.752,0.045-55.119-0.096
		c-1.211-12.135-1.195-24.427-4.234-36.325c-1.555-5.194,1.594-10.01,2.504-14.984c4.849-17.517-1.291-35.443-6.926-51.986
		c-3.822-7.459-9.207-13.976-13.91-20.885c1.369-0.834,2.769-1.684,4.168-2.519c-4.483-3.053-8.858-6.232-13.313-9.316
		c-1.148,6.689,4.865,11.111,8.041,16.195c12.088,17.753,18.194,39.062,19.408,60.406c-1.007-0.063-3.007-0.158-4.015-0.205
		c-2.297-5.431-8.041-10.972-4.625-17.125c-4.141-5.288-4.205-12.087-6.864-17.974c-1.337,0.032-4.015,0.112-5.353,0.158
		c-3.18-4.627-1.699-10.152,0.803-14.716c-1.446,0.189-4.328,0.566-5.772,0.755c0.153-2.99,0.268-5.98,0.358-8.97
		c-0.723-0.143-2.172-0.426-2.896-0.583c-0.818,2.156-1.621,4.297-2.406,6.452c-6.356-8.75-12.764-17.486-20.053-25.481
		C669.842,341.156,674.627,336.324,679.395,331.492z M670.468,462.567c5.037-4.817,11.854-6.454,18.604-7.053
		c1.418-3.18,3.731-5.76,6.596-7.712c3.982-2.581,4.406-7.744,6.174-11.742c2.939,9.633-4.459,18.101-4.377,27.668
		c3.398-2.548,5.963-5.979,8.166-9.567c1.275,9.584,2.598,19.202,2.33,28.896c-16.008-0.205-32.045,0.441-48.018-0.33
		c-0.412-0.566-1.216-1.669-1.623-2.234c2.801-3.525,6.043-6.673,8.846-10.199c2.424-0.203,4.879-0.394,7.316-0.551
		C674.843,466.533,673.175,464.17,670.468,462.567z M602.73,423.753c1.212-0.331,3.619-0.992,4.832-1.323
		c-1.936-1.637-3.887-3.226-5.871-4.8c0.362-5.839,1.479-12.529,7.383-15.33c4.91,4.581,10.434,10.623,8.766,17.926
		c-3.242-1.368-6.658-2.22-10.168-2.486c1.086,2.989,2.158,5.98,2.926,9.082C607.955,425.83,605.344,424.776,602.73,423.753z
		 M607.027,606.92c-3.84-2.391-7.713-4.703-11.662-6.893c2.785-1.92,5.115-5.16,8.67-5.602c6.106,3.838,11.994,8.043,18.367,11.426
		c0.176,0.928,0.521,2.77,0.694,3.699C617.855,608.102,612.517,606.686,607.027,606.92z M618.799,392.524
		c10.656-11.754,22.428-22.535,33.447-33.993c1.525-1.182,3.369-4.345,5.539-2.676c8.861,9.191,15.832,20.003,22.947,30.565
		c-1.654,0.52-3.273,1.054-4.91,1.59c0.106,3.116,0.205,6.232,0.299,9.364c5.949,4.675,15.219,6.532,17.359,14.731
		c2.172,6.092,4.94,12.042,6.297,18.384c-0.189,4.358-5.054,6.327-7.793,9.08c-0.252,2.125-0.472,4.281-0.691,6.422
		c-2.141,1.841-4.264,3.715-6.344,5.635c-2.613-0.126-5.207-0.253-7.805-0.362c3.446-5.76,2.627-13.221,7.381-18.289
		c-3.193-3.432-6.58-6.705-10.011-9.899c-2.549,0.74-5.1,1.448-7.649,2.14c-1.4,4.596-3.414,8.971-6.17,12.906
		c-4.47-1.196-7.695-4.785-7.398-9.57c1.875,0.978,3.746,2,5.621,3.007c-0.141-2.439-0.301-4.879-0.459-7.304
		c-1.463,0.662-4.357,2-5.822,2.676c-5.35-5.508-9.979-11.646-15.328-17.155c1.134-1.336,2.25-2.691,3.369-4.044
		c-2.426,0.078-4.817,0.172-7.225,0.283c0,0.943,0.014,2.832,0.014,3.761c-1.053-0.221-3.162-0.661-4.217-0.882
		C626.213,403.227,619.523,399.057,618.799,392.524z M633.199,602.012c0.129-8.043,8.973-13.553,6.817-22.129
		c3.146-6.422,3.492-13.992,0.423-20.508c-1.386-2.408-4.658-2.094-6.894-3.037c-0.031,1.008-0.08,3.006-0.109,3.996
		c-0.581-0.047-1.778-0.154-2.362-0.221c2.992-5.59,6.531-10.873,9.43-16.525c2.689-5.492,8.971-7.555,13.803-10.67
		c-0.174-1.26-0.535-3.777-0.709-5.037c5.949,0.834,12.354,2.25,18.086-0.424c4.625-1.891,9.474-3.18,14.367-4.156
		c-0.406-3.18-1.305-6.279-3.43-8.75c0.897-0.127,1.793-0.254,2.707-0.361c2.551,0.58,5.084,1.227,7.633,1.873
		c0.062-1.732,0.205-5.194,0.268-6.927c-6.674,1.007-13.299,3.367-19.862,0.331c-2.706-4.893-5.288-9.867-7.255-15.093
		c13.928-0.063,27.856-0.11,41.787,0.111c-0.865,36.986-13.615,73.312-34.533,103.687c-5.744,7.855-11.459,15.943-18.76,22.443
		c-2.076-1.148-3.982-2.582-5.888-3.967c3.996-8.576-0.125-17.297-2.012-25.781c-3.496,3.811-6.297,8.152-9.066,12.498
		C636.536,603.033,634.318,602.342,633.199,602.012z M645.776,713.207c2.438-4.912,4.723-10.121,3.182-15.709
		c3.664-2.816,7.898-5.885,6.795-11.174c-2.17-1.055-4.311-2.094-6.467-3.133c2.977-7.064,7.051-13.549,11.914-19.438
		c2.803-3.729-1.938-6.926-4.187-9.428c-2.803-3.02-8.043-1.604-10.547-4.939c-2.391-5.695,4.928-7.965,8.123-11.129
		c12.465,13.521,25.607,26.441,38.924,39.111C678.938,690.953,663.137,703.371,645.776,713.207z M701.842,669.186
		c-2.445-2.439-4.867-4.879-7.258-7.35c1.463-2.016,4.311-3.684,3.568-6.564c-0.802-8.703-3.24-17.139-5.504-25.545
		c-3.275-0.77-6.55-1.512-9.839-2.061c-0.739,6.168-1.512,12.354-2.438,18.51c-7.035-3.982-11.773-10.734-17.691-16.055
		c15.693-17.691,29.748-37.096,39.189-58.863c10.373-23.891,17.453-49.703,17.158-75.892c3.696-0.615,7.442-1.149,11.2-1.086
		c14.939,0.172,29.875,0.125,44.812,0.045c0.174,28.898-6.453,57.48-16.209,84.566C746.205,612.445,726.547,643.232,701.842,669.186
		z M803.592,642.303c-14.514,27.135-32.85,52.27-54.395,74.256c-13.125-13.029-26.222-26.062-39.176-39.236
		c43.094-44.273,70.432-103.594,75.877-165.164c0.332-5.934,0.678-11.885,1.402-17.8c18.461,0.093,36.938-0.097,55.416,0.062
		C841.145,545.824,828.174,597.039,803.592,642.303z"/>
	<path fill="#FFFFFF" d="M533.086,657.949c18.084,7.205,34.107,22.332,38.969,41.645c2.299,8.186,2.015,16.775,1.527,25.184
		c-5.541-20.383-22.021-35.775-40.639-44.639C532.879,672.742,532.975,665.344,533.086,657.949z"/>
	<path fill="#FFFFFF" d="M220.274,713.695c24.474,22.9,49.073,46.744,65.127,76.568c9.774,17.881,14.149,38.121,23.75,56.078
		c2.644,4.957,5.745,9.68,8.704,14.465c-20.051-6.043-40.891-1.117-61.334-1.811c-28.803,0.678-58.534-2.564-84.66-15.471
		c-20.021-9.49-37.064-24.396-50.743-41.691c-7.774-9.428-13.598-20.227-19.973-30.582c0.143-0.064,0.425-0.172,0.568-0.221
		c10.104,9.758,21.798,18.053,34.957,23.168c22.758,9.082,47.185,12.543,71.061,17.406c23.782,4.154,47.186,11.02,68.857,21.734
		c-7.019-4.832-11.709-12.07-17.407-18.238c-11.033-13.68-19.8-29.387-24.568-46.354c-3.573-11.883-4.565-24.332-7.57-36.342
		C225.42,725.941,222.667,719.881,220.274,713.695z"/>
	<path fill="#FFFFFF" d="M781.729,735.131c7.367-7.223,15.078-14.084,22.365-21.404c-8.783,18.26-9.27,38.812-15.203,57.918
		c-7.034,24.08-22.932,44.242-40.104,62.014c24.617-14.197,53.086-19.17,80.631-24.521c23.434-4.705,47.625-8.576,68.969-19.926
		c8.531-4.295,15.627-10.779,23.244-16.43c-9.646,20.396-24.395,38.135-41.328,52.93c-27.135,22.9-63.035,32.988-98.086,33.256
		c-13.646-0.062-27.32,0.316-40.938-0.834c-11.566-1.104-23.308-0.299-34.576,2.58c4.938-8.012,9.992-16.021,13.582-24.756
		c5.383-12.828,9.283-26.238,15.346-38.797C746.727,773.676,763.613,753.516,781.729,735.131z"/>
	<path fill="#FFFFFF" d="M330.384,866.062c33.901-8.592,68.842-13.975,103.877-13.52c20.43-0.125,40.747,3.465,60.391,8.939
		c7.491,2.061,15.155,6.17,23.089,3.715c7.76-2.395,15.502-4.863,23.436-6.689c38.795-9.441,79.322-6.676,118.324,0.031
		c39.553,6.783,77.545,21.891,117.885,24.125c19.846,1.371,39.851-2.029,58.062-10.072c-12.748,12.404-28.408,21.5-44.666,28.504
		c-22.586,9.605-47.359,12.197-71.66,12.547c-17.849-1.137-35.854-1.699-53.354-5.744c-42.606-8.609-83.008-29.779-127.297-28.584
		c4.674,1.777,9.146,4.047,13.424,6.674c12.435,7.588,24.773,15.473,35.949,24.883c12.275,10.104,24.443,20.619,34.09,33.336
		c-7.442,0.283-14.307,4.014-21.733,3.746c-2.41-1.465-4.771-3.084-6.17-5.586c-17.691-28.504-45.941-50.84-78.617-59.336
		c-5.021-1.404-9.915,0.975-14.605,2.455c-26.819,8.857-49.799,27.354-66.071,50.223c-2.455,3.43-4.359,7.256-7.114,10.48
		c-8.39,0.631-16.84-0.52-25.072-2.094c22.428-27.102,51.294-48.648,82.441-64.797c-31.069-0.896-60.644,9.992-89.949,18.824
		c-25.985,8.277-52.931,14.572-80.332,14.809c-7.885,0.771-15.801,0.854-23.67-0.049c-37.302-0.939-74.823-14.521-102.193-40.256
		c10.844,4.152,21.893,8.186,33.571,9.252C259.149,885.988,295.192,875.035,330.384,866.062z"/>
</g>
</svg>
