<!--
Licensed to the Apache Software Foundation (ASF) under one
or more contributor license agreements.  See the NOTICE file
distributed with this work for additional information
regarding copyright ownership.  The ASF licenses this file
to you under the Apache License, Version 2.0 (the
"License"); you may not use this file except in compliance
with the License.  You may obtain a copy of the License at

  http://www.apache.org/licenses/LICENSE-2.0

Unless required by applicable law or agreed to in writing,
software distributed under the License is distributed on an
"AS IS" BASIS, WITHOUT WARRANTIES OR CONDITIONS OF ANY
KIND, either express or implied.  See the License for the
specific language governing permissions and limitations
under the License.
-->

<svg width="16" height="16" viewBox="0 0 16 16" fill="none" xmlns="http://www.w3.org/2000/svg">
<path d="M8.66667 5H12V6.33333H8.66667V5ZM8.66667 9.66667H12V11H8.66667V9.66667ZM12.6667 2H3.33333C2.6 2 2 2.6 2 3.33333V12.6667C2 13.4 2.6 14 3.33333 14H12.6667C13.4 14 14 13.4 14 12.6667V3.33333C14 2.6 13.4 2 12.6667 2ZM12.6667 12.6667H3.33333V3.33333H12.6667V12.6667ZM7.33333 4H4V7.33333H7.33333V4ZM6.66667 6.66667H4.66667V4.66667H6.66667V6.66667ZM7.33333 8.66667H4V12H7.33333V8.66667ZM6.66667 11.3333H4.66667V9.33333H6.66667V11.3333Z" fill="currentColor"/>
</svg>
