<!--
Licensed to the Apache Software Foundation (ASF) under one
or more contributor license agreements.  See the NOTICE file
distributed with this work for additional information
regarding copyright ownership.  The ASF licenses this file
to you under the Apache License, Version 2.0 (the
"License"); you may not use this file except in compliance
with the License.  You may obtain a copy of the License at

  http://www.apache.org/licenses/LICENSE-2.0

Unless required by applicable law or agreed to in writing,
software distributed under the License is distributed on an
"AS IS" BASIS, WITHOUT WARRANTIES OR CONDITIONS OF ANY
KIND, either express or implied.  See the License for the
specific language governing permissions and limitations
under the License.
-->
<svg width="24" height="24" viewBox="0 0 24 24" fill="none" xmlns="http://www.w3.org/2000/svg">
<path fill-rule="evenodd" clip-rule="evenodd" d="M4 11.001H9C10.104 11.001 11 10.104 11 9.00098V4.00098C11 2.89898 10.104 2.00098 9 2.00098H4C2.896 2.00098 2 2.89898 2 4.00098V9.00098C2 10.104 2.896 11.001 4 11.001ZM4 9.00098V4.00098H9L8.997 9.00098H4ZM4 22.001H9C10.104 22.001 11 21.104 11 20.001V15.001C11 13.899 10.104 13.001 9 13.001H4C2.896 13.001 2 13.899 2 15.001V20.001C2 21.104 2.896 22.001 4 22.001ZM4 20.001V15.001H9L8.997 20.001H4ZM20 22.001H15C13.896 22.001 13 21.104 13 20.001V15.001C13 13.899 13.896 13.001 15 13.001H20C21.104 13.001 22 13.899 22 15.001V20.001C22 21.104 21.104 22.001 20 22.001ZM15 15.001V20.001H19.997L20 15.001H15Z" fill="currentColor"/>
<path fill-rule="evenodd" clip-rule="evenodd" d="M20.2 3.83167V2.75C20.2 1.23122 18.9912 0 17.5 0C16.0088 0 14.8 1.23122 14.8 2.75V3.83167C13.7238 4.21919 13.0032 5.2541 13 6.41667V8.25C13 9.76878 14.2088 11 15.7 11H19.3C20.7912 11 22 9.76878 22 8.25V6.41667C21.9968 5.2541 21.2762 4.21919 20.2 3.83167ZM16.6 2.75C16.6 2.24374 17.0029 1.83333 17.5 1.83333C17.9971 1.83333 18.4 2.24374 18.4 2.75V3.66667H16.6V2.75ZM20.2 8.25C20.2 8.75626 19.7971 9.16667 19.3 9.16667H15.7C15.2029 9.16667 14.8 8.75626 14.8 8.25V6.41667C14.8 5.91041 15.2029 5.5 15.7 5.5H19.3C19.7971 5.5 20.2 5.91041 20.2 6.41667V8.25Z" fill="currentColor"/>
</svg>
