<!--
Licensed to the Apache Software Foundation (ASF) under one
or more contributor license agreements.  See the NOTICE file
distributed with this work for additional information
regarding copyright ownership.  The ASF licenses this file
to you under the Apache License, Version 2.0 (the
"License"); you may not use this file except in compliance
with the License.  You may obtain a copy of the License at

  http://www.apache.org/licenses/LICENSE-2.0

Unless required by applicable law or agreed to in writing,
software distributed under the License is distributed on an
"AS IS" BASIS, WITHOUT WARRANTIES OR CONDITIONS OF ANY
KIND, either express or implied.  See the License for the
specific language governing permissions and limitations
under the License.
-->
<svg width="24" height="24" viewBox="0 0 24 24" fill="none" xmlns="http://www.w3.org/2000/svg">
<path fill-rule="evenodd" clip-rule="evenodd" d="M14.8297 11.2899L10.5897 7.04995C10.4019 6.86064 10.1463 6.75415 9.8797 6.75415C9.61306 6.75415 9.35747 6.86064 9.1697 7.04995C8.78198 7.43999 8.78198 8.06991 9.1697 8.45995L12.7097 11.9999L9.1697 15.5399C8.78198 15.93 8.78198 16.5599 9.1697 16.9499C9.35842 17.1371 9.6139 17.2415 9.8797 17.2399C10.1455 17.2415 10.401 17.1371 10.5897 16.9499L14.8297 12.7099C15.019 12.5222 15.1255 12.2666 15.1255 11.9999C15.1255 11.7333 15.019 11.4777 14.8297 11.2899Z" fill="currentColor"/>
</svg>
