<!--
Licensed to the Apache Software Foundation (ASF) under one
or more contributor license agreements.  See the NOTICE file
distributed with this work for additional information
regarding copyright ownership.  The ASF licenses this file
to you under the Apache License, Version 2.0 (the
"License"); you may not use this file except in compliance
with the License.  You may obtain a copy of the License at

  http://www.apache.org/licenses/LICENSE-2.0

Unless required by applicable law or agreed to in writing,
software distributed under the License is distributed on an
"AS IS" BASIS, WITHOUT WARRANTIES OR CONDITIONS OF ANY
KIND, either express or implied.  See the License for the
specific language governing permissions and limitations
under the License.
-->
<svg width="24" height="24" viewBox="0 0 24 24" fill="none" xmlns="http://www.w3.org/2000/svg">
<path fill-rule="evenodd" clip-rule="evenodd" d="M21.32 9.55L19.43 8.92L20.32 7.14C20.5049 6.75817 20.4287 6.30123 20.13 6L18 3.87C17.697 3.56672 17.2344 3.49029 16.85 3.68L15.07 4.57L14.44 2.68C14.3036 2.27617 13.9262 2.00317 13.5 2H10.5C10.0701 1.99889 9.68758 2.27269 9.55 2.68L8.92 4.57L7.14 3.68C6.75817 3.49511 6.30123 3.57126 6 3.87L3.87 6C3.56672 6.30298 3.49029 6.76557 3.68 7.15L4.57 8.93L2.68 9.56C2.27617 9.69639 2.00317 10.0738 2 10.5V13.5C1.99889 13.9299 2.27269 14.3124 2.68 14.45L4.57 15.08L3.68 16.86C3.49511 17.2418 3.57126 17.6988 3.87 18L6 20.13C6.30298 20.4333 6.76557 20.5097 7.15 20.32L8.93 19.43L9.56 21.32C9.69758 21.7273 10.0801 22.0011 10.51 22H13.51C13.9399 22.0011 14.3224 21.7273 14.46 21.32L15.09 19.43L16.87 20.32C17.2492 20.5001 17.7006 20.4243 18 20.13L20.13 18C20.4333 17.697 20.5097 17.2344 20.32 16.85L19.43 15.07L21.32 14.44C21.7238 14.3036 21.9968 13.9262 22 13.5V10.5C22.0011 10.0701 21.7273 9.68758 21.32 9.55ZM20 12.78L18.8 13.18C18.2415 13.3612 17.7908 13.7786 17.5675 14.3216C17.3441 14.8646 17.3706 15.4783 17.64 16L18.21 17.14L17.11 18.24L16 17.64C15.4811 17.3815 14.8756 17.3608 14.3403 17.5834C13.805 17.806 13.3927 18.2498 13.21 18.8L12.81 20H11.22L10.82 18.8C10.6388 18.2415 10.2214 17.7908 9.67842 17.5675C9.13543 17.3441 8.52171 17.3706 8 17.64L6.86 18.21L5.76 17.11L6.36 16C6.62938 15.4783 6.6559 14.8646 6.43254 14.3216C6.20918 13.7786 5.7585 13.3612 5.2 13.18L4 12.78V11.22L5.2 10.82C5.7585 10.6388 6.20918 10.2214 6.43254 9.67842C6.6559 9.13543 6.62938 8.52171 6.36 8L5.79 6.89L6.89 5.79L8 6.36C8.52171 6.62938 9.13543 6.6559 9.67842 6.43254C10.2214 6.20918 10.6388 5.7585 10.82 5.2L11.22 4H12.78L13.18 5.2C13.3612 5.7585 13.7786 6.20918 14.3216 6.43254C14.8646 6.6559 15.4783 6.62938 16 6.36L17.14 5.79L18.24 6.89L17.64 8C17.3815 8.51888 17.3608 9.1244 17.5834 9.65969C17.806 10.195 18.2498 10.6074 18.8 10.79L20 11.19V12.78Z" fill="currentColor"/>
<path fill-rule="evenodd" clip-rule="evenodd" d="M8 12C8 9.79086 9.79086 8 12 8C13.0609 8 14.0783 8.42143 14.8284 9.17157C15.5786 9.92172 16 10.9391 16 12C16 14.2091 14.2091 16 12 16C9.79086 16 8 14.2091 8 12ZM10 12C10 13.1046 10.8954 14 12 14C13.1046 14 14 13.1046 14 12C14 10.8954 13.1046 10 12 10C10.8954 10 10 10.8954 10 12Z" fill="currentColor"/>
</svg>
