<!--
Licensed to the Apache Software Foundation (ASF) under one
or more contributor license agreements.  See the NOTICE file
distributed with this work for additional information
regarding copyright ownership.  The ASF licenses this file
to you under the Apache License, Version 2.0 (the
"License"); you may not use this file except in compliance
with the License.  You may obtain a copy of the License at

  http://www.apache.org/licenses/LICENSE-2.0

Unless required by applicable law or agreed to in writing,
software distributed under the License is distributed on an
"AS IS" BASIS, WITHOUT WARRANTIES OR CONDITIONS OF ANY
KIND, either express or implied.  See the License for the
specific language governing permissions and limitations
under the License.
-->
<svg width="24" height="24" viewBox="0 0 24 24" fill="none" xmlns="http://www.w3.org/2000/svg">
<path fill-rule="evenodd" clip-rule="evenodd" d="M21 8.94C20.9896 8.84813 20.9695 8.75763 20.94 8.67V8.58C20.8919 8.47718 20.8278 8.38267 20.75 8.3L14.75 2.3C14.6673 2.22222 14.5728 2.15808 14.47 2.11C14.4402 2.10576 14.4099 2.10576 14.38 2.11C14.2784 2.05174 14.1662 2.01434 14.05 2H10C8.34315 2 7 3.34315 7 5V6H6C4.34315 6 3 7.34315 3 9V19C3 20.6569 4.34315 22 6 22H14C15.6569 22 17 20.6569 17 19V18H18C19.6569 18 21 16.6569 21 15V9C21 9 21 9 21 8.94ZM15 5.41L17.59 8H16C15.4477 8 15 7.55228 15 7V5.41ZM15 19C15 19.5523 14.5523 20 14 20H6C5.44772 20 5 19.5523 5 19V9C5 8.44772 5.44772 8 6 8H7V15C7 16.6569 8.34315 18 10 18H15V19ZM19 15C19 15.5523 18.5523 16 18 16H10C9.44772 16 9 15.5523 9 15V5C9 4.44772 9.44772 4 10 4H13V7C13 8.65685 14.3431 10 16 10H19V15Z" fill="currentColor"/>
</svg>
