<!--
  Licensed to the Apache Software Foundation (ASF) under one
  or more contributor license agreements.  See the NOTICE file
  distributed with this work for additional information
  regarding copyright ownership.  The ASF licenses this file
  to you under the Apache License, Version 2.0 (the
  "License"); you may not use this file except in compliance
  with the License.  You may obtain a copy of the License at

    http://www.apache.org/licenses/LICENSE-2.0

  Unless required by applicable law or agreed to in writing,
  software distributed under the License is distributed on an
  "AS IS" BASIS, WITHOUT WARRANTIES OR CONDITIONS OF ANY
  KIND, either express or implied.  See the License for the
  specific language governing permissions and limitations
  under the License.
-->
<svg width="40" height="40" viewBox="0 0 40 40" fill="none" xmlns="http://www.w3.org/2000/svg">
<path opacity="0.4" d="M20 40C31.0457 40 40 31.0457 40 20C40 8.9543 31.0457 0 20 0C8.9543 0 0 8.9543 0 20C0 31.0457 8.9543 40 20 40Z" fill="#D9DBE4"/>
<path opacity="0.4" fill-rule="evenodd" clip-rule="evenodd" d="M26.9942 24.9661C27.0473 24.9256 27.0843 24.893 27.1094 24.8686V22.3207C26.7158 22.5563 26.2568 22.7608 25.7565 22.9359C24.2501 23.4632 22.2149 23.7763 20 23.7763C17.7851 23.7763 15.7499 23.4632 14.2435 22.9359C13.7432 22.7608 13.2842 22.5563 12.8906 22.3207V24.8686C12.9157 24.893 12.9527 24.9256 13.0058 24.9661C13.2608 25.1603 13.7184 25.3956 14.4099 25.6184C15.7771 26.059 17.7537 26.3544 20 26.3544C22.2463 26.3544 24.2229 26.059 25.5901 25.6184C26.2816 25.3956 26.7392 25.1603 26.9942 24.9661ZM26.7503 20.8614C27.0622 20.6033 27.1094 20.4232 27.1094 20.3388V18.4145C26.7158 18.65 26.2568 18.8546 25.7565 19.0297C24.2501 19.5569 22.2149 19.87 20 19.87C17.7851 19.87 15.7499 19.5569 14.2435 19.0297C13.7432 18.8546 13.2842 18.65 12.8906 18.4145V20.3388C12.8906 20.4232 12.9378 20.6033 13.2497 20.8614C13.5571 21.1158 14.0442 21.3763 14.708 21.6086C16.0292 22.071 17.9001 22.37 20 22.37C22.0999 22.37 23.9708 22.071 25.292 21.6086C25.9558 21.3763 26.4429 21.1158 26.7503 20.8614ZM11.4844 16.4325V20.3388V25.0165C11.4844 26.5321 15.297 27.7607 20 27.7607C24.703 27.7607 28.5156 26.5321 28.5156 25.0165V20.3388V16.4325V13.3173C28.5156 11.8017 24.703 10.5732 20 10.5732H19.9951H19.9902C15.2926 10.5732 11.4844 11.8017 11.4844 13.3173V16.4325ZM27.1094 16.4325V14.8196C25.59 15.5675 22.9689 16.0614 19.9902 16.0614C17.0243 16.0614 14.4129 15.5717 12.8906 14.8292V16.4325C12.8906 16.5169 12.9378 16.6971 13.2497 16.9552C13.5571 17.2095 14.0442 17.47 14.708 17.7024C16.0292 18.1648 17.9001 18.4638 20 18.4638C22.0999 18.4638 23.9708 18.1648 25.292 17.7024C25.9558 17.47 26.4429 17.2095 26.7503 16.9552C27.0622 16.6971 27.1094 16.5169 27.1094 16.4325ZM13.0749 13.3176C13.3394 13.5012 13.7756 13.7155 14.4075 13.9194C15.7727 14.3598 17.7467 14.6552 19.9902 14.6552C22.2337 14.6552 24.2078 14.3598 25.573 13.9194C26.2053 13.7154 26.6416 13.501 26.9061 13.3173C26.6416 13.1336 26.2053 12.9192 25.573 12.7152C24.2087 12.2751 22.2366 11.9798 19.9951 11.9794C17.7508 11.9798 15.7761 12.2751 14.4099 12.7154C13.7768 12.9194 13.3398 13.1338 13.0749 13.3176ZM27.1561 24.8151C27.1565 24.8152 27.1546 24.8186 27.1493 24.8253C27.1532 24.8185 27.1558 24.8151 27.1561 24.8151ZM12.85 13.5093C12.8467 13.5152 12.8444 13.5181 12.8441 13.518H12.844C12.8446 13.5168 12.8465 13.5139 12.85 13.5093ZM12.8439 24.8151C12.8442 24.8151 12.8468 24.8185 12.8507 24.8253C12.8454 24.8186 12.8435 24.8152 12.8439 24.8151Z" fill="#444E7C"/>
</svg>
