<!--
  Licensed to the Apache Software Foundation (ASF) under one
  or more contributor license agreements.  See the NOTICE file
  distributed with this work for additional information
  regarding copyright ownership.  The ASF licenses this file
  to you under the Apache License, Version 2.0 (the
  "License"); you may not use this file except in compliance
  with the License.  You may obtain a copy of the License at

    http://www.apache.org/licenses/LICENSE-2.0

  Unless required by applicable law or agreed to in writing,
  software distributed under the License is distributed on an
  "AS IS" BASIS, WITHOUT WARRANTIES OR CONDITIONS OF ANY
  KIND, either express or implied.  See the License for the
  specific language governing permissions and limitations
  under the License.
-->
<svg width="18" height="18" viewBox="0 0 18 18" fill="none" xmlns="http://www.w3.org/2000/svg">
<path opacity="0.4" fill-rule="evenodd" clip-rule="evenodd" d="M15.9942 14.9661C16.0473 14.9256 16.0843 14.893 16.1094 14.8686V12.3207C15.7158 12.5563 15.2568 12.7608 14.7565 12.9359C13.2501 13.4632 11.2149 13.7763 8.99998 13.7763C6.78508 13.7763 4.74988 13.4632 3.24347 12.9359C2.74318 12.7608 2.28418 12.5563 1.89058 12.3207V14.8686C1.91568 14.893 1.95268 14.9256 2.00578 14.9661C2.26078 15.1603 2.71837 15.3956 3.40987 15.6184C4.77707 16.059 6.75368 16.3544 8.99998 16.3544C11.2463 16.3544 13.2229 16.059 14.5901 15.6184C15.2816 15.3956 15.7392 15.1603 15.9942 14.9661ZM15.7503 10.8614C16.0622 10.6033 16.1094 10.4232 16.1094 10.3388V8.41454C15.7158 8.65004 15.2568 8.85464 14.7565 9.02974C13.2501 9.55694 11.2149 9.87004 8.99998 9.87004C6.78508 9.87004 4.74988 9.55694 3.24347 9.02974C2.74318 8.85464 2.28418 8.65004 1.89058 8.41454V10.3388C1.89058 10.4232 1.93777 10.6033 2.24967 10.8614C2.55707 11.1158 3.04418 11.3763 3.70798 11.6086C5.02918 12.071 6.90007 12.37 8.99998 12.37C11.0999 12.37 12.9708 12.071 14.292 11.6086C14.9558 11.3763 15.4429 11.1158 15.7503 10.8614ZM0.484375 6.43254V10.3388V15.0165C0.484375 16.5321 4.29698 17.7607 8.99998 17.7607C13.703 17.7607 17.5156 16.5321 17.5156 15.0165V10.3388V6.43254V3.31734C17.5156 1.80174 13.703 0.573242 8.99998 0.573242H8.99508H8.99018C4.29258 0.573242 0.484375 1.80174 0.484375 3.31734V6.43254ZM16.1094 6.43254V4.81964C14.59 5.56754 11.9689 6.06144 8.99018 6.06144C6.02428 6.06144 3.41288 5.57174 1.89058 4.82924V6.43254C1.89058 6.51694 1.93777 6.69714 2.24967 6.95524C2.55707 7.20954 3.04418 7.47004 3.70798 7.70244C5.02918 8.16484 6.90007 8.46384 8.99998 8.46384C11.0999 8.46384 12.9708 8.16484 14.292 7.70244C14.9558 7.47004 15.4429 7.20954 15.7503 6.95524C16.0622 6.69714 16.1094 6.51694 16.1094 6.43254ZM2.07487 3.31764C2.33937 3.50124 2.77558 3.71554 3.40748 3.91944C4.77268 4.35984 6.74668 4.65524 8.99018 4.65524C11.2337 4.65524 13.2078 4.35984 14.573 3.91944C15.2053 3.71544 15.6416 3.50104 15.9061 3.31734C15.6416 3.13364 15.2053 2.91924 14.573 2.71524C13.2087 2.27514 11.2366 1.97984 8.99508 1.97944C6.75078 1.97984 4.77607 2.27514 3.40987 2.71544C2.77677 2.91944 2.33977 3.13384 2.07487 3.31764ZM16.1561 14.8151C16.1565 14.8152 16.1546 14.8186 16.1493 14.8253C16.1532 14.8185 16.1558 14.8151 16.1561 14.8151ZM1.84998 3.50934C1.84668 3.51524 1.84438 3.51814 1.84408 3.51804H1.84398C1.84458 3.51684 1.84648 3.51394 1.84998 3.50934ZM1.84387 14.8151C1.84417 14.8151 1.84678 14.8185 1.85068 14.8253C1.84538 14.8186 1.84347 14.8152 1.84387 14.8151Z" fill="#444E7C"/>
</svg>
