<svg width="24" height="24" viewBox="0 0 24 24" fill="none" xmlns="http://www.w3.org/2000/svg">
<path fill-rule="evenodd" clip-rule="evenodd" d="M5 18.0058H9.24C9.5058 18.0073 9.76128 17.903 9.95 17.7158L16.87 10.7858L19.71 8.0058C19.8993 7.81803 20.0058 7.56244 20.0058 7.2958C20.0058 7.02916 19.8993 6.77356 19.71 6.5858L15.47 2.2958C15.2822 2.10649 15.0266 2 14.76 2C14.4934 2 14.2378 2.10649 14.05 2.2958L11.23 5.1258L4.29 12.0558C4.10281 12.2445 3.99846 12.5 4 12.7658V17.0058C4 17.5581 4.44772 18.0058 5 18.0058ZM14.76 4.4158L17.59 7.2458L16.17 8.6658L13.34 5.8358L14.76 4.4158ZM6 13.1758L11.93 7.2458L14.76 10.0758L8.83 16.0058H6V13.1758ZM21 20.0058H3C2.44772 20.0058 2 20.4535 2 21.0058C2 21.5581 2.44772 22.0058 3 22.0058H21C21.5523 22.0058 22 21.5581 22 21.0058C22 20.4535 21.5523 20.0058 21 20.0058Z" fill="#323232"/>
</svg>
