<!--
Licensed to the Apache Software Foundation (ASF) under one
or more contributor license agreements.  See the NOTICE file
distributed with this work for additional information
regarding copyright ownership.  The ASF licenses this file
to you under the Apache License, Version 2.0 (the
"License"); you may not use this file except in compliance
with the License.  You may obtain a copy of the License at

  http://www.apache.org/licenses/LICENSE-2.0

Unless required by applicable law or agreed to in writing,
software distributed under the License is distributed on an
"AS IS" BASIS, WITHOUT WARRANTIES OR CONDITIONS OF ANY
KIND, either express or implied.  See the License for the
specific language governing permissions and limitations
under the License.
-->
<svg width="24" height="24" viewBox="0 0 24 24" fill="none" xmlns="http://www.w3.org/2000/svg">
<path fill-rule="evenodd" clip-rule="evenodd" d="M22 7.23999C22.0016 6.97418 21.8972 6.71871 21.71 6.52999L17.47 2.28999C17.2813 2.1028 17.0258 1.99845 16.76 1.99999C16.4942 1.99845 16.2387 2.1028 16.05 2.28999L13.22 5.11999L2.29002 16.05C2.10283 16.2387 1.99848 16.4942 2.00002 16.76V21C2.00002 21.5523 2.44773 22 3.00002 22H7.24002C7.523 22.0154 7.79922 21.91 8.00002 21.71L18.87 10.78L21.71 7.99999C21.8013 7.90307 21.8757 7.79152 21.93 7.66999C21.9397 7.59028 21.9397 7.5097 21.93 7.42999C21.9347 7.38344 21.9347 7.33654 21.93 7.28999L22 7.23999ZM6.83002 20H4.00002V17.17L13.93 7.23999L16.76 10.07L6.83002 20ZM18.17 8.65999L15.34 5.82999L16.76 4.41999L19.58 7.23999L18.17 8.65999Z" fill="currentColor"/>
</svg>
