<!--
  Licensed to the Apache Software Foundation (ASF) under one
  or more contributor license agreements.  See the NOTICE file
  distributed with this work for additional information
  regarding copyright ownership.  The ASF licenses this file
  to you under the Apache License, Version 2.0 (the
  "License"); you may not use this file except in compliance
  with the License.  You may obtain a copy of the License at
 
    http://www.apache.org/licenses/LICENSE-2.0
 
  Unless required by applicable law or agreed to in writing,
  software distributed under the License is distributed on an
  "AS IS" BASIS, WITHOUT WARRANTIES OR CONDITIONS OF ANY
  KIND, either express or implied.  See the License for the
  specific language governing permissions and limitations
  under the License.
-->
<svg width="24" height="24" viewBox="0 0 24 24" fill="currentColor" xmlns="http://www.w3.org/2000/svg">
<path id="Shape" fill-rule="evenodd" clip-rule="evenodd" d="M21.71 7.56L16.44 2.29C16.2484 2.10727 15.9948 2.00368 15.73 2H8.27C8.00523 2.00368 7.75163 2.10727 7.56 2.29L2.29 7.56C2.10727 7.75163 2.00368 8.00523 2 8.27V15.73C2.00368 15.9948 2.10727 16.2484 2.29 16.44L7.56 21.71C7.75163 21.8927 8.00523 21.9963 8.27 22H15.73C15.9948 21.9963 16.2484 21.8927 16.44 21.71L21.71 16.44C21.8927 16.2484 21.9963 15.9948 22 15.73V8.27C21.9963 8.00523 21.8927 7.75163 21.71 7.56Z" fill="currentColor"/>
<path id="Combined Shape" fill-rule="evenodd" clip-rule="evenodd" d="M11 8C11 7.44772 11.4477 7 12 7C12.5523 7 13 7.44772 13 8V12C13 12.5523 12.5523 13 12 13C11.4477 13 11 12.5523 11 12V8ZM11 16C11 15.4477 11.4477 15 12 15C12.5523 15 13 15.4477 13 16C13 16.5523 12.5523 17 12 17C11.4477 17 11 16.5523 11 16Z" fill="white"/>
</svg>
