<!--
Licensed to the Apache Software Foundation (ASF) under one
or more contributor license agreements.  See the NOTICE file
distributed with this work for additional information
regarding copyright ownership.  The ASF licenses this file
to you under the Apache License, Version 2.0 (the
"License"); you may not use this file except in compliance
with the License.  You may obtain a copy of the License at

  http://www.apache.org/licenses/LICENSE-2.0

Unless required by applicable law or agreed to in writing,
software distributed under the License is distributed on an
"AS IS" BASIS, WITHOUT WARRANTIES OR CONDITIONS OF ANY
KIND, either express or implied.  See the License for the
specific language governing permissions and limitations
under the License.
-->
<svg width="24" height="24" viewBox="0 0 24 24" fill="none" xmlns="http://www.w3.org/2000/svg">
<path fill-rule="evenodd" clip-rule="evenodd" d="M21.9196 11.6C19.8996 6.91 16.0996 4 11.9996 4C7.89958 4 4.09958 6.91 2.07958 11.6C1.96827 11.8551 1.96827 12.1449 2.07958 12.4C4.09958 17.09 7.89958 20 11.9996 20C16.0996 20 19.8996 17.09 21.9196 12.4C22.0309 12.1449 22.0309 11.8551 21.9196 11.6ZM11.9996 18C8.82958 18 5.82958 15.71 4.09958 12C5.82958 8.29 8.82958 6 11.9996 6C15.1696 6 18.1696 8.29 19.8996 12C18.1696 15.71 15.1696 18 11.9996 18ZM11.9996 8C9.79044 8 7.99958 9.79086 7.99958 12C7.99958 14.2091 9.79044 16 11.9996 16C14.2087 16 15.9996 14.2091 15.9996 12C15.9996 10.9391 15.5782 9.92172 14.828 9.17157C14.0779 8.42143 13.0604 8 11.9996 8ZM11.9996 14C10.895 14 9.99958 13.1046 9.99958 12C9.99958 10.8954 10.895 10 11.9996 10C13.1041 10 13.9996 10.8954 13.9996 12C13.9996 13.1046 13.1041 14 11.9996 14Z" fill="currentColor"/>
</svg>
