<!--
  Licensed to the Apache Software Foundation (ASF) under one
  or more contributor license agreements.  See the NOTICE file
  distributed with this work for additional information
  regarding copyright ownership.  The ASF licenses this file
  to you under the Apache License, Version 2.0 (the
  "License"); you may not use this file except in compliance
  with the License.  You may obtain a copy of the License at

    http://www.apache.org/licenses/LICENSE-2.0

  Unless required by applicable law or agreed to in writing,
  software distributed under the License is distributed on an
  "AS IS" BASIS, WITHOUT WARRANTIES OR CONDITIONS OF ANY
  KIND, either express or implied.  See the License for the
  specific language governing permissions and limitations
  under the License.
-->
<svg width="24" height="24" viewBox="0 0 24 24" fill="none" xmlns="http://www.w3.org/2000/svg">
<path fill-rule="evenodd" clip-rule="evenodd" d="M19.9731 9.67407C19.8701 9.38097 19.6008 9.17499 19.2861 9.14856L14.7403 8.49755L12.7031 4.44246C12.5696 4.17187 12.2903 4 11.984 4C11.6778 4 11.3985 4.17187 11.265 4.44246L9.22779 8.48971L4.68199 9.14856C4.38034 9.19065 4.12934 9.39753 4.03488 9.68192C3.9485 9.95951 4.02533 10.2612 4.2346 10.4663L7.5341 13.6037L6.73519 18.0588C6.67696 18.359 6.80168 18.6651 7.05476 18.8431C7.30116 19.0161 7.626 19.0373 7.89361 18.898L11.984 16.8038L16.0585 18.9059C16.1706 18.968 16.2972 19.0004 16.426 19C16.5952 19.0006 16.7603 18.9484 16.8973 18.851C17.1504 18.673 17.2751 18.3669 17.2169 18.0666L16.418 13.6115L19.7175 10.4741C19.9529 10.2783 20.0524 9.96685 19.9731 9.67407ZM14.2593 12.9043L14.8172 16.0154L12.901 15.0264L11.9875 14.5551L9.13324 16.0165L9.5027 13.9567L9.69282 12.8965L7.454 10.7677L9.51467 10.469L10.5458 10.3196L11.983 7.46432L12.9531 9.39539L13.4223 10.3292L16.5034 10.7705L14.2593 12.9043Z" fill="#B2B2B2"/>
</svg>
