<!--
Licensed to the Apache Software Foundation (ASF) under one
or more contributor license agreements.  See the NOTICE file
distributed with this work for additional information
regarding copyright ownership.  The ASF licenses this file
to you under the Apache License, Version 2.0 (the
"License"); you may not use this file except in compliance
with the License.  You may obtain a copy of the License at

  http://www.apache.org/licenses/LICENSE-2.0

Unless required by applicable law or agreed to in writing,
software distributed under the License is distributed on an
"AS IS" BASIS, WITHOUT WARRANTIES OR CONDITIONS OF ANY
KIND, either express or implied.  See the License for the
specific language governing permissions and limitations
under the License.
-->
<svg width="24" height="24" viewBox="0 0 24 24" fill="none" xmlns="http://www.w3.org/2000/svg">
<path fill-rule="evenodd" clip-rule="evenodd" d="M15 7H9V7.5C9 7.77614 8.77614 8 8.5 8C8.22386 8 8 7.77614 8 7.5V7H6.5C5.67157 7 5 7.67157 5 8.5V11H19V8.5C19 7.67157 18.3284 7 17.5 7H16V7.5C16 7.77614 15.7761 8 15.5 8C15.2239 8 15 7.77614 15 7.5V7ZM16 6H17.5C18.8807 6 20 7.11929 20 8.5V16.5074C20 17.8881 18.8807 19.0074 17.5 19.0074H6.5C5.11929 19.0074 4 17.8881 4 16.5074V8.5C4 7.11929 5.11929 6 6.5 6H8V5.5C8 5.22386 8.22386 5 8.5 5C8.77614 5 9 5.22386 9 5.5V6H15V5.5C15 5.22386 15.2239 5 15.5 5C15.7761 5 16 5.22386 16 5.5V6ZM5 12V16.5074C5 17.3358 5.67157 18.0074 6.5 18.0074H17.5C18.3284 18.0074 19 17.3358 19 16.5074V12H5Z" fill="currentColor"/>
</svg>
