<!--
Licensed to the Apache Software Foundation (ASF) under one
or more contributor license agreements.  See the NOTICE file
distributed with this work for additional information
regarding copyright ownership.  The ASF licenses this file
to you under the Apache License, Version 2.0 (the
"License"); you may not use this file except in compliance
with the License.  You may obtain a copy of the License at

  http://www.apache.org/licenses/LICENSE-2.0

Unless required by applicable law or agreed to in writing,
software distributed under the License is distributed on an
"AS IS" BASIS, WITHOUT WARRANTIES OR CONDITIONS OF ANY
KIND, either express or implied.  See the License for the
specific language governing permissions and limitations
under the License.
-->
<svg width="24" height="24" viewBox="0 0 24 24" fill="none" xmlns="http://www.w3.org/2000/svg">
<path fill-rule="evenodd" clip-rule="evenodd" d="M12.0005 4H11.0005V20H12.0005V4ZM15.248 12.4746C15.248 14.8184 16.1611 16.166 17.748 16.166C19.3301 16.166 20.2383 14.8281 20.2383 12.4893C20.2383 10.1553 19.3154 8.78809 17.748 8.78809C16.1709 8.78809 15.248 10.1504 15.248 12.4746ZM5.5791 9.93066V16H6.45801V8.9541H5.58398L3.70898 10.3018V11.2295L5.50098 9.93066H5.5791ZM17.748 15.3994C18.7881 15.3994 19.3545 14.3643 19.3545 12.4746C19.3545 10.6045 18.7783 9.55957 17.748 9.55957C16.7178 9.55957 16.1318 10.6143 16.1318 12.4746C16.1318 14.3594 16.708 15.3994 17.748 15.3994Z" fill="currentColor"/>
</svg>
