<svg width="24" height="24" viewBox="0 0 24 24" fill="none" xmlns="http://www.w3.org/2000/svg">
<path fill-rule="evenodd" clip-rule="evenodd" d="M19 5.49999H12.72L12.4 4.49999C11.9748 3.29734 10.8356 2.49507 9.56 2.49999H5C3.34315 2.49999 2 3.84314 2 5.49999V18.5C2 20.1568 3.34315 21.5 5 21.5H19C20.6569 21.5 22 20.1568 22 18.5V8.49999C22 6.84314 20.6569 5.49999 19 5.49999ZM20 18.5C20 19.0523 19.5523 19.5 19 19.5H5C4.44772 19.5 4 19.0523 4 18.5V5.49999C4 4.94771 4.44772 4.49999 5 4.49999H9.56C9.98992 4.49888 10.3724 4.77268 10.51 5.17999L11.05 6.81999C11.1876 7.2273 11.5701 7.5011 12 7.49999H19C19.5523 7.49999 20 7.94771 20 8.49999V18.5Z" fill="#323232"/>
</svg>
