<svg width="24" height="24" viewBox="0 0 24 24" fill="none" xmlns="http://www.w3.org/2000/svg">
<path fill-rule="evenodd" clip-rule="evenodd" d="M12 18C15.3137 18 18 15.3137 18 12C18 8.68629 15.3137 6 12 6C8.68629 6 6 8.68629 6 12C6 15.3137 8.68629 18 12 18Z" fill="#323232"/>
<path fill-rule="evenodd" clip-rule="evenodd" d="M12 16C11.4477 16 11 15.6269 11 15.1667V12H10V11H12C12.5523 11 13 11.3731 13 11.8333V15.1667C13 15.6269 12.5523 16 12 16ZM11 9C11 9.55228 11.4477 10 12 10C12.5523 10 13 9.55228 13 9C13 8.44772 12.5523 8 12 8C11.4477 8 11 8.44772 11 9Z" fill="white"/>
</svg>
