<!--
Licensed to the Apache Software Foundation (ASF) under one
or more contributor license agreements.  See the NOTICE file
distributed with this work for additional information
regarding copyright ownership.  The ASF licenses this file
to you under the Apache License, Version 2.0 (the
"License"); you may not use this file except in compliance
with the License.  You may obtain a copy of the License at

  http://www.apache.org/licenses/LICENSE-2.0

Unless required by applicable law or agreed to in writing,
software distributed under the License is distributed on an
"AS IS" BASIS, WITHOUT WARRANTIES OR CONDITIONS OF ANY
KIND, either express or implied.  See the License for the
specific language governing permissions and limitations
under the License.
-->
<svg width="24" height="24" viewBox="0 0 24 24" fill="none" xmlns="http://www.w3.org/2000/svg">
<path fill-rule="evenodd" clip-rule="evenodd" d="M11 12H10V11H12C12.5523 11 13 11.4477 13 12V16H14V17H12H10V16H11V12ZM12.38 7.08C12.1365 6.97998 11.8635 6.97998 11.62 7.08C11.4972 7.12759 11.3851 7.19896 11.29 7.29C11.2017 7.3872 11.1306 7.49882 11.08 7.62C11.024 7.73868 10.9966 7.86882 11 8C10.9985 8.2658 11.1028 8.52128 11.29 8.71C11.3872 8.79833 11.4988 8.86936 11.62 8.92C11.9276 9.04639 12.278 9.01156 12.5547 8.82707C12.8314 8.64258 12.9983 8.33258 13 8C12.9963 7.73523 12.8927 7.48163 12.71 7.29C12.6149 7.19896 12.5028 7.12759 12.38 7.08ZM12 2C6.47715 2 2 6.47715 2 12C2 17.5228 6.47715 22 12 22C17.5228 22 22 17.5228 22 12C22 9.34784 20.9464 6.8043 19.0711 4.92893C17.1957 3.05357 14.6522 2 12 2ZM12 20C7.58172 20 4 16.4183 4 12C4 7.58172 7.58172 4 12 4C16.4183 4 20 7.58172 20 12C20 14.1217 19.1571 16.1566 17.6569 17.6569C16.1566 19.1571 14.1217 20 12 20Z" fill="currentColor"/>
</svg>
