<svg width="24" height="24" viewBox="0 0 24 24" fill="none" xmlns="http://www.w3.org/2000/svg">
<path fill-rule="evenodd" clip-rule="evenodd" d="M21 20H4V3H3V21H21V20Z" fill="#323232"/>
<path fill-rule="evenodd" clip-rule="evenodd" d="M17 4C16.4477 4 16 4.44772 16 5V18C16 18.5523 16.4477 19 17 19H18C18.5523 19 19 18.5523 19 18V5C19 4.44772 18.5523 4 18 4H17ZM11 8C11 7.44772 11.4477 7 12 7H13C13.5523 7 14 7.44772 14 8V18C14 18.5523 13.5523 19 13 19H12C11.4477 19 11 18.5523 11 18V8ZM6 11C6 10.4477 6.44772 10 7 10H8C8.55228 10 9 10.4477 9 11V18C9 18.5523 8.55228 19 8 19H7C6.44772 19 6 18.5523 6 18V11Z" fill="#323232"/>
</svg>
