<svg width="24" height="24" viewBox="0 0 24 24" fill="none" xmlns="http://www.w3.org/2000/svg">
<path fill-rule="evenodd" clip-rule="evenodd" d="M12 2C6.47715 2 2 6.47715 2 12C2 17.5228 6.47715 22 12 22C17.5228 22 22 17.5228 22 12C22 9.34784 20.9464 6.8043 19.0711 4.92893C17.1957 3.05357 14.6522 2 12 2ZM13 19.93V19C13 18.4477 12.5523 18 12 18C11.4477 18 11 18.4477 11 19V19.93C7.37981 19.4709 4.52909 16.6202 4.07 13H5C5.55228 13 6 12.5523 6 12C6 11.4477 5.55228 11 5 11H4.07C4.52909 7.37981 7.37981 4.52909 11 4.07V5C11 5.55228 11.4477 6 12 6C12.5523 6 13 5.55228 13 5V4.07C16.6202 4.52909 19.4709 7.37981 19.93 11H19C18.4477 11 18 11.4477 18 12C18 12.5523 18.4477 13 19 13H19.93C19.4709 16.6202 16.6202 19.4709 13 19.93Z" fill="#323232"/>
<path fill-rule="evenodd" clip-rule="evenodd" d="M10.1392 9.67005L15.1392 7.55005C15.514 7.39198 15.9472 7.47671 16.2349 7.76436C16.5225 8.052 16.6072 8.48523 16.4492 8.86005L14.3292 13.8601C14.2282 14.0931 14.0422 14.2791 13.8092 14.3801L8.80916 16.5001C8.68418 16.5594 8.54753 16.5902 8.40916 16.5901C8.14539 16.5863 7.89379 16.4785 7.70916 16.2901C7.42116 16.0006 7.33803 15.5652 7.49916 15.1901L9.61916 10.1901C9.72015 9.95696 9.90607 9.77105 10.1392 9.67005ZM10.3692 13.6501L12.6492 12.6501L13.6492 10.3701L11.3692 11.3701L10.3692 13.6501Z" fill="#323232"/>
</svg>
