<!--
  Licensed to the Apache Software Foundation (ASF) under one
  or more contributor license agreements.  See the NOTICE file
  distributed with this work for additional information
  regarding copyright ownership.  The ASF licenses this file
  to you under the Apache License, Version 2.0 (the
  "License"); you may not use this file except in compliance
  with the License.  You may obtain a copy of the License at
 
    http://www.apache.org/licenses/LICENSE-2.0
 
  Unless required by applicable law or agreed to in writing,
  software distributed under the License is distributed on an
  "AS IS" BASIS, WITHOUT WARRANTIES OR CONDITIONS OF ANY
  KIND, either express or implied.  See the License for the
  specific language governing permissions and limitations
  under the License.
-->
<svg width="24" height="24" viewBox="0 0 24 24" fill="none" xmlns="http://www.w3.org/2000/svg">
<path fill-rule="evenodd" clip-rule="evenodd" d="M12 2C6.47715 2 2 6.47715 2 12C2 17.5228 6.47715 22 12 22C17.5228 22 22 17.5228 22 12C22 9.34784 20.9464 6.8043 19.0711 4.92893C17.1957 3.05357 14.6522 2 12 2Z" fill="#666666"/>
<path fill-rule="evenodd" clip-rule="evenodd" d="M11.0003 8C11.0003 7.44772 11.448 7 12.0003 7C12.5526 7 13.0003 7.44772 13.0003 8V12C13.0003 12.5523 12.5526 13 12.0003 13C11.448 13 11.0003 12.5523 11.0003 12V8ZM11.2903 15.29C11.3854 15.199 11.4975 15.1276 11.6203 15.08C11.8637 14.98 12.1368 14.98 12.3803 15.08C12.503 15.1276 12.6152 15.199 12.7103 15.29C12.893 15.4816 12.9966 15.7352 13.0003 16C12.9986 16.3326 12.8317 16.6426 12.555 16.8271C12.2783 17.0116 11.9279 17.0464 11.6203 16.92C11.4991 16.8694 11.3875 16.7983 11.2903 16.71C11.1031 16.5213 10.9987 16.2658 11.0003 16C10.9969 15.8688 11.0243 15.7387 11.0803 15.62C11.1309 15.4988 11.2019 15.3872 11.2903 15.29Z" fill="white"/>
</svg>
