<!--
Licensed to the Apache Software Foundation (ASF) under one
or more contributor license agreements.  See the NOTICE file
distributed with this work for additional information
regarding copyright ownership.  The ASF licenses this file
to you under the Apache License, Version 2.0 (the
"License"); you may not use this file except in compliance
with the License.  You may obtain a copy of the License at

  http://www.apache.org/licenses/LICENSE-2.0

Unless required by applicable law or agreed to in writing,
software distributed under the License is distributed on an
"AS IS" BASIS, WITHOUT WARRANTIES OR CONDITIONS OF ANY
KIND, either express or implied.  See the License for the
specific language governing permissions and limitations
under the License.
-->
<svg width="24" height="24" viewBox="0 0 24 24" fill="none" xmlns="http://www.w3.org/2000/svg">
<path fill-rule="evenodd" clip-rule="evenodd" d="M13.4099 12L19.7099 5.71C20.1021 5.31788 20.1021 4.68212 19.7099 4.29C19.3178 3.89788 18.6821 3.89788 18.2899 4.29L11.9999 10.59L5.70994 4.29C5.31782 3.89788 4.68206 3.89788 4.28994 4.29C3.89782 4.68212 3.89782 5.31788 4.28994 5.71L10.5899 12L4.28994 18.29C4.10063 18.4778 3.99414 18.7334 3.99414 19C3.99414 19.2666 4.10063 19.5222 4.28994 19.71C4.47771 19.8993 4.7333 20.0058 4.99994 20.0058C5.26658 20.0058 5.52217 19.8993 5.70994 19.71L11.9999 13.41L18.2899 19.71C18.4777 19.8993 18.7333 20.0058 18.9999 20.0058C19.2666 20.0058 19.5222 19.8993 19.7099 19.71C19.8993 19.5222 20.0057 19.2666 20.0057 19C20.0057 18.7334 19.8993 18.4778 19.7099 18.29L13.4099 12Z" fill="currentColor"/>
</svg>
