<svg xmlns="http://www.w3.org/2000/svg" xmlns:xlink="http://www.w3.org/1999/xlink" id="Capa_1" x="0px" y="0px" viewBox="0 0 841.9 372" style="enable-background:new 0 0 841.9 372;" xml:space="preserve"><style type="text/css">	.st0{fill-rule:evenodd;clip-rule:evenodd;fill:#1B1B19;}	.st1{fill-rule:evenodd;clip-rule:evenodd;fill:#D80F16;}</style><path class="st0" d="M87,204.9v3.8c0,4.2-1.1,8.1-3.3,11.5c-2.2,3.5-5.5,5.9-9.8,7.4c-2.1,0.7-4.5,1.5-7.2,2.3 c-2.7,0.9-5.3,1.8-7.8,2.6c-2.5,0.8-4.7,1.6-6.6,2.3c-1.9,0.7-3,1.1-3.5,1.2c-0.5,0.2-1.1,0.5-1.8,0.9c-0.7,0.4-1.4,1-2.1,1.7 c-0.7,0.8-1.3,1.7-1.8,2.7c-0.5,1-0.8,2.2-0.8,3.5v3l0,18H27.4l0-99c0.1-5.7,2.5-10.5,7.3-14.3c4.7-3.8,12.2-5.8,22.5-5.8 c5.3,0,9.8,0.5,13.5,1.6c3.7,1.1,6.8,2.5,9.3,4.3c2.5,1.8,4.2,4,5.3,6.4c1.1,2.5,1.7,5.1,1.7,7.9v4L87,204.9L87,204.9z M72.3,170.1 c-0.1-1.4-0.4-2.8-1-4.2c-0.5-1.3-1.3-2.5-2.5-3.5c-1.1-1-2.6-1.8-4.6-2.3c-1.9-0.6-4.3-0.8-7.1-0.8c-2.9,0-5.4,0.3-7.3,0.9 c-1.9,0.6-3.4,1.4-4.6,2.4c-1.1,1-1.9,2.1-2.4,3.3c-0.5,1.2-0.7,2.4-0.7,3.6l0,35.4v0.8l0,20.7c0.2-1.2,0.8-2.1,1.7-2.7 c0.9-0.6,1.8-1,2.7-1.2c1.9-0.6,3.8-1.2,5.8-1.9c2-0.7,3.9-1.4,5.6-1.9c2.1-0.7,4.1-1.3,6-2c1.5-0.6,2.9-1.3,4.2-2.3 c1.1-0.9,2-2,2.8-3.4c0.8-1.4,1.2-3.1,1.2-5.3v-0.8L72.3,170.1z"></path><path class="st0" d="M190.1,213.8v2.7c0,1.3-0.2,3.1-0.7,5.3c-0.5,2.2-1.7,4.5-3.7,6.7c-2,2.2-5,4.1-8.9,5.8 c-4,1.6-9.5,2.4-16.5,2.4s-12.5-0.8-16.5-2.4c-4-1.6-6.9-3.5-8.9-5.8c-2-2.2-3.2-4.5-3.7-6.8c-0.5-2.3-0.7-4.1-0.7-5.3v-1.8l0-47.6 c0-1.2,0.2-3,0.7-5.3c0.5-2.3,1.7-4.5,3.7-6.8c2-2.2,5-4.2,8.9-5.8c4-1.6,9.5-2.4,16.5-2.4c7,0,12.5,0.8,16.5,2.4 c4,1.6,6.9,3.5,8.9,5.8c2,2.2,3.2,4.5,3.7,6.7c0.5,2.2,0.7,4,0.7,5.4L190.1,213.8L190.1,213.8z M175.2,212.1l0-40.8v-1.8 c0-1-0.2-2.1-0.5-3.3c-0.3-1.2-1.1-2.3-2.2-3.3c-1.1-1-2.7-1.9-4.6-2.6c-2-0.7-4.7-1.1-8.1-1.1c-3.2,0-5.7,0.4-7.6,1.1 c-1.9,0.7-3.4,1.6-4.5,2.7c-1.1,1.1-1.7,2.2-2,3.4c-0.3,1.2-0.4,2.3-0.4,3.2v1.7l0,40.8v1.7c0,0.9,0.1,1.9,0.4,3.2 c0.3,1.2,1,2.4,2,3.4c1.1,1.1,2.5,2,4.5,2.7c1.9,0.7,4.5,1.1,7.6,1.1c3.4,0,6.1-0.4,8.1-1.1c2-0.7,3.5-1.6,4.6-2.6 c1.1-1,1.8-2.1,2.2-3.3c0.3-1.2,0.5-2.3,0.5-3.3V212.1z"></path><path class="st0" d="M384.9,235.3H370l0-64.2v-1.5c0-1-0.1-2.1-0.4-3.3c-0.3-1.2-1-2.3-2-3.4c-1.1-1.1-2.5-1.9-4.5-2.7 c-1.9-0.7-4.5-1.1-7.6-1.1c-3.3,0-5.9,0.4-8,1.1c-2,0.7-3.6,1.6-4.7,2.6c-1.1,1-1.8,2.1-2.2,3.3c-0.3,1.2-0.5,2.2-0.5,3.1v1.8 l0,64.2h-14.9l0-65.4v-3c0-1.3,0.2-3.1,0.7-5.4c0.5-2.2,1.7-4.5,3.8-6.7c2-2.2,5-4.2,9-5.8c4-1.6,9.5-2.4,16.5-2.4 c7,0,12.5,0.8,16.5,2.4c4,1.6,7,3.5,8.9,5.8c2,2.2,3.2,4.5,3.7,6.8c0.5,2.3,0.7,4,0.7,5.3v1.7L384.9,235.3z"></path><path class="st0" d="M434.8,171c0-3.2-1-6-3.1-8.3c-2-2.3-6-3.4-11.8-3.4c-2.9,0-5.3,0.3-7.3,0.9c-1.9,0.6-3.5,1.4-4.6,2.4 c-1.2,1-2,2.1-2.5,3.3c-0.5,1.2-0.7,2.3-0.7,3.4v3.2c0,1.3,0.3,2.5,0.8,3.5c0.5,1,1.1,1.9,1.8,2.7c0.7,0.8,1.4,1.4,2.2,1.7 c0.8,0.4,1.4,0.7,1.8,0.9c0.5,0.1,1.6,0.5,3.5,1.2c1.9,0.7,4.1,1.4,6.6,2.3c2.5,0.8,5.1,1.7,7.8,2.6c2.7,0.9,5.1,1.7,7.2,2.3 c4.2,1.4,7.4,3.9,9.7,7.4c2.3,3.5,3.4,7.3,3.4,11.5v7.9c0,2-0.4,4.2-1.1,6.6c-0.8,2.4-2.3,4.6-4.5,6.6c-2.2,2-5.3,3.7-9.1,5 c-3.9,1.3-8.9,2-15.1,2c-6.2,0-11.2-0.7-15.1-2c-3.9-1.3-6.9-3-9.1-5c-2.2-2-3.7-4.2-4.5-6.6c-0.8-2.4-1.1-4.6-1.1-6.6v-4.9h14.7 c0,4,1.1,7.1,3.2,9.3c2.1,2.2,6.1,3.3,11.9,3.3c5.7,0,9.6-1,11.8-3.1c2.1-2.1,3.2-5.2,3.2-9.5c0-2.1-0.4-3.9-1.2-5.3 c-0.8-1.4-1.8-2.5-2.8-3.4c-1.3-1-2.7-1.8-4.2-2.3c-3.5-1.2-6.8-2.3-9.8-3.3c-2.7-0.9-5.3-1.8-7.8-2.6c-2.5-0.8-4.4-1.4-5.5-1.8 c-1.2-0.5-2.5-1.1-4-2c-1.5-0.9-3-2.1-4.4-3.5c-1.4-1.5-2.6-3.2-3.5-5.3c-0.9-2.1-1.4-4.4-1.4-7.1v-8c0-5.8,2.4-10.6,7.2-14.5 c4.8-3.8,12.3-5.8,22.6-5.8c5.3,0,9.8,0.5,13.5,1.6c3.7,1.1,6.8,2.5,9.3,4.3c2.5,1.8,4.2,4,5.3,6.4c1.1,2.5,1.7,5.1,1.7,7.9v4H434.8 z"></path><polygon class="st0" points="457.1,235.3 457.1,146.4 471.8,146.4 471.8,235.3 "></polygon><path class="st1" d="M319.8,213.8v2.7c0,1.3-0.2,3.1-0.7,5.3c-0.5,2.2-1.7,4.5-3.7,6.7c-2,2.2-5,4.1-8.9,5.8 c-4,1.6-9.5,2.4-16.5,2.4c-7,0-12.5-0.8-16.5-2.4c-8.1-3.3-11.3-8-14.2-15.6l6.9-17.2c3.1,7.7,6.8,18.2,15.7,21.5 c1.9,0.7,4.5,1.1,7.6,1.1c3.4,0,6.1-0.4,8.1-1.1c2.9-1,5.9-2.8,6.8-5.8c0.3-1.2,0.5-2.3,0.5-3.3c0-14.8,0-29.7,0-44.5 c0-1-0.2-2.1-0.5-3.3c-0.3-1.2-1.1-2.3-2.2-3.3c-1.1-1-2.7-1.9-4.6-2.6c-2-0.7-4.7-1.1-8.1-1.1c-3.2,0-5.7,0.4-7.6,1.1 c-5.9,2.2-6.5,7-8.5,12.1c-6.3,16.7-13.2,33.6-19.6,50.6c-0.9,2.4-2.2,4.6-4.5,6.6c-2.2,2-5.3,3.7-9.1,5c-3.9,1.3-8.9,2-15.1,2 c-6.2,0-11.2-0.7-15.1-2c-3.9-1.3-6.9-3-9.1-5c-2.2-2-3.7-4.2-4.5-6.6c-0.8-2.4-1.1-4.6-1.1-6.6v-7.9l0-37.6v-4 c0-2.8,0.6-5.4,1.7-7.9c1.1-2.5,2.9-4.6,5.3-6.4c2.5-1.8,5.6-3.3,9.3-4.3c3.7-1.1,8.2-1.6,13.5-1.6c10.2,0,17.6,1.8,22.4,5.5 l-5.6,14.4c-1.5-5.2-9.2-7.4-16.7-7.4c-8.3,0-14.9,3-14.9,11.7v40.6c0,4.2,1,7.4,3.1,9.5c2.1,2.1,6,3.1,11.7,3.1 c9.7,0,11.2-1.4,14.4-9.2c6.5-15.6,14.8-36.7,20-50.6c1.2-3.3,2.7-6.8,5.1-9.5c2-2.2,5-4.2,8.9-5.8c4-1.6,9.5-2.4,16.5-2.4 c7,0,12.5,0.8,16.5,2.4c4,1.6,7,3.5,8.9,5.8c2,2.2,3.2,4.5,3.7,6.7c0.5,2.2,0.7,4,0.7,5.4L319.8,213.8z"></path><path class="st0" d="M122.1,146.9c2,0,3.7,0,5.2-0.1c0.7,0,1.4,0,2.1,0l-5.9,12.6c-0.6,0-1.1,0-1.8,0c-3.2,0-5.7,0.4-7.6,1.2 c-1.9,0.8-3.4,1.7-4.5,2.8c-1.1,1.1-1.7,2.2-2,3.3c-0.3,1.2-0.4,2.3-0.4,3.3v1.5l0,63.9H92.3l0-64.4v-3.8c0-1.2,0.2-3,0.7-5.3 c0.5-2.3,1.7-4.5,3.7-6.8c2-2.2,5-4.2,8.9-5.8C109.6,147.7,115.1,146.9,122.1,146.9z"></path><path class="st0" d="M515.7,102.5L515.7,102.5c-1.3,0-2.3,0.7-2.3,1.6V278c0,0.9,1,1.6,2.3,1.6l0,0c1.3,0,2.3-0.7,2.3-1.6V104.1 C518.1,103.2,517,102.5,515.7,102.5z"></path><g>	<path class="st0" d="M660.1,129.5c-23.1,13.7-48.9,42.9-59.2,68.3c-17.4,42.8-14.6,87.3,21.2,105.6l54.8,16.8  c-34.2-12.6-41.4-58.6-28.2-89.9c6.9-16.3,21.7-34.8,34.7-46.4c-3-15.7-12.1-39.6-21.9-52.6C661.1,130.7,660.6,130.1,660.1,129.5z"></path>	<path class="st1" d="M719.8,102c-28.4-36.7-68.5-56.8-102.3-34.8l-41.9,39c28-23.3,71.4-6.5,91.9,20.6c10.8,14.2,19.4,36.6,23,53.8  c13.8,4.7,40.1,9.4,56.1,7.4c0.7-0.1,1.4-0.2,2.2-0.3C748.5,162.2,735.7,122.6,719.8,102z"></path>	<path class="st1" d="M740.4,253.2c47.1-5.7,85.9-30.6,83.7-71.5l-12.8-55.8c6.4,36.9-31.5,65.4-63.9,69.5c-16.2,2-42.3-2-57.7-7.1  c-11.9,10.4-27.9,30.1-34.1,44.9c-0.3,0.8-0.7,1.7-1,2.6C676.6,248,714.9,256.3,740.4,253.2z"></path>	<path class="st0" d="M789.3,167c-9.3-6.2-22.9-11.3-37.6-11.1c-5.3-22-10.7-36.7-23.5-55.4c31.5-6,58.9,0.5,69.4,16.2  C809.4,134.2,803.2,153.2,789.3,167z"></path>	<path class="st1" d="M622,104.7c-0.6,10.9,2.4,25.5,9.4,37.9c-14.7,14-27.4,30.2-36.1,48.5l-0.7-0.8c-20.7-24.2-28.6-51-20.4-67.8  C583.4,103.7,603,99.6,622,104.7z"></path>	<path class="st1" d="M652.3,280.7c9.9-4.9,21-14,28.2-26.5c19.4,5.7,39.7,8.6,59.9,6.9c-10.6,30.3-29.9,50.8-48.7,52  C670.8,314.6,657.3,299.7,652.3,280.7z"></path></g></svg>