<!--
  Licensed to the Apache Software Foundation (ASF) under one
  or more contributor license agreements.  See the NOTICE file
  distributed with this work for additional information
  regarding copyright ownership.  The ASF licenses this file
  to you under the Apache License, Version 2.0 (the
  "License"); you may not use this file except in compliance
  with the License.  You may obtain a copy of the License at

    http://www.apache.org/licenses/LICENSE-2.0

  Unless required by applicable law or agreed to in writing,
  software distributed under the License is distributed on an
  "AS IS" BASIS, WITHOUT WARRANTIES OR CONDITIONS OF ANY
  KIND, either express or implied.  See the License for the
  specific language governing permissions and limitations
  under the License.
-->
<svg width="20" height="20" viewBox="0 0 20 20" fill="none" xmlns="http://www.w3.org/2000/svg">
<path fill-rule="evenodd" clip-rule="evenodd" d="M10 0C4.4775 0 0 4.4775 0 10C0 15.5225 4.4775 20 10 20C15.5225 20 20 15.5225 20 10C20 4.4775 15.5225 0 10 0ZM14.65 8.29125L9.5775 13.3625C9.11 13.83 8.35375 13.83 7.88625 13.3625L5.35 10.8275C4.8825 10.3612 4.8825 9.60375 5.35 9.13625C5.8175 8.66875 6.57375 8.66875 7.04125 9.13625L8.7325 10.8275L12.96 6.6C13.4275 6.1325 14.1837 6.1325 14.6512 6.6C15.1187 7.0675 15.1175 7.82375 14.65 8.29125Z" fill="#20A7C9"/>
</svg>
