<svg width="25" height="25" viewBox="0 0 25 25" fill="none" xmlns="http://www.w3.org/2000/svg">
<path d="M9.68645 2.60351C10.6529 -0.00834131 14.3471 -0.00833702 15.3136 2.60352L16.7479 6.47969C17.0517 7.30085 17.6992 7.94828 18.5203 8.25213L22.3965 9.68645C25.0083 10.6529 25.0083 14.3471 22.3965 15.3136L18.5203 16.7479C17.6992 17.0517 17.0517 17.6992 16.7479 18.5203L15.3136 22.3965C14.3471 25.0083 10.6529 25.0083 9.68645 22.3965L8.25213 18.5203C7.94828 17.6992 7.30085 17.0517 6.47969 16.7479L2.60351 15.3136C-0.00834131 14.3471 -0.00833702 10.6529 2.60352 9.68645L6.47969 8.25213C7.30085 7.94828 7.94828 7.30085 8.25213 6.47969L9.68645 2.60351Z" fill="white" fill-opacity="0.56"/>
</svg>
