<svg width="24" height="25" viewBox="0 0 24 25" fill="none" xmlns="http://www.w3.org/2000/svg">
<path d="M11.5 22.5C9.96667 22.5 8.66667 21.9667 7.6 20.9C6.53333 19.8333 6 18.5333 6 17V6.5C6 5.4 6.39167 4.45833 7.175 3.675C7.95833 2.89167 8.9 2.5 10 2.5C11.1 2.5 12.0417 2.89167 12.825 3.675C13.6083 4.45833 14 5.4 14 6.5V16C14 16.7 13.7583 17.2917 13.275 17.775C12.7917 18.2583 12.2 18.5 11.5 18.5C10.8 18.5 10.2083 18.2583 9.725 17.775C9.24167 17.2917 9 16.7 9 16V6.5H10.5V16C10.5 16.2833 10.5958 16.5208 10.7875 16.7125C10.9792 16.9042 11.2167 17 11.5 17C11.7833 17 12.0208 16.9042 12.2125 16.7125C12.4042 16.5208 12.5 16.2833 12.5 16V6.5C12.5 5.8 12.2583 5.20833 11.775 4.725C11.2917 4.24167 10.7 4 10 4C9.3 4 8.70833 4.24167 8.225 4.725C7.74167 5.20833 7.5 5.8 7.5 6.5V17C7.5 18.1 7.89167 19.0417 8.675 19.825C9.45833 20.6083 10.4 21 11.5 21C12.6 21 13.5417 20.6083 14.325 19.825C15.1083 19.0417 15.5 18.1 15.5 17V6.5H17V17C17 18.5333 16.4667 19.8333 15.4 20.9C14.3333 21.9667 13.0333 22.5 11.5 22.5Z" fill="#1D1B20"/>
</svg>
