<svg width="130" height="42" viewBox="0 0 130 42" fill="none" xmlns="http://www.w3.org/2000/svg">
<g clip-path="url(#clip0_2045_47)">
<path d="M13.6779 17.7548C13.7057 16.9346 13.3556 16.1449 12.7288 15.6148C11.725 14.8922 10.5905 14.3693 9.3889 14.0747C7.14232 13.5195 5.01752 12.5543 3.12105 11.2273C1.72421 10.1725 0.928194 8.49899 0.989977 6.75026C0.970278 4.88333 1.88986 3.12565 3.43444 2.07623C5.26734 0.802957 7.47273 0.17259 9.70229 0.285412C11.9695 0.18423 14.1981 0.909512 15.9702 2.32694C17.5049 3.53485 18.3707 5.40804 18.2982 7.35914V7.44868H13.7674C13.8042 6.46194 13.4084 5.50564 12.684 4.83408C11.8396 4.12761 10.7562 3.77124 9.65753 3.84018C8.62512 3.77661 7.60167 4.06762 6.7564 4.66396C6.10544 5.17792 5.72847 5.96588 5.73564 6.79503C5.75086 7.54717 6.13678 8.24469 6.76536 8.65748C7.94103 9.35411 9.20624 9.88687 10.5261 10.2424C12.6589 10.7375 14.6539 11.7046 16.3641 13.0718C17.6867 14.2377 18.4173 15.9389 18.3519 17.7011C18.4128 19.5707 17.5219 21.349 15.9881 22.4199C14.1417 23.66 11.9408 24.2662 9.72021 24.148C7.35902 24.2009 5.03901 23.515 3.08523 22.1871C1.24785 20.9837 0.193059 18.8812 0.32737 16.6893V16.5908H4.97454C4.87515 17.7539 5.35061 18.8956 6.24602 19.6441C7.29991 20.3524 8.55975 20.6927 9.82765 20.6112C10.8583 20.681 11.8835 20.4034 12.7377 19.8232C13.3654 19.3254 13.7155 18.5544 13.6779 17.7548Z" fill="#484848"/>
<path d="M31.8368 21.3454C31.347 22.2041 30.6477 22.9249 29.8042 23.4407C27.4636 24.7372 24.5258 24.3182 22.6409 22.4199C21.6139 21.2263 21.1008 19.4113 21.1008 16.9758V6.5264H25.757V17.0295C25.6862 17.9688 25.9083 18.9081 26.3927 19.7158C26.8529 20.2781 27.5567 20.5852 28.282 20.5395C28.9419 20.5539 29.5965 20.4321 30.2071 20.1814C30.73 19.945 31.1813 19.5743 31.5144 19.1069V6.5264H36.1885V23.8346H32.2039L31.8368 21.3454Z" fill="#484848"/>
<path d="M55.0009 15.6596C55.1084 17.8605 54.478 20.0354 53.2101 21.8379C52.0452 23.3869 50.1854 24.2626 48.2496 24.1749C47.4168 24.1883 46.5913 24.0173 45.832 23.6735C45.1273 23.3243 44.5139 22.8157 44.0411 22.1871V30.4965H39.385V6.5264H43.5934L43.871 8.56793C44.3438 7.8525 44.975 7.25526 45.7156 6.82188C46.4883 6.39835 47.3595 6.18525 48.2406 6.20405C50.2239 6.12615 52.1123 7.07886 53.228 8.72015C54.5022 10.6811 55.129 12.993 55.0188 15.3283L55.0009 15.6596ZM50.3269 15.3014C50.3806 13.9296 50.1004 12.5659 49.5121 11.3258C49.0536 10.3713 48.0723 9.77315 47.0139 9.80359C46.3898 9.78568 45.7711 9.93432 45.2231 10.2334C44.7243 10.5307 44.316 10.9578 44.0411 11.469V19.0711C44.3205 19.5492 44.7306 19.9378 45.2231 20.1903C45.7809 20.4598 46.3952 20.5915 47.0139 20.5754C48.0275 20.638 48.9936 20.1205 49.5031 19.2412C50.0816 18.1389 50.3573 16.9033 50.3 15.6596L50.3269 15.3014Z" fill="#484848"/>
<path d="M65.1549 24.1749C62.9066 24.277 60.7209 23.4013 59.1646 21.7752C57.6496 20.1151 56.8455 17.924 56.9261 15.6775V15.0417C56.8348 12.7352 57.5896 10.4734 59.0482 8.68433C62.0084 5.54772 67.0174 5.38207 70.1782 8.31722C71.5374 9.8994 72.2367 11.9463 72.1301 14.0299V16.5729H61.7703V16.6714C61.815 17.71 62.2207 18.7013 62.9164 19.474C63.6327 20.2226 64.6392 20.6246 65.6742 20.5754C66.5446 20.5951 67.4131 20.4894 68.253 20.262C69.0311 20.0112 69.7815 19.6817 70.4915 19.277L71.7541 22.1692C70.9267 22.8112 69.9892 23.2965 68.9873 23.6018C67.7498 24.0012 66.4551 24.1946 65.1549 24.1749ZM64.7341 9.84836C63.9291 9.8215 63.1608 10.194 62.6836 10.8423C62.1544 11.6132 61.8446 12.514 61.7882 13.4479L61.8329 13.5285H67.5636V13.1166C67.6074 12.2669 67.3612 11.4261 66.8651 10.7348C66.3512 10.0946 65.5534 9.74629 64.7341 9.80359V9.84836Z" fill="#484848"/>
<path d="M84.039 10.5378H82.3199C81.7208 10.5137 81.1263 10.6632 80.6096 10.9676C80.1565 11.264 79.8011 11.6875 79.5889 12.1854V23.8347H74.9327V6.52641H79.2934L79.4993 9.08728C79.8449 8.26082 80.3894 7.53106 81.0842 6.96516C81.7199 6.46015 82.5115 6.19153 83.3227 6.20406C83.5385 6.20227 83.7543 6.22018 83.9674 6.25779L84.5673 6.3921L84.039 10.5378Z" fill="#484848"/>
<path d="M95.6973 19.0711C95.6866 18.5311 95.4072 18.0306 94.9541 17.7369C94.1071 17.2346 93.1705 16.8997 92.1963 16.752C90.5335 16.4914 88.9504 15.8575 87.567 14.8985C86.5346 14.1105 85.949 12.8659 86 11.5676C85.9974 10.0758 86.694 8.66643 87.8804 7.76207C89.3202 6.6634 91.1039 6.11094 92.9126 6.20406C94.7947 6.10557 96.6563 6.65266 98.1866 7.75312C99.4303 8.66106 100.138 10.1367 100.067 11.675V11.7735H95.5899C95.6131 11.1395 95.3732 10.5235 94.9273 10.0722C94.3891 9.60392 93.6862 9.36843 92.9753 9.41858C92.3315 9.38276 91.6948 9.57975 91.1845 9.97373C90.769 10.3095 90.5308 10.819 90.5398 11.3527C90.5317 11.8774 90.7878 12.3725 91.2203 12.6689C92.0718 13.1462 93.0093 13.4497 93.9781 13.5643C95.6866 13.8159 97.3144 14.4597 98.7328 15.4447C99.7643 16.2676 100.341 17.5381 100.282 18.8562C100.298 20.3828 99.5476 21.82 98.285 22.6796C96.7297 23.729 94.8762 24.2474 93.0021 24.157C91.0233 24.2573 89.0758 23.6189 87.5402 22.3662C86.2928 21.4421 85.5577 19.9781 85.5613 18.4264V18.3368H89.8324C89.7876 19.1132 90.1216 19.8644 90.7278 20.3515C91.3949 20.7938 92.1846 21.0132 92.9842 20.9783C93.68 21.0222 94.3703 20.8395 94.9541 20.459C95.4215 20.1536 95.7027 19.6298 95.6973 19.0711Z" fill="#484848"/>
<path d="M110.507 24.1749C108.262 24.277 106.079 23.4013 104.526 21.7752C103.011 20.1151 102.207 17.924 102.287 15.6775V15.0417C102.197 12.737 102.949 10.476 104.401 8.68433C107.361 5.54772 112.37 5.38207 115.531 8.31722C116.893 9.89761 117.59 11.9463 117.474 14.0299V16.5729H107.132V16.6714C107.174 17.7092 107.577 18.7004 108.269 19.474C108.987 20.2252 109.998 20.6273 111.036 20.5754C111.903 20.5951 112.768 20.4894 113.605 20.262C114.387 20.013 115.14 19.6835 115.853 19.277L117.115 22.1692C116.287 22.8094 115.35 23.2947 114.349 23.6018C113.108 24.0012 111.81 24.1946 110.507 24.1749ZM110.095 9.84836C109.29 9.81792 108.52 10.1913 108.045 10.8423C107.516 11.6141 107.207 12.514 107.15 13.4479L107.203 13.5285H112.934V13.1166C112.978 12.2669 112.731 11.4261 112.235 10.7348C111.72 10.0919 110.917 9.74271 110.095 9.80359V9.84836Z" fill="#484848"/>
<path d="M126.168 2.28217V6.5264H129.087V9.80359H126.168V18.6234C126.12 19.14 126.271 19.6558 126.589 20.065C126.884 20.3596 127.291 20.5163 127.708 20.4948C127.918 20.4957 128.127 20.4813 128.335 20.45C128.544 20.4169 128.75 20.3721 128.953 20.3157L129.356 23.6914C128.906 23.8481 128.445 23.9707 127.977 24.0585C127.497 24.1355 127.012 24.1749 126.526 24.1749C125.155 24.2662 123.806 23.7863 122.801 22.8497C121.833 21.6722 121.363 20.1608 121.494 18.6413V9.80359H118.969V6.5264H121.494V2.28217H126.168Z" fill="#484848"/>
<path d="M54.3438 33.8789V41.4375H52.6562V32.6602H54.2207L54.3438 33.8789ZM58.3574 35.7598V35.8828C58.3574 36.3438 58.3027 36.7715 58.1934 37.166C58.0879 37.5605 57.9316 37.9043 57.7246 38.1973C57.5176 38.4863 57.2598 38.7129 56.9512 38.877C56.6465 39.0371 56.2949 39.1172 55.8965 39.1172C55.5098 39.1172 55.1738 39.0391 54.8887 38.8828C54.6035 38.7266 54.3633 38.5078 54.168 38.2266C53.9766 37.9414 53.8223 37.6113 53.7051 37.2363C53.5879 36.8613 53.498 36.459 53.4355 36.0293V35.707C53.498 35.2461 53.5879 34.8242 53.7051 34.4414C53.8223 34.0547 53.9766 33.7207 54.168 33.4395C54.3633 33.1543 54.6016 32.9336 54.8828 32.7773C55.168 32.6211 55.502 32.543 55.8848 32.543C56.2871 32.543 56.6406 32.6191 56.9453 32.7715C57.2539 32.9238 57.5117 33.1426 57.7188 33.4277C57.9297 33.7129 58.0879 34.0527 58.1934 34.4473C58.3027 34.8418 58.3574 35.2793 58.3574 35.7598ZM56.6641 35.8828V35.7598C56.6641 35.4902 56.6406 35.2422 56.5938 35.0156C56.5508 34.7852 56.4805 34.584 56.3828 34.4121C56.2891 34.2402 56.1641 34.1074 56.0078 34.0137C55.8555 33.916 55.6699 33.8672 55.4512 33.8672C55.2207 33.8672 55.0234 33.9043 54.8594 33.9785C54.6992 34.0527 54.5684 34.1602 54.4668 34.3008C54.3652 34.4414 54.2891 34.6094 54.2383 34.8047C54.1875 35 54.1562 35.2207 54.1445 35.4668V36.2812C54.1641 36.5703 54.2188 36.8301 54.3086 37.0605C54.3984 37.2871 54.5371 37.4668 54.7246 37.5996C54.9121 37.7324 55.1582 37.7988 55.4629 37.7988C55.6855 37.7988 55.873 37.75 56.0254 37.6523C56.1777 37.5508 56.3008 37.4121 56.3945 37.2363C56.4922 37.0605 56.5605 36.8574 56.5996 36.627C56.6426 36.3965 56.6641 36.1484 56.6641 35.8828ZM59.1367 35.8945V35.7715C59.1367 35.3066 59.2031 34.8789 59.3359 34.4883C59.4688 34.0938 59.6621 33.752 59.916 33.4629C60.1699 33.1738 60.4824 32.9492 60.8535 32.7891C61.2246 32.625 61.6504 32.543 62.1309 32.543C62.6113 32.543 63.0391 32.625 63.4141 32.7891C63.7891 32.9492 64.1035 33.1738 64.3574 33.4629C64.6152 33.752 64.8105 34.0938 64.9434 34.4883C65.0762 34.8789 65.1426 35.3066 65.1426 35.7715V35.8945C65.1426 36.3555 65.0762 36.7832 64.9434 37.1777C64.8105 37.5684 64.6152 37.9102 64.3574 38.2031C64.1035 38.4922 63.791 38.7168 63.4199 38.877C63.0488 39.0371 62.623 39.1172 62.1426 39.1172C61.6621 39.1172 61.2344 39.0371 60.8594 38.877C60.4883 38.7168 60.1738 38.4922 59.916 38.2031C59.6621 37.9102 59.4688 37.5684 59.3359 37.1777C59.2031 36.7832 59.1367 36.3555 59.1367 35.8945ZM60.8242 35.7715V35.8945C60.8242 36.1602 60.8477 36.4082 60.8945 36.6387C60.9414 36.8691 61.0156 37.0723 61.1172 37.248C61.2227 37.4199 61.3594 37.5547 61.5273 37.6523C61.6953 37.75 61.9004 37.7988 62.1426 37.7988C62.377 37.7988 62.5781 37.75 62.7461 37.6523C62.9141 37.5547 63.0488 37.4199 63.1504 37.248C63.252 37.0723 63.3262 36.8691 63.373 36.6387C63.4238 36.4082 63.4492 36.1602 63.4492 35.8945V35.7715C63.4492 35.5137 63.4238 35.2715 63.373 35.0449C63.3262 34.8145 63.25 34.6113 63.1445 34.4355C63.043 34.2559 62.9082 34.1152 62.7402 34.0137C62.5723 33.9121 62.3691 33.8613 62.1309 33.8613C61.8926 33.8613 61.6895 33.9121 61.5215 34.0137C61.3574 34.1152 61.2227 34.2559 61.1172 34.4355C61.0156 34.6113 60.9414 34.8145 60.8945 35.0449C60.8477 35.2715 60.8242 35.5137 60.8242 35.7715ZM67.9902 37.3594L69.3086 32.6602H70.3809L70.0352 34.5059L68.7168 39H67.8203L67.9902 37.3594ZM67.3223 32.6602L68.2656 37.3535L68.3535 39H67.2988L65.6934 32.6602H67.3223ZM71.5879 37.2773L72.5078 32.6602H74.1426L72.5371 39H71.4883L71.5879 37.2773ZM70.5273 32.6602L71.8398 37.3242L72.0215 39H71.1191L69.8008 34.5117L69.4668 32.6602H70.5273ZM77.9102 39.1172C77.418 39.1172 76.9766 39.0391 76.5859 38.8828C76.1953 38.7227 75.8633 38.502 75.5898 38.2207C75.3203 37.9395 75.1133 37.6133 74.9688 37.2422C74.8242 36.8672 74.752 36.4688 74.752 36.0469V35.8125C74.752 35.332 74.8203 34.8926 74.957 34.4941C75.0938 34.0957 75.2891 33.75 75.543 33.457C75.8008 33.1641 76.1133 32.9395 76.4805 32.7832C76.8477 32.623 77.2617 32.543 77.7227 32.543C78.1719 32.543 78.5703 32.6172 78.918 32.7656C79.2656 32.9141 79.5566 33.125 79.791 33.3984C80.0293 33.6719 80.209 34 80.3301 34.3828C80.4512 34.7617 80.5117 35.1836 80.5117 35.6484V36.3516H75.4727V35.2266H78.8535V35.0977C78.8535 34.8633 78.8105 34.6543 78.7246 34.4707C78.6426 34.2832 78.5176 34.1348 78.3496 34.0254C78.1816 33.916 77.9668 33.8613 77.7051 33.8613C77.4824 33.8613 77.291 33.9102 77.1309 34.0078C76.9707 34.1055 76.8398 34.2422 76.7383 34.418C76.6406 34.5938 76.5664 34.8008 76.5156 35.0391C76.4688 35.2734 76.4453 35.5312 76.4453 35.8125V36.0469C76.4453 36.3008 76.4805 36.5352 76.5508 36.75C76.625 36.9648 76.7285 37.1504 76.8613 37.3066C76.998 37.4629 77.1621 37.584 77.3535 37.6699C77.5488 37.7559 77.7695 37.7988 78.0156 37.7988C78.3203 37.7988 78.6035 37.7402 78.8652 37.623C79.1309 37.502 79.3594 37.3203 79.5508 37.0781L80.3711 37.9688C80.2383 38.1602 80.0566 38.3438 79.8262 38.5195C79.5996 38.6953 79.3262 38.8398 79.0059 38.9531C78.6855 39.0625 78.3203 39.1172 77.9102 39.1172ZM83.1602 34.043V39H81.4727V32.6602H83.0605L83.1602 34.043ZM85.0703 32.6191L85.041 34.1836C84.959 34.1719 84.8594 34.1621 84.7422 34.1543C84.6289 34.1426 84.5254 34.1367 84.4316 34.1367C84.1934 34.1367 83.9863 34.168 83.8105 34.2305C83.6387 34.2891 83.4941 34.377 83.377 34.4941C83.2637 34.6113 83.1777 34.7539 83.1191 34.9219C83.0645 35.0898 83.0332 35.2812 83.0254 35.4961L82.6855 35.3906C82.6855 34.9805 82.7266 34.6035 82.8086 34.2598C82.8906 33.9121 83.0098 33.6094 83.166 33.3516C83.3262 33.0938 83.5215 32.8945 83.752 32.7539C83.9824 32.6133 84.2461 32.543 84.543 32.543C84.6367 32.543 84.7324 32.5508 84.8301 32.5664C84.9277 32.5781 85.0078 32.5957 85.0703 32.6191ZM88.668 39.1172C88.1758 39.1172 87.7344 39.0391 87.3438 38.8828C86.9531 38.7227 86.6211 38.502 86.3477 38.2207C86.0781 37.9395 85.8711 37.6133 85.7266 37.2422C85.582 36.8672 85.5098 36.4688 85.5098 36.0469V35.8125C85.5098 35.332 85.5781 34.8926 85.7148 34.4941C85.8516 34.0957 86.0469 33.75 86.3008 33.457C86.5586 33.1641 86.8711 32.9395 87.2383 32.7832C87.6055 32.623 88.0195 32.543 88.4805 32.543C88.9297 32.543 89.3281 32.6172 89.6758 32.7656C90.0234 32.9141 90.3145 33.125 90.5488 33.3984C90.7871 33.6719 90.9668 34 91.0879 34.3828C91.209 34.7617 91.2695 35.1836 91.2695 35.6484V36.3516H86.2305V35.2266H89.6113V35.0977C89.6113 34.8633 89.5684 34.6543 89.4824 34.4707C89.4004 34.2832 89.2754 34.1348 89.1074 34.0254C88.9395 33.916 88.7246 33.8613 88.4629 33.8613C88.2402 33.8613 88.0488 33.9102 87.8887 34.0078C87.7285 34.1055 87.5977 34.2422 87.4961 34.418C87.3984 34.5938 87.3242 34.8008 87.2734 35.0391C87.2266 35.2734 87.2031 35.5312 87.2031 35.8125V36.0469C87.2031 36.3008 87.2383 36.5352 87.3086 36.75C87.3828 36.9648 87.4863 37.1504 87.6191 37.3066C87.7559 37.4629 87.9199 37.584 88.1113 37.6699C88.3066 37.7559 88.5273 37.7988 88.7734 37.7988C89.0781 37.7988 89.3613 37.7402 89.623 37.623C89.8887 37.502 90.1172 37.3203 90.3086 37.0781L91.1289 37.9688C90.9961 38.1602 90.8145 38.3438 90.584 38.5195C90.3574 38.6953 90.084 38.8398 89.7637 38.9531C89.4434 39.0625 89.0781 39.1172 88.668 39.1172ZM95.9746 37.6172V30H97.6738V39H96.1445L95.9746 37.6172ZM91.9668 35.9062V35.7832C91.9668 35.2988 92.0215 34.8594 92.1309 34.4648C92.2402 34.0664 92.4004 33.7246 92.6113 33.4395C92.8223 33.1543 93.082 32.9336 93.3906 32.7773C93.6992 32.6211 94.0508 32.543 94.4453 32.543C94.8164 32.543 95.1406 32.6211 95.418 32.7773C95.6992 32.9336 95.9375 33.1562 96.1328 33.4453C96.332 33.7305 96.4922 34.0684 96.6133 34.459C96.7344 34.8457 96.8223 35.2695 96.877 35.7305V36C96.8223 36.4414 96.7344 36.8516 96.6133 37.2305C96.4922 37.6094 96.332 37.9414 96.1328 38.2266C95.9375 38.5078 95.6992 38.7266 95.418 38.8828C95.1367 39.0391 94.8086 39.1172 94.4336 39.1172C94.0391 39.1172 93.6875 39.0371 93.3789 38.877C93.0742 38.7168 92.8164 38.4922 92.6055 38.2031C92.3984 37.9141 92.2402 37.5742 92.1309 37.1836C92.0215 36.793 91.9668 36.3672 91.9668 35.9062ZM93.6543 35.7832V35.9062C93.6543 36.168 93.6738 36.4121 93.7129 36.6387C93.7559 36.8652 93.8242 37.0664 93.918 37.2422C94.0156 37.4141 94.1406 37.5488 94.293 37.6465C94.4492 37.7402 94.6387 37.7871 94.8613 37.7871C95.1504 37.7871 95.3887 37.7227 95.5762 37.5938C95.7637 37.4609 95.9062 37.2793 96.0039 37.0488C96.1055 36.8184 96.1641 36.5527 96.1797 36.252V35.4844C96.168 35.2383 96.1328 35.0176 96.0742 34.8223C96.0195 34.623 95.9375 34.4531 95.8281 34.3125C95.7227 34.1719 95.5898 34.0625 95.4297 33.9844C95.2734 33.9062 95.0879 33.8672 94.873 33.8672C94.6543 33.8672 94.4668 33.918 94.3105 34.0195C94.1543 34.1172 94.0273 34.252 93.9297 34.4238C93.8359 34.5957 93.7656 34.7988 93.7188 35.0332C93.6758 35.2637 93.6543 35.5137 93.6543 35.7832ZM101.98 30H103.668V37.5469L103.498 39H101.98V30ZM107.682 35.7656V35.8887C107.682 36.3613 107.631 36.7949 107.529 37.1895C107.432 37.584 107.279 37.9258 107.072 38.2148C106.865 38.5 106.607 38.7227 106.299 38.8828C105.994 39.0391 105.635 39.1172 105.221 39.1172C104.834 39.1172 104.498 39.0391 104.213 38.8828C103.932 38.7266 103.695 38.5059 103.504 38.2207C103.312 37.9355 103.158 37.6016 103.041 37.2188C102.924 36.8359 102.836 36.418 102.777 35.9648V35.6953C102.836 35.2422 102.924 34.8242 103.041 34.4414C103.158 34.0586 103.312 33.7246 103.504 33.4395C103.695 33.1543 103.932 32.9336 104.213 32.7773C104.494 32.6211 104.826 32.543 105.209 32.543C105.627 32.543 105.99 32.623 106.299 32.7832C106.611 32.9395 106.869 33.1621 107.072 33.4512C107.279 33.7363 107.432 34.0762 107.529 34.4707C107.631 34.8613 107.682 35.293 107.682 35.7656ZM105.994 35.8887V35.7656C105.994 35.5078 105.975 35.2656 105.936 35.0391C105.9 34.8086 105.838 34.6074 105.748 34.4355C105.658 34.2598 105.535 34.1211 105.379 34.0195C105.227 33.918 105.029 33.8672 104.787 33.8672C104.557 33.8672 104.361 33.9062 104.201 33.9844C104.041 34.0625 103.908 34.1719 103.803 34.3125C103.701 34.4531 103.625 34.6211 103.574 34.8164C103.523 35.0078 103.492 35.2188 103.48 35.4492V36.2168C103.492 36.5254 103.543 36.7988 103.633 37.0371C103.727 37.2715 103.867 37.457 104.055 37.5938C104.246 37.7266 104.494 37.793 104.799 37.793C105.037 37.793 105.234 37.7461 105.391 37.6523C105.547 37.5586 105.668 37.4258 105.754 37.2539C105.844 37.082 105.906 36.8809 105.941 36.6504C105.977 36.416 105.994 36.1621 105.994 35.8887ZM110.541 38.2852L112.223 32.6602H114.033L111.484 39.9551C111.43 40.1152 111.355 40.2871 111.262 40.4707C111.172 40.6543 111.049 40.8281 110.893 40.9922C110.74 41.1602 110.547 41.2969 110.312 41.4023C110.082 41.5078 109.799 41.5605 109.463 41.5605C109.303 41.5605 109.172 41.5508 109.07 41.5312C108.969 41.5117 108.848 41.4844 108.707 41.4492V40.2129C108.75 40.2129 108.795 40.2129 108.842 40.2129C108.889 40.2168 108.934 40.2188 108.977 40.2188C109.199 40.2188 109.381 40.1934 109.521 40.1426C109.662 40.0918 109.775 40.0137 109.861 39.9082C109.947 39.8066 110.016 39.6738 110.066 39.5098L110.541 38.2852ZM109.838 32.6602L111.215 37.2539L111.455 39.041L110.307 39.1641L108.027 32.6602H109.838Z" fill="#484848"/>
<path d="M118.588 37.9085V38.6416C118.588 39.3678 119.109 39.7851 119.737 39.7851H120.171V37.908H118.588V37.9085Z" fill="#FF9F6B"/>
<path d="M127.755 34.9793C127.755 34.2261 127.606 33.5379 127.334 32.9332C126.966 32.6858 126.556 32.4889 126.115 32.3479C126.15 32.5913 126.168 32.8427 126.168 33.1021C126.168 35.9614 124.037 37.9085 121.262 37.9085H120.171V39.7857H122.849C125.624 39.7857 127.755 37.8385 127.755 34.9793Z" fill="#FF7D11"/>
<path d="M119.737 30.2188H122.85C123.947 30.2188 124.944 30.5187 125.748 31.0575C124.995 29.3782 123.303 28.3416 121.262 28.3416H118.15C117.521 28.3416 117 28.8054 117 29.5316V36.765C117 37.4912 117.521 37.9085 118.15 37.9085H118.587V31.4088C118.588 30.6826 119.109 30.2188 119.737 30.2188Z" fill="#FD886D"/>
<path d="M120.171 33.2825C120.171 32.5563 120.692 32.0925 121.321 32.0925H124.433C125.029 32.0925 125.595 32.181 126.116 32.3479C126.051 31.8856 125.925 31.4538 125.748 31.0574C124.944 30.5187 123.947 30.2188 122.85 30.2188H119.737C119.109 30.2188 118.588 30.6826 118.588 31.4088V37.9085H120.171V33.2825Z" fill="#FE6E42"/>
<path d="M121.321 32.0925C120.692 32.0925 120.171 32.5563 120.171 33.2825V37.909H121.262C124.037 37.909 126.168 35.9613 126.168 33.1026C126.168 32.8432 126.15 32.5913 126.116 32.3484C125.594 32.1815 125.029 32.093 124.433 32.093L121.321 32.0925Z" fill="#F95611"/>
<path d="M127.335 32.9326C127.606 33.5374 127.756 34.2256 127.756 34.9787C127.756 37.838 125.625 39.7851 122.85 39.7851H120.172V40.5148C120.172 41.241 120.693 41.6583 121.322 41.6583H124.434C127.209 41.6583 129.34 39.7107 129.34 36.8519C129.339 35.1352 128.562 33.7558 127.335 32.9326Z" fill="url(#paint0_linear_2045_47)"/>
<path d="M127.334 32.9326C126.986 32.1575 126.438 31.5192 125.748 31.0569C125.926 31.4528 126.051 31.8846 126.116 32.3474C126.557 32.4888 126.966 32.6857 127.334 32.9326Z" fill="#FF9F6B"/>
</g>
<defs>
<linearGradient id="paint0_linear_2045_47" x1="120.172" y1="37.2955" x2="129.34" y2="37.2955" gradientUnits="userSpaceOnUse">
<stop stop-color="#FFB738"/>
<stop offset="1" stop-color="#FFA300"/>
</linearGradient>
<clipPath id="clip0_2045_47">
<rect width="130" height="42" fill="white"/>
</clipPath>
</defs>
</svg>
