<!--
Licensed to the Apache Software Foundation (ASF) under one
or more contributor license agreements.  See the NOTICE file
distributed with this work for additional information
regarding copyright ownership.  The ASF licenses this file
to you under the Apache License, Version 2.0 (the
"License"); you may not use this file except in compliance
with the License.  You may obtain a copy of the License at

  http://www.apache.org/licenses/LICENSE-2.0

Unless required by applicable law or agreed to in writing,
software distributed under the License is distributed on an
"AS IS" BASIS, WITHOUT WARRANTIES OR CONDITIONS OF ANY
KIND, either express or implied.  See the License for the
specific language governing permissions and limitations
under the License.
-->
<svg width="160" height="166" viewBox="0 0 160 166" fill="none" xmlns="http://www.w3.org/2000/svg">
<path fill-rule="evenodd" clip-rule="evenodd" d="M123.638 8C123.362 8 123.138 8.22386 123.138 8.5V158H151.896V8.5C151.896 8.22386 151.672 8 151.396 8H123.638ZM84.7933 40.6426C84.7933 40.3665 85.0171 40.1426 85.2933 40.1426H113.052C113.328 40.1426 113.552 40.3665 113.552 40.6426V158H84.7933V40.6426ZM46.9486 72.2853C46.6725 72.2853 46.4486 72.5091 46.4486 72.7853V157.999H75.2071V72.7853C75.2071 72.5091 74.9832 72.2853 74.7071 72.2853H46.9486ZM8.604 93.7147C8.32786 93.7147 8.104 93.9385 8.104 94.2147V158H36.8625V94.2147C36.8625 93.9385 36.6386 93.7147 36.3625 93.7147H8.604Z" fill="#FAFAFA"/>
<path d="M123.138 158H122.638V158.5H123.138V158ZM151.896 158V158.5H152.396V158H151.896ZM113.552 158V158.5H114.052V158H113.552ZM84.7933 158H84.2933V158.5H84.7933V158ZM46.4486 157.999H45.9486V158.499H46.4486V157.999ZM75.2071 157.999V158.499H75.7071V157.999H75.2071ZM8.104 158H7.604V158.5H8.104V158ZM36.8625 158V158.5H37.3625V158H36.8625ZM123.638 8.5V8.5V7.5C123.086 7.5 122.638 7.94772 122.638 8.5H123.638ZM123.638 158V8.5H122.638V158H123.638ZM151.896 157.5H123.138V158.5H151.896V157.5ZM151.396 8.5V158H152.396V8.5H151.396ZM151.396 8.5H152.396C152.396 7.94772 151.949 7.5 151.396 7.5V8.5ZM123.638 8.5H151.396V7.5H123.638V8.5ZM85.2933 39.6426C84.741 39.6426 84.2933 40.0904 84.2933 40.6426H85.2933V39.6426ZM113.052 39.6426H85.2933V40.6426H113.052V39.6426ZM114.052 40.6426C114.052 40.0904 113.604 39.6426 113.052 39.6426V40.6426H114.052ZM114.052 158V40.6426H113.052V158H114.052ZM84.7933 158.5H113.552V157.5H84.7933V158.5ZM84.2933 40.6426V158H85.2933V40.6426H84.2933ZM46.9486 72.7853V71.7853C46.3964 71.7853 45.9486 72.233 45.9486 72.7853H46.9486ZM46.9486 157.999V72.7853H45.9486V157.999H46.9486ZM75.2071 157.499H46.4486V158.499H75.2071V157.499ZM74.7071 72.7853V157.999H75.7071V72.7853H74.7071ZM74.7071 72.7853H75.7071C75.7071 72.233 75.2594 71.7853 74.7071 71.7853V72.7853ZM46.9486 72.7853H74.7071V71.7853H46.9486V72.7853ZM8.604 94.2147H8.604V93.2147C8.05172 93.2147 7.604 93.6624 7.604 94.2147H8.604ZM8.604 158V94.2147H7.604V158H8.604ZM36.8625 157.5H8.104V158.5H36.8625V157.5ZM36.3625 94.2147V158H37.3625V94.2147H36.3625ZM36.3625 94.2147H37.3625C37.3625 93.6624 36.9147 93.2147 36.3625 93.2147V94.2147ZM8.604 94.2147H36.3625V93.2147H8.604V94.2147Z" fill="#D9D9D9"/>
</svg>
