<!--
Licensed to the Apache Software Foundation (ASF) under one
or more contributor license agreements.  See the NOTICE file
distributed with this work for additional information
regarding copyright ownership.  The ASF licenses this file
to you under the Apache License, Version 2.0 (the
"License"); you may not use this file except in compliance
with the License.  You may obtain a copy of the License at

  http://www.apache.org/licenses/LICENSE-2.0

Unless required by applicable law or agreed to in writing,
software distributed under the License is distributed on an
"AS IS" BASIS, WITHOUT WARRANTIES OR CONDITIONS OF ANY
KIND, either express or implied.  See the License for the
specific language governing permissions and limitations
under the License.
-->
<svg width="160" height="150" viewBox="0 0 160 150" fill="none" xmlns="http://www.w3.org/2000/svg">
<mask id="path-1-inside-1_563_19338" fill="white">
<rect width="160" height="150" rx="0.5"/>
</mask>
<rect width="160" height="150" rx="0.5" fill="white" stroke="#D9D9D9" stroke-width="2" mask="url(#path-1-inside-1_563_19338)"/>
<mask id="path-2-inside-2_563_19338" fill="white">
<rect width="160" height="14" rx="0.5"/>
</mask>
<rect width="160" height="14" rx="0.5" fill="#FAFAFA" stroke="#D9D9D9" stroke-width="2" mask="url(#path-2-inside-2_563_19338)"/>
<path fill-rule="evenodd" clip-rule="evenodd" d="M107.901 36C107.624 36 107.401 36.2239 107.401 36.5V133.015H126V36.5C126 36.2239 125.777 36 125.5 36H107.901ZM82.5996 57.2888C82.5996 57.0126 82.8235 56.7888 83.0996 56.7888H100.7C100.976 56.7888 101.2 57.0126 101.2 57.2888V133.015H82.5996V57.2888ZM58.2998 77.5775C58.0237 77.5775 57.7998 77.8014 57.7998 78.0775V133.014H76.3998V78.0775C76.3998 77.8014 76.1759 77.5775 75.8998 77.5775H58.2998ZM33.5 91.4374C33.2239 91.4374 33 91.6613 33 91.9374V133.015H51.6V91.9374C51.6 91.6613 51.3761 91.4374 51.1 91.4374H33.5Z" fill="#FAFAFA"/>
<path d="M107.401 133.015H106.901V133.515H107.401V133.015ZM126 133.015V133.515H126.5V133.015H126ZM101.2 133.015V133.515H101.7V133.015H101.2ZM82.5996 133.015H82.0996V133.515H82.5996V133.015ZM57.7998 133.014H57.2998V133.514H57.7998V133.014ZM76.3998 133.014V133.514H76.8998V133.014H76.3998ZM33 133.015H32.5V133.515H33V133.015ZM51.6 133.015V133.515H52.1V133.015H51.6ZM107.901 36.5V36.5V35.5C107.348 35.5 106.901 35.9477 106.901 36.5H107.901ZM107.901 133.015V36.5H106.901V133.015H107.901ZM126 132.515H107.401V133.515H126V132.515ZM125.5 36.5V133.015H126.5V36.5H125.5ZM125.5 36.5H126.5C126.5 35.9477 126.053 35.5 125.5 35.5V36.5ZM107.901 36.5H125.5V35.5H107.901V36.5ZM83.0996 56.2888C82.5474 56.2888 82.0996 56.7365 82.0996 57.2888H83.0996V57.2888V56.2888ZM100.7 56.2888H83.0996V57.2888H100.7V56.2888ZM101.7 57.2888C101.7 56.7365 101.252 56.2888 100.7 56.2888V57.2888H101.7ZM101.7 133.015V57.2888H100.7V133.015H101.7ZM82.5996 133.515H101.2V132.515H82.5996V133.515ZM82.0996 57.2888V133.015H83.0996V57.2888H82.0996ZM58.2998 78.0775V77.0775C57.7475 77.0775 57.2998 77.5252 57.2998 78.0775H58.2998ZM58.2998 133.014V78.0775H57.2998V133.014H58.2998ZM76.3998 132.514H57.7998V133.514H76.3998V132.514ZM75.8998 78.0775V133.014H76.8998V78.0775H75.8998ZM75.8998 78.0775H76.8998C76.8998 77.5252 76.4521 77.0775 75.8998 77.0775V78.0775ZM58.2998 78.0775H75.8998V77.0775H58.2998V78.0775ZM33.5 91.9374V90.9374C32.9477 90.9374 32.5 91.3851 32.5 91.9374H33.5ZM33.5 133.015V91.9374H32.5V133.015H33.5ZM51.6 132.515H33V133.515H51.6V132.515ZM51.1 91.9374V133.015H52.1V91.9374H51.1ZM51.1 91.9374H52.1C52.1 91.3851 51.6522 90.9374 51.1 90.9374V91.9374ZM33.5 91.9374H51.1V90.9374H33.5V91.9374Z" fill="#D9D9D9"/>
<circle cx="7" cy="7" r="2" fill="#D9D9D9"/>
<circle cx="13" cy="7" r="2" fill="#D9D9D9"/>
<circle cx="19" cy="7" r="2" fill="#D9D9D9"/>
</svg>
