<svg id="layer_1" xmlns="http://www.w3.org/2000/svg" viewBox="0 0 168.963 34.215"><title>databend logo</title><path d="M74.135,12.309a6.37,6.37,0,0,1,2.716,2.534,7.536,7.536,0,0,1,.958,3.852,7.362,7.362,0,0,1-.958,3.821A6.286,6.286,0,0,1,74.135,25a9.191,9.191,0,0,1-4.095.862H65.865a.605.605,0,0,1-.6-.605V12.032a.605.605,0,0,1,.6-.605H70.04A9.02,9.02,0,0,1,74.135,12.309Zm-.158,10.249A5.23,5.23,0,0,0,75.346,18.7a5.407,5.407,0,0,0-1.369-3.925,5.235,5.235,0,0,0-3.937-1.412H68.265a.605.605,0,0,0-.605.6v9.361a.605.605,0,0,0,.605.6H70.04A5.325,5.325,0,0,0,73.977,22.558Z" style="fill:#001f5c"/><path d="M80.374,17.034a5.287,5.287,0,0,1,1.979-2.067,5.362,5.362,0,0,1,2.769-.737,5.126,5.126,0,0,1,2.39.53,4.855,4.855,0,0,1,1.632,1.319V15.022a.605.605,0,0,1,.6-.605H90.96a.605.605,0,0,1,.605.605V25.255a.605.605,0,0,1-.605.605H89.749a.605.605,0,0,1-.6-.605v-1.1a4.762,4.762,0,0,1-1.664,1.35,5.447,5.447,0,0,1-5.137-.218,5.393,5.393,0,0,1-1.969-2.118,6.437,6.437,0,0,1-.727-3.084A6.256,6.256,0,0,1,80.374,17.034Zm8.275,1.038A3.482,3.482,0,0,0,83.9,16.733a3.385,3.385,0,0,0-1.3,1.308,4.042,4.042,0,0,0-.495,2.046,4.211,4.211,0,0,0,.495,2.076,3.461,3.461,0,0,0,1.305,1.361,3.386,3.386,0,0,0,1.716.467,3.4,3.4,0,0,0,3.022-1.8,4.17,4.17,0,0,0,.5-2.067A4.109,4.109,0,0,0,88.649,18.072Z" style="fill:#001f5c"/><path d="M97.494,16.349v6.334a1.208,1.208,0,0,0,.305.924,1.534,1.534,0,0,0,1.043.28h.869a.605.605,0,0,1,.605.605v.763a.605.605,0,0,1-.605.605h-1.29a3.684,3.684,0,0,1-2.485-.748,3.054,3.054,0,0,1-.863-2.429V16.349h-.764a.605.605,0,0,1-.605-.606v-.721a.605.605,0,0,1,.605-.605h.764v-2.24a.605.605,0,0,1,.605-.605h1.211a.605.605,0,0,1,.605.605v2.24h2.217a.605.605,0,0,1,.605.605v.721a.605.605,0,0,1-.605.606Z" style="fill:#001f5c"/><path d="M102.225,17.034a5.287,5.287,0,0,1,1.979-2.067,5.365,5.365,0,0,1,2.769-.737,5.123,5.123,0,0,1,2.39.53A4.835,4.835,0,0,1,111,16.079V15.022a.605.605,0,0,1,.6-.605h1.211a.605.605,0,0,1,.606.605V25.255a.605.605,0,0,1-.606.605H111.6a.605.605,0,0,1-.6-.605v-1.1a4.759,4.759,0,0,1-1.663,1.35,5.449,5.449,0,0,1-5.138-.218,5.393,5.393,0,0,1-1.969-2.118,6.448,6.448,0,0,1-.726-3.084A6.266,6.266,0,0,1,102.225,17.034Zm8.275,1.038a3.482,3.482,0,0,0-4.748-1.339,3.392,3.392,0,0,0-1.3,1.308,4.042,4.042,0,0,0-.495,2.046,4.211,4.211,0,0,0,.495,2.076,3.463,3.463,0,0,0,1.306,1.361,3.386,3.386,0,0,0,1.716.467,3.4,3.4,0,0,0,3.021-1.8,4.16,4.16,0,0,0,.5-2.067A4.1,4.1,0,0,0,110.5,18.072Z" style="fill:#001f5c"/><path d="M120.636,14.76a5.242,5.242,0,0,1,2.369-.53,5.407,5.407,0,0,1,2.779.727,5.152,5.152,0,0,1,1.959,2.066,6.407,6.407,0,0,1,.716,3.064,6.525,6.525,0,0,1-.716,3.084,5.308,5.308,0,0,1-1.969,2.118,5.581,5.581,0,0,1-5.159.239,4.578,4.578,0,0,1-1.653-1.329v1.056a.6.6,0,0,1-.605.605h-1.19a.605.605,0,0,1-.605-.605V11.1a.605.605,0,0,1,.605-.6h1.19a.6.6,0,0,1,.605.6V16.12A4.545,4.545,0,0,1,120.636,14.76Zm4.885,3.281a3.375,3.375,0,0,0-1.305-1.308,3.544,3.544,0,0,0-1.737-.447,3.449,3.449,0,0,0-3.022,1.786,4.1,4.1,0,0,0-.495,2.056,4.16,4.16,0,0,0,.495,2.067,3.448,3.448,0,0,0,4.759,1.329,3.468,3.468,0,0,0,1.305-1.361,4.211,4.211,0,0,0,.5-2.076A4.042,4.042,0,0,0,125.521,18.041Z" style="fill:#001f5c"/><path d="M136.169,24.063a3.378,3.378,0,0,1-2.979-2.076.2.2,0,0,1,.126-.281l7.978-2.32a.6.6,0,0,0,.424-.712q-.064-.279-.156-.58a5.879,5.879,0,0,0-1.569-2.61,5.209,5.209,0,0,0-2.552-1.328,6.827,6.827,0,0,0-5.849,1.723,5.033,5.033,0,0,0-1.4,2.564,6.25,6.25,0,0,0,.2,3.183,6.768,6.768,0,0,0,.8,1.718l.006,0a5.273,5.273,0,0,0,2,1.978,5.993,5.993,0,0,0,2.979.737,5.644,5.644,0,0,0,3.422-1.008,5.236,5.236,0,0,0,1.5-1.665.61.61,0,0,0-.52-.92h-1.312a.628.628,0,0,0-.525.306A2.821,2.821,0,0,1,136.169,24.063Zm-3.2-6.45a3.181,3.181,0,0,1,1.864-1.355,3.6,3.6,0,0,1,2.491.1,2.632,2.632,0,0,1,1.208,1.008.612.612,0,0,1-.333.926l-4.926,1.433a.6.6,0,0,1-.777-.578A2.975,2.975,0,0,1,132.971,17.613Z" style="fill:#001f5c"/><path d="M152.42,14.791a4.02,4.02,0,0,1,1.7,1.661,5.41,5.41,0,0,1,.611,2.659v6.144a.605.605,0,0,1-.6.605h-1.17a.605.605,0,0,1-.6-.605V19.464a3.293,3.293,0,0,0-.779-2.357,2.791,2.791,0,0,0-2.126-.821,2.83,2.83,0,0,0-2.138.821,3.266,3.266,0,0,0-.789,2.357v5.791a.605.605,0,0,1-.605.605h-1.191a.605.605,0,0,1-.6-.605V15.022a.605.605,0,0,1,.6-.605h1.191a.605.605,0,0,1,.605.605v.7a3.962,3.962,0,0,1,1.5-1.1,4.874,4.874,0,0,1,1.948-.395A5.261,5.261,0,0,1,152.42,14.791Z" style="fill:#001f5c"/><path d="M157.772,17.034a5.287,5.287,0,0,1,1.979-2.067,5.4,5.4,0,0,1,2.79-.737,5.513,5.513,0,0,1,2.243.488,4.587,4.587,0,0,1,1.758,1.3V11.1a.605.605,0,0,1,.6-.6h1.211a.6.6,0,0,1,.6.6V25.255a.6.6,0,0,1-.6.605h-1.211a.605.605,0,0,1-.6-.605V24.137a4.483,4.483,0,0,1-1.632,1.37,5.123,5.123,0,0,1-2.39.54,5.242,5.242,0,0,1-2.769-.758,5.374,5.374,0,0,1-1.979-2.118,6.448,6.448,0,0,1-.726-3.084A6.266,6.266,0,0,1,157.772,17.034Zm8.275,1.038a3.482,3.482,0,0,0-4.748-1.339,3.392,3.392,0,0,0-1.3,1.308,4.042,4.042,0,0,0-.5,2.046,4.211,4.211,0,0,0,.5,2.076,3.468,3.468,0,0,0,1.305,1.361,3.438,3.438,0,0,0,3.443.01,3.431,3.431,0,0,0,1.295-1.339,4.16,4.16,0,0,0,.5-2.067A4.1,4.1,0,0,0,166.047,18.072Z" style="fill:#001f5c"/><path d="M56.248,30.283v.008a.376.376,0,0,1-.374.376h0a.375.375,0,0,1-.141-.03.035.035,0,0,1-.015-.007,6.232,6.232,0,0,1-2.263-1.943,6.225,6.225,0,0,1-.518,2.9l0,.007a.374.374,0,0,1-.513.134.324.324,0,0,1-.108-.1L52.3,31.62a6.248,6.248,0,0,1-.867-4.56c-6.086-3.491-12.272-.439-12.272-.439l.026.007a6.28,6.28,0,0,1,2.3.692l.022.011a.373.373,0,0,1,.126.506.4.4,0,0,1-.078.087.437.437,0,0,1-.048.037q-.24.178-.495.335l0,.015c-.082.048-.164.093-.253.138a6.187,6.187,0,0,1-1.552.6v0c-.011,0-.026,0-.038.008a6.159,6.159,0,0,1-1.209.156,31.579,31.579,0,0,1-5.874.019c-2.281,1.928-11.49,6.067-19.642,4.708-5.914-1.384-9.082-4.124-10.734-6.968C3.225,28.039,9.56,31.612,22,27.67c14.352-4.548,18.938-7.046,30.829-3.945l.012.03a9.979,9.979,0,0,1,.655,2.069v0A6.233,6.233,0,0,1,56.248,30.283Z" style="fill:#bae6ff"/><path d="M50.225,19.3a19.453,19.453,0,0,1,2.606,4.429c-11.892-3.1-16.478-.6-30.83,3.946-12.44,3.941-18.775.367-20.286-.692L1.7,26.953c-.007-.008-.007-.012-.007-.012A13.7,13.7,0,0,1,.281,17.58c.261-.272.57-.566.916-.871,1.362,1.232,8.025,6.383,21,3.135C22.194,19.843,42.528,14.691,50.225,19.3Z" style="fill:#52adff"/><path d="M39.932,12.068c.977.45,2.681.8,3.6,1.352-7.366-2.662-15.256-2.372-21.316-1.512A17.8,17.8,0,0,1,12.2,10.545a39.493,39.493,0,0,1,22.923-.279A35.117,35.117,0,0,1,39.932,12.068Z" style="fill:#015bce"/><path d="M43.436,13.359A24.2,24.2,0,0,1,50.225,19.3c-7.7-4.6-28.032.547-28.032.547-12.972,3.249-19.634-1.9-21-3.135a33.483,33.483,0,0,1,11.654-6.38,17.805,17.805,0,0,0,10.02,1.362A42.2,42.2,0,0,1,43.436,13.359Z" style="fill:#0175f5"/><path d="M40.58,11.851a29.994,29.994,0,0,1,2.854,1.508,42.191,42.191,0,0,0-20.565-1.668,17.805,17.805,0,0,1-10.02-1.362,39.493,39.493,0,0,1,22.923-.279A35.014,35.014,0,0,1,40.58,11.851Z" style="fill:#015bce"/><path d="M22.257,1.463a1.474,1.474,0,0,1-.9,1.351v0A6.252,6.252,0,0,0,18.524,5.65,6.258,6.258,0,0,1,19.544.7c.053-.078.109-.149.168-.223A1.443,1.443,0,0,1,20.787,0a1.464,1.464,0,0,1,1.47,1.459Z" style="fill:#015bce"/><path d="M17.2,7.135c0,.23-.015.457-.037.681a6.137,6.137,0,0,0-2.576-1.571.24.24,0,0,0-.071-.019A1.557,1.557,0,1,1,16.346,4,6.175,6.175,0,0,1,17.2,7.135Z" style="fill:#015bce"/><circle cx="23.318" cy="27.389" r="1.337" style="fill:#0175f5"/></svg>
