<!--
Licensed to the Apache Software Foundation (ASF) under one
or more contributor license agreements.  See the NOTICE file
distributed with this work for additional information
regarding copyright ownership.  The ASF licenses this file
to you under the Apache License, Version 2.0 (the
"License"); you may not use this file except in compliance
with the License.  You may obtain a copy of the License at

  http://www.apache.org/licenses/LICENSE-2.0

Unless required by applicable law or agreed to in writing,
software distributed under the License is distributed on an
"AS IS" BASIS, WITHOUT WARRANTIES OR CONDITIONS OF ANY
KIND, either express or implied.  See the License for the
specific language governing permissions and limitations
under the License.
-->
<svg viewBox="0 0 119 78" fill="none" xmlns="http://www.w3.org/2000/svg">
  <rect x="16" y="1" width="86" height="62" rx="3" stroke="currentColor" stroke-width="2" />


  <path
    d="M60 32.6416L80 32.6416C80.902 32.6416 81.9179 34.641 81.9179 34.641C80.902 46.9604 70.5815 56.6416 58 56.6416V32.6416Z"
    fill="currentColor" fill-opacity="1" />

  <path
    d="M58 10.6416C58 9.53706 57.1014 8.63294 56.0006 8.72373C43.6813 9.73974 34 20.0601 34 32.6416C34 45.8965 44.7452 56.6416 58 56.6416C70.5815 56.6416 80.9019 46.9604 81.9179 34.641C82.0087 33.5402 81.1046 32.6416 80 32.6416L60 32.6416C58.8954 32.6416 58 31.7462 58 30.6416V10.6416Z"
    fill="currentColor" fill-opacity="0.5" />
</svg>
