<!--
Licensed to the Apache Software Foundation (ASF) under one
or more contributor license agreements.  See the NOTICE file
distributed with this work for additional information
regarding copyright ownership.  The ASF licenses this file
to you under the Apache License, Version 2.0 (the
"License"); you may not use this file except in compliance
with the License.  You may obtain a copy of the License at

  http://www.apache.org/licenses/LICENSE-2.0

Unless required by applicable law or agreed to in writing,
software distributed under the License is distributed on an
"AS IS" BASIS, WITHOUT WARRANTIES OR CONDITIONS OF ANY
KIND, either express or implied.  See the License for the
specific language governing permissions and limitations
under the License.
-->
<svg viewBox="0 0 81 82" fill="none" xmlns="http://www.w3.org/2000/svg">
<path fill-rule="evenodd" clip-rule="evenodd" d="M76.5 1H4.5C2.29086 1 0.5 2.79086 0.5 5V77C0.5 79.2091 2.29086 81 4.5 81H76.5C78.7091 81 80.5 79.2091 80.5 77V5C80.5 2.79086 78.7091 1 76.5 1ZM36.5 73H8.5V57H36.5V73ZM36.5 49H8.5V33H36.5V49ZM72.5 73H44.5V57H72.5V73ZM72.5 49H44.5V33H72.5V49ZM72.5 25H8.5V9H72.5V25Z" fill="currentColor"/>
<path d="M36.5 73V73.5H37V73H36.5ZM8.5 73H8V73.5H8.5V73ZM8.5 57V56.5H8V57H8.5ZM36.5 57H37V56.5H36.5V57ZM36.5 49V49.5H37V49H36.5ZM8.5 49H8V49.5H8.5V49ZM8.5 33V32.5H8V33H8.5ZM36.5 33H37V32.5H36.5V33ZM72.5 73V73.5H73V73H72.5ZM44.5 73H44V73.5H44.5V73ZM44.5 57V56.5H44V57H44.5ZM72.5 57H73V56.5H72.5V57ZM72.5 49V49.5H73V49H72.5ZM44.5 49H44V49.5H44.5V49ZM44.5 33V32.5H44V33H44.5ZM72.5 33H73V32.5H72.5V33ZM72.5 25V25.5H73V25H72.5ZM8.5 25H8V25.5H8.5V25ZM8.5 9V8.5H8V9H8.5ZM72.5 9H73V8.5H72.5V9ZM76.5 0.5H4.5V1.5H76.5V0.5ZM4.5 0.5C2.01472 0.5 0 2.51472 0 5H1C1 3.067 2.567 1.5 4.5 1.5V0.5ZM0 5V77H1V5H0ZM0 77C0 79.4853 2.01472 81.5 4.5 81.5V80.5C2.567 80.5 1 78.933 1 77H0ZM4.5 81.5H76.5V80.5H4.5V81.5ZM76.5 81.5C78.9853 81.5 81 79.4853 81 77H80C80 78.933 78.433 80.5 76.5 80.5V81.5ZM81 77V5H80V77H81ZM81 5C81 2.51472 78.9853 0.5 76.5 0.5V1.5C78.433 1.5 80 3.067 80 5H81ZM36.5 72.5H8.5V73.5H36.5V72.5ZM9 73V57H8V73H9ZM8.5 57.5H36.5V56.5H8.5V57.5ZM36 57V73H37V57H36ZM36.5 48.5H8.5V49.5H36.5V48.5ZM9 49V33H8V49H9ZM8.5 33.5H36.5V32.5H8.5V33.5ZM36 33V49H37V33H36ZM72.5 72.5H44.5V73.5H72.5V72.5ZM45 73V57H44V73H45ZM44.5 57.5H72.5V56.5H44.5V57.5ZM72 57V73H73V57H72ZM72.5 48.5H44.5V49.5H72.5V48.5ZM45 49V33H44V49H45ZM44.5 33.5H72.5V32.5H44.5V33.5ZM72 33V49H73V33H72ZM72.5 24.5H8.5V25.5H72.5V24.5ZM9 25V9H8V25H9ZM8.5 9.5H72.5V8.5H8.5V9.5ZM72 9V25H73V9H72Z" fill="currentColor"/>
</svg>
