<!--
Licensed to the Apache Software Foundation (ASF) under one
or more contributor license agreements.  See the NOTICE file
distributed with this work for additional information
regarding copyright ownership.  The ASF licenses this file
to you under the Apache License, Version 2.0 (the
"License"); you may not use this file except in compliance
with the License.  You may obtain a copy of the License at

  http://www.apache.org/licenses/LICENSE-2.0

Unless required by applicable law or agreed to in writing,
software distributed under the License is distributed on an
"AS IS" BASIS, WITHOUT WARRANTIES OR CONDITIONS OF ANY
KIND, either express or implied.  See the License for the
specific language governing permissions and limitations
under the License.
-->
<svg width="119" height="78" viewBox="0 0 119 78" fill="none" xmlns="http://www.w3.org/2000/svg">
<path d="M37 4C37 2.34315 38.3431 1 40 1H70.3431C71.1388 1 71.9019 1.31607 72.4645 1.87868L82.1213 11.5355C82.6839 12.0981 83 12.8612 83 13.6569V60C83 61.6569 81.6569 63 80 63H40C38.3431 63 37 61.6569 37 60V4Z" stroke="#D1D1D1" stroke-width="2"/>
<path d="M71 0.5V9C71 11.2091 72.7909 13 75 13H83.5" stroke="#D1D1D1" stroke-width="2"/>
<path d="M71 27V45C71 46.074 70.1033 47.3156 68.0381 48.3482C66.0326 49.3509 63.1921 50 60 50C56.8079 50 53.9674 49.3509 51.9619 48.3482C49.8967 47.3156 49 46.074 49 45V27C49 25.926 49.8967 24.6844 51.9619 23.6518C53.9674 22.6491 56.8079 22 60 22C63.1921 22 66.0326 22.6491 68.0381 23.6518C70.1033 24.6844 71 25.926 71 27Z" stroke="#D1D1D1" stroke-width="2"/>
<mask id="path-4-inside-1" fill="white">
<path fill-rule="evenodd" clip-rule="evenodd" d="M48 39C48 42.3137 53.3726 45 60 45C66.6274 45 72 42.3137 72 39H69.913C69.913 39.5358 69.4382 40.5104 67.5199 41.4695C65.7026 42.3781 63.0473 43 60 43C56.9527 43 54.2974 42.3781 52.4801 41.4695C50.5618 40.5104 50.087 39.5358 50.087 39H48Z"/>
</mask>
<path fill-rule="evenodd" clip-rule="evenodd" d="M48 39C48 42.3137 53.3726 45 60 45C66.6274 45 72 42.3137 72 39H69.913C69.913 39.5358 69.4382 40.5104 67.5199 41.4695C65.7026 42.3781 63.0473 43 60 43C56.9527 43 54.2974 42.3781 52.4801 41.4695C50.5618 40.5104 50.087 39.5358 50.087 39H48Z" fill="black"/>
<path d="M48 39V37H46V39H48ZM72 39H74V37H72V39ZM69.913 39V37H67.913V39H69.913ZM52.4801 41.4695L51.5856 43.2583H51.5856L52.4801 41.4695ZM50.087 39H52.087V37H50.087V39ZM46 39C46 41.8225 48.2361 43.8394 50.6203 45.0315C53.1241 46.2834 56.4431 47 60 47V43C56.9295 43 54.2485 42.3735 52.4091 41.4538C50.4502 40.4743 50 39.4912 50 39H46ZM60 47C63.5569 47 66.8759 46.2834 69.3797 45.0315C71.7639 43.8394 74 41.8225 74 39H70C70 39.4912 69.5498 40.4743 67.5909 41.4538C65.7515 42.3735 63.0705 43 60 43V47ZM72 37H69.913V41H72V37ZM68.4144 43.2583C70.5717 42.1796 71.913 40.6831 71.913 39H67.913C67.913 38.6884 68.0386 38.6285 67.8989 38.7962C67.7638 38.9584 67.4125 39.2871 66.6255 39.6806L68.4144 43.2583ZM60 45C63.2906 45 66.2649 44.333 68.4144 43.2583L66.6255 39.6806C65.1403 40.4232 62.804 41 60 41V45ZM51.5856 43.2583C53.7351 44.333 56.7094 45 60 45V41C57.196 41 54.8597 40.4232 53.3745 39.6806L51.5856 43.2583ZM48.087 39C48.087 40.6831 49.4283 42.1796 51.5856 43.2583L53.3745 39.6806C52.5875 39.2871 52.2362 38.9584 52.1011 38.7962C51.9614 38.6285 52.087 38.6884 52.087 39H48.087ZM50.087 37H48V41H50.087V37Z" fill="#D1D1D1" mask="url(#path-4-inside-1)"/>
<mask id="path-6-inside-2" fill="white">
<path fill-rule="evenodd" clip-rule="evenodd" d="M48 33C48 36.3137 53.3726 39 60 39C66.6274 39 72 36.3137 72 33H69.913C69.913 33.5358 69.4382 34.5104 67.5199 35.4695C65.7026 36.3781 63.0473 37 60 37C56.9527 37 54.2974 36.3781 52.4801 35.4695C50.5618 34.5104 50.087 33.5358 50.087 33H48Z"/>
</mask>
<path fill-rule="evenodd" clip-rule="evenodd" d="M48 33C48 36.3137 53.3726 39 60 39C66.6274 39 72 36.3137 72 33H69.913C69.913 33.5358 69.4382 34.5104 67.5199 35.4695C65.7026 36.3781 63.0473 37 60 37C56.9527 37 54.2974 36.3781 52.4801 35.4695C50.5618 34.5104 50.087 33.5358 50.087 33H48Z" fill="black"/>
<path d="M48 33V31H46V33H48ZM72 33H74V31H72V33ZM69.913 33V31H67.913V33H69.913ZM52.4801 35.4695L51.5856 37.2583H51.5856L52.4801 35.4695ZM50.087 33H52.087V31H50.087V33ZM46 33C46 35.8225 48.2361 37.8394 50.6203 39.0315C53.1241 40.2834 56.4431 41 60 41V37C56.9295 37 54.2485 36.3735 52.4091 35.4538C50.4502 34.4743 50 33.4912 50 33H46ZM60 41C63.5569 41 66.8759 40.2834 69.3797 39.0315C71.7639 37.8394 74 35.8225 74 33H70C70 33.4912 69.5498 34.4743 67.5909 35.4538C65.7515 36.3735 63.0705 37 60 37V41ZM72 31H69.913V35H72V31ZM68.4144 37.2583C70.5717 36.1796 71.913 34.6831 71.913 33H67.913C67.913 32.6884 68.0386 32.6285 67.8989 32.7962C67.7638 32.9584 67.4125 33.2871 66.6255 33.6806L68.4144 37.2583ZM60 39C63.2906 39 66.2649 38.333 68.4144 37.2583L66.6255 33.6806C65.1403 34.4232 62.804 35 60 35V39ZM51.5856 37.2583C53.7351 38.333 56.7094 39 60 39V35C57.196 35 54.8597 34.4232 53.3745 33.6806L51.5856 37.2583ZM48.087 33C48.087 34.6831 49.4283 36.1796 51.5856 37.2583L53.3745 33.6806C52.5875 33.2871 52.2362 32.9584 52.1011 32.7962C51.9614 32.6285 52.087 32.6884 52.087 33H48.087ZM50.087 31H48V35H50.087V31Z" fill="#D1D1D1" mask="url(#path-6-inside-2)"/>
<path d="M71 27C71 28.074 70.1033 29.3156 68.0381 30.3482C66.0326 31.3509 63.1921 32 60 32C56.8079 32 53.9674 31.3509 51.9619 30.3482C49.8967 29.3156 49 28.074 49 27C49 25.926 49.8967 24.6844 51.9619 23.6518C53.9674 22.6491 56.8079 22 60 22C63.1921 22 66.0326 22.6491 68.0381 23.6518C70.1033 24.6844 71 25.926 71 27Z" stroke="#D1D1D1" stroke-width="2"/>
<path fill-rule="evenodd" clip-rule="evenodd" d="M36 51.1343C14.8256 53.2784 0 58.2318 0 64C0 71.732 26.6391 78 59.5 78C92.3609 78 119 71.732 119 64C119 58.323 104.64 53.4353 84 51.2381V60C84 62.2091 82.2091 64 80 64H40C37.7909 64 36 62.2091 36 60V51.1343Z" fill="#F2F2F2"/>
</svg>
