<!--
Licensed to the Apache Software Foundation (ASF) under one
or more contributor license agreements.  See the NOTICE file
distributed with this work for additional information
regarding copyright ownership.  The ASF licenses this file
to you under the Apache License, Version 2.0 (the
"License"); you may not use this file except in compliance
with the License.  You may obtain a copy of the License at

  http://www.apache.org/licenses/LICENSE-2.0

Unless required by applicable law or agreed to in writing,
software distributed under the License is distributed on an
"AS IS" BASIS, WITHOUT WARRANTIES OR CONDITIONS OF ANY
KIND, either express or implied.  See the License for the
specific language governing permissions and limitations
under the License.
-->
<svg width="152" height="152" viewBox="0 0 152 152" fill="none" xmlns="http://www.w3.org/2000/svg">
<path fill-rule="evenodd" clip-rule="evenodd" d="M143.5 1H8.5C4.35786 1 1 4.35786 1 8.5V143.5C1 147.642 4.35786 151 8.5 151H143.5C147.642 151 151 147.642 151 143.5V8.5C151 4.35786 147.642 1 143.5 1ZM68.5 136H16V106H68.5V136ZM68.5 91H16V61H68.5V91ZM136 136H83.5V106H136V136ZM136 91H83.5V61H136V91ZM136 46H16V16H136V46Z" fill="#F7F7F7"/>
<path d="M68.5 136V136.5H69V136H68.5ZM16 136H15.5V136.5H16V136ZM16 106V105.5H15.5V106H16ZM68.5 106H69V105.5H68.5V106ZM68.5 91V91.5H69V91H68.5ZM16 91H15.5V91.5H16V91ZM16 61V60.5H15.5V61H16ZM68.5 61H69V60.5H68.5V61ZM136 136V136.5H136.5V136H136ZM83.5 136H83V136.5H83.5V136ZM83.5 106V105.5H83V106H83.5ZM136 106H136.5V105.5H136V106ZM136 91V91.5H136.5V91H136ZM83.5 91H83V91.5H83.5V91ZM83.5 61V60.5H83V61H83.5ZM136 61H136.5V60.5H136V61ZM136 46V46.5H136.5V46H136ZM16 46H15.5V46.5H16V46ZM16 16V15.5H15.5V16H16ZM136 16H136.5V15.5H136V16ZM143.5 0.5H8.5V1.5H143.5V0.5ZM8.5 0.5C4.08172 0.5 0.5 4.08172 0.5 8.5H1.5C1.5 4.63401 4.63401 1.5 8.5 1.5V0.5ZM0.5 8.5V143.5H1.5V8.5H0.5ZM0.5 143.5C0.5 147.918 4.08172 151.5 8.5 151.5V150.5C4.63401 150.5 1.5 147.366 1.5 143.5H0.5ZM8.5 151.5H143.5V150.5H8.5V151.5ZM143.5 151.5C147.918 151.5 151.5 147.918 151.5 143.5H150.5C150.5 147.366 147.366 150.5 143.5 150.5V151.5ZM151.5 143.5V8.5H150.5V143.5H151.5ZM151.5 8.5C151.5 4.08172 147.918 0.5 143.5 0.5V1.5C147.366 1.5 150.5 4.63401 150.5 8.5H151.5ZM68.5 135.5H16V136.5H68.5V135.5ZM16.5 136V106H15.5V136H16.5ZM16 106.5H68.5V105.5H16V106.5ZM68 106V136H69V106H68ZM68.5 90.5H16V91.5H68.5V90.5ZM16.5 91V61H15.5V91H16.5ZM16 61.5H68.5V60.5H16V61.5ZM68 61V91H69V61H68ZM136 135.5H83.5V136.5H136V135.5ZM84 136V106H83V136H84ZM83.5 106.5H136V105.5H83.5V106.5ZM135.5 106V136H136.5V106H135.5ZM136 90.5H83.5V91.5H136V90.5ZM84 91V61H83V91H84ZM83.5 61.5H136V60.5H83.5V61.5ZM135.5 61V91H136.5V61H135.5ZM136 45.5H16V46.5H136V45.5ZM16.5 46V16H15.5V46H16.5ZM16 16.5H136V15.5H16V16.5ZM135.5 16V46H136.5V16H135.5Z" fill="#E0E0E0"/>
</svg>
