<svg width="238" height="50" viewBox="0 0 238 50" fill="none" xmlns="http://www.w3.org/2000/svg">
<path d="M207.22 44.5652H202.329V43.75L217.003 5.43481H222.6L237.247 43.75V44.5652H232.329L228.225 33.5055H211.323L207.22 44.5652ZM219.503 11.2772L212.682 29.5652H226.867L220.046 11.2772H219.503Z" fill="black"/>
<path d="M169.837 44.5652V5.43481H183.505C194.81 5.43481 202.201 12.8805 202.201 25C202.201 37.1196 194.81 44.5652 183.505 44.5652H169.837ZM183.424 9.40221H174.81V40.5979H183.424C191.902 40.5979 197.201 34.7826 197.201 25C197.201 15.2174 191.902 9.40221 183.424 9.40221Z" fill="black"/>
<path d="M135.23 44.5652V5.43481H152.078C159.034 5.43481 164.17 8.83156 164.17 15.3533C164.17 21.5761 160.04 23.5326 157.784 24.0761V24.6196C160.529 25.1902 165.393 27.2283 165.393 33.9674C165.393 40.9511 159.985 44.5652 152.73 44.5652H135.23ZM151.263 9.34786H140.203V22.6903H151.263C155.773 22.6903 159.36 20.6794 159.279 16.0326C159.279 11.3587 155.692 9.34786 151.263 9.34786ZM152.023 26.6033H140.203V40.625H152.023C156.806 40.625 160.475 38.4511 160.475 33.6413C160.475 28.8316 156.806 26.6033 152.023 26.6033Z" fill="black"/>
<path d="M87.6221 44.5652V5.43481H94.4427L107.758 38.1522H108.301L121.589 5.43481H128.437V44.5652H123.709V13.0435H123.166L110.339 44.5652H105.693L92.8666 13.0435H92.3232V44.5652H87.6221Z" fill="black"/>
<path fill-rule="evenodd" clip-rule="evenodd" d="M57.9307 33.5115L57.9328 33.5057H74.835L78.9383 44.5655H83.8567V43.7503L69.21 5.43506H63.6122L54.3789 29.5441V33.5115H57.9307ZM66.1122 11.2775L59.2915 29.5655H73.4763L66.6557 11.2775H66.1122Z" fill="black"/>
<path d="M17.7165 33.9969L25.7394 12.1939L32.4464 30.4209L33.1696 32.3963H33.1733L33.7616 33.9951L38.1556 45.8385H44.4257V44.1538L39.3334 30.8325L39.3326 30.8289L29.2188 4.37312L29.2117 4.36932L27.5404 0H50.7529V50H0.75293V0H21.2435L22.5733 3.60086L22.2172 4.63128L7.081 44.1536V45.8385H13.3232L17.7165 33.9969Z" fill="#7663E4"/>
</svg>
