<svg width="124px" height="42px" version="1.1" id="layer" xmlns="http://www.w3.org/2000/svg" xmlns:xlink="http://www.w3.org/1999/xlink" x="0px" y="0px" xml:space="preserve" viewBox="26.4 223.3 600 205.7"> <path d="M440.7,225.4v69.8c0,0.8,0.6,1.4,1.4,1.4h182.2c1.2,0,2.1-0.9,2.1-2.1v-69.1c0-1.2-0.9-2.1-2.1-2.1H442.9 	c-0.6,0-1.1,0.2-1.5,0.6C440.9,224.3,440.7,224.8,440.7,225.4z M607.5,279.1H459.7c-0.8,0-1.4-0.6-1.4-1.4v-35.5 	c0-0.4,0.1-0.7,0.4-1c0.3-0.3,0.6-0.4,1-0.4h147.8c0.4,0,0.7,0.1,1,0.4c0.3,0.3,0.4,0.6,0.4,1v35.5 	C608.9,278.5,608.3,279.1,607.5,279.1z M442.1,337.5h14.8c0.8,0,1.4,0.6,1.4,1.4v14.7c0,0.8-0.6,1.4-1.4,1.4h-14.8 	c-0.8,0-1.4-0.6-1.4-1.4v-14.7C440.7,338.1,441.3,337.5,442.1,337.5z M232.3,225.4v14c0,0.8,0.6,1.4,1.4,1.4h166.5 	c0.8,0,1.4,0.6,1.4,1.4v35.5c0,0.8-0.6,1.4-1.4,1.4H233.7c-0.8,0-1.4,0.6-1.4,1.4v14.7c0,0.8,0.6,1.4,1.4,1.4h183.3 	c1.2,0,2.1-0.9,2.1-2.1v-69.1c0-1.2-0.9-2.1-2.1-2.1H234.4C233.3,223.3,232.3,224.2,232.3,225.4z M26.4,226.8v68.4 	c0,0.8,0.6,1.4,1.4,1.4h180.8c0.9,0,1.8-0.4,2.5-1c0.7-0.7,1-1.6,1-2.5v-66.3c0-1.9-1.6-3.5-3.5-3.5H29.9 	C28,223.3,26.4,224.9,26.4,226.8z M193.2,279.1H45.4c-0.8,0-1.4-0.6-1.4-1.4v-35.5c0-0.4,0.1-0.7,0.4-1c0.3-0.3,0.6-0.4,1-0.4h147.8 	c0.4,0,0.7,0.1,1,0.4c0.3,0.3,0.4,0.6,0.4,1v35.5C194.6,278.5,194,279.1,193.2,279.1z M27.8,337.5h14.8c0.8,0,1.4,0.6,1.4,1.4v14.7 	c0,0.8-0.6,1.4-1.4,1.4H27.8c-0.8,0-1.4-0.6-1.4-1.4v-14.7C26.4,338.1,27.1,337.5,27.8,337.5z M419.2,339.6v13.3 	c0,1.2-0.9,2.1-2.1,2.1H233.8c-0.8,0-1.4-0.6-1.4-1.4v-14.7c0-0.8,0.6-1.4,1.4-1.4h183.3C418.2,337.5,419.2,338.4,419.2,339.6z 	 M37.6,421.9l5.6-20.1H48l-8.3,26.9h-4.2l-8.4-26.9H32L37.6,421.9z M114.1,422.4h-8.4l-1.8,6.2h-4.6l8.8-26.9h3.9l8.6,26.9h-4.7 	L114.1,422.4z M106.9,418.6h6.2l-3.1-10.5L106.9,418.6z M178,425.1h12.8v3.6h-17.3v-26.9h4.4V425.1z M245.8,401.8h16v3.6h-5.8V425 	h5.8v3.6h-16V425h5.7v-19.5h-5.7L245.8,401.8z M317,428.7v-26.9l6.6,0c1.7,0,3.4,0.3,5,0.9c1.4,0.6,2.7,1.4,3.8,2.6 	c1.1,1.1,1.9,2.5,2.4,3.9c0.6,1.6,0.9,3.3,0.9,5v2c0,1.7-0.3,3.4-0.9,5c-0.5,1.5-1.3,2.8-2.4,3.9c-1,1.1-2.3,2-3.7,2.6 	c-1.6,0.6-3.2,0.9-4.9,0.9H317z M321.5,405.4v19.7h2.2c1.1,0,2.2-0.2,3.2-0.7c0.9-0.4,1.7-1,2.3-1.8c0.6-0.8,1.1-1.8,1.4-2.8 	c0.3-1.2,0.5-2.4,0.5-3.6v-2.1c0-1.2-0.1-2.4-0.5-3.6c-0.3-1-0.7-2-1.4-2.8c-0.6-0.8-1.4-1.4-2.3-1.8c-1-0.5-2.2-0.7-3.3-0.7 	L321.5,405.4z M402.3,422.4h-8.4l-1.8,6.2h-4.6l8.8-26.9h3.9l8.6,26.9h-4.6L402.3,422.4z M395.1,418.6h6.2l-3-10.5L395.1,418.6z 	 M480.4,405.4h-8.3v23.2h-4.4v-23.2h-8.2v-3.6h20.9V405.4z M551.6,416.9c0,1.5-0.2,3.1-0.6,4.6c-0.4,1.4-1,2.7-1.8,3.9 	c-0.8,1.1-1.8,2-3,2.6c-1.3,0.7-2.8,1-4.3,1c-1.5,0-2.9-0.3-4.2-1c-1.2-0.7-2.2-1.6-3-2.7c-0.8-1.2-1.4-2.5-1.8-3.8 	c-0.4-1.5-0.6-3-0.6-4.6v-3.4c0-1,0.1-2.1,0.3-3.1c0.2-1,0.4-1.9,0.8-2.8c0.3-0.9,0.8-1.7,1.3-2.5c0.5-0.7,1.1-1.4,1.8-2 	c0.7-0.5,1.5-1,2.4-1.3c1-0.3,2-0.5,3-0.5c1.5,0,3,0.3,4.3,1c1.2,0.6,2.2,1.6,3,2.7c0.8,1.2,1.4,2.5,1.8,3.9c0.4,1.5,0.6,3,0.6,4.6 	L551.6,416.9z M547.2,413.5c0-1-0.1-2-0.3-3c-0.1-0.9-0.4-1.8-0.9-2.7c-0.4-0.7-0.9-1.3-1.6-1.8c-0.7-0.5-1.6-0.8-2.5-0.7 	c-0.9,0-1.8,0.2-2.5,0.7c-0.7,0.5-1.2,1.2-1.6,1.9c-0.4,0.8-0.7,1.7-0.8,2.7c-0.2,1-0.2,2-0.3,3v3.3c0,1,0.1,2,0.3,3 	c0.1,0.9,0.4,1.8,0.8,2.7c0.4,0.8,0.9,1.4,1.6,1.9c0.7,0.5,1.6,0.8,2.5,0.7c0.9,0,1.8-0.2,2.5-0.7c0.7-0.5,1.2-1.2,1.6-1.9 	c0.4-0.8,0.7-1.7,0.9-2.7c0.2-1,0.3-2,0.3-3V413.5z M614.4,418.2h-4.5v10.5h-4.4v-26.9h8.5c1.3,0,2.6,0.2,3.8,0.5 	c1.1,0.3,2.1,0.8,3,1.5c0.9,0.7,1.5,1.5,2,2.5c0.5,1.1,0.7,2.4,0.7,3.6c0,0.8-0.1,1.7-0.4,2.5c-0.2,0.7-0.6,1.4-1,2 	c-0.4,0.6-1,1.1-1.6,1.6c-0.6,0.5-1.3,0.8-2,1.2l5.7,11.3v0.2h-4.7L614.4,418.2z M609.9,414.6h4.1c0.7,0,1.4-0.1,2-0.3 	c0.6-0.2,1.1-0.5,1.6-0.9c0.5-0.4,0.8-0.9,1.1-1.4c0.3-0.6,0.4-1.3,0.4-1.9c0-0.7-0.1-1.4-0.3-2c-0.2-0.6-0.6-1.1-1-1.5 	c-0.5-0.4-1-0.7-1.6-0.9c-0.7-0.2-1.4-0.3-2.1-0.3h-4.1V414.6z"></path> </svg>
