<svg id="svg" version="1.1" xmlns="http://www.w3.org/2000/svg" xmlns:xlink="http://www.w3.org/1999/xlink" width="400" height="400" viewBox="0, 0, 400,400"><g id="svgg"><path id="path0" d="M186.868 22.383 C 182.791 23.029,182.289 24.191,183.640 29.868 C 185.933 39.503,183.436 46.400,177.655 46.400 C 172.607 46.400,164.135 40.658,162.969 36.444 C 161.411 30.817,160.906 30.491,154.824 31.178 C 146.654 32.101,146.006 32.783,148.087 38.264 C 149.533 42.074,152.122 44.343,156.897 45.987 C 165.297 48.878,167.807 51.834,165.973 56.674 C 163.766 62.500,156.163 63.132,142.800 58.600 C 133.435 55.424,129.231 56.383,122.200 63.299 C 114.154 71.214,106.209 71.690,99.467 64.661 L 96.726 61.804 96.006 62.693 C 95.599 63.196,94.998 65.192,94.621 67.291 C 92.956 76.581,89.533 79.335,81.788 77.616 C 76.009 76.333,72.800 77.133,72.800 79.856 C 72.800 81.814,76.187 82.110,83.652 80.804 C 86.153 80.366,89.280 80.003,90.600 79.996 C 91.920 79.989,94.170 79.722,95.600 79.403 C 106.843 76.893,114.165 78.125,116.674 82.950 C 117.003 83.583,117.888 86.545,118.641 89.533 C 121.058 99.130,124.605 103.201,129.717 102.242 C 133.247 101.580,134.000 99.192,133.008 91.806 C 132.022 84.466,132.650 81.674,135.956 78.687 C 142.166 73.077,151.929 72.756,160.085 77.894 C 163.238 79.880,164.520 80.273,168.955 80.610 C 177.762 81.281,183.751 85.757,186.426 93.669 C 188.310 99.239,187.254 103.761,182.483 110.554 C 176.988 118.381,178.730 124.806,188.575 133.019 C 200.666 143.105,200.890 147.458,190.399 168.400 C 185.514 178.152,184.840 180.028,184.168 185.754 C 183.449 191.885,183.127 192.410,178.640 194.746 C 171.646 198.388,171.595 201.039,178.428 205.699 C 183.789 209.355,185.838 212.278,184.851 214.861 C 183.577 218.193,180.339 218.062,174.583 214.446 C 164.052 207.831,159.810 206.840,152.584 209.310 C 146.959 211.233,145.572 213.436,146.401 219.128 C 147.301 225.311,148.226 226.417,158.000 233.013 C 161.190 235.166,164.700 237.596,165.800 238.414 C 168.916 240.730,169.442 240.896,174.783 241.241 C 177.542 241.419,182.117 241.860,184.949 242.220 C 193.615 243.324,196.558 241.962,192.782 238.596 C 188.439 234.723,190.803 229.812,197.400 229.003 C 198.500 228.868,201.020 228.206,203.000 227.531 C 206.300 226.405,206.884 226.324,210.009 226.559 C 212.539 226.749,214.862 226.596,219.009 225.967 C 225.551 224.974,234.662 225.070,246.000 226.250 C 249.769 226.643,256.118 226.951,260.800 226.969 L 269.000 227.000 272.800 225.438 C 280.952 222.086,287.094 222.903,292.000 227.992 C 296.272 232.424,295.334 232.163,308.000 232.442 C 323.005 232.772,323.657 233.058,328.004 241.200 C 329.848 244.654,330.596 245.649,332.213 246.800 C 340.087 252.406,340.250 255.639,333.383 270.070 C 328.444 280.449,327.683 282.479,326.815 287.600 C 325.897 293.016,325.408 294.107,322.297 297.674 C 318.944 301.519,318.781 301.859,317.965 306.720 C 316.532 315.262,312.596 319.683,296.999 330.272 C 293.663 332.536,289.141 336.067,286.814 338.223 C 281.113 343.506,280.509 343.745,271.200 344.390 C 257.779 345.321,256.635 345.777,251.516 352.235 C 247.604 357.172,246.667 357.742,235.800 361.800 C 218.751 368.166,214.487 368.873,211.607 365.808 C 208.240 362.223,211.392 356.469,224.427 342.400 C 231.632 334.625,236.680 328.411,238.727 324.800 L 240.200 322.200 240.336 316.576 C 240.532 308.456,239.644 306.214,235.245 303.725 C 229.957 300.733,227.365 298.896,224.719 296.265 C 223.113 294.669,219.302 291.302,216.249 288.782 C 211.950 285.233,210.281 283.569,208.846 281.400 C 207.240 278.973,206.622 278.404,204.204 277.133 C 198.244 273.997,197.202 270.872,198.357 259.600 C 199.013 253.197,198.648 252.948,188.200 252.672 C 183.800 252.556,178.659 252.239,176.777 251.968 C 172.482 251.349,171.702 251.553,169.005 253.995 C 161.807 260.514,149.663 260.642,127.778 254.430 C 113.158 250.280,108.732 247.665,106.603 241.920 C 105.146 237.988,103.900 236.868,99.172 235.239 C 92.454 232.923,86.277 226.460,74.858 209.800 C 72.747 206.720,69.597 202.685,67.858 200.833 C 63.983 196.709,63.185 195.031,61.399 187.251 C 59.959 180.981,59.600 179.830,56.886 172.800 C 53.054 162.872,53.009 156.623,56.708 148.000 C 57.721 145.639,58.729 142.289,59.369 139.154 C 61.555 128.453,60.554 126.082,51.904 121.466 C 45.647 118.127,45.250 118.425,40.617 129.959 C 2.203 225.572,48.993 335.066,142.236 367.761 C 258.222 408.431,375.435 313.014,366.007 185.600 C 359.222 93.916,287.348 23.508,199.200 22.197 C 193.590 22.113,188.041 22.197,186.868 22.383 M208.420 23.619 C 272.575 28.610,332.516 74.290,348.993 130.746 C 350.227 134.975,349.531 141.946,347.971 140.982 C 347.799 140.876,347.449 141.827,347.191 143.095 C 346.934 144.363,346.372 146.207,345.943 147.194 C 345.513 148.180,345.319 149.040,345.510 149.103 C 346.035 149.278,345.572 151.753,344.946 152.120 C 344.646 152.296,344.399 152.656,344.398 152.920 C 344.396 153.184,344.127 153.914,343.800 154.542 C 343.472 155.170,343.298 155.835,343.413 156.021 C 343.528 156.207,343.257 157.397,342.811 158.665 C 342.365 159.934,342.000 161.258,342.000 161.608 C 342.000 161.957,341.534 163.223,340.964 164.421 C 340.395 165.620,339.504 167.500,338.985 168.600 C 338.465 169.700,337.674 172.098,337.227 173.929 C 336.394 177.337,335.767 178.504,333.144 181.532 C 332.093 182.745,331.510 183.909,331.196 185.420 C 330.606 188.260,326.000 195.459,326.000 193.540 C 326.000 192.603,322.459 196.498,321.251 198.764 C 320.593 199.999,319.593 201.443,319.027 201.974 C 318.462 202.505,318.000 203.098,318.000 203.291 C 318.000 204.074,313.589 210.264,312.414 211.130 C 311.720 211.641,310.509 213.081,309.722 214.330 C 307.718 217.511,306.937 218.280,304.263 219.706 C 302.972 220.393,301.644 221.371,301.312 221.878 C 300.980 222.385,300.538 222.800,300.331 222.800 C 300.123 222.800,299.288 223.335,298.475 223.988 C 296.937 225.224,295.709 225.282,294.400 224.183 C 289.715 220.250,279.215 220.098,270.400 223.837 C 266.789 225.369,261.655 225.502,247.155 224.439 C 233.382 223.429,224.876 223.369,219.400 224.243 C 217.114 224.607,213.295 224.860,210.486 224.833 C 206.034 224.789,205.246 224.895,202.086 225.961 C 200.169 226.608,197.520 227.257,196.200 227.403 C 189.899 228.099,187.225 232.164,189.250 237.971 C 190.130 240.495,189.337 240.596,177.862 239.423 L 170.324 238.652 163.462 234.129 C 149.966 225.232,149.714 225.005,148.580 220.743 C 146.964 214.671,148.184 212.441,154.140 210.584 C 160.619 208.564,164.213 209.596,174.598 216.454 C 179.317 219.570,179.387 219.682,177.300 220.755 C 170.478 224.264,171.963 233.549,179.354 233.591 C 186.301 233.630,189.175 227.054,184.565 221.668 L 183.119 219.978 184.759 218.198 C 187.927 214.761,186.822 209.939,182.120 206.680 C 173.283 200.553,172.921 199.293,179.083 196.083 C 183.948 193.549,185.151 191.722,185.197 186.800 C 185.234 182.820,186.349 179.508,190.617 170.691 C 201.238 148.750,201.554 142.448,192.400 135.031 C 179.800 124.822,177.729 119.321,183.371 111.058 C 188.314 103.818,189.267 100.295,187.802 94.672 C 185.485 85.778,178.796 80.419,169.000 79.609 C 164.458 79.234,163.797 79.028,160.636 77.006 C 153.546 72.470,145.583 71.964,138.421 75.594 C 132.921 78.381,130.698 83.006,131.625 89.735 C 132.940 99.279,132.463 101.000,128.503 101.000 C 124.123 101.000,121.613 97.438,119.588 88.345 C 117.288 78.020,112.236 75.369,98.363 77.205 C 93.035 77.910,93.091 77.996,94.994 72.114 C 97.027 65.833,96.850 65.968,100.455 67.946 C 109.212 72.752,115.337 71.818,122.820 64.536 C 130.175 57.379,133.504 56.678,143.904 60.101 C 153.082 63.121,157.931 63.529,162.201 61.641 C 166.720 59.642,168.772 55.180,167.060 51.081 C 165.964 48.459,164.209 47.416,155.595 44.266 C 151.974 42.942,148.800 38.836,148.800 35.474 C 148.800 33.561,149.349 33.254,154.015 32.559 C 159.759 31.704,160.450 32.059,161.605 36.463 C 163.409 43.349,176.319 49.788,181.678 46.475 C 185.216 44.289,186.569 37.643,184.993 30.200 C 183.897 25.025,184.231 24.080,187.335 23.572 C 190.005 23.136,202.569 23.163,208.420 23.619 M171.680 30.480 C 170.769 31.391,171.115 33.576,172.369 34.831 C 175.091 37.552,177.252 34.381,175.009 30.958 C 174.322 29.909,172.511 29.649,171.680 30.480 M131.974 39.744 C 119.182 44.260,107.120 52.478,107.120 56.677 C 107.120 61.694,112.084 61.112,117.433 55.468 C 122.383 50.245,128.119 48.227,137.339 48.464 C 143.764 48.630,143.820 48.553,141.015 43.406 C 138.298 38.422,137.096 37.936,131.974 39.744 M138.165 41.400 C 139.266 42.588,140.564 45.795,140.263 46.581 C 140.096 47.016,139.024 47.125,135.325 47.084 C 126.857 46.991,121.558 48.949,116.574 54.013 C 113.023 57.620,111.565 58.578,110.163 58.226 C 104.634 56.839,117.345 46.932,131.798 41.365 C 135.061 40.108,136.977 40.118,138.165 41.400 M143.753 82.599 C 140.071 84.433,139.546 86.292,140.627 93.660 C 142.168 104.172,137.875 110.000,128.591 110.000 C 119.571 110.000,113.524 104.365,110.993 93.600 C 109.243 86.156,108.007 85.676,97.508 88.363 C 91.361 89.937,90.270 90.133,79.520 91.607 C 68.257 93.152,62.774 96.589,58.847 104.566 C 56.965 108.388,57.356 109.532,61.654 112.791 C 70.723 119.666,72.869 126.433,70.600 141.000 C 70.292 142.980,69.839 146.214,69.593 148.188 C 69.348 150.161,68.754 152.681,68.273 153.788 C 66.838 157.095,67.049 160.350,68.920 163.744 C 69.752 165.253,70.680 167.437,70.983 168.598 C 71.692 171.322,72.512 172.879,74.251 174.804 C 75.251 175.911,75.631 176.683,75.568 177.480 C 75.366 180.030,75.636 180.814,77.400 182.800 C 78.390 183.915,79.200 185.004,79.200 185.220 C 79.200 185.436,79.803 185.901,80.541 186.252 C 81.912 186.906,83.200 188.611,83.200 189.772 C 83.200 190.128,83.695 190.608,84.299 190.838 C 85.998 191.483,86.718 192.332,87.004 194.024 C 87.148 194.878,87.587 195.987,87.978 196.488 C 88.370 196.990,89.107 198.210,89.617 199.200 C 90.496 200.909,90.556 200.949,90.790 200.000 C 90.993 199.179,91.084 199.122,91.299 199.682 C 91.443 200.057,92.268 200.724,93.132 201.165 C 93.995 201.606,95.939 203.299,97.451 204.929 C 98.963 206.558,100.943 208.354,101.852 208.920 C 102.760 209.486,103.891 210.576,104.365 211.343 C 104.838 212.109,105.883 213.124,106.687 213.599 C 107.565 214.116,107.971 214.570,107.705 214.735 C 107.444 214.897,108.114 215.550,109.335 216.322 C 110.475 217.045,111.851 218.281,112.392 219.070 C 114.059 221.503,118.951 223.731,120.947 222.965 C 122.317 222.439,125.103 224.546,127.294 227.765 C 129.825 231.485,131.368 232.534,133.920 232.271 C 136.516 232.003,136.332 233.111,135.806 220.913 C 135.405 211.603,135.841 209.202,138.482 206.202 C 141.437 202.845,148.578 199.973,155.918 199.189 C 162.142 198.524,162.497 198.366,164.333 195.459 C 166.294 192.354,168.001 190.712,171.462 188.604 C 174.891 186.515,175.479 185.677,176.635 181.226 C 177.809 176.705,178.837 174.382,183.318 166.118 C 192.866 148.512,193.065 145.694,185.216 139.213 C 171.813 128.146,169.194 118.291,176.713 107.228 C 184.226 96.173,180.007 88.142,166.200 87.217 C 160.833 86.857,159.901 86.583,157.119 84.541 C 152.884 81.432,147.628 80.668,143.753 82.599 M153.400 83.822 C 154.500 84.337,156.390 85.394,157.600 86.173 C 160.125 87.797,162.735 88.400,167.240 88.400 C 174.202 88.400,179.600 92.924,179.600 98.759 C 179.600 100.583,178.803 102.247,175.875 106.536 C 167.884 118.238,170.952 129.438,185.215 140.644 C 191.839 145.848,191.313 149.100,180.723 168.418 C 177.269 174.717,176.677 176.106,175.383 180.944 C 174.320 184.915,173.550 185.996,170.776 187.408 C 167.723 188.962,164.966 191.422,163.415 193.976 C 161.604 196.957,161.327 197.109,157.152 197.430 C 147.504 198.172,139.554 201.258,134.044 206.403 L 132.288 208.042 131.244 207.100 C 130.670 206.581,129.255 205.731,128.100 205.210 C 126.347 204.420,126.000 204.091,126.000 203.222 C 126.000 201.611,118.945 194.922,118.118 195.749 C 117.114 196.753,110.000 191.609,110.000 189.879 C 110.000 188.470,107.541 186.000,106.138 186.000 C 104.949 186.000,101.055 183.069,100.406 181.685 C 99.345 179.426,99.222 178.055,100.067 177.922 C 100.728 177.818,100.546 177.451,98.815 175.400 C 97.701 174.080,96.477 172.482,96.095 171.850 C 95.713 171.217,94.692 169.786,93.827 168.669 C 92.659 167.161,92.164 166.067,91.906 164.419 C 91.512 161.901,90.809 160.774,90.784 162.620 L 90.769 163.800 90.226 162.600 C 89.928 161.940,89.060 160.917,88.297 160.327 C 87.338 159.585,86.697 158.603,86.221 157.148 C 85.842 155.990,84.611 153.723,83.486 152.111 L 81.439 149.180 82.158 147.964 C 82.854 146.786,82.851 146.690,82.072 144.874 C 81.599 143.770,81.355 142.550,81.480 141.905 C 81.631 141.123,81.504 140.738,81.036 140.559 C 80.540 140.368,80.440 139.995,80.623 139.016 C 80.831 137.907,80.635 137.458,79.233 135.838 C 77.468 133.798,77.448 133.707,77.415 127.161 C 77.403 124.691,77.491 124.242,77.887 124.761 C 78.568 125.654,78.515 125.102,77.729 123.140 C 77.178 121.763,77.010 121.600,76.790 122.229 C 76.555 122.898,76.435 122.827,75.832 121.663 C 75.018 120.088,75.236 116.228,76.316 113.076 C 76.951 111.222,76.943 111.061,76.091 108.676 C 74.651 104.645,74.545 102.778,75.632 100.533 C 76.501 98.738,76.582 98.674,76.808 99.603 C 77.001 100.398,77.194 100.021,77.758 97.742 C 78.601 94.337,78.738 94.259,86.800 92.591 C 93.970 91.109,96.512 90.481,100.791 89.136 C 106.863 87.228,108.085 87.879,109.530 93.790 C 112.479 105.858,119.168 111.617,129.663 111.123 C 135.271 110.858,138.417 108.945,140.894 104.289 C 141.843 102.505,141.983 99.434,141.560 89.711 C 141.281 83.289,146.599 80.644,153.400 83.822 M54.404 126.900 C 56.574 128.377,57.357 129.740,57.323 131.984 C 57.286 134.442,56.055 139.602,55.334 140.323 C 55.040 140.617,54.800 141.172,54.800 141.557 C 54.800 141.941,54.284 142.834,53.653 143.541 L 52.505 144.826 52.253 143.563 C 52.114 142.868,52.000 141.782,52.000 141.150 C 52.000 140.410,51.792 140.000,51.417 140.000 C 49.899 140.000,47.771 127.563,49.067 126.267 C 49.713 125.620,53.117 126.024,54.404 126.900 M183.429 223.324 C 185.929 225.474,184.854 230.272,181.658 231.230 C 177.359 232.518,173.970 229.548,175.169 225.545 C 176.076 222.518,180.964 221.203,183.429 223.324 M218.200 238.055 C 216.440 238.486,213.881 238.973,212.514 239.138 C 211.147 239.303,209.903 239.564,209.750 239.717 C 209.318 240.149,210.825 241.594,211.762 241.647 C 212.339 241.680,212.227 241.777,211.400 241.960 C 209.705 242.335,214.519 243.445,219.352 243.794 C 223.062 244.062,225.553 242.985,224.937 241.379 C 224.812 241.055,225.366 240.527,226.367 240.017 C 228.200 239.082,228.314 238.809,227.269 237.862 C 226.272 236.960,222.334 237.044,218.200 238.055 M186.080 256.250 C 186.327 256.402,188.213 256.492,190.271 256.449 C 194.473 256.361,194.896 256.636,193.977 258.857 L 193.462 260.099 190.093 259.825 C 187.501 259.615,186.792 259.664,187.023 260.037 C 187.253 260.410,186.366 260.466,183.161 260.280 C 178.781 260.026,177.085 259.710,177.397 259.204 C 177.501 259.037,176.914 258.788,176.093 258.650 C 173.812 258.269,173.356 257.854,173.901 256.659 L 174.356 255.660 179.994 255.816 C 183.094 255.902,185.833 256.097,186.080 256.250 " stroke="none" fill="#6796b6" fill-rule="evenodd"></path><path id="path1" d="M169.200 10.681 C 148.600 14.587,131.492 19.459,124.654 23.365 C 123.744 23.885,122.010 24.625,120.800 25.011 C 118.253 25.823,112.129 28.813,109.800 30.382 C 108.920 30.974,106.769 32.223,105.020 33.156 C 100.854 35.379,86.648 44.854,84.600 46.775 C 83.720 47.600,82.370 48.692,81.600 49.202 C 80.830 49.711,77.949 52.304,75.198 54.964 C 72.446 57.624,69.298 60.432,68.202 61.204 C 67.105 61.976,65.576 63.499,64.804 64.588 C 64.032 65.677,61.645 68.402,59.500 70.642 C 57.355 72.883,55.600 74.897,55.600 75.118 C 55.600 75.339,54.565 76.700,53.300 78.144 C 49.698 82.255,42.987 91.699,41.241 95.117 C 40.824 95.933,39.861 97.523,39.101 98.651 C 37.389 101.193,30.432 115.218,29.027 118.961 C 28.457 120.479,27.627 122.308,27.184 123.026 C 26.017 124.913,20.282 142.106,18.357 149.489 C 15.770 159.405,13.999 168.748,14.000 172.477 C 14.000 174.043,13.419 177.829,12.600 181.600 L 11.200 188.046 11.200 199.449 C 11.200 211.175,11.355 212.695,13.273 219.800 C 13.511 220.680,13.847 223.110,14.021 225.200 C 14.799 234.576,16.207 243.016,17.973 248.882 C 18.390 250.267,18.854 252.030,19.006 252.800 C 20.905 262.462,34.282 294.735,38.984 301.000 C 39.479 301.660,40.296 303.010,40.800 304.000 C 42.284 306.918,50.397 318.788,52.480 321.088 C 53.536 322.254,54.400 323.365,54.400 323.557 C 54.400 323.749,55.840 325.456,57.600 327.351 C 59.360 329.246,60.800 331.001,60.800 331.250 C 60.800 331.993,74.031 345.192,76.200 346.613 C 77.300 347.333,78.920 348.677,79.800 349.598 C 80.680 350.520,82.210 351.827,83.200 352.504 C 84.190 353.181,85.740 354.405,86.644 355.224 C 88.543 356.944,100.561 365.054,103.212 366.405 C 104.195 366.906,105.540 367.723,106.200 368.221 C 107.582 369.265,121.490 376.144,125.025 377.533 C 126.331 378.046,128.750 379.002,130.400 379.658 C 141.220 383.955,151.673 387.014,162.800 389.140 C 165.110 389.581,168.080 390.171,169.400 390.451 C 172.748 391.162,211.442 391.435,215.169 390.775 C 216.616 390.518,219.960 390.178,222.600 390.018 C 239.482 388.998,276.144 376.663,287.400 368.216 C 288.060 367.721,289.410 366.904,290.400 366.400 C 292.120 365.526,299.497 360.743,301.600 359.138 C 302.150 358.719,303.400 357.796,304.379 357.088 C 305.357 356.379,307.201 354.855,308.475 353.700 C 309.750 352.545,311.008 351.600,311.271 351.600 C 312.025 351.600,337.503 326.046,339.188 323.600 C 340.021 322.390,341.108 321.040,341.603 320.600 C 342.408 319.885,343.773 317.986,349.706 309.329 C 350.638 307.969,352.148 305.629,353.062 304.129 C 355.085 300.807,366.000 278.958,366.000 278.231 C 366.000 277.945,366.517 276.561,367.148 275.155 C 367.780 273.750,369.474 268.910,370.914 264.400 C 375.255 250.802,375.293 250.663,377.848 238.800 C 378.204 237.150,378.767 234.720,379.100 233.400 C 379.433 232.080,379.847 228.210,380.021 224.800 C 380.251 220.267,380.584 217.740,381.259 215.400 C 382.776 210.140,382.667 188.499,381.092 182.303 C 380.300 179.186,380.000 177.013,380.000 174.387 C 380.000 171.755,379.626 169.052,378.630 164.484 C 377.877 161.028,377.140 157.570,376.993 156.800 C 375.711 150.088,369.213 128.706,367.376 125.153 C 367.054 124.531,366.340 122.773,365.790 121.248 C 363.192 114.045,349.861 89.643,347.416 87.614 C 347.051 87.310,345.687 85.419,344.386 83.410 C 343.085 81.402,341.546 79.318,340.966 78.779 C 340.386 78.241,339.227 76.810,338.391 75.600 C 337.555 74.390,335.579 72.140,334.000 70.600 C 332.421 69.060,330.448 66.810,329.614 65.600 C 328.010 63.270,323.942 59.200,323.218 59.200 C 322.981 59.200,320.676 57.163,318.094 54.674 C 315.512 52.184,312.770 49.726,312.000 49.212 C 311.230 48.697,309.880 47.606,309.000 46.788 C 308.120 45.970,305.870 44.270,304.000 43.011 C 302.130 41.753,300.150 40.300,299.600 39.784 C 299.050 39.268,297.340 38.146,295.800 37.289 C 292.866 35.658,289.957 33.914,286.600 31.774 C 284.241 30.270,275.438 25.832,274.000 25.421 C 273.450 25.264,271.470 24.438,269.600 23.586 C 262.585 20.389,253.869 17.309,246.000 15.247 C 240.153 13.715,228.351 11.204,226.904 11.186 C 226.297 11.178,224.720 10.911,223.400 10.592 C 219.939 9.756,173.675 9.832,169.200 10.681 M215.650 20.967 C 300.440 31.541,363.831 100.893,369.240 189.000 C 376.433 306.163,274.959 399.207,164.200 377.008 C 54.949 355.112,-6.034 233.189,39.036 126.769 C 44.269 114.410,45.077 113.961,53.292 118.828 C 62.909 124.526,64.308 127.415,62.422 137.680 C 61.348 143.526,60.607 146.231,59.142 149.659 C 55.772 157.544,55.990 162.517,60.177 173.200 C 61.383 176.279,62.942 181.351,63.803 185.000 C 65.762 193.306,66.468 194.837,70.098 198.665 C 71.733 200.389,74.485 203.870,76.214 206.400 C 87.826 223.399,94.467 230.489,100.738 232.581 C 106.112 234.374,107.490 235.668,109.377 240.691 C 111.221 245.601,116.893 248.511,132.600 252.610 C 150.919 257.389,160.833 257.197,166.625 251.948 C 170.481 248.453,171.275 248.283,178.304 249.443 C 180.811 249.856,184.987 250.106,190.018 250.143 C 201.689 250.228,201.752 250.304,201.036 263.400 C 200.630 270.827,201.023 271.705,205.955 274.380 C 208.945 276.002,209.515 276.504,211.201 279.000 C 212.321 280.659,214.296 282.800,216.046 284.252 C 217.671 285.601,220.260 287.747,221.800 289.021 C 223.340 290.295,225.950 292.614,227.600 294.175 C 229.423 295.900,232.272 297.989,234.863 299.503 C 242.415 303.914,243.600 306.094,243.600 315.573 C 243.600 325.512,241.122 329.706,225.388 346.400 C 216.460 355.872,212.816 361.491,214.380 363.376 C 215.858 365.156,218.628 364.598,231.064 360.016 C 243.957 355.265,245.123 354.612,249.000 349.966 C 254.641 343.209,256.643 342.252,266.551 341.580 C 278.908 340.741,279.605 340.500,285.468 335.045 C 287.700 332.969,291.208 330.145,293.263 328.770 C 309.138 318.150,313.837 313.135,314.804 305.779 C 315.401 301.240,316.171 299.488,318.992 296.254 C 322.256 292.511,323.036 290.885,323.778 286.277 C 324.593 281.209,325.000 280.098,329.578 270.438 C 336.482 255.870,336.617 253.824,330.911 250.164 C 328.539 248.643,326.956 246.638,324.936 242.600 C 321.650 236.029,319.171 235.131,304.800 235.305 C 295.245 235.421,294.790 235.270,290.172 230.448 C 286.618 226.735,285.517 226.223,281.200 226.274 C 278.242 226.309,277.062 226.618,271.400 228.841 C 268.438 230.004,258.712 230.105,249.200 229.071 C 233.997 227.418,224.978 227.291,217.995 228.633 C 215.560 229.101,213.526 229.217,210.800 229.045 C 207.384 228.829,206.717 228.907,204.200 229.819 C 202.660 230.377,199.902 231.084,198.072 231.391 C 192.649 232.299,192.032 233.958,195.792 237.522 C 202.182 243.579,197.456 246.366,183.827 244.578 C 181.220 244.237,176.582 243.813,173.520 243.636 L 167.953 243.316 165.676 241.691 C 164.424 240.797,160.430 238.027,156.800 235.534 C 145.870 228.029,144.326 225.910,143.736 217.607 C 143.189 209.894,148.556 205.854,159.400 205.816 C 164.494 205.798,165.237 206.077,173.783 211.224 C 179.405 214.609,180.427 215.028,181.572 214.415 C 183.717 213.267,182.192 211.086,176.443 207.081 C 168.266 201.382,168.577 197.096,177.490 192.644 C 180.916 190.932,181.429 190.141,181.806 185.982 C 182.323 180.289,183.072 178.107,187.981 168.000 C 198.560 146.217,198.487 145.053,185.811 133.810 C 175.363 124.542,174.334 117.695,181.795 107.089 C 189.284 96.444,182.244 83.897,168.177 82.819 C 163.192 82.436,162.516 82.224,158.624 79.813 C 151.636 75.485,144.455 75.438,138.544 79.683 C 134.948 82.266,134.324 84.957,135.482 92.899 C 136.710 101.324,133.779 105.594,127.455 104.593 C 121.779 103.696,118.916 100.184,116.783 91.505 C 114.070 80.460,110.042 78.462,97.000 81.689 C 90.448 83.310,76.029 84.795,72.286 84.234 C 67.693 83.545,67.620 79.474,72.136 75.837 C 73.848 74.459,76.866 74.217,83.059 74.963 C 89.487 75.737,91.281 73.645,92.603 63.836 C 93.841 54.651,96.802 53.419,100.400 60.595 C 104.518 68.808,112.809 69.410,120.000 62.018 C 127.958 53.838,132.986 52.839,145.516 56.948 C 155.556 60.240,159.503 60.346,162.619 57.408 C 166.262 53.972,164.058 50.846,156.156 48.241 C 150.196 46.276,147.974 44.241,145.623 38.594 C 142.643 31.435,144.039 29.242,151.600 29.207 C 153.030 29.201,155.262 29.022,156.559 28.809 C 161.129 28.061,164.015 29.658,164.598 33.259 C 165.291 37.539,167.091 39.481,173.483 42.844 C 180.800 46.693,184.423 40.167,181.042 29.230 C 179.290 23.563,180.278 21.185,184.624 20.610 C 185.711 20.467,186.870 20.280,187.200 20.194 C 188.780 19.787,211.037 20.391,215.650 20.967 M175.631 26.910 C 180.793 30.388,180.665 40.000,175.457 40.000 C 171.209 40.000,168.000 36.468,168.000 31.793 C 168.000 26.788,171.822 24.343,175.631 26.910 M139.360 35.758 C 140.942 36.418,142.151 37.958,144.211 41.929 C 146.322 46.000,148.594 48.386,152.086 50.198 C 156.498 52.489,157.263 53.479,155.771 54.971 C 154.797 55.945,152.932 55.741,145.284 53.824 C 131.486 50.365,127.336 51.157,119.420 58.762 C 114.481 63.507,112.379 64.458,108.755 63.589 C 102.311 62.043,101.177 55.014,106.578 50.097 C 115.765 41.735,134.282 33.636,139.360 35.758 M319.400 57.200 C 320.483 58.300,321.280 59.200,321.170 59.200 C 321.060 59.200,320.083 58.300,319.000 57.200 C 317.917 56.100,317.120 55.200,317.230 55.200 C 317.340 55.200,318.317 56.100,319.400 57.200 M75.200 56.514 C 75.200 56.576,74.165 57.611,72.900 58.814 L 70.600 61.000 72.786 58.700 C 74.818 56.563,75.200 56.217,75.200 56.514 M154.000 79.828 C 154.990 80.219,157.123 81.402,158.739 82.458 C 161.899 84.523,161.982 84.545,168.608 85.115 C 177.786 85.904,182.604 90.548,182.597 98.600 C 182.594 102.688,182.242 103.587,178.602 108.800 C 171.442 119.053,174.054 126.520,189.268 139.287 C 195.507 144.523,194.876 149.641,185.781 167.559 C 181.438 176.116,180.628 178.025,179.573 182.189 C 178.178 187.694,177.405 188.940,174.079 191.043 C 171.028 192.972,169.379 194.562,167.696 197.200 C 164.877 201.617,164.404 201.895,158.808 202.433 C 150.642 203.217,142.988 206.496,141.216 209.969 C 139.734 212.874,140.361 222.884,142.300 227.267 C 143.452 229.871,146.542 232.677,153.346 237.295 C 162.091 243.232,163.200 244.361,163.200 247.326 C 163.200 254.444,146.339 253.690,123.391 245.546 C 115.897 242.887,115.003 242.191,112.400 237.000 C 109.915 232.043,108.581 230.903,103.237 229.166 C 96.921 227.113,89.779 219.528,78.826 203.239 C 77.471 201.223,75.109 198.200,73.578 196.520 C 70.296 192.919,69.187 190.738,68.030 185.600 C 67.200 181.913,65.620 176.922,62.628 168.534 C 60.039 161.279,60.067 156.874,62.734 151.442 C 64.546 147.750,66.800 136.107,66.800 130.436 C 66.800 125.331,63.444 120.592,57.257 116.961 C 48.086 111.579,48.066 105.965,57.187 96.759 C 64.559 89.319,67.093 88.309,81.200 87.187 C 87.945 86.651,93.158 85.844,97.800 84.617 C 108.468 81.799,112.034 83.369,113.987 91.745 C 116.381 102.012,121.521 107.344,129.049 107.368 C 136.339 107.392,139.312 102.340,137.858 92.400 C 137.429 89.470,137.352 87.656,137.604 86.400 C 137.803 85.410,137.973 84.471,137.983 84.314 C 138.221 80.404,148.302 77.580,154.000 79.828 M381.492 200.291 C 381.405 201.121,381.333 200.540,381.331 199.000 C 381.329 197.460,381.400 196.781,381.489 197.491 C 381.577 198.201,381.579 199.461,381.492 200.291 M178.384 225.533 C 176.426 227.118,178.628 229.554,181.029 228.459 C 182.268 227.895,182.393 225.838,181.226 225.214 C 180.117 224.620,179.413 224.699,178.384 225.533 M284.374 230.987 C 284.998 231.309,286.474 232.626,287.654 233.913 C 292.533 239.231,293.712 239.621,306.000 239.966 C 318.098 240.307,318.399 240.446,321.843 247.292 C 322.888 249.369,324.567 251.852,325.987 253.418 C 329.838 257.668,329.975 256.896,322.657 272.200 C 319.603 278.588,319.144 279.846,318.588 283.354 C 317.848 288.021,317.179 289.465,314.185 292.861 C 311.040 296.428,310.116 298.434,309.390 303.268 C 308.291 310.586,305.509 313.538,289.528 324.350 C 287.178 325.939,283.526 328.846,281.412 330.809 C 276.670 335.213,275.897 335.485,266.600 336.015 C 258.298 336.488,256.586 336.811,252.970 338.586 C 250.131 339.979,249.522 340.539,243.856 346.969 C 240.843 350.387,236.098 352.800,232.386 352.800 C 229.301 352.800,229.404 351.041,232.721 347.098 C 233.755 345.870,236.408 342.729,238.618 340.119 C 248.491 328.457,249.398 326.268,249.103 314.799 C 248.794 302.779,247.498 300.683,236.738 294.800 C 234.744 293.710,232.175 291.808,230.223 289.975 C 228.450 288.312,224.693 285.100,221.873 282.838 C 217.783 279.557,216.391 278.169,214.984 275.976 C 213.252 273.273,212.151 272.332,208.400 270.351 C 205.290 268.708,204.728 267.007,205.043 260.200 C 205.281 255.061,205.194 253.938,203.992 246.563 C 202.080 234.835,203.249 232.800,211.897 232.800 C 213.406 232.800,216.251 232.444,218.220 232.009 C 222.692 231.020,233.258 230.918,241.711 231.781 C 264.859 234.144,268.221 234.154,274.641 231.876 C 279.044 230.313,282.467 230.000,284.374 230.987 " stroke="none" fill="#2f2c40" fill-rule="evenodd"></path><path id="path2" d="M191.000 25.869 C 187.722 26.108,187.804 25.910,187.774 33.721 C 187.722 47.160,183.557 51.509,173.286 48.846 C 171.490 48.381,169.833 48.000,169.603 48.000 C 169.323 48.000,169.269 49.227,169.439 51.700 C 170.282 63.901,161.248 67.576,143.293 62.337 C 133.431 59.458,131.434 59.950,124.600 66.936 C 121.444 70.162,119.493 71.804,117.700 72.741 C 114.691 74.313,114.709 74.155,117.248 76.615 C 119.824 79.113,120.604 80.841,121.800 86.706 C 123.309 94.104,124.619 97.072,126.894 98.249 C 129.655 99.676,130.563 97.977,129.699 92.995 C 128.890 88.333,129.176 82.303,130.317 79.960 C 134.887 70.575,150.080 68.300,161.502 75.290 C 164.649 77.216,164.987 77.327,168.702 77.663 C 179.308 78.621,186.161 83.672,189.198 92.772 C 191.274 98.991,190.161 104.399,185.350 111.469 C 179.975 119.368,181.525 123.809,192.792 132.793 C 203.052 140.976,203.274 148.573,193.843 168.725 C 192.228 172.176,190.527 175.810,190.064 176.800 C 188.392 180.372,187.961 182.239,187.755 186.800 C 187.395 194.773,186.724 196.203,182.289 198.451 C 180.293 199.463,179.885 199.979,180.498 200.718 C 181.058 201.393,184.715 203.279,185.800 203.452 C 190.391 204.186,193.438 204.375,200.800 204.385 C 205.530 204.391,210.030 204.234,210.800 204.037 C 213.725 203.289,215.200 203.217,215.200 203.825 C 215.200 204.490,216.025 204.548,218.000 204.023 C 218.770 203.819,220.165 203.453,221.100 203.210 C 222.076 202.957,222.800 202.532,222.800 202.212 C 222.800 201.568,223.146 201.440,227.166 200.602 C 228.797 200.262,231.677 199.291,233.566 198.444 C 235.455 197.597,237.450 196.768,238.000 196.601 C 238.550 196.434,239.675 195.957,240.500 195.541 C 241.755 194.908,242.000 194.881,242.000 195.378 C 242.000 196.194,244.638 194.654,244.899 193.686 C 245.001 193.309,246.505 192.199,248.242 191.220 C 249.979 190.241,252.455 188.666,253.744 187.720 C 255.132 186.702,256.526 186.000,257.163 186.000 C 257.897 186.000,258.738 185.481,259.819 184.360 C 260.688 183.458,262.354 182.176,263.521 181.510 C 264.687 180.845,266.397 179.390,267.321 178.277 C 268.244 177.164,269.999 175.162,271.221 173.827 C 275.952 168.657,276.800 167.515,276.800 166.315 C 276.800 164.760,280.364 159.167,281.200 159.410 C 281.993 159.642,284.433 155.846,286.231 151.583 C 286.991 149.780,287.957 147.822,288.376 147.233 C 288.796 146.644,289.621 144.488,290.209 142.443 C 290.798 140.398,291.696 137.796,292.206 136.662 C 293.389 134.032,294.742 126.459,294.101 126.062 C 293.780 125.864,293.756 124.931,294.018 122.792 C 294.513 118.746,294.722 118.000,295.361 118.000 C 296.526 118.000,296.907 110.849,295.800 109.743 C 295.421 109.364,295.200 108.379,295.200 107.071 C 295.199 103.639,294.407 96.352,293.764 93.865 C 293.373 92.356,293.295 91.366,293.542 91.065 C 294.208 90.255,293.140 82.400,292.364 82.400 C 291.792 82.400,290.829 80.175,291.044 79.352 C 291.566 77.358,283.206 58.296,282.389 59.618 C 282.227 59.881,281.409 59.025,280.396 57.532 C 279.451 56.139,278.256 54.491,277.739 53.869 C 277.223 53.247,276.800 52.317,276.800 51.801 C 276.800 49.758,269.765 44.665,261.200 40.509 C 248.073 34.139,235.028 30.041,219.572 27.432 C 213.312 26.375,196.593 25.460,191.000 25.869 M154.300 35.440 C 150.107 36.729,154.713 42.781,159.900 42.796 C 161.456 42.801,161.443 42.899,160.211 40.582 C 159.667 39.558,159.106 38.105,158.964 37.351 C 158.520 34.985,157.346 34.503,154.300 35.440 M146.153 86.340 C 144.515 87.370,144.294 88.463,144.831 92.883 C 145.842 101.192,144.760 105.290,139.865 111.702 L 137.497 114.804 137.779 117.297 C 138.111 120.231,139.589 124.815,142.268 131.220 C 144.326 136.142,144.900 137.165,147.192 140.000 C 147.992 140.990,149.345 142.681,150.198 143.758 C 151.474 145.370,151.793 145.590,151.998 145.005 C 152.288 144.179,154.912 147.119,154.710 148.042 C 154.567 148.693,160.043 152.865,160.709 152.611 C 160.989 152.505,162.396 153.224,163.835 154.209 C 165.816 155.566,166.231 156.000,165.545 156.000 C 164.105 156.000,165.170 156.743,168.171 157.832 C 169.637 158.365,171.644 158.800,172.631 158.800 C 174.581 158.800,177.200 159.705,177.200 160.380 C 177.200 160.985,178.652 160.897,179.977 160.212 C 182.635 158.837,187.200 150.945,187.200 147.723 C 187.200 145.709,187.382 145.930,180.287 139.319 C 168.493 128.329,166.374 116.744,174.134 105.679 C 178.498 99.457,178.730 96.792,175.215 93.276 C 172.920 90.982,171.899 90.666,165.800 90.367 C 159.729 90.068,158.401 89.709,154.247 87.241 C 151.275 85.476,148.092 85.121,146.153 86.340 " stroke="none" fill="#e1eaf0" fill-rule="evenodd"></path><path id="path3" d="M131.798 41.365 C 117.345 46.932,104.634 56.839,110.163 58.226 C 111.565 58.578,113.023 57.620,116.574 54.013 C 121.558 48.949,126.857 46.991,135.325 47.084 C 140.735 47.144,140.870 47.057,139.783 44.212 C 138.274 40.261,136.399 39.592,131.798 41.365 M146.055 82.993 C 142.250 83.902,141.365 85.225,141.560 89.711 C 141.983 99.434,141.843 102.505,140.894 104.289 C 138.417 108.945,135.271 110.858,129.663 111.123 C 119.168 111.617,112.479 105.858,109.530 93.790 C 108.085 87.879,106.863 87.228,100.791 89.136 C 96.512 90.481,93.970 91.109,86.800 92.591 C 78.738 94.259,78.601 94.337,77.758 97.742 C 77.194 100.021,77.001 100.398,76.808 99.603 C 76.582 98.674,76.501 98.738,75.632 100.533 C 74.545 102.778,74.651 104.645,76.091 108.676 C 76.943 111.061,76.951 111.222,76.316 113.076 C 75.236 116.228,75.018 120.088,75.832 121.663 C 76.435 122.827,76.555 122.898,76.790 122.229 C 77.010 121.600,77.178 121.763,77.729 123.140 C 78.515 125.102,78.568 125.654,77.887 124.761 C 77.491 124.242,77.403 124.691,77.415 127.161 C 77.448 133.707,77.468 133.798,79.233 135.838 C 80.635 137.458,80.831 137.907,80.623 139.016 C 80.440 139.995,80.540 140.368,81.036 140.559 C 81.504 140.738,81.631 141.123,81.480 141.905 C 81.355 142.550,81.599 143.770,82.072 144.874 C 82.851 146.690,82.854 146.786,82.158 147.964 L 81.439 149.180 83.486 152.111 C 84.611 153.723,85.842 155.990,86.221 157.148 C 86.697 158.603,87.338 159.585,88.297 160.327 C 89.060 160.917,89.928 161.940,90.226 162.600 L 90.769 163.800 90.784 162.620 C 90.809 160.774,91.512 161.901,91.906 164.419 C 92.164 166.067,92.659 167.161,93.827 168.669 C 94.692 169.786,95.713 171.217,96.095 171.850 C 96.477 172.482,97.701 174.080,98.815 175.400 C 100.546 177.451,100.728 177.818,100.067 177.922 C 99.222 178.055,99.345 179.426,100.406 181.685 C 101.055 183.069,104.949 186.000,106.138 186.000 C 107.541 186.000,110.000 188.470,110.000 189.879 C 110.000 191.609,117.114 196.753,118.118 195.749 C 118.945 194.922,126.000 201.611,126.000 203.222 C 126.000 204.091,126.347 204.420,128.100 205.210 C 129.255 205.731,130.670 206.581,131.244 207.100 L 132.288 208.042 134.044 206.403 C 139.554 201.258,147.504 198.172,157.152 197.430 C 161.327 197.109,161.604 196.957,163.415 193.976 C 164.966 191.422,167.723 188.962,170.776 187.408 C 173.550 185.996,174.320 184.915,175.383 180.944 C 176.677 176.106,177.269 174.717,180.723 168.418 C 184.460 161.600,187.829 154.902,188.175 153.600 C 188.321 153.050,187.752 153.860,186.909 155.400 C 182.313 163.803,176.313 171.200,174.093 171.200 C 172.348 171.200,165.972 168.999,162.308 167.131 C 160.489 166.203,158.797 165.482,158.549 165.528 C 158.301 165.575,157.536 165.088,156.849 164.446 C 155.325 163.022,152.972 161.600,152.141 161.600 C 151.804 161.600,150.679 160.745,149.642 159.700 C 148.604 158.655,147.226 157.332,146.578 156.759 C 140.579 151.459,134.423 143.326,132.569 138.248 C 132.077 136.902,131.149 134.806,130.506 133.590 C 129.864 132.375,129.030 130.125,128.653 128.590 C 128.277 127.056,127.692 124.927,127.354 123.860 C 126.508 121.191,126.393 120.588,126.153 117.529 C 125.907 114.390,125.887 114.409,130.671 113.156 C 140.750 110.516,143.964 104.219,142.284 90.400 C 141.624 84.974,146.536 81.842,152.800 83.696 C 153.496 83.902,153.435 83.827,152.600 83.450 C 150.714 82.599,148.385 82.436,146.055 82.993 " stroke="none" fill="#8ed3b8" fill-rule="evenodd"></path><path id="path4" d="M187.200 20.194 C 186.870 20.280,185.711 20.467,184.624 20.610 C 180.278 21.185,179.290 23.563,181.042 29.230 C 184.423 40.167,180.800 46.693,173.483 42.844 C 167.091 39.481,165.291 37.539,164.598 33.259 C 164.015 29.658,161.129 28.061,156.559 28.809 C 155.262 29.022,153.030 29.201,151.600 29.207 C 144.039 29.242,142.643 31.435,145.623 38.594 C 147.974 44.241,150.196 46.276,156.156 48.241 C 164.058 50.846,166.262 53.972,162.619 57.408 C 159.503 60.346,155.556 60.240,145.516 56.948 C 132.986 52.839,127.958 53.838,120.000 62.018 C 112.809 69.410,104.518 68.808,100.400 60.595 C 96.802 53.419,93.841 54.651,92.603 63.836 C 91.281 73.645,89.487 75.737,83.059 74.963 C 76.866 74.217,73.848 74.459,72.136 75.837 C 67.620 79.474,67.693 83.545,72.286 84.234 C 76.029 84.795,90.448 83.310,97.000 81.689 C 110.042 78.462,114.070 80.460,116.783 91.505 C 118.916 100.184,121.779 103.696,127.455 104.593 C 133.779 105.594,136.710 101.324,135.482 92.899 C 134.324 84.957,134.948 82.266,138.544 79.683 C 144.455 75.438,151.636 75.485,158.624 79.813 C 162.516 82.224,163.192 82.436,168.177 82.819 C 182.244 83.897,189.284 96.444,181.795 107.089 C 174.334 117.695,175.363 124.542,185.811 133.810 C 198.487 145.053,198.560 146.217,187.981 168.000 C 183.072 178.107,182.323 180.289,181.806 185.982 C 181.429 190.141,180.916 190.932,177.490 192.644 C 168.577 197.096,168.266 201.382,176.443 207.081 C 182.192 211.086,183.717 213.267,181.572 214.415 C 180.427 215.028,179.405 214.609,173.783 211.224 C 165.237 206.077,164.494 205.798,159.400 205.816 C 148.556 205.854,143.189 209.894,143.736 217.607 C 144.326 225.910,145.870 228.029,156.800 235.534 C 160.430 238.027,164.424 240.797,165.676 241.691 L 167.953 243.316 173.520 243.636 C 176.582 243.813,181.220 244.237,183.827 244.578 C 197.456 246.366,202.182 243.579,195.792 237.522 C 192.032 233.958,192.649 232.299,198.072 231.391 C 199.902 231.084,202.660 230.377,204.200 229.819 C 206.717 228.907,207.384 228.829,210.800 229.045 C 213.526 229.217,215.560 229.101,217.995 228.633 C 224.978 227.291,233.997 227.418,249.200 229.071 C 258.712 230.105,268.438 230.004,271.400 228.841 C 277.062 226.618,278.242 226.309,281.200 226.274 C 285.517 226.223,286.618 226.735,290.172 230.448 C 294.790 235.270,295.245 235.421,304.800 235.305 C 319.171 235.131,321.650 236.029,324.936 242.600 C 326.956 246.638,328.539 248.643,330.911 250.164 C 336.617 253.824,336.482 255.870,329.578 270.438 C 325.000 280.098,324.593 281.209,323.778 286.277 C 323.036 290.885,322.256 292.511,318.992 296.254 C 316.171 299.488,315.401 301.240,314.804 305.779 C 313.837 313.135,309.138 318.150,293.263 328.770 C 291.208 330.145,287.700 332.969,285.468 335.045 C 279.605 340.500,278.908 340.741,266.551 341.580 C 256.643 342.252,254.641 343.209,249.000 349.966 C 245.123 354.612,243.957 355.265,231.064 360.016 C 209.736 367.875,208.329 364.499,225.388 346.400 C 241.122 329.706,243.600 325.512,243.600 315.573 C 243.600 306.094,242.415 303.914,234.863 299.503 C 232.272 297.989,229.423 295.900,227.600 294.175 C 225.950 292.614,223.340 290.295,221.800 289.021 C 220.260 287.747,217.671 285.601,216.046 284.252 C 214.296 282.800,212.321 280.659,211.201 279.000 C 209.515 276.504,208.945 276.002,205.955 274.380 C 201.023 271.705,200.630 270.827,201.036 263.400 C 201.752 250.304,201.689 250.228,190.018 250.143 C 184.987 250.106,180.811 249.856,178.304 249.443 C 171.275 248.283,170.481 248.453,166.625 251.948 C 160.833 257.197,150.919 257.389,132.600 252.610 C 116.893 248.511,111.221 245.601,109.377 240.691 C 107.490 235.668,106.112 234.374,100.738 232.581 C 94.467 230.489,87.826 223.399,76.214 206.400 C 74.485 203.870,71.733 200.389,70.098 198.665 C 66.468 194.837,65.762 193.306,63.803 185.000 C 62.942 181.351,61.383 176.279,60.177 173.200 C 55.990 162.517,55.772 157.544,59.142 149.659 C 60.607 146.231,61.348 143.526,62.422 137.680 C 64.308 127.415,62.909 124.526,53.292 118.828 C 45.077 113.961,44.269 114.410,39.036 126.769 C -6.034 233.189,54.949 355.112,164.200 377.008 C 268.767 397.966,366.418 316.326,369.465 205.400 C 372.241 104.349,296.032 21.450,199.200 20.188 C 192.930 20.107,187.530 20.109,187.200 20.194 M208.820 21.217 C 297.561 28.099,365.689 102.448,368.247 195.200 C 371.494 312.962,265.887 401.980,156.200 373.937 C 67.289 351.206,10.841 259.604,28.435 166.600 C 32.314 146.094,41.050 120.792,45.272 117.834 C 47.816 116.053,59.175 122.816,61.225 127.333 C 62.846 130.902,61.320 141.568,58.147 148.842 C 54.391 157.453,54.645 162.405,59.473 174.723 C 60.448 177.211,61.856 181.903,62.602 185.151 C 64.604 193.872,65.127 195.036,68.860 199.065 C 70.618 200.963,73.154 204.155,74.493 206.158 C 86.139 223.568,93.735 231.670,100.400 233.790 C 105.273 235.341,106.379 236.382,108.172 241.107 C 110.165 246.359,114.330 248.697,129.619 253.146 C 148.965 258.777,161.252 258.590,168.007 252.562 C 171.291 249.632,171.546 249.595,180.200 250.788 C 181.740 251.000,186.192 251.180,190.094 251.187 L 197.187 251.200 198.415 252.300 C 200.037 253.753,200.497 255.882,200.006 259.663 C 198.713 269.622,199.688 272.456,205.484 275.587 C 207.783 276.828,208.507 277.502,210.200 279.968 C 211.300 281.571,213.118 283.629,214.241 284.541 C 219.463 288.786,223.666 292.399,226.609 295.174 C 228.579 297.032,231.459 299.169,234.071 300.710 C 241.540 305.117,242.200 306.357,242.200 316.000 L 242.200 322.600 240.944 325.002 C 238.838 329.029,232.463 336.871,224.103 345.720 C 213.813 356.612,210.909 361.770,213.569 364.431 C 215.774 366.636,218.320 366.157,232.800 360.819 C 245.861 356.003,246.148 355.833,250.609 350.203 C 255.360 344.209,257.698 343.293,270.000 342.611 C 278.876 342.119,280.247 341.585,285.898 336.418 C 288.044 334.455,292.590 330.921,296.000 328.563 C 311.494 317.849,314.963 313.957,316.152 305.960 C 316.820 301.468,317.548 299.907,320.586 296.461 C 323.535 293.115,324.273 291.567,324.968 287.266 C 325.868 281.701,326.181 280.836,330.989 270.600 C 337.675 256.368,337.960 253.367,332.952 249.908 C 329.453 247.491,328.479 246.395,326.607 242.771 C 322.444 234.711,320.444 233.893,305.400 234.093 C 295.776 234.222,295.086 234.004,291.174 229.602 C 286.858 224.746,280.617 223.710,273.710 226.703 C 268.204 229.089,262.585 229.327,247.400 227.815 C 232.601 226.341,224.400 226.277,217.645 227.583 C 216.460 227.813,213.260 228.000,210.533 228.000 C 206.193 228.000,205.290 228.120,203.281 228.966 C 202.020 229.497,199.584 230.127,197.868 230.365 C 191.635 231.232,190.600 233.649,194.600 238.000 C 199.367 243.185,195.614 245.294,184.600 243.622 C 183.060 243.388,179.065 243.024,175.722 242.813 C 168.711 242.370,168.028 242.147,163.735 238.895 C 162.011 237.589,158.382 235.041,155.671 233.232 C 147.769 227.963,146.176 226.097,145.236 221.010 C 143.820 213.354,145.298 210.338,151.525 208.172 C 159.936 205.247,164.160 206.157,175.309 213.297 C 178.789 215.526,180.686 216.134,182.032 215.451 C 185.164 213.862,183.619 210.847,177.600 206.800 C 169.792 201.550,169.855 197.615,177.812 193.619 C 181.798 191.618,182.255 190.899,182.815 185.751 C 183.446 179.955,183.601 179.521,188.988 168.400 C 199.239 147.240,199.275 143.879,189.338 135.495 C 176.838 124.948,175.188 118.856,182.092 108.743 C 190.506 96.420,183.946 83.237,168.762 81.955 C 164.720 81.613,163.904 81.411,161.600 80.182 C 152.933 75.558,149.280 74.681,144.105 75.981 C 136.792 77.820,133.704 81.697,134.145 88.484 C 134.900 100.108,134.908 99.305,134.028 100.704 C 131.618 104.533,126.136 104.615,122.265 100.880 C 120.080 98.772,118.988 96.370,117.557 90.524 C 116.288 85.342,115.636 83.607,114.452 82.257 C 112.002 79.466,104.559 78.748,97.000 80.572 C 88.593 82.602,74.485 83.748,71.787 82.620 C 68.935 81.429,70.658 77.284,74.637 75.765 C 76.343 75.113,76.653 75.114,80.588 75.789 C 89.564 77.327,91.900 75.436,93.414 65.400 C 94.704 56.853,96.538 55.766,99.551 61.761 C 101.126 64.897,102.653 66.189,106.023 67.238 C 112.099 69.129,115.484 68.031,121.228 62.305 C 128.756 54.802,133.262 54.001,145.400 58.005 C 156.390 61.630,162.148 61.141,164.614 56.372 C 166.536 52.656,164.339 50.033,157.237 47.564 C 150.948 45.378,148.428 43.086,146.383 37.695 C 144.397 32.459,145.284 30.867,150.468 30.363 C 162.375 29.205,162.553 29.260,163.809 34.499 C 164.688 38.164,166.936 40.546,172.000 43.184 C 181.699 48.234,185.643 42.070,181.773 27.910 C 180.620 23.692,181.809 21.828,186.045 21.213 C 189.287 20.742,202.723 20.744,208.820 21.217 M170.087 26.624 C 167.058 28.746,167.256 34.851,170.452 37.875 C 175.346 42.507,180.599 39.339,179.200 32.599 C 178.145 27.517,173.324 24.357,170.087 26.624 M175.799 28.919 C 179.078 32.198,178.576 38.400,175.030 38.400 C 171.520 38.400,168.427 33.935,169.361 30.214 C 170.090 27.308,173.502 26.622,175.799 28.919 M131.000 36.568 C 115.292 41.887,103.200 50.600,103.200 56.600 C 103.200 65.207,111.552 66.321,119.420 58.762 C 127.336 51.157,131.486 50.365,145.284 53.824 C 152.932 55.741,154.797 55.945,155.771 54.971 C 157.263 53.479,156.498 52.489,152.086 50.198 C 148.594 48.386,146.322 46.000,144.211 41.929 C 140.497 34.766,138.597 33.996,131.000 36.568 M139.127 37.362 C 139.792 37.706,140.898 39.143,141.976 41.062 C 142.946 42.788,144.404 45.199,145.217 46.419 C 149.048 52.168,148.693 52.624,141.449 51.260 C 131.029 49.298,124.968 50.932,118.499 57.445 C 113.881 62.094,111.401 63.163,108.268 61.854 C 103.334 59.793,103.529 54.294,108.682 50.197 C 119.545 41.557,134.802 35.126,139.127 37.362 M319.000 57.200 C 320.083 58.300,321.060 59.200,321.170 59.200 C 321.280 59.200,320.483 58.300,319.400 57.200 C 318.317 56.100,317.340 55.200,317.230 55.200 C 317.120 55.200,317.917 56.100,319.000 57.200 M72.786 58.700 L 70.600 61.000 72.900 58.814 C 75.037 56.782,75.383 56.400,75.086 56.400 C 75.024 56.400,73.989 57.435,72.786 58.700 M144.600 79.333 C 141.560 80.344,138.064 82.976,137.983 84.314 C 137.973 84.471,137.803 85.410,137.604 86.400 C 137.352 87.656,137.429 89.470,137.858 92.400 C 139.312 102.340,136.339 107.392,129.049 107.368 C 121.521 107.344,116.381 102.012,113.987 91.745 C 112.034 83.369,108.468 81.799,97.800 84.617 C 93.158 85.844,87.945 86.651,81.200 87.187 C 67.093 88.309,64.559 89.319,57.187 96.759 C 48.066 105.965,48.086 111.579,57.257 116.961 C 63.444 120.592,66.800 125.331,66.800 130.436 C 66.800 136.107,64.546 147.750,62.734 151.442 C 60.067 156.874,60.039 161.279,62.628 168.534 C 65.620 176.922,67.200 181.913,68.030 185.600 C 69.187 190.738,70.296 192.919,73.578 196.520 C 75.109 198.200,77.471 201.223,78.826 203.239 C 89.779 219.528,96.921 227.113,103.237 229.166 C 108.581 230.903,109.915 232.043,112.400 237.000 C 115.003 242.191,115.897 242.887,123.391 245.546 C 146.339 253.690,163.200 254.444,163.200 247.326 C 163.200 244.361,162.091 243.232,153.346 237.295 C 146.542 232.677,143.452 229.871,142.300 227.267 C 140.361 222.884,139.734 212.874,141.216 209.969 C 142.988 206.496,150.642 203.217,158.808 202.433 C 164.404 201.895,164.877 201.617,167.696 197.200 C 169.379 194.562,171.028 192.972,174.079 191.043 C 177.405 188.940,178.178 187.694,179.573 182.189 C 180.628 178.025,181.438 176.116,185.781 167.559 C 194.876 149.641,195.507 144.523,189.268 139.287 C 174.054 126.520,171.442 119.053,178.602 108.800 C 182.242 103.587,182.594 102.688,182.597 98.600 C 182.604 90.548,177.786 85.904,168.608 85.115 C 161.982 84.545,161.899 84.523,158.739 82.458 C 153.688 79.158,148.545 78.022,144.600 79.333 M152.883 80.793 C 154.295 81.229,156.457 82.307,157.689 83.189 C 160.818 85.430,161.568 85.655,167.035 86.000 C 175.465 86.532,179.772 89.522,181.430 95.996 C 182.471 100.057,181.839 102.038,177.426 108.547 C 170.717 118.442,173.482 127.736,186.279 138.300 C 194.571 145.146,194.423 147.897,184.741 166.720 C 180.120 175.706,179.409 177.361,178.395 181.489 C 177.108 186.727,176.560 187.672,173.768 189.461 C 169.570 192.151,168.045 193.584,166.361 196.419 C 164.148 200.144,163.712 200.384,157.945 201.054 C 144.165 202.655,138.557 206.878,138.640 215.591 C 138.757 227.860,140.665 231.223,151.810 238.800 C 160.318 244.585,161.639 246.060,160.232 248.207 C 156.783 253.472,118.529 244.876,115.416 238.136 C 112.542 231.914,112.311 231.543,110.472 230.195 C 109.442 229.440,107.113 228.281,105.296 227.618 C 103.479 226.955,101.305 226.062,100.466 225.633 C 97.323 224.030,89.786 215.137,81.791 203.600 C 79.429 200.190,76.385 196.220,75.028 194.778 C 72.137 191.705,70.987 189.457,69.925 184.800 C 69.126 181.298,67.369 175.778,64.388 167.400 C 61.963 160.583,61.945 157.575,64.298 152.669 C 66.055 149.009,66.184 148.471,67.857 137.800 C 69.530 127.132,67.656 121.414,61.076 117.105 C 59.934 116.357,57.920 115.038,56.600 114.173 C 50.583 110.230,51.200 105.685,58.800 97.952 C 65.693 90.937,67.527 90.189,81.200 88.804 C 90.178 87.895,92.112 87.575,98.343 85.970 C 108.187 83.435,110.671 84.620,112.840 92.887 C 115.384 102.583,119.178 106.883,126.518 108.389 C 135.803 110.293,140.784 103.911,138.995 92.400 C 137.483 82.664,143.273 77.825,152.883 80.793 M381.331 199.000 C 381.333 200.540,381.405 201.121,381.492 200.291 C 381.579 199.461,381.577 198.201,381.489 197.491 C 381.400 196.781,381.329 197.460,381.331 199.000 M178.908 223.891 C 176.642 224.303,175.730 227.367,177.382 229.018 C 179.504 231.141,183.200 229.656,183.200 226.680 C 183.200 224.650,181.350 223.448,178.908 223.891 M181.226 225.214 C 182.393 225.838,182.268 227.895,181.029 228.459 C 178.628 229.554,176.426 227.118,178.384 225.533 C 179.413 224.699,180.117 224.620,181.226 225.214 M274.641 231.876 C 268.221 234.154,264.859 234.144,241.711 231.781 C 233.258 230.918,222.692 231.020,218.220 232.009 C 216.251 232.444,213.406 232.800,211.897 232.800 C 203.249 232.800,202.080 234.835,203.992 246.563 C 205.194 253.938,205.281 255.061,205.043 260.200 C 204.728 267.007,205.290 268.708,208.400 270.351 C 212.151 272.332,213.252 273.273,214.984 275.976 C 216.391 278.169,217.783 279.557,221.873 282.838 C 224.693 285.100,228.450 288.312,230.223 289.975 C 232.175 291.808,234.744 293.710,236.738 294.800 C 247.498 300.683,248.794 302.779,249.103 314.799 C 249.398 326.268,248.491 328.457,238.618 340.119 C 236.408 342.729,233.755 345.870,232.721 347.098 C 229.404 351.041,229.301 352.800,232.386 352.800 C 236.098 352.800,240.843 350.387,243.856 346.969 C 249.522 340.539,250.131 339.979,252.970 338.586 C 256.586 336.811,258.298 336.488,266.600 336.015 C 275.897 335.485,276.670 335.213,281.412 330.809 C 283.526 328.846,287.178 325.939,289.528 324.350 C 305.509 313.538,308.291 310.586,309.390 303.268 C 310.116 298.434,311.040 296.428,314.185 292.861 C 317.179 289.465,317.848 288.021,318.588 283.354 C 319.144 279.846,319.603 278.588,322.657 272.200 C 329.975 256.896,329.838 257.668,325.987 253.418 C 324.567 251.852,322.888 249.369,321.843 247.292 C 318.399 240.446,318.098 240.307,306.000 239.966 C 293.712 239.621,292.533 239.231,287.654 233.913 C 283.905 229.824,281.487 229.446,274.641 231.876 M283.003 233.146 C 283.988 233.593,285.276 234.742,286.345 236.129 C 289.805 240.613,294.219 242.397,301.887 242.407 C 313.302 242.422,316.530 243.289,317.865 246.699 C 318.269 247.732,319.545 250.451,320.700 252.743 C 323.070 257.445,323.143 257.957,321.928 261.359 C 320.536 265.253,319.178 266.954,316.636 267.985 C 314.799 268.731,314.361 269.107,313.978 270.266 C 313.726 271.029,313.419 271.553,313.296 271.429 C 313.172 271.306,312.873 271.603,312.630 272.090 C 312.386 272.579,310.906 273.606,309.319 274.387 C 307.740 275.164,306.067 276.292,305.601 276.892 C 305.135 277.493,304.629 277.948,304.477 277.904 C 304.033 277.774,298.896 280.321,298.585 280.825 C 298.429 281.077,298.819 280.973,299.451 280.594 L 300.600 279.905 299.611 280.721 C 299.067 281.170,298.481 281.450,298.308 281.343 C 298.136 281.237,297.464 281.527,296.815 281.989 C 296.166 282.451,295.070 283.026,294.379 283.267 C 293.631 283.528,293.306 283.818,293.576 283.985 C 293.833 284.144,293.332 284.473,292.416 284.748 C 291.529 285.014,290.381 285.687,289.865 286.243 C 288.866 287.321,286.772 287.975,284.274 287.990 C 282.335 288.003,281.390 288.512,279.400 290.615 C 278.033 292.059,277.392 292.397,275.000 292.930 C 272.439 293.500,272.029 293.739,270.200 295.728 C 268.405 297.679,267.997 297.923,266.214 298.111 C 264.692 298.272,264.030 298.569,263.382 299.381 C 262.841 300.060,261.636 300.722,260.033 301.221 C 255.432 302.652,254.126 302.268,249.081 298.000 C 247.417 296.592,244.415 294.766,240.741 292.927 C 236.299 290.704,234.366 289.474,232.200 287.493 C 230.660 286.084,227.420 283.441,225.000 281.618 C 219.478 277.459,218.248 276.307,216.595 273.747 C 215.088 271.412,213.361 269.970,210.899 268.989 C 207.510 267.640,207.209 266.869,207.268 259.679 C 207.312 254.166,207.165 252.597,206.059 246.815 C 204.008 236.089,204.588 234.803,211.480 234.797 C 213.395 234.795,215.913 234.453,218.000 233.912 C 221.888 232.902,234.120 232.702,240.200 233.549 C 243.294 233.979,255.855 235.269,262.000 235.787 C 266.388 236.157,271.599 235.434,276.218 233.814 C 280.841 232.193,280.893 232.187,283.003 233.146 " stroke="none" fill="#2b6151" fill-rule="evenodd"></path><path id="path5" d="M186.045 21.213 C 181.809 21.828,180.620 23.692,181.773 27.910 C 185.643 42.070,181.699 48.234,172.000 43.184 C 166.936 40.546,164.688 38.164,163.809 34.499 C 162.553 29.260,162.375 29.205,150.468 30.363 C 145.284 30.867,144.397 32.459,146.383 37.695 C 148.428 43.086,150.948 45.378,157.237 47.564 C 164.339 50.033,166.536 52.656,164.614 56.372 C 162.148 61.141,156.390 61.630,145.400 58.005 C 133.262 54.001,128.756 54.802,121.228 62.305 C 115.484 68.031,112.099 69.129,106.023 67.238 C 102.653 66.189,101.126 64.897,99.551 61.761 C 96.538 55.766,94.704 56.853,93.414 65.400 C 91.900 75.436,89.564 77.327,80.588 75.789 C 76.653 75.114,76.343 75.113,74.637 75.765 C 70.658 77.284,68.935 81.429,71.787 82.620 C 74.485 83.748,88.593 82.602,97.000 80.572 C 104.559 78.748,112.002 79.466,114.452 82.257 C 115.636 83.607,116.288 85.342,117.557 90.524 C 118.988 96.370,120.080 98.772,122.265 100.880 C 126.136 104.615,131.618 104.533,134.028 100.704 C 134.908 99.305,134.900 100.108,134.145 88.484 C 133.704 81.697,136.792 77.820,144.105 75.981 C 149.280 74.681,152.933 75.558,161.600 80.182 C 163.904 81.411,164.720 81.613,168.762 81.955 C 183.946 83.237,190.506 96.420,182.092 108.743 C 175.188 118.856,176.838 124.948,189.338 135.495 C 199.275 143.879,199.239 147.240,188.988 168.400 C 183.601 179.521,183.446 179.955,182.815 185.751 C 182.255 190.899,181.798 191.618,177.812 193.619 C 169.855 197.615,169.792 201.550,177.600 206.800 C 183.619 210.847,185.164 213.862,182.032 215.451 C 180.686 216.134,178.789 215.526,175.309 213.297 C 164.160 206.157,159.936 205.247,151.525 208.172 C 145.298 210.338,143.820 213.354,145.236 221.010 C 146.176 226.097,147.769 227.963,155.671 233.232 C 158.382 235.041,162.011 237.589,163.735 238.895 C 168.028 242.147,168.711 242.370,175.722 242.813 C 179.065 243.024,183.060 243.388,184.600 243.622 C 195.614 245.294,199.367 243.185,194.600 238.000 C 190.600 233.649,191.635 231.232,197.868 230.365 C 199.584 230.127,202.020 229.497,203.281 228.966 C 205.290 228.120,206.193 228.000,210.533 228.000 C 213.260 228.000,216.460 227.813,217.645 227.583 C 224.400 226.277,232.601 226.341,247.400 227.815 C 262.585 229.327,268.204 229.089,273.710 226.703 C 280.617 223.710,286.858 224.746,291.174 229.602 C 295.086 234.004,295.776 234.222,305.400 234.093 C 320.444 233.893,322.444 234.711,326.607 242.771 C 328.479 246.395,329.453 247.491,332.952 249.908 C 337.960 253.367,337.675 256.368,330.989 270.600 C 326.181 280.836,325.868 281.701,324.968 287.266 C 324.273 291.567,323.535 293.115,320.586 296.461 C 317.548 299.907,316.820 301.468,316.152 305.960 C 314.963 313.957,311.494 317.849,296.000 328.563 C 292.590 330.921,288.044 334.455,285.898 336.418 C 280.247 341.585,278.876 342.119,270.000 342.611 C 257.698 343.293,255.360 344.209,250.609 350.203 C 246.148 355.833,245.861 356.003,232.800 360.819 C 218.320 366.157,215.774 366.636,213.569 364.431 C 210.909 361.770,213.813 356.612,224.103 345.720 C 232.463 336.871,238.838 329.029,240.944 325.002 L 242.200 322.600 242.200 316.000 C 242.200 306.357,241.540 305.117,234.071 300.710 C 231.459 299.169,228.579 297.032,226.609 295.174 C 223.666 292.399,219.463 288.786,214.241 284.541 C 213.118 283.629,211.300 281.571,210.200 279.968 C 208.507 277.502,207.783 276.828,205.484 275.587 C 199.688 272.456,198.713 269.622,200.006 259.663 C 200.497 255.882,200.037 253.753,198.415 252.300 L 197.187 251.200 190.094 251.187 C 186.192 251.180,181.740 251.000,180.200 250.788 C 171.546 249.595,171.291 249.632,168.007 252.562 C 161.252 258.590,148.965 258.777,129.619 253.146 C 114.330 248.697,110.165 246.359,108.172 241.107 C 106.379 236.382,105.273 235.341,100.400 233.790 C 93.735 231.670,86.139 223.568,74.493 206.158 C 73.154 204.155,70.618 200.963,68.860 199.065 C 65.127 195.036,64.604 193.872,62.602 185.151 C 61.856 181.903,60.448 177.211,59.473 174.723 C 54.645 162.405,54.391 157.453,58.147 148.842 C 59.608 145.491,60.097 143.746,61.234 137.801 C 63.141 127.841,61.839 125.165,52.526 119.900 C 45.101 115.703,44.756 115.919,39.760 127.904 C -2.924 230.300,52.509 347.427,156.200 373.937 C 265.887 401.980,371.494 312.962,368.247 195.200 C 365.689 102.448,297.561 28.099,208.820 21.217 C 202.723 20.744,189.287 20.742,186.045 21.213 M214.600 22.986 C 297.444 33.143,359.671 99.975,366.007 185.600 C 375.435 313.014,258.222 408.431,142.236 367.761 C 48.993 335.066,2.203 225.572,40.617 129.959 C 45.250 118.425,45.647 118.127,51.904 121.466 C 60.554 126.082,61.555 128.453,59.369 139.154 C 58.729 142.289,57.721 145.639,56.708 148.000 C 53.009 156.623,53.054 162.872,56.886 172.800 C 59.600 179.830,59.959 180.981,61.399 187.251 C 63.185 195.031,63.983 196.709,67.858 200.833 C 69.597 202.685,72.747 206.720,74.858 209.800 C 86.277 226.460,92.454 232.923,99.172 235.239 C 103.900 236.868,105.146 237.988,106.603 241.920 C 108.732 247.665,113.158 250.280,127.778 254.430 C 149.663 260.642,161.807 260.514,169.005 253.995 C 171.702 251.553,172.482 251.349,176.777 251.968 C 178.659 252.239,183.800 252.556,188.200 252.672 C 198.648 252.948,199.013 253.197,198.357 259.600 C 197.202 270.872,198.244 273.997,204.204 277.133 C 206.622 278.404,207.240 278.973,208.846 281.400 C 210.281 283.569,211.950 285.233,216.249 288.782 C 219.302 291.302,223.113 294.669,224.719 296.265 C 227.365 298.896,229.957 300.733,235.245 303.725 C 239.644 306.214,240.532 308.456,240.336 316.576 L 240.200 322.200 238.727 324.800 C 236.680 328.411,231.632 334.625,224.427 342.400 C 211.392 356.469,208.240 362.223,211.607 365.808 C 214.487 368.873,218.751 368.166,235.800 361.800 C 246.667 357.742,247.604 357.172,251.516 352.235 C 256.635 345.777,257.779 345.321,271.200 344.390 C 280.509 343.745,281.113 343.506,286.814 338.223 C 289.141 336.067,293.663 332.536,296.999 330.272 C 312.596 319.683,316.532 315.262,317.965 306.720 C 318.781 301.859,318.944 301.519,322.297 297.674 C 325.408 294.107,325.897 293.016,326.815 287.600 C 327.683 282.479,328.444 280.449,333.383 270.070 C 340.250 255.639,340.087 252.406,332.213 246.800 C 330.596 245.649,329.848 244.654,328.004 241.200 C 323.657 233.058,323.005 232.772,308.000 232.442 C 295.334 232.163,296.272 232.424,292.000 227.992 C 287.094 222.903,280.952 222.086,272.800 225.438 L 269.000 227.000 260.800 226.969 C 256.118 226.951,249.769 226.643,246.000 226.250 C 234.662 225.070,225.551 224.974,219.009 225.967 C 214.862 226.596,212.539 226.749,210.009 226.559 C 206.884 226.324,206.300 226.405,203.000 227.531 C 201.020 228.206,198.500 228.868,197.400 229.003 C 190.803 229.812,188.439 234.723,192.782 238.596 C 196.558 241.962,193.615 243.324,184.949 242.220 C 182.117 241.860,177.542 241.419,174.783 241.241 C 169.442 240.896,168.916 240.730,165.800 238.414 C 164.700 237.596,161.190 235.166,158.000 233.013 C 148.226 226.417,147.301 225.311,146.401 219.128 C 145.572 213.436,146.959 211.233,152.584 209.310 C 159.810 206.840,164.052 207.831,174.583 214.446 C 180.339 218.062,183.577 218.193,184.851 214.861 C 185.838 212.278,183.789 209.355,178.428 205.699 C 171.595 201.039,171.646 198.388,178.640 194.746 C 183.127 192.410,183.449 191.885,184.168 185.754 C 184.840 180.028,185.514 178.152,190.399 168.400 C 200.890 147.458,200.666 143.105,188.575 133.019 C 178.730 124.806,176.988 118.381,182.483 110.554 C 187.254 103.761,188.310 99.239,186.426 93.669 C 183.751 85.757,177.762 81.281,168.955 80.610 C 164.520 80.273,163.238 79.880,160.085 77.894 C 151.929 72.756,142.166 73.077,135.956 78.687 C 132.650 81.674,132.022 84.466,133.008 91.806 C 134.000 99.192,133.247 101.580,129.717 102.242 C 124.605 103.201,121.058 99.130,118.641 89.533 C 117.888 86.545,117.003 83.583,116.674 82.950 C 114.165 78.125,106.843 76.893,95.600 79.403 C 94.170 79.722,91.920 79.989,90.600 79.996 C 89.280 80.003,86.153 80.366,83.652 80.804 C 76.187 82.110,72.800 81.814,72.800 79.856 C 72.800 77.133,76.009 76.333,81.788 77.616 C 89.533 79.335,92.956 76.581,94.621 67.291 C 94.998 65.192,95.599 63.196,96.006 62.693 L 96.726 61.804 99.467 64.661 C 106.209 71.690,114.154 71.214,122.200 63.299 C 129.231 56.383,133.435 55.424,142.800 58.600 C 156.163 63.132,163.766 62.500,165.973 56.674 C 167.807 51.834,165.297 48.878,156.897 45.987 C 152.122 44.343,149.533 42.074,148.087 38.264 C 146.006 32.783,146.654 32.101,154.824 31.178 C 160.906 30.491,161.411 30.817,162.969 36.444 C 164.135 40.658,172.607 46.400,177.655 46.400 C 183.436 46.400,185.933 39.503,183.640 29.868 C 181.827 22.249,182.440 21.947,199.200 22.197 C 205.093 22.284,211.596 22.618,214.600 22.986 M170.410 28.390 C 167.335 31.465,170.535 38.400,175.030 38.400 C 178.576 38.400,179.078 32.198,175.799 28.919 C 174.196 27.316,171.726 27.074,170.410 28.390 M175.009 30.958 C 177.252 34.381,175.091 37.552,172.369 34.831 C 171.115 33.576,170.769 31.391,171.680 30.480 C 172.511 29.649,174.322 29.909,175.009 30.958 M130.600 38.148 C 120.004 41.998,108.076 49.232,105.583 53.320 C 103.728 56.363,105.030 60.501,108.268 61.854 C 111.401 63.163,113.881 62.094,118.499 57.445 C 124.968 50.932,131.029 49.298,141.449 51.260 C 148.693 52.624,149.048 52.168,145.217 46.419 C 144.404 45.199,142.946 42.788,141.976 41.062 C 139.299 36.296,137.187 35.755,130.600 38.148 M138.297 39.413 C 139.511 40.263,142.888 46.573,142.729 47.693 C 142.601 48.591,142.548 48.599,137.339 48.464 C 128.119 48.227,122.383 50.245,117.433 55.468 C 112.084 61.112,107.120 61.694,107.120 56.677 C 107.120 50.737,133.561 36.096,138.297 39.413 M145.359 80.378 C 139.713 81.727,137.876 85.196,138.995 92.400 C 140.784 103.911,135.803 110.293,126.518 108.389 C 119.178 106.883,115.384 102.583,112.840 92.887 C 110.671 84.620,108.187 83.435,98.343 85.970 C 92.112 87.575,90.178 87.895,81.200 88.804 C 67.527 90.189,65.693 90.937,58.800 97.952 C 51.200 105.685,50.583 110.230,56.600 114.173 C 57.920 115.038,59.934 116.357,61.076 117.105 C 67.656 121.414,69.530 127.132,67.857 137.800 C 66.184 148.471,66.055 149.009,64.298 152.669 C 61.945 157.575,61.963 160.583,64.388 167.400 C 67.369 175.778,69.126 181.298,69.925 184.800 C 70.987 189.457,72.137 191.705,75.028 194.778 C 76.385 196.220,79.429 200.190,81.791 203.600 C 89.786 215.137,97.323 224.030,100.466 225.633 C 101.305 226.062,103.479 226.955,105.296 227.618 C 107.113 228.281,109.442 229.440,110.472 230.195 C 112.311 231.543,112.542 231.914,115.416 238.136 C 118.529 244.876,156.783 253.472,160.232 248.207 C 161.639 246.060,160.318 244.585,151.810 238.800 C 140.665 231.223,138.757 227.860,138.640 215.591 C 138.557 206.878,144.165 202.655,157.945 201.054 C 163.712 200.384,164.148 200.144,166.361 196.419 C 168.045 193.584,169.570 192.151,173.768 189.461 C 176.560 187.672,177.108 186.727,178.395 181.489 C 179.409 177.361,180.120 175.706,184.741 166.720 C 194.423 147.897,194.571 145.146,186.279 138.300 C 173.482 127.736,170.717 118.442,177.426 108.547 C 181.839 102.038,182.471 100.057,181.430 95.996 C 179.772 89.522,175.465 86.532,167.035 86.000 C 161.568 85.655,160.818 85.430,157.689 83.189 C 154.038 80.575,149.176 79.466,145.359 80.378 M153.183 82.357 C 154.279 82.773,156.050 83.756,157.119 84.541 C 159.901 86.583,160.833 86.857,166.200 87.217 C 173.656 87.717,177.085 89.504,179.366 94.083 C 181.446 98.256,180.869 101.112,176.713 107.228 C 169.194 118.291,171.813 128.146,185.216 139.213 C 193.065 145.694,192.866 148.512,183.318 166.118 C 178.837 174.382,177.809 176.705,176.635 181.226 C 175.479 185.677,174.891 186.515,171.462 188.604 C 168.001 190.712,166.294 192.354,164.333 195.459 C 162.497 198.366,162.142 198.524,155.918 199.189 C 148.578 199.973,141.437 202.845,138.482 206.202 C 135.841 209.202,135.405 211.603,135.806 220.913 C 136.332 233.111,136.516 232.003,133.920 232.271 C 131.368 232.534,129.825 231.485,127.294 227.765 C 125.103 224.546,122.317 222.439,120.947 222.965 C 118.951 223.731,114.059 221.503,112.392 219.070 C 111.851 218.281,110.475 217.045,109.335 216.322 C 108.114 215.550,107.444 214.897,107.705 214.735 C 107.971 214.570,107.565 214.116,106.687 213.599 C 105.883 213.124,104.838 212.109,104.365 211.343 C 103.891 210.576,102.760 209.486,101.852 208.920 C 100.943 208.354,98.963 206.558,97.451 204.929 C 95.939 203.299,93.995 201.606,93.132 201.165 C 92.268 200.724,91.443 200.057,91.299 199.682 C 91.084 199.122,90.993 199.179,90.790 200.000 C 90.556 200.949,90.496 200.909,89.617 199.200 C 89.107 198.210,88.370 196.990,87.978 196.488 C 87.587 195.987,87.148 194.878,87.004 194.024 C 86.718 192.332,85.998 191.483,84.299 190.838 C 83.695 190.608,83.200 190.128,83.200 189.772 C 83.200 188.611,81.912 186.906,80.541 186.252 C 79.803 185.901,79.200 185.436,79.200 185.220 C 79.200 185.004,78.390 183.915,77.400 182.800 C 75.636 180.814,75.366 180.030,75.568 177.480 C 75.631 176.683,75.251 175.911,74.251 174.804 C 72.512 172.879,71.692 171.322,70.983 168.598 C 70.680 167.437,69.752 165.253,68.920 163.744 C 67.049 160.350,66.838 157.095,68.273 153.788 C 68.754 152.681,69.348 150.161,69.593 148.188 C 69.839 146.214,70.292 142.980,70.600 141.000 C 72.869 126.433,70.723 119.666,61.654 112.791 C 57.356 109.532,56.965 108.388,58.847 104.566 C 62.774 96.589,68.257 93.152,79.520 91.607 C 90.270 90.133,91.361 89.937,97.508 88.363 C 108.007 85.676,109.243 86.156,110.993 93.600 C 113.524 104.365,119.571 110.000,128.591 110.000 C 137.875 110.000,142.168 104.172,140.627 93.660 C 139.803 88.045,139.833 87.005,140.874 85.153 C 142.712 81.884,148.486 80.572,153.183 82.357 M75.374 184.155 C 75.955 183.932,77.055 185.107,77.287 186.200 C 77.497 187.187,76.165 190.002,75.492 189.994 C 74.884 189.986,73.646 189.219,74.200 189.194 C 74.420 189.184,74.284 188.992,73.898 188.767 C 73.370 188.459,73.210 187.890,73.253 186.479 C 73.316 184.439,73.876 183.316,74.512 183.952 C 74.724 184.164,75.112 184.255,75.374 184.155 M88.425 200.486 C 89.868 201.988,90.963 203.303,90.858 203.409 C 90.668 203.598,91.496 203.747,92.130 203.637 C 92.311 203.606,92.354 203.750,92.226 203.958 C 91.917 204.457,96.092 208.675,98.514 210.311 L 100.427 211.603 100.169 213.550 C 100.000 214.825,100.066 215.594,100.362 215.776 C 100.610 215.930,100.729 216.192,100.626 216.358 C 100.523 216.525,101.453 216.523,102.692 216.355 C 106.461 215.844,108.469 216.857,110.894 220.494 C 112.297 222.598,116.614 224.426,120.553 224.584 C 122.334 224.655,124.405 226.554,124.394 228.106 C 124.389 228.830,124.314 228.886,124.000 228.400 C 123.323 227.353,123.515 229.075,124.228 230.455 C 125.188 232.311,127.724 233.239,132.549 233.500 C 136.987 233.739,136.696 233.584,139.400 237.148 C 140.262 238.285,141.069 238.852,142.266 239.162 C 143.481 239.477,144.158 239.961,144.769 240.950 C 145.748 242.533,147.276 243.269,149.092 243.030 C 152.366 242.600,155.919 245.109,154.854 247.100 C 154.202 248.318,149.165 248.368,144.604 247.201 C 142.886 246.762,140.562 246.330,139.440 246.242 C 138.318 246.154,136.050 245.601,134.400 245.013 C 132.750 244.426,129.870 243.437,128.000 242.816 C 126.130 242.196,123.790 241.312,122.800 240.852 C 121.810 240.393,120.272 239.836,119.383 239.615 C 116.980 239.019,116.223 238.053,114.814 233.781 C 113.256 229.057,112.680 228.498,107.600 226.777 C 100.752 224.457,96.800 221.703,96.800 219.249 C 96.800 219.075,96.046 218.138,95.124 217.167 C 94.203 216.195,93.438 215.274,93.424 215.120 C 93.411 214.966,93.175 214.615,92.900 214.340 C 92.625 214.065,92.400 213.606,92.400 213.320 C 92.400 213.034,92.190 212.800,91.933 212.800 C 91.677 212.800,91.580 212.686,91.719 212.547 C 91.858 212.408,91.760 211.913,91.500 211.447 C 91.241 210.981,91.022 210.469,91.014 210.310 C 91.006 210.150,90.370 209.454,89.600 208.762 C 83.984 203.719,83.633 203.274,82.657 199.962 C 82.177 198.333,82.189 198.069,82.758 197.647 C 83.233 197.294,83.244 197.241,82.800 197.444 C 82.331 197.658,82.303 197.606,82.669 197.209 C 83.045 196.803,83.404 196.885,84.469 197.622 L 85.800 198.542 84.800 197.374 L 83.800 196.206 84.800 196.981 C 85.350 197.407,86.981 198.985,88.425 200.486 M176.922 223.182 C 173.496 225.271,174.592 230.674,178.594 231.425 C 182.341 232.128,184.988 229.863,184.674 226.224 C 184.365 222.653,180.364 221.083,176.922 223.182 M182.500 224.716 C 183.548 225.627,183.404 227.832,182.218 229.018 C 179.348 231.888,174.716 228.248,177.208 225.081 C 178.419 223.541,180.947 223.366,182.500 224.716 M276.218 233.814 C 271.599 235.434,266.388 236.157,262.000 235.787 C 255.855 235.269,243.294 233.979,240.200 233.549 C 234.120 232.702,221.888 232.902,218.000 233.912 C 215.913 234.453,213.395 234.795,211.480 234.797 C 204.588 234.803,204.008 236.089,206.059 246.815 C 207.165 252.597,207.312 254.166,207.268 259.679 C 207.209 266.869,207.510 267.640,210.899 268.989 C 213.361 269.970,215.088 271.412,216.595 273.747 C 217.324 274.876,218.523 276.357,219.260 277.037 C 221.693 279.283,227.792 283.817,227.158 282.908 C 226.816 282.417,225.290 281.092,223.768 279.964 C 219.767 276.997,219.181 276.402,218.291 274.400 C 216.983 271.457,216.057 270.440,213.518 269.159 C 210.382 267.576,209.306 266.373,208.955 264.062 C 208.509 261.118,208.622 256.342,209.179 254.661 C 209.530 253.598,209.603 252.099,209.413 249.820 C 209.189 247.128,209.251 246.406,209.750 245.907 C 210.087 245.571,210.262 245.195,210.140 245.073 C 209.551 244.485,212.729 244.407,214.087 244.976 C 214.905 245.319,216.220 245.600,217.010 245.600 C 218.953 245.600,222.042 246.409,221.771 246.846 C 221.339 247.546,223.933 247.182,224.856 246.413 C 225.375 245.981,225.660 245.621,225.490 245.613 C 224.960 245.591,226.347 243.282,227.287 242.624 C 227.785 242.276,229.000 242.000,230.041 242.000 C 231.722 242.000,232.704 241.679,237.400 239.593 C 238.060 239.300,238.758 239.099,238.950 239.147 C 239.143 239.194,239.607 238.955,239.983 238.616 C 240.358 238.276,240.785 238.119,240.932 238.266 C 241.080 238.413,241.200 238.352,241.200 238.131 C 241.200 237.786,243.379 237.440,244.600 237.591 C 245.154 237.660,250.488 237.909,253.469 238.005 C 254.827 238.049,256.110 237.979,256.319 237.850 C 256.528 237.721,259.197 237.530,262.250 237.426 C 265.302 237.322,268.250 237.143,268.800 237.028 C 271.858 236.390,273.846 235.860,274.200 235.588 C 274.923 235.034,278.917 234.000,280.337 234.000 C 282.268 234.000,284.861 235.632,286.526 237.895 C 289.203 241.534,290.720 242.408,294.326 242.387 L 296.600 242.373 294.296 241.580 C 290.836 240.390,288.281 238.638,286.345 236.129 C 283.298 232.179,281.833 231.845,276.218 233.814 M227.269 237.862 C 228.314 238.809,228.200 239.082,226.367 240.017 C 225.366 240.527,224.812 241.055,224.937 241.379 C 225.553 242.985,223.062 244.062,219.352 243.794 C 214.519 243.445,209.705 242.335,211.400 241.960 C 212.227 241.777,212.339 241.680,211.762 241.647 C 210.825 241.594,209.318 240.149,209.750 239.717 C 209.903 239.564,211.147 239.303,212.514 239.138 C 213.881 238.973,216.440 238.486,218.200 238.055 C 222.334 237.044,226.272 236.960,227.269 237.862 M300.200 243.070 C 302.396 243.544,304.079 243.606,308.000 243.353 C 314.196 242.955,311.407 242.503,302.600 242.479 L 297.400 242.465 300.200 243.070 M313.738 243.483 C 315.765 244.006,318.705 248.471,319.419 252.112 C 319.573 252.895,321.233 255.143,321.684 255.178 C 321.840 255.190,321.210 253.715,320.284 251.900 C 319.358 250.085,318.269 247.750,317.865 246.711 C 317.100 244.745,315.214 243.156,313.753 243.246 C 313.033 243.291,313.032 243.301,313.738 243.483 " stroke="none" fill="#418070" fill-rule="evenodd"></path><path id="path6" d="M187.335 23.572 C 184.231 24.080,183.897 25.025,184.993 30.200 C 186.569 37.643,185.216 44.289,181.678 46.475 C 176.319 49.788,163.409 43.349,161.605 36.463 C 160.450 32.059,159.759 31.704,154.015 32.559 C 149.349 33.254,148.800 33.561,148.800 35.474 C 148.800 38.836,151.974 42.942,155.595 44.266 C 164.209 47.416,165.964 48.459,167.060 51.081 C 168.772 55.180,166.720 59.642,162.201 61.641 C 157.931 63.529,153.082 63.121,143.904 60.101 C 133.504 56.678,130.175 57.379,122.820 64.536 C 115.337 71.818,109.212 72.752,100.455 67.946 C 96.850 65.968,97.027 65.833,94.994 72.114 C 93.091 77.996,93.035 77.910,98.363 77.205 C 112.236 75.369,117.288 78.020,119.588 88.345 C 121.613 97.438,124.123 101.000,128.503 101.000 C 132.463 101.000,132.940 99.279,131.625 89.735 C 129.651 75.401,146.542 67.990,160.636 77.006 C 163.797 79.028,164.458 79.234,169.000 79.609 C 178.796 80.419,185.485 85.778,187.802 94.672 C 189.267 100.295,188.314 103.818,183.371 111.058 C 177.729 119.321,179.800 124.822,192.400 135.031 C 201.554 142.448,201.238 148.750,190.617 170.691 C 186.349 179.508,185.234 182.820,185.197 186.800 C 185.151 191.722,183.948 193.549,179.083 196.083 C 172.921 199.293,173.283 200.553,182.120 206.680 C 186.822 209.939,187.927 214.761,184.759 218.198 L 183.119 219.978 184.565 221.668 C 189.175 227.054,186.301 233.630,179.354 233.591 C 171.963 233.549,170.478 224.264,177.300 220.755 C 179.387 219.682,179.317 219.570,174.598 216.454 C 164.213 209.596,160.619 208.564,154.140 210.584 C 148.184 212.441,146.964 214.671,148.580 220.743 C 149.714 225.005,149.966 225.232,163.462 234.129 L 170.324 238.652 177.862 239.423 C 189.337 240.596,190.130 240.495,189.250 237.971 C 187.225 232.164,189.899 228.099,196.200 227.403 C 197.520 227.257,200.169 226.608,202.086 225.961 C 205.246 224.895,206.034 224.789,210.486 224.833 C 213.295 224.860,217.114 224.607,219.400 224.243 C 224.876 223.369,233.382 223.429,247.155 224.439 C 261.655 225.502,266.789 225.369,270.400 223.837 C 279.215 220.098,289.715 220.250,294.400 224.183 C 295.709 225.282,296.937 225.224,298.475 223.988 C 299.288 223.335,300.123 222.800,300.331 222.800 C 300.538 222.800,300.980 222.385,301.312 221.878 C 301.644 221.371,302.972 220.393,304.263 219.706 C 306.937 218.280,307.718 217.511,309.722 214.330 C 310.509 213.081,311.720 211.641,312.414 211.130 C 313.589 210.264,318.000 204.074,318.000 203.291 C 318.000 203.098,318.462 202.505,319.027 201.974 C 319.593 201.443,320.593 199.999,321.251 198.764 C 322.459 196.498,326.000 192.603,326.000 193.540 C 326.000 195.459,330.606 188.260,331.196 185.420 C 331.510 183.909,332.093 182.745,333.144 181.532 C 335.767 178.504,336.394 177.337,337.227 173.929 C 337.674 172.098,338.465 169.700,338.985 168.600 C 339.504 167.500,340.395 165.620,340.964 164.421 C 341.534 163.223,342.000 161.957,342.000 161.608 C 342.000 161.258,342.365 159.934,342.811 158.665 C 343.257 157.397,343.528 156.207,343.413 156.021 C 343.298 155.835,343.472 155.170,343.800 154.542 C 344.127 153.914,344.396 153.184,344.398 152.920 C 344.399 152.656,344.646 152.296,344.946 152.120 C 345.572 151.753,346.035 149.278,345.510 149.103 C 345.319 149.040,345.513 148.180,345.943 147.194 C 346.372 146.207,346.934 144.363,347.191 143.095 C 347.449 141.827,347.799 140.876,347.971 140.982 C 349.531 141.946,350.227 134.975,348.993 130.746 C 335.489 84.474,288.649 41.460,237.600 28.450 C 221.201 24.271,197.269 21.948,187.335 23.572 M212.800 24.991 C 248.870 28.784,282.031 44.418,305.823 68.848 C 312.921 76.136,315.237 80.010,316.020 85.900 C 316.247 87.605,316.767 90.710,317.176 92.800 C 317.632 95.129,317.944 98.613,317.982 101.800 C 318.016 104.660,318.093 109.340,318.153 112.200 C 318.213 115.060,318.042 118.750,317.774 120.400 C 317.506 122.050,317.166 124.750,317.018 126.400 C 316.507 132.095,315.144 138.970,314.004 141.600 C 313.384 143.030,312.299 146.090,311.592 148.400 C 310.285 152.676,307.482 158.800,306.833 158.800 C 306.636 158.800,306.185 159.652,305.830 160.692 C 304.894 163.441,299.740 171.870,297.572 174.200 C 295.522 176.402,294.519 178.000,295.186 178.000 C 295.923 178.000,295.636 178.680,293.637 181.666 C 291.617 184.685,283.200 193.651,283.200 192.784 C 283.200 192.517,282.419 192.996,281.464 193.849 C 280.509 194.702,279.069 195.903,278.264 196.517 C 277.459 197.131,276.800 197.950,276.800 198.336 C 276.800 199.295,274.365 201.552,271.000 203.712 C 269.460 204.701,266.640 206.609,264.732 207.953 C 262.814 209.304,261.198 210.195,261.116 209.947 C 260.920 209.361,258.086 210.798,256.243 212.416 C 255.485 213.082,253.994 213.928,252.932 214.297 C 251.804 214.688,251.284 215.026,251.683 215.110 C 252.745 215.331,244.098 219.536,241.600 220.013 C 240.390 220.244,235.842 220.606,231.493 220.817 C 227.144 221.028,221.744 221.492,219.493 221.847 C 217.242 222.203,212.700 222.526,209.400 222.566 C 204.473 222.626,202.935 222.792,200.800 223.497 C 198.108 224.386,191.293 225.364,190.339 224.998 C 188.576 224.321,187.459 220.783,187.985 217.541 C 189.000 211.290,187.753 208.906,181.108 204.400 C 175.217 200.405,175.182 199.345,180.845 196.340 C 184.974 194.148,185.514 193.231,186.032 187.520 C 186.615 181.095,186.909 180.188,191.753 169.888 C 202.493 147.052,202.364 142.169,190.772 132.778 C 184.838 127.971,180.828 122.232,180.809 118.519 C 180.797 116.327,181.219 115.423,184.601 110.400 C 194.556 95.610,185.328 78.886,167.168 78.808 C 166.018 78.803,164.677 78.447,163.568 77.853 C 162.596 77.332,160.435 76.167,158.767 75.264 C 151.996 71.598,144.331 71.469,137.842 74.910 C 131.624 78.208,129.730 82.658,130.963 91.071 C 132.068 98.605,131.637 100.182,128.469 100.182 C 124.794 100.182,122.438 96.632,120.451 88.101 C 117.978 77.479,113.306 74.448,100.739 75.309 C 96.859 75.575,96.247 75.194,96.875 72.903 C 97.773 69.624,98.178 69.475,102.400 70.869 C 110.656 73.595,116.918 71.976,123.484 65.418 C 130.741 58.170,133.093 57.684,144.309 61.119 C 158.891 65.584,167.387 63.299,168.278 54.671 C 168.790 49.709,166.235 47.011,158.499 44.344 C 153.100 42.483,150.037 39.443,150.009 35.914 C 149.997 34.479,150.859 34.063,154.999 33.509 C 159.039 32.969,159.613 33.282,160.578 36.549 C 162.873 44.323,176.031 50.699,182.225 47.040 C 185.885 44.878,187.402 37.433,185.819 29.400 C 184.799 24.221,185.521 23.950,199.600 24.233 C 203.670 24.315,209.610 24.656,212.800 24.991 M149.522 83.602 C 150.984 83.808,152.834 84.411,153.922 85.039 C 160.076 88.585,159.797 88.488,164.947 88.887 C 171.843 89.421,172.139 89.485,174.262 90.913 C 179.286 94.293,180.136 99.164,176.600 104.311 C 171.333 111.976,170.621 113.846,170.881 119.329 C 171.220 126.466,175.911 134.027,184.206 140.805 C 189.906 145.462,190.177 148.731,185.564 157.200 C 184.905 158.410,184.663 159.040,185.027 158.600 C 185.390 158.160,186.510 156.121,187.514 154.068 C 190.736 147.482,190.241 144.593,185.215 140.644 C 170.952 129.438,167.884 118.238,175.875 106.536 C 180.646 99.547,180.815 96.670,176.719 92.188 C 174.100 89.322,172.502 88.739,166.251 88.371 C 160.710 88.044,161.480 88.294,154.230 84.468 C 152.781 83.704,151.565 83.405,149.630 83.339 L 147.000 83.248 149.522 83.602 M142.093 88.800 C 142.093 89.570,142.175 89.885,142.276 89.500 C 142.376 89.115,142.376 88.485,142.276 88.100 C 142.175 87.715,142.093 88.030,142.093 88.800 M142.937 97.400 C 142.939 99.160,143.009 99.830,143.093 98.889 C 143.178 97.949,143.177 96.509,143.091 95.689 C 143.005 94.870,142.936 95.640,142.937 97.400 M142.323 102.000 C 142.183 102.770,141.960 103.760,141.828 104.200 C 141.696 104.640,141.871 104.393,142.215 103.651 C 142.560 102.908,142.783 101.918,142.711 101.451 C 142.617 100.845,142.505 101.003,142.323 102.000 M49.067 126.267 C 47.771 127.563,49.899 140.000,51.417 140.000 C 51.792 140.000,52.000 140.410,52.000 141.150 C 52.000 141.782,52.114 142.868,52.253 143.563 L 52.505 144.826 53.653 143.541 C 54.284 142.834,54.800 141.941,54.800 141.557 C 54.800 141.172,55.040 140.617,55.334 140.323 C 56.990 138.667,57.836 130.648,56.540 128.898 C 54.808 126.560,50.344 124.989,49.067 126.267 M163.823 212.637 C 168.174 214.836,170.663 216.334,172.152 217.651 L 173.794 219.103 172.197 220.894 C 169.704 223.690,166.083 223.680,159.735 220.861 C 157.791 219.997,155.253 218.985,154.096 218.612 C 150.201 217.355,150.158 215.221,153.990 213.314 C 157.975 211.329,160.845 211.132,163.823 212.637 M173.901 256.659 C 173.356 257.854,173.812 258.269,176.093 258.650 C 176.914 258.788,177.501 259.037,177.397 259.204 C 177.085 259.710,178.781 260.026,183.161 260.280 C 186.366 260.466,187.253 260.410,187.023 260.037 C 186.792 259.664,187.501 259.615,190.093 259.825 L 193.462 260.099 193.977 258.857 C 194.896 256.636,194.473 256.361,190.271 256.449 C 188.213 256.492,186.327 256.402,186.080 256.250 C 185.833 256.097,183.094 255.902,179.994 255.816 L 174.356 255.660 173.901 256.659 " stroke="none" fill="#a4b9d3" fill-rule="evenodd"></path><path id="path7" d="M73.719 184.083 C 72.984 185.016,73.109 188.307,73.898 188.767 C 74.284 188.992,74.420 189.184,74.200 189.194 C 73.646 189.219,74.884 189.986,75.492 189.994 C 76.165 190.002,77.497 187.187,77.287 186.200 C 77.055 185.107,75.955 183.932,75.374 184.155 C 75.112 184.255,74.724 184.164,74.512 183.952 C 74.264 183.704,73.980 183.751,73.719 184.083 M84.800 197.374 L 85.800 198.542 84.469 197.622 C 83.404 196.885,83.045 196.803,82.669 197.209 C 82.303 197.606,82.331 197.658,82.800 197.444 C 83.244 197.241,83.233 197.294,82.758 197.647 C 82.189 198.069,82.177 198.333,82.657 199.962 C 83.633 203.274,83.984 203.719,89.600 208.762 C 90.370 209.454,91.006 210.150,91.014 210.310 C 91.022 210.469,91.241 210.981,91.500 211.447 C 91.760 211.913,91.858 212.408,91.719 212.547 C 91.580 212.686,91.677 212.800,91.933 212.800 C 92.190 212.800,92.400 213.034,92.400 213.320 C 92.400 213.606,92.625 214.065,92.900 214.340 C 93.175 214.615,93.411 214.966,93.424 215.120 C 93.438 215.274,94.203 216.195,95.124 217.167 C 96.046 218.138,96.800 219.075,96.800 219.249 C 96.800 221.703,100.752 224.457,107.600 226.777 C 112.680 228.498,113.256 229.057,114.814 233.781 C 116.223 238.053,116.980 239.019,119.383 239.615 C 120.272 239.836,121.810 240.393,122.800 240.852 C 123.790 241.312,126.130 242.196,128.000 242.816 C 129.870 243.437,132.750 244.426,134.400 245.013 C 136.050 245.601,138.318 246.154,139.440 246.242 C 140.562 246.330,142.886 246.762,144.604 247.201 C 149.165 248.368,154.202 248.318,154.854 247.100 C 155.919 245.109,152.366 242.600,149.092 243.030 C 147.276 243.269,145.748 242.533,144.769 240.950 C 144.158 239.961,143.481 239.477,142.266 239.162 C 141.069 238.852,140.262 238.285,139.400 237.148 C 136.696 233.584,136.987 233.739,132.549 233.500 C 127.724 233.239,125.188 232.311,124.228 230.455 C 123.515 229.075,123.323 227.353,124.000 228.400 C 124.314 228.886,124.389 228.830,124.394 228.106 C 124.405 226.554,122.334 224.655,120.553 224.584 C 116.614 224.426,112.297 222.598,110.894 220.494 C 108.469 216.857,106.461 215.844,102.692 216.355 C 101.453 216.523,100.523 216.525,100.626 216.358 C 100.729 216.192,100.610 215.930,100.362 215.776 C 100.066 215.594,100.000 214.825,100.169 213.550 L 100.427 211.603 98.514 210.311 C 96.092 208.675,91.917 204.457,92.226 203.958 C 92.354 203.750,92.311 203.606,92.130 203.637 C 91.496 203.747,90.668 203.598,90.858 203.409 C 91.073 203.194,86.348 198.181,84.800 196.981 L 83.800 196.206 84.800 197.374 M276.600 234.666 C 275.500 235.002,274.420 235.416,274.200 235.586 C 273.846 235.860,271.867 236.388,268.800 237.028 C 268.250 237.143,265.302 237.322,262.250 237.426 C 259.197 237.530,256.528 237.721,256.319 237.850 C 256.110 237.979,254.827 238.049,253.469 238.005 C 250.488 237.909,245.154 237.660,244.600 237.591 C 243.379 237.440,241.200 237.786,241.200 238.131 C 241.200 238.352,241.080 238.413,240.932 238.266 C 240.785 238.119,240.358 238.276,239.983 238.616 C 239.607 238.955,239.143 239.194,238.950 239.147 C 238.758 239.099,238.060 239.300,237.400 239.593 C 232.704 241.679,231.722 242.000,230.041 242.000 C 229.000 242.000,227.785 242.276,227.287 242.624 C 226.347 243.282,224.960 245.591,225.490 245.613 C 225.660 245.621,225.375 245.981,224.856 246.413 C 223.933 247.182,221.339 247.546,221.771 246.846 C 222.042 246.409,218.953 245.600,217.010 245.600 C 216.220 245.600,214.905 245.319,214.087 244.976 C 212.729 244.407,209.551 244.485,210.140 245.073 C 210.262 245.195,210.087 245.571,209.750 245.907 C 209.251 246.406,209.189 247.128,209.413 249.820 C 209.603 252.099,209.530 253.598,209.179 254.661 C 208.622 256.342,208.509 261.118,208.955 264.062 C 209.306 266.373,210.382 267.576,213.518 269.159 C 216.066 270.445,216.997 271.471,218.284 274.411 C 219.030 276.116,220.569 277.637,224.403 280.460 C 225.175 281.028,226.975 282.619,228.403 283.995 C 233.414 288.822,235.714 290.477,241.098 293.128 C 244.538 294.822,247.365 296.545,249.057 297.978 C 254.126 302.270,255.427 302.654,260.033 301.221 C 261.636 300.722,262.841 300.060,263.382 299.381 C 264.030 298.569,264.692 298.272,266.214 298.111 C 267.997 297.923,268.405 297.679,270.200 295.728 C 272.029 293.739,272.439 293.500,275.000 292.930 C 277.392 292.397,278.033 292.059,279.400 290.615 C 281.390 288.512,282.335 288.003,284.274 287.990 C 286.772 287.975,288.866 287.321,289.865 286.243 C 290.381 285.687,291.529 285.014,292.416 284.748 C 293.332 284.473,293.833 284.144,293.576 283.985 C 293.306 283.818,293.631 283.528,294.379 283.267 C 295.070 283.026,296.166 282.451,296.815 281.989 C 297.464 281.527,298.136 281.237,298.308 281.343 C 298.481 281.450,299.067 281.170,299.611 280.721 L 300.600 279.905 299.451 280.594 C 298.819 280.973,298.429 281.077,298.585 280.825 C 298.896 280.321,304.033 277.774,304.477 277.904 C 304.629 277.948,305.135 277.493,305.601 276.892 C 306.067 276.292,307.740 275.164,309.319 274.387 C 310.906 273.606,312.386 272.579,312.630 272.090 C 312.873 271.603,313.172 271.306,313.296 271.429 C 313.419 271.553,313.726 271.029,313.978 270.266 C 314.361 269.107,314.799 268.731,316.636 267.985 C 320.862 266.270,324.660 257.099,321.884 255.310 C 320.983 254.729,319.579 252.929,319.429 252.163 C 318.930 249.617,316.749 245.566,315.141 244.200 C 314.281 243.469,313.700 243.408,308.407 243.497 C 304.478 243.563,301.685 243.402,299.724 242.997 C 298.134 242.669,295.758 242.400,294.443 242.400 C 290.700 242.400,289.220 241.557,286.526 237.895 C 283.875 234.292,280.947 233.339,276.600 234.666 " stroke="none" fill="#288c68" fill-rule="evenodd"></path><path id="path8" d="M190.200 24.247 C 185.538 24.625,185.002 25.255,185.819 29.400 C 187.402 37.433,185.885 44.878,182.225 47.040 C 176.031 50.699,162.873 44.323,160.578 36.549 C 159.613 33.282,159.039 32.969,154.999 33.509 C 150.859 34.063,149.997 34.479,150.009 35.914 C 150.037 39.443,153.100 42.483,158.499 44.344 C 166.235 47.011,168.790 49.709,168.278 54.671 C 167.387 63.299,158.891 65.584,144.309 61.119 C 133.093 57.684,130.741 58.170,123.484 65.418 C 116.918 71.976,110.656 73.595,102.400 70.869 C 98.178 69.475,97.773 69.624,96.875 72.903 C 96.247 75.194,96.859 75.575,100.739 75.309 C 113.306 74.448,117.978 77.479,120.451 88.101 C 122.438 96.632,124.794 100.182,128.469 100.182 C 131.637 100.182,132.068 98.605,130.963 91.071 C 129.730 82.658,131.624 78.208,137.842 74.910 C 144.331 71.469,151.996 71.598,158.767 75.264 C 160.435 76.167,162.596 77.332,163.568 77.853 C 164.677 78.447,166.018 78.803,167.168 78.808 C 179.581 78.862,188.800 87.380,188.800 98.796 C 188.800 103.062,187.939 105.441,184.601 110.400 C 181.219 115.423,180.797 116.327,180.809 118.519 C 180.828 122.232,184.838 127.971,190.772 132.778 C 202.364 142.169,202.493 147.052,191.753 169.888 C 186.909 180.188,186.615 181.095,186.032 187.520 C 185.514 193.231,184.974 194.148,180.845 196.340 C 175.182 199.345,175.217 200.405,181.108 204.400 C 187.753 208.906,189.000 211.290,187.985 217.541 C 187.459 220.783,188.576 224.321,190.339 224.998 C 191.293 225.364,198.108 224.386,200.800 223.497 C 202.935 222.792,204.473 222.626,209.400 222.566 C 212.700 222.526,217.242 222.203,219.493 221.847 C 221.744 221.492,227.144 221.028,231.493 220.817 C 235.842 220.606,240.390 220.244,241.600 220.013 C 244.098 219.536,252.745 215.331,251.683 215.110 C 251.284 215.026,251.804 214.688,252.932 214.297 C 253.994 213.928,255.485 213.082,256.243 212.416 C 258.086 210.798,260.920 209.361,261.116 209.947 C 261.198 210.195,262.814 209.304,264.732 207.953 C 266.640 206.609,269.460 204.701,271.000 203.712 C 274.365 201.552,276.800 199.295,276.800 198.336 C 276.800 197.950,277.459 197.131,278.264 196.517 C 279.069 195.903,280.509 194.702,281.464 193.849 C 282.419 192.996,283.200 192.517,283.200 192.784 C 283.200 193.651,291.617 184.685,293.637 181.666 C 295.636 178.680,295.923 178.000,295.186 178.000 C 294.519 178.000,295.522 176.402,297.572 174.200 C 299.740 171.870,304.894 163.441,305.830 160.692 C 306.185 159.652,306.636 158.800,306.833 158.800 C 307.482 158.800,310.285 152.676,311.592 148.400 C 312.299 146.090,313.384 143.030,314.004 141.600 C 315.144 138.970,316.507 132.095,317.018 126.400 C 317.166 124.750,317.506 122.050,317.774 120.400 C 318.042 118.750,318.213 115.060,318.153 112.200 C 318.093 109.340,318.016 104.660,317.982 101.800 C 317.944 98.613,317.632 95.129,317.176 92.800 C 316.767 90.710,316.247 87.605,316.020 85.900 C 314.047 71.059,284.230 46.527,254.098 34.955 C 233.972 27.226,207.711 22.825,190.200 24.247 M212.328 26.606 C 235.662 28.952,263.417 38.860,274.500 48.801 C 276.059 50.199,276.800 51.166,276.800 51.801 C 276.800 52.317,277.223 53.247,277.739 53.869 C 278.256 54.491,279.451 56.139,280.396 57.532 C 281.409 59.025,282.227 59.881,282.389 59.618 C 283.206 58.296,291.566 77.358,291.044 79.352 C 290.829 80.175,291.792 82.400,292.364 82.400 C 293.140 82.400,294.208 90.255,293.542 91.065 C 293.295 91.366,293.373 92.356,293.764 93.865 C 294.407 96.352,295.199 103.639,295.200 107.071 C 295.200 108.379,295.421 109.364,295.800 109.743 C 296.907 110.849,296.526 118.000,295.361 118.000 C 294.722 118.000,294.513 118.746,294.018 122.792 C 293.756 124.931,293.780 125.864,294.101 126.062 C 294.742 126.459,293.389 134.032,292.206 136.662 C 291.696 137.796,290.798 140.398,290.209 142.443 C 289.621 144.488,288.796 146.644,288.376 147.233 C 287.957 147.822,286.991 149.780,286.231 151.583 C 284.433 155.846,281.993 159.642,281.200 159.410 C 280.364 159.167,276.800 164.760,276.800 166.315 C 276.800 167.515,275.952 168.657,271.221 173.827 C 269.999 175.162,268.244 177.164,267.321 178.277 C 266.397 179.390,264.687 180.845,263.521 181.510 C 262.354 182.176,260.688 183.458,259.819 184.360 C 258.738 185.481,257.897 186.000,257.163 186.000 C 256.526 186.000,255.132 186.702,253.744 187.720 C 252.455 188.666,249.979 190.241,248.242 191.220 C 246.505 192.199,245.001 193.309,244.899 193.686 C 244.638 194.654,242.000 196.194,242.000 195.378 C 242.000 194.881,241.755 194.908,240.500 195.541 C 239.675 195.957,238.550 196.434,238.000 196.601 C 237.450 196.768,235.455 197.597,233.566 198.444 C 231.677 199.291,228.797 200.262,227.166 200.602 C 223.146 201.440,222.800 201.568,222.800 202.212 C 222.800 202.532,222.076 202.957,221.100 203.210 C 220.165 203.453,218.770 203.819,218.000 204.023 C 216.025 204.548,215.200 204.490,215.200 203.825 C 215.200 203.217,213.725 203.289,210.800 204.037 C 210.030 204.234,205.530 204.391,200.800 204.385 C 193.438 204.375,190.391 204.186,185.800 203.452 C 184.715 203.279,181.058 201.393,180.498 200.718 C 179.885 199.979,180.293 199.463,182.289 198.451 C 186.724 196.203,187.395 194.773,187.755 186.800 C 187.961 182.239,188.392 180.372,190.064 176.800 C 190.527 175.810,192.228 172.176,193.843 168.725 C 203.274 148.573,203.052 140.976,192.792 132.793 C 181.525 123.809,179.975 119.368,185.350 111.469 C 195.904 95.961,187.740 79.382,168.702 77.663 C 164.987 77.327,164.649 77.216,161.502 75.290 C 150.080 68.300,134.887 70.575,130.317 79.960 C 129.176 82.303,128.890 88.333,129.699 92.995 C 130.563 97.977,129.655 99.676,126.894 98.249 C 124.619 97.072,123.309 94.104,121.800 86.706 C 120.604 80.841,119.824 79.113,117.248 76.615 C 114.709 74.155,114.691 74.313,117.700 72.741 C 119.493 71.804,121.444 70.162,124.600 66.936 C 131.434 59.950,133.431 59.458,143.293 62.337 C 161.248 67.576,170.282 63.901,169.439 51.700 C 169.269 49.227,169.323 48.000,169.603 48.000 C 169.833 48.000,171.490 48.381,173.286 48.846 C 183.557 51.509,187.722 47.160,187.774 33.721 C 187.789 29.704,187.966 26.675,188.200 26.443 C 189.139 25.507,202.278 25.596,212.328 26.606 M157.865 35.390 C 158.328 35.715,158.823 36.597,158.964 37.351 C 159.106 38.105,159.667 39.558,160.211 40.582 C 161.443 42.899,161.456 42.801,159.900 42.796 C 154.713 42.781,150.107 36.729,154.300 35.440 C 156.741 34.689,156.861 34.688,157.865 35.390 M145.331 84.350 C 142.634 85.615,142.219 86.598,142.642 90.718 C 144.086 104.771,141.065 110.434,130.671 113.156 C 125.887 114.409,125.907 114.390,126.153 117.529 C 126.393 120.588,126.508 121.191,127.354 123.860 C 127.692 124.927,128.277 127.056,128.653 128.590 C 129.030 130.125,129.864 132.375,130.506 133.590 C 131.149 134.806,132.077 136.902,132.569 138.248 C 134.423 143.326,140.579 151.459,146.578 156.759 C 147.226 157.332,148.604 158.655,149.642 159.700 C 150.679 160.745,151.804 161.600,152.141 161.600 C 152.972 161.600,155.325 163.022,156.849 164.446 C 157.536 165.088,158.301 165.575,158.549 165.528 C 158.797 165.482,160.489 166.203,162.308 167.131 C 165.972 168.999,172.348 171.200,174.093 171.200 C 177.958 171.200,188.800 153.905,188.800 147.738 C 188.800 145.264,187.780 143.726,184.206 140.805 C 175.911 134.027,171.220 126.466,170.881 119.329 C 170.621 113.846,171.333 111.976,176.600 104.311 C 180.136 99.164,179.286 94.293,174.262 90.913 C 172.139 89.485,171.843 89.421,164.947 88.887 C 159.791 88.487,160.092 88.593,153.875 85.012 C 151.282 83.519,147.695 83.241,145.331 84.350 M154.247 87.241 C 158.401 89.709,159.729 90.068,165.800 90.367 C 171.899 90.666,172.920 90.982,175.215 93.276 C 178.730 96.792,178.498 99.457,174.134 105.679 C 166.374 116.744,168.493 128.329,180.287 139.319 C 187.382 145.930,187.200 145.709,187.200 147.723 C 187.200 150.945,182.635 158.837,179.977 160.212 C 178.652 160.897,177.200 160.985,177.200 160.380 C 177.200 159.705,174.581 158.800,172.631 158.800 C 171.644 158.800,169.637 158.365,168.171 157.832 C 165.170 156.743,164.105 156.000,165.545 156.000 C 166.231 156.000,165.816 155.566,163.835 154.209 C 162.396 153.224,160.989 152.505,160.709 152.611 C 160.043 152.865,154.567 148.693,154.710 148.042 C 154.912 147.119,152.288 144.179,151.998 145.005 C 151.793 145.590,151.474 145.370,150.198 143.758 C 149.345 142.681,147.992 140.990,147.192 140.000 C 144.900 137.165,144.326 136.142,142.268 131.220 C 139.589 124.815,138.111 120.231,137.779 117.297 L 137.497 114.804 139.865 111.702 C 144.760 105.290,145.842 101.192,144.831 92.883 C 144.585 90.859,144.501 88.735,144.645 88.163 C 145.374 85.257,150.138 84.800,154.247 87.241 M157.190 211.838 C 150.938 213.746,149.406 217.099,154.096 218.612 C 155.253 218.985,157.791 219.997,159.735 220.861 C 166.083 223.680,169.704 223.690,172.197 220.894 L 173.794 219.103 172.152 217.651 C 170.663 216.334,168.174 214.836,163.823 212.637 C 162.329 211.882,158.540 211.426,157.190 211.838 " stroke="none" fill="#bec4d1" fill-rule="evenodd"></path></g></svg>