<!--
Licensed to the Apache Software Foundation (ASF) under one
or more contributor license agreements.  See the NOTICE file
distributed with this work for additional information
regarding copyright ownership.  The ASF licenses this file
to you under the Apache License, Version 2.0 (the
"License"); you may not use this file except in compliance
with the License.  You may obtain a copy of the License at

  http://www.apache.org/licenses/LICENSE-2.0

Unless required by applicable law or agreed to in writing,
software distributed under the License is distributed on an
"AS IS" BASIS, WITHOUT WARRANTIES OR CONDITIONS OF ANY
KIND, either express or implied.  See the License for the
specific language governing permissions and limitations
under the License.
-->
<svg viewBox="0 0 119 78" fill="none" xmlns="http://www.w3.org/2000/svg">
<path d="M59.2123 1.55857C59.4575 0.81382 60.5425 0.813801 60.7878 1.55857L67.5616 22.1322C67.9434 23.292 69.0328 24.0653 70.249 24.0653L92.1695 24.0653C92.9982 24.0653 93.2777 25.0719 92.6607 25.5143L74.9266 38.2295C73.9348 38.9406 73.5131 40.2085 73.8958 41.3707L80.6696 61.9444C80.8987 62.6402 80.076 63.3262 79.3906 62.8348L61.6566 50.1196C60.6679 49.4107 59.3321 49.4107 58.3434 50.1196L40.6094 62.8348C39.924 63.3262 39.1013 62.6402 39.3304 61.9444L46.1042 41.3707C46.4869 40.2085 46.0652 38.9406 45.0734 38.2295L27.3393 25.5143C26.7223 25.0719 27.0018 24.0653 27.8305 24.0653L49.751 24.0653C50.9672 24.0653 52.0566 23.292 52.4384 22.1322L59.2123 1.55857Z" stroke="currentColor" stroke-width="2"/>
<path fill-rule="evenodd" clip-rule="evenodd" d="M41.6782 51.616C17.5239 53.3343 0 58.4528 0 64.5C0 71.9558 26.6391 78 59.5 78C92.3609 78 119 71.9558 119 64.5C119 58.5387 101.97 53.4798 78.3466 51.6913L81.6194 61.6317C82.1664 63.2928 80.2398 64.6741 78.808 63.6475L61.1757 51.0053C60.619 51.0018 60.0604 51 59.5 51C59.2765 51 59.0534 51.0003 58.8305 51.0008L41.192 63.6475C39.7602 64.6741 37.8337 63.2928 38.3806 61.6317L41.6782 51.616Z" fill="currentColor" fill-opacity="0.25" stroke="currentColor"/>
</svg>
