<?xml version="1.0" encoding="UTF-8"?>
<svg id="Layer_1" data-name="Layer 1" xmlns="http://www.w3.org/2000/svg" version="1.1" viewBox="0 0 355.42 184.17">
  <defs>
    <style>
      .cls-1 {
        fill: #dc150b;
      }

      .cls-1, .cls-2, .cls-3 {
        stroke-width: 0px;
      }

      .cls-2 {
        fill: #000;
      }

      .cls-3 {
        fill: #fff;
      }
    </style>
  </defs>
  <g>
    <polygon class="cls-2" points="151.67 73.23 168.02 73.23 168.02 121.29 179.52 121.29 179.52 73.23 195.87 73.23 195.87 62.89 151.67 62.89 151.67 73.23"/>
    <path class="cls-2" d="M207.29,61.64c-1.75,0-3.28.62-4.56,1.85-1.28,1.23-1.94,2.77-1.94,4.57,0,1.7.65,3.19,1.93,4.45,1.28,1.25,2.81,1.89,4.56,1.89s3.19-.64,4.45-1.89,1.89-2.75,1.89-4.45c0-1.8-.62-3.33-1.85-4.56s-2.74-1.85-4.48-1.85Z"/>
    <rect class="cls-2" x="201.71" y="79.4" width="11.17" height="41.89"/>
    <path class="cls-2" d="M243.46,62.89h-20.53v58.4h20.53c8.85,0,15.88-2.64,20.9-7.85,5.01-5.21,7.56-12.39,7.56-21.35s-2.54-16.21-7.56-21.39c-5.02-5.18-12.05-7.81-20.9-7.81ZM234.43,73.23h8.62c5.72,0,10.04,1.66,12.86,4.93,2.83,3.29,4.26,7.86,4.26,13.59s-1.44,10.49-4.27,13.97c-2.82,3.46-7.14,5.22-12.86,5.22h-8.62v-37.72Z"/>
    <path class="cls-2" d="M318.75,95.24c-1.9-2.31-4.16-3.97-6.7-4.93v-.1c5.32-2.58,8.01-6.81,8.01-12.57,0-4.47-1.48-8.09-4.39-10.75-2.91-2.65-7.2-4-12.75-4h-24.08v58.4h23.92c5.88,0,10.56-1.44,13.9-4.28,3.36-2.85,5.06-6.9,5.06-12.04,0-4.07-1-7.34-2.96-9.73ZM290.08,86.58v-14.35h11.34c2.16,0,3.91.64,5.2,1.9,1.28,1.26,1.93,3.02,1.93,5.24s-.64,4-1.9,5.28c-1.26,1.28-3.07,1.93-5.4,1.93h-11.18ZM309.96,104.14c0,2.33-.71,4.23-2.1,5.65-1.39,1.42-3.45,2.14-6.1,2.14h-11.67v-16h11.67c2.54,0,4.57.77,6.02,2.3,1.45,1.53,2.19,3.52,2.19,5.9Z"/>
  </g>
  <g>
    <polygon class="cls-1" points="84.27 33.71 33.71 62.9 33.71 121.27 84.27 150.46 134.82 121.27 134.82 62.9 84.27 33.71"/>
    <polygon class="cls-3" points="67.41 121.27 67.41 82.36 50.56 92.09 50.56 72.63 84.27 53.17 101.12 62.9 84.27 72.63 84.27 131 67.41 121.27"/>
    <polygon class="cls-3" points="101.12 121.27 101.12 82.36 117.97 72.63 117.97 111.54 101.12 121.27"/>
  </g>
</svg>