<!--
  Licensed to the Apache Software Foundation (ASF) under one
  or more contributor license agreements.  See the NOTICE file
  distributed with this work for additional information
  regarding copyright ownership.  The ASF licenses this file
  to you under the Apache License, Version 2.0 (the
  "License"); you may not use this file except in compliance
  with the License.  You may obtain a copy of the License at

    http://www.apache.org/licenses/LICENSE-2.0

  Unless required by applicable law or agreed to in writing,
  software distributed under the License is distributed on an
  "AS IS" BASIS, WITHOUT WARRANTIES OR CONDITIONS OF ANY
  KIND, either express or implied.  See the License for the
  specific language governing permissions and limitations
  under the License.
-->
<svg xmlns="http://www.w3.org/2000/svg" viewBox="0 0 568 501" width="40" height="40" fill="#1185FE">
  <path d="M123.121 33.664C188.241 82.553 258.281 181.68 284 234.873c25.719-53.192 95.759-152.32 160.879-201.21C491.866-1.611 568-28.906 568 57.947c0 17.346-9.945 145.713-15.778 166.555-20.275 72.453-94.155 90.933-159.875 79.748C507.222 323.8 536.444 388.56 473.333 453.32c-119.86 122.992-172.272-30.859-185.702-70.281-2.462-7.227-3.614-10.608-3.631-7.733-.017-2.875-1.169.506-3.631 7.733-13.43 39.422-65.842 193.273-185.702 70.281-63.111-64.76-33.889-129.52 80.986-149.071-65.72 11.185-139.6-7.295-159.875-79.748C9.945 203.659 0 75.291 0 57.946 0-28.906 76.135-1.612 123.121 33.664z"/>
</svg>
