<svg width="80" height="34" viewBox="0 0 80 34" fill="none" xmlns="http://www.w3.org/2000/svg">
    <path d="M62.984 6.33511V26.8392H69.3191V21.1917H72.5678C74.619 21.1917 76.4809 20.3612 77.8251 19.0169C79.1694 17.6726 79.9999 15.8146 79.9999 13.7595C79.9999 9.66104 76.6702 6.33511 72.5678 6.33511H62.9879H62.984ZM73.3442 15.4322C72.9154 15.8609 72.3244 16.1236 71.6755 16.1236H69.3191V11.4032H71.6755C72.9811 11.4032 74.0357 12.4616 74.0357 13.7634C74.0357 14.4162 73.773 15.0073 73.3442 15.4322Z" fill="#151348"/>
    <path d="M60.0174 6.33511H53.6823V26.8392H60.0174V6.33511Z" fill="#151348"/>
    <path d="M47.3742 5.48529L40.5756 12.2839L33.7769 5.48529L29.4737 9.78853L36.2723 16.5872L29.4737 23.3858L33.7769 27.6929L40.5756 20.8904L47.3742 27.6929L51.6813 23.3858L44.8788 16.5872L51.6813 9.78853L47.3742 5.48529Z" fill="#151348"/>
    <path d="M23.7025 21.6012L12.1294 33.1743L9.097 30.142L17.6378 21.6012C20.4075 18.8315 20.4075 14.3428 17.6378 11.5732L9.09314 3.03236L12.1255 0L23.6986 11.5732C26.4683 14.3428 26.4683 18.8315 23.6986 21.6012H23.7025Z" fill="#2BDC5E"/>
    <path d="M6.0647 27.1058L9.09706 30.142L6.0647 33.1743L0 27.1058L10.5186 16.5872L0 6.0647L6.0647 0L9.09706 3.03236L6.0647 6.0647L16.5833 16.5872L6.0647 27.1058Z" fill="#6056D6"/>
</svg>
