<!--
  Licensed to the Apache Software Foundation (ASF) under one
  or more contributor license agreements.  See the NOTICE file
  distributed with this work for additional information
  regarding copyright ownership.  The ASF licenses this file
  to you under the Apache License, Version 2.0 (the
  "License"); you may not use this file except in compliance
  with the License.  You may obtain a copy of the License at

    http://www.apache.org/licenses/LICENSE-2.0

  Unless required by applicable law or agreed to in writing,
  software distributed under the License is distributed on an
  "AS IS" BASIS, WITHOUT WARRANTIES OR CONDITIONS OF ANY
  KIND, either express or implied.  See the License for the
  specific language governing permissions and limitations
  under the License.
-->
<?xml version="1.0" encoding="UTF-8"?>
<svg width="363px" height="147px" viewBox="0 0 363 147" version="1.1" xmlns="http://www.w3.org/2000/svg" xmlns:xlink="http://www.w3.org/1999/xlink">
    <!-- Generator: Sketch 55.1 (78136) - https://sketchapp.com -->
    <title>Preset-Hero-Logo</title>
    <desc>Created with Sketch.</desc>
    <g id="Page-1" stroke="none" stroke-width="1" fill="none" fill-rule="evenodd">
        <g id="Preset-Hero-Logo">
            <path d="M6.75900018,124.254 C5.76899523,124.254 5.09400198,124.474497 4.73400018,124.9155 C4.37399838,125.356502 4.19400018,126.107994 4.19400018,127.17 L4.19400018,127.71 C4.19400018,127.782 4.22999982,127.818 4.30200018,127.818 L7.32600018,127.818 C7.50600108,127.818 7.59600018,127.907999 7.59600018,128.088 L7.59600018,129.303 C7.59600018,129.483 7.50600108,129.573 7.32600018,129.573 L4.30200018,129.573 C4.22999982,129.573 4.19400018,129.608999 4.19400018,129.681 L4.19400018,141.21 C4.19400018,141.39 4.10400108,141.48 3.92400018,141.48 L2.57400018,141.48 C2.39399928,141.48 2.30400018,141.39 2.30400018,141.21 L2.30400018,129.681 C2.30400018,129.608999 2.26800054,129.573 2.19600018,129.573 L0.387000185,129.573 C0.206999285,129.573 0.117000185,129.483 0.117000185,129.303 L0.117000185,128.088 C0.117000185,127.907999 0.206999285,127.818 0.387000185,127.818 L2.19600018,127.818 C2.26800054,127.818 2.30400018,127.782 2.30400018,127.71 L2.30400018,127.062 C2.30400018,125.945994 2.42999892,125.068503 2.68200018,124.4295 C2.93400144,123.790496 3.37049708,123.322501 3.99150018,123.0255 C4.61250329,122.728498 5.4809946,122.58 6.59700018,122.58 L7.38000018,122.58 C7.56000108,122.58 7.65000018,122.669999 7.65000018,122.85 L7.65000018,123.984 C7.65000018,124.164 7.56000108,124.254 7.38000018,124.254 L6.75900018,124.254 Z M14.9100002,127.602 C16.5300083,127.602 17.7809958,128.015995 18.6630002,128.844 C19.5450046,129.672004 19.9860002,130.769993 19.9860002,132.138 L19.9860002,141.21 C19.9860002,141.39 19.8960011,141.48 19.7160002,141.48 L18.3390002,141.48 C18.1589993,141.48 18.0690002,141.39 18.0690002,141.21 L18.0690002,140.103 C18.0690002,140.066999 18.0555003,140.04 18.0285002,140.022 C18.0015,140.003999 17.9700004,140.012999 17.9340002,140.049 C17.4839979,140.589002 16.8990038,140.998498 16.1790002,141.2775 C15.4589966,141.556501 14.6580046,141.696 13.7760002,141.696 C12.4979938,141.696 11.4270045,141.372003 10.5630002,140.724 C9.69899585,140.075996 9.26700017,139.086006 9.26700017,137.754 C9.26700017,136.403993 9.75749527,135.337503 10.7385002,134.5545 C11.7195051,133.771496 13.0829914,133.38 14.8290002,133.38 L17.9610002,133.38 C18.0330005,133.38 18.0690002,133.344 18.0690002,133.272 L18.0690002,132.246 C18.0690002,131.327995 17.8125027,130.603502 17.2995002,130.0725 C16.7864976,129.541497 15.9900056,129.276 14.9100002,129.276 C14.0459959,129.276 13.3440029,129.442498 12.8040002,129.7755 C12.2639975,130.108501 11.9310008,130.571997 11.8050002,131.166 C11.7509999,131.346 11.643001,131.427 11.4810002,131.409 L10.0230002,131.22 C9.82499918,131.183999 9.74399999,131.112 9.78000017,131.004 C9.92400089,129.995995 10.4639955,129.177003 11.4000002,128.547 C12.3360049,127.916996 13.5059932,127.602 14.9100002,127.602 Z M14.1540002,140.049 C15.2160055,140.049 16.1339963,139.783502 16.9080002,139.2525 C17.682004,138.721497 18.0690002,138.006004 18.0690002,137.106 L18.0690002,135 C18.0690002,134.927999 18.0330005,134.892 17.9610002,134.892 L15.1260002,134.892 C13.9379942,134.892 12.9840038,135.134997 12.2640002,135.621 C11.5439966,136.107002 11.1840002,136.781995 11.1840002,137.646 C11.1840002,138.438004 11.4584974,139.036498 12.0075002,139.4415 C12.5565029,139.846502 13.2719958,140.049 14.1540002,140.049 Z M28.1640002,141.615 C27.1559951,141.615 26.2605041,141.453001 25.4775002,141.129 C24.6944962,140.804998 24.0915023,140.373002 23.6685002,139.833 C23.245498,139.292997 23.0340002,138.690003 23.0340002,138.024 L23.0340002,137.7 C23.0340002,137.519999 23.1239993,137.43 23.3040002,137.43 L24.6000002,137.43 C24.7800011,137.43 24.8700002,137.519999 24.8700002,137.7 L24.8700002,137.916 C24.8700002,138.510003 25.1804971,139.027497 25.8015002,139.4685 C26.4225033,139.909502 27.2009955,140.13 28.1370002,140.13 C29.0730048,140.13 29.8289973,139.918502 30.4050002,139.4955 C30.981003,139.072497 31.2690002,138.537003 31.2690002,137.889 C31.2690002,137.438997 31.1205016,137.070001 30.8235002,136.782 C30.5264987,136.493998 30.1755022,136.269 29.7705002,136.107 C29.3654981,135.944999 28.7400044,135.738001 27.8940002,135.486 C26.8859951,135.197998 26.0580034,134.910001 25.4100002,134.622 C24.7619969,134.333998 24.2175024,133.933502 23.7765002,133.4205 C23.335498,132.907497 23.1150002,132.255004 23.1150002,131.463 C23.1150002,130.310994 23.5649957,129.393003 24.4650002,128.709 C25.3650047,128.024996 26.5529928,127.683 28.0290002,127.683 C29.0190051,127.683 29.8964963,127.844998 30.6615002,128.169 C31.426504,128.493001 32.0159981,128.938497 32.4300002,129.5055 C32.8440022,130.072502 33.0510002,130.706996 33.0510002,131.409 L33.0510002,131.49 C33.0510002,131.67 32.9610011,131.76 32.7810002,131.76 L31.5120002,131.76 C31.3319993,131.76 31.2420002,131.67 31.2420002,131.49 L31.2420002,131.409 C31.2420002,130.796996 30.9495031,130.284002 30.3645002,129.87 C29.7794972,129.455997 28.9920051,129.249 28.0020002,129.249 C27.0839956,129.249 26.346003,129.433498 25.7880002,129.8025 C25.2299974,130.171501 24.9510002,130.679996 24.9510002,131.328 C24.9510002,131.940003 25.2209975,132.407998 25.7610002,132.732 C26.3010029,133.056001 27.1379945,133.379998 28.2720002,133.704 C29.3160054,134.010001 30.1619969,134.297998 30.8100002,134.568 C31.4580034,134.838001 32.0159978,135.229497 32.4840002,135.7425 C32.9520025,136.255502 33.1860002,136.925995 33.1860002,137.754 C33.1860002,138.924005 32.7270048,139.859996 31.8090002,140.562 C30.8909956,141.264003 29.6760077,141.615 28.1640002,141.615 Z M42.4710001,129.141 C42.4710001,129.321 42.381001,129.411 42.2010001,129.411 L39.1500001,129.411 C39.0779998,129.411 39.0420001,129.446999 39.0420001,129.519 L39.0420001,137.484 C39.0420001,138.348004 39.2354982,138.955498 39.6225001,139.3065 C40.0095021,139.657501 40.616996,139.833 41.4450001,139.833 L42.1200001,139.833 C42.300001,139.833 42.3900001,139.922999 42.3900001,140.103 L42.3900001,141.21 C42.3900001,141.39 42.300001,141.48 42.1200001,141.48 C41.9039991,141.498 41.5710024,141.507 41.1210001,141.507 C39.8249937,141.507 38.8440035,141.264002 38.1780001,140.778 C37.5119968,140.291997 37.1790001,139.392006 37.1790001,138.078 L37.1790001,129.519 C37.1790001,129.446999 37.1430005,129.411 37.0710001,129.411 L35.4240001,129.411 C35.2439992,129.411 35.1540001,129.321 35.1540001,129.141 L35.1540001,128.088 C35.1540001,127.907999 35.2439992,127.818 35.4240001,127.818 L37.0710001,127.818 C37.1430005,127.818 37.1790001,127.782 37.1790001,127.71 L37.1790001,124.578 C37.1790001,124.397999 37.2689992,124.308 37.4490001,124.308 L38.7720001,124.308 C38.952001,124.308 39.0420001,124.397999 39.0420001,124.578 L39.0420001,127.71 C39.0420001,127.782 39.0779998,127.818 39.1500001,127.818 L42.2010001,127.818 C42.381001,127.818 42.4710001,127.907999 42.4710001,128.088 L42.4710001,129.141 Z M55.6950001,127.602 C57.3150082,127.602 58.5659957,128.015995 59.4480001,128.844 C60.3300045,129.672004 60.7710001,130.769993 60.7710001,132.138 L60.7710001,141.21 C60.7710001,141.39 60.681001,141.48 60.5010001,141.48 L59.1240001,141.48 C58.9439992,141.48 58.8540001,141.39 58.8540001,141.21 L58.8540001,140.103 C58.8540001,140.066999 58.8405003,140.04 58.8135001,140.022 C58.7865,140.003999 58.7550003,140.012999 58.7190001,140.049 C58.2689979,140.589002 57.6840037,140.998498 56.9640001,141.2775 C56.2439965,141.556501 55.4430045,141.696 54.5610001,141.696 C53.2829937,141.696 52.2120044,141.372003 51.3480001,140.724 C50.4839958,140.075996 50.0520001,139.086006 50.0520001,137.754 C50.0520001,136.403993 50.5424952,135.337503 51.5235001,134.5545 C52.504505,133.771496 53.8679914,133.38 55.6140001,133.38 L58.7460001,133.38 C58.8180005,133.38 58.8540001,133.344 58.8540001,133.272 L58.8540001,132.246 C58.8540001,131.327995 58.5975027,130.603502 58.0845001,130.0725 C57.5714976,129.541497 56.7750055,129.276 55.6950001,129.276 C54.8309958,129.276 54.1290028,129.442498 53.5890001,129.7755 C53.0489974,130.108501 52.7160008,130.571997 52.5900001,131.166 C52.5359999,131.346 52.4280009,131.427 52.2660001,131.409 L50.8080001,131.22 C50.6099991,131.183999 50.5289999,131.112 50.5650001,131.004 C50.7090008,129.995995 51.2489954,129.177003 52.1850001,128.547 C53.1210048,127.916996 54.2909931,127.602 55.6950001,127.602 Z M54.9390001,140.049 C56.0010054,140.049 56.9189963,139.783502 57.6930001,139.2525 C58.467004,138.721497 58.8540001,138.006004 58.8540001,137.106 L58.8540001,135 C58.8540001,134.927999 58.8180005,134.892 58.7460001,134.892 L55.9110001,134.892 C54.7229942,134.892 53.7690037,135.134997 53.0490001,135.621 C52.3289965,136.107002 51.9690001,136.781995 51.9690001,137.646 C51.9690001,138.438004 52.2434974,139.036498 52.7925001,139.4415 C53.3415029,139.846502 54.0569957,140.049 54.9390001,140.049 Z M70.1370001,127.629 C71.5770073,127.629 72.7244958,128.051995 73.5795001,128.898 C74.4345044,129.744004 74.8620001,130.877992 74.8620001,132.3 L74.8620001,141.21 C74.8620001,141.39 74.772001,141.48 74.5920001,141.48 L73.2150001,141.48 C73.0349992,141.48 72.9450001,141.39 72.9450001,141.21 L72.9450001,132.678 C72.9450001,131.687995 72.6435031,130.878003 72.0405001,130.248 C71.4374971,129.617996 70.6590049,129.303 69.7050001,129.303 C68.7149952,129.303 67.9140032,129.608996 67.3020001,130.221 C66.6899971,130.833003 66.3840001,131.633995 66.3840001,132.624 L66.3840001,141.21 C66.3840001,141.39 66.294001,141.48 66.1140001,141.48 L64.7370001,141.48 C64.5569992,141.48 64.4670001,141.39 64.4670001,141.21 L64.4670001,128.088 C64.4670001,127.907999 64.5569992,127.818 64.7370001,127.818 L66.1140001,127.818 C66.294001,127.818 66.3840001,127.907999 66.3840001,128.088 L66.3840001,129.249 C66.3840001,129.285 66.3975,129.311999 66.4245001,129.33 C66.4515002,129.348 66.474,129.339 66.4920001,129.303 C67.2840041,128.186994 68.4989919,127.629 70.1370001,127.629 Z M83.4450001,127.602 C85.0650082,127.602 86.3159957,128.015995 87.1980001,128.844 C88.0800045,129.672004 88.5210001,130.769993 88.5210001,132.138 L88.5210001,141.21 C88.5210001,141.39 88.431001,141.48 88.2510001,141.48 L86.8740001,141.48 C86.6939992,141.48 86.6040001,141.39 86.6040001,141.21 L86.6040001,140.103 C86.6040001,140.066999 86.5905002,140.04 86.5635001,140.022 C86.5365,140.003999 86.5050003,140.012999 86.4690001,140.049 C86.0189979,140.589002 85.4340037,140.998498 84.7140001,141.2775 C83.9939965,141.556501 83.1930045,141.696 82.3110001,141.696 C81.0329937,141.696 79.9620044,141.372003 79.0980001,140.724 C78.2339958,140.075996 77.8020001,139.086006 77.8020001,137.754 C77.8020001,136.403993 78.2924952,135.337503 79.2735001,134.5545 C80.254505,133.771496 81.6179914,133.38 83.3640001,133.38 L86.4960001,133.38 C86.5680005,133.38 86.6040001,133.344 86.6040001,133.272 L86.6040001,132.246 C86.6040001,131.327995 86.3475027,130.603502 85.8345001,130.0725 C85.3214975,129.541497 84.5250055,129.276 83.4450001,129.276 C82.5809958,129.276 81.8790028,129.442498 81.3390001,129.7755 C80.7989974,130.108501 80.4660007,130.571997 80.3400001,131.166 C80.2859998,131.346 80.1780009,131.427 80.0160001,131.409 L78.5580001,131.22 C78.3599991,131.183999 78.2789999,131.112 78.3150001,131.004 C78.4590008,129.995995 78.9989954,129.177003 79.9350001,128.547 C80.8710048,127.916996 82.0409931,127.602 83.4450001,127.602 Z M82.6890001,140.049 C83.7510054,140.049 84.6689962,139.783502 85.4430001,139.2525 C86.217004,138.721497 86.6040001,138.006004 86.6040001,137.106 L86.6040001,135 C86.6040001,134.927999 86.5680005,134.892 86.4960001,134.892 L83.6610001,134.892 C82.4729942,134.892 81.5190037,135.134997 80.7990001,135.621 C80.0789965,136.107002 79.7190001,136.781995 79.7190001,137.646 C79.7190001,138.438004 79.9934974,139.036498 80.5425001,139.4415 C81.0915028,139.846502 81.8069957,140.049 82.6890001,140.049 Z M92.4870001,141.48 C92.3069992,141.48 92.2170001,141.39 92.2170001,141.21 L92.2170001,122.85 C92.2170001,122.669999 92.3069992,122.58 92.4870001,122.58 L93.8640001,122.58 C94.044001,122.58 94.1340001,122.669999 94.1340001,122.85 L94.1340001,141.21 C94.1340001,141.39 94.044001,141.48 93.8640001,141.48 L92.4870001,141.48 Z M97.5060001,146.88 C97.3799994,146.88 97.3170001,146.79 97.3170001,146.61 L97.3170001,145.53 C97.3170001,145.349999 97.4069992,145.26 97.5870001,145.26 L97.6950001,145.26 C98.3970036,145.241999 98.9414981,145.1385 99.3285001,144.9495 C99.715502,144.760499 100.048499,144.409502 100.3275,143.8965 C100.606501,143.383497 100.907998,142.605005 101.232,141.561 C101.268,141.488999 101.268,141.435 101.232,141.399 L96.6690001,128.115 L96.6420001,128.007 C96.6420001,127.880999 96.7229993,127.818 96.8850001,127.818 L98.3160001,127.818 C98.4780009,127.818 98.5859998,127.889999 98.6400001,128.034 L102.15,138.942 C102.168,138.978 102.195,138.996 102.231,138.996 C102.267,138.996 102.294,138.978 102.312,138.942 L105.768,128.034 C105.822,127.889999 105.929999,127.818 106.092,127.818 L107.496,127.818 C107.694001,127.818 107.766,127.916999 107.712,128.115 L102.717,142.668 C102.284998,143.874006 101.880002,144.764997 101.502,145.341 C101.123998,145.917002 100.651503,146.317498 100.0845,146.5425 C99.5174972,146.767501 98.7210052,146.88 97.6950001,146.88 L97.5060001,146.88 Z M116.403,129.141 C116.403,129.321 116.313001,129.411 116.133,129.411 L113.082,129.411 C113.01,129.411 112.974,129.446999 112.974,129.519 L112.974,137.484 C112.974,138.348004 113.167498,138.955498 113.5545,139.3065 C113.941502,139.657501 114.548996,139.833 115.377,139.833 L116.052,139.833 C116.232001,139.833 116.322,139.922999 116.322,140.103 L116.322,141.21 C116.322,141.39 116.232001,141.48 116.052,141.48 C115.835999,141.498 115.503002,141.507 115.053,141.507 C113.756994,141.507 112.776003,141.264002 112.11,140.778 C111.443997,140.291997 111.111,139.392006 111.111,138.078 L111.111,129.519 C111.111,129.446999 111.075,129.411 111.003,129.411 L109.356,129.411 C109.175999,129.411 109.086,129.321 109.086,129.141 L109.086,128.088 C109.086,127.907999 109.175999,127.818 109.356,127.818 L111.003,127.818 C111.075,127.818 111.111,127.782 111.111,127.71 L111.111,124.578 C111.111,124.397999 111.200999,124.308 111.381,124.308 L112.704,124.308 C112.884001,124.308 112.974,124.397999 112.974,124.578 L112.974,127.71 C112.974,127.782 113.01,127.818 113.082,127.818 L116.133,127.818 C116.313001,127.818 116.403,127.907999 116.403,128.088 L116.403,129.141 Z M121.098,125.334 C120.665998,125.334 120.306001,125.190001 120.018,124.902 C119.729999,124.613998 119.586,124.254002 119.586,123.822 C119.586,123.371997 119.729999,123.007501 120.018,122.7285 C120.306001,122.449498 120.665998,122.31 121.098,122.31 C121.530002,122.31 121.889999,122.449498 122.178,122.7285 C122.466001,123.007501 122.61,123.371997 122.61,123.822 C122.61,124.254002 122.466001,124.613998 122.178,124.902 C121.889999,125.190001 121.530002,125.334 121.098,125.334 Z M120.342,141.453 C120.161999,141.453 120.072,141.363 120.072,141.183 L120.072,128.061 C120.072,127.880999 120.161999,127.791 120.342,127.791 L121.719,127.791 C121.899001,127.791 121.989,127.880999 121.989,128.061 L121.989,141.183 C121.989,141.363 121.899001,141.453 121.719,141.453 L120.342,141.453 Z M131.544,141.696 C130.247994,141.696 129.136505,141.358503 128.2095,140.6835 C127.282495,140.008496 126.648002,139.095005 126.306,137.943 C126.071999,137.150996 125.955,136.035007 125.955,134.595 C125.955,133.298993 126.071999,132.201004 126.306,131.301 C126.630002,130.184994 127.259995,129.289503 128.196,128.6145 C129.132005,127.939496 130.247994,127.602 131.544,127.602 C132.858007,127.602 133.996495,127.934996 134.9595,128.601 C135.922505,129.267003 136.547999,130.094995 136.836,131.085 C136.926,131.409001 136.98,131.678998 136.998,131.895 L136.998,131.949 C136.998,132.075 136.917001,132.155999 136.755,132.192 L135.405,132.381 L135.351,132.381 C135.224999,132.381 135.144,132.3 135.108,132.138 L135.027,131.733 C134.864999,131.048996 134.469003,130.468502 133.839,129.9915 C133.208997,129.514497 132.444005,129.276 131.544,129.276 C130.643996,129.276 129.892503,129.514497 129.2895,129.9915 C128.686497,130.468502 128.295001,131.102996 128.115,131.895 C127.952999,132.579003 127.872,133.487994 127.872,134.622 C127.872,135.810005 127.952999,136.727996 128.115,137.376 C128.295001,138.186004 128.686497,138.829497 129.2895,139.3065 C129.892503,139.783502 130.643996,140.022 131.544,140.022 C132.426004,140.022 133.186497,139.792502 133.8255,139.3335 C134.464503,138.874497 134.864999,138.285003 135.027,137.565 L135.027,137.457 L135.054,137.349 C135.072,137.168999 135.179999,137.096999 135.378,137.133 L136.701,137.349 C136.881001,137.385 136.962,137.483999 136.944,137.646 L136.836,138.186 C136.565999,139.230005 135.945005,140.075996 134.973,140.724 C134.000995,141.372003 132.858007,141.696 131.544,141.696 Z M144.609,141.615 C143.600995,141.615 142.705504,141.453001 141.9225,141.129 C141.139496,140.804998 140.536502,140.373002 140.1135,139.833 C139.690498,139.292997 139.479,138.690003 139.479,138.024 L139.479,137.7 C139.479,137.519999 139.568999,137.43 139.749,137.43 L141.045,137.43 C141.225001,137.43 141.315,137.519999 141.315,137.7 L141.315,137.916 C141.315,138.510003 141.625497,139.027497 142.2465,139.4685 C142.867503,139.909502 143.645995,140.13 144.582,140.13 C145.518005,140.13 146.273997,139.918502 146.85,139.4955 C147.426003,139.072497 147.714,138.537003 147.714,137.889 C147.714,137.438997 147.565502,137.070001 147.2685,136.782 C146.971499,136.493998 146.620502,136.269 146.2155,136.107 C145.810498,135.944999 145.185004,135.738001 144.339,135.486 C143.330995,135.197998 142.503003,134.910001 141.855,134.622 C141.206997,134.333998 140.662502,133.933502 140.2215,133.4205 C139.780498,132.907497 139.56,132.255004 139.56,131.463 C139.56,130.310994 140.009996,129.393003 140.91,128.709 C141.810005,128.024996 142.997993,127.683 144.474,127.683 C145.464005,127.683 146.341496,127.844998 147.1065,128.169 C147.871504,128.493001 148.460998,128.938497 148.875,129.5055 C149.289002,130.072502 149.496,130.706996 149.496,131.409 L149.496,131.49 C149.496,131.67 149.406001,131.76 149.226,131.76 L147.957,131.76 C147.776999,131.76 147.687,131.67 147.687,131.49 L147.687,131.409 C147.687,130.796996 147.394503,130.284002 146.8095,129.87 C146.224497,129.455997 145.437005,129.249 144.447,129.249 C143.528995,129.249 142.791003,129.433498 142.233,129.8025 C141.674997,130.171501 141.396,130.679996 141.396,131.328 C141.396,131.940003 141.665997,132.407998 142.206,132.732 C142.746003,133.056001 143.582994,133.379998 144.717,133.704 C145.761005,134.010001 146.606997,134.297998 147.255,134.568 C147.903003,134.838001 148.460998,135.229497 148.929,135.7425 C149.397002,136.255502 149.631,136.925995 149.631,137.754 C149.631,138.924005 149.172005,139.859996 148.254,140.562 C147.335995,141.264003 146.121008,141.615 144.609,141.615 Z M163.314,124.254 C162.323995,124.254 161.649002,124.474497 161.289,124.9155 C160.928998,125.356502 160.749,126.107994 160.749,127.17 L160.749,127.71 C160.749,127.782 160.785,127.818 160.857,127.818 L163.881,127.818 C164.061001,127.818 164.151,127.907999 164.151,128.088 L164.151,129.303 C164.151,129.483 164.061001,129.573 163.881,129.573 L160.857,129.573 C160.785,129.573 160.749,129.608999 160.749,129.681 L160.749,141.21 C160.749,141.39 160.659001,141.48 160.479,141.48 L159.129,141.48 C158.948999,141.48 158.859,141.39 158.859,141.21 L158.859,129.681 C158.859,129.608999 158.823,129.573 158.751,129.573 L156.942,129.573 C156.761999,129.573 156.672,129.483 156.672,129.303 L156.672,128.088 C156.672,127.907999 156.761999,127.818 156.942,127.818 L158.751,127.818 C158.823,127.818 158.859,127.782 158.859,127.71 L158.859,127.062 C158.859,125.945994 158.984999,125.068503 159.237,124.4295 C159.489001,123.790496 159.925497,123.322501 160.5465,123.0255 C161.167503,122.728498 162.035994,122.58 163.152,122.58 L163.935,122.58 C164.115001,122.58 164.205,122.669999 164.205,122.85 L164.205,123.984 C164.205,124.164 164.115001,124.254 163.935,124.254 L163.314,124.254 Z M171.168,141.696 C169.871994,141.696 168.756005,141.363003 167.82,140.697 C166.883995,140.030996 166.236002,139.113005 165.876,137.943 C165.623999,137.114995 165.498,136.008006 165.498,134.622 C165.498,133.235993 165.623999,132.138004 165.876,131.328 C166.218002,130.175994 166.856995,129.267003 167.793,128.601 C168.729005,127.934996 169.862993,127.602 171.195,127.602 C172.473006,127.602 173.575495,127.934996 174.5025,128.601 C175.429505,129.267003 176.063998,130.166994 176.406,131.301 C176.658001,132.075003 176.784,133.181992 176.784,134.622 C176.784,136.080007 176.658001,137.186996 176.406,137.943 C176.063998,139.113005 175.429505,140.030996 174.5025,140.697 C173.575495,141.363003 172.464006,141.696 171.168,141.696 Z M171.168,140.022 C172.032004,140.022 172.769997,139.783502 173.382,139.3065 C173.994003,138.829497 174.407999,138.186004 174.624,137.376 C174.786001,136.727996 174.867,135.819005 174.867,134.649 C174.867,133.460994 174.795001,132.552003 174.651,131.922 C174.434999,131.111995 174.016503,130.468502 173.3955,129.9915 C172.774497,129.514497 172.023004,129.276 171.141,129.276 C170.258996,129.276 169.512003,129.514497 168.9,129.9915 C168.287997,130.468502 167.874001,131.111995 167.658,131.922 C167.513999,132.552003 167.442,133.460994 167.442,134.649 C167.442,135.837005 167.513999,136.745996 167.658,137.376 C167.856001,138.186004 168.265497,138.829497 168.8865,139.3065 C169.507503,139.783502 170.267995,140.022 171.168,140.022 Z M185.88,127.683 C186.474003,127.683 186.986998,127.799998 187.419,128.034 C187.563001,128.106 187.617,128.222999 187.581,128.385 L187.284,129.708 C187.23,129.888 187.113001,129.942 186.933,129.87 C186.626998,129.743999 186.276002,129.681 185.88,129.681 L185.529,129.708 C184.592995,129.744 183.819003,130.090496 183.207,130.7475 C182.594997,131.404503 182.289,132.236995 182.289,133.245 L182.289,141.21 C182.289,141.39 182.199001,141.48 182.019,141.48 L180.642,141.48 C180.461999,141.48 180.372,141.39 180.372,141.21 L180.372,128.088 C180.372,127.907999 180.461999,127.818 180.642,127.818 L182.019,127.818 C182.199001,127.818 182.289,127.907999 182.289,128.088 L182.289,129.735 C182.289,129.789 182.3025,129.820499 182.3295,129.8295 C182.3565,129.8385 182.379,129.825 182.397,129.789 C182.775002,129.122996 183.256497,128.605501 183.8415,128.2365 C184.426503,127.867498 185.105996,127.683 185.88,127.683 Z M208.824,127.629 C210.174007,127.629 211.240496,128.033995 212.0235,128.844 C212.806504,129.654004 213.198,130.760993 213.198,132.165 L213.198,141.21 C213.198,141.39 213.108001,141.48 212.928,141.48 L211.578,141.48 C211.397999,141.48 211.308,141.39 211.308,141.21 L211.308,132.543 C211.308,131.552995 211.024503,130.765502 210.4575,130.1805 C209.890497,129.595497 209.148005,129.303 208.23,129.303 C207.275995,129.303 206.506503,129.590997 205.9215,130.167 C205.336497,130.743002 205.044,131.516995 205.044,132.489 L205.044,141.21 C205.044,141.39 204.954001,141.48 204.774,141.48 L203.397,141.48 C203.216999,141.48 203.127,141.39 203.127,141.21 L203.127,132.543 C203.127,131.552995 202.848003,130.765502 202.29,130.1805 C201.731997,129.595497 200.985005,129.303 200.049,129.303 C199.094995,129.303 198.334503,129.590997 197.7675,130.167 C197.200497,130.743002 196.917,131.516995 196.917,132.489 L196.917,141.21 C196.917,141.39 196.827001,141.48 196.647,141.48 L195.27,141.48 C195.089999,141.48 195,141.39 195,141.21 L195,128.088 C195,127.907999 195.089999,127.818 195.27,127.818 L196.647,127.818 C196.827001,127.818 196.917,127.907999 196.917,128.088 L196.917,129.168 C196.917,129.204 196.9305,129.226499 196.9575,129.2355 C196.9845,129.2445 197.016,129.231 197.052,129.195 C197.448002,128.672997 197.956497,128.281501 198.5775,128.0205 C199.198503,127.759498 199.886996,127.629 200.643,127.629 C201.579005,127.629 202.379997,127.817998 203.046,128.196 C203.712003,128.574001 204.215998,129.122996 204.558,129.843 C204.594,129.933 204.639,129.933 204.693,129.843 C205.089002,129.104996 205.646996,128.551501 206.367,128.1825 C207.087004,127.813498 207.905995,127.629 208.824,127.629 Z M222.051,141.696 C220.754993,141.696 219.639005,141.363003 218.703,140.697 C217.766995,140.030996 217.119002,139.113005 216.759,137.943 C216.506999,137.114995 216.381,136.008006 216.381,134.622 C216.381,133.235993 216.506999,132.138004 216.759,131.328 C217.101002,130.175994 217.739995,129.267003 218.676,128.601 C219.612005,127.934996 220.745993,127.602 222.078,127.602 C223.356006,127.602 224.458495,127.934996 225.3855,128.601 C226.312505,129.267003 226.946998,130.166994 227.289,131.301 C227.541001,132.075003 227.667,133.181992 227.667,134.622 C227.667,136.080007 227.541001,137.186996 227.289,137.943 C226.946998,139.113005 226.312505,140.030996 225.3855,140.697 C224.458495,141.363003 223.347006,141.696 222.051,141.696 Z M222.051,140.022 C222.915004,140.022 223.652997,139.783502 224.265,139.3065 C224.877003,138.829497 225.290999,138.186004 225.507,137.376 C225.669001,136.727996 225.75,135.819005 225.75,134.649 C225.75,133.460994 225.678001,132.552003 225.534,131.922 C225.317999,131.111995 224.899503,130.468502 224.2785,129.9915 C223.657497,129.514497 222.906004,129.276 222.024,129.276 C221.141996,129.276 220.395003,129.514497 219.783,129.9915 C219.170997,130.468502 218.757001,131.111995 218.541,131.922 C218.396999,132.552003 218.325,133.460994 218.325,134.649 C218.325,135.837005 218.396999,136.745996 218.541,137.376 C218.739001,138.186004 219.148497,138.829497 219.7695,139.3065 C220.390503,139.783502 221.150995,140.022 222.051,140.022 Z M239.733,122.85 C239.733,122.669999 239.822999,122.58 240.003,122.58 L241.38,122.58 C241.560001,122.58 241.65,122.669999 241.65,122.85 L241.65,141.21 C241.65,141.39 241.560001,141.48 241.38,141.48 L240.003,141.48 C239.822999,141.48 239.733,141.39 239.733,141.21 L239.733,140.076 C239.733,140.039999 239.7195,140.0175 239.6925,140.0085 C239.6655,139.999499 239.634,140.012999 239.598,140.049 C239.201998,140.571002 238.711503,140.975998 238.1265,141.264 C237.541497,141.552001 236.889004,141.696 236.169,141.696 C234.908994,141.696 233.851504,141.372003 232.9965,140.724 C232.141496,140.075996 231.552002,139.194005 231.228,138.078 C230.975999,137.267995 230.85,136.125007 230.85,134.649 C230.85,133.154992 230.957999,132.039003 231.174,131.301 C231.498002,130.148994 232.091996,129.244503 232.956,128.5875 C233.820004,127.930496 234.890994,127.602 236.169,127.602 C236.871003,127.602 237.518997,127.741498 238.113,128.0205 C238.707003,128.299501 239.201998,128.699997 239.598,129.222 C239.634,129.258 239.6655,129.2715 239.6925,129.2625 C239.7195,129.253499 239.733,129.231 239.733,129.195 L239.733,122.85 Z M239.247,137.943 C239.409001,137.582998 239.526,137.160002 239.598,136.674 C239.67,136.187997 239.706,135.513004 239.706,134.649 C239.706,133.784995 239.67,133.105502 239.598,132.6105 C239.526,132.115497 239.400001,131.679001 239.22,131.301 C239.003999,130.688996 238.648502,130.198501 238.1535,129.8295 C237.658497,129.460498 237.069003,129.276 236.385,129.276 C235.664996,129.276 235.044003,129.455998 234.522,129.816 C233.999997,130.176001 233.622001,130.652997 233.388,131.247 C233.171999,131.643002 233.0145,132.088497 232.9155,132.5835 C232.816499,133.078502 232.767,133.766995 232.767,134.649 C232.767,135.495004 232.803,136.156497 232.875,136.6335 C232.947,137.110502 233.072999,137.537998 233.253,137.916 C233.469001,138.564003 233.851497,139.076998 234.4005,139.455 C234.949503,139.833001 235.601996,140.022 236.358,140.022 C237.078004,140.022 237.680998,139.833001 238.167,139.455 C238.653002,139.076998 239.012999,138.573003 239.247,137.943 Z M256.173,132.354 C256.245,132.858002 256.281,133.487996 256.281,134.244 L256.281,135.108 C256.281,135.288 256.191001,135.378 256.011,135.378 L247.29,135.378 C247.218,135.378 247.182,135.413999 247.182,135.486 C247.218,136.476004 247.272,137.114998 247.344,137.403 C247.542001,138.213004 247.964997,138.851997 248.613,139.32 C249.261003,139.788002 250.088995,140.022 251.097,140.022 C251.853004,140.022 252.518997,139.851001 253.095,139.509 C253.671003,139.166998 254.120998,138.681003 254.445,138.051 C254.553,137.888999 254.678999,137.852999 254.823,137.943 L255.876,138.564 C256.020001,138.654 256.056,138.779999 255.984,138.942 C255.533998,139.806004 254.859004,140.485497 253.959,140.9805 C253.058995,141.475502 252.024006,141.723 250.854,141.723 C249.575994,141.704999 248.505004,141.399003 247.641,140.805 C246.776996,140.210997 246.156002,139.383005 245.778,138.321 C245.453998,137.456995 245.292,136.215008 245.292,134.595 C245.292,133.838996 245.3055,133.222502 245.3325,132.7455 C245.3595,132.268497 245.426999,131.841001 245.535,131.463 C245.841001,130.292994 246.457495,129.357003 247.3845,128.655 C248.311505,127.952996 249.431993,127.602 250.746,127.602 C252.384008,127.602 253.643996,128.015995 254.526,128.844 C255.408004,129.672004 255.956999,130.841992 256.173,132.354 Z M250.746,129.276 C249.863996,129.276 249.130503,129.505497 248.5455,129.9645 C247.960497,130.423502 247.578001,131.039996 247.398,131.814 C247.289999,132.192001 247.218,132.803995 247.182,133.65 C247.182,133.722 247.218,133.758 247.29,133.758 L254.283,133.758 C254.355,133.758 254.391,133.722 254.391,133.65 C254.355,132.839995 254.301,132.264001 254.229,131.922 C254.030999,131.111995 253.630503,130.468502 253.0275,129.9915 C252.424497,129.514497 251.664005,129.276 250.746,129.276 Z M265.296,127.683 C265.890003,127.683 266.402998,127.799998 266.835,128.034 C266.979001,128.106 267.033,128.222999 266.997,128.385 L266.7,129.708 C266.646,129.888 266.529001,129.942 266.349,129.87 C266.042998,129.743999 265.692002,129.681 265.296,129.681 L264.945,129.708 C264.008995,129.744 263.235003,130.090496 262.623,130.7475 C262.010997,131.404503 261.705,132.236995 261.705,133.245 L261.705,141.21 C261.705,141.39 261.615001,141.48 261.435,141.48 L260.058,141.48 C259.877999,141.48 259.788,141.39 259.788,141.21 L259.788,128.088 C259.788,127.907999 259.877999,127.818 260.058,127.818 L261.435,127.818 C261.615001,127.818 261.705,127.907999 261.705,128.088 L261.705,129.735 C261.705,129.789 261.7185,129.820499 261.7455,129.8295 C261.7725,129.8385 261.795,129.825 261.813,129.789 C262.191002,129.122996 262.672497,128.605501 263.2575,128.2365 C263.842503,127.867498 264.521996,127.683 265.296,127.683 Z M274.986,127.629 C276.426007,127.629 277.573496,128.051995 278.4285,128.898 C279.283504,129.744004 279.711,130.877992 279.711,132.3 L279.711,141.21 C279.711,141.39 279.621001,141.48 279.441,141.48 L278.064,141.48 C277.883999,141.48 277.794,141.39 277.794,141.21 L277.794,132.678 C277.794,131.687995 277.492503,130.878003 276.8895,130.248 C276.286497,129.617996 275.508005,129.303 274.554,129.303 C273.563995,129.303 272.763003,129.608996 272.151,130.221 C271.538997,130.833003 271.233,131.633995 271.233,132.624 L271.233,141.21 C271.233,141.39 271.143001,141.48 270.963,141.48 L269.586,141.48 C269.405999,141.48 269.316,141.39 269.316,141.21 L269.316,128.088 C269.316,127.907999 269.405999,127.818 269.586,127.818 L270.963,127.818 C271.143001,127.818 271.233,127.907999 271.233,128.088 L271.233,129.249 C271.233,129.285 271.2465,129.311999 271.2735,129.33 C271.3005,129.348 271.323,129.339 271.341,129.303 C272.133004,128.186994 273.347992,127.629 274.986,127.629 Z M294.798,129.141 C294.798,129.321 294.708001,129.411 294.528,129.411 L291.477,129.411 C291.405,129.411 291.369,129.446999 291.369,129.519 L291.369,137.484 C291.369,138.348004 291.562498,138.955498 291.9495,139.3065 C292.336502,139.657501 292.943996,139.833 293.772,139.833 L294.447,139.833 C294.627001,139.833 294.717,139.922999 294.717,140.103 L294.717,141.21 C294.717,141.39 294.627001,141.48 294.447,141.48 C294.230999,141.498 293.898002,141.507 293.448,141.507 C292.151993,141.507 291.171003,141.264002 290.505,140.778 C289.838997,140.291997 289.506,139.392006 289.506,138.078 L289.506,129.519 C289.506,129.446999 289.47,129.411 289.398,129.411 L287.751,129.411 C287.570999,129.411 287.481,129.321 287.481,129.141 L287.481,128.088 C287.481,127.907999 287.570999,127.818 287.751,127.818 L289.398,127.818 C289.47,127.818 289.506,127.782 289.506,127.71 L289.506,124.578 C289.506,124.397999 289.595999,124.308 289.776,124.308 L291.099,124.308 C291.279001,124.308 291.369,124.397999 291.369,124.578 L291.369,127.71 C291.369,127.782 291.405,127.818 291.477,127.818 L294.528,127.818 C294.708001,127.818 294.798,127.907999 294.798,128.088 L294.798,129.141 Z M308.268,132.354 C308.34,132.858002 308.376,133.487996 308.376,134.244 L308.376,135.108 C308.376,135.288 308.286001,135.378 308.106,135.378 L299.385,135.378 C299.313,135.378 299.277,135.413999 299.277,135.486 C299.313,136.476004 299.367,137.114998 299.439,137.403 C299.637001,138.213004 300.059997,138.851997 300.708,139.32 C301.356003,139.788002 302.183995,140.022 303.192,140.022 C303.948004,140.022 304.613997,139.851001 305.19,139.509 C305.766003,139.166998 306.215998,138.681003 306.54,138.051 C306.648,137.888999 306.773999,137.852999 306.918,137.943 L307.971,138.564 C308.115001,138.654 308.151,138.779999 308.079,138.942 C307.628998,139.806004 306.954004,140.485497 306.054,140.9805 C305.153995,141.475502 304.119006,141.723 302.949,141.723 C301.670993,141.704999 300.600004,141.399003 299.736,140.805 C298.871996,140.210997 298.251002,139.383005 297.873,138.321 C297.548998,137.456995 297.387,136.215008 297.387,134.595 C297.387,133.838996 297.4005,133.222502 297.4275,132.7455 C297.4545,132.268497 297.521999,131.841001 297.63,131.463 C297.936001,130.292994 298.552495,129.357003 299.4795,128.655 C300.406504,127.952996 301.526993,127.602 302.841,127.602 C304.479008,127.602 305.738995,128.015995 306.621,128.844 C307.503004,129.672004 308.051999,130.841992 308.268,132.354 Z M302.841,129.276 C301.958995,129.276 301.225503,129.505497 300.6405,129.9645 C300.055497,130.423502 299.673001,131.039996 299.493,131.814 C299.384999,132.192001 299.313,132.803995 299.277,133.65 C299.277,133.722 299.313,133.758 299.385,133.758 L306.378,133.758 C306.45,133.758 306.486,133.722 306.486,133.65 C306.45,132.839995 306.396,132.264001 306.324,131.922 C306.125999,131.111995 305.725503,130.468502 305.1225,129.9915 C304.519497,129.514497 303.759004,129.276 302.841,129.276 Z M316.473,127.602 C318.093008,127.602 319.343995,128.015995 320.226,128.844 C321.108004,129.672004 321.549,130.769993 321.549,132.138 L321.549,141.21 C321.549,141.39 321.459001,141.48 321.279,141.48 L319.902,141.48 C319.721999,141.48 319.632,141.39 319.632,141.21 L319.632,140.103 C319.632,140.066999 319.6185,140.04 319.5915,140.022 C319.5645,140.003999 319.533,140.012999 319.497,140.049 C319.046998,140.589002 318.462003,140.998498 317.742,141.2775 C317.021996,141.556501 316.221004,141.696 315.339,141.696 C314.060993,141.696 312.990004,141.372003 312.126,140.724 C311.261996,140.075996 310.83,139.086006 310.83,137.754 C310.83,136.403993 311.320495,135.337503 312.3015,134.5545 C313.282505,133.771496 314.645991,133.38 316.392,133.38 L319.524,133.38 C319.596,133.38 319.632,133.344 319.632,133.272 L319.632,132.246 C319.632,131.327995 319.375502,130.603502 318.8625,130.0725 C318.349497,129.541497 317.553005,129.276 316.473,129.276 C315.608996,129.276 314.907003,129.442498 314.367,129.7755 C313.826997,130.108501 313.494,130.571997 313.368,131.166 C313.314,131.346 313.206001,131.427 313.044,131.409 L311.586,131.22 C311.387999,131.183999 311.307,131.112 311.343,131.004 C311.487001,129.995995 312.026995,129.177003 312.963,128.547 C313.899005,127.916996 315.068993,127.602 316.473,127.602 Z M315.717,140.049 C316.779005,140.049 317.696996,139.783502 318.471,139.2525 C319.245004,138.721497 319.632,138.006004 319.632,137.106 L319.632,135 C319.632,134.927999 319.596,134.892 319.524,134.892 L316.689,134.892 C315.500994,134.892 314.547003,135.134997 313.827,135.621 C313.106996,136.107002 312.747,136.781995 312.747,137.646 C312.747,138.438004 313.021497,139.036498 313.5705,139.4415 C314.119503,139.846502 314.834995,140.049 315.717,140.049 Z M339.069,127.629 C340.419007,127.629 341.485496,128.033995 342.2685,128.844 C343.051504,129.654004 343.443,130.760993 343.443,132.165 L343.443,141.21 C343.443,141.39 343.353001,141.48 343.173,141.48 L341.823,141.48 C341.642999,141.48 341.553,141.39 341.553,141.21 L341.553,132.543 C341.553,131.552995 341.269503,130.765502 340.7025,130.1805 C340.135497,129.595497 339.393004,129.303 338.475,129.303 C337.520995,129.303 336.751503,129.590997 336.1665,130.167 C335.581497,130.743002 335.289,131.516995 335.289,132.489 L335.289,141.21 C335.289,141.39 335.199001,141.48 335.019,141.48 L333.642,141.48 C333.461999,141.48 333.372,141.39 333.372,141.21 L333.372,132.543 C333.372,131.552995 333.093003,130.765502 332.535,130.1805 C331.976997,129.595497 331.230005,129.303 330.294,129.303 C329.339995,129.303 328.579503,129.590997 328.0125,130.167 C327.445497,130.743002 327.162,131.516995 327.162,132.489 L327.162,141.21 C327.162,141.39 327.072001,141.48 326.892,141.48 L325.515,141.48 C325.334999,141.48 325.245,141.39 325.245,141.21 L325.245,128.088 C325.245,127.907999 325.334999,127.818 325.515,127.818 L326.892,127.818 C327.072001,127.818 327.162,127.907999 327.162,128.088 L327.162,129.168 C327.162,129.204 327.1755,129.226499 327.2025,129.2355 C327.2295,129.2445 327.261,129.231 327.297,129.195 C327.693002,128.672997 328.201497,128.281501 328.8225,128.0205 C329.443503,127.759498 330.131996,127.629 330.888,127.629 C331.824005,127.629 332.624997,127.817998 333.291,128.196 C333.957003,128.574001 334.460998,129.122996 334.803,129.843 C334.839,129.933 334.884,129.933 334.938,129.843 C335.334002,129.104996 335.891996,128.551501 336.612,128.1825 C337.332003,127.813498 338.150995,127.629 339.069,127.629 Z M351.756,141.615 C350.747995,141.615 349.852504,141.453001 349.0695,141.129 C348.286496,140.804998 347.683502,140.373002 347.2605,139.833 C346.837498,139.292997 346.626,138.690003 346.626,138.024 L346.626,137.7 C346.626,137.519999 346.715999,137.43 346.896,137.43 L348.192,137.43 C348.372001,137.43 348.462,137.519999 348.462,137.7 L348.462,137.916 C348.462,138.510003 348.772497,139.027497 349.3935,139.4685 C350.014503,139.909502 350.792995,140.13 351.729,140.13 C352.665005,140.13 353.420997,139.918502 353.997,139.4955 C354.573003,139.072497 354.861,138.537003 354.861,137.889 C354.861,137.438997 354.712501,137.070001 354.4155,136.782 C354.118498,136.493998 353.767502,136.269 353.3625,136.107 C352.957498,135.944999 352.332004,135.738001 351.486,135.486 C350.477995,135.197998 349.650003,134.910001 349.002,134.622 C348.353997,134.333998 347.809502,133.933502 347.3685,133.4205 C346.927498,132.907497 346.707,132.255004 346.707,131.463 C346.707,130.310994 347.156995,129.393003 348.057,128.709 C348.957004,128.024996 350.144992,127.683 351.621,127.683 C352.611005,127.683 353.488496,127.844998 354.2535,128.169 C355.018504,128.493001 355.607998,128.938497 356.022,129.5055 C356.436002,130.072502 356.643,130.706996 356.643,131.409 L356.643,131.49 C356.643,131.67 356.553001,131.76 356.373,131.76 L355.104,131.76 C354.923999,131.76 354.834,131.67 354.834,131.49 L354.834,131.409 C354.834,130.796996 354.541503,130.284002 353.9565,129.87 C353.371497,129.455997 352.584005,129.249 351.594,129.249 C350.675995,129.249 349.938003,129.433498 349.38,129.8025 C348.821997,130.171501 348.543,130.679996 348.543,131.328 C348.543,131.940003 348.812997,132.407998 349.353,132.732 C349.893003,133.056001 350.729994,133.379998 351.864,133.704 C352.908005,134.010001 353.753997,134.297998 354.402,134.568 C355.050003,134.838001 355.607997,135.229497 356.076,135.7425 C356.544002,136.255502 356.778,136.925995 356.778,137.754 C356.778,138.924005 356.319004,139.859996 355.401,140.562 C354.482995,141.264003 353.268007,141.615 351.756,141.615 Z" id="fastanalyticsformodernteams" fill="#067162" fill-rule="nonzero"></path>
            <g id="preset-logo" transform="translate(4.000000, 0.000000)">
                <path d="M66.6915856,0.569430425 L44.9086726,0.569430425 L36.2850305,18.703042 L66.6915856,18.703042 C82.5083781,18.703042 95.3295897,31.2072966 95.3295897,46.6330776 C95.3295897,62.0619114 82.5083781,74.5661661 66.6915856,74.5661661 L54.8188181,74.5661661 L46.1701346,92.6570385 C46.4643714,92.6845136 46.7617383,92.6997776 47.0591053,92.6997776 L66.6915856,92.6997776 C92.775364,92.693672 113.919721,72.0659257 113.913462,46.626972 C113.91033,21.1910711 92.7691036,0.572483222 66.6915856,0.569430425 M66.6915856,37.5723775 L31.5928928,37.5723775 L0,104.205768 L20.380593,104.205768 L43.4593999,55.705989 L66.6915856,55.705989 C71.8250785,55.5655603 75.8723994,51.3893347 75.725281,46.3827483 C75.5875532,41.5745937 71.6216169,37.7067005 66.6915856,37.5723775" id="Fill-1" fill="#2FC096"></path>
                <path d="M355.548077,19.9300649 L356.595264,19.9300649 C356.849805,20.8225599 357.119975,21.9428271 357.238314,22.449504 C357.316462,22.0032565 357.678177,20.8179115 357.955045,19.9300649 L359,19.9300649 L359,23.3466474 L358.31676,23.3466474 L358.283268,22.0636858 L358.283268,20.4297691 C358.126972,21.1270309 357.796516,22.2635675 357.486155,23.3373506 L356.876598,23.3373506 C356.637688,22.4006957 356.296068,21.106113 356.157634,20.4204723 C356.188893,20.8225599 356.197824,21.5082006 356.197824,22.1124942 L356.197824,23.3373506 L355.548077,23.3373506 L355.548077,20.5514717 L354.27317,20.5514717 L354.27317,23.3466474 L353.368215,23.3466474 L353.368215,20.5514717 L352.096154,20.5514717 L352.096154,19.9300649 L355.548077,19.9300649 Z M139.299186,46.9039915 L139.299186,69.1977955 C139.299186,75.369217 143.118823,79.3587307 149.030389,79.3587307 C154.938843,79.3587307 158.75848,75.369217 158.75848,69.1977955 L158.75848,46.9039915 C158.75848,40.735613 154.938843,36.7460993 149.030389,36.7460993 C143.118823,36.7460993 139.299186,40.735613 139.299186,46.9039915 Z M149.008599,29.0409517 C159.530502,29.0409517 166.861591,36.3870127 166.842949,46.9039915 L166.842949,69.1977955 C166.842949,79.3861187 159.6021,87.0669214 150.004755,87.0669214 C146.020129,87.1916888 142.153797,85.7401267 139.277395,83.0408905 L139.277395,105.66335 L139.277395,105.791161 C139.240039,106.837989 138.343498,107.656585 137.275743,107.620068 L133.175936,107.620068 C133.135467,107.62235 133.088772,107.62235 133.042077,107.620068 C131.971209,107.583551 131.136928,106.707136 131.174284,105.66335 L131.174284,46.9039915 C131.174284,36.3870127 138.505373,29.0409517 149.008599,29.0409517 Z M199.302203,29.043974 C199.364745,29.0409517 199.42416,29.0409517 199.483575,29.0409517 C200.55617,29.0772188 201.400486,29.9506521 201.359834,30.9903097 L201.359834,34.7469795 C201.362961,34.7892912 201.362961,34.8346251 201.359834,34.8769367 C201.322309,35.9196166 200.418577,36.735627 199.339728,36.6993598 L194.448946,36.6993598 C188.110316,36.6993598 184.201442,40.4409184 184.201442,46.4642836 L184.201442,82.8976341 C184.201442,82.9399457 184.201442,82.9792351 184.198315,83.0185245 C184.16079,84.0642266 183.257058,84.880237 182.178209,84.8439699 L178.062947,84.8439699 C178.019168,84.8439699 177.975388,84.8439699 177.931609,84.8439699 C176.855887,84.8077027 176.014697,83.9372917 176.049095,82.8976341 L176.049095,46.4642836 C176.049095,36.3669112 183.77303,29.043974 194.414547,29.043974 L199.302203,29.043974 Z M212.920609,45.9665136 L212.920609,54.541688 L222.649038,54.541688 C228.551471,54.541688 232.371242,50.9985054 232.371242,45.5293478 C232.371242,39.5251971 228.551471,35.6518474 222.649038,35.6518474 C216.562933,35.6518474 212.920609,39.5251971 212.920609,45.9665136 Z M222.649038,62.2853304 L212.920609,62.3067301 L212.920609,68.0326843 C212.920609,74.2324896 216.740379,78.2403519 222.649038,78.2403519 C228.283745,78.2403519 232.056819,74.2233183 232.262284,68.0021133 C232.259171,67.9256857 232.259171,67.846201 232.265397,67.7667164 C232.336998,66.7548152 233.23357,65.9905394 234.267119,66.0639099 L238.363955,66.0639099 C238.410651,66.0639099 238.457348,66.0639099 238.507157,66.0639099 C239.578063,66.1005951 240.412373,66.9840979 240.375016,68.0326843 C240.026349,78.7814591 232.897356,85.9839942 222.649038,85.9839942 C211.97734,85.9839942 204.814103,78.7692307 204.814103,68.0326843 L204.814103,45.9665136 C204.814103,35.1596538 211.97734,27.9020908 222.649038,27.9020908 C233.146403,27.9020908 240.483974,35.1504825 240.483974,45.5293478 C240.483974,55.2356504 232.975183,62.2853304 222.649038,62.2853304 Z M265.855143,53.5012449 C273.353482,56.6735639 281.907051,60.2746587 281.907051,71.3078661 C281.907051,80.3214777 274.548375,87.1228551 264.787499,87.1228551 C253.816213,87.1228551 246.708929,80.1692312 246.237179,68.9371713 L246.237179,68.9029935 L246.237179,68.7693895 C246.271319,67.7005572 247.168265,66.8647552 248.232805,66.898933 L252.320269,66.898933 C252.404067,66.895826 252.487864,66.895826 252.574766,66.898933 C253.60827,66.9703956 254.387278,67.868339 254.315895,68.9029935 C254.613842,75.8690456 258.043339,79.2743949 264.787499,79.2743949 C270.529191,79.2743949 273.825232,76.3786052 273.825232,71.3296156 C273.825232,65.7803876 268.567705,63.5401898 262.475304,60.948893 C255.122835,57.82318 246.780312,54.2717984 246.780312,43.7108657 C246.780312,34.6972541 254.005533,27.9020908 263.573985,27.9020908 C274.247324,27.9020908 280.643879,34.1286602 281.131147,44.9971929 L281.131147,45.0935121 C281.112525,46.1623443 280.237305,47.0136817 279.166557,46.9981463 L275.054265,46.9981463 C274.973571,47.0043604 274.889773,47.0043604 274.809079,46.9981463 C273.769367,46.9328978 272.984152,46.0349544 273.049328,44.9971929 C272.723448,39.1341508 269.312573,35.7381227 263.909175,35.7381227 C258.502674,35.7381227 254.868339,38.9321912 254.868339,43.679795 C254.868339,48.8654957 259.964478,51.0124814 265.855143,53.5012449 Z M296.916696,45.9665136 L296.916696,54.541688 L306.64739,54.541688 C312.555533,54.541688 316.378083,50.9985054 316.378083,45.5293478 C316.378083,39.5251971 312.555533,35.6518474 306.64739,35.6518474 C300.561815,35.6518474 296.916696,39.5251971 296.916696,45.9665136 Z M306.64739,62.2853304 L296.916696,62.3067301 L296.916696,68.0326843 C296.916696,74.2324896 300.739246,78.2403519 306.64739,78.2403519 C312.281605,78.2403519 316.05435,74.2233183 316.269135,68.0021133 C316.262909,67.9256857 316.262909,67.846201 316.269135,67.7667164 C316.343842,66.7548152 317.240336,65.9905394 318.270682,66.0639099 L322.36716,66.0639099 C322.41074,66.0639099 322.457432,66.0639099 322.501012,66.0639099 C323.571824,66.1005951 324.409174,66.9840979 324.37182,68.0326843 C324.023184,78.7814591 316.901038,85.9839942 306.64739,85.9839942 C295.976623,85.9839942 288.810897,78.7692307 288.810897,68.0326843 L288.810897,45.9665136 C288.810897,35.1596538 295.976623,27.9020908 306.64739,27.9020908 C317.17808,27.9020908 324.468318,35.1504825 324.480769,45.5293478 C324.480769,55.2356504 316.981972,62.2853304 306.64739,62.2853304 Z M348.956355,78.2188957 C349.047799,78.2127656 349.142292,78.2127656 349.233736,78.2188957 C350.245717,78.2863261 351.013847,79.1721172 350.940692,80.1927692 L350.940692,84.0117854 C350.94374,84.0577607 350.94374,84.106801 350.940692,84.1558413 C350.901066,85.2071435 350.023203,86.0224391 348.98074,85.9825939 L347.551165,85.9825939 C337.425258,85.9825939 331.386901,78.8073797 331.386901,66.7894324 L331.386901,16.2165859 C331.383853,16.1767406 331.383853,16.1368953 331.386901,16.093985 C331.420431,15.0365528 332.298294,14.2059321 333.349901,14.2365823 L337.361247,14.2365823 C337.400873,14.2365823 337.443547,14.2365823 337.483173,14.2365823 C338.53478,14.2733626 339.360824,15.1622187 339.324247,16.2165859 L339.324247,29.5003869 L347.636513,29.5003869 C347.682235,29.5003869 347.724908,29.5003869 347.767582,29.5003869 C348.816141,29.5371671 349.636089,30.4198932 349.599512,31.4742604 L349.599512,35.1768058 C349.60256,35.2197161 349.60256,35.2595613 349.599512,35.3024716 C349.565982,36.3599039 348.688119,37.1905246 347.636513,37.1598744 L339.30291,37.1598744 L339.30291,66.7894324 C339.30291,74.3722943 342.070617,78.2188957 347.529828,78.2188957 L348.956355,78.2188957 Z" id="Combined-Shape" fill="#000000"></path>
            </g>
        </g>
    </g>
</svg>
