<svg xmlns="http://www.w3.org/2000/svg" width="16" height="16" viewBox="0 0 16 16" fill="none"> <path d="M10.7489 9.60187L9.67552 10.0219C8.47552 10.4885 7.54219 11.4485 7.12219 12.6485L6.70885 13.8219C6.62219 14.0619 6.28219 14.0619 6.20219 13.8219L5.78885 12.6485C5.36885 11.4485 4.43552 10.4885 3.23552 10.0219L2.16219 9.60187C1.93552 9.5152 1.93552 9.1952 2.16219 9.10853L3.23552 8.68853C4.43552 8.22187 5.36885 7.26187 5.78885 6.06187L6.20219 4.88854C6.28885 4.64854 6.62885 4.64854 6.70885 4.88854L7.12219 6.06187C7.54219 7.26187 8.47552 8.22187 9.67552 8.68853L10.7489 9.10853C10.9755 9.1952 10.9755 9.5152 10.7489 9.60187ZM13.9222 4.22187L13.3822 4.00853C12.7755 3.7752 12.3022 3.28854 12.0955 2.68187L11.8889 2.08854C11.8489 1.96854 11.6755 1.96854 11.6289 2.08854L11.4222 2.68187C11.2089 3.28854 10.7355 3.7752 10.1355 4.00853L9.59552 4.22187C9.48219 4.26854 9.48219 4.42853 9.59552 4.46853L10.1355 4.68187C10.7422 4.9152 11.2155 5.40187 11.4222 6.00853L11.6289 6.60187C11.6689 6.72187 11.8422 6.72187 11.8889 6.60187L12.0955 6.00853C12.3089 5.40187 12.7822 4.9152 13.3822 4.68187L13.9222 4.46853C14.0355 4.42187 14.0355 4.26187 13.9222 4.22187Z" fill="url(#paint0_linear_8553_71512)"/> <defs> <linearGradient id="paint0_linear_8553_71512" x1="-0.124091" y1="8.0002" x2="16.0939" y2="7.30833" gradientUnits="userSpaceOnUse"> <stop stop-color="#1ECCB0"/> <stop offset="1" stop-color="#3535F3"/> </linearGradient> </defs> </svg>