<!--
Licensed to the Apache Software Foundation (ASF) under one
or more contributor license agreements.  See the NOTICE file
distributed with this work for additional information
regarding copyright ownership.  The ASF licenses this file
to you under the Apache License, Version 2.0 (the
"License"); you may not use this file except in compliance
with the License.  You may obtain a copy of the License at

  http://www.apache.org/licenses/LICENSE-2.0

Unless required by applicable law or agreed to in writing,
software distributed under the License is distributed on an
"AS IS" BASIS, WITHOUT WARRANTIES OR CONDITIONS OF ANY
KIND, either express or implied.  See the License for the
specific language governing permissions and limitations
under the License.
-->
<svg width="24" height="24" viewBox="0 0 24 24" fill="none" xmlns="http://www.w3.org/2000/svg">
<path fill-rule="evenodd" clip-rule="evenodd" d="M17.345929226875306,14.745929226875305 L13.320909226875305,7.7459292268753055 C13.055999226875306,7.270969226875306 12.554749226875305,6.9766122268753055 12.010909226875306,6.9766122268753055 C11.467069226875305,6.9766122268753055 10.965829226875307,7.270969226875306 10.700909226875304,7.7459292268753055 L6.700913226875306,14.745929226875305 C6.426938226875307,15.207989226875306 6.420966226875306,15.781289226875305 6.685256226875307,16.248929226875305 C6.949546226875305,16.716629226875305 7.443749226875305,17.007229226875303 7.980909226875305,17.010929226875305 H16.040929226875306 C16.582529226875305,17.016229226875307 17.085029226875307,16.729129226875305 17.355429226875305,16.259829226875304 C17.625829226875304,15.790499226875305 17.622229226875305,15.211839226875306 17.345929226875306,14.745929226875305 z" fill="currentColor" />
<path fill-rule="evenodd" clip-rule="evenodd" d="M11.510929226875305,10.510929226875305 C11.510929226875305,10.234789226875305 11.734789226875307,10.010929226875307 12.010929226875305,10.010929226875307 C12.287069226875303,10.010929226875307 12.510929226875305,10.234789226875305 12.510929226875305,10.510929226875305 V12.510929226875305 C12.510929226875305,12.787069226875305 12.287069226875303,13.010929226875307 12.010929226875305,13.010929226875307 C11.734789226875307,13.010929226875307 11.510929226875305,12.787069226875305 11.510929226875305,12.510929226875305 V10.510929226875305 zM11.510929226875305,14.510929226875305 C11.510929226875305,14.234789226875305 11.734789226875307,14.010929226875307 12.010929226875305,14.010929226875307 C12.287069226875303,14.010929226875307 12.510929226875305,14.234789226875305 12.510929226875305,14.510929226875305 C12.510929226875305,14.787069226875305 12.287069226875303,15.010929226875307 12.010929226875305,15.010929226875307 C11.734789226875307,15.010929226875307 11.510929226875305,14.787069226875305 11.510929226875305,14.510929226875305 z" fill="white" />
</svg>
