<!--
Licensed to the Apache Software Foundation (ASF) under one
or more contributor license agreements.  See the NOTICE file
distributed with this work for additional information
regarding copyright ownership.  The ASF licenses this file
to you under the Apache License, Version 2.0 (the
"License"); you may not use this file except in compliance
with the License.  You may obtain a copy of the License at

  http://www.apache.org/licenses/LICENSE-2.0

Unless required by applicable law or agreed to in writing,
software distributed under the License is distributed on an
"AS IS" BASIS, WITHOUT WARRANTIES OR CONDITIONS OF ANY
KIND, either express or implied.  See the License for the
specific language governing permissions and limitations
under the License.
-->
<svg width="24" height="24" viewBox="0 0 24 24" fill="none" xmlns="http://www.w3.org/2000/svg">
<path fill-rule="evenodd" clip-rule="evenodd" d="M15.9453 10.7906C15.8605 10.6229 15.6884 10.5168 15.4999 10.5163H12.9979V7.52377C13.0089 7.2989 12.8675 7.09454 12.6526 7.02502C12.4465 6.95743 12.2202 7.02994 12.0922 7.20457L8.0889 12.6908C7.9868 12.8379 7.97153 13.0282 8.04887 13.1896C8.12037 13.3748 8.29528 13.5002 8.49423 13.5088H10.9963V16.5012C10.9964 16.717 11.1358 16.9082 11.3416 16.9751C11.3918 16.9906 11.4441 16.999 11.4967 17C11.6568 17.0004 11.8075 16.9244 11.902 16.7955L15.9053 11.3093C16.0152 11.1576 16.0307 10.9573 15.9453 10.7906ZM11.9963 14.9698L11.9963 13.5088V12.5088H9.45937L11.9985 9.02933L11.9979 10.5163V11.5163H14.5163L11.9963 14.9698Z" fill="currentColor"/>
</svg>
