<!--
  Licensed to the Apache Software Foundation (ASF) under one
  or more contributor license agreements.  See the NOTICE file
  distributed with this work for additional information
  regarding copyright ownership.  The ASF licenses this file
  to you under the Apache License, Version 2.0 (the
  "License"); you may not use this file except in compliance
  with the License.  You may obtain a copy of the License at

    http://www.apache.org/licenses/LICENSE-2.0

  Unless required by applicable law or agreed to in writing,
  software distributed under the License is distributed on an
  "AS IS" BASIS, WITHOUT WARRANTIES OR CONDITIONS OF ANY
  KIND, either express or implied.  See the License for the
  specific language governing permissions and limitations
  under the License.
-->
<svg width="24px" height="24px" viewBox="0 0 24 24" version="1.1" xmlns="http://www.w3.org/2000/svg" xmlns:xlink="http://www.w3.org/1999/xlink">
    <g id="Icon-/-X-Small" stroke="none" stroke-width="1" fill="none" fill-rule="evenodd">
        <polygon id="Shape" points="0 0 24 0 24 24 0 24"></polygon>
        <path d="M15.71,8.29 C15.5222334,8.10068735 15.2666375,7.99420168 15,7.99420168 C14.7333625,7.99420168 14.4777666,8.10068735 14.29,8.29 L12,10.59 L9.71,8.29 C9.31787782,7.89787785 8.68212219,7.89787787 8.29000003,8.29000003 C7.89787787,8.68212219 7.89787785,9.31787782 8.29,9.71 L10.59,12 L8.29,14.29 C8.10068735,14.4777666 7.99420168,14.7333625 7.99420168,15 C7.99420168,15.2666375 8.10068735,15.5222334 8.29,15.71 C8.4777666,15.8993127 8.73336246,16.0057983 9,16.0057983 C9.26663754,16.0057983 9.5222334,15.8993127 9.71,15.71 L12,13.41 L14.29,15.71 C14.4777666,15.8993127 14.7333625,16.0057983 15,16.0057983 C15.2666375,16.0057983 15.5222334,15.8993127 15.71,15.71 C15.8993127,15.5222334 16.0057983,15.2666375 16.0057983,15 C16.0057983,14.7333625 15.8993127,14.4777666 15.71,14.29 L13.41,12 L15.71,9.71 C15.8993127,9.5222334 16.0057983,9.26663754 16.0057983,9 C16.0057983,8.73336246 15.8993127,8.4777666 15.71,8.29 Z" id="Path" fill="currentColor"></path>
    </g>
</svg>
