<!--
  Licensed to the Apache Software Foundation (ASF) under one
  or more contributor license agreements.  See the NOTICE file
  distributed with this work for additional information
  regarding copyright ownership.  The ASF licenses this file
  to you under the Apache License, Version 2.0 (the
  "License"); you may not use this file except in compliance
  with the License.  You may obtain a copy of the License at

    http://www.apache.org/licenses/LICENSE-2.0

  Unless required by applicable law or agreed to in writing,
  software distributed under the License is distributed on an
  "AS IS" BASIS, WITHOUT WARRANTIES OR CONDITIONS OF ANY
  KIND, either express or implied.  See the License for the
  specific language governing permissions and limitations
  under the License.
-->
<svg width="24" height="24" viewBox="0 0 24 24" fill="none" xmlns="http://www.w3.org/2000/svg">
<path fill-rule="evenodd" clip-rule="evenodd" d="M3.5 4C3.22386 4 3 4.22386 3 4.5V7.5C3 7.77614 3.22386 8 3.5 8H10.5C10.7761 8 11 7.77614 11 7.5V4.5C11 4.22386 10.7761 4 10.5 4H3.5ZM13.5 4C13.2239 4 13 4.22386 13 4.5V7.5C13 7.77614 13.2239 8 13.5 8H20.5C20.7761 8 21 7.77614 21 7.5V4.5C21 4.22386 20.7761 4 20.5 4H13.5ZM3 10.5C3 10.2239 3.22386 10 3.5 10H10.5C10.7761 10 11 10.2239 11 10.5V13.5C11 13.7761 10.7761 14 10.5 14H3.5C3.22386 14 3 13.7761 3 13.5V10.5ZM3.5 16C3.22386 16 3 16.2239 3 16.5V19.5C3 19.7761 3.22386 20 3.5 20H10.5C10.7761 20 11 19.7761 11 19.5V16.5C11 16.2239 10.7761 16 10.5 16H3.5ZM13 10.5C13 10.2239 13.2239 10 13.5 10H20.5C20.7761 10 21 10.2239 21 10.5V13.5C21 13.7761 20.7761 14 20.5 14H13.5C13.2239 14 13 13.7761 13 13.5V10.5ZM13.5 16C13.2239 16 13 16.2239 13 16.5V19.5C13 19.7761 13.2239 20 13.5 20H20.5C20.7761 20 21 19.7761 21 19.5V16.5C21 16.2239 20.7761 16 20.5 16H13.5Z" fill="currentColor"/>
</svg>
