<!--
Licensed to the Apache Software Foundation (ASF) under one
or more contributor license agreements.  See the NOTICE file
distributed with this work for additional information
regarding copyright ownership.  The ASF licenses this file
to you under the Apache License, Version 2.0 (the
"License"); you may not use this file except in compliance
with the License.  You may obtain a copy of the License at

  http://www.apache.org/licenses/LICENSE-2.0

Unless required by applicable law or agreed to in writing,
software distributed under the License is distributed on an
"AS IS" BASIS, WITHOUT WARRANTIES OR CONDITIONS OF ANY
KIND, either express or implied.  See the License for the
specific language governing permissions and limitations
under the License.
-->
<svg width="24" height="24" viewBox="0 0 24 24" fill="none" xmlns="http://www.w3.org/2000/svg">
<path fill-rule="evenodd" clip-rule="evenodd" d="M9 11.001H4C2.896 11.001 2 10.104 2 9.00098V4.00098C2 2.89898 2.896 2.00098 4 2.00098H9C10.104 2.00098 11 2.89898 11 4.00098V9.00098C11 10.104 10.104 11.001 9 11.001ZM4 4.00098V9.00098H8.997L9 4.00098H4ZM20 11.001H15C13.896 11.001 13 10.104 13 9.00098V4.00098C13 2.89898 13.896 2.00098 15 2.00098H20C21.104 2.00098 22 2.89898 22 4.00098V9.00098C22 10.104 21.104 11.001 20 11.001ZM15 4.00098V9.00098H19.997L20 4.00098H15ZM4 22.001H9C10.104 22.001 11 21.104 11 20.001V15.001C11 13.899 10.104 13.001 9 13.001H4C2.896 13.001 2 13.899 2 15.001V20.001C2 21.104 2.896 22.001 4 22.001ZM4 20.001V15.001H9L8.997 20.001H4ZM20 22.001H15C13.896 22.001 13 21.104 13 20.001V15.001C13 13.899 13.896 13.001 15 13.001H20C21.104 13.001 22 13.899 22 15.001V20.001C22 21.104 21.104 22.001 20 22.001ZM15 15.001V20.001H19.997L20 15.001H15Z" fill="currentColor"/>
</svg>
