<!--
Licensed to the Apache Software Foundation (ASF) under one
or more contributor license agreements.  See the NOTICE file
distributed with this work for additional information
regarding copyright ownership.  The ASF licenses this file
to you under the Apache License, Version 2.0 (the
"License"); you may not use this file except in compliance
with the License.  You may obtain a copy of the License at

  http://www.apache.org/licenses/LICENSE-2.0

Unless required by applicable law or agreed to in writing,
software distributed under the License is distributed on an
"AS IS" BASIS, WITHOUT WARRANTIES OR CONDITIONS OF ANY
KIND, either express or implied.  See the License for the
specific language governing permissions and limitations
under the License.
-->
<svg width="24" height="24" viewBox="0 0 24 24" fill="none" xmlns="http://www.w3.org/2000/svg">
<path fill-rule="evenodd" clip-rule="evenodd" d="M9.1703 11.29L13.4103 7.05001C13.5981 6.8607 13.8537 6.75421 14.1203 6.75421C14.3869 6.75421 14.6425 6.8607 14.8303 7.05001C15.218 7.44005 15.218 8.06997 14.8303 8.46001L11.2903 12L14.8303 15.54C15.218 15.93 15.218 16.56 14.8303 16.95C14.6416 17.1372 14.3861 17.2415 14.1203 17.24C13.8545 17.2415 13.599 17.1372 13.4103 16.95L9.1703 12.71C8.98099 12.5222 8.8745 12.2666 8.8745 12C8.8745 11.7334 8.98099 11.4778 9.1703 11.29Z" fill="currentColor"/>
</svg>
