<!--
Licensed to the Apache Software Foundation (ASF) under one
or more contributor license agreements.  See the NOTICE file
distributed with this work for additional information
regarding copyright ownership.  The ASF licenses this file
to you under the Apache License, Version 2.0 (the
"License"); you may not use this file except in compliance
with the License.  You may obtain a copy of the License at

  http://www.apache.org/licenses/LICENSE-2.0

Unless required by applicable law or agreed to in writing,
software distributed under the License is distributed on an
"AS IS" BASIS, WITHOUT WARRANTIES OR CONDITIONS OF ANY
KIND, either express or implied.  See the License for the
specific language governing permissions and limitations
under the License.
-->

<svg width="24" height="24" viewBox="0 0 24 24" fill="none" xmlns="http://www.w3.org/2000/svg">
<path d="M10.9262 2.3999L5.71569 11.0062H16.1367L10.9262 2.3999ZM10.9262 6.0719L12.7546 9.09365H9.08832L10.9262 6.0719ZM16.1367 12.9187C13.7778 12.9187 11.8736 14.8407 11.8736 17.2218C11.8736 19.6028 13.7778 21.5249 16.1367 21.5249C18.4957 21.5249 20.3999 19.6028 20.3999 17.2218C20.3999 14.8407 18.4957 12.9187 16.1367 12.9187ZM16.1367 19.6124C14.8294 19.6124 13.7683 18.5414 13.7683 17.2218C13.7683 15.9022 14.8294 14.8312 16.1367 14.8312C17.4441 14.8312 18.5052 15.9022 18.5052 17.2218C18.5052 18.5414 17.4441 19.6124 16.1367 19.6124ZM2.3999 21.0468H9.97885V13.3968H2.3999V21.0468ZM4.29464 15.3093H8.08411V19.1343H4.29464V15.3093Z" fill="currentColor" fill-opacity="0.85"/>
</svg>
