<!--
  Licensed to the Apache Software Foundation (ASF) under one
  or more contributor license agreements.  See the NOTICE file
  distributed with this work for additional information
  regarding copyright ownership.  The ASF licenses this file
  to you under the Apache License, Version 2.0 (the
  "License"); you may not use this file except in compliance
  with the License.  You may obtain a copy of the License at

    http://www.apache.org/licenses/LICENSE-2.0

  Unless required by applicable law or agreed to in writing,
  software distributed under the License is distributed on an
  "AS IS" BASIS, WITHOUT WARRANTIES OR CONDITIONS OF ANY
  KIND, either express or implied.  See the License for the
  specific language governing permissions and limitations
  under the License.
-->
<svg width="24" height="25" viewBox="0 0 24 25" fill="none" xmlns="http://www.w3.org/2000/svg">
<path fill-rule="evenodd" clip-rule="evenodd" d="M6 4.5C4.89543 4.5 4 5.39543 4 6.5V18.5C4 19.6046 4.89543 20.5 6 20.5H18C19.1046 20.5 20 19.6046 20 18.5V6.5C20 5.39543 19.1046 4.5 18 4.5H6ZM7 6.5C6.44772 6.5 6 6.94772 6 7.5V17.5C6 18.0523 6.44772 18.5 7 18.5H17C17.5523 18.5 18 18.0523 18 17.5V7.5C18 6.94772 17.5523 6.5 17 6.5H7Z" fill="currentColor"/>
</svg>
