<!--
  Licensed to the Apache Software Foundation (ASF) under one
  or more contributor license agreements.  See the NOTICE file
  distributed with this work for additional information
  regarding copyright ownership.  The ASF licenses this file
  to you under the Apache License, Version 2.0 (the
  "License"); you may not use this file except in compliance
  with the License.  You may obtain a copy of the License at

    http://www.apache.org/licenses/LICENSE-2.0

  Unless required by applicable law or agreed to in writing,
  software distributed under the License is distributed on an
  "AS IS" BASIS, WITHOUT WARRANTIES OR CONDITIONS OF ANY
  KIND, either express or implied.  See the License for the
  specific language governing permissions and limitations
  under the License.
-->
<svg width="24" height="24" viewBox="0 0 24 24" fill="none" xmlns="http://www.w3.org/2000/svg">
<path fill-rule="evenodd" clip-rule="evenodd" d="M14.72 8.79L10.43 13.09L8.78 11.44C8.53561 11.1546 8.15188 11.0303 7.78658 11.1182C7.42128 11.2061 7.13606 11.4913 7.04819 11.8566C6.96032 12.2219 7.08462 12.6056 7.37 12.85L9.72 15.21C9.90872 15.3972 10.1642 15.5015 10.43 15.5C10.6923 15.4989 10.9437 15.3947 11.13 15.21L16.13 10.21C16.3193 10.0222 16.4258 9.76664 16.4258 9.5C16.4258 9.23336 16.3193 8.97777 16.13 8.79C15.74 8.40228 15.11 8.40228 14.72 8.79ZM12 2C6.47715 2 2 6.47715 2 12C2 17.5228 6.47715 22 12 22C17.5228 22 22 17.5228 22 12C22 9.34784 20.9464 6.8043 19.0711 4.92893C17.1957 3.05357 14.6522 2 12 2ZM12 20C7.58172 20 4 16.4183 4 12C4 7.58172 7.58172 4 12 4C16.4183 4 20 7.58172 20 12C20 14.1217 19.1571 16.1566 17.6569 17.6569C16.1566 19.1571 14.1217 20 12 20Z" fill="currentColor"/>
</svg>
