<!--
Licensed to the Apache Software Foundation (ASF) under one
or more contributor license agreements.  See the NOTICE file
distributed with this work for additional information
regarding copyright ownership.  The ASF licenses this file
to you under the Apache License, Version 2.0 (the
"License"); you may not use this file except in compliance
with the License.  You may obtain a copy of the License at

  http://www.apache.org/licenses/LICENSE-2.0

Unless required by applicable law or agreed to in writing,
software distributed under the License is distributed on an
"AS IS" BASIS, WITHOUT WARRANTIES OR CONDITIONS OF ANY
KIND, either express or implied.  See the License for the
specific language governing permissions and limitations
under the License.
-->
<svg width="24" height="24" viewBox="0 0 24 24" fill="none" xmlns="http://www.w3.org/2000/svg">
<path fill-rule="evenodd" clip-rule="evenodd" d="M12 2C6.47715 2 2 6.47715 2 12C2 17.5228 6.47715 22 12 22C17.5228 22 22 17.5228 22 12C22 9.34784 20.9464 6.8043 19.0711 4.92893C17.1957 3.05357 14.6522 2 12 2ZM12 20C7.58172 20 4 16.4183 4 12C4 7.58172 7.58172 4 12 4C16.4183 4 20 7.58172 20 12C20 14.1217 19.1571 16.1566 17.6569 17.6569C16.1566 19.1571 14.1217 20 12 20ZM12 6C11.4477 6 11 6.44772 11 7V11.42L8.9 12.63C8.50379 12.8545 8.30931 13.3184 8.42695 13.7583C8.54458 14.1983 8.94461 14.5032 9.4 14.5C9.57518 14.5012 9.7476 14.4564 9.9 14.37L12.5 12.87L12.59 12.78L12.75 12.65C12.7891 12.6005 12.8226 12.5468 12.85 12.49C12.8826 12.4363 12.9094 12.3793 12.93 12.32C12.9572 12.2564 12.9741 12.1889 12.98 12.12L13 12V7C13 6.44772 12.5523 6 12 6Z" fill="currentColor"/>
</svg>
