<!--
  Licensed to the Apache Software Foundation (ASF) under one
  or more contributor license agreements.  See the NOTICE file
  distributed with this work for additional information
  regarding copyright ownership.  The ASF licenses this file
  to you under the Apache License, Version 2.0 (the
  "License"); you may not use this file except in compliance
  with the License.  You may obtain a copy of the License at

    http://www.apache.org/licenses/LICENSE-2.0

  Unless required by applicable law or agreed to in writing,
  software distributed under the License is distributed on an
  "AS IS" BASIS, WITHOUT WARRANTIES OR CONDITIONS OF ANY
  KIND, either express or implied.  See the License for the
  specific language governing permissions and limitations
  under the License.
-->
<svg width="24" height="24" viewBox="0 0 24 24" fill="none" xmlns="http://www.w3.org/2000/svg">
<path fill-rule="evenodd" clip-rule="evenodd" d="M3 5C2.44772 5 2 5.44772 2 6V10C2 10.5523 2.44772 11 3 11H21C21.5523 11 22 10.5523 22 10V6C22 5.44772 21.5523 5 21 5H3ZM3 13C2.44772 13 2 13.4477 2 14V18C2 18.5523 2.44772 19 3 19H21C21.5523 19 22 18.5523 22 18V14C22 13.4477 21.5523 13 21 13H3Z" fill="currentColor"/>
</svg>
