<!--
Licensed to the Apache Software Foundation (ASF) under one
or more contributor license agreements.  See the NOTICE file
distributed with this work for additional information
regarding copyright ownership.  The ASF licenses this file
to you under the Apache License, Version 2.0 (the
"License"); you may not use this file except in compliance
with the License.  You may obtain a copy of the License at

  http://www.apache.org/licenses/LICENSE-2.0

Unless required by applicable law or agreed to in writing,
software distributed under the License is distributed on an
"AS IS" BASIS, WITHOUT WARRANTIES OR CONDITIONS OF ANY
KIND, either express or implied.  See the License for the
specific language governing permissions and limitations
under the License.
-->
<svg width="24" height="24" viewBox="0 0 24 24" fill="none" xmlns="http://www.w3.org/2000/svg">
<path fill-rule="evenodd" clip-rule="evenodd" d="M8.66602 12.0002C8.66602 12.7365 9.26297 13.3335 9.99935 13.3335C10.7357 13.3335 11.3327 12.7365 11.3327 12.0002C11.3327 11.2638 10.7357 10.6668 9.99935 10.6668C9.26297 10.6668 8.66602 11.2638 8.66602 12.0002ZM8.66602 16.6667C8.66602 17.403 9.26297 18 9.99935 18C10.7357 18 11.3327 17.403 11.3327 16.6667C11.3327 15.9303 10.7357 15.3333 9.99935 15.3333C9.26297 15.3333 8.66602 15.9303 8.66602 16.6667ZM8.66602 7.33317C8.66602 8.06955 9.26297 8.6665 9.99935 8.6665C10.7357 8.6665 11.3327 8.06955 11.3327 7.33317C11.3327 6.59679 10.7357 5.99984 9.99935 5.99984C9.26297 5.99984 8.66602 6.59679 8.66602 7.33317Z" fill="#B2B2B2"/>
<path fill-rule="evenodd" clip-rule="evenodd" d="M12.666 12.0002C12.666 12.7365 13.263 13.3335 13.9993 13.3335C14.7357 13.3335 15.3327 12.7365 15.3327 12.0002C15.3327 11.2638 14.7357 10.6668 13.9993 10.6668C13.263 10.6668 12.666 11.2638 12.666 12.0002ZM12.666 16.6667C12.666 17.403 13.263 18 13.9993 18C14.7357 18 15.3327 17.403 15.3327 16.6667C15.3327 15.9303 14.7357 15.3333 13.9993 15.3333C13.263 15.3333 12.666 15.9303 12.666 16.6667ZM12.666 7.33317C12.666 8.06955 13.263 8.6665 13.9993 8.6665C14.7357 8.6665 15.3327 8.06955 15.3327 7.33317C15.3327 6.59679 14.7357 5.99984 13.9993 5.99984C13.263 5.99984 12.666 6.59679 12.666 7.33317Z" fill="#B2B2B2"/>
</svg>
