<!--
Licensed to the Apache Software Foundation (ASF) under one
or more contributor license agreements.  See the NOTICE file
distributed with this work for additional information
regarding copyright ownership.  The ASF licenses this file
to you under the Apache License, Version 2.0 (the
"License"); you may not use this file except in compliance
with the License.  You may obtain a copy of the License at

  http://www.apache.org/licenses/LICENSE-2.0

Unless required by applicable law or agreed to in writing,
software distributed under the License is distributed on an
"AS IS" BASIS, WITHOUT WARRANTIES OR CONDITIONS OF ANY
KIND, either express or implied.  See the License for the
specific language governing permissions and limitations
under the License.
-->
<svg width="24" height="24" viewBox="0 0 24 24" fill="none" xmlns="http://www.w3.org/2000/svg">
<path fill-rule="evenodd" clip-rule="evenodd" d="M8.66602 8C8.66602 8.73638 9.26297 9.33333 9.99935 9.33333C10.7357 9.33333 11.3327 8.73638 11.3327 8C11.3327 7.26362 10.7357 6.66667 9.99935 6.66667C9.26297 6.66667 8.66602 7.26362 8.66602 8ZM8.66602 14C8.66602 14.7364 9.26297 15.3333 9.99935 15.3333C10.7357 15.3333 11.3327 14.7364 11.3327 14C11.3327 13.2636 10.7357 12.6667 9.99935 12.6667C9.26297 12.6667 8.66602 13.2636 8.66602 14ZM8.66602 2C8.66602 2.73638 9.26297 3.33333 9.99935 3.33333C10.7357 3.33333 11.3327 2.73638 11.3327 2C11.3327 1.26362 10.7357 0.666667 9.99935 0.666667C9.26297 0.666667 8.66602 1.26362 8.66602 2Z" fill="#B2B2B2"/>
<path fill-rule="evenodd" clip-rule="evenodd" d="M12.666 8C12.666 8.73638 13.263 9.33333 13.9993 9.33333C14.7357 9.33333 15.3327 8.73638 15.3327 8C15.3327 7.26362 14.7357 6.66667 13.9993 6.66667C13.263 6.66667 12.666 7.26362 12.666 8ZM12.666 14C12.666 14.7364 13.263 15.3333 13.9993 15.3333C14.7357 15.3333 15.3327 14.7364 15.3327 14C15.3327 13.2636 14.7357 12.6667 13.9993 12.6667C13.263 12.6667 12.666 13.2636 12.666 14ZM12.666 2C12.666 2.73638 13.263 3.33333 13.9993 3.33333C14.7357 3.33333 15.3327 2.73638 15.3327 2C15.3327 1.26362 14.7357 0.666667 13.9993 0.666667C13.263 0.666667 12.666 1.26362 12.666 2Z" fill="#B2B2B2"/>
</svg>
