<!--
  Licensed to the Apache Software Foundation (ASF) under one
  or more contributor license agreements.  See the NOTICE file
  distributed with this work for additional information
  regarding copyright ownership.  The ASF licenses this file
  to you under the Apache License, Version 2.0 (the
  "License"); you may not use this file except in compliance
  with the License.  You may obtain a copy of the License at

    http://www.apache.org/licenses/LICENSE-2.0

  Unless required by applicable law or agreed to in writing,
  software distributed under the License is distributed on an
  "AS IS" BASIS, WITHOUT WARRANTIES OR CONDITIONS OF ANY
  KIND, either express or implied.  See the License for the
  specific language governing permissions and limitations
  under the License.
-->
<svg xmlns="http://www.w3.org/2000/svg" xmlns:xlink="http://www.w3.org/1999/xlink" width="24px" height="24px" viewBox="0 0 24 24" version="1.1">
<path stroke="currentColor" style="fill:none;stroke-width:1.5;stroke-linecap:round;stroke-linejoin:round;stroke-opacity:1;stroke-miterlimit:4;" d="M 6.666667 3.333333 L 5 3.333333 C 4.078776 3.333333 3.333333 4.078776 3.333333 5 L 3.333333 15 C 3.333333 15.921224 4.078776 16.666667 5 16.666667 L 6.666667 16.666667 C 7.587891 16.666667 8.333333 15.921224 8.333333 15 L 8.333333 5 C 8.333333 4.078776 7.587891 3.333333 6.666667 3.333333 Z M 6.666667 3.333333 M 15 3.333333 L 13.333333 3.333333 C 12.412109 3.333333 11.666667 4.078776 11.666667 5 L 11.666667 10 C 11.666667 10.921224 12.412109 11.666667 13.333333 11.666667 L 15 11.666667 C 15.921224 11.666667 16.666667 10.921224 16.666667 10 L 16.666667 5 C 16.666667 4.078776 15.921224 3.333333 15 3.333333 Z M 15 3.333333" transform="matrix(1.2,0,0,1.2,0,0)"/>
</svg>
