<!--
  Licensed to the Apache Software Foundation (ASF) under one
  or more contributor license agreements.  See the NOTICE file
  distributed with this work for additional information
  regarding copyright ownership.  The ASF licenses this file
  to you under the Apache License, Version 2.0 (the
  "License"); you may not use this file except in compliance
  with the License.  You may obtain a copy of the License at

    http://www.apache.org/licenses/LICENSE-2.0

  Unless required by applicable law or agreed to in writing,
  software distributed under the License is distributed on an
  "AS IS" BASIS, WITHOUT WARRANTIES OR CONDITIONS OF ANY
  KIND, either express or implied.  See the License for the
  specific language governing permissions and limitations
  under the License.
-->
<svg xmlns="http://www.w3.org/2000/svg" xmlns:xlink="http://www.w3.org/1999/xlink" width="24px" height="24px" viewBox="0 0 24 24" version="1.1">
<path stroke="currentColor" style="fill:none;stroke-width:1.5;stroke-linecap:round;stroke-linejoin:round;stroke-opacity:1;stroke-miterlimit:4;" d="M 17 11 L 7 11 C 5.894531 11 5 11.894531 5 13 L 5 19 C 5 20.105469 5.894531 21 7 21 L 17 21 C 18.105469 21 19 20.105469 19 19 L 19 13 C 19 11.894531 18.105469 11 17 11 Z M 17 11 M 12 17 C 12.550781 17 13 16.550781 13 16 C 13 15.449219 12.550781 15 12 15 C 11.449219 15 11 15.449219 11 16 C 11 16.550781 11.449219 17 12 17 Z M 12 17 M 8 11 L 8 7 C 8 5.9375 8.421875 4.921875 9.171875 4.171875 C 9.921875 3.421875 10.9375 3 12 3 C 13.0625 3 14.078125 3.421875 14.828125 4.171875 C 15.578125 4.921875 16 5.9375 16 7 L 16 11 "/>
</svg>
