<!--
  Licensed to the Apache Software Foundation (ASF) under one
  or more contributor license agreements.  See the NOTICE file
  distributed with this work for additional information
  regarding copyright ownership.  The ASF licenses this file
  to you under the Apache License, Version 2.0 (the
  "License"); you may not use this file except in compliance
  with the License.  You may obtain a copy of the License at

    http://www.apache.org/licenses/LICENSE-2.0

  Unless required by applicable law or agreed to in writing,
  software distributed under the License is distributed on an
  "AS IS" BASIS, WITHOUT WARRANTIES OR CONDITIONS OF ANY
  KIND, either express or implied.  See the License for the
  specific language governing permissions and limitations
  under the License.
-->
<svg xmlns="http://www.w3.org/2000/svg" xmlns:xlink="http://www.w3.org/1999/xlink" width="24px" height="24px" viewBox="0 0 24 24" version="1.1">
<path stroke= "currentColor" style="fill:none;stroke-width:1.5;stroke-linecap:round;stroke-linejoin:round;stroke-opacity:1;stroke-miterlimit:4;" d="M 19.25 14.666667 L 19.25 7.333333 C 19.25 7.011068 19.164062 6.695964 19.00293 6.416667 C 18.841797 6.140951 18.61263 5.908203 18.333333 5.74707 L 11.916667 2.080404 C 11.63737 1.919271 11.322266 1.836914 11 1.836914 C 10.677734 1.836914 10.36263 1.919271 10.083333 2.080404 L 3.666667 5.74707 C 3.38737 5.908203 3.158203 6.140951 2.99707 6.416667 C 2.835938 6.695964 2.75 7.011068 2.75 7.333333 L 2.75 14.666667 C 2.75 14.988932 2.835938 15.304036 2.99707 15.583333 C 3.158203 15.859049 3.38737 16.091797 3.666667 16.25293 L 10.083333 19.919596 C 10.36263 20.080729 10.677734 20.163086 11 20.163086 C 11.322266 20.163086 11.63737 20.080729 11.916667 19.919596 L 18.333333 16.25293 C 18.61263 16.091797 18.841797 15.859049 19.00293 15.583333 C 19.164062 15.304036 19.25 14.988932 19.25 14.666667 Z M 19.25 14.666667 M 2.99707 6.380859 L 11 11.010742 L 19.00293 6.380859 M 11 20.238281 L 11 11 " transform="matrix(1.090909,0,0,1.090909,0,0)"/>
</svg>
