<!--
  Licensed to the Apache Software Foundation (ASF) under one
  or more contributor license agreements.  See the NOTICE file
  distributed with this work for additional information
  regarding copyright ownership.  The ASF licenses this file
  to you under the Apache License, Version 2.0 (the
  "License"); you may not use this file except in compliance
  with the License.  You may obtain a copy of the License at

    http://www.apache.org/licenses/LICENSE-2.0

  Unless required by applicable law or agreed to in writing,
  software distributed under the License is distributed on an
  "AS IS" BASIS, WITHOUT WARRANTIES OR CONDITIONS OF ANY
  KIND, either express or implied.  See the License for the
  specific language governing permissions and limitations
  under the License.
-->
<svg xmlns="http://www.w3.org/2000/svg" xmlns:xlink="http://www.w3.org/1999/xlink" width="24px" height="24px" viewBox="0 0 24 24" version="1.1">
<path stroke="currentColor" style="fill:none;stroke-width:1.5;stroke-linecap:round;stroke-linejoin:round;stroke-opacity:1;stroke-miterlimit:4;" d="M 4.019531 5.96875 C 2.75 7.648438 2 9.738281 2 12 C 2 17.519531 6.480469 22 12 22 C 17.519531 22 22 17.519531 22 12 C 22 6.480469 17.519531 2 12 2 M 5 12 C 5 15.871094 8.128906 19 12 19 C 15.871094 19 19 15.871094 19 12 C 19 8.128906 15.871094 5 12 5 M 12 16 C 14.210938 16 16 14.210938 16 12 C 16 9.789062 14.210938 8 12 8 "/>
</svg>
