<!--
  Licensed to the Apache Software Foundation (ASF) under one
  or more contributor license agreements.  See the NOTICE file
  distributed with this work for additional information
  regarding copyright ownership.  The ASF licenses this file
  to you under the Apache License, Version 2.0 (the
  "License"); you may not use this file except in compliance
  with the License.  You may obtain a copy of the License at

    http://www.apache.org/licenses/LICENSE-2.0

  Unless required by applicable law or agreed to in writing,
  software distributed under the License is distributed on an
  "AS IS" BASIS, WITHOUT WARRANTIES OR CONDITIONS OF ANY
  KIND, either express or implied.  See the License for the
  specific language governing permissions and limitations
  under the License.
-->
<svg xmlns="http://www.w3.org/2000/svg" xmlns:xlink="http://www.w3.org/1999/xlink" width="24px" height="24px" viewBox="0 0 24 24" version="1.1">
<path fill= "currentColor" style=" stroke:none;fill-rule:nonzero;fill-opacity:1;" d="M 0 4 C 0 2.9375 0.421875 1.921875 1.171875 1.171875 C 1.921875 0.421875 2.9375 0 4 0 L 20 0 C 21.0625 0 22.078125 0.421875 22.828125 1.171875 C 23.578125 1.921875 24 2.9375 24 4 L 24 20 C 24 21.0625 23.578125 22.078125 22.828125 22.828125 C 22.078125 23.578125 21.0625 24 20 24 L 4 24 C 2.9375 24 1.921875 23.578125 1.171875 22.828125 C 0.421875 22.078125 0 21.0625 0 20 Z M 4 2.667969 C 3.644531 2.667969 3.308594 2.808594 3.058594 3.058594 C 2.808594 3.308594 2.667969 3.644531 2.667969 4 L 2.667969 20 C 2.667969 20.355469 2.808594 20.691406 3.058594 20.941406 C 3.308594 21.191406 3.644531 21.332031 4 21.332031 L 20 21.332031 C 20.355469 21.332031 20.691406 21.191406 20.941406 20.941406 C 21.191406 20.691406 21.332031 20.355469 21.332031 20 L 21.332031 4 C 21.332031 3.644531 21.191406 3.308594 20.941406 3.058594 C 20.691406 2.808594 20.355469 2.667969 20 2.667969 Z M 12 5.332031 C 12.355469 5.332031 12.691406 5.472656 12.941406 5.722656 C 13.191406 5.972656 13.332031 6.3125 13.332031 6.667969 L 13.332031 17.332031 C 13.332031 17.6875 13.191406 18.027344 12.941406 18.277344 C 12.691406 18.527344 12.355469 18.667969 12 18.667969 C 11.644531 18.667969 11.308594 18.527344 11.058594 18.277344 C 10.808594 18.027344 10.667969 17.6875 10.667969 17.332031 L 10.667969 6.667969 C 10.667969 6.3125 10.808594 5.972656 11.058594 5.722656 C 11.308594 5.472656 11.644531 5.332031 12 5.332031 Z M 6.667969 9.332031 C 7.019531 9.332031 7.359375 9.472656 7.609375 9.722656 C 7.859375 9.972656 8 10.3125 8 10.667969 L 8 17.332031 C 8 17.6875 7.859375 18.027344 7.609375 18.277344 C 7.359375 18.527344 7.019531 18.667969 6.667969 18.667969 C 6.3125 18.667969 5.972656 18.527344 5.722656 18.277344 C 5.472656 18.027344 5.332031 17.6875 5.332031 17.332031 L 5.332031 10.667969 C 5.332031 10.3125 5.472656 9.972656 5.722656 9.722656 C 5.972656 9.472656 6.3125 9.332031 6.667969 9.332031 Z M 17.332031 13.332031 C 17.6875 13.332031 18.027344 13.472656 18.277344 13.722656 C 18.527344 13.972656 18.667969 14.3125 18.667969 14.667969 L 18.667969 17.332031 C 18.667969 17.6875 18.527344 18.027344 18.277344 18.277344 C 18.027344 18.527344 17.6875 18.667969 17.332031 18.667969 C 16.980469 18.667969 16.640625 18.527344 16.390625 18.277344 C 16.140625 18.027344 16 17.6875 16 17.332031 L 16 14.667969 C 16 14.3125 16.140625 13.972656 16.390625 13.722656 C 16.640625 13.472656 16.980469 13.332031 17.332031 13.332031 Z M 17.332031 13.332031 "/>
</svg>
