<!--
Licensed to the Apache Software Foundation (ASF) under one
or more contributor license agreements.  See the NOTICE file
distributed with this work for additional information
regarding copyright ownership.  The ASF licenses this file
to you under the Apache License, Version 2.0 (the
"License"); you may not use this file except in compliance
with the License.  You may obtain a copy of the License at

  http://www.apache.org/licenses/LICENSE-2.0

Unless required by applicable law or agreed to in writing,
software distributed under the License is distributed on an
"AS IS" BASIS, WITHOUT WARRANTIES OR CONDITIONS OF ANY
KIND, either express or implied.  See the License for the
specific language governing permissions and limitations
under the License.
-->
<svg width="24" height="24" viewBox="0 0 24 24" fill="none" xmlns="http://www.w3.org/2000/svg">
<path fill-rule="evenodd" clip-rule="evenodd" d="M12 7C11.4477 7 11 7.44772 11 8V12C11 12.5523 11.4477 13 12 13C12.5523 13 13 12.5523 13 12V8C13 7.44772 12.5523 7 12 7ZM12 15C11.4477 15 11 15.4477 11 16C11 16.5523 11.4477 17 12 17C12.5523 17 13 16.5523 13 16C13 15.4477 12.5523 15 12 15ZM21.71 7.56L16.44 2.29C16.2484 2.10727 15.9948 2.00368 15.73 2H8.27C8.00523 2.00368 7.75163 2.10727 7.56 2.29L2.29 7.56C2.10727 7.75163 2.00368 8.00523 2 8.27V15.73C2.00368 15.9948 2.10727 16.2484 2.29 16.44L7.56 21.71C7.75163 21.8927 8.00523 21.9963 8.27 22H15.73C15.9948 21.9963 16.2484 21.8927 16.44 21.71L21.71 16.44C21.8927 16.2484 21.9963 15.9948 22 15.73V8.27C21.9963 8.00523 21.8927 7.75163 21.71 7.56ZM20 15.31L15.31 20H8.69L4 15.31V8.69L8.69 4H15.31L20 8.69V15.31Z" fill="currentColor"/>
</svg>
