<!--
Licensed to the Apache Software Foundation (ASF) under one
or more contributor license agreements.  See the NOTICE file
distributed with this work for additional information
regarding copyright ownership.  The ASF licenses this file
to you under the Apache License, Version 2.0 (the
"License"); you may not use this file except in compliance
with the License.  You may obtain a copy of the License at

  http://www.apache.org/licenses/LICENSE-2.0

Unless required by applicable law or agreed to in writing,
software distributed under the License is distributed on an
"AS IS" BASIS, WITHOUT WARRANTIES OR CONDITIONS OF ANY
KIND, either express or implied.  See the License for the
specific language governing permissions and limitations
under the License.
-->
<svg width="24" height="24" viewBox="0 0 24 24" fill="none" xmlns="http://www.w3.org/2000/svg">
<path fill-rule="evenodd" clip-rule="evenodd" d="M4.95708 11.9012C5.80974 11.9813 6.22738 12.3817 6.22738 13.1506V14.7256C6.22738 15.5798 6.558 15.9269 7.37587 15.9269H7.60789V16.6797H7.28886C5.91995 16.6797 5.2761 16.087 5.2761 14.843V13.4816C5.2761 12.6273 4.95708 12.3444 4 12.3444V11.33C4.95708 11.33 5.2761 11.047 5.2761 10.1927V8.83663C5.2761 7.59263 5.91995 7 7.28886 7H7.60789V7.7528H7.37587C6.558 7.7528 6.22738 8.09984 6.22738 8.95408V10.5238C6.22738 11.2926 5.80974 11.693 4.95708 11.7731V11.9012ZM11.8086 17H11.0603L11.6114 13.9621H12.7193L11.8086 17ZM19.0429 11.7784C18.1903 11.6983 17.7726 11.2979 17.7726 10.5291V8.95408C17.7726 8.09984 17.442 7.7528 16.6241 7.7528H16.3921V7H16.7111C18.08 7 18.7239 7.59263 18.7239 8.83663V10.1981C18.7239 11.0523 19.0429 11.3353 20 11.3353V12.3497C19.0429 12.3497 18.7239 12.6327 18.7239 13.4869V14.843C18.7239 16.087 18.08 16.6797 16.7111 16.6797H16.3921V15.9269H16.6241C17.442 15.9269 17.7726 15.5798 17.7726 14.7256V13.1559C17.7726 12.3871 18.1903 11.9867 19.0429 11.9066V11.7784Z" fill="currentColor"/>
</svg>
