<svg xmlns="http://www.w3.org/2000/svg" width="1em" height="1em" preserveAspectRatio="xMidYMid meet"
    viewBox="0 0 24 24">
    <path fill="currentColor"
        d="M14.76 20.83L17.6 18l-2.84-2.83l1.41-1.41L19 16.57l2.83-2.81l1.41 1.41L20.43 18l2.81 2.83l-1.41 1.41L19 19.4l-2.83 2.84l-1.41-1.41M12 12v7.88c.04.3-.06.62-.29.83a.996.996 0 0 1-1.41 0L8.29 18.7a.989.989 0 0 1-.29-.83V12h-.03L2.21 4.62a1 1 0 0 1 .17-1.4c.19-.14.4-.22.62-.22h14c.22 0 .43.08.62.22a1 1 0 0 1 .17 1.4L12.03 12H12Z" />
</svg>