<!--
Licensed to the Apache Software Foundation (ASF) under one
or more contributor license agreements.  See the NOTICE file
distributed with this work for additional information
regarding copyright ownership.  The ASF licenses this file
to you under the Apache License, Version 2.0 (the
"License"); you may not use this file except in compliance
with the License.  You may obtain a copy of the License at

  http://www.apache.org/licenses/LICENSE-2.0

Unless required by applicable law or agreed to in writing,
software distributed under the License is distributed on an
"AS IS" BASIS, WITHOUT WARRANTIES OR CONDITIONS OF ANY
KIND, either express or implied.  See the License for the
specific language governing permissions and limitations
under the License.
-->
<svg width="24" height="24" viewBox="0 0 24 24" fill="none" xmlns="http://www.w3.org/2000/svg">
<path fill-rule="evenodd" clip-rule="evenodd" d="M10.5 16C10.5 16.5523 10.9477 17 11.5 17H12.5C13.0523 17 13.5 16.5523 13.5 16C13.5 15.4477 13.0523 15 12.5 15H11.5C10.9477 15 10.5 15.4477 10.5 16ZM6.5 7C5.94772 7 5.5 7.44772 5.5 8C5.5 8.55228 5.94772 9 6.5 9H17.5C18.0523 9 18.5 8.55228 18.5 8C18.5 7.44772 18.0523 7 17.5 7H6.5ZM8.5 12C8.5 12.5523 8.94772 13 9.5 13H14.5C15.0523 13 15.5 12.5523 15.5 12C15.5 11.4477 15.0523 11 14.5 11H9.5C8.94772 11 8.5 11.4477 8.5 12Z" fill="currentColor"/>
</svg>
