<!--
Licensed to the Apache Software Foundation (ASF) under one
or more contributor license agreements.  See the NOTICE file
distributed with this work for additional information
regarding copyright ownership.  The ASF licenses this file
to you under the Apache License, Version 2.0 (the
"License"); you may not use this file except in compliance
with the License.  You may obtain a copy of the License at

  http://www.apache.org/licenses/LICENSE-2.0

Unless required by applicable law or agreed to in writing,
software distributed under the License is distributed on an
"AS IS" BASIS, WITHOUT WARRANTIES OR CONDITIONS OF ANY
KIND, either express or implied.  See the License for the
specific language governing permissions and limitations
under the License.
-->

<svg viewBox="0 0 24 24" fill="none" xmlns="http://www.w3.org/2000/svg">
<path fill-rule="evenodd" clip-rule="evenodd" d="M9.69241 18.976C9.69241 19.895 10.417 20.64 11.3109 20.64H12.9293C13.8232 20.64 14.5478 19.895 14.5478 18.976C14.5478 18.057 13.8232 17.312 12.9293 17.312H11.3109C10.417 17.312 9.69241 18.057 9.69241 18.976ZM3.21856 4C2.32472 4 1.6001 4.74501 1.6001 5.664C1.6001 6.58299 2.32472 7.328 3.21856 7.328H21.0216C21.9155 7.328 22.6401 6.58299 22.6401 5.664C22.6401 4.74501 21.9155 4 21.0216 4H3.21856ZM6.45548 12.32C6.45548 13.239 7.1801 13.984 8.07394 13.984H16.1663C17.0601 13.984 17.7847 13.239 17.7847 12.32C17.7847 11.401 17.0601 10.656 16.1663 10.656H8.07394C7.1801 10.656 6.45548 11.401 6.45548 12.32Z" fill="currentColor"/>
</svg>
