<!--
Licensed to the Apache Software Foundation (ASF) under one
or more contributor license agreements.  See the NOTICE file
distributed with this work for additional information
regarding copyright ownership.  The ASF licenses this file
to you under the Apache License, Version 2.0 (the
"License"); you may not use this file except in compliance
with the License.  You may obtain a copy of the License at

  http://www.apache.org/licenses/LICENSE-2.0

Unless required by applicable law or agreed to in writing,
software distributed under the License is distributed on an
"AS IS" BASIS, WITHOUT WARRANTIES OR CONDITIONS OF ANY
KIND, either express or implied.  See the License for the
specific language governing permissions and limitations
under the License.
-->
<svg width="24" height="24" viewBox="0 0 24 24" fill="none" xmlns="http://www.w3.org/2000/svg">
<path fill-rule="evenodd" clip-rule="evenodd" d="M18 10.82C17.4477 10.82 17 11.2677 17 11.82V19C17 19.5523 16.5523 20 16 20H5C4.44772 20 4 19.5523 4 19V8C4 7.44772 4.44772 7 5 7H12.18C12.7323 7 13.18 6.55228 13.18 6C13.18 5.44772 12.7323 5 12.18 5H5C3.34315 5 2 6.34315 2 8V19C2 20.6569 3.34315 22 5 22H16C17.6569 22 19 20.6569 19 19V11.82C19 11.2677 18.5523 10.82 18 10.82ZM21.92 2.62C21.8185 2.37565 21.6243 2.18147 21.38 2.08C21.2598 2.02876 21.1307 2.00158 21 2H15C14.4477 2 14 2.44772 14 3C14 3.55228 14.4477 4 15 4H18.59L8.29 14.29C8.10069 14.4778 7.9942 14.7334 7.9942 15C7.9942 15.2666 8.10069 15.5222 8.29 15.71C8.47777 15.8993 8.73336 16.0058 9 16.0058C9.26664 16.0058 9.52223 15.8993 9.71 15.71L20 5.41V9C20 9.55228 20.4477 10 21 10C21.5523 10 22 9.55228 22 9V3C21.9984 2.86932 21.9712 2.74022 21.92 2.62Z" fill="currentColor"/>
</svg>
