<!--
Licensed to the Apache Software Foundation (ASF) under one
or more contributor license agreements.  See the NOTICE file
distributed with this work for additional information
regarding copyright ownership.  The ASF licenses this file
to you under the Apache License, Version 2.0 (the
"License"); you may not use this file except in compliance
with the License.  You may obtain a copy of the License at

  http://www.apache.org/licenses/LICENSE-2.0

Unless required by applicable law or agreed to in writing,
software distributed under the License is distributed on an
"AS IS" BASIS, WITHOUT WARRANTIES OR CONDITIONS OF ANY
KIND, either express or implied.  See the License for the
specific language governing permissions and limitations
under the License.
-->
<svg width="24" height="24" viewBox="0 0 24 24" fill="none" xmlns="http://www.w3.org/2000/svg">
<path fill-rule="evenodd" clip-rule="evenodd" d="M12 2C6.47715 2 2 6.47715 2 12C2 17.5228 6.47715 22 12 22C17.5228 22 22 17.5228 22 12C22 9.34784 20.9464 6.8043 19.0711 4.92893C17.1957 3.05357 14.6522 2 12 2Z" fill="currentColor"/>
<path fill-rule="evenodd" clip-rule="evenodd" d="M11.6203 7.08002C11.8637 6.98 12.1368 6.98 12.3803 7.08002C12.503 7.12761 12.6152 7.19898 12.7103 7.29002C12.893 7.48165 12.9966 7.73525 13.0003 8.00002C12.9986 8.3326 12.8317 8.6426 12.555 8.82709C12.2783 9.01157 11.9279 9.04641 11.6203 8.92002C11.4991 8.86938 11.3875 8.79835 11.2903 8.71002C11.1031 8.5213 10.9987 8.26582 11.0003 8.00002C10.9969 7.86884 11.0243 7.7387 11.0803 7.62002C11.1309 7.49883 11.2019 7.38722 11.2903 7.29002C11.3854 7.19898 11.4975 7.12761 11.6203 7.08002ZM12.0003 11H11V12H11.0003V16H11V17H12.0003H15V16H13.0003V12L13 11.9762V11H12.0003Z" fill="white"/>
</svg>
