<!--
Licensed to the Apache Software Foundation (ASF) under one
or more contributor license agreements.  See the NOTICE file
distributed with this work for additional information
regarding copyright ownership.  The ASF licenses this file
to you under the Apache License, Version 2.0 (the
"License"); you may not use this file except in compliance
with the License.  You may obtain a copy of the License at

  http://www.apache.org/licenses/LICENSE-2.0

Unless required by applicable law or agreed to in writing,
software distributed under the License is distributed on an
"AS IS" BASIS, WITHOUT WARRANTIES OR CONDITIONS OF ANY
KIND, either express or implied.  See the License for the
specific language governing permissions and limitations
under the License.
-->
<svg width="24" height="24" viewBox="0 0 24 24" fill="none" xmlns="http://www.w3.org/2000/svg">
<path fill-rule="evenodd" clip-rule="evenodd" d="M6.21 13.29C6.11613 13.1974 6.00364 13.1258 5.88 13.08C5.63654 12.98 5.36346 12.98 5.12 13.08C4.86877 13.1709 4.67092 13.3688 4.58 13.62C4.40164 14.0387 4.52847 14.525 4.88859 14.8032C5.24871 15.0815 5.75129 15.0815 6.11141 14.8032C6.47153 14.525 6.59836 14.0387 6.42 13.62C6.37241 13.4972 6.30104 13.3851 6.21 13.29ZM13.5 11H14.5C15.0523 11 15.5 10.5523 15.5 10C15.5 9.44772 15.0523 9 14.5 9H13.5C12.9477 9 12.5 9.44772 12.5 10C12.5 10.5523 12.9477 11 13.5 11ZM9.5 11H10.5C11.0523 11 11.5 10.5523 11.5 10C11.5 9.44772 11.0523 9 10.5 9H9.5C8.94772 9 8.5 9.44772 8.5 10C8.5 10.5523 8.94772 11 9.5 11ZM6.5 9H5.5C4.94772 9 4.5 9.44772 4.5 10C4.5 10.5523 4.94772 11 5.5 11H6.5C7.05228 11 7.5 10.5523 7.5 10C7.5 9.44772 7.05228 9 6.5 9ZM20 5H4C2.34315 5 1 6.34315 1 8V16C1 17.6569 2.34315 19 4 19H20C21.6569 19 23 17.6569 23 16V8C23 6.34315 21.6569 5 20 5ZM21 16C21 16.5523 20.5523 17 20 17H4C3.44772 17 3 16.5523 3 16V8C3 7.44772 3.44772 7 4 7H20C20.5523 7 21 7.44772 21 8V16ZM15 13H9C8.44772 13 8 13.4477 8 14C8 14.5523 8.44772 15 9 15H15C15.5523 15 16 14.5523 16 14C16 13.4477 15.5523 13 15 13ZM18.5 9H17.5C16.9477 9 16.5 9.44772 16.5 10C16.5 10.5523 16.9477 11 17.5 11H18.5C19.0523 11 19.5 10.5523 19.5 10C19.5 9.44772 19.0523 9 18.5 9ZM19.21 13.29C19.1149 13.199 19.0028 13.1276 18.88 13.08C18.6365 12.98 18.3635 12.98 18.12 13.08C17.9964 13.1258 17.8839 13.1974 17.79 13.29C17.699 13.3851 17.6276 13.4972 17.58 13.62C17.4205 13.9945 17.504 14.4284 17.7911 14.717C18.0782 15.0056 18.5116 15.0914 18.887 14.9339C19.2623 14.7764 19.5048 14.4071 19.5 14C19.5034 13.8688 19.476 13.7387 19.42 13.62C19.3724 13.4972 19.301 13.3851 19.21 13.29Z" fill="currentColor"/>
</svg>
