<!--
Licensed to the Apache Software Foundation (ASF) under one
or more contributor license agreements.  See the NOTICE file
distributed with this work for additional information
regarding copyright ownership.  The ASF licenses this file
to you under the Apache License, Version 2.0 (the
"License"); you may not use this file except in compliance
with the License.  You may obtain a copy of the License at

  http://www.apache.org/licenses/LICENSE-2.0

Unless required by applicable law or agreed to in writing,
software distributed under the License is distributed on an
"AS IS" BASIS, WITHOUT WARRANTIES OR CONDITIONS OF ANY
KIND, either express or implied.  See the License for the
specific language governing permissions and limitations
under the License.
-->
<svg width="1429" height="156" viewBox="0 0 1429 156" fill="none" xmlns="http://www.w3.org/2000/svg">
<path d="M1 103.015C36.675 93.6192 79.8499 83.8357 130.727 84.8683C181.605 85.9009 205.523 96.9366 260.455 100.236C315.386 103.535 335.656 102.171 390.182 103.535C444.708 104.9 468.018 103.104 519.909 107.267C571.8 111.431 591.462 138.014 649.636 129.472C707.811 120.93 732.337 69.277 779.364 61.4374C826.39 53.5978 869.565 60.0431 909.091 64.0663C948.617 68.0896 988.549 80.8954 1038.82 78.0547C1089.09 75.2141 1114.22 37.9676 1168.55 45.904C1222.87 53.8405 1237.67 111.431 1298.27 111.431C1358.88 111.431 1407.93 32.4668 1428 1" stroke="#A5DBE9" stroke-width="2" stroke-linejoin="round"/>
<path d="M260.455 100.61C205.523 97.2979 181.605 86.2207 130.727 85.1842C79.8499 84.1476 36.675 93.968 1 103.399V156H1428V1C1407.93 32.5853 1358.88 111.847 1298.27 111.847C1237.67 111.847 1222.87 54.0395 1168.55 46.0731C1114.22 38.1068 1089.09 75.4936 1038.82 78.3449C988.549 81.1963 948.617 68.3422 909.091 64.3039C869.565 60.2655 826.39 53.7958 779.364 61.665C732.338 69.5341 707.811 121.382 649.636 129.956C591.462 138.53 571.8 111.847 519.909 107.667C468.018 103.488 444.708 105.291 390.182 103.922C335.656 102.552 315.386 103.922 260.455 100.61Z" fill="#F3F8FA" fill-opacity="0.1"/>
<path d="M260.455 115.361C201.064 122.06 183.834 79.8202 130.727 84.9941C77.6202 90.168 36.675 115.361 1 144.88V154.817H1428V11.6489C1401.24 57.172 1363.34 136.193 1298.27 142.747C1233.21 149.302 1222.87 57.172 1168.55 38.7374C1114.22 20.3027 1093.55 99.4849 1038.82 103.125C984.09 106.765 957.536 64.0883 909.091 60.2989C860.646 56.5095 834.903 91.619 779.364 85.3711C723.824 79.1232 733.715 52.9998 680 41.5005C626.285 30.0012 598.121 82.7335 544 84.9941C489.879 87.2547 445.607 79.2976 400 84.9941C354.393 90.6906 319.845 108.662 260.455 115.361Z" fill="#F3F8FA" fill-opacity="0.1"/>
<path d="M1 145.351C36.675 115.728 77.6202 90.4459 130.727 85.2536C183.834 80.0614 201.064 122.451 260.455 115.728C319.845 109.005 348.393 90.9703 394 85.2536C439.607 79.537 481.879 87.9006 536 85.632C590.121 83.3634 627.285 29.9605 681 41.5005C734.715 53.0405 723.824 79.362 779.364 85.632C834.903 91.902 860.646 56.6682 909.091 60.4711C957.536 64.2739 984.09 107.102 1038.82 103.449C1093.55 99.7957 1114.22 20.3333 1168.55 38.8332C1222.87 57.3331 1233.21 149.789 1298.27 143.211C1363.34 136.633 1401.24 57.3331 1428 11.6489" stroke="#79CADE" stroke-width="2" stroke-linejoin="round"/>
</svg>
