<!--
Licensed to the Apache Software Foundation (ASF) under one
or more contributor license agreements.  See the NOTICE file
distributed with this work for additional information
regarding copyright ownership.  The ASF licenses this file
to you under the Apache License, Version 2.0 (the
"License"); you may not use this file except in compliance
with the License.  You may obtain a copy of the License at

  http://www.apache.org/licenses/LICENSE-2.0

Unless required by applicable law or agreed to in writing,
software distributed under the License is distributed on an
"AS IS" BASIS, WITHOUT WARRANTIES OR CONDITIONS OF ANY
KIND, either express or implied.  See the License for the
specific language governing permissions and limitations
under the License.
-->
<svg width="24" height="24" viewBox="0 0 24 24" fill="none" xmlns="http://www.w3.org/2000/svg">
<path fill-rule="evenodd" clip-rule="evenodd" d="M3.71023 16.29C3.61513 16.199 3.50298 16.1276 3.38023 16.08C3.13677 15.98 2.86369 15.98 2.62023 16.08C2.49748 16.1276 2.38534 16.199 2.29023 16.29C2.19919 16.3851 2.12783 16.4972 2.08023 16.62C1.92364 16.9924 2.00649 17.4224 2.29023 17.71C2.38743 17.7983 2.49905 17.8694 2.62023 17.92C2.86227 18.027 3.13819 18.027 3.38023 17.92C3.50142 17.8694 3.61303 17.7983 3.71023 17.71C3.99398 17.4224 4.07683 16.9924 3.92023 16.62C3.87264 16.4972 3.80127 16.3851 3.71023 16.29ZM7.00023 8H21.0002C21.5525 8 22.0002 7.55228 22.0002 7C22.0002 6.44772 21.5525 6 21.0002 6H7.00023C6.44795 6 6.00023 6.44772 6.00023 7C6.00023 7.55228 6.44795 8 7.00023 8ZM3.71023 11.29C3.42267 11.0063 2.99263 10.9234 2.62023 11.08C2.49905 11.1306 2.38743 11.2017 2.29023 11.29C2.19919 11.3851 2.12783 11.4972 2.08023 11.62C1.97326 11.862 1.97326 12.138 2.08023 12.38C2.13087 12.5012 2.2019 12.6128 2.29023 12.71C2.38743 12.7983 2.49905 12.8694 2.62023 12.92C2.86227 13.027 3.13819 13.027 3.38023 12.92C3.50142 12.8694 3.61303 12.7983 3.71023 12.71C3.79856 12.6128 3.86959 12.5012 3.92023 12.38C4.02721 12.138 4.02721 11.862 3.92023 11.62C3.87264 11.4972 3.80127 11.3851 3.71023 11.29ZM21.0002 11H7.00023C6.44795 11 6.00023 11.4477 6.00023 12C6.00023 12.5523 6.44795 13 7.00023 13H21.0002C21.5525 13 22.0002 12.5523 22.0002 12C22.0002 11.4477 21.5525 11 21.0002 11ZM3.71023 6.29C3.61513 6.19896 3.50298 6.12759 3.38023 6.08C3.00784 5.9234 2.57779 6.00626 2.29023 6.29C2.2019 6.3872 2.13087 6.49882 2.08023 6.62C1.97326 6.86204 1.97326 7.13796 2.08023 7.38C2.13087 7.50118 2.2019 7.6128 2.29023 7.71C2.38743 7.79833 2.49905 7.86936 2.62023 7.92C2.99263 8.0766 3.42267 7.99374 3.71023 7.71C3.79856 7.6128 3.86959 7.50118 3.92023 7.38C4.02721 7.13796 4.02721 6.86204 3.92023 6.62C3.86959 6.49882 3.79856 6.3872 3.71023 6.29ZM21.0002 16H7.00023C6.44795 16 6.00023 16.4477 6.00023 17C6.00023 17.5523 6.44795 18 7.00023 18H21.0002C21.5525 18 22.0002 17.5523 22.0002 17C22.0002 16.4477 21.5525 16 21.0002 16Z" fill="currentColor"/>
</svg>
