<!--
Licensed to the Apache Software Foundation (ASF) under one
or more contributor license agreements.  See the NOTICE file
distributed with this work for additional information
regarding copyright ownership.  The ASF licenses this file
to you under the Apache License, Version 2.0 (the
"License"); you may not use this file except in compliance
with the License.  You may obtain a copy of the License at

  http://www.apache.org/licenses/LICENSE-2.0

Unless required by applicable law or agreed to in writing,
software distributed under the License is distributed on an
"AS IS" BASIS, WITHOUT WARRANTIES OR CONDITIONS OF ANY
KIND, either express or implied.  See the License for the
specific language governing permissions and limitations
under the License.
-->
<svg xmlns="http://www.w3.org/2000/svg" width="24" height="24" viewBox="0 0 24 24">
<path d="M 21.949219 14.144531 C 21.949219 14.1875 21.945312 14.21875 21.9375 14.238281 C 21.367188 16.628906 20.167969 18.570312 18.347656 20.054688 C 16.527344 21.542969 14.394531 22.285156 11.945312 22.285156 C 10.644531 22.285156 9.382812 22.039062 8.164062 21.550781 C 6.945312 21.058594 5.855469 20.355469 4.902344 19.445312 L 3.175781 21.175781 C 3.003906 21.34375 2.804688 21.429688 2.570312 21.429688 C 2.339844 21.429688 2.136719 21.34375 1.96875 21.175781 C 1.800781 21.003906 1.714844 20.804688 1.714844 20.570312 L 1.714844 14.570312 C 1.714844 14.339844 1.800781 14.136719 1.96875 13.96875 C 2.136719 13.800781 2.339844 13.714844 2.570312 13.714844 L 8.570312 13.714844 C 8.804688 13.714844 9.003906 13.800781 9.175781 13.96875 C 9.34375 14.136719 9.429688 14.339844 9.429688 14.570312 C 9.429688 14.804688 9.34375 15.003906 9.175781 15.175781 L 7.339844 17.007812 C 7.972656 17.597656 8.691406 18.054688 9.496094 18.375 C 10.300781 18.695312 11.132812 18.855469 12 18.855469 C 13.195312 18.855469 14.3125 18.566406 15.347656 17.988281 C 16.382812 17.40625 17.214844 16.605469 17.839844 15.589844 C 17.9375 15.4375 18.175781 14.914062 18.550781 14.023438 C 18.621094 13.816406 18.753906 13.714844 18.949219 13.714844 L 21.523438 13.714844 C 21.636719 13.714844 21.738281 13.757812 21.824219 13.839844 C 21.910156 13.925781 21.949219 14.027344 21.949219 14.144531 Z M 22.285156 3.429688 L 22.285156 9.429688 C 22.285156 9.660156 22.199219 9.863281 22.03125 10.03125 C 21.863281 10.199219 21.660156 10.285156 21.429688 10.285156 L 15.429688 10.285156 C 15.195312 10.285156 14.996094 10.199219 14.824219 10.03125 C 14.65625 9.863281 14.570312 9.660156 14.570312 9.429688 C 14.570312 9.195312 14.65625 8.996094 14.824219 8.824219 L 16.675781 6.976562 C 15.351562 5.753906 13.792969 5.144531 12 5.144531 C 10.804688 5.144531 9.6875 5.433594 8.652344 6.011719 C 7.617188 6.59375 6.785156 7.394531 6.160156 8.410156 C 6.0625 8.5625 5.824219 9.085938 5.449219 9.976562 C 5.378906 10.183594 5.246094 10.285156 5.050781 10.285156 L 2.382812 10.285156 C 2.269531 10.285156 2.167969 10.242188 2.082031 10.160156 C 1.996094 10.074219 1.957031 9.972656 1.957031 9.855469 L 1.957031 9.761719 C 2.535156 7.371094 3.742188 5.429688 5.570312 3.945312 C 7.402344 2.457031 9.542969 1.714844 12 1.714844 C 13.304688 1.714844 14.570312 1.960938 15.804688 2.457031 C 17.035156 2.953125 18.128906 3.652344 19.085938 4.554688 L 20.824219 2.824219 C 20.996094 2.65625 21.195312 2.570312 21.429688 2.570312 C 21.660156 2.570312 21.863281 2.65625 22.03125 2.824219 C 22.199219 2.996094 22.285156 3.195312 22.285156 3.429688 Z M 22.285156 3.429688" />
</svg>
