<!--
Licensed to the Apache Software Foundation (ASF) under one
or more contributor license agreements.  See the NOTICE file
distributed with this work for additional information
regarding copyright ownership.  The ASF licenses this file
to you under the Apache License, Version 2.0 (the
"License"); you may not use this file except in compliance
with the License.  You may obtain a copy of the License at

  http://www.apache.org/licenses/LICENSE-2.0

Unless required by applicable law or agreed to in writing,
software distributed under the License is distributed on an
"AS IS" BASIS, WITHOUT WARRANTIES OR CONDITIONS OF ANY
KIND, either express or implied.  See the License for the
specific language governing permissions and limitations
under the License.
-->
<svg width="24" height="24" viewBox="0 0 24 24" fill="none" xmlns="http://www.w3.org/2000/svg">
<path fill-rule="evenodd" clip-rule="evenodd" d="M17.5349 19.25V12.2228C17.5349 10.1518 15.8561 8.47296 13.7851 8.47296H8.5353L10.7552 6.28304C10.8972 6.14222 10.9771 5.95053 10.9771 5.75056C10.9771 5.55059 10.8972 5.35891 10.7552 5.21809C10.4627 4.9273 9.99027 4.9273 9.69775 5.21809L6.22539 8.69045C6.15442 8.7611 6.09832 8.84525 6.0604 8.93794C5.98017 9.11946 5.98017 9.32639 6.0604 9.50792C6.10116 9.59906 6.15694 9.68272 6.22539 9.75541L9.69775 13.2503C9.99531 13.5051 10.4389 13.488 10.7159 13.2109C10.9929 12.9339 11.01 12.4904 10.7552 12.1928L8.5653 9.9729H13.8151C15.0577 9.9729 16.065 10.9802 16.065 12.2228V19.25C16.065 19.6642 16.4008 20 16.815 20C17.2292 20 17.5649 19.6642 17.5649 19.25H17.5349Z" fill="currentColor"/>
</svg>
