<!--
  Licensed to the Apache Software Foundation (ASF) under one
  or more contributor license agreements.  See the NOTICE file
  distributed with this work for additional information
  regarding copyright ownership.  The ASF licenses this file
  to you under the Apache License, Version 2.0 (the
  "License"); you may not use this file except in compliance
  with the License.  You may obtain a copy of the License at

    http://www.apache.org/licenses/LICENSE-2.0

  Unless required by applicable law or agreed to in writing,
  software distributed under the License is distributed on an
  "AS IS" BASIS, WITHOUT WARRANTIES OR CONDITIONS OF ANY
  KIND, either express or implied.  See the License for the
  specific language governing permissions and limitations
  under the License.
-->
<svg width="24" height="24" viewBox="0 0 24 24" fill="none" xmlns="http://www.w3.org/2000/svg">
<path fill-rule="evenodd" clip-rule="evenodd" d="M 10.460938 19 C 9 21.070312 6.148438 21.589844 4.089844 20.148438 C 2.039062 18.710938 1.558594 15.839844 3 13.75 C 3.816406 12.566406 5.140625 11.832031 6.578125 11.769531 L 6.628906 13.199219 C 5.71875 13.269531 4.839844 13.738281 4.269531 14.558594 C 3.269531 16 3.578125 17.941406 4.949219 18.910156 C 6.328125 19.871094 8.261719 19.5 9.261719 18.070312 C 9.570312 17.621094 9.75 17.128906 9.820312 16.628906 L 9.820312 15.621094 L 15.398438 15.578125 L 15.46875 15.46875 C 16 14.550781 17.148438 14.230469 18.050781 14.75 C 18.957031 15.28125 19.261719 16.445312 18.730469 17.351562 C 18.199219 18.261719 17.039062 18.578125 16.140625 18.058594 C 15.730469 17.828125 15.441406 17.460938 15.308594 17.039062 L 11.238281 17.058594 C 11.121094 17.753906 10.855469 18.417969 10.460938 19 M 17.738281 11.859375 C 20.269531 12.171875 22.070312 14.441406 21.761719 16.929688 C 21.449219 19.429688 19.148438 21.199219 16.621094 20.890625 C 15.195312 20.722656 13.929688 19.90625 13.191406 18.679688 L 14.429688 17.960938 C 14.949219 18.765625 15.800781 19.296875 16.75 19.410156 C 18.5 19.621094 20.050781 18.429688 20.261719 16.761719 C 20.46875 15.089844 19.230469 13.558594 17.5 13.351562 C 16.960938 13.289062 16.441406 13.359375 15.96875 13.53125 L 15.121094 13.96875 L 12.539062 9.199219 L 12.320312 9.199219 C 11.273438 9.167969 10.445312 8.296875 10.46875 7.25 C 10.5 6.210938 11.398438 5.398438 12.449219 5.441406 C 13.5 5.5 14.328125 6.351562 14.300781 7.390625 C 14.28125 7.828125 14.109375 8.230469 13.839844 8.539062 L 15.738281 12.050781 C 16.359375 11.851562 17.039062 11.78125 17.738281 11.859375 M 8.25 9.140625 C 7.25 6.789062 8.308594 4.101562 10.621094 3.121094 C 12.941406 2.140625 15.621094 3.25 16.621094 5.601562 C 17.210938 6.96875 17.089844 8.46875 16.421875 9.671875 L 15.179688 8.949219 C 15.601562 8.140625 15.671875 7.148438 15.269531 6.21875 C 14.589844 4.621094 12.78125 3.851562 11.230469 4.5 C 9.671875 5.160156 8.96875 7 9.648438 8.601562 C 9.929688 9.261719 10.398438 9.769531 10.96875 10.109375 L 11.359375 10.320312 L 8.289062 15.308594 C 8.320312 15.359375 8.359375 15.421875 8.390625 15.5 C 8.878906 16.410156 8.539062 17.558594 7.621094 18.050781 C 6.710938 18.539062 5.558594 18.179688 5.058594 17.238281 C 4.570312 16.308594 4.910156 15.160156 5.828125 14.671875 C 6.21875 14.460938 6.648438 14.410156 7.058594 14.5 L 9.371094 10.730469 C 8.898438 10.300781 8.5 9.761719 8.25 9.140625 Z M 8.25 9.140625 "/>
</svg>
