<?xml version="1.0" encoding="UTF-8"?>
<!DOCTYPE svg PUBLIC "-//W3C//DTD SVG 1.1//EN" "http://www.w3.org/Graphics/SVG/1.1/DTD/svg11.dtd">
<!-- Creator: CorelDRAW 2021.5 -->
<svg xmlns="http://www.w3.org/2000/svg" xml:space="preserve" width="98.5698mm" height="25.4mm" version="1.1" style="shape-rendering:geometricPrecision; text-rendering:geometricPrecision; image-rendering:optimizeQuality; fill-rule:evenodd; clip-rule:evenodd"
viewBox="0 0 9856.98 2540"
 xmlns:xlink="http://www.w3.org/1999/xlink"
 xmlns:xodm="http://www.corel.com/coreldraw/odm/2003">
 <defs>
  <style type="text/css">
   <![CDATA[
    .fil0 {fill:none}
    .fil6 {fill:#080707;fill-rule:nonzero}
    .fil2 {fill:#F47E35;fill-rule:nonzero}
    .fil5 {fill:#EF62A3;fill-rule:nonzero}
    .fil3 {fill:#942C4B;fill-rule:nonzero}
    .fil4 {fill:#B4D342;fill-rule:nonzero}
    .fil1 {fill:#0097C5;fill-rule:nonzero}
   ]]>
  </style>
 </defs>
 <g id="Layer_x0020_1">
  <metadata id="CorelCorpID_0Corel-Layer"/>
  <rect class="fil0" x="-7.59" width="9856.99" height="2540"/>
  <g id="_2550315809584">
   <g>
    <g>
     <path class="fil1" d="M850.5 2024.31c-373.28,0 -690.06,-229.05 -804.47,-547.28 70.98,408.71 410.19,718.6 818.31,718.6 459.32,0 831.91,-392.95 831.91,-877.71 0,-5.82 -0.31,-11.48 -0.5,-17.13 -44.76,406.5 -406.16,723.52 -845.25,723.52z"/>
     <path class="fil2" d="M2491.94 1407.09c0,-615.18 -572.29,-1098.05 -1278.08,-1098.05 -204.82,0 -398.07,64.16 -569.51,138.88 113.41,-29.17 233.52,-44.94 357.67,-44.94 705.99,0 1278.15,489.98 1278.15,1105.15 0,378.94 -217.52,713.42 -549.72,914.62 -27.37,15.05 -191.54,99.6 -374.93,109.56 0,0 140.78,8.47 386.57,-83.03 0.57,-0.16 1.32,-0.61 1.95,-0.76 1.33,-0.44 2.78,-1.2 4.3,-1.49l-0.19 -0.31c439.09,-179.94 743.79,-591.03 743.79,-1039.63z"/>
     <path class="fil3" d="M1527.72 747.69c223.47,270.75 297.99,653.58 161.07,992.79 -185.28,459.92 -681.71,662.04 -1138.19,482.52 -143.62,-64.73 -244.38,-181.59 -244.38,-181.59 57.59,85.15 185.59,209.15 312.21,267.87 470.07,216.64 1022.26,-19.88 1212.09,-490.23 155.82,-386.52 8.03,-804.79 -302.8,-1071.36z"/>
     <path class="fil4" d="M2527.53 1571.98c0,0 33.95,-100.17 35.72,-272.96 0,-7.9 0.63,-16.1 0.63,-23.84 0,-699.54 -567.29,-1266.64 -1266.83,-1266.64 -639.74,0 -1168.47,474.66 -1254.19,1090.94 142.17,-497.35 642.45,-864.56 1237.49,-864.56 615.03,0 1128.21,392.05 1250.46,913.9 14.74,68.33 38.06,270.91 -3.28,423.16z"/>
     <path class="fil5" d="M1321.9 503.58c-86.93,-19.78 -173.97,-29.01 -259.12,-29.3 17.57,3.1 35.08,6.83 52.65,10.55 590.62,132.92 968.71,680.07 844.43,1221.98 -86.8,378.67 -395.04,653.14 -775.01,738.86 -130.11,26.08 -266.33,23.84 -413.25,-27.97 0,0 120.3,59.39 290.42,72.64l0.76 -0.45c3.41,0.45 6.63,0.76 10.36,0.89 8.85,0.6 17.45,1.04 26.24,1.35 505.78,16.22 958.85,-294.42 1067.06,-766.86 124.28,-541.91 -253.93,-1088.94 -844.54,-1221.69z"/>
    </g>
    <g>
     <path class="fil6" d="M7767.68 1318.58c40.21,-74.94 31.86,-189.11 31.86,-189.11 0,-186.64 -152.54,-189.17 -152.54,-189.17l-391.36 0c-83.45,0 -81.55,105.95 -81.55,105.95l0 555.19 163.29 0 0 -479.87c-0.57,-48.8 46.27,-51.81 46.27,-51.81l174.92 0c78.76,0 70.86,90.53 70.86,90.53 0,111.76 -69.98,104.78 -69.98,104.78l-96.91 0c-78.89,0 -69.47,64.44 -69.47,64.44 0,26.65 39.45,66.1 39.45,66.1l171.75 205.83 206.27 0 -206.27 -216.99c129.21,0 163.41,-65.87 163.41,-65.87z"/>
     <path class="fil6" d="M3405.52 930.6c-108.6,0 -131.86,79.21 -131.86,79.21l-246.35 591.63 179.85 0 58.34 -150.77 278.59 0 59.86 150.77 178.15 0 -248.88 -589.99c-44,-94.67 -127.7,-80.85 -127.7,-80.85zm86.23 392.5l0 0 -86.92 0 -0.19 0 -87.37 0c0,0 -14.85,0.48 -9.23,-12.49l80.23 -196.91c0,0 5.81,-20.7 16.37,-20.7l0.19 0c10.36,0 16.05,20.7 16.05,20.7l80.54 196.91c5.31,12.97 -9.67,12.49 -9.67,12.49z"/>
     <path class="fil6" d="M5099.12 930.6c-108.54,0 -131.74,79.21 -131.74,79.21l-246.66 591.63 179.97 0 58.35 -150.77 278.77 0 59.8 150.77 178.08 0 -248.88 -589.99c-44.06,-94.67 -127.69,-80.85 -127.69,-80.85zm86.29 392.5l0 0 -87.24 0 -87.17 0c0,0 -15.05,0.48 -9.42,-12.49l80.41 -196.91c0,0 5.82,-20.7 16.18,-20.7 10.43,0 16.37,20.7 16.37,20.7l80.42 196.91c5.3,12.97 -9.55,12.49 -9.55,12.49z"/>
     <path class="fil6" d="M6544.79 930.6c-108.48,0 -131.87,79.21 -131.87,79.21l-246.61 591.63 180.11 0 58.16 -150.77 278.77 0 59.87 150.77 178.14 0 -249.01 -589.99c-44.06,-94.67 -127.56,-80.85 -127.56,-80.85zm86.35 392.5l0 0 -87.24 0 -0.13 0 -87.11 0c0,0 -15.04,0.48 -9.55,-12.49l80.42 -196.91c0,0 5.82,-20.7 16.24,-20.7l0.13 0c10.43,0 16.24,20.7 16.24,20.7l80.36 196.91c5.49,12.97 -9.36,12.49 -9.36,12.49z"/>
     <path class="fil6" d="M4560.71 929.71c-118.14,0 -144.82,97.35 -144.82,97.35l-149.44 397.4c-11.56,29.94 -19.34,3.14 -19.34,3.14l-147.67 -390.11c-39.32,-118.33 -151.66,-107.46 -151.66,-107.46 -128.76,0 -124.91,104.78 -124.91,104.78l0 566.63 163.47 0c0,0 1.9,-434.33 1.9,-465.42 0,-31.55 13.85,0 13.85,0l159.99 425.4c25.35,58.86 100.83,49.72 100.83,49.72 44.63,0 72.45,-22.19 83.76,-49.12 5.69,-13.28 145.9,-381.94 162.27,-425.57 12.46,-33.34 15.3,0.61 15.3,0.61l-1.2 464.38 164.05 0 0 -576.74c0,-99.82 -126.38,-94.99 -126.38,-94.99z"/>
     <path class="fil6" d="M6104.94 1318.58c39.94,-74.94 31.73,-189.11 31.73,-189.11 0,-186.64 -152.42,-189.17 -152.42,-189.17l-391.3 0c-83.38,0 -81.73,105.95 -81.73,105.95l0 555.19 163.29 0 0 -479.87c-0.58,-48.8 46.46,-51.81 46.46,-51.81l174.85 0c78.64,0 70.73,90.53 70.73,90.53 0,111.76 -69.97,104.78 -69.97,104.78l-96.91 0c-78.7,0 -69.23,64.44 -69.23,64.44 0,26.65 39.2,66.1 39.2,66.1l171.89 205.83 206.32 0 -206.32 -216.99c129.2,0 163.41,-65.87 163.41,-65.87z"/>
     <path class="fil6" d="M8207.65 930.6c-108.79,0 -131.86,79.21 -131.86,79.21l-246.6 591.63 180.1 0 58.03 -150.77 278.91 0 59.86 150.77 178.01 0 -248.87 -589.99c-44.07,-94.67 -127.58,-80.85 -127.58,-80.85zm86.24 392.5l0 0 -87.12 0 -0.12 0 -87.12 0c0,0 -15.04,0.48 -9.67,-12.49l80.54 -196.91c0,0 5.81,-20.7 16.25,-20.7l0.12 0c10.44,0 16.25,20.7 16.25,20.7l80.22 196.91c5.5,12.97 -9.35,12.49 -9.35,12.49z"/>
     <path class="fil6" d="M9550.98 1011.45c-44.07,-94.67 -127.57,-80.85 -127.57,-80.85 -108.6,0 -131.87,79.21 -131.87,79.21l-246.66 591.63 179.97 0 58.35 -150.77 278.78 0 59.86 150.77 178.02 0 -248.88 -589.99zm-41.22 311.65l0 0 -87.36 0 -87.11 0c0,0 -14.98,0.48 -9.48,-12.49l80.34 -196.91c0,0 5.82,-20.7 16.25,-20.7 10.56,0 16.37,20.7 16.37,20.7l80.35 196.91c5.5,12.97 -9.36,12.49 -9.36,12.49z"/>
     <path class="fil6" d="M9031.35 940.3l-163.41 0 0 374.33c0,73.23 -28.01,106.26 -28.01,106.26 -43.17,54.34 -151.2,47.79 -151.2,47.79l-75.29 0.61 0 131.42 161.51 0.73c134.34,0 196.6,-64.42 196.6,-64.42 62.2,-62.08 59.8,-153.05 59.8,-153.05l0 -443.67z"/>
    </g>
    <g>
     <path class="fil6" d="M5566.72 2098.69c-4.74,14.63 -12.64,27.87 -23.77,39.63 -12.45,13.5 -26.93,23.76 -43.42,30.85 -16.51,7.08 -34.01,10.62 -52.54,10.62 -17.57,0 -34.2,-3.23 -50.06,-9.61 -15.81,-6.38 -29.78,-15.67 -41.91,-27.81 -8.42,-8.41 -14.92,-17.08 -19.47,-26.02 -4.56,-8.91 -7.84,-18.93 -9.86,-30.06 -2.03,-11.12 -3.3,-22.88 -3.8,-35.37 -0.51,-12.45 -0.75,-30.49 -0.75,-54.07 0,-23.59 0.24,-41.66 0.75,-54.31 0.5,-12.64 1.77,-24.4 3.8,-35.36 2.02,-10.98 5.3,-20.89 9.86,-29.81 4.55,-8.91 11.05,-17.61 19.47,-26.04 24.9,-24.91 55.56,-37.37 91.97,-37.37 33.63,0 61.7,9.84 84.08,29.53 22.44,19.72 36.29,45.76 41.72,78.06l-38.44 0c-5.05,-22.88 -15.23,-40.83 -30.53,-53.79 -15.36,-12.96 -34.32,-19.47 -56.83,-19.47 -11.82,0 -23.13,2.28 -33.88,6.83 -10.81,4.55 -20.23,10.87 -28.32,18.96 -5.69,5.72 -10.24,11.88 -13.6,18.46 -3.4,6.54 -5.93,14.13 -7.58,22.69 -1.7,8.6 -2.78,19.16 -3.29,31.61 -0.5,12.46 -0.75,29.15 -0.75,50.01 0,20.92 0.25,37.49 0.75,49.77 0.51,12.31 1.59,22.92 3.29,31.84 1.65,8.91 4.18,16.59 7.58,23.01 3.36,6.38 7.91,12.6 13.6,18.68 7.77,8.09 17.13,14.32 28.07,18.68 10.93,4.39 22.31,6.58 34.13,6.58 13.46,0 26.17,-2.69 38.12,-8.1 11.95,-5.37 22,-12.96 30.09,-22.72 7.02,-8.76 12.2,-18.28 15.37,-28.54 3.22,-10.28 4.79,-22.51 4.79,-36.64l0 -27.28 -88.37 0 0 -33.89 126.82 0 0 57.12c0,20.9 -2.41,38.66 -7.09,53.33z"/>
     <path class="fil6" d="M5830.2 2109.56c-4.24,16.15 -12.2,30.15 -24.02,41.91 -18.84,18.87 -42.61,28.32 -71.24,28.32 -28.64,0 -52.35,-9.45 -71.25,-28.32 -11.75,-11.76 -19.78,-25.76 -23.96,-41.91 -4.23,-16.18 -6.32,-35.21 -6.32,-57.12 0,-21.9 2.09,-40.93 6.32,-57.11 4.18,-16.15 12.21,-30.12 23.96,-41.91 18.9,-18.88 42.61,-28.33 71.25,-28.33 28.63,0 52.4,9.45 71.24,28.33 11.82,11.79 19.78,25.76 24.02,41.91 4.24,16.18 6.32,35.21 6.32,57.11 0,21.91 -2.08,40.94 -6.32,57.12zm-33.82 -102.6l0 0c-2.53,-12.8 -7.83,-23.23 -15.92,-31.32 -12.14,-12.1 -27.32,-18.18 -45.52,-18.18 -17.83,0 -32.81,6.08 -44.95,18.18 -8.09,8.09 -13.46,18.52 -16.18,31.32 -2.66,12.84 -4.05,27.97 -4.05,45.48 0,17.51 1.39,32.69 4.05,45.49 2.72,12.8 8.09,23.23 16.18,31.32 12.14,12.11 27.12,18.17 44.95,18.17 18.2,0 33.38,-6.06 45.52,-18.17 8.09,-8.09 13.39,-18.52 15.92,-31.32 2.54,-12.8 3.79,-27.98 3.79,-45.49 0,-17.51 -1.25,-32.64 -3.79,-45.48z"/>
     <path class="fil6" d="M5973.96 2176.76c-20.55,0 -36.29,-6.26 -47.22,-18.72 -10.95,-12.45 -16.44,-28.44 -16.44,-47.98l0 -152.6 -31.36 0 0 -27.81 31.36 0 0 -77.81 36.41 0 0 77.81 53.03 0 0 27.81 -53.03 0 0 151.6c0,11.75 2.78,20.79 8.28,26.99 5.56,6.25 14.1,9.36 25.54,9.36l19.21 0 0 31.35 -25.78 0z"/>
     <path class="fil6" d="M6131.62 2176.76c-20.56,0 -36.29,-6.26 -47.23,-18.72 -10.93,-12.45 -16.44,-28.44 -16.44,-47.98l0 -152.6 -31.35 0 0 -27.81 31.35 0 0 -77.81 36.42 0 0 77.81 53.04 0 0 27.81 -53.04 0 0 151.6c0,11.75 2.78,20.79 8.27,26.99 5.57,6.25 14.1,9.36 25.54,9.36l19.23 0 0 31.35 -25.79 0z"/>
     <path class="fil6" d="M6356.47 2176.76l0 -23.78c-10.12,10.12 -20.42,17.11 -30.85,21 -10.43,3.85 -24.08,5.81 -40.9,5.81 -17.19,0 -31.29,-1.77 -42.23,-5.31 -10.94,-3.54 -20.29,-9.36 -28,-17.45 -6.07,-6.06 -10.75,-13.46 -13.91,-22.25 -3.23,-8.72 -4.81,-18.17 -4.81,-28.26 0,-22.25 7.46,-39.76 22.51,-52.56 14.98,-12.8 36.09,-19.18 63.41,-19.18l74.78 0 0 -23.77c0,-18.53 -4.99,-32.24 -14.92,-41.19 -9.93,-8.91 -26.18,-13.37 -48.75,-13.37 -15.86,0 -28.37,2.09 -37.67,6.32 -9.29,4.17 -17.57,11.51 -25.03,21.94l-24.71 -22.7c10.74,-13.84 22.88,-23.42 36.34,-28.82 13.47,-5.38 30.66,-8.1 51.59,-8.1 66.31,0 99.5,27.63 99.5,82.88l0 168.79 -36.35 0zm0 -114.74l0 0 -69.73 0c-37.1,0 -55.63,14.67 -55.63,44 0,28.26 19.03,42.41 57.14,42.41 12.78,0 23.46,-1.07 32.06,-3.28 8.6,-2.19 16.43,-6.64 23.52,-13.41 8.4,-8.05 12.64,-22.37 12.64,-42.91l0 -26.81z"/>
     <path class="fil6" d="M6777.86 2113.83c-4.36,18.04 -12.33,32.77 -23.77,44.21 -6.7,6.77 -15.36,12.05 -25.98,15.94 -10.62,3.85 -22.19,5.81 -34.65,5.81 -14.79,0 -27.87,-2.4 -39.12,-7.08 -11.32,-4.74 -21.69,-13.34 -31.1,-25.79l0 29.84 -36.35 0 0 -359.76 36.35 0 0 139.96c9.41,-12.14 19.78,-20.49 31.1,-25.04 11.25,-4.55 24.33,-6.83 39.12,-6.83 12.46,0 24.03,1.97 34.65,5.82 10.62,3.89 19.28,9.17 25.98,15.93 11.44,11.44 19.41,26.17 23.77,44.19 4.36,18.05 6.58,38.5 6.58,61.41 0,22.92 -2.22,43.37 -6.58,61.39zm-32.11 -98.52l0 0c-1.52,-10.94 -4.42,-20.8 -8.79,-29.59 -4.42,-8.72 -10.81,-15.64 -19.22,-20.67 -8.41,-5.06 -19.02,-7.59 -31.86,-7.59 -12.77,0 -23.39,2.53 -31.8,7.59 -8.46,5.03 -14.85,11.95 -19.22,20.67 -4.35,8.79 -7.39,18.71 -9.1,29.84 -1.7,11.13 -2.52,23.42 -2.52,36.88 0,13.5 0.82,25.76 2.52,36.89 1.71,11.13 4.75,21.05 9.1,29.81 4.37,8.75 10.76,15.64 19.22,20.7 8.41,5.06 19.03,7.58 31.8,7.58 12.84,0 23.45,-2.52 31.86,-7.58 8.41,-5.06 14.8,-11.95 19.22,-20.7 4.37,-8.76 7.27,-18.62 8.79,-29.55 1.51,-10.94 2.27,-23.33 2.27,-37.15 0,-13.81 -0.76,-26.19 -2.27,-37.13z"/>
     <path class="fil6" d="M6874.84 2062.02c0,27.31 6.32,48.46 18.96,63.44 12.64,14.98 30.72,22.47 54.29,22.47 14.17,0 26.05,-2.19 35.66,-6.57 9.61,-4.37 19.48,-11.61 29.52,-21.72l24.78 21.72c-13.47,13.5 -26.86,23.26 -40.14,29.32 -13.34,6.08 -30.28,9.11 -50.82,9.11 -34.01,0 -60.63,-10.56 -79.84,-31.6 -19.16,-21.06 -28.76,-52.98 -28.76,-95.75 0,-40.1 9.1,-71.33 27.23,-93.71 18.22,-22.41 43.12,-33.64 74.8,-33.64 32.04,0 57.02,10.81 75.03,32.37 18.02,21.56 27.05,50.86 27.05,87.9l0 16.66 -167.76 0zm129.14 -50.76l0 0c-0.88,-5.22 -2.65,-11.19 -5.31,-17.95 -4.74,-11.44 -12.33,-20.55 -22.76,-27.25 -10.43,-6.76 -22.25,-10.11 -35.39,-10.11 -13.1,0 -24.91,3.35 -35.34,10.11 -10.44,6.7 -18.02,15.81 -22.77,27.25 -2.65,6.76 -4.42,12.73 -5.3,17.95 -0.83,5.25 -1.59,13.05 -2.27,23.52l131.41 0c-0.69,-10.47 -1.45,-18.27 -2.27,-23.52z"/>
     <path class="fil6" d="M7366.52 2176.76l0 -23.78c-10.12,10.12 -20.42,17.11 -30.85,21 -10.43,3.85 -24.08,5.81 -40.9,5.81 -17.2,0 -31.29,-1.77 -42.22,-5.31 -10.95,-3.54 -20.3,-9.36 -28.01,-17.45 -6.08,-6.06 -10.75,-13.46 -13.91,-22.25 -3.22,-8.72 -4.8,-18.17 -4.8,-28.26 0,-22.25 7.46,-39.76 22.5,-52.56 14.98,-12.8 36.1,-19.18 63.4,-19.18l74.79 0 0 -23.77c0,-18.53 -5,-32.24 -14.92,-41.19 -9.92,-8.91 -26.17,-13.37 -48.74,-13.37 -15.86,0 -28.39,2.09 -37.68,6.32 -9.28,4.17 -17.57,11.51 -25.03,21.94l-24.72 -22.7c10.75,-13.84 22.89,-23.42 36.35,-28.82 13.47,-5.38 30.66,-8.1 51.58,-8.1 66.32,0 99.5,27.63 99.5,82.88l0 168.79 -36.34 0zm0 -114.74l0 0 -69.72 0c-37.12,0 -55.64,14.67 -55.64,44 0,28.26 19.03,42.41 57.15,42.41 12.77,0 23.45,-1.07 32.05,-3.28 8.59,-2.19 16.44,-6.64 23.51,-13.41 8.41,-8.05 12.65,-22.37 12.65,-42.91l0 -26.81z"/>
     <path class="fil6" d="M7787.91 2113.83c-4.36,18.04 -12.33,32.77 -23.77,44.21 -6.7,6.77 -15.36,12.05 -25.98,15.94 -10.62,3.85 -22.19,5.81 -34.64,5.81 -14.79,0 -27.88,-2.4 -39.13,-7.08 -11.32,-4.74 -21.68,-13.34 -31.1,-25.79l0 29.84 -36.35 0 0 -359.76 36.35 0 0 139.96c9.42,-12.14 19.78,-20.49 31.1,-25.04 11.25,-4.55 24.34,-6.83 39.13,-6.83 12.45,0 24.02,1.97 34.64,5.82 10.62,3.89 19.28,9.17 25.98,15.93 11.44,11.44 19.41,26.17 23.77,44.19 4.36,18.05 6.57,38.5 6.57,61.41 0,22.92 -2.21,43.37 -6.57,61.39zm-32.12 -98.52l0 0c-1.51,-10.94 -4.42,-20.8 -8.79,-29.59 -4.42,-8.72 -10.8,-15.64 -19.21,-20.67 -8.41,-5.06 -19.03,-7.59 -31.86,-7.59 -12.76,0 -23.39,2.53 -31.79,7.59 -8.48,5.03 -14.86,11.95 -19.22,20.67 -4.36,8.79 -7.4,18.71 -9.1,29.84 -1.71,11.13 -2.53,23.42 -2.53,36.88 0,13.5 0.82,25.76 2.53,36.89 1.7,11.13 4.74,21.05 9.1,29.81 4.36,8.75 10.74,15.64 19.22,20.7 8.4,5.06 19.03,7.58 31.79,7.58 12.83,0 23.45,-2.52 31.86,-7.58 8.41,-5.06 14.79,-11.95 19.21,-20.7 4.37,-8.76 7.28,-18.62 8.79,-29.55 1.53,-10.94 2.28,-23.33 2.28,-37.15 0,-13.81 -0.75,-26.19 -2.28,-37.13z"/>
     <path class="fil6" d="M7884.88 2062.02c0,27.31 6.32,48.46 18.97,63.44 12.64,14.98 30.72,22.47 54.3,22.47 14.16,0 26.04,-2.19 35.65,-6.57 9.61,-4.37 19.47,-11.61 29.52,-21.72l24.79 21.72c-13.47,13.5 -26.87,23.26 -40.15,29.32 -13.34,6.08 -30.28,9.11 -50.83,9.11 -34,0 -60.62,-10.56 -79.84,-31.6 -19.15,-21.06 -28.76,-52.98 -28.76,-95.75 0,-40.1 9.1,-71.33 27.25,-93.71 18.2,-22.41 43.11,-33.64 74.78,-33.64 32.05,0 57.02,10.81 75.03,32.37 18.02,21.56 27.07,50.86 27.07,87.9l0 16.66 -167.78 0zm129.15 -50.76l0 0c-0.89,-5.22 -2.66,-11.19 -5.31,-17.95 -4.74,-11.44 -12.33,-20.55 -22.76,-27.25 -10.42,-6.76 -22.25,-10.11 -35.4,-10.11 -13.08,0 -24.91,3.35 -35.34,10.11 -10.43,6.7 -18.02,15.81 -22.75,27.25 -2.66,6.76 -4.43,12.73 -5.31,17.95 -0.83,5.25 -1.58,13.05 -2.28,23.52l131.43 0c-0.7,-10.47 -1.46,-18.27 -2.28,-23.52z"/>
     <path class="fil6" d="M8189.58 2176.76c-20.54,0 -36.28,-6.26 -47.22,-18.72 -10.94,-12.45 -16.43,-28.44 -16.43,-47.98l0 -152.6 -31.36 0 0 -27.81 31.36 0 0 -77.81 36.4 0 0 77.81 53.04 0 0 27.81 -53.04 0 0 151.6c0,11.75 2.78,20.79 8.29,26.99 5.56,6.25 14.09,9.36 25.53,9.36l19.22 0 0 31.35 -25.79 0z"/>
     <path class="fil6" d="M8347.24 2176.76c-20.54,0 -36.29,-6.26 -47.22,-18.72 -10.94,-12.45 -16.44,-28.44 -16.44,-47.98l0 -152.6 -31.35 0 0 -27.81 31.35 0 0 -77.81 36.41 0 0 77.81 53.04 0 0 27.81 -53.04 0 0 151.6c0,11.75 2.78,20.79 8.28,26.99 5.56,6.25 14.11,9.36 25.55,9.36l19.21 0 0 31.35 -25.79 0z"/>
     <path class="fil6" d="M8453.82 2062.02c0,27.31 6.32,48.46 18.96,63.44 12.65,14.98 30.73,22.47 54.31,22.47 14.16,0 26.04,-2.19 35.64,-6.57 9.62,-4.37 19.48,-11.61 29.53,-21.72l24.78 21.72c-13.46,13.5 -26.87,23.26 -40.14,29.32 -13.34,6.08 -30.28,9.11 -50.83,9.11 -34.01,0 -60.62,-10.56 -79.84,-31.6 -19.15,-21.06 -28.76,-52.98 -28.76,-95.75 0,-40.1 9.1,-71.33 27.25,-93.71 18.2,-22.41 43.11,-33.64 74.78,-33.64 32.05,0 57.02,10.81 75.03,32.37 18.02,21.56 27.06,50.86 27.06,87.9l0 16.66 -167.77 0zm129.14 -50.76l0 0c-0.88,-5.22 -2.65,-11.19 -5.3,-17.95 -4.74,-11.44 -12.33,-20.55 -22.76,-27.25 -10.43,-6.76 -22.25,-10.11 -35.4,-10.11 -13.09,0 -24.91,3.35 -35.34,10.11 -10.43,6.7 -18.02,15.81 -22.75,27.25 -2.66,6.76 -4.43,12.73 -5.31,17.95 -0.83,5.25 -1.58,13.05 -2.28,23.52l131.43 0c-0.7,-10.47 -1.46,-18.27 -2.29,-23.52z"/>
     <path class="fil6" d="M8827.73 1975.64c-6.69,-6.74 -13.21,-11.44 -19.47,-14.13 -6.19,-2.72 -14.03,-4.05 -23.45,-4.05 -17.89,0 -32.24,6.32 -43.24,18.94 -10.93,12.61 -16.37,28.54 -16.37,47.75l0 152.61 -36.41 0 0 -248.63 36.41 0 0 30.34c6.7,-10.43 16.37,-18.64 29.02,-24.52 12.64,-5.88 26.23,-8.86 40.7,-8.86 12.45,0 23.39,1.78 32.81,5.32 9.42,3.54 18.4,9.54 26.81,17.95l-26.81 27.28z"/>
     <polygon class="fil6" points="9243.56,2176.76 9209.75,2176.76 9144.57,1983.73 9079.9,2176.76 9046.02,2176.76 8967.19,1928.13 9006.64,1928.13 9063.71,2127.73 9128.89,1928.13 9160.25,1928.13 9225.93,2127.73 9282.5,1928.13 9321.89,1928.13 "/>
     <path class="fil6" d="M9503.82 2176.76l0 -23.78c-10.12,10.12 -20.42,17.11 -30.85,21 -10.43,3.85 -24.09,5.81 -40.9,5.81 -17.2,0 -31.29,-1.77 -42.23,-5.31 -10.93,-3.54 -20.29,-9.36 -28.01,-17.45 -6.06,-6.06 -10.74,-13.46 -13.89,-22.25 -3.23,-8.72 -4.81,-18.17 -4.81,-28.26 0,-22.25 7.46,-39.76 22.5,-52.56 14.99,-12.8 36.1,-19.18 63.41,-19.18l74.78 0 0 -23.77c0,-18.53 -5,-32.24 -14.92,-41.19 -9.92,-8.91 -26.17,-13.37 -48.74,-13.37 -15.86,0 -28.38,2.09 -37.67,6.32 -9.3,4.17 -17.58,11.51 -25.04,21.94l-24.72 -22.7c10.76,-13.84 22.89,-23.42 36.35,-28.82 13.47,-5.38 30.67,-8.1 51.58,-8.1 66.32,0 99.51,27.63 99.51,82.88l0 168.79 -36.35 0zm0 -114.74l0 0 -69.73 0c-37.11,0 -55.62,14.67 -55.62,44 0,28.26 19.03,42.41 57.14,42.41 12.77,0 23.46,-1.07 32.05,-3.28 8.6,-2.19 16.44,-6.64 23.52,-13.41 8.4,-8.05 12.64,-22.37 12.64,-42.91l0 -26.81z"/>
     <path class="fil6" d="M9680.13 2236.88c-4.68,13.14 -10.62,22.88 -17.64,29.29 -6.07,6.07 -13.33,10.47 -21.75,13.12 -8.4,2.72 -17.38,4.05 -26.8,4.05l-15.67 0 0 -32.31 11.12 0c12.13,0 20.99,-2.21 26.56,-6.58 5.56,-4.38 10.35,-12.47 14.4,-24.27l17.64 -48.48 -89.39 -243.57 39.39 0 68.21 199.6 67.7 -199.6 39.45 0 -113.22 308.75z"/>
    </g>
   </g>
  </g>
 </g>
</svg>
