<!--
Licensed to the Apache Software Foundation (ASF) under one
or more contributor license agreements.  See the NOTICE file
distributed with this work for additional information
regarding copyright ownership.  The ASF licenses this file
to you under the Apache License, Version 2.0 (the
"License"); you may not use this file except in compliance
with the License.  You may obtain a copy of the License at

  http://www.apache.org/licenses/LICENSE-2.0

Unless required by applicable law or agreed to in writing,
software distributed under the License is distributed on an
"AS IS" BASIS, WITHOUT WARRANTIES OR CONDITIONS OF ANY
KIND, either express or implied.  See the License for the
specific language governing permissions and limitations
under the License.
-->
<svg width="24" height="24" viewBox="0 0 24 24" fill="none" xmlns="http://www.w3.org/2000/svg">
<path fill-rule="evenodd" clip-rule="evenodd" d="M6.98828 10.8086L5.95703 15.6484C5.77344 16.5156 5.38672 17.2246 4.79688 17.7754C4.20703 18.3262 3.59961 18.6016 2.97461 18.6016C2.63086 18.6016 2.37793 18.5361 2.21582 18.4053C2.05371 18.2744 1.97266 18.1094 1.97266 17.9102C1.97266 17.7422 2.02344 17.5938 2.125 17.4648C2.22656 17.3359 2.37305 17.2715 2.56445 17.2715C2.68555 17.2715 2.79199 17.2988 2.88379 17.3535C2.97559 17.4082 3.05664 17.4766 3.12695 17.5586C3.18164 17.625 3.24316 17.7148 3.31152 17.8281C3.37988 17.9414 3.43945 18.0391 3.49023 18.1211C3.79102 18.0977 4.04785 17.8945 4.26074 17.5117C4.47363 17.1289 4.6582 16.582 4.81445 15.8711L5.89258 10.8086H4.75L4.87305 10.2754H6.00391L6.08594 9.87695C6.17969 9.42383 6.32812 9.01563 6.53125 8.65234C6.73438 8.28906 6.96484 7.98047 7.22266 7.72656C7.47656 7.47656 7.76465 7.28027 8.08691 7.1377C8.40918 6.99512 8.71875 6.92383 9.01562 6.92383C9.35938 6.92383 9.6123 6.98926 9.77441 7.12012C9.93652 7.25098 10.0176 7.41601 10.0176 7.61523C10.0176 7.7832 9.96973 7.93164 9.87402 8.06055C9.77832 8.18945 9.62891 8.25391 9.42578 8.25391C9.30469 8.25391 9.19922 8.22754 9.10938 8.1748C9.01953 8.12207 8.93945 8.05273 8.86914 7.9668C8.79102 7.86914 8.72852 7.77734 8.68164 7.69141C8.63477 7.60547 8.57617 7.50977 8.50586 7.4043C8.23633 7.41602 7.99805 7.59375 7.79102 7.9375C7.58398 8.28125 7.39649 8.85351 7.22852 9.6543L7.09961 10.2754H8.57031L8.44727 10.8086H6.98828ZM9.21289 13.0703C9.21289 11.3125 9.66211 9.88672 10.5996 8.64648H11.3125C10.6191 9.53516 10.0771 11.4199 10.0771 13.0703C10.0771 14.7305 10.6143 16.6104 11.3125 17.499H10.5996C9.66211 16.2588 9.21289 14.833 9.21289 13.0703ZM14.501 14.0273H14.4229L13.1729 16.0146H12.2207L14.0225 13.3828L12.2012 10.751H13.2021L14.4521 12.709H14.5303L15.7656 10.751H16.7178L14.9307 13.3486L16.7422 16.0146H15.7461L14.501 14.0273ZM19.7305 13.0752C19.7305 14.833 19.2812 16.2588 18.3438 17.499H17.6309C18.3242 16.6104 18.8662 14.7256 18.8662 13.0752C18.8662 11.415 18.3291 9.53516 17.6309 8.64648H18.3438C19.2812 9.88672 19.7305 11.3125 19.7305 13.0752Z" fill="currentColor"/>
</svg>
