<svg xmlns="http://www.w3.org/2000/svg" xmlns:xlink="http://www.w3.org/1999/xlink" width="188" zoomAndPan="magnify" viewBox="0 0 141.12 141.750002" height="188" preserveAspectRatio="xMidYMid meet" version="1.0"><path fill="#eb0045" d="M 66.648438 12.605469 C 42.222656 14.398438 22.292969 30.046875 14.738281 53.359375 C 13.636719 56.757812 13.011719 59.671875 12.246094 64.925781 C 11.9375 67.046875 11.761719 123.371094 12.058594 125.097656 C 12.378906 126.96875 13.285156 128.128906 14.796875 128.605469 C 15.996094 128.980469 76.40625 128.875 79.238281 128.492188 C 92.308594 126.722656 103.058594 121.195312 112.546875 111.363281 C 127.945312 95.410156 132.894531 71.375 125.089844 50.453125 C 116.125 26.421875 91.925781 10.746094 66.648438 12.605469 M 73.976562 23.636719 C 105.152344 26.199219 125.3125 57.148438 115.042969 86.679688 C 109.859375 101.589844 96.441406 113.851562 82.214844 116.675781 C 77.457031 117.621094 79.316406 117.566406 50.441406 117.621094 L 24.109375 117.671875 L 23.679688 117.242188 C 23.027344 116.589844 23.039062 117.304688 23.195312 91.253906 L 23.347656 66.769531 L 23.734375 64.269531 C 25.398438 53.605469 28.761719 46.414062 35.667969 38.765625 C 45.121094 28.292969 59.851562 22.476562 73.976562 23.636719 M 44.472656 45.023438 C 39.71875 46.546875 39.53125 53.171875 44.195312 54.925781 C 46.914062 55.953125 50.261719 54.566406 51.222656 52.011719 C 52.816406 47.78125 48.808594 43.632812 44.472656 45.023438 M 73.351562 46.488281 C 61.910156 48.363281 54.734375 57.21875 54.734375 69.453125 C 54.734375 79.957031 60.453125 88.625 69.207031 91.386719 L 70 91.636719 L 68.914062 91.953125 C 65.46875 92.945312 63.445312 95.765625 63.058594 100.113281 L 62.957031 101.269531 L 69.664062 101.269531 L 69.757812 100.5625 C 69.996094 98.761719 71.476562 97.84375 73.066406 98.507812 C 73.351562 98.628906 74.605469 99.355469 75.851562 100.128906 C 79.464844 102.367188 80.121094 102.613281 82.507812 102.609375 C 87.253906 102.601562 90.289062 99.5 90.773438 94.152344 L 90.871094 93.074219 L 84.183594 93.074219 L 84.085938 93.734375 C 83.886719 95.050781 82.941406 95.96875 81.796875 95.949219 C 80.933594 95.9375 80.679688 95.8125 77.894531 94.0625 L 75.738281 92.699219 L 78.269531 92.605469 C 90.09375 92.171875 98.566406 84.144531 99.785156 72.230469 C 101.070312 59.625 94.007812 49.242188 82.4375 46.722656 C 80.554688 46.308594 75.265625 46.175781 73.351562 46.488281 M 79.757812 54.90625 C 87.738281 56.558594 92.003906 66.667969 88.628906 75.945312 C 84.457031 87.421875 69.296875 86.9375 65.617188 75.210938 C 61.980469 63.609375 69.515625 52.789062 79.757812 54.90625 M 41.550781 75.488281 L 41.550781 92.328125 L 50.933594 92.328125 L 50.933594 58.648438 L 41.550781 58.648438 L 41.550781 75.488281 " fill-opacity="1" fill-rule="evenodd"/></svg>