<svg xmlns="http://www.w3.org/2000/svg" xmlns:xlink="http://www.w3.org/1999/xlink" width="188" zoomAndPan="magnify" viewBox="0 0 141.12 141.750002" height="188" preserveAspectRatio="xMidYMid meet" version="1.0"><path fill="#4e748b" d="M 37.757812 33.320312 C 36.789062 34.261719 35.59375 35.523438 35.097656 36.121094 C 34.597656 36.722656 34.085938 37.324219 33.953125 37.460938 C 33.714844 37.707031 32.386719 39.488281 31.699219 40.484375 C 31.496094 40.773438 31.257812 41.09375 31.167969 41.199219 C 31.074219 41.300781 30.757812 41.816406 30.464844 42.339844 C 30.167969 42.867188 29.871094 43.332031 29.804688 43.378906 C 29.664062 43.476562 27.1875 48.351562 26.777344 49.335938 C 25.671875 51.980469 24.375 55.996094 23.953125 58.074219 C 23.84375 58.601562 23.664062 59.496094 23.546875 60.0625 C 23.308594 61.234375 23.085938 62.695312 22.84375 64.671875 C 22.597656 66.710938 22.621094 112.695312 22.871094 113.8125 C 23.445312 116.375 25.125 118.136719 27.523438 118.691406 C 28.6875 118.960938 75 119.027344 76.667969 118.761719 C 77.320312 118.65625 78.339844 118.523438 78.929688 118.46875 C 80.042969 118.363281 80.183594 118.234375 79.847656 117.636719 C 79.660156 117.304688 77.621094 112.96875 77.621094 112.902344 C 77.621094 112.875 77.273438 112.117188 76.851562 111.214844 C 76.429688 110.3125 76.054688 109.480469 76.015625 109.367188 C 75.960938 109.207031 71.757812 109.160156 54.539062 109.128906 L 33.132812 109.09375 L 32.367188 108.203125 L 32.367188 88.066406 C 32.367188 65.222656 32.351562 65.53125 33.644531 58.949219 C 33.882812 57.746094 34.269531 56.542969 35.386719 53.546875 C 35.683594 52.75 37.820312 48.550781 37.964844 48.488281 C 38.027344 48.457031 38.082031 48.367188 38.082031 48.285156 C 38.082031 48.152344 39.3125 46.207031 39.777344 45.601562 C 41.011719 44 42.527344 42.136719 42.746094 41.960938 C 42.894531 41.835938 43.226562 41.472656 43.480469 41.148438 L 43.945312 40.5625 L 43.144531 38.910156 C 42.054688 36.652344 40.558594 33.453125 39.976562 32.128906 C 39.671875 31.429688 39.738281 31.394531 37.757812 33.320312 " fill-opacity="1" fill-rule="evenodd"/><path fill="#eb0045" d="M 67.535156 19.230469 C 67.011719 19.304688 66.011719 19.445312 65.3125 19.539062 C 63.472656 19.792969 60.390625 20.464844 59.121094 20.890625 C 58.773438 21.003906 57.738281 21.332031 56.820312 21.613281 C 55.902344 21.898438 55.082031 22.1875 55 22.261719 C 54.917969 22.335938 54.757812 22.394531 54.648438 22.394531 C 54.535156 22.394531 53.910156 22.644531 53.257812 22.949219 C 52.605469 23.257812 52.03125 23.507812 51.980469 23.507812 C 51.730469 23.507812 48.972656 24.824219 48.90625 24.976562 C 48.878906 25.042969 48.78125 25.097656 48.695312 25.097656 C 48.554688 25.097656 47.222656 25.867188 45.433594 26.984375 C 44.484375 27.574219 44.441406 27.378906 46.414062 31.535156 C 47.144531 33.070312 47.699219 34.269531 48.230469 35.457031 C 48.707031 36.53125 48.675781 36.527344 49.910156 35.542969 C 50 35.476562 50.605469 35.082031 51.261719 34.675781 C 51.917969 34.265625 52.488281 33.890625 52.53125 33.839844 C 52.601562 33.761719 55.648438 32.324219 56.660156 31.894531 C 56.878906 31.804688 57.269531 31.636719 57.535156 31.523438 C 58.761719 30.992188 61 30.253906 62.535156 29.871094 C 62.839844 29.792969 63.519531 29.621094 64.042969 29.488281 C 66.683594 28.820312 69.117188 28.5625 72.855469 28.5625 C 77.398438 28.5625 79.265625 28.820312 84.050781 30.101562 C 85.402344 30.464844 87.054688 31.039062 88.179688 31.539062 C 90.460938 32.550781 90.917969 32.761719 91.195312 32.921875 C 91.371094 33.019531 91.726562 33.207031 91.988281 33.332031 C 92.742188 33.695312 97.40625 36.730469 97.628906 37 C 97.671875 37.050781 98.0625 37.382812 98.5 37.730469 C 98.9375 38.078125 99.445312 38.507812 99.628906 38.683594 C 99.808594 38.859375 100.238281 39.261719 100.578125 39.578125 C 101.742188 40.65625 103.4375 42.5 104.433594 43.769531 C 104.980469 44.472656 105.539062 45.179688 105.675781 45.347656 C 105.976562 45.714844 107.554688 48.152344 107.9375 48.839844 C 108.332031 49.554688 110.027344 52.933594 110.175781 53.308594 C 110.824219 54.960938 111.988281 58.464844 112.152344 59.269531 C 112.214844 59.574219 112.332031 60.109375 112.414062 60.460938 C 113.726562 66.25 113.59375 73.410156 112.066406 79.214844 C 111.976562 79.566406 111.835938 80.101562 111.753906 80.40625 C 111.675781 80.714844 111.421875 81.464844 111.195312 82.074219 C 110.96875 82.6875 110.675781 83.511719 110.546875 83.902344 C 109.988281 85.566406 107.296875 90.664062 106.394531 91.773438 C 106.324219 91.859375 105.96875 92.371094 105.601562 92.90625 C 105.238281 93.445312 104.851562 93.980469 104.738281 94.097656 C 104.625 94.21875 104.175781 94.746094 103.742188 95.269531 C 102.71875 96.496094 100.238281 98.976562 98.816406 100.191406 C 98.207031 100.714844 97.671875 101.179688 97.628906 101.226562 C 97.582031 101.273438 97.261719 101.519531 96.914062 101.78125 C 96.5625 102.039062 96.183594 102.339844 96.066406 102.453125 C 95.953125 102.566406 95.796875 102.660156 95.722656 102.660156 C 95.648438 102.660156 95.492188 102.75 95.375 102.859375 C 94.589844 103.605469 90.15625 105.898438 87.625 106.867188 C 85.835938 107.546875 83.425781 108.222656 82.765625 108.222656 C 82.285156 108.222656 82.304688 108.574219 82.851562 109.730469 C 83.449219 110.992188 84.578125 113.410156 85.082031 114.5 C 85.363281 115.113281 85.769531 115.980469 85.976562 116.429688 L 86.363281 117.25 L 87.191406 117.003906 C 89.757812 116.253906 91.214844 115.785156 91.347656 115.664062 C 91.429688 115.59375 91.59375 115.53125 91.714844 115.53125 C 92.214844 115.53125 98.414062 112.472656 98.554688 112.15625 C 98.582031 112.089844 98.671875 112.035156 98.753906 112.035156 C 98.902344 112.035156 101.605469 110.320312 101.753906 110.132812 C 101.800781 110.078125 102.085938 109.863281 102.390625 109.652344 C 102.695312 109.441406 102.980469 109.226562 103.023438 109.175781 C 103.070312 109.125 103.320312 108.921875 103.582031 108.71875 C 105.808594 107.019531 111.050781 101.761719 112.226562 100.050781 C 112.351562 99.867188 112.5 99.683594 112.550781 99.640625 C 112.605469 99.59375 112.820312 99.308594 113.027344 99.003906 C 113.238281 98.695312 113.449219 98.410156 113.496094 98.367188 C 113.703125 98.179688 115.410156 95.496094 115.410156 95.363281 C 115.410156 95.28125 115.472656 95.191406 115.546875 95.160156 C 115.847656 95.042969 118.339844 90.199219 119.050781 88.355469 C 119.335938 87.609375 119.636719 86.859375 119.714844 86.683594 C 120.339844 85.308594 121.777344 79.9375 122.222656 77.308594 C 122.816406 73.800781 123.007812 66.328125 122.582031 63.402344 C 122.476562 62.65625 122.3125 61.515625 122.21875 60.859375 C 122.125 60.203125 121.949219 59.273438 121.832031 58.792969 C 121.714844 58.308594 121.511719 57.488281 121.382812 56.964844 C 120.84375 54.757812 120.207031 52.671875 119.691406 51.398438 C 119.585938 51.136719 119.445312 50.78125 119.375 50.605469 C 119.308594 50.429688 119.101562 49.949219 118.921875 49.535156 C 118.738281 49.121094 118.585938 48.746094 118.585938 48.703125 C 118.585938 48.523438 117.078125 45.515625 116.964844 45.46875 C 116.894531 45.4375 116.839844 45.347656 116.839844 45.265625 C 116.839844 45.183594 116.445312 44.460938 115.96875 43.664062 C 115.484375 42.867188 115.09375 42.183594 115.09375 42.144531 C 115.09375 41.9375 112.335938 38.210938 111.125 36.785156 C 109.539062 34.917969 106.933594 32.269531 105.722656 31.285156 C 105.351562 30.984375 104.894531 30.597656 104.710938 30.421875 C 104.523438 30.246094 104.085938 29.890625 103.738281 29.632812 C 103.390625 29.378906 103.070312 29.121094 103.023438 29.066406 C 102.851562 28.855469 99.765625 26.785156 98.382812 25.957031 C 96.523438 24.84375 91.527344 22.394531 91.113281 22.394531 C 91.027344 22.394531 90.828125 22.324219 90.679688 22.242188 C 90.0625 21.898438 85.351562 20.460938 83.890625 20.171875 C 83.367188 20.070312 82.652344 19.921875 82.304688 19.847656 C 81.957031 19.769531 81.097656 19.632812 80.398438 19.539062 C 79.699219 19.445312 78.613281 19.300781 77.984375 19.214844 C 76.621094 19.027344 68.890625 19.039062 67.535156 19.230469 " fill-opacity="1" fill-rule="evenodd"/></svg>