<svg id="logo_SF_Full" xmlns="http://www.w3.org/2000/svg" width="276" height="29.266" viewBox="0 0 276 29.266">
  <path id="Path_42" data-name="Path 42" d="M-266.087-378.337v-10.234c0-.1,0-.2,0-.3,0-.5-.057-.481.479-.481H-248.8c.082,0,.165.005.247,0,.2-.013.258.091.248.271-.008.148,0,.3,0,.445v4c0,.457.045.453-.46.453H-259.4c-.115,0-.231.006-.346,0-.184-.011-.271.063-.27.255q.005,1.434,0,2.867c0,.16.057.248.228.242.132,0,.264,0,.4,0h9.443c.613,0,.55-.053.55.562q0,1.928,0,3.856c0,.421,0,.425-.437.425q-4.8,0-9.591,0c-.6,0-.59-.114-.589.576q0,1.186,0,2.373c0,.606-.035.548.571.548h8.8c.709,0,1.417,0,2.126,0,.355,0,.366.01.367.353q.006,2.25,0,4.5c0,.339-.01.346-.365.347q-2.151,0-4.3,0h-12.854c-.468,0-.42-.008-.42-.441v-10.629Z" transform="translate(504.898 392.48)" fill="#e40f1b"/>
  <path id="Path_43" data-name="Path 43" d="M-399.064-382.262c0,1.862.008,3.724,0,5.585a12.28,12.28,0,0,1-.645,3.978,8.029,8.029,0,0,1-5.322,5.225,14.241,14.241,0,0,1-5.019.621,13.106,13.106,0,0,1-3.309-.5,8.1,8.1,0,0,1-5.925-6.385,15.034,15.034,0,0,1-.334-3.382q-.01-5.832,0-11.664c0-.634-.065-.561.546-.562q2.595,0,5.19,0c.486,0,.454-.034.454.452q0,5.808,0,11.615a8.539,8.539,0,0,0,.163,1.717,3.653,3.653,0,0,0,3.7,3.191,4.819,4.819,0,0,0,1.66-.193,3.617,3.617,0,0,0,2.57-3.186,7.408,7.408,0,0,0,.087-1.23q-.007-5.906,0-11.812c0-.625-.074-.55.55-.551q2.546-.005,5.091,0c.115,0,.231,0,.346,0,.148,0,.2.074.2.214s0,.264,0,.4Z" transform="translate(613.693 392.479)" fill="#e40f1b"/>
  <path id="Path_44" data-name="Path 44" d="M-342.386-371.455-339-375.49a1.139,1.139,0,0,1,.473.29,11.573,11.573,0,0,0,5.314,2.23,6.7,6.7,0,0,0,2.7-.061,1.485,1.485,0,0,0,1.2-1.048,1.2,1.2,0,0,0-.475-1.35,4.758,4.758,0,0,0-1.43-.654c-1.253-.4-2.552-.635-3.817-.993a15.713,15.713,0,0,1-3.128-1.19,5.338,5.338,0,0,1-2.9-3.272,6.679,6.679,0,0,1,3.326-7.974,9.9,9.9,0,0,1,4.27-1.088,16.089,16.089,0,0,1,5.843.766,12.664,12.664,0,0,1,3.608,1.9c.335.253.36.208.108.561q-1.32,1.85-2.633,3.706c-.224.315-.229.316-.566.091a11.165,11.165,0,0,0-4.68-1.865,5.32,5.32,0,0,0-2.252.059,1.338,1.338,0,0,0-1.1,1.337,1.179,1.179,0,0,0,.52,1.011,4.771,4.771,0,0,0,1.393.615c1.164.36,2.367.564,3.541.885a16.24,16.24,0,0,1,3.23,1.2,7.38,7.38,0,0,1,1.769,1.249,5.2,5.2,0,0,1,1.567,3.574,7.24,7.24,0,0,1-.564,3.426,6.621,6.621,0,0,1-3.6,3.413,11.884,11.884,0,0,1-5.018.883,15.91,15.91,0,0,1-8.306-2.33A10.855,10.855,0,0,1-342.386-371.455Z" transform="translate(558.962 393.378)" fill="#e40f1b"/>
  <path id="Path_45" data-name="Path 45" d="M-559.214-378.3v-10.478c0-.115,0-.231,0-.346-.006-.149.066-.207.208-.2.1,0,.2,0,.3,0h15.816c.371,0,.375-.023.374.381,0,1.153,0,2.306,0,3.46,0,.563.054.508-.5.508h-10.626c-.726,0-.726,0-.726.723,0,1.038,0,2.076,0,3.114,0,.7-.093.612.59.613q4.572,0,9.144,0c.68,0,.68,0,.68.666,0,1.087,0,2.175,0,3.262,0,.418,0,.421-.439.421h-9.44c-.611,0-.533-.052-.534.518q0,1.779,0,3.559c0,.536-.081.507.5.507H-543c.115,0,.232.008.346,0,.221-.02.284.086.283.292q-.008,1.9,0,3.806c0,.19-.063.274-.257.255-.1-.009-.2,0-.3,0h-15.865c-.422,0-.425,0-.425-.432Q-559.215-372.992-559.214-378.3Z" transform="translate(712.607 392.469)"/>
  <path id="Path_46" data-name="Path 46" d="M-489.04-378.315v-10.38c0-.115.009-.231,0-.346-.022-.225.049-.348.3-.319a2.643,2.643,0,0,0,.3,0q8.254,0,16.508,0c.694,0,.594-.075.6.608q.007,2.125,0,4.251c0,.536.068.511-.5.511h-10.379c-.1,0-.2,0-.3,0-.37.008-.376.008-.378.388q-.005,1.483,0,2.966c0,.383.006.387.42.388q3.114,0,6.228,0h3.312c.535,0,.489-.037.489.467q0,2.051,0,4.1c0,.506.069.518-.5.518q-3.139,0-6.277,0c-1.087,0-2.175,0-3.262,0-.4,0-.406.008-.406.412q0,3.435,0,6.87c0,.132,0,.264,0,.4,0,.147-.068.206-.209.2-.1,0-.2,0-.3,0h-5.14c-.1,0-.2,0-.3,0-.145,0-.205-.071-.2-.212s0-.264,0-.4Z" transform="translate(662.885 392.49)" fill="#e40f1b"/>
  <path id="Path_47" data-name="Path 47" d="M-800.374-382.17v-6.574c0-.115.008-.231,0-.346-.014-.192.065-.273.258-.251a2.175,2.175,0,0,0,.247,0q1.953,0,3.9,0c.543,0,.484-.044.485.466q0,2.051,0,4.1,0,4.1,0,8.2a6.768,6.768,0,0,0,.386,2.275,4.073,4.073,0,0,0,3.571,2.846,5.845,5.845,0,0,0,2.257-.12,4.107,4.107,0,0,0,3.073-3.267,7.869,7.869,0,0,0,.208-1.861q-.005-6.055,0-12.11c0-.6-.084-.535.513-.536q2,0,4,0c.369,0,.375.006.375.376,0,4.036.011,8.073,0,12.11a13.13,13.13,0,0,1-.62,4.179,7.786,7.786,0,0,1-5.433,5.275,12.565,12.565,0,0,1-7.351-.023,7.81,7.81,0,0,1-5.526-6.079,13.215,13.215,0,0,1-.343-3.084C-800.377-378.447-800.374-380.308-800.374-382.17Z" transform="translate(883.495 392.477)"/>
  <path id="Path_48" data-name="Path 48" d="M-962.633-374.712a13.648,13.648,0,0,0,2.771,1.806,8.292,8.292,0,0,0,4.892.789,3.314,3.314,0,0,0,1.366-.532,1.827,1.827,0,0,0-.052-2.982,8.277,8.277,0,0,0-1.941-.836c-1.183-.346-2.377-.651-3.558-1a11.448,11.448,0,0,1-3.1-1.367,5.085,5.085,0,0,1-2.313-3.891,7.415,7.415,0,0,1,.167-2.79,6.312,6.312,0,0,1,4.232-4.4,10.444,10.444,0,0,1,4.579-.481,12.472,12.472,0,0,1,6.557,2.481c.066.05.128.1.2.149.144.094.141.194.045.327-.213.293-.415.594-.62.892-.541.787-1.088,1.569-1.618,2.364-.136.2-.232.2-.425.073a11.834,11.834,0,0,0-3.765-1.793,5.767,5.767,0,0,0-2.976-.07,3.226,3.226,0,0,0-.68.284,1.788,1.788,0,0,0-.086,3.07,8.4,8.4,0,0,0,2,.814c1.152.333,2.315.632,3.462.983a10.382,10.382,0,0,1,3.515,1.741,5.076,5.076,0,0,1,1.933,3.745,7.769,7.769,0,0,1-.242,2.839A6.164,6.164,0,0,1-952-368.464a10.7,10.7,0,0,1-4.69.751,14.057,14.057,0,0,1-5.655-1.41,14.085,14.085,0,0,1-2.927-1.911c-.156-.132-.249-.223-.073-.43C-964.442-372.531-963.551-373.61-962.633-374.712Z" transform="translate(1000.461 393.265)"/>
  <path id="Path_49" data-name="Path 49" d="M-625.313-383.676a13.888,13.888,0,0,0-2.021-1.5,6.907,6.907,0,0,0-4.7-.9,6.061,6.061,0,0,0-4.368,3.081,7.592,7.592,0,0,0,.676,8.437,6.091,6.091,0,0,0,5.347,2.206,7.8,7.8,0,0,0,4.719-2.136c.5-.437.5-.435.976.041.813.818,1.622,1.64,2.438,2.456.134.134.2.223.029.4a11.183,11.183,0,0,1-5.242,3.293,12.352,12.352,0,0,1-8.631-.622,10.706,10.706,0,0,1-6.059-7.594,11.518,11.518,0,0,1,.684-7.488,10.7,10.7,0,0,1,7.8-6.36,12.984,12.984,0,0,1,7.94.673,10.871,10.871,0,0,1,3.261,2.191c.155.145.26.253.063.475C-623.37-385.927-624.325-384.815-625.313-383.676Z" transform="translate(771.609 393.433)"/>
  <path id="Path_50" data-name="Path 50" d="M-180.507-373.05c-.1-.168-.279-.185-.425-.245q-4.854-2-9.71-3.993c-.509-.21-.418-.1-.419-.634,0-1.334,0-2.668,0-4a.628.628,0,0,1,.432.11q7.225,3.162,14.452,6.319a.588.588,0,0,1,.434.645c-.026,1.136-.028,2.274,0,3.41a.648.648,0,0,1-.467.725c-3.98,1.724-7.951,3.471-11.924,5.211-.873.382-1.748.761-2.621,1.143a.39.39,0,0,1-.242.057c-.123-.073-.063-.2-.063-.3,0-1.236.009-2.472-.011-3.707-.006-.322.116-.441.4-.557q4.817-1.959,9.623-3.947C-180.869-372.891-180.691-372.971-180.507-373.05Z" transform="translate(451.742 387.225)"/>
  <path id="Path_51" data-name="Path 51" d="M-1070.327-381.882v2.287c0,.577-.018,1.154.008,1.729a.482.482,0,0,1-.365.542c-1.934.782-3.862,1.581-5.792,2.373l-4.15,1.7c-.075.031-.147.071-.244.118a1.4,1.4,0,0,0,.522.267l9.618,3.953c.4.166.4.168.4.6q0,1.828,0,3.657v.349c-.205.082-.34-.05-.475-.108q-4.745-2.067-9.484-4.146c-1.641-.718-3.277-1.444-4.924-2.148a.557.557,0,0,1-.4-.617c.025-1.186.018-2.372,0-3.558a.5.5,0,0,1,.346-.555q7.254-3.157,14.5-6.334A.731.731,0,0,1-1070.327-381.882Z" transform="translate(1085.613 387.191)"/>
  <path id="Path_52" data-name="Path 52" d="M-1008.566-400.085c-.327.691-.619,1.312-.915,1.931q-4.754,9.941-9.508,19.882c-1.121,2.343-2.248,4.682-3.359,7.029a.614.614,0,0,1-.661.416c-1.185-.025-2.371-.01-3.549-.01-.1-.141.014-.226.059-.319q5.121-10.722,10.247-21.442c1.134-2.373,2.278-4.741,3.4-7.117a.552.552,0,0,1,.588-.378C-1011.057-400.073-1009.855-400.085-1008.566-400.085Z" transform="translate(1043.793 400.093)"/>
  <path id="Path_53" data-name="Path 53" d="M-871.2-381a10.867,10.867,0,0,0-6.242-8.456,12.184,12.184,0,0,0-7.7-.962,11.113,11.113,0,0,0-6.461,3.54,11.084,11.084,0,0,0-2.751,9.759,10.737,10.737,0,0,0,6.74,8.4,12.269,12.269,0,0,0,7.268.687,11.214,11.214,0,0,0,6.019-3.176,11.23,11.23,0,0,0,3.266-8.066A15.072,15.072,0,0,0-871.2-381Zm-6.823,6.693a6.115,6.115,0,0,1-4.131,1.973,6.4,6.4,0,0,1-5.763-2.4,7.415,7.415,0,0,1-1.552-4.838,6.651,6.651,0,0,1,2.4-5.062,6.623,6.623,0,0,1,10.016,1.92A7.282,7.282,0,0,1-878.023-374.306Z" transform="translate(950.235 393.401)"/>
  <path id="Path_54" data-name="Path 54" d="M-703.623-375.123l.353-.152c.105-.045.212-.088.316-.138a6.648,6.648,0,0,0,3.726-4.238,8.651,8.651,0,0,0,.24-3.523,6.31,6.31,0,0,0-3.138-4.934,8.931,8.931,0,0,0-4.531-1.2c-3.427-.037-6.854-.02-10.281-.026-.467,0-.414,0-.414.443v3.9q0,8.626,0,17.251c0,.494-.08.488.468.488,1.285,0,2.57,0,3.855,0,.629,0,.55.08.552-.548,0-2.043,0-4.086,0-6.129,0-.372.007-.376.38-.377.989,0,1.977.013,2.966-.008a.732.732,0,0,1,.715.379c1.394,2.117,2.814,4.218,4.21,6.335a.689.689,0,0,0,.677.358c.856-.023,1.713-.008,2.57-.008h2.709Zm-.238-6.465c-.109,2.122-1.8,2.91-3.374,2.945s-3.129.008-4.694.008h-.545c0-2.031,0-4.007,0-5.983,0-.217.043-.333.3-.328,1.7.032,3.392-.05,5.087.05a4.592,4.592,0,0,1,1.392.3A2.816,2.816,0,0,1-703.86-381.588Z" transform="translate(824.666 392.466)"/>
</svg>
