<svg width="77" height="78" viewBox="0 0 77 78" fill="none" xmlns="http://www.w3.org/2000/svg">
<path d="M57.07 20C50.6 20 44.64 23.64 38.88 30C33.22 23.54 27.16 20 20.39 20C9.18 20 1 28 1 38.77C1 49.54 9.18 57.44 20.39 57.44C27.28 57.44 32.62 54.21 38.58 47.77C44.34 54.23 50.2 57.46 57.07 57.46C68.28 57.44 76.46 49.57 76.46 38.77C76.46 27.97 68.28 20 57.07 20ZM20.47 46.14C15.72 46.14 12.89 43.01 12.89 38.87C12.89 34.73 15.72 31.51 20.47 31.51C24.47 31.51 27.74 34.73 31.28 39.07C27.94 43.11 24.41 46.14 20.47 46.14ZM56.73 46.14C52.79 46.14 49.46 43.01 45.92 38.87C49.56 34.53 52.69 31.51 56.73 31.51C61.48 31.51 64.28 34.77 64.28 38.87C64.28 42.97 61.48 46.14 56.73 46.14Z" fill="#484848"/>
<path d="M45.9229 38.9753C48.7189 42.2297 51.4411 44.8764 54.3896 45.8191L46.999 54.6404C43.8782 52.8202 41.0787 50.4981 38.7129 47.7673L45.9229 38.9753Z" fill="#20A7C9" stroke="black" stroke-width="0.2"/>
<path d="M30.5117 22.9609C33.6169 24.8467 36.3998 27.2199 38.75 29.9902L31.333 38.875L31.1201 38.7256C28.4658 35.4924 25.9494 32.9265 23.1084 31.8848L30.5117 22.9609Z" fill="#20A7C9" stroke="black" stroke-width="0.2"/>
</svg>
